<?xml version="1.0" encoding="utf-8"?>
<!-- Generator: Adobe Illustrator 16.0.3, SVG Export Plug-In . SVG Version: 6.00 Build 0)  -->
<!DOCTYPE svg PUBLIC "-//W3C//DTD SVG 1.1//EN" "http://www.w3.org/Graphics/SVG/1.1/DTD/svg11.dtd">
<svg version="1.1" id="Capa_1" xmlns="http://www.w3.org/2000/svg" xmlns:xlink="http://www.w3.org/1999/xlink" x="0px" y="0px"
	 width="105px" height="100.667px" viewBox="0 0 105 100.667" enable-background="new 0 0 105 100.667" xml:space="preserve">
<g>
	<defs>
		<path id="SVGID_1_" d="M52.615,1.165C25.053,1.614,2.271,20.097,1.268,45.499C0.272,70.902,20.901,92.278,47.352,93.227
			c13.466,0.494,25.84-4.408,34.879-12.687c8.707-7.976,8.349-22.008,1.424-15.648c-7.609,7.001-18.253,11.179-29.861,10.777
			c-22.137-0.766-39.415-17.935-38.582-38.344c0.766-18.938,20.32-33.923,37.826-34.835l0.45-1.333
			C53.2,1.157,52.913,1.157,52.615,1.165"/>
	</defs>
	<clipPath id="SVGID_2_">
		<use xlink:href="#SVGID_1_"  overflow="visible"/>
	</clipPath>
	
		<linearGradient id="SVGID_3_" gradientUnits="userSpaceOnUse" x1="-453.021" y1="1176.4111" x2="-450.3459" y2="1176.4111" gradientTransform="matrix(32.7279 0 0 32.7279 14827.7041 -38454.0664)">
		<stop  offset="0" style="stop-color:#FA0009"/>
		<stop  offset="0.1264" style="stop-color:#FA0009"/>
		<stop  offset="0.1949" style="stop-color:#FA0D16"/>
		<stop  offset="0.3219" style="stop-color:#FB2F37"/>
		<stop  offset="0.4935" style="stop-color:#FC676D"/>
		<stop  offset="0.7005" style="stop-color:#FEB3B6"/>
		<stop  offset="0.8901" style="stop-color:#FFFFFF"/>
		<stop  offset="1" style="stop-color:#FFFFFF"/>
	</linearGradient>
	<rect x="0.272" y="1.157" clip-path="url(#SVGID_2_)" fill="url(#SVGID_3_)" width="90.666" height="92.564"/>
</g>
<g>
	<defs>
		<path id="SVGID_4_" d="M52.615,1.165C25.053,1.614,2.271,20.097,1.268,45.499C0.272,70.902,20.901,92.278,47.352,93.227
			c13.466,0.494,25.84-4.408,34.879-12.687c8.707-7.976,8.349-22.008,1.424-15.648c-7.609,7.001-18.253,11.179-29.861,10.777
			c-22.137-0.766-39.415-17.935-38.582-38.344c0.766-18.938,20.32-33.923,37.826-34.835l0.45-1.333
			C53.2,1.157,52.913,1.157,52.615,1.165"/>
	</defs>
	<clipPath id="SVGID_5_">
		<use xlink:href="#SVGID_4_"  overflow="visible"/>
	</clipPath>
	
		<linearGradient id="SVGID_6_" gradientUnits="userSpaceOnUse" x1="-454.8247" y1="1170.752" x2="-452.1485" y2="1170.752" gradientTransform="matrix(17.6235 4.2734 4.2734 -17.6235 3055.155 22623.1543)">
		<stop  offset="0" style="stop-color:#FA0009"/>
		<stop  offset="0.1264" style="stop-color:#FA0009"/>
		<stop  offset="0.1949" style="stop-color:#FA0D16"/>
		<stop  offset="0.3219" style="stop-color:#FB2F37"/>
		<stop  offset="0.4935" style="stop-color:#FC676D"/>
		<stop  offset="0.7005" style="stop-color:#FEB3B6"/>
		<stop  offset="0.8901" style="stop-color:#FFFFFF"/>
		<stop  offset="1" style="stop-color:#FFFFFF"/>
	</linearGradient>
	<polygon clip-path="url(#SVGID_5_)" fill="url(#SVGID_6_)" points="5.305,-19.606 112.136,6.297 85.902,114.485 -20.926,88.581 	
		"/>
</g>
<g>
	<defs>
		<path id="SVGID_7_" d="M53.488,1.157l-0.45,1.333c1.155-0.053,2.3-0.053,3.426,0.011C78.71,3.792,97.019,22,32.294,40.185
			c16.487,3.107,28.662,10.527,28.662,10.527C116.254,23.71,84.977,1.157,53.684,1.157H53.488z"/>
	</defs>
	<clipPath id="SVGID_8_">
		<use xlink:href="#SVGID_7_"  overflow="visible"/>
	</clipPath>
	<rect x="32.294" y="1.159" clip-path="url(#SVGID_8_)" fill="#FDCC01" width="83.957" height="49.556"/>
</g>
<g>
	<defs>
		<path id="SVGID_9_" d="M80.299,74.095c-0.092-0.48-0.209-0.975-0.351-1.458c0.805,3.596,0.411,7.359-1.651,11.242
			c-4.045,6.609-10.581,11.587-23.205,14.838c32.341,1.421,69.333-28.4,36.054-57.1C77.069,47.298,78.232,62.433,80.299,74.095"/>
	</defs>
	<clipPath id="SVGID_10_">
		<use xlink:href="#SVGID_9_"  overflow="visible"/>
	</clipPath>
	
		<linearGradient id="SVGID_11_" gradientUnits="userSpaceOnUse" x1="-448.4849" y1="1160.5508" x2="-445.809" y2="1160.5508" gradientTransform="matrix(3.5667 7.8309 7.8309 -3.5667 -7408.3667 7701.2842)">
		<stop  offset="0" style="stop-color:#E78D00"/>
		<stop  offset="0.2218" style="stop-color:#EFA400"/>
		<stop  offset="0.4962" style="stop-color:#F7BA01"/>
		<stop  offset="0.7602" style="stop-color:#FBC801"/>
		<stop  offset="1" style="stop-color:#FDCC01"/>
	</linearGradient>
	<polygon clip-path="url(#SVGID_10_)" fill="url(#SVGID_11_)" points="112.515,15.464 146.502,90.085 67.003,126.292 33.018,51.671 
			"/>
</g>
<g>
	<defs>
		<path id="SVGID_12_" d="M31.861,40.185c14.458,1.744,44.963,17.17,48.472,32.771c-3.099-14.373-4.983-34.152,22.591-35.545
			c-10.785-4.978-20.375-6.734-28.97-6.737C56.247,30.674,42.787,38.138,31.861,40.185"/>
	</defs>
	<clipPath id="SVGID_13_">
		<use xlink:href="#SVGID_12_"  overflow="visible"/>
	</clipPath>
	
		<linearGradient id="SVGID_14_" gradientUnits="userSpaceOnUse" x1="-441.8403" y1="1153.6494" x2="-439.1645" y2="1153.6494" gradientTransform="matrix(0 5.7571 5.7571 0 -6574.3223 2574.0823)">
		<stop  offset="0" style="stop-color:#E78D00"/>
		<stop  offset="0.2218" style="stop-color:#EFA400"/>
		<stop  offset="0.4962" style="stop-color:#F7BA01"/>
		<stop  offset="0.7602" style="stop-color:#FBC801"/>
		<stop  offset="1" style="stop-color:#FDCC01"/>
	</linearGradient>
	<rect x="31.861" y="30.674" clip-path="url(#SVGID_13_)" fill="url(#SVGID_14_)" width="71.063" height="42.282"/>
</g>
<g>
	<defs>
		<path id="SVGID_15_" d="M53.488,1.157c-0.288,0-0.575,0-0.873,0.008C42.402,1.333,32.854,3.978,24.826,8.523l4.38,3.495
			c6.961-5.574,15.622-9.101,23.833-9.529c1.155-0.053,2.3-0.053,3.426,0.011c10.905,0.643,20.854,5.339,20.542,12.108l5.464-6.167
			C75.222,3.825,64.442,1.157,53.66,1.157H53.488z"/>
	</defs>
	<clipPath id="SVGID_16_">
		<use xlink:href="#SVGID_15_"  overflow="visible"/>
	</clipPath>
	
		<linearGradient id="SVGID_17_" gradientUnits="userSpaceOnUse" x1="-456.6416" y1="1173.7324" x2="-453.9656" y2="1173.7324" gradientTransform="matrix(16.8769 0 0 -16.8769 7737.4702 19816.8242)">
		<stop  offset="0" style="stop-color:#FA0009"/>
		<stop  offset="1" style="stop-color:#FDCC01"/>
	</linearGradient>
	<rect x="24.826" y="1.157" clip-path="url(#SVGID_16_)" fill="url(#SVGID_17_)" width="57.645" height="13.452"/>
</g>
</svg>
