<?xml version="1.0" encoding="utf-8"?>
<!-- Generator: Adobe Illustrator 16.0.3, SVG Export Plug-In . SVG Version: 6.00 Build 0)  -->
<!DOCTYPE svg PUBLIC "-//W3C//DTD SVG 1.1//EN" "http://www.w3.org/Graphics/SVG/1.1/DTD/svg11.dtd">
<svg version="1.1" id="Capa_1" xmlns="http://www.w3.org/2000/svg" xmlns:xlink="http://www.w3.org/1999/xlink" x="0px" y="0px"
	 width="50px" height="34.5px" viewBox="0 0 50 34.5" enable-background="new 0 0 50 34.5" xml:space="preserve">
<g>
	<path fill="none" stroke="#F2CD00" stroke-width="2" stroke-linecap="round" stroke-linejoin="round" d="M31.574,22.119
		c0.553,0,1-0.447,1-1s-0.447-1-1-1s-1,0.447-1,1S31.021,22.119,31.574,22.119z"/>
	<path fill="none" stroke="#F2CD00" stroke-width="2" stroke-linecap="round" stroke-linejoin="round" d="M20.574,22.119
		c0.552,0,1-0.447,1-1s-0.448-1-1-1s-1,0.447-1,1S20.022,22.119,20.574,22.119z"/>
	<path fill="none" stroke="#F2CD00" stroke-width="2" stroke-linecap="round" stroke-linejoin="round" d="M12.574,1.12h4
		l2.68,13.391c0.091,0.46,0.342,0.873,0.708,1.168c0.365,0.294,0.823,0.45,1.292,0.441h9.72c0.469,0.009,0.926-0.147,1.291-0.441
		c0.367-0.295,0.617-0.708,0.709-1.168l1.6-8.391h-17"/>
</g>
<g>
	<path fill="#F2CD00" d="M0.917,25.819h2.341l1.969,4.826l1.909-4.826h2.341v7.984H8.048v-6.52l-1.957,4.755H4.302l-1.957-4.755
		v6.52H0.917V25.819z"/>
	<path fill="#F2CD00" d="M12.524,26.947h-1.597v-1.525h1.597V26.947z M12.416,33.803h-1.38v-5.931h1.38V33.803z"/>
	<path fill="#F2CD00" d="M16.016,30.825c0-1.693,1.057-3.098,2.894-3.098c1.285,0,2.497,0.817,2.605,2.149h-1.417
		c-0.192-0.792-0.804-0.887-1.201-0.887c-0.756,0-1.464,0.54-1.464,1.848c0,1.321,0.696,1.825,1.464,1.825
		c0.372,0,0.96-0.083,1.213-0.888h1.417c-0.216,1.381-1.261,2.161-2.629,2.149C16.989,33.91,16.016,32.518,16.016,30.825z"/>
	<path fill="#F2CD00" d="M22.293,32.085c0-1.236,1.105-1.848,2.233-1.848c0.528,0,1.032,0.132,1.394,0.384v-0.672
		c0-0.817-0.481-1.105-1.105-1.105c-0.672,0-1.068,0.433-1.068,1.032h-1.272c-0.072-0.996,0.576-2.149,2.413-2.149
		c1.357,0,2.366,0.732,2.366,2.354v2.353c0,0.169,0.096,0.397,0.504,0.384v1.021l-0.313,0.036c-0.804,0.049-1.501-0.432-1.465-0.997
		c-0.3,0.78-0.997,1.045-1.633,1.045C23.242,33.923,22.293,33.238,22.293,32.085z M25.908,31.654c-0.3-0.241-0.78-0.373-1.285-0.373
		c-0.541,0-1.057,0.276-1.057,0.781c0,0.552,0.516,0.708,0.949,0.72C24.996,32.795,25.908,32.565,25.908,31.654z"/>
	<path fill="#F2CD00" d="M31.837,29.181c-0.925-0.096-1.741,0.096-1.741,1.332v3.29h-1.38v-5.931h1.224l0.083,1.008
		c0.216-0.816,0.769-1.213,1.813-1.117V29.181z"/>
	<path fill="#F2CD00" d="M35.99,29.181c-0.925-0.096-1.741,0.096-1.741,1.332v3.29h-1.38v-5.931h1.224l0.083,1.008
		c0.216-0.816,0.769-1.213,1.813-1.117V29.181z"/>
	<path fill="#F2CD00" d="M38.51,26.947h-1.597v-1.525h1.597V26.947z M38.402,33.803h-1.382v-5.931h1.382V33.803z"/>
	<path fill="#F2CD00" d="M43.203,32.614v1.177c-0.239,0.036-0.479,0.048-0.72,0.048c-1.369,0-2.221-0.601-2.221-1.957V29.06h-0.901
		v-0.781c1.165-0.503,1.237-1.765,1.237-1.837h1.309c0.036,0.817-0.204,1.177-0.48,1.429h1.705v1.188h-1.512v2.677
		c0,0.697,0.3,0.902,1.128,0.902C42.903,32.639,43.048,32.626,43.203,32.614z"/>
	<path fill="#F2CD00" d="M43.755,30.825c0-1.717,1.26-3.134,3.038-3.134c1.813,0,3.049,1.417,3.049,3.134
		c0,1.705-1.237,3.134-3.038,3.134C44.992,33.959,43.755,32.53,43.755,30.825z M48.425,30.85c0-0.937-0.54-1.91-1.621-1.91
		c-1.092,0-1.633,0.973-1.633,1.91c0,0.924,0.504,1.848,1.633,1.848C47.921,32.698,48.425,31.761,48.425,30.85z"/>
</g>
</svg>
