<?xml version="1.0" encoding="utf-8"?>
<!-- Generator: Adobe Illustrator 16.0.3, SVG Export Plug-In . SVG Version: 6.00 Build 0)  -->
<!DOCTYPE svg PUBLIC "-//W3C//DTD SVG 1.1//EN" "http://www.w3.org/Graphics/SVG/1.1/DTD/svg11.dtd">
<svg version="1.1" id="Capa_1" xmlns="http://www.w3.org/2000/svg" xmlns:xlink="http://www.w3.org/1999/xlink" x="0px" y="0px"
	 width="43.369px" height="33.667px" viewBox="0 0 43.369 33.667" enable-background="new 0 0 43.369 33.667" xml:space="preserve">
<g>
	<path fill="none" stroke="#FFFFFF" stroke-width="2" stroke-linecap="round" stroke-linejoin="round" d="M29.573,22.202
		c0.553,0,1-0.447,1-1s-0.447-1-1-1s-1,0.447-1,1S29.021,22.202,29.573,22.202z"/>
	<path fill="none" stroke="#FFFFFF" stroke-width="2" stroke-linecap="round" stroke-linejoin="round" d="M18.573,22.202
		c0.552,0,1-0.447,1-1s-0.448-1-1-1s-1,0.447-1,1S18.021,22.202,18.573,22.202z"/>
	<path fill="none" stroke="#FFFFFF" stroke-width="2" stroke-linecap="round" stroke-linejoin="round" d="M10.573,1.203h4
		l2.68,13.391c0.091,0.46,0.342,0.873,0.708,1.168c0.365,0.294,0.823,0.45,1.292,0.441h9.72c0.469,0.009,0.926-0.147,1.291-0.441
		c0.367-0.295,0.617-0.708,0.709-1.168l1.6-8.391h-17"/>
</g>
<g>
	<path fill="#FFFFFF" d="M1.083,25.749h1.976l1.662,4.072l1.611-4.072h1.976v6.737H7.101v-5.502L5.45,30.997H3.94l-1.651-4.013
		v5.502H1.083V25.749z"/>
	<path fill="#FFFFFF" d="M10.878,26.701H9.53v-1.287h1.348V26.701z M10.787,32.486H9.622v-5.005h1.165V32.486z"/>
	<path fill="#FFFFFF" d="M13.825,29.974c0-1.429,0.892-2.614,2.442-2.614c1.084,0,2.107,0.689,2.198,1.813H17.27
		c-0.162-0.668-0.679-0.749-1.013-0.749c-0.638,0-1.236,0.456-1.236,1.56c0,1.115,0.587,1.54,1.236,1.54
		c0.314,0,0.811-0.07,1.023-0.749h1.195c-0.182,1.165-1.064,1.823-2.219,1.813C14.646,32.577,13.825,31.402,13.825,29.974z"/>
	<path fill="#FFFFFF" d="M19.122,31.037c0-1.043,0.933-1.56,1.885-1.56c0.445,0,0.871,0.111,1.176,0.324v-0.567
		c0-0.689-0.406-0.933-0.933-0.933c-0.567,0-0.902,0.365-0.902,0.871h-1.074c-0.061-0.841,0.486-1.813,2.036-1.813
		c1.146,0,1.996,0.618,1.996,1.986v1.985c0,0.143,0.081,0.335,0.426,0.324v0.861l-0.264,0.03c-0.679,0.041-1.267-0.364-1.236-0.841
		c-0.253,0.658-0.841,0.882-1.378,0.882C19.923,32.588,19.122,32.01,19.122,31.037z M22.172,30.673
		c-0.253-0.203-0.658-0.314-1.084-0.314c-0.456,0-0.892,0.233-0.892,0.659c0,0.466,0.436,0.598,0.801,0.607
		C21.402,31.636,22.172,31.442,22.172,30.673z"/>
	<path fill="#FFFFFF" d="M27.176,28.586c-0.78-0.081-1.469,0.081-1.469,1.124v2.776h-1.165v-5.005h1.033l0.07,0.851
		c0.183-0.688,0.648-1.023,1.53-0.942V28.586z"/>
	<path fill="#FFFFFF" d="M30.68,28.586c-0.78-0.081-1.469,0.081-1.469,1.124v2.776h-1.165v-5.005h1.033l0.07,0.851
		c0.183-0.688,0.648-1.023,1.53-0.942V28.586z"/>
	<path fill="#FFFFFF" d="M32.807,26.701h-1.348v-1.287h1.348V26.701z M32.716,32.486H31.55v-5.005h1.166V32.486z"/>
	<path fill="#FFFFFF" d="M36.767,31.483v0.993c-0.202,0.03-0.404,0.04-0.607,0.04c-1.155,0-1.874-0.507-1.874-1.651v-2.381h-0.761
		v-0.659c0.983-0.425,1.044-1.489,1.044-1.55h1.104c0.03,0.689-0.172,0.993-0.405,1.206h1.438v1.003H35.43v2.259
		c0,0.588,0.253,0.761,0.952,0.761C36.514,31.504,36.636,31.493,36.767,31.483z"/>
	<path fill="#FFFFFF" d="M37.232,29.974c0-1.449,1.063-2.645,2.563-2.645c1.529,0,2.573,1.195,2.573,2.645
		c0,1.438-1.044,2.645-2.563,2.645C38.276,32.618,37.232,31.412,37.232,29.974z M41.174,29.994c0-0.79-0.456-1.611-1.368-1.611
		c-0.922,0-1.378,0.821-1.378,1.611c0,0.78,0.426,1.56,1.378,1.56C40.748,31.554,41.174,30.764,41.174,29.994z"/>
</g>
</svg>
