<?xml version="1.0" encoding="utf-8"?>
<!-- Generator: Adobe Illustrator 16.0.3, SVG Export Plug-In . SVG Version: 6.00 Build 0)  -->
<!DOCTYPE svg PUBLIC "-//W3C//DTD SVG 1.1//EN" "http://www.w3.org/Graphics/SVG/1.1/DTD/svg11.dtd">
<svg version="1.1" id="Capa_1" xmlns="http://www.w3.org/2000/svg" xmlns:xlink="http://www.w3.org/1999/xlink" x="0px" y="0px"
	 width="50px" height="33.667px" viewBox="0 0 50 33.667" enable-background="new 0 0 50 33.667" xml:space="preserve">
<g>
	<path fill="none" stroke="#000000" stroke-width="2" stroke-linecap="round" stroke-linejoin="round" d="M31.574,22.203
		c0.553,0,1-0.447,1-1c0-0.554-0.447-1-1-1s-1,0.446-1,1C30.574,21.755,31.021,22.203,31.574,22.203z"/>
	<path fill="none" stroke="#000000" stroke-width="2" stroke-linecap="round" stroke-linejoin="round" d="M20.574,22.203
		c0.552,0,1-0.447,1-1c0-0.554-0.448-1-1-1c-0.552,0-1,0.446-1,1C19.574,21.755,20.022,22.203,20.574,22.203z"/>
	<path fill="none" stroke="#000000" stroke-width="2" stroke-linecap="round" stroke-linejoin="round" d="M12.574,1.203h4
		l2.68,13.391c0.091,0.46,0.342,0.873,0.708,1.168c0.365,0.294,0.823,0.45,1.292,0.441h9.721c0.469,0.009,0.926-0.147,1.291-0.441
		c0.366-0.295,0.616-0.708,0.709-1.168l1.6-8.391h-17"/>
</g>
<g>
	<path fill="#050505" d="M0.917,25.526h2.341l1.969,4.826l1.909-4.826h2.341v7.983H8.048v-6.52l-1.957,4.756H4.302L2.345,26.99v6.52
		H0.917V25.526z"/>
	<path fill="#050505" d="M12.524,26.656h-1.597V25.13h1.597V26.656z M12.416,33.509h-1.38v-5.93h1.38V33.509z"/>
	<path fill="#050505" d="M16.016,30.533c0-1.693,1.057-3.098,2.894-3.098c1.285,0,2.497,0.816,2.605,2.148h-1.417
		c-0.192-0.791-0.804-0.887-1.201-0.887c-0.756,0-1.464,0.54-1.464,1.848c0,1.322,0.696,1.826,1.464,1.826
		c0.372,0,0.96-0.084,1.213-0.889h1.417c-0.216,1.381-1.261,2.161-2.629,2.148C16.989,33.619,16.016,32.226,16.016,30.533z"/>
	<path fill="#050505" d="M22.293,31.792c0-1.235,1.105-1.848,2.233-1.848c0.528,0,1.033,0.133,1.394,0.385v-0.672
		c0-0.818-0.481-1.105-1.105-1.105c-0.672,0-1.068,0.433-1.068,1.031h-1.272c-0.072-0.996,0.576-2.148,2.413-2.148
		c1.357,0,2.366,0.732,2.366,2.354v2.354c0,0.169,0.096,0.396,0.504,0.384v1.021l-0.313,0.037c-0.805,0.049-1.502-0.433-1.465-0.998
		c-0.301,0.781-0.998,1.045-1.633,1.045C23.242,33.63,22.293,32.945,22.293,31.792z M25.908,31.361
		c-0.301-0.24-0.78-0.373-1.285-0.373c-0.541,0-1.057,0.276-1.057,0.781c0,0.552,0.516,0.708,0.949,0.721
		C24.996,32.501,25.908,32.273,25.908,31.361z"/>
	<path fill="#050505" d="M31.837,28.888c-0.925-0.096-1.741,0.096-1.741,1.332v3.289h-1.38v-5.93h1.224l0.084,1.008
		c0.215-0.816,0.769-1.213,1.813-1.117L31.837,28.888L31.837,28.888z"/>
	<path fill="#050505" d="M35.99,28.888c-0.926-0.096-1.741,0.096-1.741,1.332v3.289h-1.38v-5.93h1.224l0.083,1.008
		c0.217-0.816,0.77-1.213,1.813-1.117v1.418H35.99z"/>
	<path fill="#050505" d="M38.51,26.656h-1.597V25.13h1.597V26.656z M38.402,33.509H37.02v-5.93h1.383V33.509z"/>
	<path fill="#050505" d="M43.203,32.322V33.5c-0.239,0.035-0.479,0.047-0.721,0.047c-1.369,0-2.221-0.601-2.221-1.957v-2.821h-0.9
		v-0.781c1.164-0.503,1.236-1.765,1.236-1.837h1.31c0.036,0.816-0.204,1.178-0.48,1.43h1.705v1.188H41.62v2.677
		c0,0.697,0.3,0.902,1.128,0.902C42.902,32.346,43.048,32.333,43.203,32.322z"/>
	<path fill="#050505" d="M43.755,30.533c0-1.717,1.261-3.134,3.038-3.134c1.813,0,3.049,1.417,3.049,3.134
		c0,1.705-1.236,3.135-3.037,3.135C44.992,33.667,43.755,32.237,43.755,30.533z M48.425,30.557c0-0.937-0.54-1.91-1.62-1.91
		c-1.093,0-1.634,0.974-1.634,1.91c0,0.924,0.504,1.849,1.634,1.849C47.921,32.406,48.425,31.468,48.425,30.557z"/>
</g>
</svg>
