<?xml version="1.0" encoding="utf-8"?>
<!-- Generator: Adobe Illustrator 28.1.0, SVG Export Plug-In . SVG Version: 6.00 Build 0)  -->
<svg version="1.1" id="Capa_1" xmlns="http://www.w3.org/2000/svg" xmlns:xlink="http://www.w3.org/1999/xlink" x="0px" y="0px"
	 viewBox="0 0 302.4 160.8" style="enable-background:new 0 0 302.4 160.8;" xml:space="preserve">
<style type="text/css">
	.st0{opacity:0.81;fill:#FFFFFF;stroke:#303C78;stroke-width:3;stroke-miterlimit:10;}
	.st1{fill:#2F3B78;}
	.st2{fill:#EBEBEB;}
	.st3{fill:#EACA4C;}
	.st4{fill:#272525;}
</style>
<g>
	<rect x="1.5" y="1.5" class="st0" width="299.4" height="157.8"/>
	<g>
		<path class="st1" d="M141.7,97.2h11.1c0.5,2.1,2.3,2.9,4.7,2.9c3.9,0,5.2-2,5.2-3.7c0-2-1.3-3.6-4.9-3.6c-3.2,0-4.3,1.4-4.9,2h-11
			l4.1-20.8h25.4v9.4h-16.1l-0.9,3.7c1-0.6,3-1.5,7.1-1.5c6.9,0,12.9,3.6,12.9,11.3c0,7.9-5.6,12.8-16.9,12.8
			C146.6,109.8,141.5,105.7,141.7,97.2z"/>
	</g>
	<g>
		<path class="st1" d="M204,101.9h-8.6l-0.8,2.5h-7.8l7.6-21.1H205l7.6,21.1h-7.9L204,101.9z M202.2,96.3l-1.9-5.8H199l-1.9,5.8
			H202.2z"/>
		<path class="st1" d="M213.5,83.3h8.7l6.1,10.5h0.7V83.3h7.4v21.1h-8.5L221.6,94h-0.7v10.5h-7.4V83.3z M222.2,80.7
			c-0.9,0-1.5,0.4-1.6,1.2h-2c-0.6-3.3,1.8-4.6,4.1-4.6c2,0,3.4,1.4,5,1.4c0.9,0,1.5-0.5,1.6-1.2h1.9c0.6,3.2-1.8,4.6-4.1,4.6
			C225.2,82.1,223.8,80.7,222.2,80.7z"/>
		<path class="st1" d="M237.7,93.9c0-6.8,4.7-11.3,12.1-11.3c7.4,0,12.1,4.5,12.1,11.3c0,6.8-4.7,11.3-12.1,11.3
			C242.4,105.2,237.7,100.7,237.7,93.9z M254.3,93.9c0-3.1-2.1-4.7-4.5-4.7c-2.4,0-4.5,1.6-4.5,4.7c0,3.1,2.1,4.7,4.5,4.7
			C252.2,98.6,254.3,97,254.3,93.9z"/>
		<path class="st1" d="M262.5,97.2h6.8c0.1,1.3,1.1,2,4,2c2.5,0,3.5-0.6,3.5-1.4c0-0.4-0.1-1.1-2-1.4l-2.8-0.4
			c-4-0.6-9.1-0.9-9.1-6.6c0-4.3,3.4-6.9,10.4-6.9c6.2,0,10.6,1.6,10.4,7.9H277c-0.2-1.2-1.3-2-3.8-2c-2.1,0-2.9,0.6-2.9,1.4
			c0,0.4,0.2,1.1,1.6,1.3l2.2,0.4c4.3,0.7,10.3,0.6,10.3,6.7c0,4.7-3.6,7-11.1,7C265.8,105.1,262.3,102.9,262.5,97.2z"/>
	</g>
	<rect x="17.7" y="12" class="st1" width="266.9" height="57.6"/>
	<g>
		<path class="st2" d="M25.3,39.2c0-8.1,5.4-14.8,14.4-14.8c7,0,12.4,4.8,12.7,10.5h-7.1c-0.6-3-3.3-4.2-5.6-4.2
			c-5.2,0-7.1,4.3-7.1,8.7c0,4.5,2,8.7,7.1,8.7c2.9,0,5-1.6,5.7-4.3h7c-0.9,6.6-6.3,10.6-12.7,10.6C29.6,54.5,25.3,47,25.3,39.2z"/>
		<path class="st2" d="M85.5,39.6c0,8.1-5.9,14.9-15,14.9c-9.4,0-15-6.9-15-14.9s5.7-15.2,15-15.2C79.8,24.4,85.5,31.5,85.5,39.6z
			 M62.8,39.7c0,3.8,2.5,8.4,7.8,8.4c5.5,0,7.7-4.6,7.7-8.4c0-3.7-1.9-8.9-7.7-8.9C64.8,30.8,62.8,36,62.8,39.7z"/>
		<path class="st2" d="M96.3,25.2v22.2h10.7v6.2H89.5V25.2H96.3z"/>
		<path class="st2" d="M108.9,39.2c0-8.1,5.4-14.8,14.4-14.8c7,0,12.4,4.8,12.7,10.5h-7.1c-0.6-3-3.3-4.2-5.6-4.2
			c-5.2,0-7.1,4.3-7.1,8.7c0,4.5,2,8.7,7.1,8.7c2.9,0,5-1.6,5.7-4.3h7c-0.9,6.6-6.3,10.6-12.7,10.6C113.2,54.5,108.9,47,108.9,39.2z
			"/>
		<path class="st2" d="M139.9,25.2h6.8v11.2h10.9V25.2h6.8v28.4h-6.8v-11h-10.9v11h-6.8V25.2z"/>
		<path class="st2" d="M198.3,39.6c0,8.1-5.9,14.9-15,14.9c-9.4,0-15-6.9-15-14.9s5.7-15.2,15-15.2
			C192.6,24.4,198.3,31.5,198.3,39.6z M175.6,39.7c0,3.8,2.5,8.4,7.8,8.4c5.5,0,7.7-4.6,7.7-8.4c0-3.7-1.9-8.9-7.7-8.9
			C177.6,30.8,175.6,36,175.6,39.7z"/>
		<path class="st2" d="M202.3,25.2h10.2l10.1,20.3V25.2h6.8v28.4h-9.6L209,32.1v21.5h-6.8V25.2z"/>
		<path class="st2" d="M253,25.2v6.1h-12.2v4.9h10.7V42h-10.7v5.5h12.4v6.1H234V25.2H253z"/>
		<path class="st2" d="M255.5,44h6.7c-0.1,3.1,2.2,4.4,5,4.4c2.8,0,4-1.4,4-3c0-2.6-3.4-2.8-6.6-3.6c-5.5-1.4-8.5-4-8.5-8.5
			c0-5.8,5.4-8.8,10.9-8.8c8.1,0,11.9,5.2,11.6,10.3h-6.6c0.2-2.6-1.9-4.5-4.8-4.5c-2.9,0-4.2,1.3-4.2,2.7c0,2.7,3.7,3.1,6.5,3.8
			c3.8,0.9,8.8,2.7,8.8,8.6c0,5.2-4.2,8.8-10.8,8.8C258.4,54.2,255,48.8,255.5,44z"/>
	</g>
	<g>
		<path class="st1" d="M40.4,86v21.1h-7.6v-7.4h-7.4v7.4h-7.6V86h7.6v7.4h7.4V86H40.4z"/>
		<path class="st1" d="M58.6,104.6H50l-0.8,2.5h-7.9L48.9,86h10.7l7.6,21.1h-7.9L58.6,104.6z M56.8,99l-1.9-5.8h-1.3L51.8,99H56.8z"
			/>
		<path class="st1" d="M66.7,99.9h6.8c0.1,1.3,1.1,2,4,2c2.5,0,3.5-0.6,3.5-1.4c0-0.4-0.1-1.1-2-1.4l-2.8-0.4
			c-4-0.6-9.1-0.9-9.1-6.6c0-4.3,3.4-6.9,10.4-6.9c6.2,0,10.6,1.6,10.4,7.9h-6.8c-0.2-1.2-1.3-2-3.8-2c-2.1,0-2.9,0.6-2.9,1.4
			c0,0.4,0.2,1.1,1.6,1.3l2.2,0.4c4.3,0.7,10.3,0.6,10.3,6.7c0,4.7-3.6,7-11.1,7C70,107.8,66.5,105.6,66.7,99.9z"/>
		<path class="st1" d="M111.7,92.4h-7.5v14.8h-7.6V92.4h-7.5V86h22.6V92.4z"/>
		<path class="st1" d="M125.4,104.6h-8.6l-0.8,2.5h-7.9l7.6-21.1h10.7l7.6,21.1h-7.9L125.4,104.6z M123.6,99l-1.9-5.8h-1.3l-1.9,5.8
			H123.6z"/>
	</g>
	<rect x="17.7" y="116.5" class="st3" width="270.1" height="18.5"/>
	<g>
		<path class="st4" d="M22.2,125.6H25c0,1.3,0.9,1.8,2.1,1.8c1.2,0,1.6-0.6,1.6-1.3c0-1.1-1.4-1.2-2.7-1.5c-2.3-0.6-3.5-1.6-3.5-3.5
			c0-2.4,2.2-3.7,4.5-3.7c3.4,0,4.9,2.1,4.8,4.3H29c0.1-1.1-0.8-1.9-2-1.9c-1.2,0-1.7,0.5-1.7,1.1c0,1.1,1.5,1.3,2.7,1.6
			c1.6,0.4,3.7,1.1,3.7,3.6c0,2.1-1.8,3.7-4.5,3.7C23.4,129.8,22,127.6,22.2,125.6z"/>
		<path class="st4" d="M41.5,125l0,0.6h-6c0,1.3,0.7,2.1,1.8,2.1c0.5,0,1.3-0.2,1.5-1.2h2.6c-0.3,2.1-1.8,3.3-4,3.3
			c-3,0-4.6-2.1-4.6-4.7c0-2.7,1.6-4.8,4.4-4.8C39.1,120.4,41.5,121.5,41.5,125z M35.5,124h3.1c0-1-0.6-1.6-1.5-1.6
			C36.3,122.4,35.6,123.1,35.5,124z"/>
		<path class="st4" d="M49.1,122l0.2-1.3h2.4v7.7c0,3.6-1.7,5.3-4.6,5.3c-2.9,0-4.6-1.9-4.5-3.9H45c0.2,1.1,0.9,1.6,1.9,1.6
			c1.3,0,2-0.7,2-2.7v-0.7c-0.2,0.5-0.8,1.4-2.5,1.4c-2.7,0-3.9-2.1-3.9-4.2c0-2.7,1.3-4.6,3.9-4.6C47.8,120.5,48.8,121.2,49.1,122z
			 M45.4,125c0,0.9,0.5,2,1.8,2c0.9,0,1.8-0.6,1.8-1.9v-0.2c0-1-0.6-1.9-1.8-1.9C45.9,122.9,45.4,123.9,45.4,125z"/>
		<path class="st4" d="M61.3,129.6H59l-0.2-1.2c-0.5,1.1-1.7,1.5-2.6,1.5c-1.9,0-3.1-1.4-3.1-3.5v-5.6h2.8v5.4c0,1,0.4,1.4,1.2,1.4
			c0.7,0,1.5-0.4,1.5-1.8v-5h2.8V129.6z M58.7,115.7l1.2,1.7l-4.6,2.5l-0.5-0.7L58.7,115.7z"/>
		<path class="st4" d="M62.9,120.7h2.4l0.2,1.5c0.3-1,1.6-1.7,2.7-1.7c2.1,0,3.2,1.4,3.2,3.5v5.6h-2.8v-5.4c0-1-0.4-1.4-1.2-1.4
			c-0.7,0-1.6,0.4-1.6,1.8v5h-2.8V120.7z"/>
		<path class="st4" d="M81.5,123.3c-1.2-0.1-2.5,0-2.5,2v4.3h-2.8v-8.9h2.4l0.2,1.7c0.3-1.3,1.2-2,2.7-1.8V123.3z"/>
		<path class="st4" d="M90.8,125l0,0.6h-6c0,1.3,0.7,2.1,1.8,2.1c0.5,0,1.3-0.2,1.5-1.2h2.6c-0.3,2.1-1.8,3.3-4,3.3
			c-3,0-4.6-2.1-4.6-4.7c0-2.7,1.6-4.8,4.4-4.8C88.4,120.4,90.8,121.5,90.8,125z M84.9,124H88c0-1-0.6-1.6-1.5-1.6
			C85.6,122.4,84.9,123.1,84.9,124z"/>
		<path class="st4" d="M97.8,116.8v2.2l-0.7,0c-1,0-1.4,0.2-1.4,1.1v0.6h2.1v2.2h-2.1v6.6h-2.8v-6.6h-1.4v-2.2h1.4v-0.5
			c0-2.7,1.7-3.6,4.3-3.5L97.8,116.8z"/>
		<path class="st4" d="M106.8,125l0,0.6h-6c0,1.3,0.7,2.1,1.8,2.1c0.5,0,1.3-0.2,1.5-1.2h2.6c-0.3,2.1-1.8,3.3-4,3.3
			c-3,0-4.6-2.1-4.6-4.7c0-2.7,1.6-4.8,4.4-4.8C104.4,120.4,106.8,121.5,106.8,125z M100.8,124h3.1c0-1-0.6-1.6-1.5-1.6
			C101.6,122.4,100.9,123.1,100.8,124z"/>
		<path class="st4" d="M113.4,123.3c-1.2-0.1-2.5,0-2.5,2v4.3h-2.8v-8.9h2.4l0.2,1.7c0.3-1.3,1.2-2,2.7-1.8V123.3z"/>
		<path class="st4" d="M122.7,125l0,0.6h-6c0,1.3,0.7,2.1,1.8,2.1c0.5,0,1.3-0.2,1.5-1.2h2.6c-0.3,2.1-1.8,3.3-4,3.3
			c-3,0-4.6-2.1-4.6-4.7c0-2.7,1.6-4.8,4.4-4.8C120.3,120.4,122.7,121.5,122.7,125z M116.8,124h3.1c0-1-0.6-1.6-1.5-1.6
			C117.5,122.4,116.8,123.1,116.8,124z"/>
		<path class="st4" d="M124,120.7h2.4l0.2,1.5c0.3-1,1.6-1.7,2.7-1.7c2.1,0,3.2,1.4,3.2,3.5v5.6h-2.8v-5.4c0-1-0.4-1.4-1.2-1.4
			c-0.7,0-1.6,0.4-1.6,1.8v5H124V120.7z"/>
		<path class="st4" d="M133.7,125.1c0-2.5,1.5-4.7,4.5-4.7c2.1,0,4,1.3,4,3.5h-2.6c-0.2-1-0.9-1.2-1.4-1.2c-0.9,0-1.7,0.6-1.7,2.4
			c0,2,1.1,2.3,1.8,2.3c0.5,0,1.2-0.2,1.3-1.1h2.6c-0.1,2.1-1.8,3.4-4,3.4C135.3,129.8,133.7,127.6,133.7,125.1z"/>
		<path class="st4" d="M146.2,119.6h-3V117h3V119.6z M146.1,129.6h-2.8v-8.9h2.8V129.6z"/>
		<path class="st4" d="M147.4,126.9c0-2,1.7-2.7,3.2-2.7c0.8,0,1.5,0.2,1.9,0.6v-1.1c0-1-0.7-1.2-1.2-1.2c-0.6,0-1.2,0.3-1.2,1.2
			h-2.4c-0.2-1.6,0.9-3.4,3.7-3.4c2.3,0,3.8,1.3,3.8,3.7v3.1c0,0.4,0.2,0.6,0.7,0.5v1.9l-0.4,0.1c-1.2,0.1-2.4-0.4-2.6-1.6
			c-0.4,1.3-1.6,1.6-2.4,1.6C148.8,129.8,147.4,128.7,147.4,126.9z M152.7,126.5c-0.3-0.4-0.9-0.7-1.4-0.7c-0.7,0-1.3,0.3-1.3,1
			c0,0.8,0.9,0.9,1.2,0.9C151.8,127.8,152.6,127.5,152.7,126.5z"/>
		<path class="st4" d="M156.5,126.4h2.5c0,1.1,1,1.4,1.6,1.4c0.6,0,1.1-0.3,1.1-0.8c0-0.5-0.4-0.7-1.4-0.9c-2.4-0.4-3.4-1.2-3.4-2.8
			c0-1.7,1.4-2.9,3.7-2.9c2.8,0,3.9,1.8,3.9,3.4H162c0.1-1.1-1.1-1.3-1.5-1.3c-0.5,0-1.2,0.2-1.2,0.7c0,0.6,0.7,0.7,1.5,0.9
			c2.6,0.5,3.5,1.3,3.5,2.9c0,1.8-1.6,2.9-3.7,2.9C158.1,129.8,156.4,128.4,156.5,126.4z"/>
		<path class="st4" d="M168.7,126.4h2.5c0,1.1,1,1.4,1.6,1.4c0.6,0,1.1-0.3,1.1-0.8c0-0.5-0.4-0.7-1.4-0.9c-2.4-0.4-3.4-1.2-3.4-2.8
			c0-1.7,1.4-2.9,3.7-2.9c2.8,0,3.9,1.8,3.9,3.4h-2.4c0.1-1.1-1.1-1.3-1.5-1.3c-0.5,0-1.2,0.2-1.2,0.7c0,0.6,0.7,0.7,1.5,0.9
			c2.6,0.5,3.5,1.3,3.5,2.9c0,1.8-1.6,2.9-3.7,2.9C170.3,129.8,168.6,128.4,168.7,126.4z"/>
		<path class="st4" d="M186.3,125l0,0.6h-6c0,1.3,0.7,2.1,1.8,2.1c0.5,0,1.3-0.2,1.5-1.2h2.6c-0.3,2.1-1.8,3.3-4,3.3
			c-3,0-4.6-2.1-4.6-4.7c0-2.7,1.6-4.8,4.4-4.8C183.9,120.4,186.3,121.5,186.3,125z M180.3,124h3.1c0-1-0.6-1.6-1.5-1.6
			C181.1,122.4,180.4,123.1,180.3,124z"/>
		<path class="st4" d="M190.4,129.6h-2.8V117h2.8V129.6z"/>
		<path class="st4" d="M200.5,125l0,0.6h-6c0,1.3,0.7,2.1,1.8,2.1c0.5,0,1.3-0.2,1.5-1.2h2.6c-0.3,2.1-1.8,3.3-4,3.3
			c-3,0-4.6-2.1-4.6-4.7c0-2.7,1.6-4.8,4.4-4.8C198.1,120.4,200.5,121.5,200.5,125z M194.5,124h3.1c0-1-0.6-1.6-1.5-1.6
			C195.3,122.4,194.6,123.1,194.5,124z"/>
		<path class="st4" d="M201.5,125.1c0-2.5,1.5-4.7,4.5-4.7c2.1,0,4,1.3,4,3.5h-2.6c-0.2-1-0.9-1.2-1.4-1.2c-0.9,0-1.7,0.6-1.7,2.4
			c0,2,1.1,2.3,1.8,2.3c0.5,0,1.2-0.2,1.3-1.1h2.6c-0.1,2.1-1.8,3.4-4,3.4C203.2,129.8,201.5,127.6,201.5,125.1z"/>
		<path class="st4" d="M210.9,125.1c0-2.5,1.5-4.7,4.5-4.7c2.1,0,4,1.3,4,3.5h-2.6c-0.2-1-0.9-1.2-1.4-1.2c-0.9,0-1.7,0.6-1.7,2.4
			c0,2,1.1,2.3,1.8,2.3c0.5,0,1.2-0.2,1.3-1.1h2.6c-0.1,2.1-1.8,3.4-4,3.4C212.6,129.8,210.9,127.6,210.9,125.1z"/>
		<path class="st4" d="M223.5,119.6h-3V117h3V119.6z M223.4,129.6h-2.8v-8.9h2.8V129.6z"/>
		<path class="st4" d="M224.7,125.1c0-2.7,2-4.7,4.7-4.7c2.8,0,4.7,2,4.7,4.7c0,2.7-1.8,4.7-4.6,4.7
			C226.6,129.8,224.7,127.8,224.7,125.1z M231.3,125.1c0-1.1-0.5-2.3-1.9-2.3c-1.5,0-2,1.2-2,2.3c0,1.1,0.6,2.2,2,2.2
			C230.8,127.4,231.3,126.2,231.3,125.1z"/>
		<path class="st4" d="M235.4,120.7h2.4l0.2,1.5c0.3-1,1.6-1.7,2.7-1.7c2.1,0,3.2,1.4,3.2,3.5v5.6H241v-5.4c0-1-0.4-1.4-1.2-1.4
			c-0.7,0-1.6,0.4-1.6,1.8v5h-2.8V120.7z"/>
		<path class="st4" d="M245,126.9c0-2,1.7-2.7,3.2-2.7c0.8,0,1.5,0.2,1.9,0.6v-1.1c0-1-0.7-1.2-1.2-1.2c-0.6,0-1.2,0.3-1.2,1.2h-2.4
			c-0.2-1.6,0.9-3.4,3.7-3.4c2.3,0,3.8,1.3,3.8,3.7v3.1c0,0.4,0.2,0.6,0.7,0.5v1.9l-0.4,0.1c-1.2,0.1-2.4-0.4-2.6-1.6
			c-0.4,1.3-1.6,1.6-2.4,1.6C246.4,129.8,245,128.7,245,126.9z M250.3,126.5c-0.3-0.4-0.9-0.7-1.4-0.7c-0.7,0-1.3,0.3-1.3,1
			c0,0.8,0.9,0.9,1.2,0.9C249.4,127.8,250.2,127.5,250.3,126.5z"/>
		<path class="st4" d="M263.4,117v12.6H261l-0.2-1.5c-0.3,0.9-1.3,1.7-2.6,1.7c-2.6,0-3.9-2.1-3.9-4.8c0-2.3,1.3-4.6,3.9-4.6
			c1.3,0,2.3,0.8,2.5,1.5V117H263.4z M257.1,125.1c0,1.2,0.5,2.2,1.8,2.2c1.2,0,1.8-1,1.8-2.1v-0.4c0-1.2-0.9-1.9-1.8-1.9
			C257.6,122.9,257.1,124.1,257.1,125.1z"/>
		<path class="st4" d="M264.7,126.9c0-2,1.7-2.7,3.2-2.7c0.8,0,1.5,0.2,1.9,0.6v-1.1c0-1-0.7-1.2-1.2-1.2c-0.6,0-1.2,0.3-1.2,1.2
			h-2.4c-0.2-1.6,0.9-3.4,3.7-3.4c2.3,0,3.8,1.3,3.8,3.7v3.1c0,0.4,0.2,0.6,0.7,0.5v1.9l-0.4,0.1c-1.2,0.1-2.4-0.4-2.6-1.6
			c-0.4,1.3-1.6,1.6-2.4,1.6C266,129.8,264.7,128.7,264.7,126.9z M270,126.5c-0.3-0.4-0.9-0.7-1.4-0.7c-0.7,0-1.3,0.3-1.3,1
			c0,0.8,0.9,0.9,1.2,0.9C269,127.8,269.9,127.5,270,126.5z"/>
		<path class="st4" d="M273.8,126.4h2.5c0,1.1,1,1.4,1.6,1.4c0.6,0,1.1-0.3,1.1-0.8c0-0.5-0.4-0.7-1.4-0.9c-2.4-0.4-3.4-1.2-3.4-2.8
			c0-1.7,1.4-2.9,3.7-2.9c2.8,0,3.9,1.8,3.9,3.4h-2.4c0.1-1.1-1.1-1.3-1.5-1.3c-0.5,0-1.2,0.2-1.2,0.7c0,0.6,0.7,0.7,1.5,0.9
			c2.6,0.5,3.5,1.3,3.5,2.9c0,1.8-1.6,2.9-3.7,2.9C275.4,129.8,273.7,128.4,273.8,126.4z"/>
	</g>
	<g>
		<path class="st1" d="M120.4,148.4l-0.9,2.9h-1.2l3.1-9.1h1.4l3.1,9.1h-1.3l-1-2.9H120.4z M123.4,147.5l-0.9-2.6
			c-0.2-0.6-0.3-1.1-0.5-1.7h0c-0.1,0.5-0.3,1.1-0.5,1.6l-0.9,2.6H123.4z"/>
		<path class="st1" d="M127.1,146.9c0-0.8,0-1.5-0.1-2.1h1.1l0.1,1.1h0c0.5-0.8,1.3-1.3,2.3-1.3c1.6,0,2.8,1.3,2.8,3.3
			c0,2.3-1.4,3.5-3,3.5c-0.9,0-1.6-0.4-2-1h0v3.5h-1.2V146.9z M128.3,148.6c0,0.2,0,0.3,0.1,0.5c0.2,0.8,0.9,1.4,1.8,1.4
			c1.3,0,2-1,2-2.5c0-1.3-0.7-2.4-1.9-2.4c-0.8,0-1.6,0.6-1.8,1.5c0,0.1-0.1,0.3-0.1,0.5V148.6z"/>
		<path class="st1" d="M134.8,141.7h1.2v9.6h-1.2V141.7z"/>
		<path class="st1" d="M139.3,142.9c0,0.4-0.3,0.7-0.8,0.7c-0.4,0-0.7-0.3-0.7-0.7c0-0.4,0.3-0.7,0.7-0.7
			C139,142.2,139.3,142.5,139.3,142.9z M138,151.3v-6.5h1.2v6.5H138z"/>
		<path class="st1" d="M145.8,151.1c-0.3,0.2-1,0.4-1.9,0.4c-2,0-3.3-1.3-3.3-3.3c0-2,1.4-3.5,3.5-3.5c0.7,0,1.3,0.2,1.6,0.3
			l-0.3,0.9c-0.3-0.2-0.7-0.3-1.4-0.3c-1.5,0-2.3,1.1-2.3,2.5c0,1.5,1,2.4,2.3,2.4c0.7,0,1.1-0.2,1.5-0.3L145.8,151.1z"/>
		<path class="st1" d="M150.8,151.3l-0.1-0.8h0c-0.4,0.5-1.1,1-2,1c-1.3,0-2-0.9-2-1.9c0-1.6,1.4-2.4,3.9-2.4V147
			c0-0.5-0.1-1.5-1.5-1.5c-0.6,0-1.2,0.2-1.7,0.5l-0.3-0.8c0.5-0.4,1.3-0.6,2.1-0.6c2,0,2.5,1.4,2.5,2.7v2.4c0,0.6,0,1.1,0.1,1.6
			H150.8z M150.6,148c-1.3,0-2.8,0.2-2.8,1.5c0,0.8,0.5,1.1,1.1,1.1c0.8,0,1.4-0.5,1.6-1.1c0-0.1,0.1-0.3,0.1-0.4V148z"/>
		<path class="st1" d="M157.7,143.2H155v-1h6.7v1h-2.8v8.1h-1.2V143.2z"/>
		<path class="st1" d="M166,144.8l1.4,3.9c0.1,0.4,0.3,0.9,0.4,1.3h0c0.1-0.4,0.3-0.9,0.4-1.4l1.3-3.8h1.3l-1.8,4.7
			c-0.8,2.2-1.4,3.4-2.2,4.1c-0.6,0.5-1.2,0.7-1.5,0.8l-0.3-1c0.3-0.1,0.7-0.3,1-0.6c0.3-0.3,0.7-0.7,1-1.3c0.1-0.1,0.1-0.2,0.1-0.3
			s0-0.2-0.1-0.3l-2.4-6H166z"/>
		<path class="st1" d="M181.1,151c-0.4,0.2-1.3,0.4-2.4,0.4c-2.6,0-4.5-1.6-4.5-4.6c0-2.8,1.9-4.8,4.7-4.8c1.1,0,1.8,0.2,2.2,0.4
			l-0.3,1c-0.4-0.2-1.1-0.4-1.8-0.4c-2.1,0-3.5,1.4-3.5,3.8c0,2.2,1.3,3.7,3.5,3.7c0.7,0,1.4-0.1,1.9-0.4L181.1,151z"/>
		<path class="st1" d="M182.3,150.6c0-0.5,0.3-0.8,0.8-0.8c0.5,0,0.8,0.4,0.8,0.8c0,0.5-0.3,0.8-0.8,0.8
			C182.6,151.4,182.3,151.1,182.3,150.6z"/>
	</g>
</g>
</svg>
