<?xml version="1.0" encoding="utf-8"?>
<!-- Generator: Adobe Illustrator 28.1.0, SVG Export Plug-In . SVG Version: 6.00 Build 0)  -->
<svg version="1.1" id="Capa_1" xmlns="http://www.w3.org/2000/svg" xmlns:xlink="http://www.w3.org/1999/xlink" x="0px" y="0px"
	 viewBox="0 0 302.4 160.8" style="enable-background:new 0 0 302.4 160.8;" xml:space="preserve">
<style type="text/css">
	.st0{opacity:0.81;fill:#FFFFFF;stroke:#303C78;stroke-width:3;stroke-miterlimit:10;}
	.st1{fill:#E8E8E8;}
	.st2{fill:#2F3B78;}
	.st3{fill:#EBECEE;}
	.st4{fill:#EACA4C;}
	.st5{fill:#272525;}
</style>
<g>
	<rect x="1.5" y="1.5" class="st0" width="299.4" height="157.8"/>
	<g>
		<path class="st1" d="M107.1,12.6h-2.4l-0.4,1.2h-0.8l1.9-5.2h1l1.9,5.2h-0.8L107.1,12.6z M106.9,12l-1-2.8l-1,2.8H106.9z"/>
		<path class="st1" d="M108.9,15.4V10h0.6l0,0.7c0.1-0.4,0.6-0.8,1.2-0.8c1.2,0,1.8,1.1,1.8,2c0,1-0.5,2-1.8,2c-0.6,0-1-0.3-1.1-0.7
			v2.2H108.9z M111.8,11.9c0-0.6-0.2-1.4-1.1-1.4c-0.7,0-1.1,0.5-1.1,1.2v0.4c0,0.7,0.5,1.1,1.1,1.1
			C111.5,13.2,111.8,12.5,111.8,11.9z"/>
		<path class="st1" d="M114.1,13.8h-0.7V8.4h0.7V13.8z"/>
		<path class="st1" d="M116,9.3h-0.8V8.5h0.8V9.3z M115.9,13.8h-0.7V10h0.7V13.8z"/>
		<path class="st1" d="M116.8,11.9c0-1.1,0.7-2,1.8-2c0.8,0,1.5,0.5,1.6,1.3h-0.7c-0.1-0.5-0.5-0.7-0.9-0.7c-0.7,0-1.1,0.5-1.1,1.4
			c0,0.8,0.4,1.3,1.1,1.3c0.4,0,0.8-0.2,0.9-0.7h0.7c-0.1,0.9-0.8,1.4-1.6,1.4C117.4,13.9,116.8,13,116.8,11.9z"/>
		<path class="st1" d="M120.9,12.7c0-0.8,0.7-1.2,1.4-1.2c0.3,0,0.7,0.1,1,0.3v-0.5c0-0.6-0.3-0.8-0.8-0.8c-0.5,0-0.8,0.4-0.8,0.8
			H121c0-0.7,0.4-1.3,1.5-1.3c0.8,0,1.5,0.4,1.5,1.5V13c0,0.1,0.1,0.3,0.3,0.3v0.5l-0.1,0c-0.5,0-0.9-0.3-0.8-0.7
			c-0.2,0.5-0.6,0.7-1.1,0.7C121.5,13.9,120.9,13.5,120.9,12.7z M123.3,12.4c-0.2-0.2-0.6-0.3-0.9-0.3c-0.4,0-0.8,0.2-0.8,0.6
			c0,0.4,0.4,0.6,0.7,0.6C122.7,13.3,123.3,13,123.3,12.4z"/>
		<path class="st1" d="M127.9,9.3h-1.6V8.6h4v0.7h-1.6v4.5h-0.7V9.3z"/>
		<path class="st1" d="M133.9,11.8V12h-2.8c0,0.6,0.4,1.3,1.1,1.3c0.5,0,0.8-0.2,0.9-0.7h0.7c-0.1,0.7-0.7,1.3-1.6,1.3
			c-1.2,0-1.9-0.9-1.9-2c0-1.2,0.7-2,1.8-2C133,9.9,133.9,10.4,133.9,11.8z M131.1,11.5h2.1c0-0.5-0.3-1-1-1
			C131.5,10.5,131.2,11,131.1,11.5z M133,8l0.3,0.5l-1.9,1l-0.2-0.3L133,8z"/>
		<path class="st1" d="M136.6,10.6c-0.7-0.1-1.1,0.2-1.1,1v2.2h-0.7V10h0.6l0,0.7c0.1-0.5,0.5-0.8,1.1-0.7V10.6z"/>
		<path class="st1" d="M142.6,11.3v2.5h-0.7v-2.4c0-0.6-0.3-0.8-0.7-0.8c-0.5,0-0.9,0.4-0.9,1v2.2h-0.7v-2.4c0-0.6-0.3-0.8-0.7-0.8
			c-0.5,0-0.9,0.4-0.9,1v2.2h-0.7V10h0.6l0,0.6c0.2-0.4,0.6-0.7,1.1-0.7c0.5,0,0.9,0.2,1.1,0.7c0.2-0.4,0.6-0.7,1.1-0.7
			C142.1,9.9,142.6,10.3,142.6,11.3z"/>
		<path class="st1" d="M144.4,9.3h-0.8V8.5h0.8V9.3z M144.4,13.8h-0.7V10h0.7V13.8z"/>
		<path class="st1" d="M145.4,10h0.6l0.1,0.7c0.1-0.5,0.6-0.8,1.2-0.8c0.8,0,1.3,0.5,1.3,1.5v2.4h-0.7v-2.3c0-0.7-0.4-0.9-0.8-0.9
			c-0.5,0-1,0.4-1,1v2.2h-0.7V10z"/>
		<path class="st1" d="M149.4,11.9c0-1.1,0.8-2,1.9-2c1.2,0,1.9,0.9,1.9,2c0,1.1-0.8,2-1.9,2C150.2,13.9,149.4,13,149.4,11.9z
			 M152.6,11.9c0-0.7-0.4-1.4-1.2-1.4c-0.8,0-1.2,0.7-1.2,1.4c0,0.7,0.4,1.3,1.2,1.3C152.2,13.2,152.6,12.6,152.6,11.9z"/>
		<path class="st1" d="M153.9,12.6h0.7c0,0.4,0.3,0.8,0.9,0.8c0.5,0,0.8-0.2,0.8-0.6c0-0.3-0.3-0.5-1-0.7c-0.7-0.2-1.3-0.4-1.3-1.1
			c0-0.7,0.6-1.1,1.4-1.1c1,0,1.5,0.6,1.5,1.3h-0.6c0-0.5-0.4-0.8-0.9-0.8c-0.4,0-0.8,0.2-0.8,0.5c0,0.4,0.4,0.5,0.8,0.6
			c1,0.2,1.5,0.6,1.5,1.2c0,0.7-0.6,1.1-1.4,1.1C154.4,13.9,153.9,13.2,153.9,12.6z"/>
		<path class="st1" d="M159.7,10l1.1,3l1-3h0.8l-1.7,4.6c-0.3,0.8-0.7,0.8-1.2,0.8l-0.2,0v-0.6h0.2c0.3,0,0.6-0.1,0.7-0.6l0.1-0.4
			L159,10H159.7z"/>
		<path class="st1" d="M164.6,11.9c0-1.1,0.7-2,1.8-2c0.8,0,1.5,0.5,1.6,1.3h-0.7c-0.1-0.5-0.5-0.7-0.9-0.7c-0.7,0-1.1,0.5-1.1,1.4
			c0,0.8,0.4,1.3,1.1,1.3c0.4,0,0.8-0.2,0.9-0.7h0.7c-0.1,0.9-0.8,1.4-1.6,1.4C165.2,13.9,164.6,13,164.6,11.9z"/>
		<path class="st1" d="M168.7,11.9c0-1.1,0.8-2,1.9-2c1.2,0,1.9,0.9,1.9,2c0,1.1-0.8,2-1.9,2S168.7,13,168.7,11.9z M171.9,11.9
			c0-0.7-0.4-1.4-1.2-1.4c-0.8,0-1.2,0.7-1.2,1.4c0,0.7,0.4,1.3,1.2,1.3C171.5,13.2,171.9,12.6,171.9,11.9z"/>
		<path class="st1" d="M173.5,10h0.6l0.1,0.7c0.1-0.5,0.6-0.8,1.2-0.8c0.8,0,1.3,0.5,1.3,1.5v2.4H176v-2.3c0-0.7-0.4-0.9-0.8-0.9
			c-0.5,0-1,0.4-1,1v2.2h-0.7V10z"/>
		<path class="st1" d="M181.1,8.4v5.4h-0.6l0-0.7c-0.1,0.4-0.6,0.8-1.2,0.8c-1.2,0-1.8-1.1-1.8-2c0-1,0.5-2,1.8-2
			c0.6,0,1,0.3,1.1,0.7V8.4H181.1z M178.2,11.9c0,0.6,0.2,1.4,1.1,1.4c0.7,0,1.1-0.5,1.1-1.2v-0.4c0-0.7-0.5-1.1-1.1-1.1
			C178.5,10.5,178.2,11.3,178.2,11.9z"/>
		<path class="st1" d="M182.9,9.3h-0.8V8.5h0.8V9.3z M182.9,13.8h-0.7V10h0.7V13.8z"/>
		<path class="st1" d="M183.7,11.9c0-1.1,0.7-2,1.8-2c0.8,0,1.5,0.5,1.6,1.3h-0.7c-0.1-0.5-0.5-0.7-0.9-0.7c-0.7,0-1.1,0.5-1.1,1.4
			c0,0.8,0.4,1.3,1.1,1.3c0.4,0,0.8-0.2,0.9-0.7h0.7c-0.1,0.9-0.8,1.4-1.6,1.4C184.3,13.9,183.7,13,183.7,11.9z"/>
		<path class="st1" d="M188.8,9.3h-0.8V8.5h0.8V9.3z M188.7,13.8H188V10h0.7V13.8z"/>
		<path class="st1" d="M189.6,11.9c0-1.1,0.8-2,1.9-2c1.2,0,1.9,0.9,1.9,2c0,1.1-0.8,2-1.9,2S189.6,13,189.6,11.9z M192.7,11.9
			c0-0.7-0.4-1.4-1.2-1.4c-0.8,0-1.2,0.7-1.2,1.4c0,0.7,0.4,1.3,1.2,1.3C192.3,13.2,192.7,12.6,192.7,11.9z"/>
		<path class="st1" d="M194.3,10h0.6l0.1,0.7c0.1-0.5,0.6-0.8,1.2-0.8c0.8,0,1.3,0.5,1.3,1.5v2.4h-0.7v-2.3c0-0.7-0.4-0.9-0.8-0.9
			c-0.5,0-1,0.4-1,1v2.2h-0.7V10z"/>
		<path class="st1" d="M201.9,11.8V12h-2.8c0,0.6,0.4,1.3,1.1,1.3c0.5,0,0.8-0.2,0.9-0.7h0.7c-0.1,0.7-0.7,1.3-1.6,1.3
			c-1.2,0-1.9-0.9-1.9-2c0-1.2,0.7-2,1.8-2C200.9,9.9,201.9,10.4,201.9,11.8z M199.1,11.5h2.1c0-0.5-0.3-1-1-1
			C199.5,10.5,199.1,11,199.1,11.5z"/>
		<path class="st1" d="M202.5,12.6h0.7c0,0.4,0.3,0.8,0.9,0.8c0.5,0,0.8-0.2,0.8-0.6c0-0.3-0.3-0.5-1-0.7c-0.7-0.2-1.3-0.4-1.3-1.1
			c0-0.7,0.6-1.1,1.4-1.1c1,0,1.5,0.6,1.5,1.3h-0.6c0-0.5-0.4-0.8-0.9-0.8c-0.4,0-0.8,0.2-0.8,0.5c0,0.4,0.4,0.5,0.8,0.6
			c1,0.2,1.5,0.6,1.5,1.2c0,0.7-0.6,1.1-1.4,1.1C203,13.9,202.5,13.2,202.5,12.6z"/>
		<path class="st1" d="M206.3,12.9h0.9v0.9h-0.9V12.9z"/>
	</g>
	<rect x="15" y="13.8" class="st2" width="273.8" height="46"/>
	<g>
		<path class="st3" d="M36.2,28.9v3.5h-6.9v2.8h6.1v3.3h-6.1v3.1h7.1v3.5H25.4V28.9H36.2z"/>
		<path class="st3" d="M42.6,28.9v12.6h6.1v3.5h-9.9V28.9H42.6z"/>
		<path class="st3" d="M61.4,28.9v3.5h-6.9v2.8h6.1v3.3h-6.1v3.1h7.1v3.5H50.7V28.9H61.4z"/>
		<path class="st3" d="M62.9,36.9c0-4.6,3.1-8.4,8.2-8.4c4,0,7,2.7,7.2,6h-4.1c-0.3-1.7-1.9-2.4-3.2-2.4c-3,0-4.1,2.5-4.1,4.9
			c0,2.5,1.1,5,4,5c1.7,0,2.9-0.9,3.3-2.4h4c-0.5,3.8-3.6,6-7.2,6C65.3,45.5,62.9,41.3,62.9,36.9z"/>
		<path class="st3" d="M84.1,32.5h-4.7v-3.5h13.2v3.5h-4.7v12.6h-3.9V32.5z"/>
		<path class="st3" d="M94.1,28.9h6.7c3.9,0,5.8,1.8,5.8,4.9c0,2-1.2,3.6-3.1,4c2.4,0.8,3.5,3.5,3.5,7.3h-3.9c0-5.4-2.3-5.8-3.8-5.8
			H98v5.8h-3.9V28.9z M100.7,36c1.8,0,2-1.2,2-1.9c0-0.8-0.4-1.7-1.9-1.7H98V36H100.7z"/>
		<path class="st3" d="M125.1,37.1c0,4.6-3.4,8.5-8.5,8.5c-5.3,0-8.5-3.9-8.5-8.5c0-4.6,3.3-8.7,8.5-8.7
			C121.9,28.4,125.1,32.5,125.1,37.1z M112.2,37.1c0,2.2,1.4,4.8,4.4,4.8c3.1,0,4.4-2.6,4.4-4.8c0-2.1-1.1-5.1-4.4-5.1
			C113.3,32.1,112.2,35,112.2,37.1z"/>
		<path class="st3" d="M141.3,36.8c0,4.8-3,8.3-9.3,8.2h-4.7V28.9h4.3C137.7,28.9,141.3,31.7,141.3,36.8z M131.2,32.4v9.2h0.9
			c3.8,0,5.1-1.9,5.1-4.8s-1.5-4.5-5.1-4.4H131.2z"/>
		<path class="st3" d="M160.2,37.1c0,4.6-3.4,8.5-8.5,8.5c-5.3,0-8.5-3.9-8.5-8.5c0-4.6,3.3-8.7,8.5-8.7
			C156.9,28.4,160.2,32.5,160.2,37.1z M147.3,37.1c0,2.2,1.4,4.8,4.4,4.8c3.1,0,4.4-2.6,4.4-4.8c0-2.1-1.1-5.1-4.4-5.1
			C148.4,32.1,147.3,35,147.3,37.1z"/>
		<path class="st3" d="M162.4,28.9h5.8l3.3,8l3.4-8h5.8v16.1h-3.9l-0.2-11.7l-3.1,7.7h-4l-3.3-7.7v11.7h-3.9V28.9z"/>
		<path class="st3" d="M194.1,28.9v3.5h-6.9v2.8h6.1v3.3h-6.1v3.1h7.1v3.5h-10.9V28.9H194.1z M190.7,22.4l1.7,2.4l-6.3,3.4l-0.7-0.9
			L190.7,22.4z"/>
		<path class="st3" d="M196,39.6h3.8c0,1.8,1.3,2.5,2.8,2.5c1.6,0,2.3-0.8,2.3-1.7c0-1.5-1.9-1.6-3.8-2c-3.1-0.8-4.8-2.3-4.8-4.8
			c0-3.3,3.1-5,6.2-5c4.6,0,6.8,2.9,6.6,5.9h-3.7c0.1-1.5-1.1-2.6-2.7-2.6c-1.7,0-2.4,0.8-2.4,1.6c0,1.6,2.1,1.7,3.7,2.1
			c2.2,0.5,5,1.6,5,4.9c0,2.9-2.4,5-6.2,5C197.7,45.4,195.7,42.3,196,39.6z"/>
		<path class="st3" d="M214.6,32.5H210v-3.5h13.2v3.5h-4.7v12.6h-3.9V32.5z"/>
		<path class="st3" d="M224.7,28.9h3.9v16.1h-3.9V28.9z"/>
		<path class="st3" d="M230.8,36.9c0-4.6,3.1-8.4,8.2-8.4c4,0,7,2.7,7.2,6h-4.1c-0.3-1.7-1.9-2.4-3.2-2.4c-3,0-4.1,2.5-4.1,4.9
			c0,2.5,1.1,5,4,5c1.7,0,2.9-0.9,3.3-2.4h4c-0.5,3.8-3.6,6-7.2,6C233.2,45.5,230.8,41.3,230.8,36.9z"/>
		<path class="st3" d="M265.1,37.1c0,4.6-3.4,8.5-8.5,8.5c-5.3,0-8.5-3.9-8.5-8.5c0-4.6,3.3-8.7,8.5-8.7
			C261.8,28.4,265.1,32.5,265.1,37.1z M252.2,37.1c0,2.2,1.4,4.8,4.4,4.8c3.1,0,4.4-2.6,4.4-4.8c0-2.1-1.1-5.1-4.4-5.1
			C253.3,32.1,252.2,35,252.2,37.1z"/>
		<path class="st3" d="M266.5,39.6h3.8c0,1.8,1.3,2.5,2.8,2.5c1.6,0,2.3-0.8,2.3-1.7c0-1.5-1.9-1.6-3.8-2c-3.1-0.8-4.8-2.3-4.8-4.8
			c0-3.3,3.1-5,6.2-5c4.6,0,6.8,2.9,6.6,5.9h-3.7c0.1-1.5-1.1-2.6-2.7-2.6c-1.7,0-2.4,0.8-2.4,1.6c0,1.6,2.1,1.7,3.7,2.1
			c2.2,0.5,5,1.6,5,4.9c0,2.9-2.4,5-6.2,5C268.1,45.4,266.2,42.3,266.5,39.6z"/>
	</g>
	<g>
		<path class="st2" d="M117.5,99.2v13.1H76.4V99.2h13.4V80.7c-3.4,2.8-8.1,3.2-12.2,3.2V69.3c4,0,8.1-1.4,12.2-5.2h17.4v35.1H117.5z
			"/>
	</g>
	<g>
		<path class="st2" d="M159.8,99.3h-11.9l-1.1,3.5H136l10.5-29.1h14.7l10.5,29.1h-10.9L159.8,99.3z M157.3,91.6l-2.6-8.1H153
			l-2.6,8.1H157.3z"/>
		<path class="st2" d="M173,73.7h12l8.4,14.5h1V73.7h10.2v29.1h-11.8l-8.7-14.5h-0.9v14.5H173V73.7z M184.9,70.1
			c-1.2,0-2.1,0.6-2.2,1.7H180c-0.8-4.5,2.5-6.4,5.6-6.4c2.8,0,4.6,1.9,6.9,1.9c1.2,0,2.1-0.6,2.2-1.7h2.7c0.8,4.5-2.4,6.4-5.6,6.4
			C189.1,72,187.2,70.1,184.9,70.1z"/>
		<path class="st2" d="M206.3,88.2c0-9.4,6.5-15.5,16.7-15.5c10.2,0,16.7,6.1,16.7,15.5s-6.5,15.5-16.7,15.5
			C212.8,103.8,206.3,97.6,206.3,88.2z M229.2,88.2c0-4.2-2.9-6.5-6.2-6.5c-3.3,0-6.2,2.3-6.2,6.5c0,4.2,2.9,6.5,6.2,6.5
			C226.4,94.7,229.2,92.5,229.2,88.2z"/>
	</g>
	<g>
		<rect x="15.7" y="115.8" class="st4" width="270.1" height="18.5"/>
		<g>
			<path class="st5" d="M20.1,124.9h2.8c0,1.3,0.9,1.8,2.1,1.8c1.2,0,1.6-0.6,1.6-1.3c0-1.1-1.4-1.2-2.7-1.5
				c-2.3-0.6-3.5-1.6-3.5-3.5c0-2.4,2.2-3.7,4.5-3.7c3.4,0,4.9,2.1,4.8,4.3H27c0.1-1.1-0.8-1.9-2-1.9c-1.2,0-1.7,0.5-1.7,1.1
				c0,1.1,1.5,1.3,2.7,1.6c1.6,0.4,3.7,1.1,3.7,3.6c0,2.1-1.8,3.7-4.5,3.7C21.3,129.1,19.9,126.9,20.1,124.9z"/>
			<path class="st5" d="M39.4,124.4l0,0.6h-6c0,1.3,0.7,2.1,1.8,2.1c0.5,0,1.3-0.2,1.5-1.2h2.6c-0.3,2.1-1.8,3.3-4,3.3
				c-3,0-4.6-2.1-4.6-4.7c0-2.7,1.6-4.8,4.4-4.8C37.1,119.7,39.4,120.8,39.4,124.4z M33.5,123.3h3.1c0-1-0.6-1.6-1.5-1.6
				C34.3,121.7,33.5,122.4,33.5,123.3z"/>
			<path class="st5" d="M47,121.3l0.2-1.3h2.4v7.7c0,3.6-1.7,5.3-4.6,5.3c-2.9,0-4.6-1.9-4.5-3.9H43c0.2,1.1,0.9,1.6,1.9,1.6
				c1.3,0,2-0.7,2-2.7v-0.7c-0.2,0.5-0.8,1.4-2.5,1.4c-2.7,0-3.9-2.1-3.9-4.2c0-2.7,1.3-4.6,3.9-4.6C45.7,119.8,46.7,120.5,47,121.3
				z M43.4,124.3c0,0.9,0.5,2,1.8,2c0.9,0,1.8-0.6,1.8-1.9v-0.2c0-1-0.6-1.9-1.8-1.9C43.9,122.3,43.4,123.3,43.4,124.3z"/>
			<path class="st5" d="M59.3,128.9h-2.4l-0.2-1.2c-0.5,1.1-1.7,1.5-2.6,1.5c-1.9,0-3.1-1.4-3.1-3.5V120h2.8v5.4
				c0,1,0.4,1.4,1.2,1.4c0.7,0,1.5-0.4,1.5-1.8v-5h2.8V128.9z M56.7,115l1.2,1.7l-4.6,2.5l-0.5-0.7L56.7,115z"/>
			<path class="st5" d="M60.9,120h2.4l0.2,1.5c0.3-1,1.6-1.7,2.7-1.7c2.1,0,3.2,1.4,3.2,3.5v5.6h-2.8v-5.4c0-1-0.4-1.4-1.2-1.4
				c-0.7,0-1.6,0.4-1.6,1.8v5h-2.8V120z"/>
			<path class="st5" d="M79.5,122.6c-1.2-0.1-2.5,0-2.5,2v4.3h-2.8V120h2.4l0.2,1.7c0.3-1.3,1.2-2,2.7-1.8V122.6z"/>
			<path class="st5" d="M88.8,124.4l0,0.6h-6c0,1.3,0.7,2.1,1.8,2.1c0.5,0,1.3-0.2,1.5-1.2h2.6c-0.3,2.1-1.8,3.3-4,3.3
				c-3,0-4.6-2.1-4.6-4.7c0-2.7,1.6-4.8,4.4-4.8C86.4,119.7,88.8,120.8,88.8,124.4z M82.8,123.3h3.1c0-1-0.6-1.6-1.5-1.6
				C83.6,121.7,82.9,122.4,82.8,123.3z"/>
			<path class="st5" d="M95.7,116.1v2.2l-0.7,0c-1,0-1.4,0.2-1.4,1.1v0.6h2.1v2.2h-2.1v6.7h-2.8v-6.7h-1.4V120h1.4v-0.5
				c0-2.7,1.7-3.6,4.3-3.5L95.7,116.1z"/>
			<path class="st5" d="M104.7,124.4l0,0.6h-6c0,1.3,0.7,2.1,1.8,2.1c0.5,0,1.3-0.2,1.5-1.2h2.6c-0.3,2.1-1.8,3.3-4,3.3
				c-3,0-4.6-2.1-4.6-4.7c0-2.7,1.6-4.8,4.4-4.8C102.4,119.7,104.7,120.8,104.7,124.4z M98.8,123.3h3.1c0-1-0.6-1.6-1.5-1.6
				C99.5,121.7,98.8,122.4,98.8,123.3z"/>
			<path class="st5" d="M111.4,122.6c-1.2-0.1-2.5,0-2.5,2v4.3h-2.8V120h2.4l0.2,1.7c0.3-1.3,1.2-2,2.7-1.8V122.6z"/>
			<path class="st5" d="M120.7,124.4l0,0.6h-6c0,1.3,0.7,2.1,1.8,2.1c0.5,0,1.3-0.2,1.5-1.2h2.6c-0.3,2.1-1.8,3.3-4,3.3
				c-3,0-4.6-2.1-4.6-4.7c0-2.7,1.6-4.8,4.4-4.8C118.3,119.7,120.7,120.8,120.7,124.4z M114.7,123.3h3.1c0-1-0.6-1.6-1.5-1.6
				C115.5,121.7,114.8,122.4,114.7,123.3z"/>
			<path class="st5" d="M122,120h2.4l0.2,1.5c0.3-1,1.6-1.7,2.7-1.7c2.1,0,3.2,1.4,3.2,3.5v5.6h-2.8v-5.4c0-1-0.4-1.4-1.2-1.4
				c-0.7,0-1.6,0.4-1.6,1.8v5H122V120z"/>
			<path class="st5" d="M131.6,124.4c0-2.5,1.5-4.7,4.5-4.7c2.1,0,4,1.3,4,3.5h-2.6c-0.2-1-0.9-1.2-1.4-1.2c-0.9,0-1.7,0.6-1.7,2.4
				c0,2,1.1,2.3,1.8,2.3c0.5,0,1.2-0.2,1.3-1.1h2.6c-0.1,2.1-1.8,3.4-4,3.4C133.3,129.1,131.6,126.9,131.6,124.4z"/>
			<path class="st5" d="M144.2,118.9h-3v-2.6h3V118.9z M144.1,128.9h-2.8V120h2.8V128.9z"/>
			<path class="st5" d="M145.4,126.2c0-1.9,1.7-2.7,3.2-2.7c0.8,0,1.5,0.2,1.9,0.6v-1.1c0-1-0.7-1.2-1.2-1.2c-0.6,0-1.2,0.3-1.2,1.2
				h-2.4c-0.2-1.6,0.9-3.4,3.7-3.4c2.3,0,3.8,1.3,3.8,3.7v3.1c0,0.4,0.2,0.6,0.7,0.5v1.9l-0.4,0.1c-1.2,0.1-2.4-0.4-2.6-1.6
				c-0.4,1.3-1.6,1.6-2.4,1.6C146.8,129.1,145.4,128.1,145.4,126.2z M150.7,125.9c-0.3-0.4-0.9-0.7-1.4-0.7c-0.7,0-1.3,0.3-1.3,1
				c0,0.8,0.9,0.9,1.2,0.9C149.7,127.1,150.6,126.8,150.7,125.9z"/>
			<path class="st5" d="M154.5,125.7h2.5c0,1.1,1,1.4,1.6,1.4c0.6,0,1.1-0.3,1.1-0.8c0-0.5-0.4-0.7-1.4-0.9
				c-2.4-0.4-3.4-1.2-3.4-2.8c0-1.7,1.4-2.9,3.7-2.9c2.8,0,3.9,1.8,3.9,3.4H160c0.1-1.1-1.1-1.3-1.5-1.3c-0.5,0-1.2,0.2-1.2,0.7
				c0,0.6,0.7,0.7,1.5,0.9c2.6,0.5,3.5,1.3,3.5,2.9c0,1.8-1.6,2.9-3.7,2.9C156.1,129.2,154.4,127.7,154.5,125.7z"/>
			<path class="st5" d="M166.6,125.7h2.5c0,1.1,1,1.4,1.6,1.4c0.6,0,1.1-0.3,1.1-0.8c0-0.5-0.4-0.7-1.4-0.9
				c-2.4-0.4-3.4-1.2-3.4-2.8c0-1.7,1.4-2.9,3.7-2.9c2.8,0,3.9,1.8,3.9,3.4h-2.4c0.1-1.1-1.1-1.3-1.5-1.3c-0.5,0-1.2,0.2-1.2,0.7
				c0,0.6,0.7,0.7,1.5,0.9c2.6,0.5,3.5,1.3,3.5,2.9c0,1.8-1.6,2.9-3.7,2.9C168.2,129.2,166.6,127.7,166.6,125.7z"/>
			<path class="st5" d="M184.2,124.4l0,0.6h-6c0,1.3,0.7,2.1,1.8,2.1c0.5,0,1.3-0.2,1.5-1.2h2.6c-0.3,2.1-1.8,3.3-4,3.3
				c-3,0-4.6-2.1-4.6-4.7c0-2.7,1.6-4.8,4.4-4.8C181.9,119.7,184.2,120.8,184.2,124.4z M178.3,123.3h3.1c0-1-0.6-1.6-1.5-1.6
				C179,121.7,178.3,122.4,178.3,123.3z"/>
			<path class="st5" d="M188.4,128.9h-2.8v-12.6h2.8V128.9z"/>
			<path class="st5" d="M198.4,124.4l0,0.6h-6c0,1.3,0.7,2.1,1.8,2.1c0.5,0,1.3-0.2,1.5-1.2h2.6c-0.3,2.1-1.8,3.3-4,3.3
				c-3,0-4.6-2.1-4.6-4.7c0-2.7,1.6-4.8,4.4-4.8C196.1,119.7,198.4,120.8,198.4,124.4z M192.5,123.3h3.1c0-1-0.6-1.6-1.5-1.6
				C193.2,121.7,192.5,122.4,192.5,123.3z"/>
			<path class="st5" d="M199.5,124.4c0-2.5,1.5-4.7,4.5-4.7c2.1,0,4,1.3,4,3.5h-2.6c-0.2-1-0.9-1.2-1.4-1.2c-0.9,0-1.7,0.6-1.7,2.4
				c0,2,1.1,2.3,1.8,2.3c0.5,0,1.2-0.2,1.3-1.1h2.6c-0.1,2.1-1.8,3.4-4,3.4C201.1,129.1,199.5,126.9,199.5,124.4z"/>
			<path class="st5" d="M208.9,124.4c0-2.5,1.5-4.7,4.5-4.7c2.1,0,4,1.3,4,3.5h-2.6c-0.2-1-0.9-1.2-1.4-1.2c-0.9,0-1.7,0.6-1.7,2.4
				c0,2,1.1,2.3,1.8,2.3c0.5,0,1.2-0.2,1.3-1.1h2.6c-0.1,2.1-1.8,3.4-4,3.4C210.5,129.1,208.9,126.9,208.9,124.4z"/>
			<path class="st5" d="M221.4,118.9h-3v-2.6h3V118.9z M221.3,128.9h-2.8V120h2.8V128.9z"/>
			<path class="st5" d="M222.7,124.4c0-2.7,2-4.7,4.7-4.7c2.8,0,4.7,2,4.7,4.7c0,2.7-1.8,4.7-4.6,4.7
				C224.5,129.1,222.7,127.1,222.7,124.4z M229.3,124.5c0-1.1-0.5-2.3-1.9-2.3c-1.5,0-2,1.2-2,2.3c0,1.1,0.6,2.2,2,2.2
				C228.8,126.7,229.3,125.5,229.3,124.5z"/>
			<path class="st5" d="M233.4,120h2.4l0.2,1.5c0.3-1,1.6-1.7,2.7-1.7c2.1,0,3.2,1.4,3.2,3.5v5.6H239v-5.4c0-1-0.4-1.4-1.2-1.4
				c-0.7,0-1.6,0.4-1.6,1.8v5h-2.8V120z"/>
			<path class="st5" d="M243,126.2c0-1.9,1.7-2.7,3.2-2.7c0.8,0,1.5,0.2,1.9,0.6v-1.1c0-1-0.7-1.2-1.2-1.2c-0.6,0-1.2,0.3-1.2,1.2
				h-2.4c-0.2-1.6,0.9-3.4,3.7-3.4c2.3,0,3.8,1.3,3.8,3.7v3.1c0,0.4,0.2,0.6,0.7,0.5v1.9L251,129c-1.2,0.1-2.4-0.4-2.6-1.6
				c-0.4,1.3-1.6,1.6-2.4,1.6C244.4,129.1,243,128.1,243,126.2z M248.3,125.9c-0.3-0.4-0.9-0.7-1.4-0.7c-0.7,0-1.3,0.3-1.3,1
				c0,0.8,0.9,0.9,1.2,0.9C247.3,127.1,248.2,126.8,248.3,125.9z"/>
			<path class="st5" d="M261.3,116.3v12.6h-2.4l-0.2-1.5c-0.3,0.9-1.3,1.7-2.6,1.7c-2.6,0-3.9-2.1-3.9-4.8c0-2.3,1.3-4.6,3.9-4.6
				c1.3,0,2.3,0.8,2.5,1.5v-4.9H261.3z M255.1,124.4c0,1.2,0.5,2.2,1.8,2.2c1.2,0,1.8-1,1.8-2.1v-0.4c0-1.2-0.9-1.9-1.8-1.9
				C255.5,122.2,255.1,123.4,255.1,124.4z"/>
			<path class="st5" d="M262.6,126.2c0-1.9,1.7-2.7,3.2-2.7c0.8,0,1.5,0.2,1.9,0.6v-1.1c0-1-0.7-1.2-1.2-1.2c-0.6,0-1.2,0.3-1.2,1.2
				h-2.4c-0.2-1.6,0.9-3.4,3.7-3.4c2.3,0,3.8,1.3,3.8,3.7v3.1c0,0.4,0.2,0.6,0.7,0.5v1.9l-0.4,0.1c-1.2,0.1-2.4-0.4-2.6-1.6
				c-0.4,1.3-1.6,1.6-2.4,1.6C264,129.1,262.6,128.1,262.6,126.2z M267.9,125.9c-0.3-0.4-0.9-0.7-1.4-0.7c-0.7,0-1.3,0.3-1.3,1
				c0,0.8,0.9,0.9,1.2,0.9C267,127.1,267.9,126.8,267.9,125.9z"/>
			<path class="st5" d="M271.7,125.7h2.5c0,1.1,1,1.4,1.6,1.4c0.6,0,1.1-0.3,1.1-0.8c0-0.5-0.4-0.7-1.4-0.9
				c-2.4-0.4-3.4-1.2-3.4-2.8c0-1.7,1.4-2.9,3.7-2.9c2.8,0,3.9,1.8,3.9,3.4h-2.4c0.1-1.1-1.1-1.3-1.5-1.3c-0.5,0-1.2,0.2-1.2,0.7
				c0,0.6,0.7,0.7,1.5,0.9c2.6,0.5,3.5,1.3,3.5,2.9c0,1.8-1.6,2.9-3.7,2.9C273.3,129.2,271.6,127.7,271.7,125.7z"/>
		</g>
		<g>
			<path class="st2" d="M118.4,147.8l-0.9,2.9h-1.2l3.1-9.1h1.4l3.1,9.1h-1.3l-1-2.9H118.4z M121.3,146.8l-0.9-2.6
				c-0.2-0.6-0.3-1.1-0.5-1.7h0c-0.1,0.5-0.3,1.1-0.5,1.6l-0.9,2.6H121.3z"/>
			<path class="st2" d="M125.1,146.2c0-0.8,0-1.5-0.1-2.1h1.1l0.1,1.1h0c0.5-0.8,1.3-1.3,2.3-1.3c1.6,0,2.8,1.3,2.8,3.3
				c0,2.3-1.4,3.5-3,3.5c-0.9,0-1.6-0.4-2-1h0v3.5h-1.2V146.2z M126.2,148c0,0.2,0,0.3,0.1,0.5c0.2,0.8,0.9,1.4,1.8,1.4
				c1.3,0,2-1,2-2.5c0-1.3-0.7-2.4-1.9-2.4c-0.8,0-1.6,0.6-1.8,1.5c0,0.1-0.1,0.3-0.1,0.5V148z"/>
			<path class="st2" d="M132.7,141h1.2v9.6h-1.2V141z"/>
			<path class="st2" d="M137.2,142.2c0,0.4-0.3,0.7-0.8,0.7c-0.4,0-0.7-0.3-0.7-0.7c0-0.4,0.3-0.7,0.7-0.7
				C137,141.5,137.2,141.8,137.2,142.2z M135.9,150.6v-6.5h1.2v6.5H135.9z"/>
			<path class="st2" d="M143.7,150.4c-0.3,0.2-1,0.4-1.9,0.4c-2,0-3.3-1.3-3.3-3.3c0-2,1.4-3.5,3.5-3.5c0.7,0,1.3,0.2,1.6,0.3
				l-0.3,0.9c-0.3-0.2-0.7-0.3-1.4-0.3c-1.5,0-2.3,1.1-2.3,2.5c0,1.5,1,2.4,2.3,2.4c0.7,0,1.1-0.2,1.5-0.3L143.7,150.4z"/>
			<path class="st2" d="M148.7,150.6l-0.1-0.8h0c-0.4,0.5-1.1,1-2,1c-1.3,0-2-0.9-2-1.9c0-1.6,1.4-2.4,3.9-2.4v-0.1
				c0-0.5-0.1-1.5-1.5-1.5c-0.6,0-1.2,0.2-1.7,0.5l-0.3-0.8c0.5-0.4,1.3-0.6,2.1-0.6c2,0,2.5,1.4,2.5,2.7v2.4c0,0.6,0,1.1,0.1,1.6
				H148.7z M148.6,147.3c-1.3,0-2.8,0.2-2.8,1.5c0,0.8,0.5,1.1,1.1,1.1c0.8,0,1.4-0.5,1.6-1.1c0-0.1,0.1-0.3,0.1-0.4V147.3z"/>
			<path class="st2" d="M155.7,142.5h-2.8v-1h6.7v1h-2.8v8.1h-1.2V142.5z"/>
			<path class="st2" d="M163.9,144.1l1.4,3.9c0.1,0.4,0.3,0.9,0.4,1.3h0c0.1-0.4,0.3-0.9,0.4-1.4l1.3-3.8h1.3l-1.8,4.7
				c-0.8,2.2-1.4,3.4-2.2,4.1c-0.6,0.5-1.2,0.7-1.5,0.8l-0.3-1c0.3-0.1,0.7-0.3,1-0.6c0.3-0.3,0.7-0.7,1-1.3
				c0.1-0.1,0.1-0.2,0.1-0.3s0-0.2-0.1-0.3l-2.4-6H163.9z"/>
			<path class="st2" d="M179.1,150.3c-0.4,0.2-1.3,0.4-2.4,0.4c-2.6,0-4.5-1.6-4.5-4.6c0-2.8,1.9-4.8,4.7-4.8c1.1,0,1.8,0.2,2.2,0.4
				l-0.3,1c-0.4-0.2-1.1-0.4-1.8-0.4c-2.1,0-3.5,1.4-3.5,3.8c0,2.2,1.3,3.7,3.5,3.7c0.7,0,1.4-0.1,1.9-0.4L179.1,150.3z"/>
			<path class="st2" d="M180.2,149.9c0-0.5,0.3-0.8,0.8-0.8c0.5,0,0.8,0.4,0.8,0.8c0,0.5-0.3,0.8-0.8,0.8
				C180.6,150.8,180.2,150.4,180.2,149.9z"/>
		</g>
	</g>
</g>
</svg>
