<?xml version="1.0" encoding="utf-8"?>
<!-- Generator: Adobe Illustrator 28.1.0, SVG Export Plug-In . SVG Version: 6.00 Build 0)  -->
<svg version="1.1" id="Capa_1" xmlns="http://www.w3.org/2000/svg" xmlns:xlink="http://www.w3.org/1999/xlink" x="0px" y="0px"
	 viewBox="0 0 302.4 160.8" style="enable-background:new 0 0 302.4 160.8;" xml:space="preserve">
<style type="text/css">
	.st0{opacity:0.81;fill:#FFFFFF;stroke:#303C78;stroke-width:3;stroke-miterlimit:10;}
	.st1{fill:#2F3B78;}
	.st2{fill:#EBECEE;}
	.st3{fill:#E4C44D;}
</style>
<g>
	<rect x="1.5" y="1.5" class="st0" width="299.4" height="157.8"/>
	<rect x="20.2" y="23.1" class="st1" width="265.9" height="57.4"/>
	<g>
		<path class="st2" d="M38.1,33h13l7.3,18l7.6-18h13v36.2h-8.7L69.9,43L63,60.2h-8.9L46.8,43v26.3h-8.7V33z"/>
		<path class="st2" d="M117.4,54.2c0,9.6-5.8,16-16.7,16c-10.9,0-16.7-6.4-16.7-16V33h8.8v21c0,5.9,3.8,8.3,7.9,8.3
			c4.2,0,7.9-1.9,7.9-8.3V33h8.8V54.2z"/>
		<path class="st2" d="M146.6,33v7.8h-15.5v6.3h13.7v7.3h-13.7v7h15.9v7.8h-24.5V33H146.6z"/>
		<path class="st2" d="M169.1,33c8,0,10.9,4.4,10.9,9.4c0,3.4-1.6,6.9-5.6,7.9c4.5,1.1,6.8,4.5,6.8,8.5c0,7-5.1,10.4-11.7,10.4
			h-17.3V33H169.1z M161.1,47.5h6.3c3.4,0,3.9-2.2,3.9-3.8c0-1.6-0.9-3.2-3.8-3.2h-6.4V47.5z M161.1,61.8h7.5c3.2,0,3.9-1.7,3.9-3.8
			s-1.5-3.4-4.1-3.4h-7.4V61.8z"/>
		<path class="st2" d="M194.6,33v28.3h13.6v7.9h-22.3V33H194.6z"/>
		<path class="st2" d="M236.9,33v7.8h-15.5v6.3H235v7.3h-13.7v7h15.9v7.8h-24.5V33H236.9z"/>
		<path class="st2" d="M240.1,57h8.6c-0.1,4,2.8,5.7,6.4,5.7c3.6,0,5.1-1.7,5.1-3.9c0-3.4-4.4-3.6-8.4-4.6
			c-7-1.7-10.8-5.1-10.8-10.8c0-7.4,6.9-11.3,13.9-11.3c10.3,0,15.2,6.6,14.8,13.1h-8.4c0.2-3.3-2.5-5.8-6.2-5.8
			c-3.8,0-5.3,1.7-5.3,3.5c-0.1,3.5,4.7,3.9,8.3,4.8c4.9,1.2,11.3,3.5,11.3,10.9c0,6.6-5.4,11.3-13.8,11.3
			C243.9,70,239.5,63.1,240.1,57z"/>
	</g>
	<g>
		<g>
			<path class="st1" d="M43.6,117.8v6.7H22.5v-6.7h6.9v-9.5c-1.7,1.4-4.2,1.6-6.2,1.6v-7.4c2.1,0,4.2-0.7,6.2-2.6h8.9v18H43.6z"/>
		</g>
	</g>
	<g>
		<path class="st1" d="M25.2,135.6h-3l-0.3,0.9H19l2.7-7.5h3.8l2.7,7.5h-2.8L25.2,135.6z M24.5,133.6l-0.7-2.1h-0.5l-0.7,2.1H24.5z"
			/>
		<path class="st1" d="M28.5,129h3.1l2.2,3.7H34V129h2.6v7.5h-3l-2.2-3.7h-0.2v3.7h-2.6V129z M31.6,128.1c-0.3,0-0.5,0.2-0.6,0.4
			h-0.7c-0.2-1.2,0.6-1.6,1.4-1.6c0.7,0,1.2,0.5,1.8,0.5c0.3,0,0.5-0.2,0.6-0.4h0.7c0.2,1.1-0.6,1.6-1.4,1.6
			C32.6,128.6,32.2,128.1,31.6,128.1z"/>
		<path class="st1" d="M37.1,132.8c0-2.4,1.7-4,4.3-4c2.6,0,4.3,1.6,4.3,4c0,2.4-1.7,4-4.3,4C38.7,136.8,37.1,135.2,37.1,132.8z
			 M42.9,132.8c0-1.1-0.7-1.7-1.6-1.7c-0.9,0-1.6,0.6-1.6,1.7c0,1.1,0.7,1.7,1.6,1.7C42.2,134.4,42.9,133.9,42.9,132.8z"/>
	</g>
	<rect x="52.4" y="102.9" class="st1" width="78.3" height="28.4"/>
	<g>
		<path class="st3" d="M62,110c0,2.1-1.3,3.6-4.1,3.6h-2.1v-7.1h1.9C60.4,106.5,62,107.8,62,110z M57.6,108.1v4H58
			c1.7,0,2.2-0.9,2.3-2.1c0-1.2-0.7-2-2.3-1.9H57.6z"/>
		<path class="st3" d="M67.7,106.5v1.5h-3v1.2h2.7v1.4h-2.7v1.4h3.1v1.5H63v-7.1H67.7z"/>
		<path class="st3" d="M68.4,111.2H70c0,0.8,0.6,1.1,1.2,1.1c0.7,0,1-0.3,1-0.8c0-0.7-0.9-0.7-1.7-0.9c-1.4-0.3-2.1-1-2.1-2.1
			c0-1.5,1.3-2.2,2.7-2.2c2,0,3,1.3,2.9,2.6h-1.6c0-0.6-0.5-1.1-1.2-1.1c-0.7,0-1,0.3-1,0.7c0,0.7,0.9,0.8,1.6,0.9
			c1,0.2,2.2,0.7,2.2,2.1c0,1.3-1.1,2.2-2.7,2.2C69.1,113.8,68.2,112.4,68.4,111.2z"/>
		<path class="st3" d="M79.4,112.3h-2.9l-0.4,1.3h-1.7l2.3-7.1h2.5l2.3,7.1h-1.7L79.4,112.3z M78.9,110.9l-1-3.2l-1,3.2H78.9z"/>
		<path class="st3" d="M81.8,111.2h1.7c0,0.7,0.3,1,0.8,1c0.7,0,0.7-0.6,0.7-1v-4.6h1.7v4.4c0,0.8-0.1,2.8-2.4,2.8
			C82,113.7,81.6,112.1,81.8,111.2z"/>
		<path class="st3" d="M94,110.7c0,1.9-1.1,3.1-3.3,3.1s-3.3-1.2-3.3-3.1v-4.2h1.7v4.1c0,1.2,0.7,1.6,1.5,1.6c0.8,0,1.5-0.4,1.5-1.6
			v-4.1H94V110.7z"/>
		<path class="st3" d="M94.7,111.2h1.7c0,0.8,0.6,1.1,1.2,1.1c0.7,0,1-0.3,1-0.8c0-0.7-0.9-0.7-1.7-0.9c-1.4-0.3-2.1-1-2.1-2.1
			c0-1.5,1.3-2.2,2.7-2.2c2,0,3,1.3,2.9,2.6h-1.6c0-0.6-0.5-1.1-1.2-1.1c-0.7,0-1,0.3-1,0.7c0,0.7,0.9,0.8,1.6,0.9
			c1,0.2,2.2,0.7,2.2,2.1c0,1.3-1.1,2.2-2.7,2.2C95.5,113.8,94.6,112.4,94.7,111.2z"/>
		<path class="st3" d="M102.9,108.1h-2.1v-1.5h5.8v1.5h-2.1v5.5h-1.7V108.1z"/>
		<path class="st3" d="M112.1,106.5v1.5h-3v1.2h2.7v1.4h-2.7v1.4h3.1v1.5h-4.8v-7.1H112.1z"/>
		<path class="st3" d="M121.4,110c0,2.1-1.3,3.6-4.1,3.6h-2.1v-7.1h1.9C119.8,106.5,121.4,107.8,121.4,110z M116.9,108.1v4h0.4
			c1.7,0,2.2-0.9,2.3-2.1c0-1.2-0.7-2-2.3-1.9H116.9z"/>
		<path class="st3" d="M127.1,106.5v1.5h-3v1.2h2.7v1.4H124v1.4h3.1v1.5h-4.8v-7.1H127.1z"/>
		<path class="st3" d="M66.1,119.3v5.6h2.7v1.5h-4.4v-7.1H66.1z"/>
		<path class="st3" d="M74.1,125.2h-2.9l-0.4,1.3h-1.7l2.3-7.1H74l2.3,7.1h-1.7L74.1,125.2z M73.7,123.7l-1-3.2l-1,3.2H73.7z"/>
		<path class="st3" d="M78.7,119.3h2.5l1.4,3.5l1.5-3.5h2.6v7.1H85l-0.1-5.1l-1.4,3.4h-1.8l-1.4-3.4v5.2h-1.7V119.3z"/>
		<path class="st3" d="M92.3,125.2h-2.9l-0.4,1.3h-1.7l2.3-7.1h2.5l2.3,7.1h-1.7L92.3,125.2z M91.9,123.7l-1-3.2l-1,3.2H91.9z"/>
		<path class="st3" d="M101.2,122.8c0,2.1-1.3,3.6-4.1,3.6h-2.1v-7.1H97C99.6,119.3,101.2,120.6,101.2,122.8z M96.8,120.9v4h0.4
			c1.7,0,2.2-0.9,2.3-2.1c0-1.2-0.7-2-2.3-1.9H96.8z"/>
		<path class="st3" d="M106.9,119.3v1.5h-3v1.2h2.7v1.4h-2.7v1.4h3.1v1.5h-4.8v-7.1H106.9z"/>
		<path class="st3" d="M108.1,119.3h2.9c1.7,0,2.6,0.8,2.6,2.1c0,0.9-0.5,1.6-1.4,1.8c1,0.4,1.6,1.5,1.5,3.2H112
			c0-2.4-1-2.5-1.7-2.5h-0.6v2.5h-1.7V119.3z M111,122.5c0.8,0,0.9-0.5,0.9-0.8c0-0.4-0.2-0.8-0.9-0.8h-1.2v1.6H111z"/>
		<path class="st3" d="M119.1,125.2h-2.9l-0.4,1.3h-1.7l2.3-7.1h2.5l2.3,7.1h-1.7L119.1,125.2z M118.7,123.7l-1-3.2l-1,3.2H118.7z"
			/>
	</g>
	<g>
		<g>
			<path class="st1" d="M160.3,116.6h7.9c0.3,1.5,1.6,2.1,3.3,2.1c2.8,0,3.7-1.4,3.7-2.6c0-1.4-0.9-2.5-3.4-2.5c-2.3,0-3,1-3.4,1.4
				h-7.8l2.9-14.7h18v6.7H170l-0.6,2.6c0.7-0.4,2.1-1.1,5-1.1c4.9,0,9.1,2.6,9.1,8c0,5.6-3.9,9.1-12,9.1
				C163.8,125.5,160.2,122.6,160.3,116.6z"/>
		</g>
	</g>
	<g>
		<g>
			<path class="st1" d="M160.5,139.2h-3l-0.3,0.9h-2.8l2.7-7.5h3.8l2.7,7.5h-2.8L160.5,139.2z M159.9,137.2l-0.7-2.1h-0.5l-0.7,2.1
				H159.9z"/>
			<path class="st1" d="M163.9,132.6h3.1l2.2,3.7h0.2v-3.7h2.6v7.5h-3l-2.2-3.7h-0.2v3.7h-2.6V132.6z M167,131.7
				c-0.3,0-0.5,0.2-0.6,0.4h-0.7c-0.2-1.2,0.6-1.6,1.4-1.6c0.7,0,1.2,0.5,1.8,0.5c0.3,0,0.5-0.2,0.6-0.4h0.7
				c0.2,1.1-0.6,1.6-1.4,1.6C168,132.2,167.6,131.7,167,131.7z"/>
			<path class="st1" d="M172.5,136.4c0-2.4,1.7-4,4.3-4c2.6,0,4.3,1.6,4.3,4c0,2.4-1.7,4-4.3,4C174.1,140.3,172.5,138.8,172.5,136.4
				z M178.3,136.4c0-1.1-0.7-1.7-1.6-1.7c-0.9,0-1.6,0.6-1.6,1.7c0,1.1,0.7,1.7,1.6,1.7C177.6,138,178.3,137.4,178.3,136.4z"/>
			<path class="st1" d="M181.2,137.5h2.4c0,0.4,0.4,0.7,1.4,0.7c0.9,0,1.2-0.2,1.2-0.5c0-0.1,0-0.4-0.7-0.5l-1-0.2
				c-1.4-0.2-3.2-0.3-3.2-2.3c0-1.5,1.2-2.4,3.7-2.4c2.2,0,3.7,0.6,3.7,2.8h-2.4c-0.1-0.4-0.5-0.7-1.3-0.7c-0.8,0-1,0.2-1,0.5
				c0,0.1,0.1,0.4,0.6,0.5l0.8,0.1c1.5,0.2,3.6,0.2,3.6,2.4c0,1.7-1.3,2.5-3.9,2.5C182.4,140.3,181.2,139.5,181.2,137.5z"/>
		</g>
	</g>
	<rect x="191.8" y="104" class="st1" width="98.7" height="26.1"/>
	<g>
		<path class="st3" d="M199.5,106.9v1.5h-3v1.2h2.6v1.4h-2.6v1.3h3v1.5h-4.7v-7H199.5z"/>
		<path class="st3" d="M200.5,106.9h2.5l2.5,5v-5h1.7v7h-2.3l-2.6-5.3v5.3h-1.7V106.9z"/>
		<path class="st3" d="M213,108.4h-3v1.4h2.8v1.5H210v2.6h-1.7v-7h4.7V108.4z"/>
		<path class="st3" d="M218.4,106.9v1.5h-3v1.2h2.6v1.4h-2.6v1.3h3v1.5h-4.7v-7H218.4z"/>
		<path class="st3" d="M219.5,106.9h2.9c1.7,0,2.5,0.8,2.5,2.1c0,0.9-0.5,1.5-1.3,1.7c1,0.4,1.5,1.5,1.5,3.1h-1.7
			c0-2.3-1-2.5-1.6-2.5h-0.6v2.5h-1.7V106.9z M222.4,109.9c0.8,0,0.9-0.5,0.9-0.8c0-0.3-0.2-0.8-0.8-0.8h-1.2v1.6H222.4z"/>
		<path class="st3" d="M226,106.9h2.5l1.4,3.5l1.5-3.5h2.5v7h-1.7l-0.1-5l-1.3,3.3h-1.7l-1.4-3.3v5.1H226V106.9z"/>
		<path class="st3" d="M239.6,106.9v1.5h-3v1.2h2.6v1.4h-2.6v1.3h3v1.5H235v-7H239.6z"/>
		<path class="st3" d="M246.8,110.3c0,2.1-1.3,3.6-4,3.5h-2v-7h1.9C245.2,106.9,246.8,108.1,246.8,110.3z M242.4,108.4v4h0.4
			c1.6,0,2.2-0.8,2.2-2.1s-0.6-1.9-2.2-1.9H242.4z"/>
		<path class="st3" d="M251.8,112.6H249l-0.4,1.3h-1.7l2.3-7h2.5l2.2,7h-1.7L251.8,112.6z M251.3,111.2l-1-3.1l-1,3.1H251.3z"/>
		<path class="st3" d="M260.5,110.3c0,2.1-1.3,3.6-4,3.5h-2v-7h1.9C258.9,106.9,260.5,108.1,260.5,110.3z M256.1,108.4v4h0.4
			c1.6,0,2.2-0.8,2.2-2.1s-0.6-1.9-2.2-1.9H256.1z"/>
		<path class="st3" d="M266.1,106.9v1.5h-3v1.2h2.6v1.4h-2.6v1.3h3v1.5h-4.7v-7H266.1z"/>
		<path class="st3" d="M266.7,111.5h1.7c0,0.8,0.5,1.1,1.2,1.1c0.7,0,1-0.3,1-0.7c0-0.6-0.8-0.7-1.6-0.9c-1.3-0.3-2.1-1-2.1-2.1
			c0-1.4,1.3-2.2,2.7-2.2c2,0,2.9,1.3,2.8,2.5h-1.6c0-0.6-0.5-1.1-1.2-1.1c-0.7,0-1,0.3-1,0.7c0,0.7,0.9,0.8,1.6,0.9
			c0.9,0.2,2.2,0.7,2.2,2.1c0,1.3-1,2.2-2.7,2.2C267.4,114,266.6,112.7,266.7,111.5z"/>
		<path class="st3" d="M281.2,110.3c0,2.1-1.3,3.6-4,3.5h-2v-7h1.9C279.6,106.9,281.2,108.1,281.2,110.3z M276.9,108.4v4h0.4
			c1.6,0,2.2-0.8,2.2-2.1s-0.6-1.9-2.2-1.9H276.9z"/>
		<path class="st3" d="M286.8,106.9v1.5h-3v1.2h2.6v1.4h-2.6v1.3h3v1.5h-4.7v-7H286.8z"/>
		<path class="st3" d="M215,119.4v5.4h2.6v1.5h-4.3v-7H215z"/>
		<path class="st3" d="M222.8,125.1H220l-0.4,1.3h-1.7l2.3-7h2.5l2.2,7h-1.7L222.8,125.1z M222.4,123.7l-1-3.1l-1,3.1H222.4z"/>
		<path class="st3" d="M227.3,119.4h2.5l1.4,3.5l1.5-3.5h2.5v7h-1.7l-0.1-5l-1.3,3.3h-1.7l-1.4-3.3v5.1h-1.7V119.4z"/>
		<path class="st3" d="M240.7,125.1h-2.8l-0.4,1.3h-1.7l2.3-7h2.5l2.2,7H241L240.7,125.1z M240.2,123.7l-1-3.1l-1,3.1H240.2z"/>
		<path class="st3" d="M249.4,122.8c0,2.1-1.3,3.6-4,3.5h-2v-7h1.9C247.8,119.4,249.4,120.6,249.4,122.8z M245,120.9v4h0.4
			c1.6,0,2.2-0.8,2.2-2.1s-0.6-1.9-2.2-1.9H245z"/>
		<path class="st3" d="M255,119.4v1.5h-3v1.2h2.6v1.4H252v1.3h3v1.5h-4.7v-7H255z"/>
		<path class="st3" d="M256.1,119.4h2.9c1.7,0,2.5,0.8,2.5,2.1c0,0.9-0.5,1.5-1.3,1.7c1,0.4,1.5,1.5,1.5,3.1h-1.7
			c0-2.3-1-2.5-1.6-2.5h-0.6v2.5h-1.7V119.4z M258.9,122.5c0.8,0,0.9-0.5,0.9-0.8c0-0.3-0.2-0.8-0.8-0.8h-1.2v1.6H258.9z"/>
		<path class="st3" d="M266.9,125.1h-2.8l-0.4,1.3H262l2.3-7h2.5l2.2,7h-1.7L266.9,125.1z M266.5,123.7l-1-3.1l-1,3.1H266.5z"/>
	</g>
	<rect x="140.7" y="86.7" class="st3" width="1.4" height="59.8"/>
</g>
</svg>
