<?xml version="1.0" encoding="UTF-8"?>
<svg id="Capa_1" data-name="Capa 1" xmlns="http://www.w3.org/2000/svg" viewBox="0 0 95.34 100">
  <defs>
    <style>
      .cls-1 {
        fill: #d87243;
      }

      .cls-1, .cls-2, .cls-3, .cls-4 {
        stroke-width: 0px;
      }

      .cls-2 {
        fill: #fff;
      }

      .cls-3 {
        fill: #112b5e;
      }

      .cls-4 {
        fill: #122d80;
      }
    </style>
  </defs>
  <polygon class="cls-4" points="11.22 6.46 95.34 0 77.84 71.43 43.15 77.99 46.48 85.37 53.06 100 11.22 84.02 11.22 6.46"/>
  <polygon class="cls-3" points="46.48 85.37 43.15 77.99 11.22 84.02 46.48 85.37"/>
  <polygon class="cls-1" points="0 14.97 95.34 0 77.84 71.43 19.02 71.43 0 14.97"/>
  <g>
    <path class="cls-2" d="M9.58,21.36l7.78-1.32c3.68-.63,5.91.55,5.9,4.2,0,3.64-2.26,5.58-5.92,6.2l-2.99.51v2.66s-4.81.82-4.81.82l.03-13.06ZM16.92,26.61c.89-.15,1.48-.69,1.48-1.54,0-.87-.59-1.21-1.46-1.06l-2.56.44v2.6s2.54-.43,2.54-.43Z"/>
    <path class="cls-2" d="M33.64,30.32l-1.68-2.92-3.02.51v3.2s-4.81.82-4.81.82l.03-13.06,7.86-1.34c3.75-.64,5.88.52,5.87,4.1,0,1.71-.77,3.08-1.84,4.04l2.31,3.83-4.73.8ZM28.95,24.42l2.7-.46c.95-.16,1.42-.71,1.42-1.47,0-.76-.46-1.15-1.41-.99l-2.7.46v2.46Z"/>
    <path class="cls-2" d="M39.22,16.32l12.3-2.09v3.75s-7.5,1.28-7.5,1.28v1.28s7.2-1.23,7.2-1.23v3.02s-7.21,1.23-7.21,1.23v1.26s7.49-1.28,7.49-1.28v3.76s-12.31,2.09-12.31,2.09l.03-13.06Z"/>
    <path class="cls-2" d="M52.16,20.64c.01-4.21,3.03-7.48,7.59-8.25,3.36-.57,6.82.28,7.18,4.82l-4.58.78c-.3-1.3-1.24-1.78-2.6-1.55-1.54.26-2.8,1.58-2.81,3.38,0,1.79,1.25,2.69,2.79,2.43,1.37-.23,2.31-1.03,2.61-2.47l4.58-.78c-.38,4.7-3.8,6.72-7.21,7.3-4.57.78-7.57-1.46-7.55-5.68Z"/>
    <path class="cls-2" d="M67.75,11.46l4.8-.82-.03,13.06-4.8.82.03-13.06Z"/>
    <path class="cls-2" d="M73.35,17.04c.01-4.21,2.99-7.47,7.65-8.27,4.68-.8,7.65,1.45,7.63,5.66s-2.99,7.47-7.67,8.27c-4.66.79-7.63-1.45-7.62-5.67ZM83.85,15.25c0-1.9-1.31-2.68-2.86-2.42-1.53.26-2.87,1.5-2.87,3.39,0,1.9,1.33,2.68,2.86,2.42,1.54-.26,2.87-1.5,2.87-3.4Z"/>
    <path class="cls-2" d="M25.84,35.39l6.05-1.03,1.78,6.57.35-.06,1.82-7.18,6.05-1.03-.03,13.06-4.58.78v-5.1s-.35.06-.35.06l-1.32,5.32-3.53.6-1.29-4.88-.37.06v5.1s-4.6.78-4.6.78l.03-13.06Z"/>
    <path class="cls-2" d="M53.33,42.19l-5.44.93-.51,1.66-4.96.84,4.85-13.88,6.75-1.15,4.8,12.24-4.98.85-.51-1.48ZM52.73,30.04l-4.25.72,1.17-2.98,4.25-.72-1.17,2.98ZM52.21,38.92l-1.17-3.41-.83.14-1.19,3.81,3.18-.54Z"/>
    <path class="cls-2" d="M58.5,38.41l4.31-.73c.03.77.7,1.11,2.51.83,1.56-.25,2.23-.77,2.23-1.23,0-.25-.06-.67-1.27-.62l-1.75.03c-2.51.04-5.73.42-5.72-3.1,0-2.63,2.16-4.61,6.58-5.36,3.95-.67,6.7-.14,6.57,3.76l-4.3.73c-.14-.74-.82-1.09-2.4-.82-1.35.23-1.85.69-1.85,1.15,0,.22.11.63,1.02.62l1.4-.02c2.69-.02,6.51-.72,6.5,3.01,0,2.92-2.3,4.71-7.03,5.5-4.79.8-6.96-.23-6.81-3.75Z"/>
    <path class="cls-2" d="M34,60.17c0,2.08-1.51,3.94-5.78,4.67l-8.34,1.42.03-13.06,8.64-1.47c4.1-.7,5.13.93,5.13,2.62,0,1.51-.8,2.23-1.68,2.88v.28c1.24.44,2,1.18,2,2.66ZM24.71,55.97v1.63s3.29-.56,3.29-.56c.89-.15,1.08-.68,1.08-.99,0-.34-.19-.79-1.08-.64l-3.29.56ZM29.14,60.2c0-.33-.19-.84-1.08-.69l-3.36.57v1.76s3.35-.57,3.35-.57c.89-.15,1.08-.79,1.08-1.07Z"/>
    <path class="cls-2" d="M44.63,60.47l-5.44.93-.51,1.66-4.96.84,4.85-13.88,6.75-1.15,4.8,12.24-4.98.85-.51-1.48ZM43.51,57.2l-1.17-3.41-.83.14-1.19,3.81,3.18-.54Z"/>
    <path class="cls-2" d="M49.44,56l4.79-.82c-.02,1.5.84,1.52,1.49,1.41.38-.07,1.48-.3,1.48-2.27l.02-7.48,4.82-.82-.02,7.23c-.01,4.79-2.4,6.67-6.43,7.36-3.61.61-6.25-.1-6.16-4.61Z"/>
    <path class="cls-2" d="M62.84,52.41c.01-4.21,2.99-7.47,7.65-8.27,4.68-.8,7.65,1.45,7.63,5.66-.01,4.21-2.99,7.47-7.67,8.27-4.66.79-7.63-1.45-7.62-5.67ZM73.34,50.63c0-1.9-1.31-2.68-2.86-2.42-1.53.26-2.87,1.5-2.87,3.4s1.33,2.68,2.86,2.42c1.54-.26,2.87-1.5,2.87-3.4Z"/>
  </g>
</svg>