<?xml version="1.0" encoding="utf-8"?>
<!-- Generator: Adobe Illustrator 28.1.0, SVG Export Plug-In . SVG Version: 6.00 Build 0)  -->
<svg version="1.1" id="Capa_1" xmlns="http://www.w3.org/2000/svg" xmlns:xlink="http://www.w3.org/1999/xlink" x="0px" y="0px"
	 viewBox="0 0 90 30" style="enable-background:new 0 0 90 30;" xml:space="preserve">
<style type="text/css">
	.st0{fill:#FFFFFF;}
	.st1{fill:#122D80;}
</style>
<g>
	<g>
		<g id="XMLID_129_">
			<g id="XMLID_133_">
				<path class="st0" d="M88.1,23.3c0.9-0.7,1.1-2,0.6-3c-0.8-1.5-1.7-3.6-3.4-6.4c-0.7-1.2-3.1-3.7-3.1-3.7l-0.6-0.8
					C81,8.8,80,8.6,79.3,9.1c-0.8,0.6-1,1.7-0.3,2.5l-1-1.1c-0.6-0.7-1.5-0.9-2.3-0.4c-0.8,0.6-1,1.7-0.3,2.5l-0.8-0.9
					c-0.6-0.7-1.5-0.9-2.3-0.4c-0.8,0.6-1,1.7-0.3,2.5l-3.7-4.4c-0.6-0.7-1.7-0.9-2.5-0.4c-0.9,0.6-1.1,1.9-0.4,2.7l8.7,10.3
					c0,0-0.1,0-0.1,0c-2.1-0.8-3.2-1.3-3.2-1.3L70,20.2c-0.8-0.3-1.3-0.3-1.9,0.1c-0.4,0.3-0.6,0.7-0.6,1.2
					c-0.1,0.9,0.4,1.2,0.8,1.5l0.1,0.1c0,0,3.3,1.6,7.3,3.1c1.7,0.7,2.9,1.3,3.8,1.9c0.9,0.6,2.1,0.5,2.9-0.2L88.1,23.3z"/>
				<path class="st1" d="M80.9,29.4c-0.6,0-1.2-0.2-1.8-0.5c-1.1-0.7-2.3-1.3-3.7-1.8c-4-1.5-7.4-3.2-7.4-3.2c0,0-0.1,0-0.1-0.1
					l-0.1-0.1c0,0,0,0,0,0c-0.4-0.3-1.2-0.9-1.1-2.2c0-0.8,0.4-1.4,1-1.8c1-0.7,1.8-0.6,2.7-0.2l0.8,0.3c0,0,0,0,0.1,0
					c0,0,0,0,0.1,0l-6.4-7.7c-0.5-0.6-0.7-1.3-0.6-2.1c0.1-0.7,0.5-1.4,1.1-1.9c0.6-0.4,1.2-0.5,1.9-0.4c0.7,0.1,1.3,0.5,1.7,1
					l2.2,2.6c0.2-0.3,0.4-0.6,0.7-0.8c0.5-0.4,1.2-0.5,1.8-0.4c0.3,0,0.5,0.1,0.7,0.2c0.2-0.4,0.5-0.7,0.8-1C75.8,9,76.4,8.9,77.1,9
					C77.4,9,77.7,9.2,78,9.3c0.2-0.4,0.5-0.7,0.8-0.9C79.4,8.1,80,7.9,80.6,8c0.6,0.1,1.2,0.4,1.6,0.9l0.6,0.7
					c0.2,0.2,2.4,2.6,3.2,3.8c1.4,2.3,2.3,4.1,3,5.5c0.2,0.3,0.3,0.7,0.5,1c0.3,0.7,0.4,1.4,0.3,2.1c-0.2,0.7-0.5,1.4-1.1,1.8
					L83,28.6C82.4,29.2,81.6,29.4,80.9,29.4z M68.8,22.4c0.4,0.2,3.6,1.7,7.2,3.1c1.5,0.6,2.8,1.2,4,2c0.6,0.4,1.4,0.3,1.9-0.1
					l5.6-4.7c0,0,0,0,0,0c0.6-0.5,0.7-1.3,0.4-1.9c-0.2-0.3-0.3-0.6-0.5-1c-0.7-1.4-1.5-3.2-2.9-5.3c-0.6-0.9-2.3-2.9-3-3.5
					c0,0,0,0,0,0L80.9,10c-0.3-0.4-0.8-0.4-1.1-0.2c-0.2,0.1-0.3,0.3-0.4,0.6c0,0.2,0,0.5,0.2,0.6l0,0c0.3,0.4,0.3,0.9-0.1,1.2
					c-0.4,0.3-0.9,0.3-1.2-0.1l-1-1.1c-0.3-0.4-0.8-0.4-1.1-0.2c-0.2,0.1-0.3,0.3-0.4,0.6c0,0.2,0,0.5,0.2,0.6
					c0.3,0.4,0.3,0.9-0.1,1.2c-0.4,0.3-0.9,0.3-1.2-0.1L74,12.1c-0.3-0.4-0.8-0.4-1.1-0.2c-0.2,0.1-0.3,0.3-0.4,0.6
					c0,0.2,0,0.5,0.2,0.6c0.3,0.4,0.3,0.9-0.1,1.2c-0.4,0.3-0.9,0.3-1.2-0.1v0c0,0,0,0,0,0l-3.7-4.4c-0.4-0.4-1-0.5-1.4-0.2
					c-0.2,0.2-0.4,0.4-0.4,0.7c0,0.3,0,0.6,0.2,0.8l8.7,10.3c0.2,0.3,0.3,0.7,0.1,1c-0.2,0.3-0.6,0.4-1,0.3l0,0c0,0-0.1,0-0.2-0.1
					c-1.9-0.7-3-1.3-3.2-1.4L69.7,21c0,0,0,0,0,0c-0.6-0.3-0.8-0.2-1.1,0c-0.2,0.1-0.3,0.3-0.3,0.6C68.3,22,68.4,22.1,68.8,22.4
					L68.8,22.4z"/>
			</g>
			<g id="XMLID_132_">
				<line class="st0" x1="75.4" y1="12.5" x2="77.5" y2="15"/>
				<path class="st1" d="M77.5,15.9c-0.2,0-0.5-0.1-0.6-0.3l-2.1-2.5c-0.3-0.4-0.3-0.9,0.1-1.2c0.4-0.3,0.9-0.3,1.2,0.1l2.1,2.5
					c0.3,0.4,0.3,0.9-0.1,1.2C77.9,15.8,77.7,15.9,77.5,15.9z"/>
			</g>
			<g id="XMLID_131_">
				<line class="st0" x1="72" y1="13.7" x2="75" y2="17.2"/>
				<path class="st1" d="M75,18c-0.2,0-0.5-0.1-0.6-0.3l-2.9-3.5c-0.3-0.4-0.3-0.9,0.1-1.2c0.4-0.3,0.9-0.3,1.2,0.1l2.9,3.5
					c0.3,0.4,0.3,0.9-0.1,1.2C75.4,18,75.2,18,75,18z"/>
			</g>
			<g id="XMLID_130_">
				<line class="st0" x1="79" y1="11.6" x2="80.1" y2="12.9"/>
				<path class="st1" d="M80.1,13.7c-0.2,0-0.5-0.1-0.6-0.3l-1.1-1.3c-0.3-0.4-0.3-0.9,0.1-1.2c0.4-0.3,0.9-0.3,1.2,0.1l1.1,1.3
					c0.3,0.4,0.3,0.9-0.1,1.2C80.5,13.7,80.3,13.7,80.1,13.7z"/>
			</g>
		</g>
		<g>
			<g>
				<g>
					<path class="st1" d="M60.1,18.2c-0.2,0-0.5-0.1-0.6-0.3c-0.3-0.4-0.3-0.9,0.1-1.2l2.6-2.2c0.4-0.3,0.9-0.3,1.2,0.1
						c0.3,0.4,0.3,0.9-0.1,1.2L60.6,18C60.5,18.1,60.3,18.2,60.1,18.2z"/>
				</g>
				<g>
					<path class="st1" d="M72.2,8c-0.2,0-0.5-0.1-0.6-0.3c-0.3-0.4-0.3-0.9,0.1-1.2l2.6-2.2c0.4-0.3,0.9-0.3,1.2,0.1
						c0.3,0.4,0.3,0.9-0.1,1.2l-2.6,2.2C72.6,8,72.4,8,72.2,8z"/>
				</g>
			</g>
			<g>
				<g>
					<path class="st1" d="M68,5.8C68,5.8,67.9,5.8,68,5.8c-0.5,0-0.9-0.5-0.8-0.9l0.3-3.4c0-0.5,0.4-0.8,0.9-0.8
						c0.5,0,0.8,0.4,0.8,0.9l-0.3,3.4C68.8,5.5,68.4,5.8,68,5.8z"/>
				</g>
			</g>
			<g>
				<g>
					<path class="st1" d="M63.4,7.3c-0.2,0-0.5-0.1-0.6-0.3l-2.2-2.6c-0.3-0.4-0.3-0.9,0.1-1.2c0.4-0.3,0.9-0.3,1.2,0.1l2.2,2.6
						c0.3,0.4,0.3,0.9-0.1,1.2C63.8,7.2,63.6,7.3,63.4,7.3z"/>
				</g>
			</g>
			<g>
				<g>
					<path class="st1" d="M61.2,11.5C61.2,11.5,61.2,11.5,61.2,11.5l-3.4-0.3c-0.5,0-0.8-0.4-0.8-0.9c0-0.5,0.4-0.8,0.9-0.8l3.4,0.3
						c0.5,0,0.8,0.4,0.8,0.9C62,11.2,61.7,11.5,61.2,11.5z"/>
				</g>
			</g>
		</g>
	</g>
	<g>
		<path class="st1" d="M4.8,11.7v1.5h-3v1.2h2.6v1.4H1.8v1.3h3v1.5H0.2v-6.9H4.8z"/>
		<path class="st1" d="M7.9,15l-2.3-3.3h2l1.4,2.2l1.4-2.2h2L9.8,15l2.5,3.6h-2l-1.6-2.3l-1.5,2.3h-2L7.9,15z"/>
		<path class="st1" d="M12.1,15c0-2,1.3-3.6,3.5-3.6c1.7,0,3,1.2,3.1,2.6H17c-0.1-0.7-0.8-1-1.4-1c-1.3,0-1.7,1-1.7,2.1
			c0,1.1,0.5,2.1,1.7,2.1c0.7,0,1.2-0.4,1.4-1h1.7c-0.2,1.6-1.5,2.6-3.1,2.6C13.2,18.8,12.1,16.9,12.1,15z"/>
		<path class="st1" d="M21.3,11.7v5.4h2.6v1.5h-4.2v-6.9H21.3z"/>
		<path class="st1" d="M30.7,15.7c0,1.8-1.1,3.1-3.2,3.1c-2.1,0-3.2-1.2-3.2-3.1v-4h1.7v4c0,1.1,0.7,1.6,1.5,1.6
			c0.8,0,1.5-0.4,1.5-1.6v-4h1.7V15.7z"/>
		<path class="st1" d="M31.4,16.2h1.6c0,0.8,0.5,1.1,1.2,1.1c0.7,0,1-0.3,1-0.7c0-0.6-0.8-0.7-1.6-0.9c-1.3-0.3-2.1-1-2.1-2.1
			c0-1.4,1.3-2.1,2.6-2.1c2,0,2.9,1.3,2.8,2.5h-1.6c0-0.6-0.5-1.1-1.2-1.1c-0.7,0-1,0.3-1,0.7c0,0.7,0.9,0.7,1.6,0.9
			c0.9,0.2,2.1,0.7,2.1,2.1c0,1.3-1,2.1-2.6,2.1C32.1,18.7,31.3,17.4,31.4,16.2z"/>
		<path class="st1" d="M37.9,11.7h1.7v6.9h-1.7V11.7z"/>
		<path class="st1" d="M40.2,11.7H42l1.6,5.5l1.6-5.5h1.8l-2.3,6.9h-2.3L40.2,11.7z"/>
		<path class="st1" d="M54.5,15.1c0,2-1.4,3.6-3.6,3.6c-2.3,0-3.7-1.7-3.7-3.6s1.4-3.7,3.7-3.7C53.1,11.4,54.5,13.2,54.5,15.1z
			 M49,15.2c0,0.9,0.6,2,1.9,2c1.3,0,1.9-1.1,1.9-2c0-0.9-0.5-2.2-1.9-2.2C49.5,13,49,14.3,49,15.2z"/>
	</g>
	<g>
		<path class="st1" d="M0.2,25.2c0-3,2-4.8,5.3-4.8c3.2,0,5.2,1.9,5.2,4.8c0,2.9-2,4.8-5.2,4.8C2.2,30,0.2,28.1,0.2,25.2z M7.2,25.2
			c0-1.2-0.8-1.8-1.7-1.8c-0.9,0-1.7,0.6-1.7,1.8c0,1.2,0.8,1.8,1.7,1.8C6.4,26.9,7.2,26.4,7.2,25.2z"/>
		<path class="st1" d="M11.2,20.6h4.1l2.2,4.1h0.3v-4.1h3.5v9.1h-4L15,25.6h-0.3v4.1h-3.5V20.6z"/>
		<path class="st1" d="M22.2,20.6h3.6v6.1h4.6v3h-8.1V20.6z"/>
		<path class="st1" d="M30.7,20.6h3.6v9.1h-3.6V20.6z"/>
		<path class="st1" d="M35.1,20.6h4.1l2.2,4.1h0.3v-4.1h3.5v9.1h-4l-2.3-4.1h-0.3v4.1h-3.5V20.6z"/>
		<path class="st1" d="M46,20.6h8.5v2.8h-5V24h4.8v2.2h-4.8v0.6h5v2.8H46V20.6z"/>
	</g>
	<g>
		<path class="st1" d="M0.2,0.3h5.4c2.5,0,4.1,1.1,4.1,3.7s-1.6,3.7-4,3.7H3.7v1.7H0.2V0.3z M5.3,4.7c0.5,0,0.8-0.3,0.8-0.8
			c0-0.5-0.3-0.7-0.8-0.7H3.7v1.5H5.3z"/>
		<path class="st1" d="M16.6,9.3l-1.1-2.1h-1.8v2.1h-3.5v-9h5.5c2.6,0,4.1,1,4.1,3.6c0,1.2-0.5,2-1.2,2.5l1.5,2.9H16.6z M13.7,4.6
			h1.7c0.5,0,0.8-0.3,0.8-0.7c0-0.4-0.2-0.7-0.8-0.7h-1.7V4.6z"/>
		<path class="st1" d="M20.6,0.3h8.5v2.8h-5v0.6h4.8v2.2h-4.8v0.6h5v2.8h-8.5V0.3z"/>
		<path class="st1" d="M29.5,4.8c0-2.9,2-4.8,5.2-4.8c2.4,0,4.8,1,5,4.3h-3.4C36.1,3.5,35.5,3,34.6,3C33.7,3,33,3.7,33,4.8
			s0.7,1.8,1.6,1.8c0.9,0,1.5-0.4,1.6-1.3h3.4c-0.2,3.3-2.6,4.4-5,4.4C31.5,9.6,29.5,7.7,29.5,4.8z"/>
		<path class="st1" d="M40.1,0.3h3.5v9h-3.5V0.3z"/>
		<path class="st1" d="M44.1,4.8c0-2.9,2-4.8,5.2-4.8c3.2,0,5.2,1.9,5.2,4.8c0,2.9-2,4.8-5.2,4.8C46.1,9.6,44.1,7.7,44.1,4.8z
			 M51,4.8C51,3.6,50.2,3,49.3,3c-0.9,0-1.7,0.6-1.7,1.8c0,1.2,0.8,1.8,1.7,1.8C50.2,6.6,51,6,51,4.8z"/>
	</g>
</g>
</svg>
