<?xml version="1.0" encoding="utf-8"?>
<!-- Generator: Adobe Illustrator 16.0.3, SVG Export Plug-In . SVG Version: 6.00 Build 0)  -->
<!DOCTYPE svg PUBLIC "-//W3C//DTD SVG 1.1//EN" "http://www.w3.org/Graphics/SVG/1.1/DTD/svg11.dtd">
<svg version="1.1" id="Capa_1" xmlns="http://www.w3.org/2000/svg" xmlns:xlink="http://www.w3.org/1999/xlink" x="0px" y="0px"
	 width="52px" height="41.375px" viewBox="0 0 52 41.375" enable-background="new 0 0 52 41.375" xml:space="preserve">
<path fill="#F2F2F2" d="M13.559,13.123h-2.583v5.986h1.44v-1.944h1.152c1.251,0,2.062-0.883,2.062-2.089
	C15.629,14.014,14.81,13.123,13.559,13.123z M13.406,14.428c0.549,0,0.748,0.36,0.756,0.702c-0.009,0.342-0.144,0.765-0.756,0.765
	h-0.99v-1.467H13.406z M16.384,19.109h1.432v-2.133h0.477c0.549,0,1.431,0.135,1.413,2.133h1.458
	c0.018-1.404-0.414-2.376-1.296-2.692c0.72-0.171,1.152-0.738,1.152-1.494c0-1.117-0.711-1.801-2.16-1.801h-2.476V19.109z
	 M17.816,15.751v-1.351h1.026c0.567,0,0.72,0.351,0.72,0.648c0,0.27-0.072,0.703-0.738,0.703H17.816z M26.135,19.109h1.458
	l-1.927-5.986h-2.116l-1.954,5.986h1.458l0.342-1.089h2.403L26.135,19.109z M23.776,16.805l0.837-2.701l0.819,2.701H23.776z
	 M30.821,19.289c1.351,0,2.493-0.846,2.682-2.242h-1.485c-0.143,0.567-0.585,0.9-1.206,0.9c-1.07,0-1.494-0.891-1.494-1.836
	c0-0.918,0.406-1.836,1.504-1.828c0.486,0,1.054,0.261,1.179,0.891h1.503c-0.063-1.215-1.197-2.224-2.673-2.224
	c-1.909,0-3.043,1.396-3.043,3.115C27.787,17.705,28.696,19.289,30.821,19.289z M35.728,19.109h1.431v-4.672h1.737v-1.306h-4.897
	v1.306h1.729V19.109z M39.541,19.109h1.431v-5.986h-1.431V19.109z M14.136,22.125h-2.583v5.987h1.44v-1.945h1.152
	c1.251,0,2.062-0.881,2.062-2.087C16.207,23.017,15.387,22.125,14.136,22.125z M13.983,23.43c0.549,0,0.747,0.36,0.756,0.703
	c-0.009,0.342-0.144,0.766-0.756,0.766h-0.99V23.43H13.983z M20.459,28.111h1.458l-1.926-5.987h-2.116l-1.953,5.987h1.458
	l0.342-1.09h2.404L20.459,28.111z M18.101,25.807l0.837-2.701l0.819,2.701H18.101z M24.938,24.809v1.088h1.719
	c-0.09,0.568-0.594,1.135-1.35,1.135c-1.288,0-1.692-1.008-1.692-1.9c0-0.881,0.522-1.854,1.584-1.854
	c0.604,0.009,1.162,0.378,1.296,0.891h1.494c-0.08-1.142-1.179-2.215-2.745-2.215c-1.9,0-3.133,1.424-3.133,3.143
	c0,1.766,1.107,3.195,3.025,3.195c0.936,0,1.783-0.441,2.152-1.305l0.161,1.125h0.595v-3.303H24.938z M32.017,21.935
	c-1.963,0-3.169,1.513-3.169,3.215c0,1.701,1.188,3.15,3.169,3.15c1.909,0,3.159-1.449,3.159-3.15
	C35.176,23.448,33.97,21.935,32.017,21.935z M32.017,23.294c1.214,0,1.621,1.098,1.621,1.883c0,0.799-0.46,1.764-1.621,1.764
	c-1.116,0-1.639-0.965-1.639-1.764C30.378,24.393,30.791,23.294,32.017,23.294z M38.296,28.229c1.396,0,2.287-0.773,2.287-1.863
	c0-1.234-1.053-1.611-1.864-1.811c-0.585-0.143-1.377-0.215-1.368-0.792c0-0.297,0.261-0.576,0.883-0.576
	c0.612,0,1.053,0.414,1.018,0.956h1.386c0.071-1.082-0.729-2.171-2.439-2.171c-1.162,0-2.296,0.639-2.296,1.864
	c0,0.954,0.64,1.502,1.791,1.792c0.675,0.162,1.396,0.197,1.396,0.756c0,0.35-0.242,0.639-0.837,0.639
	c-0.585,0-1.07-0.279-1.053-0.936h-1.422C35.677,27.094,36.396,28.229,38.296,28.229z"/>
<path fill="#F2CD00" d="M27.789,35.434l-4.72-2.91l-0.602-0.375l-4.118-2.535v2.744l-1.002-0.018
	c-0.632,0.014-1.264-0.018-1.888-0.09l-1.876-0.191c-0.61-0.094-1.213-0.211-1.806-0.35l-0.908-0.184
	c-0.295-0.082-0.568-0.184-0.852-0.273c-0.589-0.168-1.161-0.367-1.711-0.592c-2.307-0.939-4.261-2.254-5.698-3.832
	c-1.56-1.68-1.624-3.559-2.136-5.531c-0.257,2.105-0.919,4.224,0,6.236c0.963,2.146,2.628,4.102,4.861,5.713
	c0.57,0.418,1.181,0.809,1.829,1.166c0.307,0.182,0.625,0.381,0.956,0.557l1.04,0.465c0.71,0.301,1.404,0.658,2.136,0.906
	l2.267,0.717c0.748,0.244,1.526,0.441,2.325,0.59l2.372,0.498c0.035,0.01,0.059,0.01,0.095,0.018v3.094L27.789,35.434z"/>
<path fill="#F2CD00" d="M24.154,5.821l4.72,2.911l0.602,0.374l4.119,2.537V8.898l1.001,0.017c0.632-0.012,1.265,0.018,1.889,0.091
	l1.876,0.191c0.61,0.093,1.213,0.209,1.805,0.349l0.909,0.183c0.295,0.083,0.567,0.183,0.853,0.274
	c0.589,0.168,1.16,0.365,1.711,0.59c2.307,0.94,4.262,2.254,5.698,3.833c1.56,1.678,1.623,3.559,2.136,5.53
	c0.257-2.105,0.918-4.225,0-6.237c-0.964-2.145-2.629-4.101-4.861-5.713c-0.57-0.417-1.182-0.807-1.83-1.164
	c-0.307-0.183-0.625-0.383-0.955-0.557l-1.04-0.466c-0.71-0.299-1.403-0.657-2.136-0.906L38.383,4.2
	c-0.748-0.246-1.526-0.443-2.325-0.59L33.687,3.11c-0.035-0.008-0.059-0.008-0.095-0.017V0L24.154,5.821z"/>
</svg>
