<?xml version="1.0" encoding="utf-8"?>
<!-- Generator: Adobe Illustrator 24.1.1, SVG Export Plug-In . SVG Version: 6.00 Build 0)  -->
<svg version="1.1" id="Capa_1" xmlns="http://www.w3.org/2000/svg" xmlns:xlink="http://www.w3.org/1999/xlink" x="0px" y="0px"
	 viewBox="0 0 52 41.4" style="enable-background:new 0 0 52 41.4;" xml:space="preserve">
<style type="text/css">
	.st0{fill:#050505;}
	.st1{fill:#F2CD00;}
</style>
<path class="st0" d="M13.6,13.1H11v6h1.4v-1.9h1.2c1.3,0,2.1-0.9,2.1-2.1C15.6,14,14.8,13.1,13.6,13.1z M13.4,14.4
	c0.5,0,0.7,0.4,0.8,0.7c0,0.3-0.1,0.8-0.8,0.8h-1v-1.5H13.4z M16.4,19.1h1.4V17h0.5c0.5,0,1.4,0.1,1.4,2.1h1.5
	c0-1.4-0.4-2.4-1.3-2.7c0.7-0.2,1.2-0.7,1.2-1.5c0-1.1-0.7-1.8-2.2-1.8h-2.5V19.1z M17.8,15.8v-1.4h1c0.6,0,0.7,0.4,0.7,0.6
	c0,0.3-0.1,0.7-0.7,0.7H17.8z M26.1,19.1h1.5l-1.9-6h-2.1l-2,6h1.5l0.3-1.1h2.4L26.1,19.1z M23.8,16.8l0.8-2.7l0.8,2.7H23.8z
	 M30.8,19.3c1.4,0,2.5-0.8,2.7-2.2H32c-0.1,0.6-0.6,0.9-1.2,0.9c-1.1,0-1.5-0.9-1.5-1.8c0-0.9,0.4-1.8,1.5-1.8
	c0.5,0,1.1,0.3,1.2,0.9h1.5c-0.1-1.2-1.2-2.2-2.7-2.2c-1.9,0-3,1.4-3,3.1C27.8,17.7,28.7,19.3,30.8,19.3z M35.7,19.1h1.4v-4.7h1.7
	v-1.3H34v1.3h1.7V19.1z M39.5,19.1H41v-6h-1.4V19.1z M14.1,22.1h-2.6v6H13v-1.9h1.2c1.3,0,2.1-0.9,2.1-2.1
	C16.2,23,15.4,22.1,14.1,22.1z M14,23.4c0.5,0,0.7,0.4,0.8,0.7c0,0.3-0.1,0.8-0.8,0.8h-1v-1.5H14z M20.5,28.1h1.5l-1.9-6h-2.1l-2,6
	h1.5l0.3-1.1h2.4L20.5,28.1z M18.1,25.8l0.8-2.7l0.8,2.7H18.1z M24.9,24.8v1.1h1.7c-0.1,0.6-0.6,1.1-1.4,1.1c-1.3,0-1.7-1-1.7-1.9
	c0-0.9,0.5-1.9,1.6-1.9c0.6,0,1.2,0.4,1.3,0.9H28C27.9,23,26.8,22,25.2,22c-1.9,0-3.1,1.4-3.1,3.1c0,1.8,1.1,3.2,3,3.2
	c0.9,0,1.8-0.4,2.2-1.3l0.2,1.1H28v-3.3H24.9z M32,21.9c-2,0-3.2,1.5-3.2,3.2c0,1.7,1.2,3.1,3.2,3.1c1.9,0,3.2-1.4,3.2-3.1
	C35.2,23.4,34,21.9,32,21.9z M32,23.3c1.2,0,1.6,1.1,1.6,1.9c0,0.8-0.5,1.8-1.6,1.8c-1.1,0-1.6-1-1.6-1.8
	C30.4,24.4,30.8,23.3,32,23.3z M38.3,28.2c1.4,0,2.3-0.8,2.3-1.9c0-1.2-1.1-1.6-1.9-1.8c-0.6-0.1-1.4-0.2-1.4-0.8
	c0-0.3,0.3-0.6,0.9-0.6c0.6,0,1.1,0.4,1,1h1.4c0.1-1.1-0.7-2.2-2.4-2.2c-1.2,0-2.3,0.6-2.3,1.9c0,1,0.6,1.5,1.8,1.8
	c0.7,0.2,1.4,0.2,1.4,0.8c0,0.4-0.2,0.6-0.8,0.6c-0.6,0-1.1-0.3-1.1-0.9h-1.4C35.7,27.1,36.4,28.2,38.3,28.2z"/>
<path class="st1" d="M27.8,35.4l-4.7-2.9l-0.6-0.4l-4.1-2.5v2.7l-1,0c-0.6,0-1.3,0-1.9-0.1l-1.9-0.2c-0.6-0.1-1.2-0.2-1.8-0.4
	l-0.9-0.2c-0.3-0.1-0.6-0.2-0.9-0.3c-0.6-0.2-1.2-0.4-1.7-0.6C6,29.7,4,28.4,2.6,26.8C1,25.1,1,23.3,0.5,21.3
	c-0.3,2.1-0.9,4.2,0,6.2c1,2.1,2.6,4.1,4.9,5.7c0.6,0.4,1.2,0.8,1.8,1.2c0.3,0.2,0.6,0.4,1,0.6l1,0.5c0.7,0.3,1.4,0.7,2.1,0.9
	l2.3,0.7c0.7,0.2,1.5,0.4,2.3,0.6l2.4,0.5c0,0,0.1,0,0.1,0v3.1L27.8,35.4z"/>
<path class="st1" d="M24.2,5.8l4.7,2.9l0.6,0.4l4.1,2.5V8.9l1,0c0.6,0,1.3,0,1.9,0.1l1.9,0.2c0.6,0.1,1.2,0.2,1.8,0.3l0.9,0.2
	c0.3,0.1,0.6,0.2,0.9,0.3c0.6,0.2,1.2,0.4,1.7,0.6c2.3,0.9,4.3,2.3,5.7,3.8c1.6,1.7,1.6,3.6,2.1,5.5c0.3-2.1,0.9-4.2,0-6.2
	c-1-2.1-2.6-4.1-4.9-5.7c-0.6-0.4-1.2-0.8-1.8-1.2c-0.3-0.2-0.6-0.4-1-0.6l-1-0.5c-0.7-0.3-1.4-0.7-2.1-0.9l-2.3-0.7
	c-0.7-0.2-1.5-0.4-2.3-0.6l-2.4-0.5c0,0-0.1,0-0.1,0V0L24.2,5.8z"/>
</svg>
