<?xml version="1.0" encoding="utf-8"?>
<!-- Generator: Adobe Illustrator 26.4.1, SVG Export Plug-In . SVG Version: 6.00 Build 0)  -->
<svg version="1.1" id="Capa_1" xmlns="http://www.w3.org/2000/svg" xmlns:xlink="http://www.w3.org/1999/xlink" x="0px" y="0px"
	 viewBox="0 0 190 40" style="enable-background:new 0 0 190 40;" xml:space="preserve">
<style type="text/css">
	.st0{fill:#EDEDED;}
	.st1{fill:#E9CA4D;}
</style>
<g>
	<g>
		<circle class="st0" cx="20.1" cy="19.8" r="17.6"/>
		<path class="st1" d="M20,0C9,0,0,9,0,20s9,20,20,20s20-9,20-20S31,0,20,0 M31,12.1l-9.5,8.5c-0.8,0.8-2.1,0.8-3,0L9,12.1L31,12.1
			L31,12.1z M8,12.9l7.9,7.1L8,27V12.9z M9,27.8l7.8-7l0.8,0.7c0.7,0.6,1.5,0.9,2.3,0.9c0.8,0,1.7-0.3,2.3-0.9l0.8-0.7l7.8,7H9z
			 M32,27l-7.9-7.1l7.9-7.1V27L32,27z"/>
	</g>
	<g>
		<path d="M50.6,11.3c0-2.3,1.5-4.1,3.8-4.1c1.9,0,3.3,1.3,3.4,2.9h-1.2c-0.1-1-1-1.8-2.2-1.9c-1.9,0-2.6,1.7-2.6,3.1
			c0,1.5,0.8,3.2,2.6,3.2c1.3,0,2.1-0.9,2.2-1.8h1.2c-0.3,1.8-1.7,2.9-3.4,2.9C51.8,15.6,50.6,13.6,50.6,11.3z"/>
		<path d="M58.9,12.5c0-1.7,1.2-3.1,3-3.1c1.8,0,3,1.4,3,3.1c0,1.7-1.2,3.1-3,3.1S58.9,14.2,58.9,12.5z M63.7,12.5
			c0-1.1-0.6-2.1-1.8-2.1c-1.2,0-1.8,1-1.8,2.1c0,1.1,0.6,2.1,1.8,2.1C63.1,14.5,63.7,13.5,63.7,12.5z"/>
		<path d="M69,10.5c-1-0.1-1.7,0.3-1.7,1.5v3.4h-1.1V9.5h1l0,1c0.2-0.8,0.7-1.2,1.8-1.2V10.5z"/>
		<path d="M73,10.5c-1-0.1-1.7,0.3-1.7,1.5v3.4h-1.1V9.5h1l0,1c0.2-0.8,0.7-1.2,1.8-1.2V10.5z"/>
		<path d="M79.2,12.3v0.4h-4.4c0,0.9,0.6,1.9,1.8,1.9c0.7,0,1.3-0.3,1.5-1.1h1.1c-0.2,1.2-1.1,2-2.5,2c-1.9,0-2.9-1.4-2.9-3.1
			c0-1.8,1.1-3.1,2.8-3.1C77.7,9.4,79.2,10.2,79.2,12.3z M74.9,11.9h3.2c0-0.8-0.5-1.6-1.6-1.6C75.5,10.3,74.9,11.1,74.9,11.9z"/>
		<path d="M80.3,12.5c0-1.7,1.2-3.1,3-3.1c1.8,0,3,1.4,3,3.1c0,1.7-1.2,3.1-3,3.1S80.3,14.2,80.3,12.5z M85.1,12.5
			c0-1.1-0.6-2.1-1.8-2.1c-1.2,0-1.8,1-1.8,2.1c0,1.1,0.6,2.1,1.8,2.1C84.4,14.5,85.1,13.5,85.1,12.5z"/>
		<path d="M95,7.4v1h-3.8v2.4h3.5v1h-3.5v2.5h3.8v1h-5v-8H95z"/>
		<path d="M97.6,15.4h-1.1V7.1h1.1V15.4z"/>
		<path d="M104.4,12.3v0.4H100c0,0.9,0.6,1.9,1.8,1.9c0.7,0,1.3-0.3,1.5-1.1h1.1c-0.2,1.2-1.1,2-2.5,2c-1.9,0-2.9-1.4-2.9-3.1
			c0-1.8,1.1-3.1,2.8-3.1C103,9.4,104.4,10.2,104.4,12.3z M100.1,11.9h3.2c0-0.8-0.5-1.6-1.6-1.6C100.7,10.3,100.1,11.1,100.1,11.9z
			"/>
		<path d="M105.5,12.5c0-1.7,1-3.1,2.8-3.1c1.3,0,2.4,0.8,2.5,2.1h-1.1c-0.2-0.8-0.8-1.1-1.4-1.1c-1,0-1.7,0.8-1.7,2.1
			c0,1.3,0.6,2.1,1.7,2.1c0.6,0,1.2-0.3,1.4-1.1h1.1c-0.2,1.3-1.2,2.1-2.5,2.1C106.4,15.5,105.5,14.1,105.5,12.5z"/>
		<path d="M115.1,14.5v0.9c-0.2,0-0.4,0-0.7,0c-1.3,0-2-0.6-2-1.8v-3.2h-0.9V9.8c1.2-0.4,1.2-1.6,1.2-1.7h1c0,0.8-0.2,1.1-0.5,1.4
			h1.7v0.9h-1.5v3.1c0,0.7,0.3,1,1.1,1C114.8,14.5,114.9,14.5,115.1,14.5z"/>
		<path d="M118.9,10.5c-1-0.1-1.7,0.3-1.7,1.5v3.4H116V9.5h1l0,1c0.2-0.8,0.7-1.2,1.8-1.2V10.5z"/>
		<path d="M119.6,12.5c0-1.7,1.2-3.1,3-3.1c1.8,0,3,1.4,3,3.1c0,1.7-1.2,3.1-3,3.1S119.6,14.2,119.6,12.5z M124.4,12.5
			c0-1.1-0.6-2.1-1.8-2.1c-1.2,0-1.8,1-1.8,2.1c0,1.1,0.6,2.1,1.8,2.1C123.7,14.5,124.4,13.5,124.4,12.5z M123.8,6.5l0.5,0.7
			l-2.9,1.6l-0.3-0.4L123.8,6.5z"/>
		<path d="M126.8,9.5h1l0.1,1.1c0.2-0.7,1-1.3,1.8-1.3c1.3,0,2.1,0.8,2.1,2.3v3.7h-1.1v-3.6c0-1-0.6-1.4-1.2-1.4
			c-0.8,0-1.6,0.6-1.6,1.6v3.4h-1.1V9.5z"/>
		<path d="M134.5,8.4h-1.3V7.2h1.3V8.4z M134.4,15.4h-1.1V9.5h1.1V15.4z"/>
		<path d="M135.8,12.5c0-1.7,1-3.1,2.8-3.1c1.3,0,2.4,0.8,2.5,2.1H140c-0.2-0.8-0.8-1.1-1.4-1.1c-1,0-1.7,0.8-1.7,2.1
			c0,1.3,0.6,2.1,1.7,2.1c0.6,0,1.2-0.3,1.4-1.1h1.1c-0.2,1.3-1.2,2.1-2.5,2.1C136.7,15.5,135.8,14.1,135.8,12.5z"/>
		<path d="M142.1,12.5c0-1.7,1.2-3.1,3-3.1c1.8,0,3,1.4,3,3.1c0,1.7-1.2,3.1-3,3.1S142.1,14.2,142.1,12.5z M146.9,12.5
			c0-1.1-0.6-2.1-1.8-2.1c-1.2,0-1.8,1-1.8,2.1c0,1.1,0.6,2.1,1.8,2.1C146.3,14.5,146.9,13.5,146.9,12.5z"/>
		<path d="M149.3,9.8h1.4v1.5h-1.4V9.8z M149.3,13.9h1.4v1.5h-1.4V13.9z"/>
		<path d="M50.5,26.9c0-1.7,1-3.1,2.8-3.1c1.3,0,2.4,0.8,2.5,2.1h-1.1c-0.2-0.8-0.8-1.1-1.4-1.1c-1,0-1.7,0.8-1.7,2.1
			c0,1.3,0.6,2.1,1.7,2.1c0.6,0,1.2-0.3,1.4-1.1h1.1c-0.2,1.3-1.2,2.1-2.5,2.1C51.5,29.9,50.5,28.5,50.5,26.9z"/>
		<path d="M61.9,29.8h-0.9l-0.1-1c-0.3,0.6-0.9,1.1-1.8,1.1c-1.1,0-2-0.7-2-2.2v-3.8h1.1v3.7c0,1,0.6,1.4,1.2,1.4
			c0.7,0,1.5-0.6,1.5-1.6v-3.4h1.1V29.8z"/>
		<path d="M68.7,26.7v0.4h-4.4c0,0.9,0.6,1.9,1.8,1.9c0.7,0,1.3-0.3,1.5-1.1h1.1c-0.2,1.2-1.1,2-2.5,2c-1.9,0-2.9-1.4-2.9-3.1
			c0-1.8,1.1-3.1,2.8-3.1C67.3,23.8,68.7,24.6,68.7,26.7z M64.4,26.3h3.2c0-0.8-0.5-1.6-1.6-1.6C65,24.7,64.4,25.5,64.4,26.3z"/>
		<path d="M70.1,23.9h1l0.1,1.1c0.2-0.7,1-1.3,1.8-1.3c1.3,0,2.1,0.8,2.1,2.3v3.7h-1.1v-3.6c0-1-0.6-1.4-1.2-1.4
			c-0.8,0-1.6,0.6-1.6,1.6v3.4h-1.1V23.9z"/>
		<path d="M79.4,28.9v0.9c-0.2,0-0.4,0-0.7,0c-1.3,0-2-0.6-2-1.8v-3.2h-0.9v-0.6c1.2-0.4,1.2-1.6,1.2-1.7h1c0,0.8-0.2,1.1-0.5,1.4
			h1.7v0.9h-1.5v3.1c0,0.7,0.3,1,1.1,1C79.1,28.9,79.2,28.9,79.4,28.9z"/>
		<path d="M85.4,26.7v0.4h-4.4c0,0.9,0.6,1.9,1.8,1.9c0.7,0,1.3-0.3,1.5-1.1h1.1c-0.2,1.2-1.1,2-2.5,2c-1.9,0-2.9-1.4-2.9-3.1
			c0-1.8,1.1-3.1,2.8-3.1C84,23.8,85.4,24.6,85.4,26.7z M81.1,26.3h3.2c0-0.8-0.5-1.6-1.6-1.6C81.7,24.7,81.2,25.5,81.1,26.3z"/>
		<path d="M86.8,23.9h1l0.1,1.1c0.2-0.7,1-1.3,1.8-1.3c1.3,0,2.1,0.8,2.1,2.3v3.7h-1.1v-3.6c0-1-0.6-1.4-1.2-1.4
			c-0.8,0-1.6,0.6-1.6,1.6v3.4h-1.1V23.9z"/>
		<path d="M93,26.9c0-1.7,1.2-3.1,3-3.1c1.8,0,3,1.4,3,3.1c0,1.7-1.2,3.1-3,3.1S93,28.6,93,26.9z M97.8,26.9c0-1.1-0.6-2.1-1.8-2.1
			c-1.2,0-1.8,1-1.8,2.1c0,1.1,0.6,2.1,1.8,2.1C97.2,28.9,97.8,27.9,97.8,26.9z"/>
		<path d="M100,27.9h1c0,0.6,0.5,1.2,1.4,1.2c0.8,0,1.2-0.4,1.2-0.9c0-0.5-0.5-0.8-1.5-1c-1.1-0.3-1.9-0.7-1.9-1.7
			c0-1.1,0.9-1.8,2.2-1.8c1.5,0,2.3,0.9,2.4,2.1h-1c0-0.8-0.7-1.2-1.3-1.2c-0.6,0-1.2,0.3-1.2,0.8c0,0.6,0.6,0.7,1.2,0.9
			c1.6,0.3,2.2,0.9,2.2,1.9c0,1.1-0.9,1.8-2.2,1.8C100.7,30,99.9,28.9,100,27.9z"/>
		<path d="M105.9,26c0-2.9,2.2-5.2,5.1-5.2c2.8,0,5.1,2,5.1,4.9c0,1.7-0.9,2.7-2.1,2.7c-1.1,0-1.7-0.6-1.8-1.3
			c-0.2,0.6-0.8,1-1.6,1.1c-1.3,0-2.1-1.1-2.1-2.2c0-1.2,0.9-2.2,2.1-2.2c0.6,0,1.3,0.3,1.5,0.9l0.1-0.7h0.9v2.6
			c0,0.7,0.3,1.1,0.9,1.1c0.7,0,1.2-0.6,1.2-1.9c0-2.4-1.9-4.1-4.2-4.1c-2.4,0-4.3,2-4.3,4.4c0,2.4,1.8,4.4,4.3,4.4
			c1.1,0,2.1-0.4,2.8-1l0.5,0.6c-0.9,0.8-2.1,1.2-3.3,1.2C108.2,31.2,105.9,28.9,105.9,26z M112.2,26v-0.3c0-0.7-0.6-1.2-1.2-1.2
			c-0.9,0-1.3,0.8-1.3,1.4c0,0.6,0.3,1.4,1.2,1.4C111.6,27.3,112.2,26.9,112.2,26z"/>
		<path d="M119,22.8h-1.3v-1.3h1.3V22.8z M118.9,29.8h-1.1v-5.9h1.1V29.8z"/>
		<path d="M121.6,24.9c0.2-0.6,0.9-1.1,1.8-1.1c1.9,0,2.7,1.6,2.7,3.1c0,1.5-0.8,3.1-2.7,3.1c-0.8,0-1.6-0.5-1.8-1.2l-0.1,1h-1v-8.3
			h1.1V24.9z M121.6,26.5v0.6c0,1,0.6,1.9,1.7,1.9c1.4,0,1.7-1.2,1.7-2.1s-0.5-2.1-1.7-2.1C122.4,24.8,121.6,25.4,121.6,26.5z"/>
		<path d="M131.6,24.9l0.1-1h1l0,5.4c0,1.9-1,3-2.7,3c-1.8,0-2.8-1.1-2.7-2.4h1c0,1,0.7,1.4,1.7,1.4c1.1,0,1.7-0.7,1.6-2.1v-0.8
			c-0.2,0.6-0.8,1.1-1.7,1.1c-1.9,0-2.7-1.3-2.7-2.9c0-1.4,0.7-3,2.6-3C130.7,23.8,131.5,24.3,131.6,24.9z M128.3,26.8
			c0,0.9,0.5,1.8,1.7,1.8c0.9,0,1.6-0.6,1.6-1.7v-0.4c0-1-0.6-1.8-1.7-1.8C128.6,24.8,128.3,25.9,128.3,26.8z"/>
		<path d="M134.1,28.3h1.4v1.5h-1.4V28.3z"/>
		<path d="M136.6,26.9c0-1.7,1-3.1,2.8-3.1c1.3,0,2.4,0.8,2.5,2.1h-1.1c-0.2-0.8-0.8-1.1-1.4-1.1c-1,0-1.7,0.8-1.7,2.1
			c0,1.3,0.6,2.1,1.7,2.1c0.6,0,1.2-0.3,1.4-1.1h1.1c-0.2,1.3-1.2,2.1-2.5,2.1C137.5,29.9,136.6,28.5,136.6,26.9z"/>
		<path d="M143,26.9c0-1.7,1.2-3.1,3-3.1c1.8,0,3,1.4,3,3.1c0,1.7-1.2,3.1-3,3.1S143,28.6,143,26.9z M147.8,26.9
			c0-1.1-0.6-2.1-1.8-2.1c-1.2,0-1.8,1-1.8,2.1c0,1.1,0.6,2.1,1.8,2.1C147.2,28.9,147.8,27.9,147.8,26.9z"/>
		<path d="M158.4,25.9v3.9h-1.1V26c0-1-0.5-1.3-1.1-1.3c-0.8,0-1.3,0.6-1.3,1.6v3.4h-1.1V26c0-1-0.4-1.3-1-1.3
			c-0.8,0-1.4,0.6-1.4,1.6v3.4h-1.1v-5.9h1l0.1,1c0.3-0.6,0.9-1.1,1.7-1.1c0.8,0,1.4,0.3,1.7,1.1c0.3-0.6,1-1.1,1.7-1.1
			C157.5,23.8,158.4,24.4,158.4,25.9z"/>
		<path d="M159.8,28.3h1.4v1.5h-1.4V28.3z"/>
		<path d="M162.3,26.9c0-1.7,1-3.1,2.8-3.1c1.3,0,2.4,0.8,2.5,2.1h-1.1c-0.2-0.8-0.8-1.1-1.4-1.1c-1,0-1.7,0.8-1.7,2.1
			c0,1.3,0.6,2.1,1.7,2.1c0.6,0,1.2-0.3,1.4-1.1h1.1c-0.2,1.3-1.2,2.1-2.5,2.1C163.3,29.9,162.3,28.5,162.3,26.9z"/>
		<path d="M168.7,26.9c0-1.7,1.2-3.1,3-3.1c1.8,0,3,1.4,3,3.1c0,1.7-1.2,3.1-3,3.1S168.7,28.6,168.7,26.9z M173.5,26.9
			c0-1.1-0.6-2.1-1.8-2.1c-1.2,0-1.8,1-1.8,2.1c0,1.1,0.6,2.1,1.8,2.1C172.9,28.9,173.5,27.9,173.5,26.9z"/>
	</g>
</g>
</svg>
