<?xml version="1.0" encoding="utf-8"?>
<!-- Generator: Adobe Illustrator 26.4.1, SVG Export Plug-In . SVG Version: 6.00 Build 0)  -->
<svg version="1.1" id="Capa_1" xmlns="http://www.w3.org/2000/svg" xmlns:xlink="http://www.w3.org/1999/xlink" x="0px" y="0px"
	 viewBox="0 0 190 40" style="enable-background:new 0 0 190 40;" xml:space="preserve">
<style type="text/css">
	.st0{fill:#EDEDED;}
	.st1{fill:#E9CA4D;}
</style>
<g>
	<g>
		<circle class="st0" cx="20.1" cy="19.8" r="17.6"/>
		<path class="st1" d="M20,0C9,0,0,9,0,20s9,20,20,20s20-9,20-20S31,0,20,0 M30.3,31.3l-1.9,1.2c-0.1,0.1-1.6,1.1-4.2,1.1
			c-2.8,0-6.9-1.2-12-6.2l-0.1-0.1c-9.6-9.7-5.3-15.9-5.1-16.2l1.1-1.9c0,0,0,0,0,0c0.5-0.6,1.2-1,2-1.1c0.8,0,1.5,0.2,2.1,0.8
			l2.3,2.3c0.9,0.9,1.1,2.5,0.3,3.5l-1.5,2.4l0,0c0,0-0.6,1.5,3.5,5.6c4.1,4.1,5.7,3.5,5.7,3.5l2.4-1.5c1-0.8,2.5-0.7,3.5,0.3
			l2.3,2.3c0.5,0.5,0.8,1.3,0.8,2.1S31,30.8,30.3,31.3 M24.9,14.7c-1.2-1.2-3.3-1.2-4.5,0c-0.2,0.2-0.4,0.2-0.6,0
			c-0.2-0.2-0.2-0.5,0-0.6c1.5-1.5,4.2-1.5,5.8,0c1.6,1.6,1.6,4.2,0,5.8C25.5,20,25.4,20,25.3,20s-0.2,0-0.3-0.1
			c-0.2-0.2-0.2-0.5,0-0.6C26.2,18,26.2,16,24.9,14.7 M26.6,20.9c2.1-2.1,2.1-5.6,0-7.8c-1-1-2.4-1.6-3.9-1.6
			c-1.5,0-2.8,0.6-3.9,1.6c-0.2,0.2-0.4,0.2-0.6,0c-0.2-0.2-0.2-0.5,0-0.6c2.5-2.5,6.5-2.5,9,0c2.5,2.5,2.5,6.5,0,9
			c-0.1,0.1-0.2,0.1-0.3,0.1c-0.1,0-0.2,0-0.3-0.1C26.4,21.3,26.4,21.1,26.6,20.9 M28.8,23.2c-0.1,0.1-0.2,0.1-0.3,0.1
			c-0.1,0-0.2,0-0.3-0.1c-0.2-0.2-0.2-0.5,0-0.6c3.1-3.1,3.1-8,0-11.1c-1.5-1.5-3.5-2.3-5.5-2.3s-4.1,0.8-5.5,2.3
			c-0.2,0.2-0.4,0.2-0.6,0c-0.2-0.2-0.2-0.5,0-0.6c1.6-1.6,3.8-2.6,6.2-2.6s4.5,0.9,6.2,2.6C32.3,14.2,32.3,19.8,28.8,23.2"/>
	</g>
	<g>
		<path d="M52,8.9v7h3.3v1h-4.5v-8H52z"/>
		<path d="M58.5,8L59,8.8l-2.9,1.6l-0.3-0.4L58.5,8z M56.7,11h1.1v5.9h-1.1V11z"/>
		<path d="M59.4,11h1l0.1,1.1c0.2-0.7,1-1.3,1.8-1.3c1.3,0,2.1,0.8,2.1,2.3v3.7h-1.1v-3.6c0-1-0.6-1.4-1.2-1.4
			c-0.8,0-1.6,0.6-1.6,1.6v3.4h-1.1V11z"/>
		<path d="M71.1,13.8v0.4h-4.4c0,0.9,0.6,1.9,1.8,1.9c0.7,0,1.3-0.3,1.5-1.1H71c-0.2,1.2-1.1,2-2.5,2c-1.9,0-2.9-1.4-2.9-3.1
			c0-1.8,1.1-3.1,2.8-3.1C69.6,10.9,71.1,11.7,71.1,13.8z M66.8,13.4H70c0-0.8-0.5-1.6-1.6-1.6C67.4,11.8,66.8,12.7,66.8,13.4z"/>
		<path d="M72.2,15.2c0-1.2,1.1-1.8,2.2-1.8c0.5,0,1.1,0.2,1.5,0.5v-0.8c0-0.9-0.4-1.3-1.3-1.3c-0.8,0-1.2,0.6-1.2,1.2h-1
			c0-1,0.6-2.1,2.3-2.1c1.2,0,2.3,0.6,2.3,2.3v2.5c0,0.2,0.1,0.5,0.5,0.4V17l-0.2,0c-0.8,0-1.3-0.4-1.3-1.1c-0.2,0.7-1,1.1-1.7,1.1
			C73.1,17,72.2,16.4,72.2,15.2z M75.9,14.8c-0.3-0.3-0.9-0.5-1.4-0.5c-0.6,0-1.2,0.4-1.2,1c0,0.7,0.6,0.9,1.1,0.9
			C74.9,16.1,75.9,15.8,75.9,14.8z"/>
		<path d="M86.1,8.9v1h-3.8v2.4h3.5v1h-3.5v2.5h3.8v1h-5v-8H86.1z M84.9,6.2L85.4,7l-2.9,1.6l-0.3-0.4L84.9,6.2z"/>
		<path d="M90.6,16v0.9c-0.2,0-0.4,0-0.7,0c-1.3,0-2-0.6-2-1.8V12H87v-0.6c1.2-0.4,1.2-1.6,1.2-1.7h1c0,0.8-0.2,1.1-0.5,1.4h1.7V12
			H89V15c0,0.7,0.3,1,1.1,1C90.3,16,90.4,16,90.6,16z"/>
		<path d="M92.7,10h-1.3V8.7h1.3V10z M92.6,16.9h-1.1V11h1.1V16.9z"/>
		<path d="M94,14c0-1.7,1-3.1,2.8-3.1c1.3,0,2.4,0.8,2.5,2.1h-1.1c-0.2-0.8-0.8-1.1-1.4-1.1c-1,0-1.7,0.8-1.7,2.1
			c0,1.3,0.6,2.1,1.7,2.1c0.6,0,1.2-0.3,1.4-1.1h1.1c-0.2,1.3-1.2,2.1-2.5,2.1C94.9,17,94,15.7,94,14z"/>
		<path d="M100.3,15.2c0-1.2,1.1-1.8,2.2-1.8c0.5,0,1.1,0.2,1.5,0.5v-0.8c0-0.9-0.4-1.3-1.3-1.3c-0.8,0-1.2,0.6-1.2,1.2h-1
			c0-1,0.6-2.1,2.3-2.1c1.2,0,2.3,0.6,2.3,2.3v2.5c0,0.2,0.1,0.5,0.5,0.4V17l-0.2,0c-0.8,0-1.3-0.4-1.3-1.1c-0.2,0.7-1,1.1-1.7,1.1
			C101.2,17,100.3,16.4,100.3,15.2z M104,14.8c-0.3-0.3-0.9-0.5-1.4-0.5c-0.6,0-1.2,0.4-1.2,1c0,0.7,0.6,0.9,1.1,0.9
			C103.1,16.1,104,15.8,104,14.8z"/>
		<path d="M106.6,11.3h1.4v1.5h-1.4V11.3z M106.6,15.5h1.4v1.5h-1.4V15.5z"/>
		<path d="M50.7,27.4c0-2.3,1.1-4.2,3.2-4.2c2.2,0,3.2,1.9,3.2,4.2c0,2.3-1,4.1-3.2,4.1C51.7,31.5,50.7,29.6,50.7,27.4z M55.9,27.4
			c0-1.5-0.5-3.2-2-3.2c-1.6,0-2,1.7-2,3.2c0,1.5,0.5,3,2,3C55.4,30.5,55.9,28.9,55.9,27.4z"/>
		<path d="M59.7,25.3c-0.4,0.5-1.4,0.6-1.7,0.6v-1c1.4,0,1.9-1.1,1.9-1.5h0.9v8h-1.1V25.3z"/>
		<path d="M62.7,29.1c0-0.9,0.7-1.7,1.5-1.9c-0.7-0.3-1.2-0.9-1.2-1.8c0-1.5,1.3-2.2,2.7-2.2c1.4,0,2.7,0.7,2.7,2.2
			c0,0.9-0.6,1.5-1.2,1.8c0.8,0.2,1.5,1,1.5,1.9c0,1.7-1.4,2.4-2.9,2.4C64.2,31.5,62.7,30.8,62.7,29.1z M67.4,29.1
			c0-0.8-0.6-1.5-1.8-1.5c-1.1,0-1.8,0.7-1.8,1.5c0,0.9,0.7,1.4,1.8,1.4C66.7,30.5,67.4,29.9,67.4,29.1z M67.2,25.5
			c0-0.7-0.4-1.3-1.5-1.3c-1.1,0-1.5,0.6-1.5,1.3c0,0.9,0.6,1.4,1.5,1.4C66.6,26.8,67.2,26.3,67.2,25.5z"/>
		<path d="M69.8,27.4c0-2.3,1.1-4.2,3.2-4.2c2.2,0,3.2,1.9,3.2,4.2c0,2.3-1,4.1-3.2,4.1C70.8,31.5,69.8,29.6,69.8,27.4z M75,27.4
			c0-1.5-0.5-3.2-2-3.2c-1.6,0-2,1.7-2,3.2c0,1.5,0.5,3,2,3C74.5,30.5,75,28.9,75,27.4z"/>
		<path d="M77.5,27.4c0-2.3,1.1-4.2,3.2-4.2c2.2,0,3.2,1.9,3.2,4.2c0,2.3-1,4.1-3.2,4.1C78.5,31.5,77.5,29.6,77.5,27.4z M82.8,27.4
			c0-1.5-0.5-3.2-2-3.2c-1.6,0-2,1.7-2,3.2c0,1.5,0.5,3,2,3C82.3,30.5,82.8,28.9,82.8,27.4z"/>
		<path d="M85.3,27.4c0-2.3,1.1-4.2,3.2-4.2c2.2,0,3.2,1.9,3.2,4.2c0,2.3-1,4.1-3.2,4.1C86.3,31.5,85.3,29.6,85.3,27.4z M90.5,27.4
			c0-1.5-0.5-3.2-2-3.2c-1.6,0-2,1.7-2,3.2c0,1.5,0.5,3,2,3C90,30.5,90.5,28.9,90.5,27.4z"/>
		<path d="M98.5,27.1c0,2.7-0.9,4.4-3,4.4c-1.8,0-2.6-1.2-2.6-2.4H94c0,0.9,0.6,1.4,1.5,1.4c1.4,0,2-1.5,2-3.3
			c-0.2,0.8-1.1,1.4-2.1,1.4c-1.8,0-2.5-1.5-2.5-2.7c0-1.3,0.9-2.7,2.7-2.7C97.1,23.2,98.5,24.2,98.5,27.1z M94,25.9
			c0,0.9,0.6,1.8,1.6,1.8c0.9,0,1.7-0.6,1.8-1.8c0-0.9-0.6-1.7-1.7-1.7C94.6,24.2,94,25,94,25.9z"/>
		<path d="M99.8,27.6c0-2.7,0.9-4.4,3-4.4c1.8,0,2.6,1.2,2.6,2.4h-1.1c0-0.9-0.6-1.4-1.5-1.4c-1.4,0-2,1.5-2,3.3
			c0.2-0.8,1.1-1.4,2.1-1.4c1.8,0,2.5,1.5,2.5,2.7c0,1.3-0.9,2.7-2.7,2.7C101.2,31.5,99.8,30.5,99.8,27.6z M104.4,28.7
			c0-0.9-0.6-1.8-1.6-1.8c-0.9,0-1.7,0.6-1.8,1.8c0,0.9,0.6,1.7,1.7,1.7C103.8,30.5,104.4,29.7,104.4,28.7z"/>
		<path d="M106.6,27.4c0-2.3,1.1-4.2,3.2-4.2c2.2,0,3.2,1.9,3.2,4.2c0,2.3-1,4.1-3.2,4.1C107.6,31.5,106.6,29.6,106.6,27.4z
			 M111.9,27.4c0-1.5-0.5-3.2-2-3.2c-1.6,0-2,1.7-2,3.2c0,1.5,0.5,3,2,3C111.4,30.5,111.9,28.9,111.9,27.4z"/>
		<path d="M119.9,27.1c0,2.7-0.9,4.4-3,4.4c-1.8,0-2.6-1.2-2.6-2.4h1.1c0,0.9,0.6,1.4,1.5,1.4c1.4,0,2-1.5,2-3.3
			c-0.2,0.8-1.1,1.4-2.1,1.4c-1.8,0-2.5-1.5-2.5-2.7c0-1.3,0.9-2.7,2.7-2.7C118.5,23.2,119.9,24.2,119.9,27.1z M115.3,25.9
			c0,0.9,0.6,1.8,1.6,1.8c0.9,0,1.7-0.6,1.8-1.8c0-0.9-0.6-1.7-1.7-1.7C116,24.2,115.3,25,115.3,25.9z"/>
		<path d="M121.2,27.6c0-2.7,0.9-4.4,3-4.4c1.8,0,2.6,1.2,2.6,2.4h-1.1c0-0.9-0.6-1.4-1.5-1.4c-1.4,0-2,1.5-2,3.3
			c0.2-0.8,1.1-1.4,2.1-1.4c1.8,0,2.5,1.5,2.5,2.7c0,1.3-0.9,2.7-2.7,2.7C122.6,31.5,121.2,30.5,121.2,27.6z M125.7,28.7
			c0-0.9-0.6-1.8-1.6-1.8c-0.9,0-1.7,0.6-1.8,1.8c0,0.9,0.6,1.7,1.7,1.7C125.1,30.5,125.7,29.7,125.7,28.7z"/>
		<path d="M128,27.4c0-2.3,1.1-4.2,3.2-4.2c2.2,0,3.2,1.9,3.2,4.2c0,2.3-1,4.1-3.2,4.1C129,31.5,128,29.6,128,27.4z M133.2,27.4
			c0-1.5-0.5-3.2-2-3.2c-1.6,0-2,1.7-2,3.2c0,1.5,0.5,3,2,3C132.8,30.5,133.2,28.9,133.2,27.4z"/>
		<path d="M146.2,27.4c0,2.3-1.6,4.1-4,4.1c-2.5,0-4-1.8-4-4.1s1.6-4.2,4-4.2C144.6,23.2,146.2,25.1,146.2,27.4z M139.4,27.4
			c0,1.6,1,3,2.8,3c1.8,0,2.8-1.5,2.8-3c0-1.6-1-3.1-2.8-3.1C140.4,24.2,139.4,25.8,139.4,27.4z"/>
		<path d="M147.6,33.8v-8.3h1l0.1,1c0.2-0.7,1-1.2,1.8-1.2c1.9,0,2.7,1.7,2.7,3.1c0,1.5-0.8,3.1-2.7,3.1c-0.9,0-1.6-0.5-1.8-1.1v3.4
			H147.6z M152.1,28.4c0-0.9-0.3-2.1-1.7-2.1c-1.1,0-1.7,0.8-1.7,1.9v0.6c0,1.1,0.8,1.8,1.7,1.8C151.6,30.5,152.1,29.3,152.1,28.4z"
			/>
		<path d="M154.3,28.4c0-1.7,1-3.1,2.8-3.1c1.3,0,2.4,0.8,2.5,2.1h-1.1c-0.2-0.8-0.8-1.1-1.4-1.1c-1,0-1.7,0.8-1.7,2.1
			c0,1.3,0.6,2.1,1.7,2.1c0.6,0,1.2-0.3,1.4-1.1h1.1c-0.2,1.3-1.2,2.1-2.5,2.1C155.3,31.4,154.3,30.1,154.3,28.4z"/>
		<path d="M162.1,24.4h-1.3v-1.3h1.3V24.4z M162,31.3H161v-5.9h1.1V31.3z"/>
		<path d="M163.4,28.4c0-1.7,1.2-3.1,3-3.1c1.8,0,3,1.4,3,3.1c0,1.7-1.2,3.1-3,3.1S163.4,30.1,163.4,28.4z M168.2,28.4
			c0-1.1-0.6-2.1-1.8-2.1c-1.2,0-1.8,1-1.8,2.1c0,1.1,0.6,2.1,1.8,2.1C167.6,30.5,168.2,29.5,168.2,28.4z M167.6,22.4l0.5,0.7
			l-2.9,1.6l-0.3-0.4L167.6,22.4z"/>
		<path d="M170.7,25.4h1l0.1,1.1c0.2-0.7,1-1.3,1.8-1.3c1.3,0,2.1,0.8,2.1,2.3v3.7h-1.1v-3.6c0-1-0.6-1.4-1.2-1.4
			c-0.8,0-1.6,0.6-1.6,1.6v3.4h-1.1V25.4z"/>
		<path d="M184.8,25.7c0,1.6-1,2.7-4,4.6h3.9v1h-5.3v-1.2c3.4-2.4,4.2-3.2,4.2-4.4c0-0.8-0.6-1.5-1.5-1.5c-1.1,0-1.6,0.8-1.6,1.7
			h-1.1c-0.1-1.2,0.6-2.7,2.7-2.7C183.6,23.3,184.8,24.2,184.8,25.7z"/>
	</g>
</g>
</svg>
