<?xml version="1.0" encoding="utf-8"?>
<!-- Generator: Adobe Illustrator 26.4.1, SVG Export Plug-In . SVG Version: 6.00 Build 0)  -->
<svg version="1.1" id="Capa_1" xmlns="http://www.w3.org/2000/svg" xmlns:xlink="http://www.w3.org/1999/xlink" x="0px" y="0px"
	 viewBox="0 0 411.4 40" style="enable-background:new 0 0 411.4 40;" xml:space="preserve">
<style type="text/css">
	.st0{fill:#E9CA4D;}
	.st1{fill:#122D80;}
	.st2{fill:#E4C93E;}
</style>
<g>
	<g>
		<path class="st0" d="M397,40H210.8c-8,0-14.4-6.4-14.4-14.4V14.4c0-8,6.4-14.4,14.4-14.4H397c7.9,0,14.4,6.4,14.4,14.4v11.2
			C411.4,33.6,405,40,397,40"/>
		<g>
			<path class="st1" d="M229.6,18.3c0,4.1-2.5,6.9-7.8,6.9h-3.9V11.6h3.6C226.5,11.6,229.6,14,229.6,18.3L229.6,18.3z M221.1,14.6
				v7.7h0.8c3.2,0,4.3-1.6,4.3-4s-1.3-3.7-4.3-3.7C221.9,14.6,221.1,14.6,221.1,14.6z"/>
			<path class="st1" d="M241,20v0.6h-6.9c0,1.5,0.8,2.4,2,2.4c0.6,0,1.6-0.2,1.7-1.3h2.9c-0.3,2.4-2.1,3.8-4.6,3.8
				c-3.5,0-5.3-2.4-5.3-5.4s1.9-5.5,5-5.5C238.2,14.7,241,15.9,241,20L241,20z M234.2,18.8h3.6c0-1.1-0.7-1.8-1.7-1.8
				S234.2,17.7,234.2,18.8L234.2,18.8z"/>
			<path class="st1" d="M242.5,15h2.7l0.2,1.7c0.4-1.2,1.8-2,3.1-2c2.5,0,3.7,1.6,3.7,4v6.4H249V19c0-1.1-0.5-1.6-1.4-1.6
				c-0.8,0-1.9,0.5-1.9,2v5.7h-3.2L242.5,15L242.5,15z"/>
			<path class="st1" d="M263.3,25.2h-2.7l-0.2-1.4c-0.6,1.3-2,1.7-2.9,1.7c-2.2,0-3.6-1.6-3.6-4V15h3.2v6.2c0,1.1,0.5,1.6,1.3,1.6
				c0.8,0,1.8-0.5,1.8-2V15h3.2L263.3,25.2L263.3,25.2z"/>
			<path class="st1" d="M265.1,15h2.7l0.2,1.7c0.4-1.2,1.8-2,3.1-2c2.5,0,3.7,1.6,3.7,4v6.4h-3.2V19c0-1.1-0.5-1.6-1.4-1.6
				c-0.8,0-1.9,0.5-1.9,2v5.7h-3.2L265.1,15L265.1,15z"/>
			<path class="st1" d="M276.2,20.1c0-2.9,1.8-5.4,5.1-5.4c2.5,0,4.6,1.5,4.6,4h-3c-0.2-1.2-1.1-1.4-1.6-1.4c-1,0-2,0.7-2,2.7
				c0,2.3,1.3,2.7,2.1,2.7c0.6,0,1.4-0.3,1.6-1.2h3c-0.2,2.5-2.1,3.9-4.6,3.9C278.1,25.4,276.2,22.9,276.2,20.1z"/>
			<path class="st1" d="M290.6,13.8h-3.4v-3h3.4V13.8z M290.5,25.2h-3.2V15h3.2V25.2z"/>
			<path class="st1" d="M302,20v0.6h-6.9c0,1.5,0.8,2.4,2,2.4c0.6,0,1.6-0.2,1.7-1.3h2.9c-0.3,2.4-2.1,3.8-4.6,3.8
				c-3.5,0-5.3-2.4-5.3-5.4s1.9-5.5,5-5.5C299.3,14.7,302,15.9,302,20L302,20z M295.2,18.8h3.6c0-1.1-0.7-1.8-1.7-1.8
				S295.3,17.7,295.2,18.8L295.2,18.8z"/>
			<path class="st1" d="M315.7,22.7h-5.4l-0.8,2.5h-3.3l4.4-13.5h4.8l4.4,13.5h-3.4L315.7,22.7L315.7,22.7z M314.9,20l-1.9-6.1
				l-1.9,6.1H314.9z"/>
			<path class="st1" d="M327.4,23.7c-0.2,0.7-1.3,1.7-2.9,1.7c-2.9,0-4.5-2.6-4.5-5.2c0-3,1.6-5.5,4.5-5.5c1.5,0,2.7,0.9,3,2
				l0.2-1.7h2.8v14.4h-3.1V23.7L327.4,23.7z M327.6,20.4V20c0-1.2-0.7-2.4-2.1-2.4c-1.5,0-2.1,1.2-2.1,2.5c0,1.1,0.5,2.5,2.1,2.5
				C326.5,22.6,327.6,21.8,327.6,20.4L327.6,20.4z"/>
			<path class="st1" d="M341.7,25.2H339l-0.2-1.4c-0.6,1.3-2,1.7-2.9,1.7c-2.2,0-3.6-1.6-3.6-4V15h3.2v6.2c0,1.1,0.5,1.6,1.3,1.6
				c0.8,0,1.8-0.5,1.8-2V15h3.2L341.7,25.2L341.7,25.2z"/>
			<path class="st1" d="M347,9.2l1.4,2l-5.3,2.9l-0.6-0.8L347,9.2z M343.5,15h3.2v10.2h-3.2V15z"/>
		</g>
		<g>
			<path class="st2" d="M383.1,34.8c-1.3,0-2.7-0.4-4.4-1.3c-1.9-1-5.7-2.7-6-2.8l0,0c-0.3-0.1-0.6-0.3-0.8-0.6
				c-0.4-0.7-0.2-1.6,0.5-2l0,0h0.1c0.2-0.1,0.4-0.1,0.7-0.1c0.8,0,2.2,0.2,4.1,0.4l-7.2-12.5c-0.4-0.7-0.2-1.7,0.6-2.1l0.3-0.2
				c0.2-0.1,0.5-0.2,0.8-0.2c0.6,0,1.1,0.3,1.3,0.8l4,6.9c0-0.2,0-0.4,0-0.6c0.1-0.4,0.4-0.7,0.7-0.9l0.3-0.2
				c0.2-0.1,0.5-0.2,0.8-0.2c0.5,0,1,0.2,1.3,0.6c-0.1-0.6,0.2-1.2,0.8-1.5l0.3-0.2c0.2-0.1,0.5-0.2,0.8-0.2c0.4,0,0.9,0.2,1.2,0.5
				c0-0.2,0-0.4,0-0.6c0.1-0.3,0.4-0.6,0.8-0.9c0.3-0.1,0.5-0.2,0.8-0.2c0.6,0,1.1,0.3,1.5,0.9l3.2,5.5v0.1c0,0.1,0.1,0.2,0.1,0.2
				c1,1.8,1.3,3.8,0.8,5.7c-0.5,1.9-1.7,3.5-3.5,4.6C385.5,34.4,384.3,34.8,383.1,34.8"/>
			<path class="st1" d="M371.7,13.7c0.4,0,0.8,0.2,1,0.6l1.5,2.5l3.2,5.5l0.2,0.3c0.1,0.1,0.2,0.2,0.3,0.2s0.1,0,0.2,0l0,0
				c0.2-0.1,0.2-0.3,0.1-0.5L378,22l-0.4-0.7c-0.3-0.6-0.1-1.3,0.4-1.6l0.3-0.2c0.2-0.1,0.4-0.2,0.6-0.2c0.4,0,0.8,0.2,1,0.6
				l0.4,0.7l0.1,0.2c0.1,0.1,0.2,0.2,0.3,0.2s0.1,0,0.2,0l0,0c0.2-0.1,0.2-0.3,0.1-0.5l-0.1-0.3l-0.2-0.3c-0.3-0.6-0.1-1.3,0.4-1.6
				l0.3-0.2c0.2-0.1,0.4-0.2,0.6-0.2c0.4,0,0.8,0.2,1,0.6l0.3,0.6c0.1,0.1,0.2,0.2,0.3,0.2c0.1,0,0.1,0,0.2,0l0,0
				c0.2-0.1,0.2-0.3,0.1-0.5l-0.2-0.4c-0.3-0.6-0.1-1.1,0.5-1.4c0.2-0.1,0.4-0.2,0.6-0.2c0.4,0,0.9,0.3,1.1,0.7l0.3,0.5l2.9,5
				c0,0,0,0,0,0.1l0,0c0,0.1,0.1,0.1,0.1,0.2c2,3.5,1,7.7-2.5,9.7c-1.3,0.7-2.4,1.1-3.6,1.1c-1.3,0-2.6-0.4-4.3-1.3
				c-2-1-6-2.8-6-2.8l0,0c-0.2-0.1-0.4-0.2-0.6-0.5c-0.3-0.5-0.1-1.2,0.4-1.5h0.1c0.1,0,0.3-0.1,0.5-0.1c0.7,0,2.1,0.2,4.1,0.4l0,0
				c0.3,0,0.4-0.3,0.3-0.5l-1.2-1.8l-0.3-0.6l-0.1-0.2l-5.5-9.6c-0.3-0.6-0.1-1.3,0.4-1.6l0.3-0.2C371.3,13.7,371.5,13.7,371.7,13.7
				 M371.7,12.9L371.7,12.9c-0.3,0-0.7,0.1-1,0.3l-0.3,0.2c-0.9,0.5-1.3,1.7-0.7,2.7l5.5,9.6l0.1,0.2l0.3,0.6l0.8,1.4
				c-1.7-0.2-2.7-0.3-3.3-0.3c-0.4,0-0.7,0-0.9,0.2l0,0l0,0h-0.1l0,0l0,0c-0.4,0.3-0.7,0.6-0.9,1.1s-0.1,1,0.2,1.4
				c0.2,0.4,0.6,0.7,1,0.8c0.4,0.2,4.1,1.8,6,2.8c1.8,0.9,3.2,1.4,4.6,1.4c1.3,0,2.6-0.4,4-1.2c1.9-1.1,3.2-2.8,3.7-4.8
				s0.2-4.1-0.9-6c0-0.1-0.1-0.1-0.1-0.2c0,0,0-0.1-0.1-0.1l-2.9-5l-0.3-0.5c-0.4-0.7-1.1-1.1-1.8-1.1c-0.3,0-0.7,0.1-1,0.3
				c-0.6,0.3-0.9,0.8-1,1.1c-0.3-0.1-0.5-0.2-0.8-0.2c-0.3,0-0.7,0.1-1,0.3l-0.3,0.2c-0.4,0.3-0.7,0.6-0.9,1.1
				c-0.3-0.2-0.6-0.3-1-0.3c-0.3,0-0.7,0.1-1,0.3l-0.3,0.2c-0.3,0.2-0.6,0.5-0.7,0.8l-2-3.5l-1.5-2.5
				C373,13.2,372.3,12.9,371.7,12.9"/>
			<path class="st1" d="M362.6,21c-0.1,0-0.3-0.1-0.3-0.2c-0.1-0.2,0-0.4,0.1-0.5l3.2-1.8c0.2-0.1,0.4,0,0.5,0.1
				c0.1,0.2,0,0.4-0.1,0.5l-3.2,1.8C362.7,21,362.6,21,362.6,21"/>
			<path class="st1" d="M377.5,12.3c-0.1,0-0.3-0.1-0.3-0.2c-0.1-0.2,0-0.4,0.1-0.5l3.2-1.8c0.2-0.1,0.4,0,0.5,0.1
				c0.1,0.2,0,0.4-0.1,0.5l-3.2,1.8C377.7,12.3,377.6,12.3,377.5,12.3"/>
			<path class="st1" d="M373.4,9.2h-0.1c-0.2-0.1-0.3-0.3-0.3-0.5l1-3.6c0.1-0.2,0.3-0.3,0.5-0.3c0.2,0.1,0.3,0.3,0.3,0.5l-1,3.6
				C373.7,9,373.6,9.2,373.4,9.2"/>
			<path class="st1" d="M368.2,9.8c-0.1,0-0.3-0.1-0.3-0.2l-1.8-3.2c-0.1-0.2,0-0.4,0.1-0.5c0.2-0.1,0.4,0,0.5,0.1l1.8,3.2
				c0.1,0.2,0,0.4-0.1,0.5C368.4,9.8,368.3,9.8,368.2,9.8"/>
			<path class="st1" d="M365.1,14H365l-3.6-1c-0.2-0.1-0.3-0.3-0.3-0.5c0.1-0.2,0.3-0.3,0.5-0.3l3.6,1c0.2,0.1,0.3,0.3,0.3,0.5
				C365.4,13.8,365.2,14,365.1,14"/>
		</g>
	</g>
</g>
<g>
	<path d="M2.6,24.3L0,16.2h1.1l1.3,4c0.3,1.1,0.6,2.1,0.9,3h0c0.2-0.9,0.6-2,0.9-3l1.4-4h1.1l-2.9,8.1H2.6z"/>
	<path d="M8.5,16.8c0,0.4-0.3,0.6-0.7,0.6c-0.4,0-0.6-0.3-0.6-0.6c0-0.4,0.3-0.7,0.7-0.7C8.3,16.2,8.5,16.5,8.5,16.8z M7.3,24.3
		v-5.8h1.1v5.8H7.3z"/>
	<path d="M10.1,20.3c0-0.7,0-1.3,0-1.8H11l0,1.1h0c0.3-0.8,0.9-1.3,1.6-1.3c0.1,0,0.2,0,0.3,0v1c-0.1,0-0.2,0-0.4,0
		c-0.7,0-1.3,0.6-1.4,1.4c0,0.1,0,0.3,0,0.5v3.1h-1V20.3z"/>
	<path d="M15.6,16.8v1.7h1.5v0.8h-1.5v3.1c0,0.7,0.2,1.1,0.8,1.1c0.3,0,0.5,0,0.6-0.1l0,0.8c-0.2,0.1-0.5,0.1-0.9,0.1
		c-0.5,0-0.9-0.2-1.1-0.4c-0.3-0.3-0.4-0.8-0.4-1.5v-3.2h-0.9v-0.8h0.9v-1.4L15.6,16.8z"/>
	<path d="M23.2,22.7c0,0.6,0,1.1,0,1.6h-0.9l-0.1-0.9h0c-0.3,0.5-0.9,1.1-1.9,1.1c-0.9,0-2-0.5-2-2.5v-3.4h1.1v3.2
		c0,1.1,0.3,1.8,1.3,1.8c0.7,0,1.2-0.5,1.4-1c0.1-0.2,0.1-0.3,0.1-0.5v-3.6h1.1V22.7z"/>
	<path d="M28.1,24.3l-0.1-0.7h0c-0.3,0.5-0.9,0.9-1.8,0.9c-1.2,0-1.8-0.8-1.8-1.7c0-1.4,1.2-2.2,3.5-2.2v-0.1c0-0.5-0.1-1.3-1.3-1.3
		c-0.5,0-1.1,0.2-1.5,0.4l-0.2-0.7c0.5-0.3,1.2-0.5,1.9-0.5c1.8,0,2.2,1.2,2.2,2.4v2.2c0,0.5,0,1,0.1,1.4H28.1z M28,21.3
		c-1.2,0-2.5,0.2-2.5,1.3c0,0.7,0.5,1,1,1c0.8,0,1.2-0.5,1.4-1c0-0.1,0.1-0.2,0.1-0.3V21.3z"/>
	<path d="M30.7,15.7h1.1v8.5h-1.1V15.7z"/>
	<path d="M39.3,24.3l-0.1-0.7h0c-0.3,0.5-0.9,0.9-1.8,0.9c-1.2,0-1.8-0.8-1.8-1.7c0-1.4,1.2-2.2,3.5-2.2v-0.1c0-0.5-0.1-1.3-1.3-1.3
		c-0.5,0-1.1,0.2-1.5,0.4l-0.2-0.7c0.5-0.3,1.2-0.5,1.9-0.5c1.8,0,2.2,1.2,2.2,2.4v2.2c0,0.5,0,1,0.1,1.4H39.3z M39.2,21.3
		c-1.2,0-2.5,0.2-2.5,1.3c0,0.7,0.5,1,1,1c0.8,0,1.2-0.5,1.4-1c0-0.1,0.1-0.2,0.1-0.3V21.3z"/>
	<path d="M45.7,16.8v1.7h1.5v0.8h-1.5v3.1c0,0.7,0.2,1.1,0.8,1.1c0.3,0,0.5,0,0.6-0.1l0,0.8c-0.2,0.1-0.5,0.1-0.9,0.1
		c-0.5,0-0.9-0.2-1.1-0.4c-0.3-0.3-0.4-0.8-0.4-1.5v-3.2h-0.9v-0.8h0.9v-1.4L45.7,16.8z"/>
	<path d="M48.4,20.3c0-0.7,0-1.3,0-1.8h0.9l0,1.1h0c0.3-0.8,0.9-1.3,1.6-1.3c0.1,0,0.2,0,0.3,0v1c-0.1,0-0.2,0-0.4,0
		c-0.7,0-1.3,0.6-1.4,1.4c0,0.1,0,0.3,0,0.5v3.1h-1V20.3z"/>
	<path d="M55.5,24.3l-0.1-0.7h0c-0.3,0.5-0.9,0.9-1.8,0.9c-1.2,0-1.8-0.8-1.8-1.7c0-1.4,1.2-2.2,3.5-2.2v-0.1c0-0.5-0.1-1.3-1.3-1.3
		c-0.5,0-1.1,0.2-1.5,0.4l-0.2-0.7c0.5-0.3,1.2-0.5,1.9-0.5c1.8,0,2.2,1.2,2.2,2.4v2.2c0,0.5,0,1,0.1,1.4H55.5z M55.3,21.3
		c-1.2,0-2.5,0.2-2.5,1.3c0,0.7,0.5,1,1,1c0.8,0,1.2-0.5,1.4-1c0-0.1,0.1-0.2,0.1-0.3V21.3z"/>
	<path d="M58.4,18.5l1.1,3.3c0.2,0.5,0.3,1,0.5,1.5h0c0.1-0.5,0.3-1,0.5-1.5l1.1-3.3h1.1l-2.3,5.8h-1l-2.2-5.8H58.4z"/>
	<path d="M64.2,21.5c0,1.4,0.9,2,2,2c0.8,0,1.2-0.1,1.6-0.3L68,24c-0.4,0.2-1,0.4-1.9,0.4c-1.8,0-2.9-1.2-2.9-2.9
		c0-1.8,1-3.1,2.7-3.1c1.9,0,2.4,1.7,2.4,2.7c0,0.2,0,0.4,0,0.5H64.2z M67.3,20.8c0-0.7-0.3-1.7-1.5-1.7c-1.1,0-1.5,1-1.6,1.7H67.3z
		 M67.5,15.9l-1.5,1.7h-0.8l1.1-1.7H67.5z"/>
	<path d="M69.5,23.2c0.3,0.2,0.9,0.4,1.4,0.4c0.8,0,1.1-0.4,1.1-0.9c0-0.5-0.3-0.8-1.1-1.1c-1-0.4-1.5-0.9-1.5-1.6
		c0-0.9,0.8-1.7,2-1.7c0.6,0,1.1,0.2,1.4,0.4l-0.3,0.8c-0.2-0.1-0.6-0.3-1.2-0.3c-0.6,0-1,0.4-1,0.8c0,0.5,0.3,0.7,1.1,1
		c1,0.4,1.5,0.9,1.5,1.8c0,1-0.8,1.7-2.2,1.7c-0.6,0-1.2-0.2-1.6-0.4L69.5,23.2z"/>
	<path d="M81.9,15.7v7c0,0.5,0,1.1,0,1.5H81l0-1h0c-0.3,0.6-1,1.1-2,1.1c-1.4,0-2.5-1.2-2.5-3c0-1.9,1.2-3.1,2.6-3.1
		c0.9,0,1.5,0.4,1.8,0.9h0v-3.5H81.9z M80.9,20.8c0-0.1,0-0.3,0-0.4c-0.2-0.7-0.7-1.2-1.5-1.2c-1.1,0-1.7,1-1.7,2.2
		c0,1.2,0.6,2.1,1.7,2.1c0.7,0,1.4-0.5,1.5-1.3c0-0.1,0-0.3,0-0.5V20.8z"/>
	<path d="M84.3,21.5c0,1.4,0.9,2,2,2c0.8,0,1.2-0.1,1.6-0.3L88,24c-0.4,0.2-1,0.4-1.9,0.4c-1.8,0-2.9-1.2-2.9-2.9
		c0-1.8,1-3.1,2.7-3.1c1.9,0,2.4,1.7,2.4,2.7c0,0.2,0,0.4,0,0.5H84.3z M87.4,20.8c0-0.7-0.3-1.7-1.5-1.7c-1.1,0-1.5,1-1.6,1.7H87.4z
		"/>
	<path d="M97.1,22.7c0,0.6,0,1.1,0,1.6h-0.9l-0.1-0.9h0c-0.3,0.5-0.9,1.1-1.9,1.1c-0.9,0-2-0.5-2-2.5v-3.4h1.1v3.2
		c0,1.1,0.3,1.8,1.3,1.8c0.7,0,1.2-0.5,1.4-1C96,22.4,96,22.2,96,22v-3.6h1.1V22.7z"/>
	<path d="M98.8,20c0-0.6,0-1.1,0-1.6h0.9l0.1,1h0c0.3-0.6,1-1.1,1.9-1.1c0.8,0,2.1,0.5,2.1,2.5v3.5h-1.1v-3.3c0-0.9-0.3-1.7-1.3-1.7
		c-0.7,0-1.2,0.5-1.4,1.1c0,0.1-0.1,0.3-0.1,0.5v3.5h-1.1V20z"/>
	<path d="M108.2,24.3v-5h-0.8v-0.8h0.8v-0.3c0-0.8,0.2-1.6,0.7-2c0.4-0.4,0.9-0.5,1.4-0.5c0.4,0,0.7,0.1,0.9,0.2l-0.1,0.8
		c-0.2-0.1-0.4-0.1-0.7-0.1c-0.9,0-1.1,0.8-1.1,1.7v0.3h1.4v0.8h-1.4v5H108.2z"/>
	<path d="M116.6,21.3c0,2.1-1.5,3.1-2.9,3.1c-1.6,0-2.8-1.2-2.8-3c0-1.9,1.3-3.1,2.9-3.1C115.5,18.3,116.6,19.5,116.6,21.3z
		 M112,21.4c0,1.3,0.7,2.2,1.8,2.2c1,0,1.8-0.9,1.8-2.3c0-1-0.5-2.2-1.7-2.2C112.6,19.1,112,20.3,112,21.4z"/>
	<path d="M118,20.3c0-0.7,0-1.3,0-1.8h0.9l0,1.1h0c0.3-0.8,0.9-1.3,1.6-1.3c0.1,0,0.2,0,0.3,0v1c-0.1,0-0.2,0-0.4,0
		c-0.7,0-1.3,0.6-1.4,1.4c0,0.1,0,0.3,0,0.5v3.1h-1V20.3z"/>
	<path d="M122,20c0-0.6,0-1.1,0-1.6h0.9l0,0.9h0c0.3-0.6,0.9-1.1,1.8-1.1c0.8,0,1.4,0.5,1.6,1.2h0c0.2-0.3,0.4-0.6,0.6-0.8
		c0.3-0.3,0.7-0.4,1.3-0.4c0.8,0,1.9,0.5,1.9,2.5v3.4h-1V21c0-1.1-0.4-1.8-1.3-1.8c-0.6,0-1.1,0.4-1.2,1c0,0.1-0.1,0.3-0.1,0.5v3.6
		h-1v-3.5c0-0.9-0.4-1.6-1.2-1.6c-0.7,0-1.1,0.5-1.3,1.1c-0.1,0.2-0.1,0.3-0.1,0.5v3.5h-1V20z"/>
	<path d="M136.8,22.7c0,0.6,0,1.1,0,1.6h-0.9l-0.1-0.9h0c-0.3,0.5-0.9,1.1-1.9,1.1c-0.9,0-2-0.5-2-2.5v-3.4h1.1v3.2
		c0,1.1,0.3,1.8,1.3,1.8c0.7,0,1.2-0.5,1.4-1c0.1-0.2,0.1-0.3,0.1-0.5v-3.6h1.1V22.7z"/>
	<path d="M138.6,15.7h1.1v8.5h-1.1V15.7z"/>
	<path d="M144.6,24.3l-0.1-0.7h0c-0.3,0.5-0.9,0.9-1.8,0.9c-1.2,0-1.8-0.8-1.8-1.7c0-1.4,1.2-2.2,3.5-2.2v-0.1
		c0-0.5-0.1-1.3-1.3-1.3c-0.5,0-1.1,0.2-1.5,0.4l-0.2-0.7c0.5-0.3,1.2-0.5,1.9-0.5c1.8,0,2.2,1.2,2.2,2.4v2.2c0,0.5,0,1,0.1,1.4
		H144.6z M144.5,21.3c-1.2,0-2.5,0.2-2.5,1.3c0,0.7,0.5,1,1,1c0.8,0,1.2-0.5,1.4-1c0-0.1,0.1-0.2,0.1-0.3V21.3z"/>
	<path d="M147.2,20.3c0-0.7,0-1.3,0-1.8h0.9l0,1.1h0c0.3-0.8,0.9-1.3,1.6-1.3c0.1,0,0.2,0,0.3,0v1c-0.1,0-0.2,0-0.4,0
		c-0.7,0-1.3,0.6-1.4,1.4c0,0.1,0,0.3,0,0.5v3.1h-1V20.3z"/>
	<path d="M152.3,16.8c0,0.4-0.3,0.6-0.7,0.6c-0.4,0-0.6-0.3-0.6-0.6c0-0.4,0.3-0.7,0.7-0.7C152.1,16.2,152.3,16.5,152.3,16.8z
		 M151.2,24.3v-5.8h1.1v5.8H151.2z"/>
	<path d="M159.2,21.3c0,2.1-1.5,3.1-2.9,3.1c-1.6,0-2.8-1.2-2.8-3c0-1.9,1.3-3.1,2.9-3.1C158.1,18.3,159.2,19.5,159.2,21.3z
		 M154.6,21.4c0,1.3,0.7,2.2,1.8,2.2c1,0,1.8-0.9,1.8-2.3c0-1-0.5-2.2-1.7-2.2C155.2,19.1,154.6,20.3,154.6,21.4z"/>
	<path d="M163.7,21.5c0,1.4,0.9,2,2,2c0.8,0,1.2-0.1,1.6-0.3l0.2,0.8c-0.4,0.2-1,0.4-1.9,0.4c-1.8,0-2.9-1.2-2.9-2.9
		c0-1.8,1-3.1,2.7-3.1c1.9,0,2.4,1.7,2.4,2.7c0,0.2,0,0.4,0,0.5H163.7z M166.8,20.8c0-0.7-0.3-1.7-1.5-1.7c-1.1,0-1.5,1-1.6,1.7
		H166.8z M167,15.9l-1.5,1.7h-0.8l1.1-1.7H167z"/>
	<path d="M170.4,16.8v1.7h1.5v0.8h-1.5v3.1c0,0.7,0.2,1.1,0.8,1.1c0.3,0,0.5,0,0.6-0.1l0,0.8c-0.2,0.1-0.5,0.1-0.9,0.1
		c-0.5,0-0.9-0.2-1.1-0.4c-0.3-0.3-0.4-0.8-0.4-1.5v-3.2h-0.9v-0.8h0.9v-1.4L170.4,16.8z"/>
	<path d="M174.3,16.8c0,0.4-0.3,0.6-0.7,0.6c-0.4,0-0.6-0.3-0.6-0.6c0-0.4,0.3-0.7,0.7-0.7C174,16.2,174.3,16.5,174.3,16.8z
		 M173.1,24.3v-5.8h1.1v5.8H173.1z"/>
	<path d="M180,24c-0.3,0.1-0.9,0.3-1.7,0.3c-1.8,0-2.9-1.2-2.9-3c0-1.8,1.2-3.1,3.1-3.1c0.6,0,1.2,0.2,1.5,0.3l-0.2,0.8
		c-0.3-0.1-0.6-0.3-1.2-0.3c-1.3,0-2.1,1-2.1,2.2c0,1.3,0.9,2.2,2,2.2c0.6,0,1-0.2,1.3-0.3L180,24z"/>
	<path d="M186.5,21.3c0,2.1-1.5,3.1-2.9,3.1c-1.6,0-2.8-1.2-2.8-3c0-1.9,1.3-3.1,2.9-3.1C185.3,18.3,186.5,19.5,186.5,21.3z
		 M181.8,21.4c0,1.3,0.7,2.2,1.8,2.2c1,0,1.8-0.9,1.8-2.3c0-1-0.5-2.2-1.7-2.2C182.4,19.1,181.8,20.3,181.8,21.4z"/>
</g>
</svg>
