<?xml version="1.0" encoding="utf-8"?>
<!-- Generator: Adobe Illustrator 27.0.1, SVG Export Plug-In . SVG Version: 6.00 Build 0)  -->
<svg version="1.1" id="Capa_1" xmlns="http://www.w3.org/2000/svg" xmlns:xlink="http://www.w3.org/1999/xlink" x="0px" y="0px"
	 viewBox="0 0 200 100" style="enable-background:new 0 0 200 100;" xml:space="preserve">
<style type="text/css">
	.st0{fill:#353962;}
	.st1{fill:#C38FD1;}
	.st2{fill:#071A42;}
</style>
<g>
	<g>
		<g>
			<path class="st0" d="M74.5,46.2h-4.7v-8.3h4.7l0.3,1h-3.9v2.5h3.2v1h-3.2v2.7h3.9L74.5,46.2z"/>
			<path class="st0" d="M78.9,42.7c0.8,0.2,1.3,0.4,1.6,0.7c0.3,0.3,0.5,0.7,0.5,1.1c0,0.5-0.2,0.9-0.7,1.3c-0.4,0.3-1,0.5-1.7,0.5
				c-0.4,0-0.8-0.1-1.2-0.2c-0.4-0.1-0.8-0.3-1.1-0.5L76,44.3l0,0c0.4,0.3,0.9,0.6,1.3,0.8c0.5,0.2,0.9,0.3,1.3,0.3
				c0.4,0,0.7-0.1,0.9-0.2c0.2-0.1,0.4-0.3,0.4-0.5c0-0.2-0.1-0.4-0.3-0.6c-0.2-0.1-0.6-0.3-1.3-0.4c-0.8-0.2-1.3-0.4-1.6-0.7
				c-0.3-0.3-0.5-0.6-0.5-1.1c0-0.5,0.2-1,0.6-1.3s1-0.5,1.7-0.5c0.3,0,0.7,0,1,0.1c0.3,0.1,0.7,0.2,1,0.4v1.1h0
				c-0.4-0.2-0.7-0.4-1.1-0.5c-0.3-0.1-0.7-0.2-1-0.2c-0.4,0-0.6,0.1-0.9,0.2c-0.2,0.1-0.3,0.3-0.3,0.5c0,0.2,0.1,0.4,0.3,0.5
				C77.8,42.4,78.2,42.6,78.9,42.7z"/>
			<path class="st0" d="M87.3,44.4l-0.2,1.2c-0.3,0.2-0.7,0.4-1,0.5c-0.3,0.1-0.7,0.2-1.1,0.2c-0.9,0-1.6-0.3-2.2-0.9
				c-0.6-0.6-0.8-1.3-0.8-2.2c0-0.9,0.3-1.6,0.9-2.2c0.6-0.6,1.4-0.9,2.3-0.9c0.4,0,0.8,0.1,1.1,0.2c0.3,0.1,0.6,0.3,0.9,0.5v1.3h0
				c-0.4-0.4-0.7-0.6-1-0.8c-0.3-0.2-0.6-0.2-1-0.2c-0.6,0-1.1,0.2-1.5,0.6s-0.6,0.9-0.6,1.5c0,0.6,0.2,1.1,0.6,1.5
				c0.4,0.4,0.8,0.6,1.4,0.6c0.3,0,0.7-0.1,1.1-0.3C86.6,44.9,87,44.7,87.3,44.4L87.3,44.4z"/>
			<path class="st0" d="M91.6,46.4c-0.9,0-1.7-0.3-2.2-0.9c-0.6-0.6-0.9-1.3-0.9-2.2c0-0.9,0.3-1.6,0.9-2.2c0.6-0.6,1.4-0.9,2.3-0.9
				c0.9,0,1.7,0.3,2.3,0.9c0.6,0.6,0.9,1.3,0.9,2.2c0,0.9-0.3,1.6-0.9,2.2C93.2,46.1,92.5,46.4,91.6,46.4z M93.6,43.2
				c0-0.6-0.2-1.1-0.6-1.5c-0.4-0.4-0.9-0.6-1.5-0.6c-0.6,0-1.1,0.2-1.5,0.6c-0.4,0.4-0.6,0.9-0.6,1.6c0,0.6,0.2,1.1,0.6,1.5
				c0.4,0.4,0.9,0.6,1.4,0.6c0.6,0,1.1-0.2,1.5-0.6S93.6,43.8,93.6,43.2z"/>
			<path class="st0" d="M101.6,40.3v5.4c0,0.9-0.3,1.6-0.8,2.1c-0.6,0.5-1.3,0.8-2.3,0.8c-0.4,0-0.8,0-1.2-0.1
				c-0.4-0.1-0.8-0.2-1.2-0.4L96,46.8l0,0c0.5,0.3,0.9,0.5,1.3,0.6c0.4,0.1,0.8,0.2,1.3,0.2c0.6,0,1.1-0.2,1.4-0.5
				c0.4-0.3,0.5-0.8,0.5-1.4v-0.5c-0.4,0.3-0.7,0.6-1,0.8c-0.3,0.2-0.7,0.2-1.1,0.2c-0.8,0-1.4-0.3-1.9-0.8c-0.5-0.5-0.7-1.2-0.7-2
				c0-0.9,0.3-1.6,0.9-2.2c0.6-0.6,1.4-0.9,2.3-0.9c0.3,0,0.5,0,0.8,0.1c0.3,0.1,0.5,0.1,0.8,0.3l0.8-0.3H101.6z M99.1,41.1
				c-0.6,0-1.1,0.2-1.6,0.6c-0.4,0.4-0.6,0.9-0.6,1.5c0,0.6,0.2,1,0.5,1.4c0.3,0.4,0.8,0.5,1.3,0.5c0.3,0,0.6-0.1,0.9-0.2
				c0.3-0.1,0.6-0.3,0.9-0.6v-3c-0.3-0.1-0.5-0.2-0.8-0.2C99.5,41.1,99.3,41.1,99.1,41.1z"/>
			<path class="st0" d="M108.6,44.6l-0.4,1.2c-0.3,0.2-0.7,0.3-1,0.4c-0.3,0.1-0.6,0.1-1,0.1c-0.9,0-1.7-0.3-2.3-0.8
				c-0.6-0.6-0.8-1.3-0.8-2.3c0-0.9,0.3-1.6,0.8-2.2s1.2-0.9,2.1-0.9s1.5,0.3,2,0.9c0.5,0.6,0.7,1.3,0.7,2.2c0,0.1,0,0.2,0,0.3
				c0,0.1,0,0.2,0,0.2h-4.5c0.1,0.5,0.3,1,0.7,1.3s0.8,0.5,1.4,0.5c0.3,0,0.7-0.1,1.1-0.2C107.8,45,108.2,44.9,108.6,44.6
				L108.6,44.6z M106,41c-0.5,0-0.9,0.2-1.2,0.5c-0.3,0.3-0.5,0.8-0.6,1.3h3.5c0-0.6-0.2-1-0.5-1.3C106.9,41.2,106.5,41,106,41z"/>
			<path class="st0" d="M113.4,46.2h-1.2l3.9-8.4h1.1l3.7,8.4h-1.2l-0.9-2.1h-4.4L113.4,46.2z M116.6,39.1l-1.8,3.9h3.5L116.6,39.1z
				"/>
			<path class="st0" d="M127.6,46.2h-1.1v-0.9c-0.3,0.3-0.7,0.6-1,0.7c-0.3,0.2-0.7,0.2-1.1,0.2c-0.8,0-1.4-0.3-1.9-0.9
				c-0.5-0.6-0.8-1.3-0.8-2.1c0-0.9,0.3-1.7,0.9-2.3c0.6-0.6,1.3-0.9,2.1-0.9c0.3,0,0.6,0,0.9,0.1c0.3,0.1,0.6,0.3,0.9,0.5v-3.2
				l1.1-0.4V46.2z M124.9,41.1c-0.6,0-1.1,0.2-1.5,0.6c-0.4,0.4-0.6,0.9-0.6,1.5c0,0.6,0.2,1.1,0.5,1.5c0.4,0.4,0.8,0.6,1.4,0.6
				c0.3,0,0.6-0.1,0.9-0.2c0.3-0.1,0.6-0.3,0.9-0.6v-3c-0.3-0.2-0.5-0.3-0.8-0.4C125.5,41.2,125.2,41.1,124.9,41.1z"/>
			<path class="st0" d="M135,46.2h-1.1v-0.9c-0.3,0.3-0.7,0.6-1,0.7c-0.3,0.2-0.7,0.2-1.1,0.2c-0.8,0-1.4-0.3-1.9-0.9
				c-0.5-0.6-0.8-1.3-0.8-2.1c0-0.9,0.3-1.7,0.9-2.3c0.6-0.6,1.3-0.9,2.1-0.9c0.3,0,0.6,0,0.9,0.1c0.3,0.1,0.6,0.3,0.9,0.5v-3.2
				l1.1-0.4V46.2z M132.3,41.1c-0.6,0-1.1,0.2-1.5,0.6c-0.4,0.4-0.6,0.9-0.6,1.5c0,0.6,0.2,1.1,0.5,1.5c0.4,0.4,0.8,0.6,1.4,0.6
				c0.3,0,0.6-0.1,0.9-0.2c0.3-0.1,0.6-0.3,0.9-0.6v-3c-0.3-0.2-0.5-0.3-0.8-0.4C132.9,41.2,132.6,41.1,132.3,41.1z"/>
			<path class="st0" d="M137.6,37.4c0.2,0,0.4,0.1,0.5,0.2c0.1,0.1,0.2,0.3,0.2,0.5s-0.1,0.4-0.2,0.5c-0.1,0.1-0.3,0.2-0.5,0.2
				c-0.2,0-0.4-0.1-0.5-0.2c-0.1-0.1-0.2-0.3-0.2-0.5s0.1-0.4,0.2-0.5C137.2,37.5,137.4,37.4,137.6,37.4z M138.1,46.2h-1.1v-6h1.1
				V46.2z"/>
			<path class="st0" d="M147.6,42.6v3.5l-1.1,0.2v-1.1c-0.4,0.4-0.9,0.6-1.3,0.8c-0.4,0.2-0.8,0.3-1.1,0.3c-0.5,0-0.9-0.1-1.3-0.4
				c-0.3-0.3-0.5-0.7-0.5-1.2c0-0.7,0.3-1.2,1-1.5c0.7-0.3,1.7-0.5,3.1-0.5v0c0-0.5-0.1-0.9-0.4-1.1c-0.2-0.3-0.6-0.4-1-0.4
				c-0.3,0-0.7,0.1-1,0.2c-0.4,0.1-0.7,0.4-1.1,0.6l0,0l0.2-1.2c0.3-0.2,0.6-0.4,1-0.5c0.3-0.1,0.7-0.2,1.1-0.2
				c0.7,0,1.3,0.2,1.7,0.6C147.4,41.2,147.6,41.8,147.6,42.6z M143.5,44.7c0,0.2,0.1,0.4,0.2,0.5c0.2,0.1,0.4,0.2,0.7,0.2
				c0.3,0,0.6-0.1,1-0.2c0.4-0.1,0.8-0.3,1.2-0.6v-1.2c-1,0.1-1.8,0.2-2.3,0.4C143.7,44,143.5,44.3,143.5,44.7z"/>
			<path class="st0" d="M150.7,46.2h-1.1v-8.6l1.1-0.4V46.2z"/>
			<path class="st0" d="M72.3,55.4c-0.3,0-0.5,0.1-0.8,0.2c-0.2,0.2-0.5,0.4-0.9,0.8v4.1h-1.1v-5.8l1.1-0.2v1.2
				c0.3-0.4,0.6-0.7,1-0.9c0.3-0.2,0.7-0.3,1-0.3c0.4,0,0.8,0.1,1.1,0.3c0.3,0.2,0.6,0.6,0.7,1c0.3-0.5,0.7-0.8,1-1
				c0.3-0.2,0.7-0.3,1.1-0.3c0.6,0,1.1,0.2,1.5,0.6c0.4,0.4,0.6,1,0.6,1.7v3.7h-1.1v-3.6c0-0.5-0.1-0.8-0.3-1.1
				c-0.2-0.3-0.5-0.4-0.9-0.4c-0.3,0-0.5,0.1-0.8,0.2c-0.3,0.2-0.5,0.4-0.9,0.8c0,0,0,0.1,0,0.1s0,0.1,0,0.2v3.7h-1.1v-3.6
				c0-0.5-0.1-0.8-0.3-1.1C73,55.5,72.7,55.4,72.3,55.4z"/>
			<path class="st0" d="M83.2,60.7c-0.9,0-1.7-0.3-2.2-0.9c-0.6-0.6-0.9-1.3-0.9-2.2c0-0.9,0.3-1.6,0.9-2.2s1.4-0.9,2.3-0.9
				c0.9,0,1.7,0.3,2.3,0.9c0.6,0.6,0.9,1.3,0.9,2.2c0,0.9-0.3,1.6-0.9,2.2C84.8,60.4,84.1,60.7,83.2,60.7z M85.2,57.5
				c0-0.6-0.2-1.1-0.6-1.5c-0.4-0.4-0.9-0.6-1.5-0.6c-0.6,0-1.1,0.2-1.5,0.6c-0.4,0.4-0.6,0.9-0.6,1.6c0,0.6,0.2,1.1,0.6,1.5
				c0.4,0.4,0.9,0.6,1.4,0.6c0.6,0,1.1-0.2,1.5-0.6C85,58.6,85.2,58.1,85.2,57.5z"/>
			<path class="st0" d="M90.6,55.4c-0.3,0-0.5,0.1-0.8,0.2s-0.5,0.4-0.9,0.8v4.1h-1.1v-5.8l1.1-0.2v1.2c0.3-0.4,0.6-0.7,1-0.9
				c0.3-0.2,0.7-0.3,1-0.3c0.4,0,0.8,0.1,1.1,0.3c0.3,0.2,0.6,0.6,0.7,1c0.3-0.5,0.7-0.8,1-1c0.3-0.2,0.7-0.3,1.1-0.3
				c0.6,0,1.1,0.2,1.5,0.6c0.4,0.4,0.6,1,0.6,1.7v3.7h-1.1v-3.6c0-0.5-0.1-0.8-0.3-1.1c-0.2-0.3-0.5-0.4-0.9-0.4
				c-0.3,0-0.5,0.1-0.8,0.2c-0.3,0.2-0.5,0.4-0.9,0.8c0,0,0,0.1,0,0.1s0,0.1,0,0.2v3.7h-1.1v-3.6c0-0.5-0.1-0.8-0.3-1.1
				C91.3,55.5,91,55.4,90.6,55.4z"/>
			<path class="st0" d="M103.7,58.9l-0.4,1.2c-0.3,0.2-0.7,0.3-1,0.4c-0.3,0.1-0.6,0.1-1,0.1c-0.9,0-1.7-0.3-2.3-0.8
				c-0.6-0.6-0.8-1.3-0.8-2.3c0-0.9,0.3-1.6,0.8-2.2c0.6-0.6,1.2-0.9,2.1-0.9c0.8,0,1.5,0.3,2,0.9c0.5,0.6,0.7,1.3,0.7,2.2
				c0,0.1,0,0.2,0,0.3c0,0.1,0,0.2,0,0.2h-4.5c0.1,0.5,0.3,1,0.7,1.3s0.8,0.5,1.4,0.5c0.3,0,0.7-0.1,1.1-0.2
				C103,59.3,103.4,59.1,103.7,58.9L103.7,58.9z M101.2,55.3c-0.5,0-0.9,0.2-1.2,0.5c-0.3,0.3-0.5,0.8-0.6,1.3h3.5
				c0-0.6-0.2-1-0.5-1.3C102,55.5,101.6,55.3,101.2,55.3z"/>
			<path class="st0" d="M108.3,55.4c-0.3,0-0.6,0.1-0.9,0.2c-0.3,0.2-0.6,0.4-0.9,0.8v4h-1.1v-5.8l1.1-0.2v1.2
				c0.3-0.4,0.7-0.8,1-0.9c0.3-0.2,0.7-0.3,1.1-0.3c0.6,0,1.1,0.2,1.5,0.6c0.4,0.4,0.6,1,0.6,1.7v3.7h-1.1v-3.6
				c0-0.5-0.1-0.8-0.4-1.1C109.1,55.5,108.8,55.4,108.3,55.4z"/>
			<path class="st0" d="M116.5,59.1l-0.2,1.1c-0.2,0.1-0.4,0.2-0.6,0.3c-0.2,0.1-0.5,0.1-0.7,0.1c-0.6,0-1-0.2-1.3-0.5
				c-0.3-0.3-0.5-0.8-0.5-1.5v-3.2h-1v-0.9h1v-1.3l1.1-0.4v1.7h2.3v0.9h-2.3v3.1c0,0.4,0.1,0.6,0.2,0.8c0.2,0.2,0.4,0.3,0.7,0.3
				c0.2,0,0.4,0,0.7-0.1C116,59.4,116.2,59.3,116.5,59.1L116.5,59.1z"/>
			<path class="st0" d="M120.6,60.7c-0.9,0-1.7-0.3-2.2-0.9c-0.6-0.6-0.9-1.3-0.9-2.2c0-0.9,0.3-1.6,0.9-2.2
				c0.6-0.6,1.4-0.9,2.3-0.9c0.9,0,1.7,0.3,2.3,0.9c0.6,0.6,0.9,1.3,0.9,2.2c0,0.9-0.3,1.6-0.9,2.2
				C122.3,60.4,121.5,60.7,120.6,60.7z M122.7,57.5c0-0.6-0.2-1.1-0.6-1.5c-0.4-0.4-0.9-0.6-1.5-0.6c-0.6,0-1.1,0.2-1.5,0.6
				c-0.4,0.4-0.6,0.9-0.6,1.6c0,0.6,0.2,1.1,0.6,1.5c0.4,0.4,0.9,0.6,1.4,0.6c0.6,0,1.1-0.2,1.5-0.6
				C122.5,58.6,122.7,58.1,122.7,57.5z"/>
			<path class="st0" d="M133.2,60.5h-1.1v-0.9c-0.3,0.3-0.7,0.6-1,0.7s-0.7,0.2-1.1,0.2c-0.8,0-1.4-0.3-1.9-0.9
				c-0.5-0.6-0.8-1.3-0.8-2.1c0-0.9,0.3-1.7,0.9-2.3c0.6-0.6,1.3-0.9,2.1-0.9c0.3,0,0.6,0,0.9,0.1c0.3,0.1,0.6,0.3,0.9,0.5v-3.2
				l1.1-0.4V60.5z M130.5,55.4c-0.6,0-1.1,0.2-1.5,0.6s-0.6,0.9-0.6,1.5c0,0.6,0.2,1.1,0.5,1.5c0.4,0.4,0.8,0.6,1.4,0.6
				c0.3,0,0.6-0.1,0.9-0.2c0.3-0.1,0.6-0.3,0.9-0.6v-3c-0.3-0.2-0.5-0.3-0.8-0.4C131.1,55.4,130.8,55.4,130.5,55.4z"/>
			<path class="st0" d="M140.2,58.9l-0.4,1.2c-0.3,0.2-0.7,0.3-1,0.4c-0.3,0.1-0.6,0.1-1,0.1c-0.9,0-1.7-0.3-2.2-0.8
				c-0.6-0.6-0.8-1.3-0.8-2.3c0-0.9,0.3-1.6,0.8-2.2c0.6-0.6,1.2-0.9,2.1-0.9c0.8,0,1.5,0.3,2,0.9c0.5,0.6,0.7,1.3,0.7,2.2
				c0,0.1,0,0.2,0,0.3c0,0.1,0,0.2,0,0.2h-4.5c0.1,0.5,0.3,1,0.7,1.3c0.4,0.3,0.8,0.5,1.4,0.5c0.3,0,0.7-0.1,1.1-0.2
				C139.4,59.3,139.8,59.1,140.2,58.9L140.2,58.9z M137.6,55.3c-0.5,0-0.9,0.2-1.2,0.5c-0.3,0.3-0.5,0.8-0.6,1.3h3.5
				c0-0.6-0.2-1-0.5-1.3C138.5,55.5,138.1,55.3,137.6,55.3z"/>
			<path class="st0" d="M150.3,57.4c0,0.9-0.3,1.7-0.9,2.3c-0.6,0.6-1.3,0.9-2.1,0.9c-0.3,0-0.6-0.1-0.9-0.2
				c-0.3-0.1-0.6-0.3-0.9-0.5v2.8h-1.1v-8.1l1.1-0.2v1c0.3-0.3,0.7-0.6,1-0.8c0.3-0.2,0.7-0.2,1.1-0.2c0.8,0,1.4,0.3,1.9,0.9
				C150,55.8,150.3,56.5,150.3,57.4z M149.2,57.5c0-0.6-0.2-1.1-0.5-1.5c-0.4-0.4-0.8-0.6-1.4-0.6c-0.3,0-0.6,0.1-0.9,0.2
				c-0.3,0.1-0.6,0.3-0.9,0.6v3c0.3,0.2,0.5,0.3,0.8,0.4c0.3,0.1,0.5,0.1,0.8,0.1c0.6,0,1.1-0.2,1.5-0.6
				C149,58.6,149.2,58.1,149.2,57.5z"/>
			<path class="st0" d="M156.7,56.9v3.5l-1.1,0.2v-1.1c-0.4,0.4-0.9,0.6-1.3,0.8c-0.4,0.2-0.8,0.3-1.1,0.3c-0.5,0-0.9-0.1-1.3-0.4
				c-0.3-0.3-0.5-0.7-0.5-1.2c0-0.7,0.3-1.2,1-1.5c0.7-0.3,1.7-0.5,3.1-0.5v0c0-0.5-0.1-0.9-0.4-1.1c-0.2-0.3-0.6-0.4-1-0.4
				c-0.3,0-0.7,0.1-1,0.2c-0.4,0.1-0.7,0.4-1.1,0.6l0,0l0.2-1.2c0.3-0.2,0.6-0.4,1-0.5c0.3-0.1,0.7-0.2,1.1-0.2
				c0.7,0,1.3,0.2,1.7,0.6C156.5,55.5,156.7,56.1,156.7,56.9z M152.5,58.9c0,0.2,0.1,0.4,0.2,0.5c0.2,0.1,0.4,0.2,0.7,0.2
				c0.3,0,0.6-0.1,1-0.2c0.4-0.1,0.8-0.3,1.2-0.6v-1.2c-1,0.1-1.8,0.2-2.3,0.4C152.8,58.3,152.5,58.6,152.5,58.9z"/>
			<path class="st0" d="M164,54.5v5.4c0,0.9-0.3,1.6-0.8,2.1c-0.6,0.5-1.3,0.8-2.3,0.8c-0.4,0-0.8,0-1.2-0.1
				c-0.4-0.1-0.8-0.2-1.2-0.4l-0.2-1.2l0,0c0.5,0.3,0.9,0.5,1.3,0.6c0.4,0.1,0.8,0.2,1.3,0.2c0.6,0,1.1-0.2,1.4-0.5
				c0.4-0.3,0.5-0.8,0.5-1.4v-0.5c-0.4,0.3-0.7,0.6-1,0.8c-0.3,0.2-0.7,0.2-1.1,0.2c-0.8,0-1.4-0.3-1.9-0.8c-0.5-0.5-0.7-1.2-0.7-2
				c0-0.9,0.3-1.6,0.9-2.2c0.6-0.6,1.4-0.9,2.3-0.9c0.3,0,0.5,0,0.8,0.1c0.3,0.1,0.5,0.1,0.8,0.3l0.8-0.3H164z M161.4,55.4
				c-0.6,0-1.1,0.2-1.6,0.6c-0.4,0.4-0.6,0.9-0.6,1.5c0,0.6,0.2,1,0.5,1.4c0.3,0.4,0.8,0.5,1.3,0.5c0.3,0,0.6-0.1,0.9-0.2
				c0.3-0.1,0.6-0.3,0.9-0.6v-3c-0.3-0.1-0.5-0.2-0.8-0.2C161.9,55.4,161.6,55.4,161.4,55.4z"/>
			<path class="st0" d="M170.8,56.9v3.5l-1.1,0.2v-1.1c-0.4,0.4-0.9,0.6-1.3,0.8c-0.4,0.2-0.8,0.3-1.1,0.3c-0.5,0-0.9-0.1-1.3-0.4
				c-0.3-0.3-0.5-0.7-0.5-1.2c0-0.7,0.3-1.2,1-1.5c0.7-0.3,1.7-0.5,3.1-0.5v0c0-0.5-0.1-0.9-0.4-1.1c-0.2-0.3-0.6-0.4-1-0.4
				c-0.3,0-0.7,0.1-1,0.2c-0.4,0.1-0.7,0.4-1.1,0.6l0,0l0.2-1.2c0.3-0.2,0.6-0.4,1-0.5c0.3-0.1,0.7-0.2,1.1-0.2
				c0.7,0,1.3,0.2,1.7,0.6C170.6,55.5,170.8,56.1,170.8,56.9z M166.7,58.9c0,0.2,0.1,0.4,0.2,0.5c0.2,0.1,0.4,0.2,0.7,0.2
				c0.3,0,0.6-0.1,1-0.2c0.4-0.1,0.8-0.3,1.2-0.6v-1.2c-1,0.1-1.8,0.2-2.3,0.4C166.9,58.3,166.7,58.6,166.7,58.9z"/>
			<path class="st0" d="M176,55.6c-0.3,0-0.7,0.1-1,0.2c-0.3,0.2-0.7,0.4-1.2,0.8v3.8h-1.1v-5.8l1.1-0.2V56c0.5-0.6,0.9-1,1.2-1.2
				c0.3-0.2,0.6-0.3,0.9-0.3c0.1,0,0.1,0,0.2,0c0.1,0,0.1,0,0.2,0l0.1,1.1c-0.1,0-0.1,0-0.2,0C176.1,55.6,176.1,55.6,176,55.6z"/>
		</g>
	</g>
	<g>
		
			<rect x="35.7" y="46.7" transform="matrix(-1.836970e-16 1 -1 -1.836970e-16 108.3846 22.9895)" class="st1" width="14" height="38"/>
		<g>
			<path class="st2" d="M43.1,56.4l14-0.2l-2.8,9H28.8l-0.5-5.6l13.2-13.8c1.3-1.4,2.1-2.4,2.6-3.3c0.5-0.8,0.7-1.7,0.7-2.5
				c0-1-0.3-1.8-1-2.4c-0.7-0.6-1.6-0.9-2.7-0.9c-1.6,0-3.4,0.6-5.2,1.7c-1.9,1.1-3.9,2.8-6.1,5.1l-0.2-0.1l-0.7-10.5
				c2-1.9,4.1-3.3,6.4-4.2c2.3-0.9,4.8-1.4,7.4-1.4c3.8,0,6.9,1,9.1,3c2.2,2,3.4,4.7,3.4,8c0,2.1-0.4,4-1.3,5.7
				c-0.9,1.7-2.6,3.9-5.2,6.5L43.1,56.4z"/>
		</g>
	</g>
</g>
</svg>
