<?xml version="1.0" encoding="utf-8"?>
<!-- Generator: Adobe Illustrator 27.0.1, SVG Export Plug-In . SVG Version: 6.00 Build 0)  -->
<svg version="1.1" id="Capa_1" xmlns="http://www.w3.org/2000/svg" xmlns:xlink="http://www.w3.org/1999/xlink" x="0px" y="0px"
	 viewBox="0 0 200 100" style="enable-background:new 0 0 200 100;" xml:space="preserve">
<style type="text/css">
	.st0{fill:#353962;}
	.st1{fill:#F8BAAD;}
	.st2{fill:#071A42;}
</style>
<g>
	<g>
		<path class="st0" d="M62.8,40.2h-1.2l3.9-8.3h1.1l3.7,8.3H69l-0.9-2.1h-4.3L62.8,40.2z M65.9,33.1L64.2,37h3.5L65.9,33.1z"/>
		<path class="st0" d="M72.7,40.2h-1.1v-8.6l1.1-0.4V40.2z"/>
		<path class="st0" d="M75.4,31.4c0.2,0,0.4,0.1,0.5,0.2c0.1,0.1,0.2,0.3,0.2,0.5c0,0.2-0.1,0.4-0.2,0.5c-0.1,0.1-0.3,0.2-0.5,0.2
			c-0.2,0-0.4-0.1-0.5-0.2c-0.1-0.1-0.2-0.3-0.2-0.5c0-0.2,0.1-0.4,0.2-0.5C75,31.5,75.2,31.4,75.4,31.4z M75.9,40.2h-1.1v-5.9h1.1
			V40.2z"/>
		<path class="st0" d="M80.3,36.7c0.8,0.2,1.3,0.4,1.6,0.7c0.3,0.3,0.5,0.7,0.5,1.1c0,0.5-0.2,0.9-0.7,1.3c-0.4,0.3-1,0.5-1.7,0.5
			c-0.4,0-0.8-0.1-1.2-0.2c-0.4-0.1-0.8-0.3-1.1-0.5l-0.2-1.3l0,0c0.4,0.3,0.9,0.6,1.3,0.8c0.5,0.2,0.9,0.3,1.3,0.3
			c0.4,0,0.6-0.1,0.9-0.2c0.2-0.1,0.3-0.3,0.3-0.5c0-0.2-0.1-0.4-0.3-0.6c-0.2-0.1-0.6-0.3-1.3-0.4c-0.8-0.2-1.3-0.4-1.6-0.7
			c-0.3-0.3-0.5-0.6-0.5-1.1c0-0.5,0.2-0.9,0.6-1.3c0.4-0.3,1-0.5,1.7-0.5c0.3,0,0.7,0,1,0.1c0.3,0.1,0.6,0.2,0.9,0.4v1.1h0
			c-0.4-0.2-0.7-0.4-1.1-0.5c-0.3-0.1-0.7-0.2-1-0.2c-0.4,0-0.6,0.1-0.8,0.2c-0.2,0.1-0.3,0.3-0.3,0.5c0,0.2,0.1,0.4,0.3,0.5
			C79.3,36.4,79.7,36.6,80.3,36.7z"/>
		<path class="st0" d="M87.8,38.8l-0.2,1.1c-0.2,0.1-0.4,0.2-0.6,0.3c-0.2,0.1-0.5,0.1-0.7,0.1c-0.6,0-1-0.2-1.3-0.5
			c-0.3-0.3-0.5-0.8-0.5-1.5v-3.2h-1v-0.9h1v-1.3l1.1-0.4v1.7h2.3v0.9h-2.3v3.1c0,0.4,0.1,0.6,0.2,0.8c0.2,0.2,0.4,0.3,0.7,0.3
			c0.2,0,0.4,0,0.7-0.1C87.3,39.1,87.5,39,87.8,38.8L87.8,38.8z"/>
		<path class="st0" d="M94.1,36.6V40L93,40.3v-1.1c-0.4,0.4-0.9,0.6-1.3,0.8c-0.4,0.2-0.8,0.3-1.1,0.3c-0.5,0-0.9-0.1-1.3-0.4
			c-0.3-0.3-0.5-0.7-0.5-1.2c0-0.7,0.3-1.2,1-1.5c0.7-0.3,1.7-0.5,3.1-0.5v0c0-0.5-0.1-0.9-0.3-1.1c-0.2-0.3-0.6-0.4-1-0.4
			c-0.3,0-0.7,0.1-1,0.2c-0.4,0.1-0.7,0.4-1.1,0.6l0,0l0.2-1.2c0.3-0.2,0.6-0.4,1-0.5c0.3-0.1,0.7-0.2,1.1-0.2
			c0.7,0,1.3,0.2,1.7,0.6C93.9,35.2,94.1,35.8,94.1,36.6z M90,38.6c0,0.2,0.1,0.4,0.2,0.5c0.2,0.1,0.4,0.2,0.7,0.2
			c0.3,0,0.6-0.1,0.9-0.2c0.4-0.1,0.8-0.3,1.2-0.6v-1.2c-1,0.1-1.8,0.2-2.3,0.4C90.2,38,90,38.3,90,38.6z"/>
		<path class="st0" d="M102.4,38.8l-0.2,1.1c-0.2,0.1-0.4,0.2-0.6,0.3c-0.2,0.1-0.5,0.1-0.7,0.1c-0.6,0-1-0.2-1.3-0.5
			c-0.3-0.3-0.5-0.8-0.5-1.5v-3.2h-1v-0.9h1v-1.3l1.1-0.4v1.7h2.3v0.9H100v3.1c0,0.4,0.1,0.6,0.2,0.8c0.2,0.2,0.4,0.3,0.7,0.3
			c0.2,0,0.4,0,0.7-0.1C101.9,39.1,102.1,39,102.4,38.8L102.4,38.8z"/>
		<path class="st0" d="M109,40.2h-1.1v-1.1c-0.3,0.4-0.7,0.7-1,0.9c-0.3,0.2-0.7,0.3-1.1,0.3c-0.6,0-1.1-0.2-1.5-0.6
			c-0.4-0.4-0.6-1-0.6-1.7v-3.7h1.1v3.6c0,0.5,0.1,0.8,0.4,1.1c0.2,0.3,0.6,0.4,1,0.4c0.3,0,0.6-0.1,0.9-0.2s0.6-0.4,0.9-0.8v-4h1.1
			V40.2z"/>
		<path class="st0" d="M124.9,31.9h1.2l-3,8.3H122l-2.5-6l-2.6,6h-1.1l-2.9-8.3h1.2l2.2,6.9l3-6.9h0.2l2.9,6.9L124.9,31.9z"/>
		<path class="st0" d="M130.4,35.1c-0.3,0-0.6,0.1-0.9,0.2c-0.3,0.2-0.6,0.4-0.9,0.8v4h-1.1v-8.6l1.1-0.4v4.2c0.3-0.4,0.7-0.7,1-0.9
			c0.3-0.2,0.7-0.3,1.1-0.3c0.6,0,1.1,0.2,1.5,0.6c0.4,0.4,0.6,1,0.6,1.7v3.7h-1.1v-3.6c0-0.5-0.1-0.8-0.3-1.1
			S130.8,35.1,130.4,35.1z"/>
		<path class="st0" d="M139.5,36.6V40l-1.1,0.2v-1.1c-0.4,0.4-0.9,0.6-1.3,0.8c-0.4,0.2-0.8,0.3-1.1,0.3c-0.5,0-0.9-0.1-1.3-0.4
			c-0.3-0.3-0.5-0.7-0.5-1.2c0-0.7,0.3-1.2,1-1.5c0.7-0.3,1.7-0.5,3.1-0.5v0c0-0.5-0.1-0.9-0.3-1.1c-0.2-0.3-0.6-0.4-1-0.4
			c-0.3,0-0.7,0.1-1,0.2c-0.4,0.1-0.7,0.4-1.1,0.6l0,0l0.2-1.2c0.3-0.2,0.6-0.4,1-0.5c0.3-0.1,0.7-0.2,1.1-0.2
			c0.7,0,1.3,0.2,1.7,0.6C139.3,35.2,139.5,35.8,139.5,36.6z M135.4,38.6c0,0.2,0.1,0.4,0.2,0.5c0.2,0.1,0.4,0.2,0.7,0.2
			c0.3,0,0.6-0.1,0.9-0.2c0.4-0.1,0.8-0.3,1.2-0.6v-1.2c-1,0.1-1.8,0.2-2.3,0.4C135.6,38,135.4,38.3,135.4,38.6z"/>
		<path class="st0" d="M145.2,38.8l-0.2,1.1c-0.2,0.1-0.4,0.2-0.6,0.3c-0.2,0.1-0.5,0.1-0.7,0.1c-0.6,0-1-0.2-1.3-0.5
			c-0.3-0.3-0.5-0.8-0.5-1.5v-3.2h-1v-0.9h1v-1.3l1.1-0.4v1.7h2.3v0.9h-2.3v3.1c0,0.4,0.1,0.6,0.2,0.8c0.2,0.2,0.4,0.3,0.7,0.3
			c0.2,0,0.4,0,0.7-0.1C144.7,39.1,144.9,39,145.2,38.8L145.2,38.8z"/>
		<path class="st0" d="M149,36.7c0.8,0.2,1.3,0.4,1.6,0.7c0.3,0.3,0.5,0.7,0.5,1.1c0,0.5-0.2,0.9-0.7,1.3c-0.4,0.3-1,0.5-1.7,0.5
			c-0.4,0-0.8-0.1-1.2-0.2c-0.4-0.1-0.8-0.3-1.1-0.5l-0.2-1.3l0,0c0.4,0.3,0.9,0.6,1.3,0.8c0.5,0.2,0.9,0.3,1.3,0.3
			c0.4,0,0.6-0.1,0.9-0.2c0.2-0.1,0.3-0.3,0.3-0.5c0-0.2-0.1-0.4-0.3-0.6c-0.2-0.1-0.6-0.3-1.3-0.4c-0.8-0.2-1.3-0.4-1.6-0.7
			c-0.3-0.3-0.5-0.6-0.5-1.1c0-0.5,0.2-0.9,0.6-1.3s1-0.5,1.7-0.5c0.3,0,0.7,0,1,0.1c0.3,0.1,0.6,0.2,0.9,0.4v1.1h0
			c-0.4-0.2-0.7-0.4-1.1-0.5c-0.3-0.1-0.7-0.2-1-0.2c-0.4,0-0.6,0.1-0.8,0.2c-0.2,0.1-0.3,0.3-0.3,0.5c0,0.2,0.1,0.4,0.3,0.5
			C148,36.4,148.4,36.6,149,36.7z"/>
		<path class="st0" d="M153.2,40.2H152l3.9-8.3h1.1l3.7,8.3h-1.2l-0.9-2.1h-4.3L153.2,40.2z M156.4,33.1l-1.8,3.9h3.5L156.4,33.1z"
			/>
		<path class="st0" d="M167.8,37.1c0,0.9-0.3,1.7-0.9,2.3c-0.6,0.6-1.3,0.9-2.1,0.9c-0.3,0-0.6-0.1-0.9-0.2
			c-0.3-0.1-0.6-0.3-0.9-0.5v2.8H162v-8l1.1-0.2v1c0.3-0.3,0.7-0.6,1-0.8c0.3-0.2,0.7-0.2,1.1-0.2c0.8,0,1.4,0.3,1.9,0.8
			C167.6,35.6,167.8,36.3,167.8,37.1z M166.7,37.2c0-0.6-0.2-1.1-0.5-1.5c-0.4-0.4-0.8-0.6-1.3-0.6c-0.3,0-0.6,0.1-0.9,0.2
			c-0.3,0.1-0.6,0.3-0.9,0.6v3c0.3,0.2,0.5,0.3,0.8,0.4c0.3,0.1,0.5,0.1,0.8,0.1c0.6,0,1.1-0.2,1.5-0.6
			C166.5,38.3,166.7,37.8,166.7,37.2z"/>
		<path class="st0" d="M175.2,37.1c0,0.9-0.3,1.7-0.9,2.3c-0.6,0.6-1.3,0.9-2.1,0.9c-0.3,0-0.6-0.1-0.9-0.2
			c-0.3-0.1-0.6-0.3-0.9-0.5v2.8h-1.1v-8l1.1-0.2v1c0.3-0.3,0.7-0.6,1-0.8s0.7-0.2,1.1-0.2c0.8,0,1.4,0.3,1.9,0.8
			C174.9,35.6,175.2,36.3,175.2,37.1z M174.1,37.2c0-0.6-0.2-1.1-0.5-1.5c-0.4-0.4-0.8-0.6-1.3-0.6c-0.3,0-0.6,0.1-0.9,0.2
			c-0.3,0.1-0.6,0.3-0.9,0.6v3c0.3,0.2,0.5,0.3,0.8,0.4c0.3,0.1,0.5,0.1,0.8,0.1c0.6,0,1.1-0.2,1.5-0.6
			C173.9,38.3,174.1,37.8,174.1,37.2z"/>
		<path class="st0" d="M175.9,42.2l-0.3-0.3c0.4-0.5,0.6-0.9,0.7-1.3c0.1-0.3,0.2-0.8,0.2-1.4v-0.4h1.1c0,0.7-0.1,1.2-0.3,1.7
			C177.1,41,176.6,41.6,175.9,42.2z"/>
		<path class="st0" d="M66,53l-0.2,1.1c-0.2,0.1-0.4,0.2-0.6,0.3c-0.2,0.1-0.5,0.1-0.7,0.1c-0.6,0-1-0.2-1.3-0.5
			c-0.3-0.3-0.5-0.8-0.5-1.5v-3.2h-1v-0.9h1v-1.3l1.1-0.4v1.7H66v0.9h-2.3v3.1c0,0.4,0.1,0.6,0.2,0.8c0.2,0.2,0.4,0.3,0.7,0.3
			c0.2,0,0.4,0,0.7-0.1C65.6,53.3,65.8,53.2,66,53L66,53z"/>
		<path class="st0" d="M72.7,54.4h-1.1v-1.1c-0.3,0.4-0.7,0.7-1,0.9c-0.3,0.2-0.7,0.3-1.1,0.3c-0.6,0-1.1-0.2-1.5-0.6
			c-0.4-0.4-0.6-1-0.6-1.7v-3.7h1.1v3.6c0,0.5,0.1,0.8,0.4,1.1c0.2,0.3,0.6,0.4,1,0.4c0.3,0,0.6-0.1,0.9-0.2
			c0.3-0.2,0.6-0.4,0.9-0.8v-4h1.1V54.4z"/>
		<path class="st0" d="M82,52.6l-0.2,1.2c-0.3,0.2-0.7,0.4-1,0.5c-0.3,0.1-0.7,0.2-1.1,0.2c-0.9,0-1.6-0.3-2.2-0.9
			c-0.6-0.6-0.8-1.3-0.8-2.2c0-0.9,0.3-1.6,0.9-2.2c0.6-0.6,1.3-0.9,2.3-0.9c0.4,0,0.8,0.1,1.1,0.2c0.3,0.1,0.6,0.3,0.9,0.5v1.3h0
			c-0.4-0.4-0.7-0.6-1-0.8c-0.3-0.2-0.6-0.2-1-0.2c-0.6,0-1.1,0.2-1.4,0.6c-0.4,0.4-0.6,0.9-0.6,1.5c0,0.6,0.2,1.1,0.6,1.5
			c0.4,0.4,0.8,0.6,1.4,0.6c0.3,0,0.7-0.1,1.1-0.3C81.3,53.1,81.7,52.9,82,52.6L82,52.6z"/>
		<path class="st0" d="M88.6,52.9L88.2,54c-0.3,0.2-0.7,0.3-1,0.4c-0.3,0.1-0.6,0.1-1,0.1c-0.9,0-1.7-0.3-2.2-0.8
			c-0.6-0.6-0.8-1.3-0.8-2.3c0-0.9,0.3-1.6,0.8-2.2c0.6-0.6,1.2-0.9,2.1-0.9c0.8,0,1.5,0.3,2,0.9c0.5,0.6,0.7,1.3,0.7,2.2
			c0,0.1,0,0.2,0,0.3c0,0.1,0,0.2,0,0.2h-4.5c0.1,0.5,0.3,1,0.7,1.3c0.4,0.3,0.8,0.5,1.4,0.5c0.3,0,0.7-0.1,1.1-0.2
			C87.8,53.2,88.2,53.1,88.6,52.9L88.6,52.9z M86,49.3c-0.5,0-0.9,0.2-1.2,0.5c-0.3,0.3-0.5,0.8-0.6,1.3h3.4c0-0.6-0.2-1-0.5-1.3
			C86.9,49.4,86.5,49.3,86,49.3z M86.3,47.2h-0.5l1-2h1.4v0L86.3,47.2z"/>
		<path class="st0" d="M95.6,54.4h-1.1v-0.9c-0.3,0.3-0.7,0.6-1,0.7c-0.3,0.2-0.7,0.2-1.1,0.2c-0.8,0-1.4-0.3-1.9-0.8
			c-0.5-0.6-0.8-1.3-0.8-2.1c0-0.9,0.3-1.7,0.9-2.3c0.6-0.6,1.3-0.9,2.1-0.9c0.3,0,0.6,0,0.9,0.1c0.3,0.1,0.6,0.3,0.9,0.5v-3.2
			l1.1-0.4V54.4z M93,49.3c-0.6,0-1.1,0.2-1.5,0.6c-0.4,0.4-0.6,0.9-0.6,1.5c0,0.6,0.2,1.1,0.5,1.5c0.4,0.4,0.8,0.6,1.3,0.6
			c0.3,0,0.6-0.1,0.9-0.2c0.3-0.1,0.6-0.3,0.9-0.6v-3c-0.3-0.2-0.5-0.3-0.8-0.4C93.5,49.4,93.2,49.3,93,49.3z"/>
		<path class="st0" d="M102.8,54.4h-1.1v-1.1c-0.3,0.4-0.7,0.7-1,0.9c-0.3,0.2-0.7,0.3-1.1,0.3c-0.6,0-1.1-0.2-1.5-0.6
			c-0.4-0.4-0.6-1-0.6-1.7v-3.7h1.1v3.6c0,0.5,0.1,0.8,0.4,1.1c0.2,0.3,0.6,0.4,1,0.4c0.3,0,0.6-0.1,0.9-0.2
			c0.3-0.2,0.6-0.4,0.9-0.8v-4h1.1V54.4z"/>
		<path class="st0" d="M105.9,54.4h-1.1v-8.6l1.1-0.4V54.4z"/>
		<path class="st0" d="M112.8,50.8v3.5l-1.1,0.2v-1.1c-0.4,0.4-0.9,0.6-1.3,0.8c-0.4,0.2-0.8,0.3-1.1,0.3c-0.5,0-0.9-0.1-1.3-0.4
			c-0.3-0.3-0.5-0.7-0.5-1.2c0-0.7,0.3-1.2,1-1.5c0.7-0.3,1.7-0.5,3.1-0.5v0c0-0.5-0.1-0.9-0.3-1.1c-0.2-0.3-0.6-0.4-1-0.4
			c-0.3,0-0.7,0.1-1,0.2c-0.4,0.1-0.7,0.4-1.1,0.6l0,0l0.2-1.2c0.3-0.2,0.6-0.4,1-0.5s0.7-0.2,1.1-0.2c0.7,0,1.3,0.2,1.7,0.6
			C112.6,49.4,112.8,50,112.8,50.8z M108.7,52.9c0,0.2,0.1,0.4,0.2,0.5c0.2,0.1,0.4,0.2,0.7,0.2c0.3,0,0.6-0.1,0.9-0.2
			c0.4-0.1,0.8-0.3,1.2-0.6v-1.2c-1,0.1-1.8,0.2-2.3,0.4C108.9,52.2,108.7,52.5,108.7,52.9z"/>
		<path class="st0" d="M122.5,48.5l-2.8,6.6c-0.2,0.6-0.5,1-0.9,1.2c-0.3,0.3-0.8,0.4-1.2,0.4c-0.2,0-0.3,0-0.5-0.1
			c-0.2,0-0.3-0.1-0.5-0.2l-0.2-1.1l0,0c0.2,0.1,0.4,0.2,0.5,0.2c0.2,0.1,0.3,0.1,0.5,0.1c0.3,0,0.5-0.1,0.7-0.2
			c0.2-0.2,0.4-0.4,0.5-0.8l0.3-0.6l-2.5-5.6h1.2l1.9,4.4l1.8-4.4H122.5z"/>
		<path class="st0" d="M128.6,51c0.8,0.2,1.3,0.4,1.6,0.7c0.3,0.3,0.5,0.7,0.5,1.1c0,0.5-0.2,0.9-0.7,1.3c-0.4,0.3-1,0.5-1.7,0.5
			c-0.4,0-0.8-0.1-1.2-0.2c-0.4-0.1-0.8-0.3-1.1-0.5l-0.2-1.3l0,0c0.4,0.3,0.9,0.6,1.3,0.8c0.5,0.2,0.9,0.3,1.3,0.3
			c0.4,0,0.6-0.1,0.9-0.2c0.2-0.1,0.3-0.3,0.3-0.5c0-0.2-0.1-0.4-0.3-0.6c-0.2-0.1-0.6-0.3-1.3-0.4c-0.8-0.2-1.3-0.4-1.6-0.7
			c-0.3-0.3-0.5-0.6-0.5-1.1c0-0.5,0.2-0.9,0.6-1.3c0.4-0.3,1-0.5,1.7-0.5c0.3,0,0.7,0,1,0.1c0.3,0.1,0.6,0.2,0.9,0.4V50h0
			c-0.4-0.2-0.7-0.4-1.1-0.5c-0.3-0.1-0.7-0.2-1-0.2c-0.4,0-0.6,0.1-0.8,0.2c-0.2,0.1-0.3,0.3-0.3,0.5c0,0.2,0.1,0.4,0.3,0.5
			C127.6,50.7,128,50.8,128.6,51z"/>
		<path class="st0" d="M132.9,45.6c0.2,0,0.4,0.1,0.5,0.2c0.1,0.1,0.2,0.3,0.2,0.5c0,0.2-0.1,0.4-0.2,0.5c-0.1,0.1-0.3,0.2-0.5,0.2
			c-0.2,0-0.4-0.1-0.5-0.2c-0.1-0.1-0.2-0.3-0.2-0.5c0-0.2,0.1-0.4,0.2-0.5C132.5,45.7,132.7,45.6,132.9,45.6z M133.4,54.4h-1.1
			v-5.9h1.1V54.4z"/>
		<path class="st0" d="M140.8,48.5v5.4c0,0.9-0.3,1.6-0.8,2.1s-1.3,0.8-2.2,0.8c-0.4,0-0.8,0-1.2-0.1s-0.8-0.2-1.1-0.4l-0.2-1.2l0,0
			c0.5,0.3,0.9,0.5,1.3,0.6c0.4,0.1,0.8,0.2,1.3,0.2c0.6,0,1.1-0.2,1.4-0.5c0.4-0.3,0.5-0.8,0.5-1.4v-0.5c-0.4,0.3-0.7,0.6-1,0.8
			c-0.3,0.2-0.7,0.2-1.1,0.2c-0.8,0-1.4-0.3-1.9-0.8c-0.5-0.5-0.7-1.2-0.7-2c0-0.9,0.3-1.6,0.9-2.2c0.6-0.6,1.4-0.9,2.3-0.9
			c0.3,0,0.5,0,0.8,0.1c0.3,0.1,0.5,0.1,0.8,0.3l0.8-0.3H140.8z M138.3,49.3c-0.6,0-1.1,0.2-1.6,0.6c-0.4,0.4-0.6,0.9-0.6,1.5
			c0,0.6,0.2,1,0.5,1.4c0.3,0.4,0.8,0.5,1.3,0.5c0.3,0,0.6-0.1,0.9-0.2c0.3-0.1,0.6-0.3,0.9-0.6v-2.9c-0.3-0.1-0.5-0.2-0.7-0.2
			C138.8,49.3,138.5,49.3,138.3,49.3z"/>
		<path class="st0" d="M148,54.4h-1.1v-1.1c-0.3,0.4-0.7,0.7-1,0.9c-0.3,0.2-0.7,0.3-1.1,0.3c-0.6,0-1.1-0.2-1.5-0.6
			c-0.4-0.4-0.6-1-0.6-1.7v-3.7h1.1v3.6c0,0.5,0.1,0.8,0.4,1.1s0.6,0.4,1,0.4c0.3,0,0.6-0.1,0.9-0.2c0.3-0.2,0.6-0.4,0.9-0.8v-4h1.1
			V54.4z"/>
		<path class="st0" d="M154.9,52.9l-0.4,1.2c-0.3,0.2-0.7,0.3-1,0.4c-0.3,0.1-0.6,0.1-1,0.1c-0.9,0-1.7-0.3-2.2-0.8
			c-0.6-0.6-0.8-1.3-0.8-2.3c0-0.9,0.3-1.6,0.8-2.2c0.6-0.6,1.2-0.9,2.1-0.9s1.5,0.3,2,0.9c0.5,0.6,0.7,1.3,0.7,2.2
			c0,0.1,0,0.2,0,0.3c0,0.1,0,0.2,0,0.2h-4.5c0.1,0.5,0.3,1,0.7,1.3c0.4,0.3,0.8,0.5,1.4,0.5c0.3,0,0.7-0.1,1.1-0.2
			C154.2,53.2,154.6,53.1,154.9,52.9L154.9,52.9z M152.4,49.3c-0.5,0-0.9,0.2-1.2,0.5c-0.3,0.3-0.5,0.8-0.6,1.3h3.4
			c0-0.6-0.2-1-0.5-1.3C153.2,49.4,152.8,49.3,152.4,49.3z"/>
		<path class="st0" d="M63.4,68.6h-1.1V60l1.1-0.4V68.6z"/>
		<path class="st0" d="M70.3,65v3.5l-1.1,0.2v-1.1c-0.4,0.4-0.9,0.6-1.3,0.8c-0.4,0.2-0.8,0.3-1.1,0.3c-0.5,0-0.9-0.1-1.3-0.4
			S65,67.6,65,67.1c0-0.7,0.3-1.2,1-1.5c0.7-0.3,1.7-0.5,3.1-0.5v0c0-0.5-0.1-0.9-0.3-1.1c-0.2-0.3-0.6-0.4-1-0.4
			c-0.3,0-0.7,0.1-1,0.2c-0.4,0.1-0.7,0.4-1.1,0.6l0,0l0.2-1.2c0.3-0.2,0.6-0.4,1-0.5c0.3-0.1,0.7-0.2,1.1-0.2
			c0.7,0,1.3,0.2,1.7,0.6C70.1,63.7,70.3,64.3,70.3,65z M66.1,67.1c0,0.2,0.1,0.4,0.2,0.5c0.2,0.1,0.4,0.2,0.7,0.2
			c0.3,0,0.6-0.1,0.9-0.2c0.4-0.1,0.8-0.3,1.2-0.6v-1.2c-1,0.1-1.8,0.2-2.3,0.4C66.4,66.4,66.1,66.7,66.1,67.1z"/>
		<path class="st0" d="M74.5,65.2c0.8,0.2,1.3,0.4,1.6,0.7c0.3,0.3,0.5,0.7,0.5,1.1c0,0.5-0.2,0.9-0.7,1.3c-0.4,0.3-1,0.5-1.7,0.5
			c-0.4,0-0.8-0.1-1.2-0.2c-0.4-0.1-0.8-0.3-1.1-0.5l-0.2-1.3l0,0c0.4,0.3,0.9,0.6,1.3,0.8c0.5,0.2,0.9,0.3,1.3,0.3
			c0.4,0,0.7-0.1,0.9-0.2c0.2-0.1,0.3-0.3,0.3-0.5c0-0.2-0.1-0.4-0.3-0.6c-0.2-0.1-0.6-0.3-1.3-0.4c-0.8-0.2-1.3-0.4-1.6-0.7
			c-0.3-0.3-0.5-0.6-0.5-1.1c0-0.5,0.2-0.9,0.6-1.3c0.4-0.3,1-0.5,1.7-0.5c0.3,0,0.7,0,1,0.1s0.6,0.2,0.9,0.4v1.1h0
			c-0.4-0.2-0.7-0.4-1.1-0.5c-0.3-0.1-0.7-0.2-1-0.2c-0.4,0-0.6,0.1-0.8,0.2c-0.2,0.1-0.3,0.3-0.3,0.5c0,0.2,0.1,0.4,0.3,0.5
			C73.4,64.9,73.9,65,74.5,65.2z"/>
		<path class="st0" d="M81.3,59.9c0.2,0,0.4,0.1,0.5,0.2c0.1,0.1,0.2,0.3,0.2,0.5s-0.1,0.4-0.2,0.5c-0.1,0.1-0.3,0.2-0.5,0.2
			c-0.2,0-0.4-0.1-0.5-0.2c-0.1-0.1-0.2-0.3-0.2-0.5s0.1-0.4,0.2-0.5C80.9,59.9,81.1,59.9,81.3,59.9z M81.8,68.6h-1.1v-5.9h1.1V68.6
			z"/>
		<path class="st0" d="M86.8,63.6c-0.3,0-0.6,0.1-0.9,0.2c-0.3,0.2-0.6,0.4-0.9,0.8v4h-1.1v-5.8l1.1-0.2v1.2c0.3-0.4,0.7-0.7,1-0.9
			c0.3-0.2,0.7-0.3,1.1-0.3c0.6,0,1.1,0.2,1.5,0.6c0.4,0.4,0.6,1,0.6,1.7v3.7h-1.1V65c0-0.5-0.1-0.8-0.3-1.1
			C87.5,63.7,87.2,63.6,86.8,63.6z"/>
		<path class="st0" d="M93.4,65.2c0.8,0.2,1.3,0.4,1.6,0.7c0.3,0.3,0.5,0.7,0.5,1.1c0,0.5-0.2,0.9-0.7,1.3c-0.4,0.3-1,0.5-1.7,0.5
			c-0.4,0-0.8-0.1-1.2-0.2c-0.4-0.1-0.8-0.3-1.1-0.5l-0.2-1.3l0,0c0.4,0.3,0.9,0.6,1.3,0.8c0.5,0.2,0.9,0.3,1.3,0.3
			c0.4,0,0.6-0.1,0.9-0.2c0.2-0.1,0.3-0.3,0.3-0.5c0-0.2-0.1-0.4-0.3-0.6c-0.2-0.1-0.6-0.3-1.3-0.4c-0.8-0.2-1.3-0.4-1.6-0.7
			c-0.3-0.3-0.5-0.6-0.5-1.1c0-0.5,0.2-0.9,0.6-1.3s1-0.5,1.7-0.5c0.3,0,0.7,0,1,0.1c0.3,0.1,0.6,0.2,0.9,0.4v1.1h0
			c-0.4-0.2-0.7-0.4-1.1-0.5c-0.3-0.1-0.7-0.2-1-0.2c-0.4,0-0.6,0.1-0.8,0.2c-0.2,0.1-0.3,0.3-0.3,0.5c0,0.2,0.1,0.4,0.3,0.5
			C92.3,64.9,92.8,65,93.4,65.2z"/>
		<path class="st0" d="M100.8,67.2l-0.2,1.1c-0.2,0.1-0.4,0.2-0.6,0.3c-0.2,0.1-0.5,0.1-0.7,0.1c-0.6,0-1-0.2-1.3-0.5
			c-0.3-0.3-0.5-0.8-0.5-1.5v-3.2h-1v-0.9h1v-1.3l1.1-0.4v1.7h2.3v0.9h-2.3v3.1c0,0.4,0.1,0.6,0.2,0.8c0.2,0.2,0.4,0.3,0.7,0.3
			c0.2,0,0.4,0,0.7-0.1C100.4,67.6,100.6,67.4,100.8,67.2L100.8,67.2z"/>
		<path class="st0" d="M105.6,63.8c-0.3,0-0.7,0.1-1,0.2c-0.3,0.2-0.7,0.4-1.2,0.8v3.8h-1.1v-5.8l1.1-0.2v1.5c0.5-0.6,0.9-1,1.2-1.2
			c0.3-0.2,0.6-0.3,0.9-0.3c0.1,0,0.1,0,0.2,0c0.1,0,0.1,0,0.2,0l0.1,1.1c-0.1,0-0.1,0-0.2,0C105.7,63.8,105.7,63.8,105.6,63.8z"/>
		<path class="st0" d="M112.4,68.6h-1.1v-1.1c-0.3,0.4-0.7,0.7-1,0.9c-0.3,0.2-0.7,0.3-1.1,0.3c-0.6,0-1.1-0.2-1.5-0.6
			c-0.4-0.4-0.6-1-0.6-1.7v-3.7h1.1v3.6c0,0.5,0.1,0.8,0.4,1.1c0.2,0.3,0.6,0.4,1,0.4c0.3,0,0.6-0.1,0.9-0.2
			c0.3-0.2,0.6-0.4,0.9-0.8v-4h1.1V68.6z"/>
		<path class="st0" d="M119.2,66.9l-0.2,1.2c-0.3,0.2-0.7,0.4-1,0.5c-0.3,0.1-0.7,0.2-1.1,0.2c-0.9,0-1.6-0.3-2.2-0.9
			c-0.6-0.6-0.8-1.3-0.8-2.2c0-0.9,0.3-1.6,0.9-2.2c0.6-0.6,1.3-0.9,2.3-0.9c0.4,0,0.8,0.1,1.1,0.2c0.3,0.1,0.6,0.3,0.9,0.5v1.3h0
			c-0.4-0.4-0.7-0.6-1-0.8c-0.3-0.2-0.6-0.2-1-0.2c-0.6,0-1.1,0.2-1.4,0.6c-0.4,0.4-0.6,0.9-0.6,1.5c0,0.6,0.2,1.1,0.6,1.5
			c0.4,0.4,0.8,0.6,1.4,0.6c0.3,0,0.7-0.1,1.1-0.3C118.5,67.4,118.8,67.1,119.2,66.9L119.2,66.9z"/>
		<path class="st0" d="M125.6,66.9l-0.2,1.2c-0.3,0.2-0.7,0.4-1,0.5c-0.3,0.1-0.7,0.2-1.1,0.2c-0.9,0-1.6-0.3-2.2-0.9
			c-0.6-0.6-0.8-1.3-0.8-2.2c0-0.9,0.3-1.6,0.9-2.2c0.6-0.6,1.3-0.9,2.3-0.9c0.4,0,0.8,0.1,1.1,0.2c0.3,0.1,0.6,0.3,0.9,0.5v1.3h0
			c-0.4-0.4-0.7-0.6-1-0.8c-0.3-0.2-0.6-0.2-1-0.2c-0.6,0-1.1,0.2-1.4,0.6c-0.4,0.4-0.6,0.9-0.6,1.5c0,0.6,0.2,1.1,0.6,1.5
			c0.4,0.4,0.8,0.6,1.4,0.6c0.3,0,0.7-0.1,1.1-0.3C124.9,67.4,125.2,67.1,125.6,66.9L125.6,66.9z"/>
		<path class="st0" d="M127.8,59.9c0.2,0,0.4,0.1,0.5,0.2c0.1,0.1,0.2,0.3,0.2,0.5s-0.1,0.4-0.2,0.5c-0.1,0.1-0.3,0.2-0.5,0.2
			c-0.2,0-0.4-0.1-0.5-0.2c-0.1-0.1-0.2-0.3-0.2-0.5s0.1-0.4,0.2-0.5C127.4,59.9,127.6,59.9,127.8,59.9z M128.3,68.6h-1.1v-5.9h1.1
			V68.6z"/>
		<path class="st0" d="M133,68.8c-0.9,0-1.7-0.3-2.2-0.9c-0.6-0.6-0.9-1.3-0.9-2.2c0-0.9,0.3-1.6,0.9-2.2c0.6-0.6,1.3-0.9,2.2-0.9
			c0.9,0,1.7,0.3,2.2,0.9c0.6,0.6,0.9,1.3,0.9,2.2c0,0.9-0.3,1.6-0.9,2.2C134.7,68.5,133.9,68.8,133,68.8z M135.1,65.7
			c0-0.6-0.2-1.1-0.6-1.5c-0.4-0.4-0.9-0.6-1.5-0.6c-0.6,0-1.1,0.2-1.5,0.6c-0.4,0.4-0.6,0.9-0.6,1.6c0,0.6,0.2,1.1,0.6,1.5
			c0.4,0.4,0.9,0.6,1.4,0.6c0.6,0,1.1-0.2,1.5-0.6C134.9,66.8,135.1,66.3,135.1,65.7z"/>
		<path class="st0" d="M140.6,63.6c-0.3,0-0.6,0.1-0.9,0.2c-0.3,0.2-0.6,0.4-0.9,0.8v4h-1.1v-5.8l1.1-0.2v1.2c0.3-0.4,0.7-0.7,1-0.9
			c0.3-0.2,0.7-0.3,1.1-0.3c0.6,0,1.1,0.2,1.5,0.6c0.4,0.4,0.6,1,0.6,1.7v3.7h-1.1V65c0-0.5-0.1-0.8-0.3-1.1S141,63.6,140.6,63.6z"
			/>
		<path class="st0" d="M149.8,67.1l-0.4,1.2c-0.3,0.2-0.7,0.3-1,0.4c-0.3,0.1-0.6,0.1-1,0.1c-0.9,0-1.7-0.3-2.2-0.8
			c-0.6-0.6-0.8-1.3-0.8-2.3c0-0.9,0.3-1.6,0.8-2.2c0.6-0.6,1.2-0.9,2.1-0.9c0.8,0,1.5,0.3,2,0.9c0.5,0.6,0.7,1.3,0.7,2.2
			c0,0.1,0,0.2,0,0.3c0,0.1,0,0.2,0,0.2h-4.5c0.1,0.5,0.3,1,0.7,1.3c0.4,0.3,0.8,0.5,1.4,0.5c0.3,0,0.7-0.1,1.1-0.2
			C149,67.5,149.4,67.3,149.8,67.1L149.8,67.1z M147.2,63.5c-0.5,0-0.9,0.2-1.2,0.5c-0.3,0.3-0.5,0.8-0.6,1.3h3.4
			c0-0.6-0.2-1-0.5-1.3C148,63.6,147.7,63.5,147.2,63.5z"/>
		<path class="st0" d="M153.8,65.2c0.8,0.2,1.3,0.4,1.6,0.7c0.3,0.3,0.5,0.7,0.5,1.1c0,0.5-0.2,0.9-0.7,1.3c-0.4,0.3-1,0.5-1.7,0.5
			c-0.4,0-0.8-0.1-1.2-0.2c-0.4-0.1-0.8-0.3-1.1-0.5l-0.2-1.3l0,0c0.4,0.3,0.9,0.6,1.3,0.8c0.5,0.2,0.9,0.3,1.3,0.3
			c0.4,0,0.6-0.1,0.9-0.2c0.2-0.1,0.3-0.3,0.3-0.5c0-0.2-0.1-0.4-0.3-0.6c-0.2-0.1-0.6-0.3-1.3-0.4c-0.8-0.2-1.3-0.4-1.6-0.7
			c-0.3-0.3-0.5-0.6-0.5-1.1c0-0.5,0.2-0.9,0.6-1.3s1-0.5,1.7-0.5c0.3,0,0.7,0,1,0.1c0.3,0.1,0.6,0.2,0.9,0.4v1.1h0
			c-0.4-0.2-0.7-0.4-1.1-0.5c-0.3-0.1-0.7-0.2-1-0.2c-0.4,0-0.6,0.1-0.8,0.2c-0.2,0.1-0.3,0.3-0.3,0.5c0,0.2,0.1,0.4,0.3,0.5
			C152.7,64.9,153.2,65,153.8,65.2z"/>
	</g>
	<g>
		
			<rect x="6.3" y="40.4" transform="matrix(-1.836970e-16 1 -1 -1.836970e-16 76.8471 18.0178)" class="st1" width="46.3" height="14"/>
		<path class="st2" d="M45.1,52.9l6.4-8.2v-6.9H27.6v8h13.6l-6.7,8.6l3.2,4.8h1.8c3.5,0,5,1.9,5,4.1c0,2.3-1.5,4.1-5,4.1
			c-3.2,0-4.8-1.5-5.7-3.9l-7.3,4.2c2.3,5.5,7.4,8,13,8c7.2,0,13.5-4.2,13.5-12.4C53,58.1,49.7,54.5,45.1,52.9z"/>
	</g>
</g>
</svg>
