<?xml version="1.0" encoding="utf-8"?>
<!-- Generator: Adobe Illustrator 27.0.1, SVG Export Plug-In . SVG Version: 6.00 Build 0)  -->
<svg version="1.1" id="Capa_1" xmlns="http://www.w3.org/2000/svg" xmlns:xlink="http://www.w3.org/1999/xlink" x="0px" y="0px"
	 viewBox="0 0 200 100" style="enable-background:new 0 0 200 100;" xml:space="preserve">
<style type="text/css">
	.st0{fill:#353962;}
	.st1{fill:#EFC801;}
	.st2{fill:#071A42;}
</style>
<g>
	<g>
		<path class="st0" d="M51.2,47h-1.3l4.2-9.2h1.2l4.1,9.2H58l-1-2.3h-4.8L51.2,47z M54.6,39.3l-1.9,4.3h3.8L54.6,39.3z"/>
		<path class="st0" d="M66.7,40.5v5.9c0,1-0.3,1.8-0.9,2.3s-1.4,0.8-2.5,0.8c-0.4,0-0.9,0-1.3-0.1s-0.8-0.2-1.3-0.5l-0.2-1.3l0,0
			c0.5,0.3,1,0.5,1.4,0.6s0.9,0.2,1.4,0.2c0.6,0,1.2-0.2,1.5-0.6s0.6-0.9,0.6-1.5v-0.6c-0.4,0.4-0.8,0.7-1.1,0.8
			c-0.4,0.2-0.8,0.3-1.2,0.3c-0.8,0-1.5-0.3-2.1-0.9c-0.5-0.6-0.8-1.3-0.8-2.2c0-1,0.3-1.8,1-2.4c0.7-0.6,1.5-1,2.5-1
			c0.3,0,0.6,0,0.9,0.1c0.3,0.1,0.6,0.2,0.9,0.3l0.9-0.3H66.7z M63.9,41.4c-0.7,0-1.3,0.2-1.7,0.7c-0.5,0.4-0.7,1-0.7,1.7
			c0,0.6,0.2,1.1,0.6,1.5s0.9,0.6,1.5,0.6c0.3,0,0.7-0.1,1-0.2s0.7-0.4,1-0.7v-3.2c-0.3-0.1-0.6-0.2-0.8-0.3S64.2,41.4,63.9,41.4z"
			/>
		<path class="st0" d="M72.5,41.7c-0.4,0-0.8,0.1-1.1,0.3c-0.4,0.2-0.8,0.5-1.3,0.9V47h-1.2v-6.3l1.2-0.3v1.7c0.5-0.7,1-1.1,1.3-1.3
			s0.6-0.3,1-0.3c0.1,0,0.1,0,0.2,0c0.1,0,0.1,0,0.2,0l0.1,1.2c-0.1,0-0.1,0-0.2,0C72.6,41.7,72.6,41.7,72.5,41.7z"/>
		<path class="st0" d="M79.7,45.3l-0.4,1.3c-0.4,0.2-0.7,0.4-1.1,0.4c-0.3,0.1-0.7,0.1-1.1,0.1c-1,0-1.9-0.3-2.5-0.9
			c-0.6-0.6-0.9-1.4-0.9-2.5c0-1,0.3-1.8,0.9-2.4c0.6-0.7,1.4-1,2.3-1s1.6,0.3,2.2,0.9c0.5,0.6,0.8,1.4,0.8,2.4c0,0.1,0,0.2,0,0.3
			c0,0.1,0,0.2,0,0.2H75c0.1,0.6,0.3,1,0.7,1.4c0.4,0.3,0.9,0.5,1.6,0.5c0.4,0,0.8-0.1,1.2-0.2S79.3,45.6,79.7,45.3L79.7,45.3z
			 M76.9,41.4c-0.5,0-1,0.2-1.3,0.6c-0.4,0.4-0.6,0.8-0.6,1.4h3.8c-0.1-0.6-0.2-1.1-0.6-1.5C77.8,41.6,77.4,41.4,76.9,41.4z"/>
		<path class="st0" d="M87.4,40.5v5.9c0,1-0.3,1.8-0.9,2.3s-1.4,0.8-2.5,0.8c-0.4,0-0.9,0-1.3-0.1s-0.8-0.2-1.3-0.5l-0.2-1.3l0,0
			c0.5,0.3,1,0.5,1.4,0.6s0.9,0.2,1.4,0.2c0.6,0,1.2-0.2,1.5-0.6s0.6-0.9,0.6-1.5v-0.6c-0.4,0.4-0.8,0.7-1.1,0.8
			c-0.4,0.2-0.8,0.3-1.2,0.3c-0.8,0-1.5-0.3-2.1-0.9c-0.5-0.6-0.8-1.3-0.8-2.2c0-1,0.3-1.8,1-2.4c0.7-0.6,1.5-1,2.5-1
			c0.3,0,0.6,0,0.9,0.1c0.3,0.1,0.6,0.2,0.9,0.3l0.9-0.3H87.4z M84.6,41.4c-0.7,0-1.3,0.2-1.7,0.7c-0.5,0.4-0.7,1-0.7,1.7
			c0,0.6,0.2,1.1,0.6,1.5s0.9,0.6,1.5,0.6c0.3,0,0.7-0.1,1-0.2s0.7-0.4,1-0.7v-3.2c-0.3-0.1-0.6-0.2-0.8-0.3S84.9,41.4,84.6,41.4z"
			/>
		<path class="st0" d="M94.9,43.1v3.8l-1.2,0.3V46c-0.5,0.4-0.9,0.7-1.4,0.9c-0.4,0.2-0.8,0.3-1.3,0.3c-0.6,0-1-0.2-1.4-0.5
			s-0.5-0.7-0.5-1.3c0-0.7,0.4-1.3,1.1-1.7c0.7-0.4,1.9-0.5,3.4-0.6v0c0-0.5-0.1-0.9-0.4-1.2c-0.3-0.3-0.6-0.4-1.1-0.4
			c-0.4,0-0.7,0.1-1.1,0.2c-0.4,0.2-0.8,0.4-1.2,0.7l0,0l0.2-1.3c0.3-0.2,0.7-0.4,1.1-0.5c0.4-0.1,0.8-0.2,1.2-0.2
			c0.8,0,1.4,0.2,1.8,0.7S94.9,42.2,94.9,43.1z M90.4,45.4c0,0.2,0.1,0.4,0.3,0.6c0.2,0.1,0.4,0.2,0.7,0.2c0.3,0,0.6-0.1,1-0.2
			s0.8-0.4,1.4-0.7v-1.3c-1.1,0.1-2,0.2-2.5,0.4C90.7,44.6,90.4,44.9,90.4,45.4z"/>
		<path class="st0" d="M104,45.5l-0.3,1.2c-0.2,0.1-0.4,0.2-0.7,0.3c-0.3,0.1-0.5,0.1-0.8,0.1c-0.6,0-1.1-0.2-1.5-0.6
			c-0.4-0.4-0.5-0.9-0.5-1.6v-3.5h-1.1v-1h1.1v-1.5l1.2-0.4v1.9h2.5v1h-2.5V45c0,0.4,0.1,0.7,0.3,0.9c0.2,0.2,0.5,0.3,0.8,0.3
			c0.2,0,0.5-0.1,0.7-0.2C103.5,45.9,103.7,45.7,104,45.5L104,45.5z"/>
		<path class="st0" d="M111.3,47h-1.2v-1.2c-0.4,0.5-0.7,0.8-1.1,1s-0.8,0.3-1.2,0.3c-0.7,0-1.2-0.2-1.7-0.7
			c-0.4-0.5-0.6-1.1-0.6-1.8v-4.1h1.2v4c0,0.5,0.1,0.9,0.4,1.2s0.6,0.4,1.1,0.4c0.3,0,0.6-0.1,0.9-0.3c0.3-0.2,0.6-0.5,1-0.9v-4.4
			h1.2V47z"/>
		<path class="st0" d="M116,43.2c0.9,0.2,1.5,0.5,1.8,0.8c0.3,0.3,0.5,0.7,0.5,1.2c0,0.6-0.2,1-0.7,1.4c-0.5,0.4-1.1,0.5-1.9,0.5
			c-0.5,0-0.9-0.1-1.3-0.2c-0.4-0.1-0.8-0.3-1.2-0.6l-0.2-1.4l0,0c0.5,0.4,1,0.7,1.5,0.9c0.5,0.2,1,0.3,1.4,0.3c0.4,0,0.7-0.1,1-0.2
			c0.3-0.2,0.4-0.3,0.4-0.6c0-0.3-0.1-0.5-0.4-0.6c-0.2-0.1-0.7-0.3-1.4-0.5c-0.8-0.2-1.4-0.4-1.8-0.7s-0.5-0.7-0.5-1.2
			c0-0.6,0.2-1,0.7-1.4c0.5-0.4,1.1-0.5,1.8-0.5c0.4,0,0.7,0.1,1.1,0.2c0.4,0.1,0.7,0.3,1,0.4v1.2h0c-0.4-0.3-0.8-0.5-1.2-0.6
			c-0.4-0.1-0.7-0.2-1.1-0.2c-0.4,0-0.7,0.1-0.9,0.2s-0.3,0.3-0.3,0.5c0,0.2,0.1,0.4,0.4,0.6C114.9,42.9,115.3,43.1,116,43.2z"/>
		<path class="st0" d="M129.2,43.7c0,1-0.3,1.8-1,2.5c-0.6,0.7-1.4,1-2.3,1c-0.3,0-0.7-0.1-1-0.2c-0.3-0.1-0.6-0.3-1-0.5v3.1h-1.2
			v-8.8l1.2-0.3v1.1c0.4-0.4,0.7-0.7,1.1-0.8c0.4-0.2,0.7-0.3,1.2-0.3c0.8,0,1.5,0.3,2.1,0.9S129.2,42.7,129.2,43.7z M128,43.8
			c0-0.7-0.2-1.2-0.6-1.7c-0.4-0.4-0.9-0.6-1.5-0.6c-0.3,0-0.7,0.1-1,0.2c-0.3,0.1-0.6,0.3-1,0.6v3.3c0.3,0.2,0.6,0.3,0.9,0.4
			c0.3,0.1,0.6,0.1,0.9,0.1c0.7,0,1.2-0.2,1.6-0.7C127.8,45,128,44.4,128,43.8z"/>
		<path class="st0" d="M134.5,41.7c-0.4,0-0.8,0.1-1.1,0.3c-0.4,0.2-0.8,0.5-1.3,0.9V47h-1.2v-6.3l1.2-0.3v1.7
			c0.5-0.7,1-1.1,1.3-1.3s0.6-0.3,1-0.3c0.1,0,0.1,0,0.2,0s0.1,0,0.2,0l0.1,1.2c-0.1,0-0.1,0-0.2,0
			C134.6,41.7,134.6,41.7,134.5,41.7z"/>
		<path class="st0" d="M139.2,47.2c-1,0-1.8-0.3-2.5-1s-1-1.5-1-2.4c0-0.9,0.3-1.8,1-2.4c0.7-0.7,1.5-1,2.5-1c1,0,1.8,0.3,2.5,1
			c0.6,0.7,1,1.5,1,2.4c0,1-0.3,1.8-1,2.4C141,46.9,140.2,47.2,139.2,47.2z M141.4,43.8c0-0.7-0.2-1.2-0.6-1.7
			c-0.4-0.4-1-0.7-1.6-0.7c-0.7,0-1.2,0.2-1.6,0.7c-0.4,0.5-0.6,1-0.6,1.7c0,0.7,0.2,1.2,0.6,1.7c0.4,0.5,0.9,0.7,1.6,0.7
			c0.7,0,1.2-0.2,1.6-0.7C141.2,45,141.4,44.5,141.4,43.8z"/>
		<path class="st0" d="M150.1,47H149v-0.9c-0.4,0.4-0.7,0.6-1.1,0.8c-0.4,0.2-0.7,0.3-1.2,0.3c-0.8,0-1.5-0.3-2.1-0.9
			c-0.6-0.6-0.9-1.4-0.9-2.3c0-1,0.3-1.8,1-2.5s1.4-1,2.3-1c0.3,0,0.7,0.1,1,0.2s0.6,0.3,1,0.5v-3.5l1.2-0.4V47z M147.2,41.5
			c-0.7,0-1.2,0.2-1.6,0.7c-0.4,0.4-0.6,1-0.6,1.7c0,0.7,0.2,1.2,0.6,1.6c0.4,0.4,0.9,0.6,1.5,0.6c0.3,0,0.7-0.1,1-0.2
			s0.6-0.3,1-0.6V42c-0.3-0.2-0.6-0.3-0.9-0.4C147.8,41.5,147.5,41.5,147.2,41.5z"/>
		<path class="st0" d="M158,47h-1.2v-1.2c-0.4,0.5-0.7,0.8-1.1,1s-0.8,0.3-1.2,0.3c-0.7,0-1.2-0.2-1.7-0.7c-0.4-0.5-0.6-1.1-0.6-1.8
			v-4.1h1.2v4c0,0.5,0.1,0.9,0.4,1.2s0.6,0.4,1.1,0.4c0.3,0,0.6-0.1,0.9-0.3c0.3-0.2,0.6-0.5,1-0.9v-4.4h1.2V47z"/>
		<path class="st0" d="M165.5,45.1l-0.2,1.4c-0.4,0.2-0.7,0.4-1.1,0.6c-0.4,0.1-0.8,0.2-1.2,0.2c-1,0-1.8-0.3-2.4-0.9
			s-0.9-1.4-0.9-2.4c0-1,0.3-1.8,1-2.4s1.5-1,2.5-1c0.4,0,0.8,0.1,1.2,0.2s0.7,0.3,1,0.6v1.4h0c-0.4-0.4-0.8-0.7-1.1-0.9
			c-0.4-0.2-0.7-0.3-1.1-0.3c-0.6,0-1.2,0.2-1.6,0.7c-0.4,0.5-0.6,1-0.6,1.7c0,0.7,0.2,1.2,0.6,1.7c0.4,0.4,0.9,0.7,1.6,0.7
			c0.4,0,0.8-0.1,1.2-0.3C164.7,45.7,165.1,45.4,165.5,45.1L165.5,45.1z"/>
		<path class="st0" d="M171.4,45.5l-0.3,1.2c-0.2,0.1-0.4,0.2-0.7,0.3c-0.3,0.1-0.5,0.1-0.8,0.1c-0.6,0-1.1-0.2-1.5-0.6
			c-0.4-0.4-0.5-0.9-0.5-1.6v-3.5h-1.1v-1h1.1v-1.5l1.2-0.4v1.9h2.5v1h-2.5V45c0,0.4,0.1,0.7,0.3,0.9c0.2,0.2,0.5,0.3,0.8,0.3
			c0.2,0,0.5-0.1,0.7-0.2C170.9,45.9,171.1,45.7,171.4,45.5L171.4,45.5z"/>
		<path class="st0" d="M175.9,47.2c-1,0-1.8-0.3-2.5-1s-1-1.5-1-2.4c0-0.9,0.3-1.8,1-2.4c0.7-0.7,1.5-1,2.5-1c1,0,1.8,0.3,2.5,1
			c0.6,0.7,1,1.5,1,2.4c0,1-0.3,1.8-1,2.4C177.7,46.9,176.9,47.2,175.9,47.2z M178.1,43.8c0-0.7-0.2-1.2-0.6-1.7
			c-0.4-0.4-1-0.7-1.6-0.7c-0.7,0-1.2,0.2-1.6,0.7c-0.4,0.5-0.6,1-0.6,1.7c0,0.7,0.2,1.2,0.6,1.7c0.4,0.5,0.9,0.7,1.6,0.7
			c0.7,0,1.2-0.2,1.6-0.7C177.9,45,178.1,44.5,178.1,43.8z"/>
		<path class="st0" d="M183.5,43.2c0.9,0.2,1.5,0.5,1.8,0.8c0.3,0.3,0.5,0.7,0.5,1.2c0,0.6-0.2,1-0.7,1.4c-0.5,0.4-1.1,0.5-1.9,0.5
			c-0.5,0-0.9-0.1-1.3-0.2c-0.4-0.1-0.8-0.3-1.2-0.6l-0.2-1.4l0,0c0.5,0.4,1,0.7,1.5,0.9c0.5,0.2,1,0.3,1.4,0.3c0.4,0,0.7-0.1,1-0.2
			c0.3-0.2,0.4-0.3,0.4-0.6c0-0.3-0.1-0.5-0.4-0.6c-0.2-0.1-0.7-0.3-1.4-0.5c-0.8-0.2-1.4-0.4-1.8-0.7s-0.5-0.7-0.5-1.2
			c0-0.6,0.2-1,0.7-1.4c0.5-0.4,1.1-0.5,1.8-0.5c0.4,0,0.7,0.1,1.1,0.2c0.4,0.1,0.7,0.3,1,0.4v1.2h0c-0.4-0.3-0.8-0.5-1.2-0.6
			c-0.4-0.1-0.7-0.2-1.1-0.2c-0.4,0-0.7,0.1-0.9,0.2s-0.3,0.3-0.3,0.5c0,0.2,0.1,0.4,0.4,0.6C182.4,42.9,182.9,43.1,183.5,43.2z"/>
		<path class="st0" d="M55.9,58.7v3.8l-1.2,0.3v-1.2c-0.5,0.4-0.9,0.7-1.4,0.9c-0.4,0.2-0.8,0.3-1.3,0.3c-0.6,0-1-0.2-1.4-0.5
			s-0.5-0.7-0.5-1.3c0-0.7,0.4-1.3,1.1-1.7c0.7-0.4,1.9-0.5,3.4-0.6v0c0-0.5-0.1-0.9-0.4-1.2c-0.3-0.3-0.6-0.4-1.1-0.4
			c-0.4,0-0.7,0.1-1.1,0.2s-0.8,0.4-1.2,0.7l0,0l0.2-1.3c0.3-0.2,0.7-0.4,1.1-0.5c0.4-0.1,0.8-0.2,1.2-0.2c0.8,0,1.4,0.2,1.8,0.7
			C55.7,57.2,55.9,57.8,55.9,58.7z M51.3,61c0,0.2,0.1,0.4,0.3,0.6c0.2,0.1,0.4,0.2,0.7,0.2c0.3,0,0.6-0.1,1-0.2s0.8-0.4,1.4-0.7
			v-1.3c-1.1,0.1-2,0.2-2.5,0.4C51.6,60.2,51.3,60.5,51.3,61z"/>
		<path class="st0" d="M59.2,62.6H58v-9.4l1.2-0.4V62.6z"/>
		<path class="st0" d="M69.5,60.7l-0.2,1.4c-0.4,0.2-0.7,0.4-1.1,0.6c-0.4,0.1-0.8,0.2-1.2,0.2c-1,0-1.8-0.3-2.4-0.9
			c-0.6-0.6-0.9-1.4-0.9-2.4c0-1,0.3-1.8,1-2.4c0.7-0.7,1.5-1,2.5-1c0.4,0,0.8,0.1,1.2,0.2c0.4,0.1,0.7,0.3,1,0.6v1.4h0
			c-0.4-0.4-0.8-0.7-1.1-0.9c-0.4-0.2-0.7-0.3-1.1-0.3c-0.6,0-1.2,0.2-1.6,0.7c-0.4,0.5-0.6,1-0.6,1.7c0,0.7,0.2,1.2,0.6,1.7
			c0.4,0.4,0.9,0.7,1.6,0.7c0.4,0,0.8-0.1,1.2-0.3C68.8,61.3,69.1,61,69.5,60.7L69.5,60.7z"/>
		<path class="st0" d="M76.6,58.7v3.8l-1.2,0.3v-1.2c-0.5,0.4-0.9,0.7-1.4,0.9c-0.4,0.2-0.8,0.3-1.3,0.3c-0.6,0-1-0.2-1.4-0.5
			s-0.5-0.7-0.5-1.3c0-0.7,0.4-1.3,1.1-1.7c0.7-0.4,1.9-0.5,3.4-0.6v0c0-0.5-0.1-0.9-0.4-1.2c-0.3-0.3-0.6-0.4-1.1-0.4
			c-0.4,0-0.7,0.1-1.1,0.2S72,57.7,71.6,58l0,0l0.2-1.3c0.3-0.2,0.7-0.4,1.1-0.5c0.4-0.1,0.8-0.2,1.2-0.2c0.8,0,1.4,0.2,1.8,0.7
			C76.4,57.2,76.6,57.8,76.6,58.7z M72,61c0,0.2,0.1,0.4,0.3,0.6c0.2,0.1,0.4,0.2,0.7,0.2c0.3,0,0.6-0.1,1-0.2s0.8-0.4,1.4-0.7v-1.3
			c-1.1,0.1-2,0.2-2.5,0.4C72.3,60.2,72,60.5,72,61z"/>
		<path class="st0" d="M82.3,57.3c-0.4,0-0.8,0.1-1.1,0.3c-0.4,0.2-0.8,0.5-1.3,0.9v4.2h-1.2v-6.3l1.2-0.3v1.7
			c0.5-0.7,1-1.1,1.3-1.3c0.3-0.2,0.6-0.3,1-0.3c0.1,0,0.1,0,0.2,0c0.1,0,0.1,0,0.2,0l0.1,1.2c-0.1,0-0.1,0-0.2,0
			C82.4,57.3,82.3,57.3,82.3,57.3z"/>
		<path class="st0" d="M87.6,57.3c-0.4,0-0.8,0.1-1.1,0.3c-0.4,0.2-0.8,0.5-1.3,0.9v4.2h-1.2v-6.3l1.2-0.3v1.7
			c0.5-0.7,1-1.1,1.3-1.3c0.3-0.2,0.6-0.3,1-0.3c0.1,0,0.1,0,0.2,0c0.1,0,0.1,0,0.2,0l0.1,1.2c-0.1,0-0.1,0-0.2,0
			C87.8,57.3,87.7,57.3,87.6,57.3z"/>
		<path class="st0" d="M90.1,53c0.2,0,0.4,0.1,0.6,0.2c0.2,0.2,0.2,0.3,0.2,0.6c0,0.2-0.1,0.4-0.2,0.6c-0.2,0.2-0.3,0.2-0.6,0.2
			c-0.2,0-0.4-0.1-0.6-0.2c-0.2-0.2-0.2-0.3-0.2-0.6c0-0.2,0.1-0.4,0.2-0.6C89.7,53.1,89.9,53,90.1,53z M90.7,62.6h-1.2v-6.5h1.2
			V62.6z"/>
		<path class="st0" d="M97.1,61.1l-0.3,1.2c-0.2,0.1-0.4,0.2-0.7,0.3c-0.3,0.1-0.5,0.1-0.8,0.1c-0.6,0-1.1-0.2-1.5-0.6
			c-0.4-0.4-0.5-0.9-0.5-1.6v-3.5h-1.1v-1h1.1v-1.5l1.2-0.4v1.9h2.5v1h-2.5v3.4c0,0.4,0.1,0.7,0.3,0.9c0.2,0.2,0.5,0.3,0.8,0.3
			c0.2,0,0.5-0.1,0.7-0.2S96.9,61.3,97.1,61.1L97.1,61.1z"/>
		<path class="st0" d="M101.6,62.8c-1,0-1.8-0.3-2.5-1c-0.6-0.7-1-1.5-1-2.4c0-0.9,0.3-1.8,1-2.4c0.7-0.7,1.5-1,2.5-1
			c1,0,1.8,0.3,2.5,1c0.6,0.7,1,1.5,1,2.4c0,1-0.3,1.8-1,2.4S102.6,62.8,101.6,62.8z M103.9,59.4c0-0.7-0.2-1.2-0.6-1.7
			c-0.4-0.4-1-0.7-1.6-0.7c-0.7,0-1.2,0.2-1.6,0.7s-0.6,1-0.6,1.7c0,0.7,0.2,1.2,0.6,1.7c0.4,0.5,0.9,0.7,1.6,0.7
			c0.7,0,1.2-0.2,1.6-0.7C103.7,60.6,103.9,60.1,103.9,59.4z"/>
		<path class="st0" d="M115,60.9l-0.4,1.3c-0.4,0.2-0.7,0.4-1.1,0.4c-0.3,0.1-0.7,0.1-1.1,0.1c-1,0-1.9-0.3-2.5-0.9
			c-0.6-0.6-0.9-1.4-0.9-2.5c0-1,0.3-1.8,0.9-2.4c0.6-0.7,1.4-1,2.3-1s1.6,0.3,2.2,0.9c0.5,0.6,0.8,1.4,0.8,2.4c0,0.1,0,0.2,0,0.3
			c0,0.1,0,0.2,0,0.2h-4.9c0.1,0.6,0.3,1,0.7,1.4s0.9,0.5,1.6,0.5c0.4,0,0.8-0.1,1.2-0.2C114.1,61.4,114.5,61.2,115,60.9L115,60.9z
			 M112.2,57c-0.5,0-1,0.2-1.3,0.6c-0.4,0.4-0.6,0.8-0.6,1.4h3.8c-0.1-0.6-0.2-1.1-0.6-1.5C113.1,57.2,112.7,57,112.2,57z"/>
		<path class="st0" d="M120,57.1c-0.3,0-0.7,0.1-1,0.3c-0.3,0.2-0.6,0.5-1,0.9v4.4h-1.2v-6.3L118,56v1.3c0.4-0.5,0.7-0.8,1.1-1
			c0.4-0.2,0.8-0.3,1.2-0.3c0.7,0,1.2,0.2,1.7,0.7c0.4,0.5,0.6,1.1,0.6,1.8v4.1h-1.2v-4c0-0.5-0.1-0.9-0.4-1.2
			C120.8,57.2,120.4,57.1,120,57.1z"/>
	</g>
	<rect x="27.4" y="24.3" class="st1" width="14" height="51.4"/>
	<g>
		<path class="st2" d="M14.3,51.5l-0.1-0.1V40.7l18-9.7l0.9,0.3V69H22.6V46.9L14.3,51.5z"/>
	</g>
</g>
</svg>
