<?xml version="1.0" encoding="utf-8"?>
<!-- Generator: Adobe Illustrator 27.0.1, SVG Export Plug-In . SVG Version: 6.00 Build 0)  -->
<svg version="1.1" id="Capa_1" xmlns="http://www.w3.org/2000/svg" xmlns:xlink="http://www.w3.org/1999/xlink" x="0px" y="0px"
	 viewBox="0 0 150 80" style="enable-background:new 0 0 150 80;" xml:space="preserve">
<style type="text/css">
	.st0{clip-path:url(#SVGID_00000058591373669179697880000004707728027953048203_);}
	.st1{clip-path:url(#SVGID_00000143586100175997630090000002829253559606778797_);fill:#0160A9;}
	.st2{clip-path:url(#SVGID_00000143586100175997630090000002829253559606778797_);fill:#FCB618;}
</style>
<g id="Ilustración_28_00000104673422875731442170000007189815125171892656_">
	<g>
		<defs>
			<rect id="SVGID_1_" x="30.5" y="22.5" width="89.1" height="35"/>
		</defs>
		<clipPath id="SVGID_00000076601114289024198710000014941892726920464774_">
			<use xlink:href="#SVGID_1_"  style="overflow:visible;"/>
		</clipPath>
		<g style="clip-path:url(#SVGID_00000076601114289024198710000014941892726920464774_);">
			<defs>
				<rect id="SVGID_00000055687852618031687130000002771183807428549279_" x="30.5" y="22.5" width="89.1" height="35"/>
			</defs>
			<clipPath id="SVGID_00000139279477919180999130000016979415679592047287_">
				<use xlink:href="#SVGID_00000055687852618031687130000002771183807428549279_"  style="overflow:visible;"/>
			</clipPath>
			<path style="clip-path:url(#SVGID_00000139279477919180999130000016979415679592047287_);fill:#0160A9;" d="M98.3,48.5h-9.8
				c-0.3,0-0.6-0.2-0.6-0.6s0.2-0.6,0.6-0.6h9.8c0.4-0.1,2.9-0.7,3.1-3.8c0.1-3-1.6-3.3-1.9-3.3c0,0-6.3,0-6.3,0
				c-2.5-0.4-3.1-2.7-3-3.9c0-3.1,2.6-4.5,4-4.8c0,0,0.1,0,0.1,0h8.8c0.3,0,0.6,0.2,0.6,0.6c0,0.3-0.2,0.6-0.6,0.6h-8.8
				c-0.4,0.1-3.1,0.9-3.1,3.8c0,0,0,0,0,0c0,0.1-0.1,2.3,2,2.7c0,0,6.2,0,6.2,0c0,0,3.1,0.2,2.9,4.5C102.3,47,99.7,48.3,98.3,48.5
				C98.3,48.5,98.3,48.5,98.3,48.5"/>
			<path style="clip-path:url(#SVGID_00000139279477919180999130000016979415679592047287_);fill:#0160A9;" d="M116.7,48.6h-9.1
				c0,0,0,0-0.1,0c-1.2-0.1-3.5-1-3.5-3.2c-0.1-2.4,1.5-9.6,1.6-9.9c0,0,0,0,0-0.1c0.1-0.1,1.4-3.6,4.3-3.6h6.5c0.1,0,0.1,0,0.2,0
				c0.1,0,2.8,0.8,2.8,3.1c0,1.9-0.6,5.2-0.6,5.3c0,0.3-0.3,0.5-0.5,0.5l-12.6,0.1c-0.3,1.8-0.6,3.6-0.6,4.5c0,1.7,2.2,2.1,2.5,2.1
				h9c0.3,0,0.6,0.2,0.6,0.6S117.1,48.6,116.7,48.6 M106.8,35.8c-0.1,0.3-0.4,2-0.8,3.9l11.9-0.1c0.2-1,0.5-3.3,0.5-4.7
				c0-1.3-1.6-1.9-1.9-2h-6.4C108,32.9,106.9,35.4,106.8,35.8"/>
			<path style="clip-path:url(#SVGID_00000139279477919180999130000016979415679592047287_);fill:#0160A9;" d="M71.5,55.9
				C71.4,55.9,71.4,55.9,71.5,55.9c-0.4-0.1-0.6-0.4-0.5-0.7c0,0,0.9-4.9,1.8-9.8c0.4-2.5,0.9-4.9,1.2-6.7c0.2-0.9,0.3-1.7,0.4-2.2
				c0.1-0.4,0.1-0.7,0.2-0.9l0,0c0.6-1.7,2.6-3.6,4-3.8c0.1,0,0.1,0,0.2,0c0.4,0,3.9,0,6.2,0h0c0.5,0,3.4,1.1,3.1,3.4c0,0,0,0,0,0.1
				l-1.6,9.5c0,0,0,0,0,0.1c0,0.1-0.9,2.9-3.6,3.7c0,0-0.1,0-0.1,0L77,48.6c0,0,0,0-0.1,0c-0.1,0-1.9-0.2-3.4-2
				c-0.6,3.4-1.2,6.8-1.6,8.9C72,55.7,71.7,55.9,71.5,55.9 M73.9,45c1.1,2.2,2.9,2.5,3.1,2.5l5.6-0.2c1.9-0.6,2.7-2.7,2.7-2.9
				l1.5-9.4c0.2-1-1.4-2.2-2.1-2.2c-0.4,0-1.7,0-3,0c-0.8,0-1.6,0-2.2,0c-0.4,0-0.7,0-0.9,0c-0.9,0.2-2.6,1.7-3.1,3.1
				C75.5,36.3,74.7,40.4,73.9,45"/>
			<path style="clip-path:url(#SVGID_00000139279477919180999130000016979415679592047287_);fill:#FCB618;" d="M63.9,29.3
				c0,0.9-0.7,1.6-1.6,1.6c-0.9,0-1.6-0.7-1.6-1.6c0-0.9,0.7-1.6,1.6-1.6C63.2,27.8,63.9,28.5,63.9,29.3"/>
			<path style="clip-path:url(#SVGID_00000139279477919180999130000016979415679592047287_);fill:#FCB618;" d="M60.4,24.1
				c0,0.9-0.7,1.6-1.6,1.6c-0.9,0-1.6-0.7-1.6-1.6c0-0.9,0.7-1.6,1.6-1.6C59.7,22.5,60.4,23.2,60.4,24.1"/>
			<path style="clip-path:url(#SVGID_00000139279477919180999130000016979415679592047287_);fill:#FCB618;" d="M56.9,29.3
				c0,0.9-0.7,1.6-1.6,1.6c-0.9,0-1.6-0.7-1.6-1.6c0-0.9,0.7-1.6,1.6-1.6C56.2,27.8,56.9,28.5,56.9,29.3"/>
			<path style="clip-path:url(#SVGID_00000139279477919180999130000016979415679592047287_);fill:#FCB618;" d="M63.7,50.5
				c0,0.9-0.7,1.6-1.6,1.6c-0.9,0-1.6-0.7-1.6-1.6s0.7-1.6,1.6-1.6C63.1,48.9,63.7,49.6,63.7,50.5"/>
			<path style="clip-path:url(#SVGID_00000139279477919180999130000016979415679592047287_);fill:#FCB618;" d="M60.4,45.5
				c0,0.9-0.7,1.6-1.6,1.6c-0.9,0-1.6-0.7-1.6-1.6c0-0.9,0.7-1.6,1.6-1.6C59.7,44,60.4,44.7,60.4,45.5"/>
			<path style="clip-path:url(#SVGID_00000139279477919180999130000016979415679592047287_);fill:#FCB618;" d="M53.3,45.5
				c0,0.7-0.6,1.3-1.3,1.3c-0.7,0-1.3-0.6-1.3-1.3c0-0.7,0.6-1.3,1.3-1.3C52.7,44.3,53.3,44.8,53.3,45.5"/>
			<path style="clip-path:url(#SVGID_00000139279477919180999130000016979415679592047287_);fill:#FCB618;" d="M56.7,50.5
				c0,0.7-0.6,1.3-1.3,1.3s-1.3-0.6-1.3-1.3c0-0.7,0.6-1.3,1.3-1.3S56.7,49.8,56.7,50.5"/>
			<path style="clip-path:url(#SVGID_00000139279477919180999130000016979415679592047287_);fill:#FCB618;" d="M53.2,55.9
				c0,0.7-0.6,1.3-1.3,1.3s-1.3-0.6-1.3-1.3c0-0.7,0.6-1.3,1.3-1.3S53.2,55.2,53.2,55.9"/>
			<path style="clip-path:url(#SVGID_00000139279477919180999130000016979415679592047287_);fill:#FCB618;" d="M49.6,50.5
				c0,0.6-0.4,1-1,1c-0.6,0-1-0.4-1-1s0.4-1,1-1C49.1,49.5,49.6,50,49.6,50.5"/>
			<path style="clip-path:url(#SVGID_00000139279477919180999130000016979415679592047287_);fill:#FCB618;" d="M37.3,40.1
				c0,0.6-0.4,1-1,1s-1-0.4-1-1c0-0.6,0.4-1,1-1S37.3,39.5,37.3,40.1"/>
			<path style="clip-path:url(#SVGID_00000139279477919180999130000016979415679592047287_);fill:#FCB618;" d="M39.1,34.8
				c0,0.6-0.4,1-1,1c-0.6,0-1-0.4-1-1c0-0.6,0.4-1,1-1C38.7,33.8,39.1,34.2,39.1,34.8"/>
			<path style="clip-path:url(#SVGID_00000139279477919180999130000016979415679592047287_);fill:#FCB618;" d="M42.5,29.3
				c0,0.6-0.4,1-1,1c-0.6,0-1-0.4-1-1c0-0.6,0.4-1,1-1C42,28.3,42.5,28.8,42.5,29.3"/>
			<path style="clip-path:url(#SVGID_00000139279477919180999130000016979415679592047287_);fill:#FCB618;" d="M45.9,24.2
				c0,0.6-0.4,1-1,1c-0.6,0-1-0.4-1-1c0-0.6,0.4-1,1-1C45.5,23.2,45.9,23.6,45.9,24.2"/>
			<path style="clip-path:url(#SVGID_00000139279477919180999130000016979415679592047287_);fill:#FCB618;" d="M46,55.9
				c0,0.6-0.4,1-1,1c-0.6,0-1-0.4-1-1s0.4-1,1-1C45.5,54.9,46,55.4,46,55.9"/>
			<path style="clip-path:url(#SVGID_00000139279477919180999130000016979415679592047287_);fill:#FCB618;" d="M42.6,50.5
				c0,0.6-0.4,1-1,1s-1-0.4-1-1s0.4-1,1-1S42.6,50,42.6,50.5"/>
			<path style="clip-path:url(#SVGID_00000139279477919180999130000016979415679592047287_);fill:#FCB618;" d="M39,45.5
				c0,0.6-0.4,1-1,1c-0.6,0-1-0.4-1-1c0-0.6,0.4-1,1-1C38.6,44.5,39,45,39,45.5"/>
			<path style="clip-path:url(#SVGID_00000139279477919180999130000016979415679592047287_);fill:#FCB618;" d="M36.7,50.5
				c0,0.3-0.2,0.5-0.5,0.5c-0.3,0-0.5-0.2-0.5-0.5s0.2-0.5,0.5-0.5C36.5,50,36.7,50.2,36.7,50.5"/>
			<path style="clip-path:url(#SVGID_00000139279477919180999130000016979415679592047287_);fill:#FCB618;" d="M33.5,45.5
				c0,0.3-0.2,0.5-0.5,0.5c-0.3,0-0.5-0.2-0.5-0.5c0-0.3,0.2-0.5,0.5-0.5C33.2,45,33.5,45.3,33.5,45.5"/>
			<path style="clip-path:url(#SVGID_00000139279477919180999130000016979415679592047287_);fill:#FCB618;" d="M31.5,40
				c0,0.3-0.2,0.5-0.5,0.5s-0.5-0.2-0.5-0.5s0.2-0.5,0.5-0.5S31.5,39.7,31.5,40"/>
			<path style="clip-path:url(#SVGID_00000139279477919180999130000016979415679592047287_);fill:#FCB618;" d="M33.3,34.8
				c0,0.3-0.2,0.5-0.5,0.5s-0.5-0.2-0.5-0.5s0.2-0.5,0.5-0.5S33.3,34.5,33.3,34.8"/>
			<path style="clip-path:url(#SVGID_00000139279477919180999130000016979415679592047287_);fill:#FCB618;" d="M36.8,29.4
				c0,0.3-0.2,0.5-0.5,0.5c-0.3,0-0.5-0.2-0.5-0.5c0-0.3,0.2-0.5,0.5-0.5C36.6,28.9,36.8,29.1,36.8,29.4"/>
			<path style="clip-path:url(#SVGID_00000139279477919180999130000016979415679592047287_);fill:#FCB618;" d="M46.2,45.5
				c0,0.7-0.6,1.3-1.3,1.3s-1.3-0.6-1.3-1.3c0-0.7,0.6-1.3,1.3-1.3S46.2,44.8,46.2,45.5"/>
			<path style="clip-path:url(#SVGID_00000139279477919180999130000016979415679592047287_);fill:#FCB618;" d="M42.6,40.1
				c0,0.7-0.6,1.3-1.3,1.3c-0.7,0-1.3-0.6-1.3-1.3c0-0.7,0.6-1.3,1.3-1.3C42,38.8,42.6,39.4,42.6,40.1"/>
			<path style="clip-path:url(#SVGID_00000139279477919180999130000016979415679592047287_);fill:#FCB618;" d="M46.2,34.8
				c0,0.7-0.6,1.3-1.3,1.3s-1.3-0.6-1.3-1.3c0-0.7,0.6-1.3,1.3-1.3S46.2,34.1,46.2,34.8"/>
			<path style="clip-path:url(#SVGID_00000139279477919180999130000016979415679592047287_);fill:#FCB618;" d="M49.8,29.3
				c0,0.7-0.6,1.3-1.3,1.3s-1.3-0.6-1.3-1.3c0-0.7,0.6-1.3,1.3-1.3S49.8,28.6,49.8,29.3"/>
			<path style="clip-path:url(#SVGID_00000139279477919180999130000016979415679592047287_);fill:#FCB618;" d="M53.1,24.1
				c0,0.7-0.6,1.3-1.3,1.3s-1.3-0.6-1.3-1.3c0-0.7,0.6-1.3,1.3-1.3S53.1,23.4,53.1,24.1"/>
			<path style="clip-path:url(#SVGID_00000139279477919180999130000016979415679592047287_);fill:#FCB618;" d="M49.9,40.1
				c0,0.9-0.7,1.6-1.6,1.6c-0.9,0-1.6-0.7-1.6-1.6c0-0.9,0.7-1.6,1.6-1.6C49.2,38.5,49.9,39.2,49.9,40.1"/>
			<path style="clip-path:url(#SVGID_00000139279477919180999130000016979415679592047287_);fill:#FCB618;" d="M53.4,34.8
				c0,0.9-0.7,1.6-1.6,1.6c-0.9,0-1.6-0.7-1.6-1.6c0-0.9,0.7-1.6,1.6-1.6C52.7,33.2,53.4,33.9,53.4,34.8"/>
			<path style="clip-path:url(#SVGID_00000139279477919180999130000016979415679592047287_);fill:#FCB618;" d="M60.4,55.9
				c0,0.9-0.7,1.6-1.6,1.6c-0.9,0-1.6-0.7-1.6-1.6s0.7-1.6,1.6-1.6C59.7,54.4,60.4,55.1,60.4,55.9"/>
			
				<rect x="49.2" y="39.6" style="clip-path:url(#SVGID_00000139279477919180999130000016979415679592047287_);fill:#FCB618;" width="23" height="1"/>
			
				<rect x="53" y="34.3" style="clip-path:url(#SVGID_00000139279477919180999130000016979415679592047287_);fill:#FCB618;" width="7.2" height="1"/>
			<polygon style="clip-path:url(#SVGID_00000139279477919180999130000016979415679592047287_);fill:#FCB618;" points="63.3,40.5 
				59.4,34.3 60.5,34.3 64.5,40.5 			"/>
			
				<rect x="60.1" y="45.1" style="clip-path:url(#SVGID_00000139279477919180999130000016979415679592047287_);fill:#FCB618;" width="3.7" height="1"/>
			<polygon style="clip-path:url(#SVGID_00000139279477919180999130000016979415679592047287_);fill:#FCB618;" points="62.9,46 
				66.2,40.5 67.1,40.5 63.8,46 			"/>
		</g>
	</g>
</g>
</svg>
