<?xml version="1.0" encoding="UTF-8"?>
<svg id="svg8" xmlns="http://www.w3.org/2000/svg" version="1.1" xmlns:cc="http://creativecommons.org/ns#" xmlns:dc="http://purl.org/dc/elements/1.1/" xmlns:inkscape="http://www.inkscape.org/namespaces/inkscape" xmlns:rdf="http://www.w3.org/1999/02/22-rdf-syntax-ns#" xmlns:sodipodi="http://sodipodi.sourceforge.net/DTD/sodipodi-0.dtd" xmlns:svg="http://www.w3.org/2000/svg" viewBox="0 0 150 80">
  <defs>
    <style>
      .cls-1 {
        fill: #fec803;
      }

      .cls-1, .cls-2, .cls-3 {
        stroke-width: 0px;
      }

      .cls-2 {
        fill: #23307d;
      }

      .cls-3 {
        fill: #e9241d;
      }
    </style>
  </defs>
  <sodipodi:namedview id="base" bordercolor="#666666" borderopacity="1.0" inkscape:current-layer="layer1" inkscape:cx="53.118334" inkscape:cy="-1.6810012" inkscape:document-rotation="0" inkscape:document-units="mm" inkscape:pageopacity="0.0" inkscape:pageshadow="2" inkscape:showpageshadow="false" inkscape:window-height="745" inkscape:window-maximized="1" inkscape:window-width="1366" inkscape:window-x="-8" inkscape:window-y="-8" inkscape:zoom="7.9195959" pagecolor="#ffffff" showgrid="false" units="px"/>
  <g>
    <path class="cls-2" d="M87.4,14.9c-9.7,1.2-19.1,3-28.5,5.7-1.2.4-2,1.8-1.7,3,.7,2.7,1,4.1,1.7,6.8.3,1.1,1.5,1.8,2.6,1.4,9.6-3,19.2-5,29.2-6.4,1.1-.1,1.8-1.3,1.4-2.5-.9-2.5-1.3-3.7-2.2-6.2-.4-1.1-1.4-1.8-2.5-1.6Z"/>
    <path class="cls-1" d="M95.5,30c-15.2,1.9-30,5.7-44,11.9-1,.5-1.6,1.8-1.4,2.9.5,2.9.8,4.3,1.4,7.3.3,1.2,1.4,1.8,2.6,1.2,14.3-6.5,29.3-10.7,44.8-13.2,1-.1,1.5-1.3,1.1-2.4-.8-2.4-1.2-3.6-2-6-.4-1.1-1.4-1.9-2.4-1.8Z"/>
    <path class="cls-3" d="M95.3,46.2c-9.5,2-18.8,4.5-28,7.7-1.2.4-1.8,1.6-1.5,2.8.7,2.7,1.1,4.1,1.8,6.8.4,1.3,1.8,1.9,3.1,1.4,9.2-3.3,18.5-6.2,27.9-8.5.9-.2,1.4-1.3,1-2.4-.7-2.4-1.1-3.7-1.9-6.1-.4-1.2-1.5-2-2.5-1.8Z"/>
  </g>
</svg>