<?xml version="1.0" encoding="utf-8"?>
<!-- Generator: Adobe Illustrator 27.0.0, SVG Export Plug-In . SVG Version: 6.00 Build 0)  -->
<svg version="1.1" id="Capa_1" xmlns="http://www.w3.org/2000/svg" xmlns:xlink="http://www.w3.org/1999/xlink" x="0px" y="0px"
	 viewBox="0 0 78 15" style="enable-background:new 0 0 78 15;" xml:space="preserve">
<style type="text/css">
	.st0{fill:#174274;}
</style>
<g>
	<g>
		<defs>
			<path id="SVGID_1_" d="M70.3,0c-4.1,0.1-7.4,2.9-7.6,6.8c0,0.1,0,0.1,0,0.2v0.1c0,3.8,3,6.9,6.8,7c2,0.1,3.8-0.7,5.1-1.9
				c1.3-1.2,1.2-3.4,0.2-2.4c-1.1,1.1-2.7,1.7-4.4,1.7c-3.3-0.1-5.8-2.8-5.7-5.9c0.1-2.9,3-5.2,5.6-5.4L70.4,0H70.3z"/>
		</defs>
		<use xlink:href="#SVGID_1_"  style="overflow:visible;fill:#E2272B;"/>
		<clipPath id="SVGID_00000146499951177324525670000014882314241226983608_">
			<use xlink:href="#SVGID_1_"  style="overflow:visible;"/>
		</clipPath>
	</g>
	<g>
		<defs>
			<path id="SVGID_00000052071753143917442090000003260587953359616670_" d="M70.3,0.2c0.2,0,0.3,0,0.5,0c3.3,0.2,6,3-3.4,5.7V6
				c2.3,0.5,4.1,1.6,4.1,1.6C78.6,4,76,0.9,72.2,0.2L70.4,0L70.3,0.2z"/>
		</defs>
		<use xlink:href="#SVGID_00000052071753143917442090000003260587953359616670_"  style="overflow:visible;fill:#F7C720;"/>
		<clipPath id="SVGID_00000138542841072306656750000001986489373942836407_">
			<use xlink:href="#SVGID_00000052071753143917442090000003260587953359616670_"  style="overflow:visible;"/>
		</clipPath>
	</g>
	<g>
		<defs>
			<path id="SVGID_00000103973797791945665750000013225693122350877067_" d="M74.4,11.2c0-0.1,0-0.2-0.1-0.2
				c0.1,0.6,0.1,1.1-0.2,1.7c-0.6,1-1.6,1.8-3.4,2.3c4.8,0.2,10-4.6,5.1-9C73.6,6.9,74,9.4,74.4,11.2"/>
		</defs>
		<use xlink:href="#SVGID_00000103973797791945665750000013225693122350877067_"  style="overflow:visible;fill:#EFC71B;"/>
		<clipPath id="SVGID_00000132777430441304261520000009526138276441081510_">
			<use xlink:href="#SVGID_00000103973797791945665750000013225693122350877067_"  style="overflow:visible;"/>
		</clipPath>
	</g>
	<g>
		<defs>
			<path id="SVGID_00000072990783423380287370000016098751901124606374_" d="M71.6,4.7c-1.7,0.3-3,1-4.2,1.2V6c2.2,0.4,6.5,2.7,7,5
				c-0.5-2.2-0.7-5.2,3.3-5.5c-0.9-0.4-1.7-0.7-2.5-0.9H71.6z"/>
		</defs>
		<use xlink:href="#SVGID_00000072990783423380287370000016098751901124606374_"  style="overflow:visible;fill:#F1BB26;"/>
		<clipPath id="SVGID_00000148631413874328331250000014454246825466465409_">
			<use xlink:href="#SVGID_00000072990783423380287370000016098751901124606374_"  style="overflow:visible;"/>
		</clipPath>
	</g>
	<path class="st0" d="M17.8,9.2c-0.4,0.1-0.8,0.2-1.1,0.2c-0.8,0-1-0.7-1-1.3c0-0.9,0.3-1.4,1-1.4c0.3,0,0.6,0.1,0.6,0.1
		c0,0,0.6,0.2,0.6,0.2l0-0.8l-0.1,0c-0.2-0.1-0.7-0.3-1.3-0.3c-1.2,0-2,0.9-2,2.2c0,1.3,0.7,2.1,1.9,2.1c0.5,0,0.9-0.1,1.6-0.4
		l0.1,0L18,9.2L17.8,9.2z"/>
	<path class="st0" d="M4,7.1c0.5-0.2,0.8-0.6,0.8-1.2c0-0.6-0.3-1.1-0.8-1.3C3.6,4.4,3.3,4.4,2.2,4.4H0.1V5c0,0,0.5,0.1,0.7,0.1v5
		h1.7c0.8,0,1.2-0.1,1.6-0.2c0.6-0.3,0.9-0.8,0.9-1.4C4.9,7.7,4.6,7.3,4,7.1 M2,5.1h0.2h0.1c0.4,0,0.8,0,1,0.2
		c0.1,0.1,0.2,0.3,0.2,0.6c0,0.6-0.2,0.8-0.8,0.9c0,0-0.5,0.1-0.5,0.1c0,0-0.2,0.4-0.2,0.4V5.1z M3.4,9.2C3.1,9.4,2.7,9.4,2.2,9.4H2
		V7.5c0,0,0,0,0,0h0.4c0.4,0,0.8,0,1,0.2c0.2,0.2,0.3,0.4,0.3,0.7C3.7,8.7,3.6,9,3.4,9.2"/>
	<path class="st0" d="M37.6,7.1c0.5-0.2,0.8-0.6,0.8-1.2c0-0.6-0.3-1.1-0.8-1.3c-0.4-0.1-0.7-0.2-1.7-0.2h-2.1V5
		c0,0,0.5,0.1,0.7,0.1v5h1.7c0.8,0,1.2-0.1,1.6-0.2c0.6-0.3,0.9-0.8,0.9-1.4C38.6,7.7,38.3,7.3,37.6,7.1 M35.6,5.1h0.2H36
		c0.4,0,0.8,0,1,0.2c0.1,0.1,0.2,0.3,0.2,0.6c0,0.6-0.2,0.8-0.8,0.9c0,0-0.5,0.1-0.5,0.1c0,0-0.2,0.4-0.2,0.4V5.1z M37,9.2
		c-0.3,0.2-0.7,0.2-1.2,0.2h-0.2V7.5c0,0,0,0,0,0h0.4c0.4,0,0.8,0,1,0.2c0.2,0.2,0.3,0.4,0.3,0.7C37.4,8.7,37.2,9,37,9.2"/>
	<path class="st0" d="M12.9,5.9c-0.3,0-0.8,0.1-1.3,0.3c0-0.1,0-0.3,0-0.3L9.8,6.1v0.6h0.6v3.4h1.1c0,0,0-3,0-3.2
		c0.2-0.1,0.5-0.2,0.9-0.2c0.2,0,0.3,0,0.4,0.1C13,7,13,7.2,13,7.5l0,2.6h1.1V7.4c0-0.6,0-0.8-0.2-1.1C13.7,6,13.3,5.9,12.9,5.9"/>
	<path class="st0" d="M20.3,5.9c-1.3,0-2.1,0.8-2.1,2.2c0,1.3,0.8,2.1,2.1,2.1c1.3,0,2.1-0.8,2.1-2.2C22.4,6.7,21.6,5.9,20.3,5.9
		 M20.3,9.5c-0.4,0-0.9-0.1-0.9-1.4c0-1.2,0.4-1.4,0.9-1.4c0.4,0,0.9,0.1,0.9,1.4C21.2,9.3,20.8,9.5,20.3,9.5"/>
	<path class="st0" d="M50.2,5.9c-1.3,0-2.1,0.8-2.1,2.2c0,1.3,0.8,2.1,2.1,2.1c1.3,0,2.1-0.8,2.1-2.2C52.2,6.7,51.5,5.9,50.2,5.9
		 M50.2,9.5c-0.4,0-0.9-0.1-0.9-1.4c0-1.2,0.4-1.4,0.9-1.4C50.5,6.7,51,6.8,51,8C51,9.3,50.6,9.5,50.2,9.5"/>
	<path class="st0" d="M55,9.3l-0.8,0.1c-0.2,0-0.2,0-0.3-0.1c0,0,0-0.1,0-0.4c0,0,0-2,0-2.2H55V6h-1.1V4.9l-0.1,0l-1,0.1v3.9
		c0,0.4,0,0.7,0.2,0.9c0.2,0.2,0.4,0.3,0.8,0.3c0.4,0,0.8-0.1,1.2-0.3l0.1,0L55,9.3z"/>
	<path class="st0" d="M41.2,5.9c-1.3,0-2.1,0.8-2.1,2.2c0,1.3,0.8,2.1,2.1,2.1c1.3,0,2.1-0.8,2.1-2.2C43.3,6.7,42.5,5.9,41.2,5.9
		 M41.2,9.5c-0.4,0-0.9-0.1-0.9-1.4c0-1.2,0.4-1.4,0.9-1.4c0.4,0,0.9,0.1,0.9,1.4C42.1,9.3,41.6,9.5,41.2,9.5"/>
	<path class="st0" d="M46.5,6.2C46.2,6.1,45.9,6,45.6,6c-1.1,0-1.9,0.9-1.9,2.2c0,1.2,0.6,2,1.7,2c0.3,0,0.5-0.1,1.1-0.3v0.3
		c0,0.7-0.3,0.9-1.1,0.9c-0.4,0-0.9-0.1-1.4-0.2v0.7c0.9,0.2,1.2,0.2,1.6,0.2c0.6,0,1-0.1,1.4-0.3c0.5-0.3,0.7-0.6,0.7-1.4V6.1h-1.1
		V6.2z M46.5,9.3c-0.2,0-0.3,0-0.5,0c-0.7,0-1.1-0.4-1.1-1.3c0-0.9,0.4-1.3,1.2-1.3c0.1,0,0.2,0,0.4,0V9.3z"/>
	<path class="st0" d="M9.2,6.1H8.1v0.2C7.9,6.1,7.6,6,7.3,6C6.1,6,5.3,6.9,5.3,8.2c0,1.2,0.6,2,1.6,2c0.3,0,0.6-0.1,1.1-0.4v0.4l0,0
		L9.7,10V9.3H9.2V6.1z M8.1,9.3c-0.2,0-0.4,0.1-0.5,0.1c-0.7,0-1.1-0.5-1.1-1.3c0-0.9,0.4-1.4,1.2-1.4c0.1,0,0.2,0,0.4,0V9.3z"/>
	<path class="st0" d="M59.2,6.1h-1.1v0.2C57.8,6.1,57.5,6,57.2,6c-1.1,0-1.9,0.9-1.9,2.2c0,1.2,0.6,2,1.6,2c0.3,0,0.6-0.1,1.1-0.4
		v0.4l1.6-0.2V9.3h-0.5V6.1z M58.1,9.3c-0.2,0-0.4,0.1-0.5,0.1c-0.7,0-1.1-0.5-1.1-1.3c0-0.9,0.4-1.4,1.2-1.4c0.1,0,0.2,0,0.4,0V9.3
		z"/>
	<polygon class="st0" points="58.7,5.1 58.4,4.2 58.3,4.2 56.5,5 56.6,5.5 	"/>
	<path class="st0" d="M27.9,4.1L27.9,4.1l-0.2,0l-1.5,0.2v0.5h0.6v1.3c-0.4-0.2-1.1-0.3-1.6-0.1c-0.8,0.3-1.2,1-1.3,2
		c0,0.9,0.5,1.7,1.2,2c0.6,0.2,1.3,0,1.7-0.2c0,0.1,0,0.3,0,0.3l1.5-0.2V9.4h-0.5C27.8,9.3,27.9,4.1,27.9,4.1 M26.7,9.3
		c-0.5,0.1-1.1,0.2-1.5-0.2C25.1,8.8,25,8.4,25,8c0,0,0-0.1,0-0.1c0-0.4,0.1-0.7,0.3-1c0.4-0.4,1-0.3,1.4-0.1
		C26.8,6.8,26.7,9.2,26.7,9.3"/>
	<path class="st0" d="M30.6,5.9c-0.3,0-0.5,0-0.7,0.1c-0.8,0.3-1.3,1-1.3,2.1c0,1,0.5,1.8,1.3,2c0.7,0.2,1.8,0,2.4-0.4l0,0l-0.2-0.6
		l-0.4,0.1c-0.5,0.1-1.2,0.4-1.7-0.1c-0.2-0.3-0.3-0.7-0.3-1l2.2,0h0.3l0,0c0-0.1,0-0.2,0-0.3C32.4,5.9,30.7,5.9,30.6,5.9 M29.8,7.5
		c0-0.1,0-0.9,0.8-0.9c0.8,0,0.8,0.8,0.8,0.9H29.8z"/>
</g>
</svg>
