<?xml version="1.0" encoding="utf-8"?>
<!-- Generator: Adobe Illustrator 27.0.0, SVG Export Plug-In . SVG Version: 6.00 Build 0)  -->
<svg version="1.1" id="Capa_1" xmlns="http://www.w3.org/2000/svg" xmlns:xlink="http://www.w3.org/1999/xlink" x="0px" y="0px"
	 viewBox="0 0 46 15" style="enable-background:new 0 0 46 15;" xml:space="preserve">
<style type="text/css">
	.st0{clip-path:url(#SVGID_00000070086203220724551430000013265883913215598260_);fill:#010101;}
</style>
<g>
	<defs>
		<rect id="SVGID_1_" x="0" width="46" height="15"/>
	</defs>
	<clipPath id="SVGID_00000006671527731874686730000004924690291686796464_">
		<use xlink:href="#SVGID_1_"  style="overflow:visible;"/>
	</clipPath>
	<path style="clip-path:url(#SVGID_00000006671527731874686730000004924690291686796464_);fill:#010101;" d="M15.1,7.5
		c-0.8,4.1-4.8,7.5-8.9,7.5s-6.9-3.4-6.1-7.5C0.9,3.4,4.9,0,9.1,0C13.2,0,15.9,3.4,15.1,7.5 M11.1,1.1C13.3,2,14.6,4.3,14,7
		c-0.1,0.6-0.3,1.1-0.5,1.7c0,0,0,0,0,0c-0.3,0.6-0.6,1.1-1,1.6c0,0,0,0,0,0.1c0,0,0,0-0.1,0.1c-0.9,1.1-2.1,2-3.5,2.5
		c0,0-0.1,0-0.1,0c0,0-0.1,0-0.1,0c0,0,0,0,0,0h0c0,0,0,0,0,0v0c0,0,0,0,0,0c0,0,0,0,0,0l0-0.7c0.7-0.1,1.3-0.4,1.8-0.9
		c0.6-0.6,0.9-1.4,0.8-2.2c0-0.7-0.3-1.3-0.8-1.7C9.9,6.9,9.3,6.6,8.7,6.3l-0.1,0C8.1,6,7.6,5.8,7.2,5.5C7,5.3,6.8,5.1,6.7,4.8
		c0-0.2,0-0.3,0.1-0.4c0.2-0.2,0.6-0.3,0.9-0.3h0c0.6,0,1.2,0.2,1.7,0.4c0,0,0.1,0,0.1,0c0.3,0,0.6-0.2,0.7-0.5
		c0.1-0.2,0.2-0.4,0.2-0.7c0-0.1,0-0.2-0.1-0.2C9.9,2.7,9.3,2.5,8.7,2.4c0,0,0,0-0.1,0c0,0,0,0,0,0c0,0,0-0.8,0.1-1.1
		c0-0.1,0-0.2,0-0.3c0-0.1-0.2-0.2-0.3-0.2c0,0,0,0,0,0C7.4,0.8,6.5,1,5.6,1.5c-2.4,1.1-4.3,3.4-4.8,6c-0.6,3,0.8,5.5,3.3,6.4
		C2,13,0.7,10.7,1.2,8c0.1-0.6,0.3-1.1,0.5-1.7c0,0,0,0,0,0C1.9,6,2,5.8,2.2,5.6C3.1,4.1,4.3,3,5.9,2.3v0C6.1,2.2,6.4,2.1,6.7,2
		c0,0,0,0,0,0h0l0,0c0,0,0,0,0,0v0c0,0,0,0,0,0l0,0.4C6.1,2.6,5.6,2.9,5.1,3.3C4.1,4.3,4,6,5,7.1C5.4,7.6,6,8,6.7,8.3l0,0
		c0.5,0.2,1.1,0.5,1.6,0.8c0.4,0.3,0.5,0.5,0.5,0.7v0c0,0.2-0.1,0.4-0.2,0.5c-0.2,0.2-0.6,0.3-0.9,0.3h0c-0.8,0-1.5-0.2-2.2-0.6l0,0
		c0,0,0,0,0,0C5.4,9.9,5.2,9.9,5.1,9.9h0C5,9.9,4.9,9.9,4.8,10c-0.1,0.1-0.2,0.2-0.2,0.3c-0.1,0.3-0.2,0.6-0.2,0.9
		c0,0.1,0,0.1,0,0.2c0,0.1,0.1,0.1,0.1,0.2c0.7,0.5,1.4,0.8,2.2,0.8c0,0,0,0,0.1,0c0,0,0,0,0,0c0,0.4,0,0.8,0,1.2c0,0.1,0,0.3,0,0.4
		c0,0,0,0.1,0.1,0.1c0,0.1,0.1,0.1,0.2,0.1c0,0,0,0,0,0c0,0,0,0,0.1,0c0.1,0,0.3,0,0.4-0.1l0,0C8,14.1,8.5,14,9,13.8c0,0,0,0,0,0
		c0.1,0,0.2-0.1,0.2-0.1c0,0,0,0,0,0c0.1,0,0.2-0.1,0.2-0.1c0,0,0,0,0,0c2.4-1.1,4.4-3.4,4.9-6.1C15,4.6,13.6,2.1,11.1,1.1"/>
	<path style="clip-path:url(#SVGID_00000006671527731874686730000004924690291686796464_);fill:#010101;" d="M17.7,8.2
		c0,1,0.7,1.7,1.7,1.7c0.5,0,1-0.1,1.4-0.4l0.4,0.9c-0.6,0.4-1.2,0.5-1.9,0.5c-2,0-2.8-1.4-2.8-3c0-1.7,0.9-3,2.5-3
		c1.5,0,2.4,1.1,2.4,3v0.3L17.7,8.2z M20,7.3c0-0.7-0.4-1.4-1.2-1.4c-0.8,0-1.2,0.7-1.2,1.4H20z"/>
	<path style="clip-path:url(#SVGID_00000006671527731874686730000004924690291686796464_);fill:#010101;" d="M22.5,6.1h-0.6l-0.4-1
		h1V4.2c0-1.4,0.8-2,1.8-2c0.4,0,0.7,0.1,1.1,0.2l-0.3,1c-0.2-0.1-0.4-0.1-0.7-0.1c-0.5,0-0.7,0.3-0.7,0.9v0.9h1.6l-0.4,1h-1.1v4.7
		h-1.2L22.5,6.1z"/>
	<path style="clip-path:url(#SVGID_00000006671527731874686730000004924690291686796464_);fill:#010101;" d="M26.6,8.2
		c0,1,0.7,1.7,1.7,1.7c0.5,0,1-0.1,1.4-0.4l0.4,0.9c-0.6,0.4-1.2,0.5-1.9,0.5c-2,0-2.8-1.4-2.8-3c0-1.7,0.9-3,2.5-3
		c1.5,0,2.4,1.1,2.4,3v0.3L26.6,8.2z M29,7.3c0-0.7-0.4-1.4-1.2-1.4c-0.8,0-1.2,0.7-1.2,1.4H29z"/>
	<path style="clip-path:url(#SVGID_00000006671527731874686730000004924690291686796464_);fill:#010101;" d="M30.9,8
		c0-1.7,1.2-3,2.9-3c0.5,0,1,0.1,1.5,0.4v1.1C34.9,6.1,34.4,6,33.9,6c-1.1,0-1.8,0.8-1.8,2c0,1.2,0.7,1.9,1.7,1.9
		c0.5,0,0.9-0.1,1.3-0.4l0.4,0.9c-0.6,0.4-1.2,0.5-1.9,0.5C31.9,10.9,30.9,9.6,30.9,8"/>
	<path style="clip-path:url(#SVGID_00000006671527731874686730000004924690291686796464_);fill:#010101;" d="M44.7,5.1l-1.4,4.2h0
		c0,0-1.1-2.5-1.4-3.4c-0.1-0.2-0.4-0.8-1.3-0.8h-2.5V3.4l-1.2,0.4v1.3h-1v1h1v3.3c0,0.9,0.6,1.5,1.5,1.5c0.6,0,1.1-0.1,1.6-0.4
		l-0.4-0.9c-0.3,0.2-0.6,0.3-0.9,0.3c-0.4,0-0.6-0.2-0.6-0.7V6.1h2.5l2.1,4.7c-0.4,1.4-1,1.8-1.7,1.8c-0.3,0-0.6-0.1-0.8-0.2l-0.3,1
		c0.4,0.2,0.8,0.2,1.2,0.2c1,0,1.9-0.3,2.7-2.6L46,5.1L44.7,5.1z"/>
</g>
</svg>
