<?xml version="1.0" encoding="utf-8"?>
<!-- Generator: Adobe Illustrator 24.1.1, SVG Export Plug-In . SVG Version: 6.00 Build 0)  -->
<svg version="1.1" id="Capa_1" xmlns="http://www.w3.org/2000/svg" xmlns:xlink="http://www.w3.org/1999/xlink" x="0px" y="0px"
	 viewBox="0 0 202 104" style="enable-background:new 0 0 202 104;" xml:space="preserve">
<style type="text/css">
	.st0{fill:#E4E4E4;}
	.st1{fill:#122D80;}
</style>
<path class="st0" d="M167.5,0.7H0V80h202V35.3C202,16.2,186.5,0.7,167.5,0.7z"/>
<path class="st1" d="M32.4,7H6.2v66.8h26.2V7z"/>
<path class="st1" d="M115.3,54.9c0,10.5-7.5,18.9-29.2,18.9H42.9V7h45c20.9,0,25.9,9.5,25.9,18.1c0,7.9-4.1,10.7-8.2,13.2v1.4
	C111.6,43.3,115.3,47.6,115.3,54.9z M69,26.8v6.8h15.8c3.7,0,4-2.6,4-3.3c0-1-0.2-3.5-4-3.5H69z M88.9,50.4c0-0.6-0.2-3.4-3.8-3.4
	H69v6.9h16.1C88.8,53.9,88.9,51,88.9,50.4z"/>
<path class="st1" d="M194.8,73.8h-13l-0.4-7.6h-0.5c-4.8,5.7-12.9,9.9-24.2,9.9C136,76,120,62,120,40.4c0-21.7,15-35.6,39.1-35.6
	c16.7,0,33.9,8.2,35.9,27H169c-0.6-1.5-3.8-4.5-9.3-4.5c-8.2,0-13.7,4.8-13.7,13.1s5.7,13.1,12.8,13.1c1.2,0,8.5,0.3,10.8-5.8h-10
	c-0.9,0-1.6-0.7-1.6-1.6V35.8h36.7V73.8z"/>
<path class="st0" d="M4.4,91.2H0.2v11.6h4.2V91.2z"/>
<path class="st0" d="M5.2,91.2h4.3l2.6,7.7h0.4l2.6-7.7h4.3l-4.2,11.6H9.4L5.2,91.2z"/>
<path class="st0" d="M26.6,101.4h-4.7l-0.4,1.4h-4.3l4.2-11.6h5.9l4.2,11.6h-4.3L26.6,101.4z M26.1,90.5h-3.7l1-2.5h3.7L26.1,90.5z
	 M25.6,98.3l-1-3.2h-0.7l-1,3.2H25.6z"/>
<path class="st0" d="M32.2,91.2H37l3.4,5.8h0.4v-5.8h4.1v11.6h-4.7L36.7,97h-0.4v5.8h-4.1V91.2z"/>
<path class="st0" d="M62.3,99.5c0,1.9-1.3,3.3-5,3.3H50V91.2h7.5c3.6,0,4.5,1.6,4.5,3.1c0,1.3-0.7,1.9-1.4,2.3v0.2
	C61.6,97.4,62.3,98.2,62.3,99.5z M54.2,94.4v1.5h2.9c0.8,0,0.9-0.4,0.9-0.7c0-0.3-0.2-0.7-0.9-0.7H54.2z M58.1,98.8
	c0-0.3-0.2-0.8-0.9-0.8h-2.9v1.6h2.9C57.9,99.6,58.1,99.1,58.1,98.8z"/>
<path class="st0" d="M63.1,97c0-3.7,2.6-6.2,6.6-6.2c4.1,0,6.7,2.4,6.7,6.2c0,3.7-2.6,6.2-6.7,6.2C65.7,103.2,63.1,100.7,63.1,97z
	 M72.2,97c0-1.7-1.1-2.6-2.5-2.6c-1.3,0-2.5,0.9-2.5,2.6c0,1.7,1.2,2.6,2.5,2.6C71,99.6,72.2,98.7,72.2,97z"/>
<path class="st0" d="M89.2,94.7h-4.1v8.1h-4.2v-8.1h-4.1v-3.5h12.4V94.7z"/>
<path class="st0" d="M90.4,91.2h10.7v3.3h-6.5v1.1h6.3v2.7h-6.3v1.1h6.5v3.3H90.4V91.2z"/>
<path class="st0" d="M110.6,102.8l-1.5-2.8h-2.6v2.8h-4.2V91.2h6.8c3.3,0,5.1,1.4,5.1,4.5c0,1.5-0.7,2.6-1.6,3.3l2,3.8H110.6z
	 M106.5,96.8h2.4c0.8,0,1.2-0.4,1.2-1.1c0-0.7-0.4-1.1-1.2-1.1h-2.4V96.8z"/>
<path class="st0" d="M115.2,97c0-3.7,2.6-6.2,6.6-6.2c4.1,0,6.7,2.4,6.7,6.2c0,3.7-2.6,6.2-6.7,6.2
	C117.8,103.2,115.2,100.7,115.2,97z M124.3,97c0-1.7-1.1-2.6-2.5-2.6c-1.3,0-2.5,0.9-2.5,2.6c0,1.7,1.2,2.6,2.5,2.6
	C123.2,99.6,124.3,98.7,124.3,97z"/>
<path class="st0" d="M146.2,102.8H144l-0.1-1.4h0c-0.8,1.1-2.2,1.8-4.3,1.8c-3.6,0-6.3-2.4-6.3-6.2c0-3.7,2.6-6.2,6.7-6.2
	c2.8,0,5.7,1.4,6.1,4.6H142c-0.2-0.4-0.8-1-1.9-1c-1.6,0-2.7,1-2.7,2.6c0,1.6,1.1,2.6,2.5,2.6c0.4,0,1.8,0,2.1-1.3h-2.3v-2h6.3
	L146.2,102.8L146.2,102.8z"/>
<path class="st0" d="M147.3,97c0-3.7,2.6-6.2,6.7-6.2c4.1,0,6.7,2.5,6.7,6.2c0,3.7-2.6,6.2-6.7,6.2
	C149.9,103.2,147.3,100.7,147.3,97z M156.4,97c0-1.7-1.1-2.6-2.5-2.6c-1.3,0-2.5,0.9-2.5,2.6s1.2,2.6,2.5,2.6
	C155.3,99.6,156.4,98.7,156.4,97z M153.1,87.9h3.7l-1,2.5H152L153.1,87.9z"/>
<path class="st0" d="M161.6,91.2h5.3l1.6,6.1h0.3l1.6-6.1h5.3v11.6h-4v-4.5h-0.3l-1.1,4.5H167l-1.1-4.5h-0.3v4.5h-4V91.2z"/>
<path class="st0" d="M176.8,91.2h10.7v3.3H181v1.1h6.3v2.7H181v1.1h6.5v3.3h-10.7V91.2z"/>
<path class="st0" d="M188.6,99.4l5.6-4.5v-0.3h-5.5v-3.5h11v3.4l-5.7,4.5v0.3h5.7v3.5h-11V99.4z"/>
</svg>
