<?xml version="1.0" encoding="utf-8"?>
<!-- Generator: Adobe Illustrator 28.1.0, SVG Export Plug-In . SVG Version: 6.00 Build 0)  -->
<svg version="1.1" id="Capa_1" xmlns="http://www.w3.org/2000/svg" xmlns:xlink="http://www.w3.org/1999/xlink" x="0px" y="0px"
	 viewBox="0 0 87.3 233.9" style="enable-background:new 0 0 87.3 233.9;" xml:space="preserve">
<style type="text/css">
	.st0{fill:#0081C9;}
	.st1{fill:#FFFFFF;}
	.st2{clip-path:url(#SVGID_00000043443327059424269150000014417243039967010237_);fill:#034EA2;}
	.st3{clip-path:url(#SVGID_00000043443327059424269150000014417243039967010237_);fill:#FFFFFF;}
	.st4{fill:#009ED6;}
	.st5{font-family:'ArialNarrow';}
	.st6{font-size:10.2172px;}
	.st7{fill:#00A4DE;}
</style>
<g>
	<g>
		<path class="st0" d="M22,191.7c-6.1,0-11-4.9-11-11v-74c0-6.1,4.9-11,11-11h43.4c6.1,0,11,4.9,11,11v74c0,6.1-4.9,11-11,11H22z
			 M14,180.7c0,4.4,3.6,7.9,7.9,7.9h43.4c4.4,0,7.9-3.6,7.9-7.9v-25.3c-8.9,5.3-19.1,8.1-29.6,8.1c-10.5,0-20.7-2.8-29.6-8.1V180.7z
			"/>
		<path class="st1" d="M65.3,96.5c5.7,0,10.2,4.6,10.2,10.2v74c0,5.7-4.6,10.2-10.2,10.2H22c-5.7,0-10.2-4.6-10.2-10.2v-74
			c0-5.7,4.6-10.2,10.2-10.2H65.3z M22,189.4h43.4c4.8,0,8.7-3.9,8.7-8.7V154c-8.8,5.5-19.2,8.7-30.3,8.7c-11.2,0-21.6-3.2-30.4-8.7
			v26.7C13.3,185.5,17.2,189.4,22,189.4 M65.3,95H22c-6.5,0-11.8,5.3-11.8,11.8v74c0,6.5,5.3,11.8,11.8,11.8h43.4
			c6.5,0,11.8-5.3,11.8-11.8v-74C77.1,100.3,71.8,95,65.3,95 M22,187.9c-3.9,0-7.1-3.2-7.1-7.1v-24c8.8,4.9,18.7,7.5,28.9,7.5
			c10.1,0,20-2.6,28.8-7.5v24c0,3.9-3.2,7.1-7.1,7.1H22z"/>
		<path class="st1" d="M74,154v26.7c0,4.8-3.9,8.7-8.7,8.7H22c-4.8,0-8.7-3.9-8.7-8.7V154c8.8,5.5,19.2,8.7,30.4,8.7
			C54.8,162.7,65.2,159.5,74,154"/>
		<rect x="23.8" y="171" class="st0" width="1.4" height="7.3"/>
		<path class="st0" d="M26.6,177.8l0.3-1.1c0.3,0.1,0.6,0.3,0.9,0.4c0.3,0.1,0.6,0.2,0.9,0.2c0.4,0,0.8-0.1,1-0.2
			c0.2-0.1,0.3-0.3,0.3-0.6c0-0.2-0.1-0.3-0.3-0.5c-0.2-0.1-0.4-0.3-0.8-0.5l-0.3-0.2c-0.5-0.3-0.9-0.5-1.1-0.7
			c-0.3-0.2-0.5-0.5-0.7-0.7c-0.2-0.3-0.3-0.6-0.3-1c0-0.4,0.1-0.7,0.3-1c0.2-0.3,0.5-0.5,0.9-0.7c0.4-0.2,0.8-0.3,1.3-0.3
			c0.6,0,1.3,0.2,2.1,0.5l-0.5,1.1c-0.3-0.1-0.6-0.3-0.8-0.3c-0.2-0.1-0.5-0.1-0.8-0.1c-0.3,0-0.6,0.1-0.8,0.2
			c-0.2,0.1-0.3,0.3-0.3,0.6c0,0.2,0.1,0.4,0.2,0.5c0.2,0.1,0.4,0.3,0.8,0.5l0.3,0.2l0.3,0.2c0.4,0.2,0.8,0.5,1,0.6
			c0.3,0.2,0.5,0.4,0.6,0.7c0.2,0.3,0.3,0.6,0.3,0.9c0,0.4-0.1,0.7-0.3,1c-0.2,0.3-0.5,0.5-0.9,0.7c-0.4,0.2-0.9,0.3-1.5,0.3
			c-0.3,0-0.7-0.1-1.1-0.2S26.8,177.9,26.6,177.8"/>
		<path class="st0" d="M35.7,170.8c0.7,0,1.4,0.2,1.9,0.5c0.5,0.3,1,0.8,1.2,1.4c0.3,0.6,0.4,1.2,0.4,1.9c0,0.7-0.1,1.4-0.5,2
			c-0.3,0.6-0.7,1-1.3,1.4c-0.5,0.3-1.2,0.5-1.9,0.5c-0.7,0-1.4-0.2-1.9-0.5c-0.5-0.3-1-0.8-1.2-1.4c-0.3-0.6-0.4-1.2-0.4-1.9
			c0-0.7,0.1-1.4,0.4-2c0.3-0.6,0.7-1,1.3-1.4S35,170.8,35.7,170.8 M33.6,174.6c0,0.5,0.1,1,0.3,1.4c0.2,0.4,0.4,0.7,0.7,0.9
			c0.3,0.2,0.7,0.3,1.1,0.3c0.4,0,0.8-0.1,1.1-0.3c0.3-0.2,0.6-0.5,0.8-0.9c0.2-0.4,0.3-0.9,0.3-1.5c0-0.5-0.1-1-0.3-1.3
			c-0.2-0.4-0.4-0.7-0.7-0.9c-0.3-0.2-0.7-0.3-1.1-0.3c-0.4,0-0.7,0.1-1.1,0.3c-0.3,0.2-0.6,0.5-0.8,0.9
			C33.7,173.7,33.6,174.1,33.6,174.6"/>
		<path class="st0" d="M46.1,172.4c0.4,0.2,0.7,0.5,1,1c0.2,0.4,0.4,0.9,0.4,1.6c0,0.8-0.2,1.5-0.7,2.1c-0.4,0.6-1,1.1-1.6,1.4
			c-0.6,0.3-1.3,0.6-1.9,0.6l-0.2-1.2c1.3-0.4,2.2-0.9,2.7-1.6c-0.3,0.2-0.7,0.2-1.1,0.2c-0.4,0-0.8-0.1-1.2-0.3
			c-0.4-0.2-0.6-0.5-0.8-0.8c-0.2-0.3-0.3-0.7-0.3-1.1c0-0.4,0.1-0.8,0.3-1.2c0.2-0.3,0.5-0.6,0.8-0.8c0.4-0.2,0.7-0.3,1.2-0.3
			C45.2,172.1,45.7,172.2,46.1,172.4 M43.9,175.1c0.2,0.2,0.5,0.3,0.8,0.3c0.6,0,1-0.1,1.4-0.4c0-0.6-0.1-1-0.4-1.3
			c-0.3-0.3-0.6-0.4-1-0.4c-0.3,0-0.6,0.1-0.8,0.3c-0.2,0.2-0.3,0.4-0.3,0.7C43.6,174.6,43.7,174.9,43.9,175.1"/>
		<path class="st0" d="M48,175.2c0-0.6,0.1-1.1,0.4-1.6c0.3-0.5,0.6-0.9,1.1-1.1c0.5-0.3,1-0.4,1.5-0.4c0.6,0,1.1,0.1,1.5,0.4
			c0.5,0.3,0.8,0.6,1.1,1.1c0.3,0.5,0.4,1,0.4,1.6c0,0.6-0.1,1.2-0.4,1.7c-0.3,0.5-0.6,0.9-1.1,1.2c-0.5,0.3-1,0.4-1.5,0.4
			c-0.6,0-1.1-0.1-1.5-0.4c-0.5-0.3-0.8-0.7-1.1-1.1C48.1,176.4,48,175.8,48,175.2 M49.3,175.2c0,0.4,0.1,0.7,0.2,1
			c0.1,0.3,0.4,0.6,0.6,0.7c0.3,0.2,0.6,0.3,0.9,0.3c0.3,0,0.6-0.1,0.9-0.3c0.3-0.2,0.5-0.4,0.6-0.7c0.1-0.3,0.2-0.6,0.2-1
			c0-0.4-0.1-0.7-0.2-1c-0.2-0.3-0.4-0.5-0.6-0.7c-0.3-0.2-0.6-0.3-0.9-0.3c-0.3,0-0.6,0.1-0.9,0.3c-0.3,0.2-0.5,0.4-0.6,0.7
			C49.4,174.5,49.3,174.8,49.3,175.2"/>
		<path class="st0" d="M54.5,175.2c0-0.6,0.1-1.1,0.4-1.6c0.3-0.5,0.6-0.9,1.1-1.1s1-0.4,1.5-0.4c0.6,0,1.1,0.1,1.5,0.4
			c0.5,0.3,0.8,0.6,1.1,1.1c0.3,0.5,0.4,1,0.4,1.6c0,0.6-0.1,1.2-0.4,1.7c-0.3,0.5-0.6,0.9-1.1,1.2c-0.5,0.3-1,0.4-1.5,0.4
			c-0.6,0-1.1-0.1-1.5-0.4c-0.5-0.3-0.8-0.7-1.1-1.1C54.6,176.4,54.5,175.8,54.5,175.2 M55.8,175.2c0,0.4,0.1,0.7,0.2,1
			c0.1,0.3,0.4,0.6,0.6,0.7c0.3,0.2,0.6,0.3,0.9,0.3c0.3,0,0.6-0.1,0.9-0.3c0.3-0.2,0.5-0.4,0.6-0.7c0.1-0.3,0.2-0.6,0.2-1
			c0-0.4-0.1-0.7-0.2-1c-0.2-0.3-0.4-0.5-0.6-0.7c-0.3-0.2-0.6-0.3-0.9-0.3c-0.3,0-0.6,0.1-0.9,0.3c-0.3,0.2-0.5,0.4-0.6,0.7
			C55.9,174.5,55.8,174.8,55.8,175.2"/>
		<polygon class="st0" points="62.6,178.3 62.6,173.7 61.4,174.2 60.9,173.2 63.1,172.2 64,172.2 64,178.3 		"/>
		<path class="st1" d="M43.6,125.2c-2.7,0-4.9-2.2-4.9-4.9c0-2.7,2.2-4.9,4.9-4.9c2.7,0,4.9,2.2,4.9,4.9
			C48.6,123,46.4,125.2,43.6,125.2 M43.6,117.2c-1.7,0-3.1,1.4-3.1,3.1c0,1.7,1.4,3.1,3.1,3.1c1.7,0,3.1-1.4,3.1-3.1
			C46.7,118.6,45.4,117.2,43.6,117.2"/>
		<path class="st1" d="M34.6,128c-1.8-2.1-2.9-4.8-2.9-7.8c0-2.4,0.7-4.6,1.9-6.4l-1.5-1.1c-1.4,2.2-2.2,4.7-2.3,7.5
			c0,3.5,1.3,6.6,3.4,9.1L34.6,128z"/>
		<path class="st1" d="M33.3,111.2l1.3,1.3c0.4-0.5,0.8-0.9,1.3-1.3l-1.3-1.3C34.1,110.3,33.7,110.8,33.3,111.2"/>
		<path class="st1" d="M43.7,106.5c-2.8,0-5.4,0.8-7.6,2.3l1.1,1.5c1.9-1.2,4.1-1.9,6.5-1.9c3.1,0,6,1.2,8.2,3.3l1.6-1
			C50.9,108,47.4,106.5,43.7,106.5"/>
		<path class="st1" d="M49.2,125.4c-1.4,1.5-3.3,2.4-5.5,2.4c-4.1,0-7.5-3.4-7.5-7.5c0-4.1,3.4-7.5,7.5-7.5c1.5,0,3,0.5,4.2,1.3
			l1.7-1c-1.6-1.3-3.7-2.1-5.9-2.1c-5.1,0-9.3,4.2-9.3,9.3c0,5.1,4.2,9.3,9.3,9.3c2.8,0,5.3-1.2,7-3.1L49.2,125.4z"/>
		<path class="st1" d="M50.3,130.2c-1.9,1.3-4.2,2-6.7,2c-3,0-5.7-1.1-7.8-2.9l-1.3,1.3c2.4,2.1,5.6,3.4,9.1,3.4
			c2.9,0,5.6-0.9,7.8-2.4L50.3,130.2z"/>
		<path class="st1" d="M54.7,112l-5.3,3.3c0,0,1.8,2.1,1.8,5c0,1.3-0.3,2.6-0.9,3.6l1.5,1.1c0.8-1.4,1.3-3,1.3-4.7
			c0-1.5-0.4-3-1.1-4.4l2.2-1.4c1,1.8,1.5,3.7,1.5,5.8c0,3.5-1.5,6.6-3.9,8.8l1.1,1.4c2.8-2.5,4.6-6.2,4.6-10.2
			C57.4,115.4,54.7,112,54.7,112"/>
		<path class="st1" d="M33.9,140.9c-2.1,0-3.9,1.7-3.9,3.8c0,2.1,1.7,3.9,3.9,3.9c2.1,0,3.9-1.7,3.9-3.8
			C37.7,142.6,36,140.9,33.9,140.9 M33.8,147c-1.3,0-2.3-1-2.3-2.3c0-1.3,1-2.3,2.3-2.3c1.3,0,2.3,1,2.3,2.3
			C36.1,146,35.1,147,33.8,147"/>
		<path class="st1" d="M20.9,148.4l-1.6,0l0-6.6l1.6,0L20.9,148.4z M20.1,140.9c-0.5,0-1-0.4-1-1c0-0.5,0.4-1,1-1c0.5,0,1,0.4,1,1
			C21.1,140.5,20.7,140.9,20.1,140.9"/>
		<path class="st1" d="M42.9,140.9c-2.1,0-3.9,1.7-3.9,3.8c0,0,0,3.7,0,3.7l1.7,0l0-3.8c0-1.2,1-2.2,2.2-2.2c1.2,0,2.1,0.9,2.2,2.1
			l0,3.9l1.7,0l0-3.7C46.7,142.6,45,140.9,42.9,140.9"/>
		<path class="st1" d="M51.9,147.1L51.9,147.1c0,0-0.3,0-0.4,0c-0.7,0-1-0.2-1-1.2l0-3.8l1.4,0l0-1.3l-1.4,0l0-1.5l-1.7,0l0,1.5
			l-1,0v1.2l1,0l0,3.5c0,0.5,0,1.3,0.4,1.9c0.4,0.7,1,1,1.9,1c0.4,0,0.8-0.1,0.8-0.1L51.9,147.1z"/>
		<path class="st1" d="M26.3,148.6c-2.1,0-3.9-1.7-3.9-3.9c0-2.1,1.7-3.9,3.9-3.9c1.8,0,2.8,1.2,2.8,1.2l-1,1.3c0,0-0.6-0.9-1.8-0.9
			c-1.2,0-2.3,1-2.3,2.3c0,1.2,1,2.3,2.3,2.3c1.2,0,1.8-0.9,1.8-0.9l1,1.3C29.1,147.4,28.1,148.6,26.3,148.6"/>
		<path class="st1" d="M65.4,148.6c-2.1,0-3.9-1.7-3.9-3.9c0-2.1,1.7-3.9,3.9-3.9c1.8,0,2.8,1.2,2.8,1.2l-1,1.3c0,0-0.6-0.9-1.8-0.9
			c-1.2,0-2.3,1-2.3,2.3c0,1.2,1,2.3,2.3,2.3c1.2,0,1.8-0.9,1.8-0.9l1,1.3C68.2,147.4,67.2,148.6,65.4,148.6"/>
		<path class="st1" d="M56.7,140.8c-2.3,0-3.6,1.9-3.6,3.9c0,2.3,1.6,3.9,3.9,3.9c2.3,0,3.2-1.7,3.2-1.7l-1.2-0.9c0,0-0.6,1.1-2,1.1
			c-1.2,0-2.1-0.8-2.2-1.9l5.5,0c0,0,0-0.4,0-0.5C60.3,143.1,59.4,140.8,56.7,140.8 M54.8,143.9c0.1-1,0.9-1.6,1.9-1.6
			c1,0,1.8,0.6,1.8,1.6L54.8,143.9z"/>
	</g>
	<g>
		<g>
			<defs>
				<rect id="SVGID_1_" x="0" width="87.3" height="87.1"/>
			</defs>
			<clipPath id="SVGID_00000066476271804327430960000002858793629103390638_">
				<use xlink:href="#SVGID_1_"  style="overflow:visible;"/>
			</clipPath>
			<path style="clip-path:url(#SVGID_00000066476271804327430960000002858793629103390638_);fill:#034EA2;" d="M87.3,43.7
				c-0.1,24.1-19.7,43.6-43.8,43.5C19.4,87.1-0.1,67.5,0,43.4C0.1,19.3,19.7-0.2,43.8-0.1S87.3,19.6,87.3,43.7"/>
			
				<rect x="16.8" y="37.5" style="clip-path:url(#SVGID_00000066476271804327430960000002858793629103390638_);fill:#FFFFFF;" width="2.8" height="13.5"/>
			<path style="clip-path:url(#SVGID_00000066476271804327430960000002858793629103390638_);fill:#FFFFFF;" d="M34.9,48.3
				c1.1-1,1.6-2.4,1.6-4c0-1-0.2-1.9-0.6-2.8c-0.4-0.9-0.9-1.6-1.5-2.2c-0.6-0.6-1.4-1.1-2.2-1.4c-0.9-0.4-1.8-0.5-2.8-0.5
				c-1.3,0-2.5,0.3-3.6,0.9c-1.1,0.6-1.9,1.5-2.5,2.5c-0.6,1.1-0.9,2.2-0.9,3.5c0,1,0.2,1.9,0.6,2.7c0.4,0.8,0.9,1.6,1.5,2.2
				c0.6,0.6,1.4,1.1,2.2,1.4c0.8,0.3,1.7,0.5,2.7,0.5h8v-2.7H34.9z M33.7,44.2c0,0.8-0.2,1.5-0.6,2.2c-0.4,0.6-0.9,1.1-1.5,1.5
				c-0.6,0.3-1.4,0.5-2.1,0.5c-1.2,0-2.2-0.4-3-1.2c-0.8-0.8-1.2-1.8-1.2-3c0-0.8,0.2-1.5,0.6-2.2c0.4-0.7,0.9-1.2,1.5-1.6
				c0.6-0.4,1.4-0.6,2.1-0.6c0.8,0,1.5,0.2,2.1,0.6c0.6,0.4,1.2,0.9,1.5,1.5C33.5,42.7,33.7,43.4,33.7,44.2"/>
			<polygon style="clip-path:url(#SVGID_00000066476271804327430960000002858793629103390638_);fill:#FFFFFF;" points="49.3,37.5 
				49.3,46.2 43.1,37.5 39.8,37.5 39.8,51 42.6,51 42.6,41.7 49.3,51 52.1,51 52.1,37.5 			"/>
			<polygon style="clip-path:url(#SVGID_00000066476271804327430960000002858793629103390638_);fill:#FFFFFF;" points="64.6,40.3 
				64.6,37.5 55.2,37.5 55.2,51 64.6,51 64.6,48.3 58,48.3 58,45.4 63.3,45.4 63.3,42.6 58,42.6 58,40.3 			"/>
			<polygon style="clip-path:url(#SVGID_00000066476271804327430960000002858793629103390638_);fill:#FFFFFF;" points="67.2,37.5 
				67.2,40.3 71.4,40.3 71.4,51 74.2,51 74.2,40.3 78.4,40.3 78.4,37.5 			"/>
			<path style="clip-path:url(#SVGID_00000066476271804327430960000002858793629103390638_);fill:#FFFFFF;" d="M26.1,26
				c0-0.6,0.5-1,1.1-1c0.6,0,1,0.5,1,1.1c0,0.6-0.5,1-1.1,1C26.5,27,26.1,26.6,26.1,26"/>
			<path style="clip-path:url(#SVGID_00000066476271804327430960000002858793629103390638_);fill:#FFFFFF;" d="M29.1,23.7
				c0-0.6,0.5-1.1,1.1-1.1c0.6,0,1.1,0.5,1.1,1.1c0,0.6-0.5,1.1-1.1,1.1C29.5,24.8,29,24.3,29.1,23.7"/>
			<path style="clip-path:url(#SVGID_00000066476271804327430960000002858793629103390638_);fill:#FFFFFF;" d="M35.9,20.5
				c0-0.7,0.6-1.2,1.3-1.2c0.7,0,1.2,0.6,1.2,1.3c0,0.7-0.6,1.2-1.3,1.2C36.4,21.8,35.8,21.2,35.9,20.5"/>
			<path style="clip-path:url(#SVGID_00000066476271804327430960000002858793629103390638_);fill:#FFFFFF;" d="M43.3,19.7
				c0-0.8,0.7-1.4,1.4-1.3c0.8,0,1.4,0.7,1.3,1.4c0,0.8-0.7,1.4-1.4,1.3C43.9,21.1,43.3,20.5,43.3,19.7"/>
			<path style="clip-path:url(#SVGID_00000066476271804327430960000002858793629103390638_);fill:#FFFFFF;" d="M47,20.2
				c0-0.8,0.7-1.4,1.5-1.4c0.8,0,1.4,0.7,1.4,1.5c0,0.8-0.7,1.4-1.5,1.4C47.6,21.7,47,21,47,20.2"/>
			<path style="clip-path:url(#SVGID_00000066476271804327430960000002858793629103390638_);fill:#FFFFFF;" d="M50.6,21.3
				c0-0.8,0.7-1.5,1.6-1.5c0.8,0,1.5,0.7,1.5,1.6c0,0.8-0.7,1.5-1.6,1.5C51.3,22.8,50.6,22.1,50.6,21.3"/>
			<path style="clip-path:url(#SVGID_00000066476271804327430960000002858793629103390638_);fill:#FFFFFF;" d="M54,22.9
				c0-0.9,0.8-1.6,1.7-1.5c0.9,0,1.6,0.8,1.5,1.7c0,0.9-0.8,1.6-1.7,1.5C54.7,24.5,54,23.8,54,22.9"/>
			<path style="clip-path:url(#SVGID_00000066476271804327430960000002858793629103390638_);fill:#FFFFFF;" d="M16.8,29.3
				c0-0.5,0.4-0.9,0.9-0.9c0.5,0,0.9,0.4,0.9,0.9c0,0.5-0.4,0.9-0.9,0.9C17.2,30.2,16.8,29.7,16.8,29.3"/>
			<path style="clip-path:url(#SVGID_00000066476271804327430960000002858793629103390638_);fill:#FFFFFF;" d="M19.4,25.4
				c0-0.5,0.5-0.9,1-0.9c0.5,0,0.9,0.5,0.9,1c0,0.5-0.5,0.9-1,0.9C19.8,26.4,19.3,25.9,19.4,25.4"/>
			<path style="clip-path:url(#SVGID_00000066476271804327430960000002858793629103390638_);fill:#FFFFFF;" d="M26.1,19.2
				c0-0.6,0.5-1.1,1.1-1.1c0.6,0,1.1,0.5,1.1,1.1c0,0.6-0.5,1.1-1.1,1.1C26.6,20.3,26.1,19.8,26.1,19.2"/>
			<path style="clip-path:url(#SVGID_00000066476271804327430960000002858793629103390638_);fill:#FFFFFF;" d="M30.1,16.9
				c0-0.6,0.6-1.2,1.2-1.1c0.6,0,1.2,0.6,1.1,1.2c0,0.6-0.6,1.2-1.2,1.1C30.6,18.1,30.1,17.6,30.1,16.9"/>
			<path style="clip-path:url(#SVGID_00000066476271804327430960000002858793629103390638_);fill:#FFFFFF;" d="M34.5,15.3
				c0-0.7,0.6-1.2,1.3-1.2c0.7,0,1.2,0.6,1.2,1.3c0,0.7-0.6,1.2-1.3,1.2S34.4,16,34.5,15.3"/>
			<path style="clip-path:url(#SVGID_00000066476271804327430960000002858793629103390638_);fill:#FFFFFF;" d="M39,14.5
				c0-0.7,0.6-1.3,1.4-1.3c0.7,0,1.3,0.6,1.3,1.4c0,0.7-0.6,1.3-1.4,1.3C39.5,15.8,38.9,15.2,39,14.5"/>
			<path style="clip-path:url(#SVGID_00000066476271804327430960000002858793629103390638_);fill:#FFFFFF;" d="M43.6,14.3
				c0-0.8,0.7-1.4,1.4-1.3c0.8,0,1.4,0.7,1.3,1.4c0,0.8-0.7,1.4-1.4,1.3C44.1,15.8,43.5,15.1,43.6,14.3"/>
			<path style="clip-path:url(#SVGID_00000066476271804327430960000002858793629103390638_);fill:#FFFFFF;" d="M48,14.9
				c0-0.8,0.7-1.4,1.5-1.4c0.8,0,1.4,0.7,1.4,1.5c0,0.8-0.7,1.4-1.5,1.4C48.6,16.4,48,15.7,48,14.9"/>
			<path style="clip-path:url(#SVGID_00000066476271804327430960000002858793629103390638_);fill:#FFFFFF;" d="M52.5,16.2
				c0-0.8,0.7-1.5,1.6-1.5c0.8,0,1.5,0.7,1.5,1.6c0,0.8-0.7,1.5-1.6,1.5C53.2,17.8,52.5,17.1,52.5,16.2"/>
			<path style="clip-path:url(#SVGID_00000066476271804327430960000002858793629103390638_);fill:#FFFFFF;" d="M56.7,18.2
				c0-0.9,0.8-1.6,1.7-1.5c0.9,0,1.6,0.8,1.5,1.7c0,0.9-0.8,1.6-1.7,1.5C57.3,19.9,56.6,19.1,56.7,18.2"/>
			<path style="clip-path:url(#SVGID_00000066476271804327430960000002858793629103390638_);fill:#FFFFFF;" d="M60.5,20.9
				c0-0.9,0.8-1.6,1.7-1.6c0.9,0,1.6,0.8,1.6,1.7c0,0.9-0.8,1.6-1.7,1.6C61.1,22.6,60.4,21.8,60.5,20.9"/>
			<path style="clip-path:url(#SVGID_00000066476271804327430960000002858793629103390638_);fill:#FFFFFF;" d="M63.8,24.1
				c0-1,0.8-1.7,1.8-1.7c1,0,1.7,0.8,1.7,1.8c0,1-0.8,1.7-1.8,1.7C64.5,25.8,63.7,25,63.8,24.1"/>
			<path style="clip-path:url(#SVGID_00000066476271804327430960000002858793629103390638_);fill:#FFFFFF;" d="M9.8,58.4
				c0-0.7,0.6-1.2,1.2-1.2c0.7,0,1.2,0.6,1.2,1.2c0,0.7-0.6,1.2-1.2,1.2C10.3,59.6,9.8,59.1,9.8,58.4"/>
			<path style="clip-path:url(#SVGID_00000066476271804327430960000002858793629103390638_);fill:#FFFFFF;" d="M7.9,53.3
				c0-0.7,0.6-1.3,1.3-1.2c0.7,0,1.3,0.6,1.2,1.3c0,0.7-0.6,1.3-1.3,1.2C8.4,54.6,7.8,54.1,7.9,53.3"/>
			<path style="clip-path:url(#SVGID_00000066476271804327430960000002858793629103390638_);fill:#FFFFFF;" d="M6.8,47.9
				c0-0.7,0.6-1.3,1.4-1.3c0.7,0,1.3,0.6,1.3,1.4c0,0.7-0.6,1.3-1.4,1.3C7.3,49.2,6.7,48.6,6.8,47.9"/>
			<path style="clip-path:url(#SVGID_00000066476271804327430960000002858793629103390638_);fill:#FFFFFF;" d="M6.5,42.3
				c0-0.8,0.7-1.4,1.5-1.4c0.8,0,1.4,0.7,1.4,1.5c0,0.8-0.7,1.4-1.5,1.4C7.1,43.7,6.5,43.1,6.5,42.3"/>
			<path style="clip-path:url(#SVGID_00000066476271804327430960000002858793629103390638_);fill:#FFFFFF;" d="M7.2,36.7
				c0-0.8,0.7-1.5,1.5-1.4c0.8,0,1.5,0.7,1.4,1.5c0,0.8-0.7,1.5-1.5,1.4C7.8,38.3,7.2,37.6,7.2,36.7"/>
			<path style="clip-path:url(#SVGID_00000066476271804327430960000002858793629103390638_);fill:#FFFFFF;" d="M8.7,31.4
				c0-0.9,0.8-1.5,1.6-1.5c0.9,0,1.5,0.8,1.5,1.6c0,0.9-0.8,1.5-1.6,1.5C9.3,33,8.6,32.2,8.7,31.4"/>
			<path style="clip-path:url(#SVGID_00000066476271804327430960000002858793629103390638_);fill:#FFFFFF;" d="M11,26.3
				c0-0.9,0.8-1.6,1.7-1.6c0.9,0,1.6,0.8,1.6,1.7c0,0.9-0.8,1.6-1.7,1.6C11.7,28,11,27.2,11,26.3"/>
			<path style="clip-path:url(#SVGID_00000066476271804327430960000002858793629103390638_);fill:#FFFFFF;" d="M14.1,21.7
				c0-0.9,0.8-1.7,1.8-1.7c0.9,0,1.7,0.8,1.7,1.8c0,0.9-0.8,1.7-1.8,1.7C14.8,23.5,14,22.7,14.1,21.7"/>
			<path style="clip-path:url(#SVGID_00000066476271804327430960000002858793629103390638_);fill:#FFFFFF;" d="M17.9,17.7
				c0-0.9,0.8-1.7,1.8-1.7c0.9,0,1.7,0.8,1.7,1.8c0,0.9-0.8,1.7-1.8,1.7C18.6,19.4,17.9,18.6,17.9,17.7"/>
			<path style="clip-path:url(#SVGID_00000066476271804327430960000002858793629103390638_);fill:#FFFFFF;" d="M22.2,14.3
				c0-1,0.9-1.8,1.8-1.7c1,0,1.8,0.9,1.7,1.8c0,1-0.9,1.8-1.8,1.7C23,16.1,22.2,15.2,22.2,14.3"/>
			<path style="clip-path:url(#SVGID_00000066476271804327430960000002858793629103390638_);fill:#FFFFFF;" d="M27.1,11.6
				c0-1,0.9-1.8,1.9-1.8c1,0,1.8,0.9,1.8,1.9c0,1-0.9,1.8-1.9,1.8C27.8,13.4,27,12.6,27.1,11.6"/>
			<path style="clip-path:url(#SVGID_00000066476271804327430960000002858793629103390638_);fill:#FFFFFF;" d="M32.3,9.7
				c0-1.1,0.9-1.9,2-1.9c1.1,0,1.9,0.9,1.9,2c0,1.1-0.9,1.9-2,1.9C33,11.6,32.2,10.7,32.3,9.7"/>
			<path style="clip-path:url(#SVGID_00000066476271804327430960000002858793629103390638_);fill:#FFFFFF;" d="M37.7,8.6
				c0-1.1,1-2,2.1-1.9c1.1,0,2,1,1.9,2.1c0,1.1-1,2-2.1,1.9C38.5,10.7,37.6,9.7,37.7,8.6"/>
			<path style="clip-path:url(#SVGID_00000066476271804327430960000002858793629103390638_);fill:#FFFFFF;" d="M43.2,8.5
				c0-1.1,1-2,2.1-2c1.1,0,2,1,2,2.1c0,1.1-1,2-2.1,2C44.1,10.6,43.2,9.6,43.2,8.5"/>
			<path style="clip-path:url(#SVGID_00000066476271804327430960000002858793629103390638_);fill:#FFFFFF;" d="M48.6,9.2
				c0-1.2,1-2.1,2.2-2.1c1.2,0,2.1,1,2.1,2.2c0,1.2-1,2.1-2.2,2.1C49.5,11.3,48.6,10.4,48.6,9.2"/>
			<path style="clip-path:url(#SVGID_00000066476271804327430960000002858793629103390638_);fill:#FFFFFF;" d="M22.5,22
				c0-0.6,0.5-1,1.1-1c0.6,0,1,0.5,1,1.1c0,0.6-0.5,1-1.1,1C22.9,23.1,22.5,22.6,22.5,22"/>
			<path style="clip-path:url(#SVGID_00000066476271804327430960000002858793629103390638_);fill:#FFFFFF;" d="M39.6,19.8
				c0-0.7,0.6-1.3,1.4-1.3c0.7,0,1.3,0.6,1.3,1.4c0,0.7-0.6,1.3-1.4,1.3C40.1,21.1,39.6,20.5,39.6,19.8"/>
			<path style="clip-path:url(#SVGID_00000066476271804327430960000002858793629103390638_);fill:#FFFFFF;" d="M32.3,21.8
				c0-0.6,0.6-1.2,1.2-1.1c0.6,0,1.2,0.6,1.1,1.2c0,0.6-0.6,1.2-1.2,1.1C32.8,23,32.3,22.4,32.3,21.8"/>
		</g>
		<g>
			<path class="st1" d="M27,60.1c0-0.3,0.1-0.6,0.2-0.9c0.1-0.3,0.3-0.6,0.5-0.8c0.2-0.2,0.5-0.4,0.8-0.5c0.3-0.1,0.6-0.2,1-0.2
				c0.3,0,0.7,0.1,1,0.2c0.3,0.1,0.6,0.3,0.8,0.5L30.7,59c-0.3-0.4-0.7-0.6-1.2-0.6c-0.3,0-0.6,0.1-0.8,0.2
				c-0.2,0.2-0.4,0.4-0.6,0.6c-0.1,0.3-0.2,0.5-0.2,0.8c0,0.3,0.1,0.6,0.2,0.8c0.1,0.3,0.3,0.5,0.6,0.6c0.2,0.1,0.5,0.2,0.8,0.2
				c0.2,0,0.4,0,0.6-0.1c0.2-0.1,0.4-0.2,0.5-0.4l0.5,0.6c-0.2,0.2-0.5,0.4-0.8,0.5c-0.3,0.1-0.6,0.2-0.9,0.2
				c-0.4,0-0.8-0.1-1.2-0.3c-0.4-0.2-0.7-0.5-0.9-0.9C27.1,61,27,60.6,27,60.1z"/>
			<path class="st1" d="M32.1,62.5v-4.7h3v0.8h-2.1v1h1.7v0.8h-1.7v1.2H35v0.8H32.1z"/>
			<path class="st1" d="M36.1,62.5v-4.7H38c0.5,0,0.8,0.1,1.1,0.4c0.3,0.2,0.4,0.6,0.4,1c0,0.4-0.1,0.6-0.3,0.9
				c-0.2,0.2-0.5,0.4-0.8,0.4l1.2,2h-0.9l-1.1-1.9h-0.6v1.9H36.1z M36.9,59.7H38c0.2,0,0.3,0,0.5-0.1c0.1-0.1,0.2-0.2,0.2-0.4
				c0-0.2-0.1-0.3-0.2-0.4c-0.1-0.1-0.3-0.2-0.5-0.2h-1.1V59.7z"/>
			<path class="st1" d="M40.1,58.6v-0.8h3.8v0.8h-1.5v3.9h-0.8v-3.9H40.1z"/>
			<g>
				<path class="st1" d="M44.8,62.5v-4.7h0.8v4.7H44.8z"/>
			</g>
			<path class="st1" d="M46.9,62.5v-4.7h2.9v0.8h-2.1v1h1.6v0.8h-1.6v2H46.9z"/>
			<path class="st1" d="M50.7,62.5v-4.7h0.8v4.7H50.7z"/>
			<path class="st1" d="M52.8,62.5v-4.7h3v0.8h-2.1v1h1.7v0.8h-1.7v1.2h2.1v0.8H52.8z"/>
			<g>
				<path class="st1" d="M56.8,62.5v-4.7h1.3c0.5,0,0.9,0.1,1.3,0.3c0.4,0.2,0.7,0.5,0.9,0.8c0.2,0.4,0.3,0.8,0.3,1.3
					c0,0.5-0.1,0.9-0.3,1.3c-0.2,0.4-0.5,0.6-0.9,0.8c-0.4,0.2-0.8,0.3-1.3,0.3H56.8z M57.6,61.7h0.5c0.2,0,0.5,0,0.7-0.1
					c0.2-0.1,0.4-0.1,0.5-0.3c0.2-0.1,0.3-0.3,0.4-0.5c0.1-0.2,0.1-0.4,0.1-0.7c0-0.3,0-0.5-0.1-0.7c-0.1-0.2-0.2-0.4-0.4-0.5
					c-0.2-0.1-0.3-0.2-0.5-0.3c-0.2-0.1-0.4-0.1-0.7-0.1h-0.5V61.7z"/>
			</g>
			<path class="st1" d="M19.4,70v-4.7h1.1l1.3,2.1l1.3-2.1h1.1V70h-0.8v-3.5l-1.2,1.8h-0.8l-1.1-1.8V70H19.4z"/>
			<path class="st1" d="M24.9,70l1.9-4.7h0.8l1.9,4.7h-0.9l-0.4-1h-2l-0.4,1H24.9z M26.4,68.3h1.4l-0.7-1.9L26.4,68.3z"/>
			<path class="st1" d="M30.2,70v-4.7h1l2.4,3.3v-3.3h0.8V70h-0.9L31,66.5V70H30.2z"/>
			<g>
				<path class="st1" d="M35.2,70l1.9-4.7h0.8l1.9,4.7h-0.9l-0.4-1h-2l-0.4,1H35.2z M36.8,68.3h1.4l-0.7-1.9L36.8,68.3z"/>
			</g>
			<path class="st1" d="M40,67.7c0-0.3,0.1-0.6,0.2-0.9c0.1-0.3,0.3-0.6,0.5-0.8c0.2-0.2,0.5-0.4,0.8-0.5c0.3-0.1,0.6-0.2,1-0.2
				c0.3,0,0.7,0.1,1,0.2c0.3,0.1,0.6,0.3,0.8,0.5l-0.5,0.6c-0.2-0.2-0.3-0.3-0.6-0.4C43,66.1,42.7,66,42.5,66
				c-0.3,0-0.6,0.1-0.8,0.2s-0.4,0.4-0.6,0.6c-0.1,0.3-0.2,0.5-0.2,0.8c0,0.5,0.2,0.9,0.5,1.2c0.3,0.3,0.7,0.5,1.2,0.5
				c0.4,0,0.7-0.1,0.9-0.3c0.2-0.2,0.4-0.5,0.4-0.9h-1.5v-0.8h2.3v0.5c0,0.3,0,0.6-0.1,0.9c-0.1,0.3-0.2,0.5-0.4,0.7
				c-0.2,0.2-0.4,0.4-0.7,0.5c-0.3,0.1-0.6,0.2-0.9,0.2c-0.3,0-0.7-0.1-1-0.2c-0.3-0.1-0.6-0.3-0.8-0.5s-0.4-0.5-0.5-0.8
				C40.1,68.4,40,68.1,40,67.7z"/>
			<path class="st1" d="M45.8,70v-4.7h3v0.8h-2.1v1h1.7V68h-1.7v1.2h2.1V70H45.8z"/>
			<path class="st1" d="M49.8,70v-4.7h1.1l1.3,2.1l1.3-2.1h1.1V70h-0.8v-3.5l-1.2,1.8h-0.8l-1.1-1.8V70H49.8z"/>
			<path class="st1" d="M55.7,70v-4.7h3v0.8h-2.1v1h1.7V68h-1.7v1.2h2.1V70H55.7z"/>
			<path class="st1" d="M59.8,70v-4.7h1l2.4,3.3v-3.3H64V70h-0.9l-2.6-3.6V70H59.8z"/>
			<g>
				<path class="st1" d="M65,66.2v-0.8h3.8v0.8h-1.5V70h-0.8v-3.9H65z"/>
			</g>
			<g>
				<path class="st1" d="M31,76.9l0.5-0.5c0.1,0.1,0.1,0.2,0.2,0.2c0.1,0.1,0.1,0.1,0.2,0.2c0.1,0.1,0.2,0.1,0.3,0.1
					c0.1,0,0.2,0,0.3,0c0.2,0,0.4-0.1,0.6-0.2c0.1-0.1,0.2-0.3,0.2-0.4c0-0.1,0-0.2-0.1-0.3s-0.1-0.1-0.2-0.2s-0.2-0.1-0.3-0.2
					c-0.1,0-0.2-0.1-0.3-0.1c-0.1,0-0.2-0.1-0.3-0.1c-0.1-0.1-0.2-0.1-0.3-0.2c-0.1-0.1-0.2-0.2-0.3-0.2c-0.1-0.1-0.1-0.2-0.2-0.3
					c0-0.1-0.1-0.3-0.1-0.4c0-0.4,0.1-0.7,0.4-1c0.3-0.2,0.6-0.4,1.1-0.4c0.4,0,0.8,0.1,1.3,0.4L33.6,74c-0.2-0.2-0.5-0.3-0.9-0.3
					c-0.2,0-0.4,0-0.5,0.1c-0.1,0.1-0.2,0.2-0.2,0.4c0,0.1,0,0.2,0.1,0.3c0.1,0.1,0.2,0.2,0.3,0.2c0.1,0.1,0.3,0.1,0.4,0.2
					c0.2,0.1,0.3,0.1,0.5,0.2c0.1,0.1,0.3,0.2,0.4,0.3c0.1,0.1,0.2,0.2,0.3,0.4c0.1,0.2,0.1,0.4,0.1,0.6c0,0.4-0.1,0.8-0.4,1
					c-0.3,0.3-0.7,0.4-1.2,0.4c-0.2,0-0.4,0-0.6-0.1c-0.2,0-0.3-0.1-0.5-0.3C31.3,77.3,31.2,77.1,31,76.9z"/>
			</g>
			<g>
				<path class="st1" d="M34.6,72.9h1l1.1,1.8l1.2-1.8h1l-1.7,2.6v2.1h-0.8v-2.1L34.6,72.9z"/>
			</g>
			<g>
				<path class="st1" d="M39.1,76.9l0.5-0.5c0.1,0.1,0.1,0.2,0.2,0.2c0.1,0.1,0.1,0.1,0.2,0.2c0.1,0.1,0.2,0.1,0.3,0.1
					c0.1,0,0.2,0,0.3,0c0.2,0,0.4-0.1,0.6-0.2c0.1-0.1,0.2-0.3,0.2-0.4c0-0.1,0-0.2-0.1-0.3s-0.1-0.1-0.2-0.2s-0.2-0.1-0.3-0.2
					c-0.1,0-0.2-0.1-0.3-0.1c-0.1,0-0.2-0.1-0.3-0.1s-0.2-0.1-0.3-0.2c-0.1-0.1-0.2-0.2-0.3-0.2c-0.1-0.1-0.1-0.2-0.2-0.3
					c0-0.1-0.1-0.3-0.1-0.4c0-0.4,0.1-0.7,0.4-1c0.3-0.2,0.6-0.4,1.1-0.4c0.4,0,0.8,0.1,1.3,0.4L41.7,74c-0.2-0.2-0.5-0.3-0.9-0.3
					c-0.2,0-0.4,0-0.5,0.1c-0.1,0.1-0.2,0.2-0.2,0.4c0,0.1,0,0.2,0.1,0.3c0.1,0.1,0.2,0.2,0.3,0.2c0.1,0.1,0.3,0.1,0.4,0.2
					c0.2,0.1,0.3,0.1,0.5,0.2c0.1,0.1,0.3,0.2,0.4,0.3c0.1,0.1,0.2,0.2,0.3,0.4c0.1,0.2,0.1,0.4,0.1,0.6c0,0.4-0.1,0.8-0.4,1
					c-0.3,0.3-0.7,0.4-1.2,0.4c-0.2,0-0.4,0-0.6-0.1c-0.2,0-0.3-0.1-0.5-0.3C39.4,77.3,39.3,77.1,39.1,76.9z"/>
			</g>
			<path class="st1" d="M42.7,73.7v-0.8h3.8v0.8h-1.5v3.9h-0.8v-3.9H42.7z"/>
			<path class="st1" d="M47.5,77.6v-4.7h3v0.8h-2.1v1H50v0.8h-1.7v1.2h2.1v0.8H47.5z"/>
			<g>
				<path class="st1" d="M51.5,77.6v-4.7h1.1l1.3,2.1l1.3-2.1h1.1v4.7h-0.8v-3.5l-1.2,1.8h-0.8l-1.1-1.8v3.5H51.5z"/>
			</g>
		</g>
	</g>
	<text transform="matrix(1 0 0 1 42.4711 208.811)" class="st4 st5 st6"> </text>
	<g>
		<path class="st7" d="M13.5,204.1l0.6-0.1c0,0.3,0.1,0.6,0.2,0.7c0.1,0.2,0.3,0.3,0.5,0.4c0.2,0.1,0.4,0.2,0.7,0.2
			c0.4,0,0.7-0.1,0.9-0.3s0.3-0.4,0.3-0.7c0-0.2,0-0.3-0.1-0.4c-0.1-0.1-0.2-0.2-0.3-0.3c-0.2-0.1-0.5-0.2-1-0.3
			c-0.5-0.1-0.8-0.3-1-0.4c-0.2-0.1-0.3-0.3-0.4-0.5c-0.1-0.2-0.2-0.4-0.2-0.7c0-0.5,0.2-0.9,0.5-1.2c0.3-0.3,0.7-0.4,1.2-0.4
			c0.4,0,0.7,0.1,0.9,0.2c0.3,0.1,0.5,0.3,0.6,0.6c0.1,0.3,0.2,0.6,0.2,0.9l-0.6,0.1c0-0.4-0.1-0.7-0.3-0.8
			c-0.2-0.2-0.5-0.3-0.8-0.3c-0.4,0-0.6,0.1-0.8,0.2c-0.2,0.2-0.3,0.4-0.3,0.6c0,0.2,0.1,0.4,0.2,0.5c0.1,0.1,0.4,0.3,0.9,0.4
			c0.5,0.1,0.8,0.2,1,0.3c0.3,0.1,0.5,0.3,0.7,0.6c0.1,0.2,0.2,0.5,0.2,0.9c0,0.3-0.1,0.6-0.2,0.9s-0.4,0.5-0.6,0.6s-0.6,0.2-1,0.2
			c-0.6,0-1.1-0.2-1.4-0.5C13.7,205.2,13.5,204.7,13.5,204.1z"/>
		<path class="st7" d="M21.5,203.9l0.6,0.2c-0.1,0.7-0.4,1.1-0.7,1.5c-0.4,0.3-0.8,0.5-1.3,0.5c-0.4,0-0.8-0.1-1.1-0.3
			c-0.3-0.2-0.6-0.6-0.8-1c-0.2-0.5-0.3-1-0.3-1.7c0-0.6,0.1-1.2,0.3-1.6c0.2-0.4,0.5-0.8,0.8-1c0.3-0.2,0.7-0.3,1.1-0.3
			c0.5,0,0.9,0.1,1.2,0.4c0.3,0.3,0.6,0.7,0.7,1.3l-0.6,0.2c-0.2-0.8-0.6-1.2-1.3-1.2c-0.3,0-0.6,0.1-0.8,0.2
			c-0.2,0.2-0.4,0.4-0.6,0.8c-0.1,0.3-0.2,0.8-0.2,1.3c0,0.8,0.1,1.4,0.4,1.8c0.3,0.4,0.7,0.6,1.1,0.6c0.3,0,0.6-0.1,0.9-0.4
			C21.3,204.8,21.4,204.4,21.5,203.9z"/>
		<path class="st7" d="M22.6,204.2v-0.7h1.8v0.7H22.6z"/>
		<path class="st7" d="M28.6,203.9l0.6,0.2c-0.1,0.7-0.4,1.1-0.7,1.5c-0.4,0.3-0.8,0.5-1.3,0.5c-0.4,0-0.8-0.1-1.1-0.3
			c-0.3-0.2-0.6-0.6-0.8-1c-0.2-0.5-0.3-1-0.3-1.7c0-0.6,0.1-1.2,0.3-1.6c0.2-0.4,0.5-0.8,0.8-1c0.3-0.2,0.7-0.3,1.1-0.3
			c0.5,0,0.9,0.1,1.2,0.4c0.3,0.3,0.6,0.7,0.7,1.3l-0.6,0.2c-0.2-0.8-0.6-1.2-1.3-1.2c-0.3,0-0.6,0.1-0.8,0.2
			c-0.2,0.2-0.4,0.4-0.6,0.8c-0.1,0.3-0.2,0.8-0.2,1.3c0,0.8,0.1,1.4,0.4,1.8c0.3,0.4,0.7,0.6,1.1,0.6c0.3,0,0.6-0.1,0.9-0.4
			C28.3,204.8,28.5,204.4,28.6,203.9z"/>
		<path class="st7" d="M30,206v-5.8h3.5v0.7h-2.8v1.8h2.6v0.7h-2.6v2h2.9v0.7H30z"/>
		<path class="st7" d="M34.4,206v-5.8h2.1c0.4,0,0.8,0.1,1,0.2c0.2,0.1,0.4,0.3,0.5,0.5c0.1,0.3,0.2,0.5,0.2,0.9
			c0,0.4-0.1,0.8-0.3,1.1c-0.2,0.3-0.6,0.4-1,0.5c0.2,0.1,0.3,0.2,0.4,0.3c0.2,0.2,0.4,0.5,0.5,0.7l0.8,1.6h-0.8l-0.6-1.2
			c-0.2-0.5-0.4-0.8-0.6-1c-0.1-0.2-0.2-0.3-0.4-0.3c-0.1-0.1-0.3-0.1-0.5-0.1h-0.7v2.6H34.4z M35.1,202.7h1.4c0.3,0,0.5,0,0.7-0.1
			c0.2-0.1,0.3-0.2,0.4-0.3c0.1-0.2,0.1-0.3,0.1-0.5c0-0.3-0.1-0.5-0.3-0.7c-0.2-0.2-0.4-0.3-0.8-0.3h-1.5V202.7z"/>
		<path class="st7" d="M39,204.4l0.6-0.1c0.1,0.8,0.4,1.1,0.9,1.1c0.3,0,0.5-0.1,0.7-0.3c0.2-0.2,0.3-0.5,0.3-0.9
			c0-0.3-0.1-0.6-0.3-0.8c-0.2-0.2-0.4-0.3-0.7-0.3c-0.1,0-0.2,0-0.4,0.1l0.1-0.6l0.1,0c0.3,0,0.5-0.1,0.7-0.3
			c0.2-0.2,0.3-0.4,0.3-0.7c0-0.3-0.1-0.5-0.2-0.7c-0.2-0.2-0.3-0.2-0.6-0.2c-0.2,0-0.4,0.1-0.6,0.3c-0.2,0.2-0.3,0.4-0.3,0.8
			l-0.6-0.1c0.1-0.5,0.2-0.9,0.5-1.1c0.3-0.3,0.6-0.4,0.9-0.4c0.4,0,0.7,0.1,1,0.4c0.3,0.3,0.4,0.6,0.4,1.1c0,0.3-0.1,0.5-0.2,0.7
			c-0.1,0.2-0.3,0.4-0.5,0.5c0.2,0.1,0.3,0.1,0.5,0.3c0.1,0.1,0.2,0.3,0.3,0.5c0.1,0.2,0.1,0.4,0.1,0.7c0,0.5-0.2,1-0.5,1.3
			c-0.3,0.3-0.7,0.5-1.1,0.5c-0.4,0-0.8-0.1-1-0.4C39.2,205.3,39,204.9,39,204.4z"/>
		<path class="st7" d="M44.9,206h-0.6v-4.6c-0.1,0.2-0.3,0.3-0.5,0.5c-0.2,0.2-0.4,0.3-0.6,0.4v-0.7c0.3-0.2,0.6-0.4,0.9-0.7
			c0.2-0.3,0.4-0.5,0.5-0.8h0.4V206z"/>
		<path class="st7" d="M46.4,204.4l0.6-0.1c0,0.4,0.2,0.6,0.3,0.8s0.4,0.3,0.6,0.3c0.3,0,0.5-0.1,0.7-0.4c0.2-0.3,0.3-0.6,0.3-1
			c0-0.4-0.1-0.7-0.3-1c-0.2-0.2-0.4-0.3-0.7-0.3c-0.2,0-0.3,0-0.5,0.1c-0.2,0.1-0.3,0.2-0.4,0.4l-0.6-0.1l0.5-3h2.4v0.7h-1.9
			l-0.3,1.6c0.3-0.2,0.6-0.4,0.9-0.4c0.4,0,0.7,0.2,1,0.5c0.3,0.3,0.4,0.8,0.4,1.4c0,0.6-0.1,1.1-0.4,1.5c-0.3,0.4-0.7,0.6-1.2,0.6
			c-0.4,0-0.8-0.1-1-0.4C46.6,205.3,46.4,205,46.4,204.4z"/>
		<path class="st7" d="M50.1,204.4l0.6-0.1c0.1,0.8,0.4,1.1,0.9,1.1c0.3,0,0.5-0.1,0.7-0.3c0.2-0.2,0.3-0.5,0.3-0.9
			c0-0.3-0.1-0.6-0.3-0.8c-0.2-0.2-0.4-0.3-0.7-0.3c-0.1,0-0.2,0-0.4,0.1l0.1-0.6l0.1,0c0.3,0,0.5-0.1,0.7-0.3
			c0.2-0.2,0.3-0.4,0.3-0.7c0-0.3-0.1-0.5-0.2-0.7c-0.2-0.2-0.3-0.2-0.6-0.2c-0.2,0-0.4,0.1-0.6,0.3c-0.2,0.2-0.3,0.4-0.3,0.8
			l-0.6-0.1c0.1-0.5,0.2-0.9,0.5-1.1c0.3-0.3,0.6-0.4,0.9-0.4c0.4,0,0.7,0.1,1,0.4c0.3,0.3,0.4,0.6,0.4,1.1c0,0.3-0.1,0.5-0.2,0.7
			c-0.1,0.2-0.3,0.4-0.5,0.5c0.2,0.1,0.3,0.1,0.5,0.3c0.1,0.1,0.2,0.3,0.3,0.5c0.1,0.2,0.1,0.4,0.1,0.7c0,0.5-0.2,1-0.5,1.3
			c-0.3,0.3-0.7,0.5-1.1,0.5c-0.4,0-0.8-0.1-1-0.4S50.2,204.9,50.1,204.4z"/>
		<path class="st7" d="M53.8,204.4l0.6-0.1c0,0.4,0.2,0.6,0.3,0.8c0.2,0.2,0.4,0.3,0.6,0.3c0.3,0,0.5-0.1,0.7-0.4
			c0.2-0.3,0.3-0.6,0.3-1c0-0.4-0.1-0.7-0.3-1c-0.2-0.2-0.4-0.3-0.7-0.3c-0.2,0-0.3,0-0.5,0.1c-0.2,0.1-0.3,0.2-0.4,0.4l-0.6-0.1
			l0.5-3h2.4v0.7h-1.9l-0.3,1.6c0.3-0.2,0.6-0.4,0.9-0.4c0.4,0,0.7,0.2,1,0.5c0.3,0.3,0.4,0.8,0.4,1.4c0,0.6-0.1,1.1-0.4,1.5
			c-0.3,0.4-0.7,0.6-1.2,0.6c-0.4,0-0.8-0.1-1-0.4C54,205.3,53.9,205,53.8,204.4z"/>
		<path class="st7" d="M57.5,204.4l0.6-0.1c0.1,0.8,0.4,1.1,0.9,1.1c0.3,0,0.5-0.1,0.7-0.3c0.2-0.2,0.3-0.5,0.3-0.9
			c0-0.3-0.1-0.6-0.3-0.8c-0.2-0.2-0.4-0.3-0.7-0.3c-0.1,0-0.2,0-0.4,0.1l0.1-0.6l0.1,0c0.3,0,0.5-0.1,0.7-0.3
			c0.2-0.2,0.3-0.4,0.3-0.7c0-0.3-0.1-0.5-0.2-0.7c-0.2-0.2-0.3-0.2-0.6-0.2c-0.2,0-0.4,0.1-0.6,0.3c-0.2,0.2-0.3,0.4-0.3,0.8
			l-0.6-0.1c0.1-0.5,0.2-0.9,0.5-1.1c0.3-0.3,0.6-0.4,0.9-0.4c0.4,0,0.7,0.1,1,0.4c0.3,0.3,0.4,0.6,0.4,1.1c0,0.3-0.1,0.5-0.2,0.7
			c-0.1,0.2-0.3,0.4-0.5,0.5c0.2,0.1,0.3,0.1,0.5,0.3c0.1,0.1,0.2,0.3,0.3,0.5c0.1,0.2,0.1,0.4,0.1,0.7c0,0.5-0.2,1-0.5,1.3
			c-0.3,0.3-0.7,0.5-1.1,0.5c-0.4,0-0.8-0.1-1-0.4S57.6,204.9,57.5,204.4z"/>
		<g>
			<path class="st7" d="M13.7,216.2V211h1.5c0.4,0,0.6,0,0.8,0.1c0.3,0.1,0.5,0.2,0.7,0.5c0.2,0.2,0.3,0.5,0.4,0.8
				c0.1,0.3,0.2,0.7,0.2,1.2c0,0.6-0.1,1.1-0.3,1.5c-0.2,0.4-0.4,0.7-0.7,0.9c-0.3,0.2-0.6,0.3-1.1,0.3H13.7z M14.3,215.6h0.9
				c0.4,0,0.7-0.1,0.8-0.2c0.2-0.1,0.3-0.3,0.4-0.6c0.1-0.4,0.2-0.8,0.2-1.3c0-0.5-0.1-1-0.2-1.3c-0.1-0.3-0.3-0.5-0.6-0.6
				c-0.2-0.1-0.4-0.1-0.7-0.1h-0.9V215.6z"/>
			<path class="st7" d="M20.2,215l0.5,0.1c-0.1,0.4-0.3,0.7-0.5,0.9c-0.2,0.2-0.5,0.3-0.9,0.3c-0.4,0-0.8-0.2-1.1-0.5
				c-0.3-0.3-0.4-0.8-0.4-1.5c0-0.7,0.1-1.2,0.4-1.5s0.6-0.5,1-0.5c0.4,0,0.7,0.2,1,0.5c0.3,0.3,0.4,0.8,0.4,1.5l0,0.2h-2.3
				c0,0.4,0.1,0.8,0.3,1c0.2,0.2,0.4,0.3,0.6,0.3C19.7,215.8,20,215.5,20.2,215z M18.4,214h1.7c0-0.3-0.1-0.6-0.2-0.7
				c-0.2-0.2-0.4-0.4-0.6-0.4c-0.2,0-0.4,0.1-0.6,0.3C18.5,213.4,18.4,213.6,18.4,214z"/>
			<path class="st7" d="M21.2,215.1l0.5-0.1c0,0.3,0.1,0.5,0.3,0.6c0.1,0.1,0.3,0.2,0.6,0.2c0.2,0,0.4-0.1,0.5-0.2
				c0.1-0.1,0.2-0.3,0.2-0.4c0-0.2-0.1-0.3-0.2-0.4c-0.1-0.1-0.3-0.1-0.5-0.2c-0.4-0.1-0.7-0.2-0.8-0.3c-0.1-0.1-0.2-0.2-0.3-0.4
				c-0.1-0.1-0.1-0.3-0.1-0.5c0-0.3,0.1-0.6,0.3-0.8c0.2-0.2,0.5-0.3,0.9-0.3c0.2,0,0.4,0,0.6,0.1c0.2,0.1,0.3,0.2,0.4,0.3
				c0.1,0.1,0.2,0.3,0.2,0.6l-0.5,0.1c0-0.4-0.3-0.6-0.7-0.6c-0.2,0-0.4,0-0.5,0.1c-0.1,0.1-0.2,0.2-0.2,0.4c0,0.1,0.1,0.3,0.2,0.3
				c0.1,0,0.3,0.1,0.6,0.2c0.4,0.1,0.7,0.2,0.9,0.3c0.1,0.1,0.2,0.2,0.3,0.3c0.1,0.1,0.1,0.3,0.1,0.5c0,0.4-0.1,0.7-0.3,0.9
				c-0.2,0.2-0.5,0.3-0.9,0.3C21.7,216.3,21.3,215.9,21.2,215.1z"/>
			<path class="st7" d="M24.4,211.7V211h0.5v0.7H24.4z M24.4,216.2v-3.8h0.5v3.8H24.4z"/>
			<path class="st7" d="M25.6,216.5l0.5,0.1c0,0.2,0.1,0.4,0.2,0.5c0.1,0.1,0.3,0.1,0.5,0.1c0.2,0,0.4-0.1,0.6-0.2
				c0.1-0.1,0.2-0.3,0.3-0.5c0-0.1,0-0.4,0-0.8c-0.1,0.2-0.2,0.3-0.4,0.4s-0.3,0.1-0.5,0.1c-0.4,0-0.7-0.2-0.9-0.5
				c-0.3-0.4-0.4-0.8-0.4-1.5c0-0.4,0.1-0.8,0.2-1.1c0.1-0.3,0.3-0.5,0.5-0.7c0.2-0.1,0.4-0.2,0.7-0.2c0.2,0,0.4,0,0.5,0.1
				c0.2,0.1,0.3,0.2,0.4,0.4v-0.5h0.5v3.3c0,0.6,0,1-0.1,1.3c-0.1,0.3-0.3,0.4-0.5,0.6c-0.2,0.1-0.5,0.2-0.8,0.2
				c-0.4,0-0.7-0.1-0.9-0.3C25.7,217.2,25.6,216.9,25.6,216.5z M26.1,214.3c0,0.5,0.1,0.9,0.2,1.1c0.2,0.2,0.4,0.3,0.6,0.3
				s0.4-0.1,0.6-0.3c0.2-0.2,0.3-0.6,0.3-1.1c0-0.5-0.1-0.8-0.3-1.1c-0.2-0.2-0.4-0.4-0.6-0.4c-0.2,0-0.4,0.1-0.6,0.4
				C26.1,213.4,26.1,213.8,26.1,214.3z"/>
			<path class="st7" d="M29.1,216.2v-3.8h0.5v0.5c0.1-0.2,0.3-0.4,0.4-0.5c0.2-0.1,0.4-0.2,0.6-0.2c0.2,0,0.3,0,0.5,0.1
				c0.1,0.1,0.3,0.2,0.3,0.3c0.1,0.1,0.2,0.2,0.2,0.4c0,0.2,0.1,0.4,0.1,0.8v2.3h-0.5v-2.3c0-0.3,0-0.5-0.1-0.6
				c0-0.1-0.1-0.2-0.2-0.3c-0.1-0.1-0.2-0.1-0.4-0.1c-0.3,0-0.5,0.1-0.6,0.3c-0.2,0.2-0.2,0.5-0.2,1v2.1H29.1z"/>
			<path class="st7" d="M36.1,215.8c-0.2,0.2-0.4,0.3-0.6,0.4c-0.2,0.1-0.4,0.1-0.6,0.1c-0.3,0-0.6-0.1-0.8-0.3
				c-0.2-0.2-0.3-0.5-0.3-0.8c0-0.2,0-0.4,0.1-0.6c0.1-0.2,0.2-0.3,0.4-0.4s0.4-0.2,0.7-0.2c0.4-0.1,0.7-0.1,0.9-0.2l0-0.2
				c0-0.3,0-0.4-0.1-0.5c-0.1-0.2-0.3-0.2-0.6-0.2c-0.2,0-0.4,0.1-0.6,0.2c-0.1,0.1-0.2,0.3-0.3,0.6l-0.5-0.1
				c0.1-0.4,0.2-0.7,0.5-0.9c0.2-0.2,0.5-0.3,1-0.3c0.3,0,0.6,0.1,0.8,0.2c0.2,0.1,0.3,0.3,0.4,0.5c0,0.2,0.1,0.4,0.1,0.8v0.9
				c0,0.6,0,1,0,1.1c0,0.2,0.1,0.3,0.1,0.5h-0.6C36.2,216.1,36.1,215.9,36.1,215.8z M36.1,214.3c-0.2,0.1-0.5,0.2-0.9,0.2
				c-0.2,0-0.4,0.1-0.5,0.1c-0.1,0-0.2,0.1-0.2,0.2c0,0.1-0.1,0.2-0.1,0.3c0,0.2,0.1,0.3,0.2,0.4c0.1,0.1,0.3,0.2,0.5,0.2
				c0.2,0,0.4,0,0.5-0.1c0.2-0.1,0.3-0.2,0.3-0.4c0.1-0.2,0.1-0.4,0.1-0.7V214.3z"/>
			<path class="st7" d="M37.4,216.2v-3.8h0.5v0.5c0.1-0.2,0.3-0.4,0.4-0.5c0.2-0.1,0.4-0.2,0.6-0.2c0.2,0,0.3,0,0.5,0.1
				c0.1,0.1,0.3,0.2,0.3,0.3c0.1,0.1,0.2,0.2,0.2,0.4c0,0.2,0.1,0.4,0.1,0.8v2.3h-0.5v-2.3c0-0.3,0-0.5-0.1-0.6
				c0-0.1-0.1-0.2-0.2-0.3c-0.1-0.1-0.2-0.1-0.4-0.1c-0.3,0-0.5,0.1-0.6,0.3c-0.2,0.2-0.2,0.5-0.2,1v2.1H37.4z"/>
			<path class="st7" d="M42.8,216.2v-0.5c-0.1,0.2-0.2,0.3-0.4,0.4c-0.2,0.1-0.3,0.1-0.5,0.1c-0.4,0-0.7-0.2-1-0.5
				c-0.3-0.3-0.4-0.8-0.4-1.5c0-0.4,0.1-0.8,0.2-1.1c0.1-0.3,0.3-0.5,0.5-0.7s0.4-0.2,0.7-0.2c0.2,0,0.3,0,0.5,0.1
				c0.1,0.1,0.3,0.2,0.4,0.4V211h0.5v5.3H42.8z M41.1,214.3c0,0.5,0.1,0.9,0.3,1.1c0.2,0.2,0.4,0.4,0.6,0.4c0.2,0,0.4-0.1,0.6-0.3
				c0.2-0.2,0.2-0.6,0.2-1c0-0.5-0.1-0.9-0.2-1.2c-0.2-0.2-0.4-0.4-0.6-0.4c-0.2,0-0.4,0.1-0.6,0.4
				C41.2,213.5,41.1,213.8,41.1,214.3z"/>
			<path class="st7" d="M45.9,216.2V211h1.6c0.4,0,0.7,0,0.8,0.1c0.2,0.1,0.4,0.3,0.6,0.5c0.1,0.2,0.2,0.5,0.2,0.9
				c0,0.5-0.1,0.9-0.4,1.2c-0.2,0.3-0.7,0.4-1.3,0.4h-1.1v2.1H45.9z M46.5,213.5h1.1c0.4,0,0.6-0.1,0.8-0.2c0.2-0.2,0.2-0.4,0.2-0.7
				c0-0.2,0-0.4-0.1-0.5c-0.1-0.1-0.2-0.2-0.3-0.3c-0.1-0.1-0.3-0.1-0.6-0.1h-1.1V213.5z"/>
			<path class="st7" d="M49.8,216.2v-3.8h0.5v0.6c0.1-0.3,0.2-0.4,0.3-0.5c0.1-0.1,0.2-0.1,0.3-0.1c0.2,0,0.4,0.1,0.5,0.2l-0.2,0.6
				c-0.1-0.1-0.3-0.1-0.4-0.1c-0.1,0-0.2,0-0.3,0.1c-0.1,0.1-0.2,0.2-0.2,0.3c-0.1,0.2-0.1,0.5-0.1,0.8v2H49.8z"/>
			<path class="st7" d="M51.6,214.3c0-0.7,0.1-1.2,0.4-1.5c0.3-0.3,0.6-0.5,1-0.5c0.4,0,0.8,0.2,1,0.5c0.3,0.3,0.4,0.8,0.4,1.4
				c0,0.7-0.1,1.2-0.4,1.5c-0.3,0.3-0.6,0.5-1.1,0.5c-0.4,0-0.8-0.2-1-0.5C51.8,215.5,51.6,215,51.6,214.3z M52.2,214.3
				c0,0.5,0.1,0.9,0.3,1.1c0.2,0.2,0.4,0.4,0.7,0.4c0.2,0,0.5-0.1,0.6-0.4c0.2-0.2,0.3-0.6,0.3-1.1c0-0.5-0.1-0.9-0.3-1.1
				c-0.2-0.2-0.4-0.4-0.7-0.4c-0.3,0-0.5,0.1-0.6,0.4C52.3,213.5,52.2,213.8,52.2,214.3z"/>
			<path class="st7" d="M57.2,216.2v-0.5c-0.1,0.2-0.2,0.3-0.4,0.4c-0.2,0.1-0.3,0.1-0.5,0.1c-0.4,0-0.7-0.2-1-0.5
				c-0.3-0.3-0.4-0.8-0.4-1.5c0-0.4,0.1-0.8,0.2-1.1c0.1-0.3,0.3-0.5,0.5-0.7s0.4-0.2,0.7-0.2c0.2,0,0.3,0,0.5,0.1
				c0.1,0.1,0.3,0.2,0.4,0.4V211h0.5v5.3H57.2z M55.5,214.3c0,0.5,0.1,0.9,0.3,1.1c0.2,0.2,0.4,0.4,0.6,0.4c0.2,0,0.4-0.1,0.6-0.3
				c0.2-0.2,0.2-0.6,0.2-1c0-0.5-0.1-0.9-0.2-1.2c-0.2-0.2-0.4-0.4-0.6-0.4c-0.2,0-0.4,0.1-0.6,0.4
				C55.6,213.5,55.5,213.8,55.5,214.3z"/>
			<path class="st7" d="M60.6,216.2v-0.6c-0.1,0.2-0.3,0.4-0.4,0.5c-0.2,0.1-0.4,0.2-0.6,0.2c-0.2,0-0.5-0.1-0.6-0.2
				c-0.2-0.1-0.3-0.3-0.3-0.5c-0.1-0.2-0.1-0.5-0.1-0.8v-2.4h0.5v2.1c0,0.4,0,0.7,0.1,0.8c0,0.1,0.1,0.2,0.2,0.3
				c0.1,0.1,0.2,0.1,0.4,0.1c0.3,0,0.5-0.1,0.6-0.3c0.1-0.2,0.2-0.5,0.2-1v-2h0.5v3.8H60.6z"/>
			<path class="st7" d="M63.9,214.8l0.5,0.1c-0.1,0.5-0.2,0.8-0.5,1c-0.2,0.2-0.5,0.4-0.9,0.4c-0.4,0-0.7-0.2-1-0.5
				c-0.3-0.3-0.4-0.8-0.4-1.5c0-0.7,0.1-1.2,0.4-1.5c0.3-0.3,0.6-0.5,1-0.5c0.3,0,0.6,0.1,0.8,0.3c0.2,0.2,0.4,0.5,0.4,0.9l-0.5,0.1
				c-0.1-0.3-0.1-0.4-0.3-0.6c-0.1-0.1-0.3-0.2-0.4-0.2c-0.3,0-0.5,0.1-0.6,0.3c-0.2,0.2-0.3,0.6-0.3,1.1c0,0.5,0.1,0.9,0.2,1.1
				c0.2,0.2,0.4,0.3,0.6,0.3c0.2,0,0.4-0.1,0.5-0.2C63.8,215.4,63.9,215.2,63.9,214.8z"/>
			<path class="st7" d="M66.1,215.7l0.1,0.6c-0.1,0-0.3,0.1-0.4,0.1c-0.2,0-0.3,0-0.4-0.1c-0.1-0.1-0.2-0.2-0.2-0.3
				c0-0.1-0.1-0.4-0.1-0.8v-2.2h-0.4v-0.5H65v-0.9l0.5-0.4v1.3h0.5v0.5h-0.5v2.2c0,0.2,0,0.3,0,0.4c0,0.1,0.1,0.1,0.3,0.1
				C65.9,215.7,66,215.7,66.1,215.7z"/>
			<path class="st7" d="M66.6,211.7V211h0.5v0.7H66.6z M66.6,216.2v-3.8h0.5v3.8H66.6z"/>
			<path class="st7" d="M67.7,214.3c0-0.7,0.1-1.2,0.4-1.5c0.3-0.3,0.6-0.5,1-0.5c0.4,0,0.8,0.2,1,0.5c0.3,0.3,0.4,0.8,0.4,1.4
				c0,0.7-0.1,1.2-0.4,1.5c-0.3,0.3-0.6,0.5-1.1,0.5c-0.4,0-0.8-0.2-1-0.5C67.9,215.5,67.7,215,67.7,214.3z M68.3,214.3
				c0,0.5,0.1,0.9,0.3,1.1c0.2,0.2,0.4,0.4,0.7,0.4c0.2,0,0.5-0.1,0.6-0.4c0.2-0.2,0.3-0.6,0.3-1.1c0-0.5-0.1-0.9-0.3-1.1
				c-0.2-0.2-0.4-0.4-0.7-0.4c-0.3,0-0.5,0.1-0.6,0.4C68.3,213.5,68.3,213.8,68.3,214.3z"/>
			<path class="st7" d="M71.3,216.2v-3.8h0.5v0.5c0.1-0.2,0.3-0.4,0.4-0.5c0.2-0.1,0.4-0.2,0.6-0.2c0.2,0,0.3,0,0.5,0.1
				c0.1,0.1,0.3,0.2,0.3,0.3c0.1,0.1,0.2,0.2,0.2,0.4c0,0.2,0.1,0.4,0.1,0.8v2.3h-0.5v-2.3c0-0.3,0-0.5-0.1-0.6
				c0-0.1-0.1-0.2-0.2-0.3c-0.1-0.1-0.2-0.1-0.4-0.1c-0.3,0-0.5,0.1-0.6,0.3c-0.2,0.2-0.2,0.5-0.2,1v2.1H71.3z"/>
			<path class="st7" d="M13.5,223.1c0-0.7,0.1-1.2,0.4-1.5c0.3-0.3,0.6-0.5,1-0.5c0.4,0,0.8,0.2,1,0.5c0.3,0.3,0.4,0.8,0.4,1.4
				c0,0.7-0.1,1.2-0.4,1.5c-0.3,0.3-0.6,0.5-1.1,0.5c-0.4,0-0.8-0.2-1-0.5C13.6,224.3,13.5,223.8,13.5,223.1z M14,223.1
				c0,0.5,0.1,0.9,0.3,1.1c0.2,0.2,0.4,0.4,0.7,0.4c0.2,0,0.5-0.1,0.6-0.4c0.2-0.2,0.3-0.6,0.3-1.1c0-0.5-0.1-0.9-0.3-1.1
				c-0.2-0.2-0.4-0.4-0.7-0.4c-0.3,0-0.5,0.1-0.6,0.4C14.1,222.3,14,222.6,14,223.1z"/>
			<path class="st7" d="M17.2,225v-3.3h-0.5v-0.5h0.5v-0.4c0-0.3,0-0.5,0.1-0.7c0.1-0.1,0.2-0.3,0.3-0.3s0.3-0.1,0.5-0.1
				c0.2,0,0.3,0,0.5,0.1l-0.1,0.6c-0.1,0-0.2,0-0.3,0c-0.2,0-0.3,0-0.3,0.1c-0.1,0.1-0.1,0.2-0.1,0.5v0.4h0.6v0.5h-0.6v3.3H17.2z"/>
			<path class="st7" d="M21.2,225l-1.1-5.3h0.6l0.7,3.4c0.1,0.4,0.1,0.7,0.2,1.1l0.2-1l0.8-3.5h0.7l0.6,2.7c0.2,0.6,0.3,1.3,0.3,1.9
				c0.1-0.3,0.1-0.7,0.2-1.1l0.7-3.4h0.6l-1.2,5.3h-0.5l-0.9-4l-0.1-0.6c0,0.2-0.1,0.4-0.1,0.6l-0.9,4H21.2z"/>
			<path class="st7" d="M25.8,223.1c0-0.7,0.1-1.2,0.4-1.5c0.3-0.3,0.6-0.5,1-0.5c0.4,0,0.8,0.2,1,0.5c0.3,0.3,0.4,0.8,0.4,1.4
				c0,0.7-0.1,1.2-0.4,1.5c-0.3,0.3-0.6,0.5-1.1,0.5c-0.4,0-0.8-0.2-1-0.5C25.9,224.3,25.8,223.8,25.8,223.1z M26.3,223.1
				c0,0.5,0.1,0.9,0.3,1.1c0.2,0.2,0.4,0.4,0.7,0.4c0.2,0,0.5-0.1,0.6-0.4c0.2-0.2,0.3-0.6,0.3-1.1c0-0.5-0.1-0.9-0.3-1.1
				c-0.2-0.2-0.4-0.4-0.7-0.4c-0.3,0-0.5,0.1-0.6,0.4C26.4,222.3,26.3,222.6,26.3,223.1z"/>
			<path class="st7" d="M29.1,223.1c0-0.7,0.1-1.2,0.4-1.5c0.3-0.3,0.6-0.5,1-0.5c0.4,0,0.8,0.2,1,0.5c0.3,0.3,0.4,0.8,0.4,1.4
				c0,0.7-0.1,1.2-0.4,1.5c-0.3,0.3-0.6,0.5-1.1,0.5c-0.4,0-0.8-0.2-1-0.5C29.2,224.3,29.1,223.8,29.1,223.1z M29.6,223.1
				c0,0.5,0.1,0.9,0.3,1.1c0.2,0.2,0.4,0.4,0.7,0.4c0.2,0,0.5-0.1,0.6-0.4c0.2-0.2,0.3-0.6,0.3-1.1c0-0.5-0.1-0.9-0.3-1.1
				c-0.2-0.2-0.4-0.4-0.7-0.4c-0.3,0-0.5,0.1-0.6,0.4C29.7,222.3,29.6,222.6,29.6,223.1z"/>
			<path class="st7" d="M34.7,225v-0.5c-0.1,0.2-0.2,0.3-0.4,0.4c-0.2,0.1-0.3,0.1-0.5,0.1c-0.4,0-0.7-0.2-1-0.5
				c-0.3-0.3-0.4-0.8-0.4-1.5c0-0.4,0.1-0.8,0.2-1.1c0.1-0.3,0.3-0.5,0.5-0.7s0.4-0.2,0.7-0.2c0.2,0,0.3,0,0.5,0.1
				c0.1,0.1,0.3,0.2,0.4,0.4v-1.9h0.5v5.3H34.7z M33,223.1c0,0.5,0.1,0.9,0.3,1.1c0.2,0.2,0.4,0.4,0.6,0.4c0.2,0,0.4-0.1,0.6-0.3
				c0.2-0.2,0.2-0.6,0.2-1c0-0.5-0.1-0.9-0.2-1.2c-0.2-0.2-0.4-0.4-0.6-0.4c-0.2,0-0.4,0.1-0.6,0.4C33.1,222.3,33,222.6,33,223.1z"
				/>
			<path class="st7" d="M37.8,225v-3.3h-0.5v-0.5h0.5v-0.4c0-0.3,0-0.5,0.1-0.7c0.1-0.1,0.2-0.3,0.3-0.3c0.1-0.1,0.3-0.1,0.5-0.1
				c0.2,0,0.3,0,0.5,0.1l-0.1,0.6c-0.1,0-0.2,0-0.3,0c-0.2,0-0.3,0-0.3,0.1c-0.1,0.1-0.1,0.2-0.1,0.5v0.4H39v0.5h-0.6v3.3H37.8z"/>
			<path class="st7" d="M41.4,225v-0.6c-0.1,0.2-0.3,0.4-0.4,0.5c-0.2,0.1-0.4,0.2-0.6,0.2c-0.2,0-0.5-0.1-0.6-0.2
				c-0.2-0.1-0.3-0.3-0.3-0.5c-0.1-0.2-0.1-0.5-0.1-0.8v-2.4h0.5v2.1c0,0.4,0,0.7,0.1,0.8c0,0.1,0.1,0.2,0.2,0.3
				c0.1,0.1,0.2,0.1,0.4,0.1c0.3,0,0.5-0.1,0.6-0.3c0.1-0.2,0.2-0.5,0.2-1v-2h0.5v3.8H41.4z"/>
			<path class="st7" d="M42.7,225v-3.8h0.5v0.6c0.1-0.3,0.2-0.4,0.3-0.5c0.1-0.1,0.2-0.1,0.3-0.1c0.2,0,0.4,0.1,0.5,0.2l-0.2,0.6
				c-0.1-0.1-0.3-0.1-0.4-0.1c-0.1,0-0.2,0-0.3,0.1c-0.1,0.1-0.2,0.2-0.2,0.3c-0.1,0.2-0.1,0.5-0.1,0.8v2H42.7z"/>
			<path class="st7" d="M44.7,225v-3.8h0.5v0.5c0.1-0.2,0.3-0.4,0.4-0.5c0.2-0.1,0.4-0.2,0.6-0.2c0.2,0,0.3,0,0.5,0.1
				c0.1,0.1,0.3,0.2,0.3,0.3c0.1,0.1,0.2,0.2,0.2,0.4s0.1,0.4,0.1,0.8v2.3h-0.5v-2.3c0-0.3,0-0.5-0.1-0.6c0-0.1-0.1-0.2-0.2-0.3
				c-0.1-0.1-0.2-0.1-0.4-0.1c-0.3,0-0.5,0.1-0.6,0.3c-0.2,0.2-0.2,0.5-0.2,1v2.1H44.7z"/>
			<path class="st7" d="M48.1,220.5v-0.7h0.5v0.7H48.1z M48.1,225v-3.8h0.5v3.8H48.1z"/>
			<path class="st7" d="M50.6,224.5l0.1,0.6c-0.1,0-0.3,0.1-0.4,0.1c-0.2,0-0.3,0-0.4-0.1c-0.1-0.1-0.2-0.2-0.2-0.3
				c0-0.1-0.1-0.4-0.1-0.8v-2.2h-0.4v-0.5h0.4v-0.9l0.5-0.4v1.3h0.5v0.5H50v2.2c0,0.2,0,0.3,0,0.4c0,0.1,0.1,0.1,0.3,0.1
				C50.4,224.5,50.5,224.5,50.6,224.5z"/>
			<path class="st7" d="M53.1,225v-0.6c-0.1,0.2-0.3,0.4-0.4,0.5c-0.2,0.1-0.4,0.2-0.6,0.2c-0.2,0-0.5-0.1-0.6-0.2
				c-0.2-0.1-0.3-0.3-0.3-0.5c-0.1-0.2-0.1-0.5-0.1-0.8v-2.4h0.5v2.1c0,0.4,0,0.7,0.1,0.8c0,0.1,0.1,0.2,0.2,0.3s0.2,0.1,0.4,0.1
				c0.3,0,0.5-0.1,0.6-0.3c0.1-0.2,0.2-0.5,0.2-1v-2h0.5v3.8H53.1z"/>
			<path class="st7" d="M54.4,225v-3.8h0.5v0.6c0.1-0.3,0.2-0.4,0.3-0.5c0.1-0.1,0.2-0.1,0.3-0.1c0.2,0,0.4,0.1,0.5,0.2l-0.2,0.6
				c-0.1-0.1-0.3-0.1-0.4-0.1c-0.1,0-0.2,0-0.3,0.1c-0.1,0.1-0.2,0.2-0.2,0.3c-0.1,0.2-0.1,0.5-0.1,0.8v2H54.4z"/>
			<path class="st7" d="M58.6,223.8l0.5,0.1c-0.1,0.4-0.3,0.7-0.5,0.9c-0.2,0.2-0.5,0.3-0.9,0.3c-0.4,0-0.8-0.2-1.1-0.5
				c-0.3-0.3-0.4-0.8-0.4-1.5c0-0.7,0.1-1.2,0.4-1.5s0.6-0.5,1-0.5c0.4,0,0.7,0.2,1,0.5c0.3,0.3,0.4,0.8,0.4,1.5l0,0.2h-2.3
				c0,0.4,0.1,0.8,0.3,1c0.2,0.2,0.4,0.3,0.6,0.3C58.1,224.6,58.4,224.3,58.6,223.8z M56.8,222.8h1.7c0-0.3-0.1-0.6-0.2-0.7
				c-0.2-0.2-0.4-0.4-0.6-0.4c-0.2,0-0.4,0.1-0.6,0.3C56.9,222.2,56.8,222.4,56.8,222.8z"/>
			<path class="st7" d="M13.7,233.9v-5.3h0.6v2.2h2.2v-2.2h0.6v5.3h-0.6v-2.5h-2.2v2.5H13.7z"/>
			<path class="st7" d="M17.8,232c0-0.7,0.1-1.2,0.4-1.5c0.3-0.3,0.6-0.5,1-0.5c0.4,0,0.8,0.2,1,0.5c0.3,0.3,0.4,0.8,0.4,1.4
				c0,0.7-0.1,1.2-0.4,1.5c-0.3,0.3-0.6,0.5-1.1,0.5c-0.4,0-0.8-0.2-1-0.5C18,233.1,17.8,232.6,17.8,232z M18.4,231.9
				c0,0.5,0.1,0.9,0.3,1.1c0.2,0.2,0.4,0.4,0.7,0.4c0.2,0,0.5-0.1,0.6-0.4c0.2-0.2,0.3-0.6,0.3-1.1c0-0.5-0.1-0.9-0.3-1.1
				c-0.2-0.2-0.4-0.4-0.7-0.4c-0.3,0-0.5,0.1-0.6,0.4C18.5,231.1,18.4,231.5,18.4,231.9z"/>
			<path class="st7" d="M21.4,233.9V230h0.5v0.5c0.1-0.2,0.2-0.3,0.4-0.5c0.2-0.1,0.3-0.2,0.5-0.2c0.2,0,0.4,0.1,0.6,0.2
				c0.2,0.1,0.3,0.3,0.3,0.5c0.1-0.2,0.3-0.4,0.4-0.5c0.2-0.1,0.3-0.2,0.5-0.2c0.3,0,0.5,0.1,0.7,0.3c0.2,0.2,0.3,0.5,0.3,1v2.6
				h-0.5v-2.4c0-0.3,0-0.5-0.1-0.6c0-0.1-0.1-0.2-0.2-0.3c-0.1-0.1-0.2-0.1-0.3-0.1c-0.2,0-0.4,0.1-0.6,0.3
				c-0.1,0.2-0.2,0.5-0.2,0.9v2.2h-0.5v-2.5c0-0.3,0-0.5-0.1-0.7c-0.1-0.1-0.2-0.2-0.4-0.2c-0.2,0-0.4,0.1-0.6,0.3
				c-0.1,0.2-0.2,0.6-0.2,1.1v2H21.4z"/>
			<path class="st7" d="M28.5,232.6l0.5,0.1c-0.1,0.4-0.3,0.7-0.5,0.9c-0.2,0.2-0.5,0.3-0.9,0.3c-0.4,0-0.8-0.2-1.1-0.5
				c-0.3-0.3-0.4-0.8-0.4-1.5c0-0.7,0.1-1.2,0.4-1.5c0.3-0.3,0.6-0.5,1-0.5c0.4,0,0.7,0.2,1,0.5c0.3,0.3,0.4,0.8,0.4,1.5l0,0.2h-2.3
				c0,0.4,0.1,0.8,0.3,1c0.2,0.2,0.4,0.3,0.6,0.3C28.1,233.4,28.4,233.1,28.5,232.6z M26.8,231.6h1.7c0-0.3-0.1-0.6-0.2-0.7
				c-0.2-0.2-0.4-0.4-0.6-0.4c-0.2,0-0.4,0.1-0.6,0.3C26.9,231,26.8,231.3,26.8,231.6z"/>
			<path class="st7" d="M31.5,233.9v-5.3H32v4.6h2.1v0.6H31.5z"/>
			<path class="st7" d="M34.8,229.3v-0.7h0.5v0.7H34.8z M34.8,233.9V230h0.5v3.8H34.8z"/>
			<path class="st7" d="M36.1,233.9V230h0.5v0.5c0.1-0.2,0.3-0.4,0.4-0.5c0.2-0.1,0.4-0.2,0.6-0.2c0.2,0,0.3,0,0.5,0.1
				c0.1,0.1,0.3,0.2,0.3,0.3c0.1,0.1,0.2,0.2,0.2,0.4s0.1,0.4,0.1,0.8v2.3h-0.5v-2.3c0-0.3,0-0.5-0.1-0.6c0-0.1-0.1-0.2-0.2-0.3
				c-0.1-0.1-0.2-0.1-0.4-0.1c-0.3,0-0.5,0.1-0.6,0.3c-0.2,0.2-0.2,0.5-0.2,1v2.1H36.1z"/>
			<path class="st7" d="M41.6,232.6l0.5,0.1c-0.1,0.4-0.3,0.7-0.5,0.9c-0.2,0.2-0.5,0.3-0.9,0.3c-0.4,0-0.8-0.2-1.1-0.5
				c-0.3-0.3-0.4-0.8-0.4-1.5c0-0.7,0.1-1.2,0.4-1.5s0.6-0.5,1-0.5c0.4,0,0.7,0.2,1,0.5c0.3,0.3,0.4,0.8,0.4,1.5l0,0.2h-2.3
				c0,0.4,0.1,0.8,0.3,1c0.2,0.2,0.4,0.3,0.6,0.3C41.2,233.4,41.4,233.1,41.6,232.6z M39.8,231.6h1.7c0-0.3-0.1-0.6-0.2-0.7
				c-0.2-0.2-0.4-0.4-0.6-0.4c-0.2,0-0.4,0.1-0.6,0.3C40,231,39.9,231.3,39.8,231.6z"/>
		</g>
	</g>
</g>
</svg>
