<?xml version="1.0" encoding="UTF-8"?>
<svg id="svg8" xmlns="http://www.w3.org/2000/svg" version="1.1" xmlns:cc="http://creativecommons.org/ns#" xmlns:dc="http://purl.org/dc/elements/1.1/" xmlns:inkscape="http://www.inkscape.org/namespaces/inkscape" xmlns:rdf="http://www.w3.org/1999/02/22-rdf-syntax-ns#" xmlns:sodipodi="http://sodipodi.sourceforge.net/DTD/sodipodi-0.dtd" xmlns:svg="http://www.w3.org/2000/svg" viewBox="0 0 150 20">
  <defs>
    <style>
      .cls-1 {
        fill: #fec803;
      }

      .cls-1, .cls-2, .cls-3 {
        stroke-width: 0px;
      }

      .cls-2 {
        fill: #23307d;
      }

      .cls-3 {
        fill: #e9241d;
      }
    </style>
  </defs>
  <sodipodi:namedview id="base" bordercolor="#666666" borderopacity="1.0" inkscape:current-layer="layer1" inkscape:cx="53.118334" inkscape:cy="-1.6810012" inkscape:document-rotation="0" inkscape:document-units="mm" inkscape:pageopacity="0.0" inkscape:pageshadow="2" inkscape:showpageshadow="false" inkscape:window-height="745" inkscape:window-maximized="1" inkscape:window-width="1366" inkscape:window-x="-8" inkscape:window-y="-8" inkscape:zoom="7.9195959" pagecolor="#ffffff" showgrid="false" units="px"/>
  <g>
    <path class="cls-2" d="M136.4.4c-.9,0-1.7.8-1.7,1.7s.8,1.7,1.7,1.7,1.7-.8,1.7-1.7c0-1-.8-1.7-1.7-1.7Z"/>
    <path class="cls-2" d="M13.7,1.2c-3.6.4-7,1.1-10.5,2.1-.5.1-.7.6-.6,1.1.3,1,.4,1.5.6,2.5.1.4.5.6,1,.5,3.5-1.1,7.1-1.8,10.7-2.4.4,0,.6-.5.5-.9-.3-.9-.5-1.4-.8-2.3-.1-.4-.5-.6-.9-.6Z"/>
    <path class="cls-2" d="M86.6,1.3c-.9,0-2.6.5-3.4,1.1v14.6h3.4V1.3Z"/>
    <path class="cls-2" d="M66,5.3c-3.5,0-6.3,2.1-6.3,6.1s2.3,5.8,5.7,5.8,2.3-.2,3.5-.7l-.6-2.7c-.8.3-1.5.4-2.1.4-2.1,0-3-1.1-3-2.9s.9-3,3.2-3,1,0,1.4.2c.5-.6,1-1.6,1.1-2.7-1.1-.2-2-.4-3-.4Z"/>
    <path class="cls-2" d="M53.4,5.4c-1.9,0-4.2.5-5.6,1.5v10.1s3.4,0,3.4,0v-8.5c.4-.1.9-.2,1.4-.2,1.4,0,2.2.6,2.2,1.8v6.9h3.4v-8.1c0-2.2-2.2-3.5-4.8-3.5h0Z"/>
    <path class="cls-2" d="M107.2,5.4c-1.8,0-3.9.5-5.2,1.5v10.1s3.4,0,3.4,0v-8.5c.4-.1.9-.2,1.4-.2,1.3,0,2.1.6,2.1,1.8v6.9h3.3v-6.7c0-.6,0-1.1-.3-1.6.5-.2,1.1-.3,1.7-.3,1.3,0,2.1.6,2.1,1.8v6.9h3.3v-8.1c0-2.2-1.9-3.5-4.4-3.5s-2.9.5-4.1,1.2c-.9-.8-2.1-1.2-3.5-1.2h0Z"/>
    <path class="cls-2" d="M136.4,5.4c-.7,0-1.2.1-1.7.3v11.2h3.4V5.7c-.5-.2-1-.3-1.7-.3h0Z"/>
    <path class="cls-1" d="M16.7,6.7c-5.6.7-11,2.1-16.2,4.4-.4.2-.6.7-.5,1.1.2,1.1.3,1.6.5,2.7,0,.5.5.7.9.5,5.3-2.4,10.8-3.9,16.5-4.9.4,0,.6-.5.4-.9-.3-.9-.4-1.3-.7-2.2-.1-.4-.5-.7-.9-.6Z"/>
    <g>
      <path class="cls-2" d="M128.1,5.4c-1.1,0-2.2.5-3.2,1.3V1.3c-.9,0-2.6.5-3.4,1.1v13.9c1.1.5,3,.9,4.9.9,4,0,6.4-2.4,6.4-6.5s-1.4-5.3-4.7-5.3ZM126.6,14.4c-.5,0-1.1,0-1.7-.1v-5.7c.5-.2,1.1-.4,1.8-.4,1.7,0,2.8.8,2.8,2.8s-.9,3.4-2.8,3.4Z"/>
      <path class="cls-2" d="M124.9,1.3h0s0,0,0,0h0Z"/>
    </g>
    <path class="cls-2" d="M75.5,5.3c-3.4,0-5.9,2.3-5.9,5.9s2.3,5.9,5.9,5.9,5.9-2.3,5.9-5.9c0-3.5-2.3-5.9-5.9-5.9ZM75.5,14.2c-1.5,0-2.5-1-2.5-3,0-1.9.9-3,2.5-3s2.5,1.1,2.5,3-.9,3-2.5,3Z"/>
    <path class="cls-2" d="M94.4,5.3c-3.4,0-5.9,2.3-5.9,5.9s2.3,5.9,5.9,5.9,5.9-2.3,5.9-5.9-2.3-5.9-5.9-5.9ZM94.4,14.2c-1.5,0-2.5-1-2.5-3,0-1.9.9-3,2.5-3s2.5,1.1,2.5,3-.9,3-2.5,3Z"/>
    <path class="cls-2" d="M31.7,8.7c1.3-.5,2.1-1.5,2.1-2.9,0-2.5-2.4-3.9-5.5-3.9s-3,.2-4.9.5v14.7h5.5c3,0,5.7-1.8,5.7-4.4s-.9-3.3-2.9-3.9ZM26.8,4.8c.5,0,1-.1,1.4-.1,1.4,0,2.1.7,2.1,1.6s-.6,1.5-2,1.5h-1.5v-3ZM28.6,14.1h-1.8v-3.4h1.8c1.5,0,2.3.5,2.3,1.7s-.8,1.7-2.3,1.7Z"/>
    <path class="cls-2" d="M40.7,5.4c-1.5,0-2.8.4-4.2.9l.3.8c.4,1,.8,1.3,1.3,1.3s2-.3,2.6-.3c1.2,0,1.8.4,1.9,1.8-3.7.1-6.8.9-6.8,4.2s2,3.1,4.3,3.1,4.6-.5,5.8-1.4v-6c0-3.2-1.9-4.4-5.1-4.4ZM42.5,14c-.3.3-1.1.6-1.9.6s-1.6-.3-1.6-1.1c0-1.1,1.4-1.4,2.9-1.4h.7v1.9Z"/>
    <path class="cls-2" d="M144.8,5.4c-1.5,0-2.8.4-4.2.9l.3.8c.4,1,.8,1.3,1.3,1.3s2-.3,2.6-.3c1.2,0,1.8.4,1.9,1.8-3.7.1-6.8.9-6.8,4.2s2,3.1,4.3,3.1,4.6-.5,5.8-1.4v-6c0-3.2-1.9-4.4-5.1-4.4ZM146.6,14c-.3.3-1.1.6-1.9.6s-1.6-.3-1.6-1.1,1.4-1.4,2.9-1.4h.7v1.9Z"/>
    <path class="cls-3" d="M16.6,12.7c-3.5.8-6.9,1.7-10.3,2.8-.4.2-.7.6-.6,1,.3,1,.4,1.5.7,2.5.1.5.7.7,1.1.5,3.4-1.2,6.8-2.3,10.3-3.1.3,0,.5-.5.4-.9-.3-.9-.4-1.3-.7-2.2-.1-.4-.5-.7-.9-.6Z"/>
  </g>
</svg>