<?xml version="1.0" encoding="utf-8"?>
<!-- Generator: Adobe Illustrator 24.1.1, SVG Export Plug-In . SVG Version: 6.00 Build 0)  -->
<svg version="1.1" id="Capa_1" xmlns="http://www.w3.org/2000/svg" xmlns:xlink="http://www.w3.org/1999/xlink" x="0px" y="0px"
	 viewBox="0 0 136 69" style="enable-background:new 0 0 136 69;" xml:space="preserve">
<style type="text/css">
	.st0{fill:#E4E4E4;}
	.st1{fill:#122D80;}
</style>
<path class="st0" d="M112.8,0H0v53.4h136V23.3C136,10.4,125.6,0,112.8,0z"/>
<path class="st1" d="M21.8,4.2H4.2v45h17.6V4.2z"/>
<path class="st1" d="M77.7,36.5c0,7.1-5,12.7-19.6,12.7H28.9v-45h30.3c14.1,0,17.5,6.4,17.5,12.2c0,5.3-2.8,7.2-5.5,8.9v1
	C75.1,28.6,77.7,31.5,77.7,36.5z M46.5,17.5v4.6h10.7c2.5,0,2.7-1.8,2.7-2.2c0-0.7-0.2-2.4-2.7-2.4H46.5z M59.9,33.4
	c0-0.4-0.1-2.3-2.6-2.3H46.5v4.7h10.8C59.8,35.8,59.9,33.8,59.9,33.4z"/>
<path class="st1" d="M131.2,49.2h-8.8l-0.3-5.1h-0.3c-3.2,3.9-8.7,6.6-16.3,6.6c-13.9,0-24.7-9.4-24.7-24c0-14.6,10.1-24,26.3-24
	c11.2,0,22.8,5.5,24.1,18.2h-17.4c-0.4-1-2.6-3-6.3-3c-5.5,0-9.2,3.3-9.2,8.8s3.9,8.8,8.6,8.8c0.8,0,5.7,0.2,7.3-3.9h-6.7
	c-0.6,0-1.1-0.5-1.1-1.1v-7h24.7V49.2z"/>
<path class="st0" d="M3,60.9H0.1v7.8H3V60.9z"/>
<path class="st0" d="M3.5,60.9h2.9l1.7,5.2h0.3l1.7-5.2h2.9l-2.8,7.8h-4L3.5,60.9z"/>
<path class="st0" d="M17.9,67.8h-3.2l-0.3,0.9h-2.9l2.8-7.8h4l2.8,7.8h-2.9L17.9,67.8z M17.6,60.4h-2.5l0.7-1.7h2.5L17.6,60.4z
	 M17.3,65.7l-0.7-2.2h-0.5l-0.7,2.2H17.3z"/>
<path class="st0" d="M21.7,60.9h3.2l2.3,3.9h0.3v-3.9h2.7v7.8H27l-2.3-3.9h-0.3v3.9h-2.7V60.9z"/>
<path class="st0" d="M42,66.5c0,1.2-0.9,2.2-3.4,2.2h-4.9v-7.8h5.1c2.4,0,3,1.1,3,2.1c0,0.9-0.5,1.3-1,1.6v0.2
	C41.5,65.1,42,65.6,42,66.5z M36.5,63v1h1.9c0.5,0,0.6-0.3,0.6-0.5c0-0.2-0.1-0.5-0.6-0.5H36.5z M39.1,66c0-0.2-0.1-0.5-0.6-0.5h-2
	v1.1h2C39,66.6,39.1,66.2,39.1,66z"/>
<path class="st0" d="M42.5,64.8c0-2.5,1.7-4.2,4.5-4.2c2.7,0,4.5,1.6,4.5,4.2c0,2.5-1.7,4.2-4.5,4.2C44.2,69,42.5,67.3,42.5,64.8z
	 M48.6,64.8c0-1.1-0.8-1.7-1.7-1.7c-0.9,0-1.7,0.6-1.7,1.7c0,1.1,0.8,1.7,1.7,1.7C47.8,66.5,48.6,65.9,48.6,64.8z"/>
<path class="st0" d="M60.1,63.2h-2.8v5.5h-2.8v-5.5h-2.8v-2.4h8.4V63.2z"/>
<path class="st0" d="M60.8,60.9h7.2v2.2h-4.4v0.8h4.2v1.8h-4.2v0.8h4.4v2.2h-7.2V60.9z"/>
<path class="st0" d="M74.5,68.7l-1-1.9h-1.8v1.9h-2.8v-7.8h4.6c2.2,0,3.4,0.9,3.4,3.1c0,1-0.4,1.8-1.1,2.2l1.4,2.5H74.5z M71.7,64.7
	h1.6c0.6,0,0.8-0.3,0.8-0.7c0-0.5-0.3-0.7-0.8-0.7h-1.6V64.7z"/>
<path class="st0" d="M77.6,64.8c0-2.5,1.7-4.2,4.5-4.2c2.7,0,4.5,1.6,4.5,4.2c0,2.5-1.7,4.2-4.5,4.2C79.3,69,77.6,67.3,77.6,64.8z
	 M83.7,64.8c0-1.1-0.8-1.7-1.7-1.7c-0.9,0-1.7,0.6-1.7,1.7c0,1.1,0.8,1.7,1.7,1.7C82.9,66.5,83.7,65.9,83.7,64.8z"/>
<path class="st0" d="M98.4,68.7H97l0-1h0C96.4,68.5,95.4,69,94,69c-2.4,0-4.3-1.6-4.3-4.2c0-2.5,1.8-4.2,4.5-4.2
	c1.9,0,3.9,0.9,4.1,3.1h-2.8c-0.1-0.3-0.5-0.6-1.3-0.6c-1.1,0-1.8,0.7-1.8,1.7c0,1.1,0.8,1.7,1.7,1.7c0.3,0,1.2,0,1.4-0.8h-1.5v-1.4
	h4.3L98.4,68.7L98.4,68.7z"/>
<path class="st0" d="M99.1,64.8c0-2.5,1.7-4.2,4.5-4.2c2.7,0,4.5,1.7,4.5,4.2s-1.7,4.2-4.5,4.2C100.9,69,99.1,67.3,99.1,64.8z
	 M105.3,64.8c0-1.1-0.8-1.7-1.7-1.7c-0.9,0-1.7,0.6-1.7,1.7s0.8,1.7,1.7,1.7C104.5,66.5,105.3,65.9,105.3,64.8z M103,58.7h2.5
	l-0.7,1.7h-2.5L103,58.7z"/>
<path class="st0" d="M108.8,60.9h3.5l1.1,4.1h0.2l1.1-4.1h3.5v7.8h-2.7v-3.1h-0.2l-0.8,3.1h-2.1l-0.8-3.1h-0.2v3.1h-2.7V60.9z"/>
<path class="st0" d="M119,60.9h7.2v2.2h-4.4v0.8h4.2v1.8h-4.2v0.8h4.4v2.2H119V60.9z"/>
<path class="st0" d="M126.9,66.4l3.8-3v-0.2H127v-2.4h7.4v2.3l-3.9,3v0.2h3.8v2.3h-7.4V66.4z"/>
</svg>
