<?xml version="1.0" encoding="utf-8"?>
<!-- Generator: Adobe Illustrator 27.0.1, SVG Export Plug-In . SVG Version: 6.00 Build 0)  -->
<svg version="1.1" id="Capa_1" xmlns="http://www.w3.org/2000/svg" xmlns:xlink="http://www.w3.org/1999/xlink" x="0px" y="0px"
	 viewBox="0 0 150 80" style="enable-background:new 0 0 150 80;" xml:space="preserve">
<style type="text/css">
	.st0{fill:#23307D;}
	.st1{fill:#FEC803;}
	.st2{fill:#E9241D;}
</style>
<g>
	<path class="st0" d="M86.4,22.5c0.5,0.2,1.1,0.1,1.6,0.2c0.8,0.1,1.4,0.5,1.7,1.2c0.7,1.3,1.3,2.6,1.8,4c0.2,0.6,0,0.8-0.7,0.9
		c-0.8,0.1-1.6,0.1-2.4,0.1c-4.4,0.1-8.8,0.6-13.1,1.3c-4,0.6-8,1.6-11.9,2.7c-0.4,0.1-0.8,0.2-1.2,0.2c-0.9,0.1-1.3-0.1-1.7-1
		c-0.3-0.7-0.6-1.5-0.8-2.3c-0.2-0.7-0.5-1.4-0.7-2.1c-0.2-0.8,0-1.3,0.7-1.7c0.9-0.5,1.9-0.7,2.9-1c3.5-0.9,7.1-1.5,10.6-1.9
		c1.8-0.2,3.6-0.4,5.5-0.6c0.1,0,0.1,0,0.1-0.1h2c0.6,0.1,1.2,0.1,1.8,0h1.9c0.4,0.1,0.9,0.1,1.3,0C86,22.5,86.2,22.5,86.4,22.5
		L86.4,22.5z"/>
	<path class="st1" d="M53.3,39.8c0-0.9,0.4-1.5,1.1-1.9c1-0.6,2.1-0.9,3.1-1.3c5.1-1.8,10.3-3.2,15.6-4.2c4.1-0.8,8.3-1.4,12.5-1.7
		c2.1-0.2,4.2-0.2,6.3-0.1c1.3,0.1,1.9,0.4,2.3,1.7c0.5,1.4,1,2.7,1.6,4c0.4,1.1,0.2,1.5-1,1.8c-1.4,0.4-2.9,0.5-4.4,0.8
		c-3.4,0.6-6.8,1.2-10.2,2c-4.7,1.1-9.4,2.2-14.1,3.6c-2.7,0.8-5.3,1.7-8,2.7c-0.5,0.2-1,0.3-1.5,0.4c-0.9,0.1-1.4-0.1-1.8-0.9
		c-0.3-0.8-0.5-1.6-0.7-2.4c-0.3-1.3-0.7-2.6-0.9-3.9C53.4,40.2,53.4,40,53.3,39.8L53.3,39.8z"/>
	<path class="st2" d="M73.1,57.5c-0.9,0-1.5-0.4-1.9-1.2c-0.4-0.8-0.6-1.6-0.9-2.5c-0.5-1.9-1.4-3.6-2-5.4c0-0.1-0.1-0.2-0.1-0.3
		c-0.4-1.3,0-2.2,1.3-2.6c1.2-0.4,2.4-0.6,3.6-1c3.9-1,7.7-2,11.6-2.9c2.4-0.5,4.8-1,7.3-1.5c0.3-0.1,0.5-0.1,0.8-0.1
		c0.8,0,1.4,0.3,1.7,1c0.5,1,0.8,2,1.1,3c0.3,1,0.7,2,0.9,3c0.2,1.1,0,1.6-1,2c-1.7,0.8-3.5,1.3-5.2,2c-4.9,1.9-9.8,3.8-14.6,5.7
		C74.9,57.1,74,57.5,73.1,57.5L73.1,57.5z"/>
</g>
</svg>
