<?xml version="1.0" encoding="utf-8"?>
<!-- Generator: Adobe Illustrator 27.0.1, SVG Export Plug-In . SVG Version: 6.00 Build 0)  -->
<svg version="1.1" id="Capa_1" xmlns="http://www.w3.org/2000/svg" xmlns:xlink="http://www.w3.org/1999/xlink" x="0px" y="0px"
	 viewBox="0 0 200 200" style="enable-background:new 0 0 200 200;" xml:space="preserve">
<style type="text/css">
	.st0{fill:#1B2140;}
	.st1{fill:#F1C900;}
	.st2{fill:#5E7DFC;}
</style>
<g>
	<g>
		<g>
			<path class="st0" d="M27.5,139.1h-4.2v-7.3h4.2l0.3,0.9h-3.4v2.2h2.9v0.9h-2.9v2.4h3.5L27.5,139.1z"/>
			<path class="st0" d="M31,136c0.7,0.2,1.2,0.4,1.5,0.6s0.4,0.6,0.4,1c0,0.5-0.2,0.8-0.6,1.1c-0.4,0.3-0.9,0.4-1.5,0.4
				c-0.4,0-0.7-0.1-1.1-0.2s-0.7-0.3-1-0.5l-0.2-1.1l0,0c0.4,0.3,0.8,0.5,1.2,0.7c0.4,0.2,0.8,0.2,1.2,0.2c0.3,0,0.6-0.1,0.8-0.2
				s0.3-0.3,0.3-0.5c0-0.2-0.1-0.4-0.3-0.5c-0.2-0.1-0.6-0.2-1.1-0.4c-0.7-0.2-1.2-0.4-1.4-0.6c-0.3-0.2-0.4-0.5-0.4-0.9
				c0-0.5,0.2-0.8,0.6-1.1c0.4-0.3,0.9-0.4,1.5-0.4c0.3,0,0.6,0,0.9,0.1c0.3,0.1,0.6,0.2,0.8,0.4v1h0c-0.3-0.2-0.6-0.4-1-0.5
				s-0.6-0.2-0.9-0.2c-0.3,0-0.6,0.1-0.8,0.2c-0.2,0.1-0.3,0.3-0.3,0.4c0,0.2,0.1,0.4,0.3,0.5S30.4,135.9,31,136z"/>
			<path class="st0" d="M35.3,134.4L35.3,134.4l0-1l2.7-1.7l0.2,0.1v7.4h-1v-5.9L35.3,134.4z"/>
			<path class="st0" d="M39.6,135.4c0-1.1,0.3-2,0.8-2.7c0.5-0.7,1.2-1.1,2.1-1.1c0.9,0,1.6,0.4,2.1,1.1c0.5,0.7,0.8,1.6,0.8,2.7
				c0,1.1-0.3,2-0.8,2.8c-0.5,0.7-1.2,1.1-2.1,1.1s-1.6-0.4-2.1-1.1C39.9,137.5,39.6,136.6,39.6,135.4z M40.6,135.4
				c0,0.9,0.2,1.6,0.5,2.1c0.4,0.5,0.8,0.8,1.4,0.8c0.6,0,1-0.3,1.4-0.8s0.5-1.2,0.5-2.1c0-0.9-0.2-1.6-0.5-2.1
				c-0.4-0.5-0.8-0.8-1.4-0.8c-0.6,0-1,0.3-1.4,0.8C40.8,133.9,40.6,134.6,40.6,135.4z"/>
			<path class="st0" d="M46.3,135.4c0-1.1,0.3-2,0.8-2.7c0.5-0.7,1.2-1.1,2.1-1.1c0.9,0,1.6,0.4,2.1,1.1c0.5,0.7,0.8,1.6,0.8,2.7
				c0,1.1-0.3,2-0.8,2.8c-0.5,0.7-1.2,1.1-2.1,1.1s-1.6-0.4-2.1-1.1C46.6,137.5,46.3,136.6,46.3,135.4z M47.3,135.4
				c0,0.9,0.2,1.6,0.5,2.1c0.4,0.5,0.8,0.8,1.4,0.8c0.6,0,1-0.3,1.4-0.8s0.5-1.2,0.5-2.1c0-0.9-0.2-1.6-0.5-2.1
				c-0.4-0.5-0.8-0.8-1.4-0.8c-0.6,0-1,0.3-1.4,0.8C47.4,133.9,47.3,134.6,47.3,135.4z"/>
			<path class="st0" d="M56.4,133.7c0,0.6-0.2,1.1-0.5,1.5s-0.8,0.6-1.3,0.6c-0.5,0-1-0.2-1.3-0.6c-0.3-0.4-0.5-0.9-0.5-1.5
				c0-0.6,0.2-1.1,0.5-1.5c0.3-0.4,0.8-0.6,1.3-0.6c0.5,0,1,0.2,1.3,0.6S56.4,133.1,56.4,133.7z M54.6,132.3c-0.3,0-0.5,0.1-0.7,0.4
				c-0.2,0.3-0.3,0.6-0.3,1c0,0.4,0.1,0.8,0.3,1c0.2,0.3,0.4,0.4,0.7,0.4c0.3,0,0.5-0.1,0.7-0.4c0.2-0.3,0.3-0.6,0.3-1
				c0-0.4-0.1-0.8-0.3-1C55.2,132.5,54.9,132.3,54.6,132.3z M55.2,139.1h-0.9l2.6-3.9l2.3-3.5h0.9l-2.7,3.9L55.2,139.1z M58,137.1
				c0-0.6,0.2-1.1,0.5-1.5c0.3-0.4,0.8-0.6,1.3-0.6c0.5,0,1,0.2,1.3,0.6c0.3,0.4,0.5,0.9,0.5,1.5s-0.2,1.1-0.5,1.5
				c-0.3,0.4-0.8,0.6-1.3,0.6c-0.5,0-1-0.2-1.3-0.6C58.2,138.3,58,137.8,58,137.1z M59.8,138.5c0.3,0,0.5-0.1,0.7-0.4
				c0.2-0.3,0.3-0.6,0.3-1c0-0.4-0.1-0.8-0.3-1c-0.2-0.3-0.4-0.4-0.7-0.4c-0.3,0-0.5,0.1-0.7,0.4c-0.2,0.3-0.3,0.6-0.3,1
				c0,0.4,0.1,0.8,0.3,1C59.3,138.4,59.5,138.5,59.8,138.5z"/>
			<path class="st0" d="M67.6,133.9v0.8h-1.7v4.4h-1v-4.4H64v-0.8h0.9V133c0-0.6,0.2-1,0.5-1.4c0.3-0.3,0.7-0.5,1.3-0.5
				c0.2,0,0.3,0,0.5,0c0.1,0,0.3,0.1,0.4,0.1l0.2,1l0,0c-0.2-0.1-0.4-0.2-0.5-0.2c-0.1,0-0.3-0.1-0.5-0.1c-0.3,0-0.5,0.1-0.6,0.3
				c-0.2,0.2-0.2,0.4-0.2,0.7v0.9H67.6z"/>
			<path class="st0" d="M72.2,135.9v3.1l-1,0.2v-0.9c-0.4,0.3-0.8,0.5-1.1,0.7c-0.3,0.2-0.7,0.2-1,0.2c-0.5,0-0.8-0.1-1.1-0.4
				c-0.3-0.3-0.4-0.6-0.4-1c0-0.6,0.3-1,0.9-1.3c0.6-0.3,1.5-0.4,2.8-0.5v0c0-0.4-0.1-0.8-0.3-1c-0.2-0.2-0.5-0.3-0.9-0.3
				c-0.3,0-0.6,0.1-0.9,0.2c-0.3,0.1-0.6,0.3-1,0.6l0,0l0.2-1.1c0.3-0.2,0.6-0.3,0.9-0.4s0.6-0.1,1-0.1c0.6,0,1.1,0.2,1.5,0.6
				C72.1,134.7,72.2,135.2,72.2,135.9z M68.6,137.7c0,0.2,0.1,0.4,0.2,0.5c0.1,0.1,0.3,0.2,0.6,0.2s0.5-0.1,0.8-0.2
				c0.3-0.1,0.7-0.3,1.1-0.6v-1c-0.9,0.1-1.6,0.2-2.1,0.4C68.8,137.1,68.6,137.4,68.6,137.7z M70.4,132.8h-0.5l0.9-1.8h1.3v0
				L70.4,132.8z"/>
			<path class="st0" d="M77.8,137.5l-0.2,1.1c-0.3,0.2-0.6,0.3-0.9,0.4c-0.3,0.1-0.6,0.2-0.9,0.2c-0.8,0-1.4-0.3-1.9-0.8
				c-0.5-0.5-0.8-1.2-0.8-2c0-0.8,0.3-1.4,0.8-2c0.5-0.5,1.2-0.8,2-0.8c0.4,0,0.7,0.1,1,0.2c0.3,0.1,0.6,0.3,0.8,0.5v1.2h0
				c-0.3-0.3-0.6-0.6-0.9-0.7s-0.6-0.2-0.9-0.2c-0.5,0-0.9,0.2-1.3,0.5c-0.3,0.4-0.5,0.8-0.5,1.3c0,0.5,0.2,1,0.5,1.3
				s0.7,0.5,1.3,0.5c0.3,0,0.6-0.1,1-0.2S77.5,137.8,77.8,137.5L77.8,137.5z"/>
			<path class="st0" d="M79.3,131.3c0.2,0,0.3,0.1,0.5,0.2c0.1,0.1,0.2,0.3,0.2,0.5s-0.1,0.3-0.2,0.5c-0.1,0.1-0.3,0.2-0.5,0.2
				s-0.3-0.1-0.5-0.2c-0.1-0.1-0.2-0.3-0.2-0.5s0.1-0.3,0.2-0.5C79,131.4,79.1,131.3,79.3,131.3z M79.8,139.1h-1v-5.2h1V139.1z"/>
			<path class="st0" d="M82.2,139.1h-1v-7.6l1-0.3V139.1z"/>
			<path class="st0" d="M82.9,140.8l-0.3-0.2c0.3-0.4,0.6-0.8,0.7-1.1s0.2-0.7,0.2-1.2v-0.3h1c0,0.6-0.1,1.1-0.3,1.5
				C83.9,139.8,83.5,140.3,82.9,140.8z"/>
			<path class="st0" d="M86.8,134.4L86.8,134.4l0-1l2.7-1.7l0.2,0.1v7.4h-1v-5.9L86.8,134.4z"/>
			<path class="st0" d="M91.1,135.4c0-1.1,0.3-2,0.8-2.7c0.5-0.7,1.2-1.1,2.1-1.1c0.9,0,1.6,0.4,2.1,1.1c0.5,0.7,0.8,1.6,0.8,2.7
				c0,1.1-0.3,2-0.8,2.8c-0.5,0.7-1.2,1.1-2.1,1.1s-1.6-0.4-2.1-1.1C91.4,137.5,91.1,136.6,91.1,135.4z M92.1,135.4
				c0,0.9,0.2,1.6,0.5,2.1c0.4,0.5,0.8,0.8,1.4,0.8c0.6,0,1-0.3,1.4-0.8s0.5-1.2,0.5-2.1c0-0.9-0.2-1.6-0.5-2.1
				c-0.4-0.5-0.8-0.8-1.4-0.8c-0.6,0-1,0.3-1.4,0.8C92.3,133.9,92.1,134.6,92.1,135.4z"/>
			<path class="st0" d="M97.8,135.4c0-1.1,0.3-2,0.8-2.7c0.5-0.7,1.2-1.1,2.1-1.1c0.9,0,1.6,0.4,2.1,1.1s0.8,1.6,0.8,2.7
				c0,1.1-0.3,2-0.8,2.8c-0.5,0.7-1.2,1.1-2.1,1.1c-0.9,0-1.6-0.4-2.1-1.1C98.1,137.5,97.8,136.6,97.8,135.4z M98.8,135.4
				c0,0.9,0.2,1.6,0.5,2.1c0.4,0.5,0.8,0.8,1.4,0.8c0.6,0,1-0.3,1.4-0.8s0.5-1.2,0.5-2.1c0-0.9-0.2-1.6-0.5-2.1
				c-0.4-0.5-0.8-0.8-1.4-0.8c-0.6,0-1,0.3-1.4,0.8C99,133.9,98.8,134.6,98.8,135.4z"/>
			<path class="st0" d="M108,133.7c0,0.6-0.2,1.1-0.5,1.5c-0.3,0.4-0.8,0.6-1.3,0.6c-0.5,0-1-0.2-1.3-0.6c-0.3-0.4-0.5-0.9-0.5-1.5
				c0-0.6,0.2-1.1,0.5-1.5c0.3-0.4,0.8-0.6,1.3-0.6c0.5,0,1,0.2,1.3,0.6S108,133.1,108,133.7z M106.2,132.3c-0.3,0-0.5,0.1-0.7,0.4
				c-0.2,0.3-0.3,0.6-0.3,1c0,0.4,0.1,0.8,0.3,1c0.2,0.3,0.4,0.4,0.7,0.4c0.3,0,0.5-0.1,0.7-0.4c0.2-0.3,0.3-0.6,0.3-1
				c0-0.4-0.1-0.8-0.3-1C106.7,132.5,106.5,132.3,106.2,132.3z M106.7,139.1h-0.9l2.7-3.9l2.3-3.5h0.9l-2.7,3.9L106.7,139.1z
				 M109.6,137.1c0-0.6,0.2-1.1,0.5-1.5c0.3-0.4,0.8-0.6,1.3-0.6c0.5,0,1,0.2,1.3,0.6c0.3,0.4,0.5,0.9,0.5,1.5s-0.2,1.1-0.5,1.5
				c-0.3,0.4-0.8,0.6-1.3,0.6c-0.5,0-1-0.2-1.3-0.6C109.7,138.3,109.6,137.8,109.6,137.1z M111.4,138.5c0.3,0,0.5-0.1,0.7-0.4
				c0.2-0.3,0.3-0.6,0.3-1c0-0.4-0.1-0.8-0.3-1c-0.2-0.3-0.4-0.4-0.7-0.4c-0.3,0-0.5,0.1-0.7,0.4c-0.2,0.3-0.3,0.6-0.3,1
				c0,0.4,0.1,0.8,0.3,1C110.9,138.4,111.1,138.5,111.4,138.5z"/>
			<path class="st0" d="M120.8,139.1h-1v-0.8c-0.3,0.3-0.6,0.5-0.9,0.7c-0.3,0.1-0.6,0.2-0.9,0.2c-0.7,0-1.2-0.2-1.7-0.7
				c-0.5-0.5-0.7-1.1-0.7-1.9c0-0.8,0.3-1.5,0.8-2c0.5-0.5,1.1-0.8,1.9-0.8c0.3,0,0.5,0,0.8,0.1c0.3,0.1,0.5,0.2,0.8,0.4v-2.8l1-0.3
				V139.1z M118.4,134.6c-0.5,0-1,0.2-1.3,0.5c-0.3,0.4-0.5,0.8-0.5,1.4c0,0.5,0.2,1,0.5,1.3s0.7,0.5,1.2,0.5c0.3,0,0.5-0.1,0.8-0.2
				c0.2-0.1,0.5-0.3,0.8-0.5v-2.6c-0.2-0.2-0.5-0.3-0.7-0.3C118.9,134.7,118.6,134.6,118.4,134.6z"/>
			<path class="st0" d="M122.7,131.3c0.2,0,0.3,0.1,0.5,0.2c0.1,0.1,0.2,0.3,0.2,0.5s-0.1,0.3-0.2,0.5c-0.1,0.1-0.3,0.2-0.5,0.2
				c-0.2,0-0.3-0.1-0.5-0.2c-0.1-0.1-0.2-0.3-0.2-0.5s0.1-0.3,0.2-0.5S122.5,131.3,122.7,131.3z M123.1,139.1h-1v-5.2h1V139.1z"/>
			<path class="st0" d="M129.3,133.9v4.7c0,0.8-0.2,1.4-0.7,1.9c-0.5,0.5-1.2,0.7-2,0.7c-0.4,0-0.7,0-1-0.1c-0.3-0.1-0.7-0.2-1-0.4
				l-0.2-1.1l0,0c0.4,0.2,0.8,0.4,1.2,0.5c0.4,0.1,0.7,0.2,1.1,0.2c0.5,0,0.9-0.2,1.3-0.5c0.3-0.3,0.5-0.7,0.5-1.2v-0.5
				c-0.3,0.3-0.6,0.5-0.9,0.7c-0.3,0.1-0.6,0.2-1,0.2c-0.7,0-1.2-0.2-1.7-0.7c-0.4-0.5-0.7-1.1-0.7-1.8c0-0.8,0.3-1.5,0.8-2
				c0.6-0.5,1.2-0.8,2.1-0.8c0.2,0,0.5,0,0.7,0.1c0.2,0,0.5,0.1,0.8,0.2l0.7-0.2H129.3z M127.1,134.6c-0.6,0-1,0.2-1.4,0.5
				c-0.4,0.4-0.6,0.8-0.6,1.3c0,0.5,0.2,0.9,0.5,1.2s0.7,0.5,1.2,0.5c0.3,0,0.5-0.1,0.8-0.2c0.3-0.1,0.5-0.3,0.8-0.5v-2.6
				c-0.2-0.1-0.5-0.2-0.7-0.2S127.3,134.6,127.1,134.6z"/>
			<path class="st0" d="M131.2,131.3c0.2,0,0.3,0.1,0.5,0.2c0.1,0.1,0.2,0.3,0.2,0.5s-0.1,0.3-0.2,0.5c-0.1,0.1-0.3,0.2-0.5,0.2
				c-0.2,0-0.3-0.1-0.5-0.2c-0.1-0.1-0.2-0.3-0.2-0.5s0.1-0.3,0.2-0.5S131,131.3,131.2,131.3z M131.7,139.1h-1v-5.2h1V139.1z"/>
			<path class="st0" d="M136.5,137.8l-0.2,1c-0.2,0.1-0.3,0.2-0.5,0.3s-0.4,0.1-0.7,0.1c-0.5,0-0.9-0.2-1.2-0.5
				c-0.3-0.3-0.4-0.7-0.4-1.3v-2.8h-0.9v-0.8h0.9v-1.2l0.9-0.3v1.5h2.1v0.8h-2.1v2.8c0,0.3,0.1,0.5,0.2,0.7s0.4,0.2,0.7,0.2
				c0.2,0,0.4,0,0.6-0.1C136.1,138.1,136.3,138,136.5,137.8L136.5,137.8z"/>
			<path class="st0" d="M141.7,135.9v3.1l-1,0.2v-0.9c-0.4,0.3-0.8,0.5-1.1,0.7s-0.7,0.2-1,0.2c-0.5,0-0.8-0.1-1.1-0.4
				c-0.3-0.3-0.4-0.6-0.4-1c0-0.6,0.3-1,0.9-1.3c0.6-0.3,1.5-0.4,2.8-0.5v0c0-0.4-0.1-0.8-0.3-1c-0.2-0.2-0.5-0.3-0.9-0.3
				c-0.3,0-0.6,0.1-0.9,0.2c-0.3,0.1-0.6,0.3-1,0.6l0,0l0.2-1.1c0.3-0.2,0.6-0.3,0.9-0.4c0.3-0.1,0.6-0.1,1-0.1
				c0.6,0,1.1,0.2,1.5,0.6C141.5,134.7,141.7,135.2,141.7,135.9z M138,137.7c0,0.2,0.1,0.4,0.2,0.5s0.3,0.2,0.6,0.2s0.5-0.1,0.8-0.2
				c0.3-0.1,0.7-0.3,1.1-0.6v-1c-0.9,0.1-1.6,0.2-2.1,0.4C138.3,137.1,138,137.4,138,137.7z"/>
			<path class="st0" d="M144,139.1h-1v-7.6l1-0.3V139.1z"/>
			<path class="st0" d="M145.6,139.2c-0.2,0-0.4-0.1-0.5-0.2c-0.1-0.1-0.2-0.3-0.2-0.5c0-0.2,0.1-0.4,0.2-0.5
				c0.1-0.1,0.3-0.2,0.5-0.2c0.2,0,0.4,0.1,0.5,0.2c0.1,0.1,0.2,0.3,0.2,0.5c0,0.2-0.1,0.4-0.2,0.5
				C146,139.1,145.8,139.2,145.6,139.2z"/>
		</g>
	</g>
	<rect x="15.8" y="55.8" class="st1" width="117.9" height="9.8"/>
	<g>
		<g>
			<path class="st0" d="M24,43.8c-1.9,0-3.4-0.6-4.7-1.8s-1.8-2.8-1.8-4.7c0-1.9,0.6-3.4,1.9-4.7c1.3-1.2,2.9-1.9,4.8-1.9
				c0.8,0,1.6,0.1,2.3,0.3c0.7,0.2,1.4,0.6,1.9,1v3.7h-0.1c-0.6-0.6-1.2-1-1.8-1.3c-0.6-0.3-1.3-0.5-1.9-0.5c-1,0-1.8,0.3-2.4,0.9
				c-0.6,0.6-0.9,1.4-0.9,2.3c0,1,0.3,1.7,0.9,2.3s1.4,0.9,2.4,0.9c0.7,0,1.4-0.1,2-0.4c0.7-0.3,1.3-0.7,1.9-1.2l0.1,0l-0.5,3.7
				c-0.6,0.4-1.3,0.7-2,0.9S24.8,43.8,24,43.8z"/>
			<path class="st0" d="M34.3,43.8c-1.5,0-2.7-0.5-3.7-1.4c-1-1-1.5-2.1-1.5-3.5c0-1.4,0.5-2.5,1.5-3.5c1-1,2.2-1.4,3.7-1.4
				c1.5,0,2.8,0.5,3.7,1.4c1,0.9,1.5,2.1,1.5,3.5S39,41.4,38,42.4C37.1,43.3,35.8,43.8,34.3,43.8z M36.2,38.9c0-0.6-0.2-1.1-0.5-1.5
				c-0.4-0.4-0.8-0.6-1.4-0.6c-0.5,0-1,0.2-1.4,0.6c-0.4,0.4-0.5,0.9-0.5,1.5s0.2,1.1,0.5,1.5c0.4,0.4,0.8,0.6,1.4,0.6
				c0.5,0,1-0.2,1.4-0.6C36,39.9,36.2,39.5,36.2,38.9z"/>
			<path class="st0" d="M45.1,36.9c-0.2,0-0.5,0-0.7,0.1c-0.2,0.1-0.4,0.2-0.7,0.3v6.2h-3.4v-9.1l3.3-0.3v1.6c0.5-0.6,0.9-1,1.4-1.3
				c0.5-0.3,1.1-0.4,1.7-0.4c0.7,0,1.2,0.2,1.7,0.5s0.8,0.8,1,1.3c0.5-0.6,1-1.1,1.5-1.4c0.5-0.3,1.1-0.4,1.7-0.4
				c1,0,1.7,0.3,2.3,0.9c0.6,0.6,0.8,1.5,0.8,2.6v6h-3.4v-5.2c0-0.5-0.1-0.8-0.3-1.1c-0.2-0.2-0.5-0.4-0.9-0.4c-0.2,0-0.5,0-0.7,0.1
				c-0.2,0.1-0.4,0.2-0.7,0.3c0,0,0,0.1,0,0.1s0,0.1,0,0.1v6h-3.4v-5.2c0-0.5-0.1-0.8-0.3-1.1C45.8,37.1,45.5,36.9,45.1,36.9z"/>
			<path class="st0" d="M67.3,38.6c0,1.4-0.4,2.7-1.3,3.6c-0.8,1-1.9,1.4-3.2,1.4c-0.4,0-0.8-0.1-1.2-0.2c-0.4-0.1-0.8-0.4-1.1-0.6
				v4.1H57V34.4l3.3-0.3v1.4c0.4-0.5,0.9-0.9,1.4-1.1c0.5-0.2,1-0.4,1.6-0.4c1.1,0,2,0.4,2.8,1.3C66.9,36.2,67.3,37.3,67.3,38.6z
				 M64,38.8c0-0.6-0.2-1.1-0.5-1.5s-0.8-0.5-1.4-0.5c-0.3,0-0.5,0-0.8,0.1s-0.5,0.2-0.8,0.4v3.3c0.3,0.1,0.5,0.2,0.8,0.3
				c0.2,0.1,0.5,0.1,0.7,0.1c0.6,0,1.1-0.2,1.4-0.6S64,39.5,64,38.8z"/>
			<path class="st0" d="M74.4,37.6c-0.5,0-0.9,0.1-1.4,0.2c-0.5,0.1-1,0.3-1.5,0.6v5.1h-3.4v-9.1l3.3-0.3v2.5c0.6-0.9,1.1-1.6,1.6-2
				c0.5-0.4,0.9-0.6,1.5-0.6c0.1,0,0.2,0,0.3,0c0.1,0,0.2,0,0.3,0.1l0.2,3.6c-0.1,0-0.2,0-0.3,0C74.8,37.6,74.6,37.6,74.4,37.6z"/>
			<path class="st0" d="M84.1,43.3l-3.3,0.3v-1.3c-0.6,0.5-1.1,0.8-1.6,1c-0.5,0.2-1.1,0.3-1.6,0.3c-0.8,0-1.5-0.2-2-0.7
				c-0.5-0.5-0.7-1.1-0.7-1.8c0-1,0.5-1.8,1.5-2.3s2.4-0.8,4.4-0.8c0-0.5-0.2-0.9-0.5-1.1c-0.3-0.2-0.7-0.4-1.3-0.4
				c-0.5,0-1,0.1-1.5,0.3c-0.5,0.2-1.1,0.5-1.6,0.8l-0.1-0.1l0.4-2.9c0.5-0.3,1.1-0.5,1.7-0.6c0.6-0.1,1.2-0.2,1.9-0.2
				c1.5,0,2.6,0.4,3.3,1.1c0.7,0.7,1.1,1.8,1.1,3.2V43.3z M77.8,40.8c0,0.2,0.1,0.4,0.3,0.6c0.2,0.1,0.4,0.2,0.7,0.2
				c0.2,0,0.5,0,0.8-0.1c0.3-0.1,0.6-0.2,1-0.3v-1.6c-1,0.1-1.7,0.2-2.1,0.4C78.1,40.2,77.8,40.5,77.8,40.8z"/>
			<path class="st0" d="M97.2,43.3L94,43.7v-1.3c-0.6,0.5-1.1,0.8-1.6,1c-0.5,0.2-1.1,0.3-1.6,0.3c-0.8,0-1.5-0.2-2-0.7
				C88.2,42.6,88,42,88,41.2c0-1,0.5-1.8,1.5-2.3s2.4-0.8,4.4-0.8c0-0.5-0.2-0.9-0.5-1.1c-0.3-0.2-0.7-0.4-1.3-0.4
				c-0.5,0-1,0.1-1.5,0.3c-0.5,0.2-1.1,0.5-1.6,0.8l-0.1-0.1l0.4-2.9c0.5-0.3,1.1-0.5,1.7-0.6c0.6-0.1,1.2-0.2,1.9-0.2
				c1.5,0,2.6,0.4,3.3,1.1c0.7,0.7,1.1,1.8,1.1,3.2V43.3z M91,40.8c0,0.2,0.1,0.4,0.3,0.6c0.2,0.1,0.4,0.2,0.7,0.2
				c0.2,0,0.5,0,0.8-0.1c0.3-0.1,0.6-0.2,1-0.3v-1.6c-1,0.1-1.7,0.2-2.1,0.4C91.2,40.2,91,40.5,91,40.8z"/>
			<path class="st0" d="M103.3,36.9c-0.3,0-0.5,0-0.7,0.1c-0.2,0.1-0.5,0.2-0.8,0.4v6.1h-3.4V30.7l3.4-0.8v5.8
				c0.5-0.6,1-1.1,1.5-1.3c0.5-0.3,1.1-0.4,1.7-0.4c1,0,1.7,0.3,2.3,0.9s0.8,1.5,0.8,2.6v6h-3.4v-5.2c0-0.5-0.1-0.8-0.3-1.1
				C104.1,37.1,103.7,36.9,103.3,36.9z"/>
			<path class="st0" d="M113.9,43.8c-1.5,0-2.7-0.5-3.7-1.4s-1.5-2.1-1.5-3.5c0-1.4,0.5-2.5,1.5-3.5c1-1,2.2-1.4,3.7-1.4
				c1.5,0,2.8,0.5,3.7,1.4c1,0.9,1.5,2.1,1.5,3.5s-0.5,2.6-1.5,3.5C116.6,43.3,115.4,43.8,113.9,43.8z M115.8,38.9
				c0-0.6-0.2-1.1-0.5-1.5c-0.4-0.4-0.8-0.6-1.4-0.6c-0.5,0-1,0.2-1.4,0.6c-0.4,0.4-0.5,0.9-0.5,1.5s0.2,1.1,0.5,1.5
				s0.8,0.6,1.4,0.6c0.5,0,1-0.2,1.4-0.6C115.6,39.9,115.8,39.5,115.8,38.9z"/>
			<path class="st0" d="M126.2,37.6c-0.5,0-0.9,0.1-1.4,0.2c-0.5,0.1-1,0.3-1.5,0.6v5.1h-3.4v-9.1l3.3-0.3v2.5
				c0.6-0.9,1.1-1.6,1.6-2c0.5-0.4,0.9-0.6,1.5-0.6c0.1,0,0.2,0,0.3,0c0.1,0,0.2,0,0.3,0.1l0.2,3.6c-0.1,0-0.2,0-0.3,0
				C126.6,37.6,126.4,37.6,126.2,37.6z"/>
			<path class="st0" d="M135.9,43.3l-3.3,0.3v-1.3c-0.6,0.5-1.1,0.8-1.6,1s-1.1,0.3-1.6,0.3c-0.8,0-1.5-0.2-2-0.7
				c-0.5-0.5-0.7-1.1-0.7-1.8c0-1,0.5-1.8,1.5-2.3c1-0.5,2.4-0.8,4.4-0.8c0-0.5-0.2-0.9-0.5-1.1s-0.7-0.4-1.3-0.4
				c-0.5,0-1,0.1-1.5,0.3c-0.5,0.2-1.1,0.5-1.6,0.8l-0.1-0.1l0.4-2.9c0.5-0.3,1.1-0.5,1.7-0.6c0.6-0.1,1.2-0.2,1.9-0.2
				c1.5,0,2.6,0.4,3.3,1.1c0.7,0.7,1.1,1.8,1.1,3.2V43.3z M129.6,40.8c0,0.2,0.1,0.4,0.3,0.6c0.2,0.1,0.4,0.2,0.7,0.2
				c0.2,0,0.5,0,0.8-0.1c0.3-0.1,0.6-0.2,1-0.3v-1.6c-1,0.1-1.7,0.2-2.1,0.4C129.9,40.2,129.6,40.5,129.6,40.8z"/>
			<path class="st0" d="M136.3,46.9l-0.9-0.9c0.7-0.9,1.1-1.7,1.2-2.3c0.2-0.6,0.2-1.6,0.2-3v-0.6h3.3c0,1.4-0.2,2.6-0.7,3.5
				C139.1,44.4,138,45.5,136.3,46.9z"/>
			<path class="st0" d="M28.1,54.9c0,1.4-0.4,2.7-1.3,3.6c-0.8,1-1.9,1.4-3.2,1.4c-0.4,0-0.8-0.1-1.2-0.2c-0.4-0.1-0.8-0.4-1.1-0.6
				v4.1h-3.4V50.7l3.3-0.3v1.4c0.4-0.5,0.9-0.9,1.4-1.1c0.5-0.2,1-0.4,1.6-0.4c1.1,0,2,0.4,2.8,1.3C27.7,52.5,28.1,53.6,28.1,54.9z
				 M24.8,55.1c0-0.6-0.2-1.1-0.5-1.5s-0.8-0.5-1.4-0.5c-0.3,0-0.5,0-0.8,0.1s-0.5,0.2-0.8,0.4v3.3c0.3,0.1,0.5,0.2,0.8,0.3
				c0.2,0.1,0.5,0.1,0.7,0.1c0.6,0,1.1-0.2,1.4-0.6S24.8,55.8,24.8,55.1z"/>
			<path class="st0" d="M37.5,59.6L34.2,60v-1.3c-0.6,0.5-1.1,0.8-1.6,1C32,59.9,31.5,60,30.9,60c-0.8,0-1.5-0.2-2-0.7
				c-0.5-0.5-0.7-1.1-0.7-1.8c0-1,0.5-1.8,1.5-2.3s2.4-0.8,4.4-0.8c0-0.5-0.2-0.9-0.5-1.1c-0.3-0.2-0.7-0.4-1.3-0.4
				c-0.5,0-1,0.1-1.5,0.3c-0.5,0.2-1.1,0.5-1.6,0.8L29,54l0.4-2.9c0.5-0.3,1.1-0.5,1.7-0.6c0.6-0.1,1.2-0.2,1.9-0.2
				c1.5,0,2.6,0.4,3.3,1.1c0.7,0.7,1.1,1.8,1.1,3.2V59.6z M31.2,57.1c0,0.2,0.1,0.4,0.3,0.6c0.2,0.1,0.4,0.2,0.7,0.2
				c0.2,0,0.5,0,0.8-0.1c0.3-0.1,0.6-0.2,1-0.3v-1.6c-1,0.1-1.7,0.2-2.1,0.4C31.5,56.5,31.2,56.8,31.2,57.1z"/>
			<path class="st0" d="M48.3,50.4v7.7c0,1.6-0.5,2.9-1.5,3.8s-2.3,1.4-4,1.4c-0.7,0-1.3-0.1-1.9-0.2c-0.6-0.1-1.2-0.3-1.8-0.6
				l-0.5-2.9l0.1,0c0.8,0.4,1.4,0.7,2,0.8c0.6,0.2,1.2,0.2,1.8,0.2c0.8,0,1.5-0.2,1.9-0.6s0.6-0.9,0.6-1.6V58
				c-0.4,0.4-0.9,0.7-1.3,0.9c-0.5,0.2-1,0.3-1.5,0.3c-1.2,0-2.1-0.4-2.9-1.2c-0.7-0.8-1.1-1.8-1.1-3c0-1.4,0.5-2.5,1.4-3.4
				c0.9-0.9,2.2-1.3,3.7-1.3c0.5,0,0.9,0,1.4,0.1s1,0.2,1.5,0.4l2-0.4H48.3z M43.4,53.1c-0.6,0-1.1,0.2-1.5,0.5
				c-0.4,0.3-0.6,0.8-0.6,1.3c0,0.5,0.2,1,0.5,1.3c0.3,0.3,0.8,0.5,1.3,0.5c0.3,0,0.6,0,0.8-0.1c0.3-0.1,0.6-0.2,0.9-0.3v-2.9
				c-0.3-0.1-0.5-0.2-0.7-0.2C43.9,53.1,43.7,53.1,43.4,53.1z"/>
			<path class="st0" d="M58.4,59.6L55.1,60v-1.3c-0.6,0.5-1.1,0.8-1.6,1c-0.5,0.2-1.1,0.3-1.6,0.3c-0.8,0-1.5-0.2-2-0.7
				c-0.5-0.5-0.7-1.1-0.7-1.8c0-1,0.5-1.8,1.5-2.3s2.4-0.8,4.4-0.8c0-0.5-0.2-0.9-0.5-1.1c-0.3-0.2-0.7-0.4-1.3-0.4
				c-0.5,0-1,0.1-1.5,0.3c-0.5,0.2-1.1,0.5-1.6,0.8L50,54l0.4-2.9c0.5-0.3,1.1-0.5,1.7-0.6c0.6-0.1,1.2-0.2,1.9-0.2
				c1.5,0,2.6,0.4,3.3,1.1c0.7,0.7,1.1,1.8,1.1,3.2V59.6z M52.2,57.1c0,0.2,0.1,0.4,0.3,0.6c0.2,0.1,0.4,0.2,0.7,0.2
				c0.2,0,0.5,0,0.8-0.1c0.3-0.1,0.6-0.2,1-0.3v-1.6c-1,0.1-1.7,0.2-2.1,0.4C52.4,56.5,52.2,56.8,52.2,57.1z"/>
			<path class="st0" d="M72.5,59.9h-3.3v-1.3c-0.4,0.5-0.9,0.9-1.4,1.1s-1,0.4-1.6,0.4c-1.1,0-2-0.4-2.8-1.3c-0.7-0.9-1.1-2-1.1-3.3
				c0-1.4,0.4-2.6,1.3-3.6c0.8-1,1.9-1.4,3.2-1.4c0.4,0,0.8,0.1,1.2,0.2c0.4,0.1,0.8,0.3,1.1,0.6V47l3.4-0.8V59.9z M67.5,53.1
				c-0.6,0-1.1,0.2-1.4,0.6c-0.4,0.4-0.5,0.9-0.5,1.5s0.2,1.1,0.5,1.5c0.3,0.4,0.8,0.6,1.4,0.6c0.3,0,0.5,0,0.8-0.1s0.5-0.2,0.8-0.4
				v-3.3c-0.3-0.1-0.5-0.2-0.8-0.3C68,53.2,67.8,53.1,67.5,53.1z"/>
			<path class="st0" d="M82.6,56.8l-0.8,2.6c-0.6,0.2-1.1,0.4-1.6,0.5C79.7,60,79.1,60,78.4,60c-1.6,0-2.8-0.4-3.7-1.3
				c-0.9-0.9-1.4-2.1-1.4-3.6c0-1.4,0.5-2.6,1.4-3.5c0.9-0.9,2.1-1.4,3.5-1.4c1.4,0,2.6,0.4,3.4,1.3s1.2,2.1,1.2,3.6
				c0,0.1,0,0.3,0,0.4c0,0.2,0,0.3,0,0.3h-6.2c0.2,0.5,0.5,0.9,0.9,1.2c0.4,0.3,1,0.4,1.7,0.4c0.6,0,1.1-0.1,1.7-0.2
				S81.9,57,82.6,56.8L82.6,56.8z M78.1,52.5c-0.4,0-0.8,0.2-1.1,0.5c-0.3,0.3-0.5,0.7-0.5,1.2h3.1c0-0.5-0.2-0.9-0.5-1.2
				C78.9,52.7,78.6,52.5,78.1,52.5z"/>
			<path class="st0" d="M88,53.9c1.3,0.3,2.1,0.8,2.6,1.2c0.5,0.5,0.7,1.1,0.7,1.9c0,0.9-0.4,1.7-1.1,2.2c-0.8,0.6-1.8,0.8-3.1,0.8
				c-0.7,0-1.3-0.1-1.9-0.2s-1.2-0.4-1.8-0.7l-0.4-2.8l0.1,0c0.7,0.5,1.5,0.8,2.2,1c0.7,0.2,1.4,0.4,2,0.4c0.3,0,0.5,0,0.7-0.1
				c0.2-0.1,0.2-0.2,0.2-0.4c0-0.2-0.1-0.3-0.4-0.5c-0.2-0.1-0.7-0.3-1.4-0.5c-1.2-0.3-2.1-0.7-2.6-1.2c-0.5-0.5-0.7-1.1-0.7-1.8
				c0-0.9,0.4-1.6,1.1-2.2c0.7-0.5,1.8-0.8,3-0.8c0.6,0,1.2,0.1,1.8,0.2c0.6,0.1,1.1,0.3,1.7,0.6v2.7h-0.1c-0.6-0.3-1.1-0.6-1.8-0.8
				s-1.2-0.3-1.7-0.3c-0.3,0-0.5,0-0.7,0.1c-0.2,0.1-0.2,0.2-0.2,0.4c0,0.2,0.1,0.3,0.3,0.4C86.8,53.6,87.3,53.7,88,53.9z"/>
			<path class="st0" d="M102.4,54.9c0,1.4-0.4,2.7-1.3,3.6c-0.8,1-1.9,1.4-3.2,1.4c-0.4,0-0.8-0.1-1.2-0.2c-0.4-0.1-0.8-0.4-1.1-0.6
				v4.1h-3.4V50.7l3.3-0.3v1.4c0.4-0.5,0.9-0.9,1.4-1.1c0.5-0.2,1-0.4,1.6-0.4c1.1,0,2,0.4,2.8,1.3S102.4,53.6,102.4,54.9z
				 M99.1,55.1c0-0.6-0.2-1.1-0.5-1.5s-0.8-0.5-1.4-0.5c-0.3,0-0.5,0-0.8,0.1s-0.5,0.2-0.8,0.4v3.3c0.3,0.1,0.5,0.2,0.8,0.3
				c0.2,0.1,0.5,0.1,0.7,0.1c0.6,0,1.1-0.2,1.4-0.6S99.1,55.8,99.1,55.1z"/>
			<path class="st0" d="M112.8,59.9h-3.3v-1.7c-0.5,0.7-1,1.1-1.5,1.4c-0.5,0.3-1.1,0.4-1.8,0.4c-1,0-1.7-0.3-2.3-0.9
				c-0.6-0.6-0.8-1.5-0.8-2.6v-6h3.5v5.2c0,0.5,0.1,0.8,0.3,1.1s0.5,0.4,0.9,0.4c0.3,0,0.5,0,0.7-0.1c0.2-0.1,0.5-0.2,0.8-0.4v-6.1
				h3.5V59.9z"/>
			<path class="st0" d="M122.9,56.8l-0.8,2.6c-0.6,0.2-1.1,0.4-1.6,0.5c-0.5,0.1-1.1,0.2-1.7,0.2c-1.6,0-2.8-0.4-3.7-1.3
				c-0.9-0.9-1.4-2.1-1.4-3.6c0-1.4,0.5-2.6,1.4-3.5c0.9-0.9,2.1-1.4,3.5-1.4c1.4,0,2.6,0.4,3.4,1.3c0.8,0.9,1.2,2.1,1.2,3.6
				c0,0.1,0,0.3,0,0.4c0,0.2,0,0.3,0,0.3h-6.2c0.2,0.5,0.5,0.9,0.9,1.2c0.4,0.3,1,0.4,1.7,0.4c0.6,0,1.1-0.1,1.7-0.2
				S122.3,57,122.9,56.8L122.9,56.8z M118.5,52.5c-0.4,0-0.8,0.2-1.1,0.5c-0.3,0.3-0.5,0.7-0.5,1.2h3.1c0-0.5-0.2-0.9-0.5-1.2
				C119.2,52.7,118.9,52.5,118.5,52.5z M119.3,49.1h-1.7l1.6-3.5h4v0L119.3,49.1z"/>
			<path class="st0" d="M128.4,53.9c1.3,0.3,2.1,0.8,2.6,1.2c0.5,0.5,0.7,1.1,0.7,1.9c0,0.9-0.4,1.7-1.1,2.2
				c-0.8,0.6-1.8,0.8-3.1,0.8c-0.7,0-1.3-0.1-1.9-0.2s-1.2-0.4-1.8-0.7l-0.4-2.8l0.1,0c0.7,0.5,1.5,0.8,2.2,1c0.7,0.2,1.4,0.4,2,0.4
				c0.3,0,0.5,0,0.7-0.1c0.2-0.1,0.2-0.2,0.2-0.4c0-0.2-0.1-0.3-0.4-0.5c-0.2-0.1-0.7-0.3-1.4-0.5c-1.2-0.3-2.1-0.7-2.6-1.2
				c-0.5-0.5-0.7-1.1-0.7-1.8c0-0.9,0.4-1.6,1.1-2.2c0.7-0.5,1.8-0.8,3-0.8c0.6,0,1.2,0.1,1.8,0.2c0.6,0.1,1.1,0.3,1.7,0.6v2.7H131
				c-0.6-0.3-1.1-0.6-1.8-0.8s-1.2-0.3-1.7-0.3c-0.3,0-0.5,0-0.7,0.1c-0.2,0.1-0.2,0.2-0.2,0.4c0,0.2,0.1,0.3,0.3,0.4
				S127.6,53.7,128.4,53.9z"/>
			<path class="st0" d="M143.5,56.1l-0.3,3.1c-0.5,0.3-0.9,0.5-1.5,0.6s-1.1,0.2-1.6,0.2c-1.4,0-2.6-0.4-3.5-1.3
				c-0.9-0.9-1.3-2.1-1.3-3.6c0-1.4,0.5-2.6,1.4-3.5c0.9-0.9,2.2-1.4,3.6-1.4c0.6,0,1.1,0.1,1.6,0.2c0.5,0.1,1,0.3,1.5,0.6v3.2h0
				c-0.5-0.3-0.9-0.6-1.4-0.7s-0.9-0.3-1.3-0.3c-0.6,0-1.1,0.2-1.5,0.5c-0.4,0.3-0.5,0.8-0.5,1.4c0,0.6,0.2,1,0.5,1.3
				c0.4,0.3,0.8,0.5,1.4,0.5c0.5,0,1-0.1,1.5-0.3C142.6,56.6,143.1,56.4,143.5,56.1L143.5,56.1z"/>
			<path class="st0" d="M149.1,60.1c-1.5,0-2.7-0.5-3.7-1.4s-1.5-2.1-1.5-3.5c0-1.4,0.5-2.5,1.5-3.5c1-1,2.2-1.4,3.7-1.4
				c1.5,0,2.8,0.5,3.7,1.4c1,0.9,1.5,2.1,1.5,3.5s-0.5,2.6-1.5,3.5C151.8,59.6,150.6,60.1,149.1,60.1z M151,55.2
				c0-0.6-0.2-1.1-0.5-1.5c-0.4-0.4-0.8-0.6-1.4-0.6c-0.5,0-1,0.2-1.4,0.6c-0.4,0.4-0.5,0.9-0.5,1.5s0.2,1.1,0.5,1.5
				s0.8,0.6,1.4,0.6c0.5,0,1-0.2,1.4-0.6C150.8,56.2,151,55.8,151,55.2z"/>
			<path class="st0" d="M160.1,53.2c-0.3,0-0.5,0-0.7,0.1c-0.2,0.1-0.5,0.2-0.8,0.4v6.1h-3.4v-9.1l3.3-0.3v1.8
				c0.5-0.7,1-1.1,1.5-1.4s1.1-0.4,1.8-0.4c1,0,1.7,0.3,2.3,0.9c0.5,0.6,0.8,1.5,0.8,2.6v6h-3.4v-5.2c0-0.5-0.1-0.8-0.3-1.1
				C160.8,53.4,160.5,53.2,160.1,53.2z"/>
		</g>
	</g>
	<g>
		<g>
			<rect x="99.7" y="86" class="st2" width="6.8" height="19.9"/>
			<circle class="st2" cx="103.1" cy="79.3" r="4.3"/>
		</g>
		<path class="st2" d="M96.7,95c0-0.6,0-18.9,0-18.9H90v8.8c-1.3-0.8-3-1.3-4.7-1.3c-6.3,0-11.5,5.1-11.5,11.4s5.1,11.4,11.5,11.4
			C91.4,106.4,96.7,101.7,96.7,95z M85.3,99.7c-2.6,0-4.7-2.1-4.7-4.7c0-2.6,2.1-4.7,4.7-4.7S90,92.4,90,95
			C90,97.6,87.9,99.7,85.3,99.7z"/>
		<path class="st2" d="M71.6,95c0-0.6,0-18.9,0-18.9h-6.8v8.8c-1.3-0.8-3-1.3-4.7-1.3c-6.3,0-11.5,5.1-11.5,11.4s5.1,11.4,11.5,11.4
			C66.2,106.4,71.6,101.7,71.6,95z M60.1,99.7c-2.6,0-4.7-2.1-4.7-4.7c0-2.6,2.1-4.7,4.7-4.7s4.7,2.1,4.7,4.7
			C64.8,97.6,62.7,99.7,60.1,99.7z"/>
		<path class="st2" d="M39.5,96.2v9.5h6.8v-19c0-0.2,0-0.3,0-0.5c0-6.3-5.1-11.4-11.5-11.4c-6.3,0-11.5,5.1-11.5,11.4v19.4h6.8v-9.6
			c0.7,1.9,2.5,3.3,4.7,3.3C36.9,99.5,38.7,98.2,39.5,96.2L39.5,96.2z M34.8,89.4c-2.1,0-4,1.3-4.7,3.2v-6.3c0-2.6,2.1-4.7,4.7-4.7
			s4.7,2.1,4.7,4.7v6.3C38.8,90.8,36.9,89.4,34.8,89.4z"/>
	</g>
	<g>
		<path class="st2" d="M25.3,122.6c-0.7-0.2-1.2-0.5-1.5-0.8c-0.3-0.3-0.4-0.7-0.4-1.2c0-0.6,0.2-1.1,0.7-1.5
			c0.5-0.4,1.1-0.6,1.8-0.6c0.4,0,0.7,0,1.1,0.1c0.3,0.1,0.7,0.2,0.9,0.4v1.7h0c-0.3-0.2-0.7-0.3-1-0.5s-0.7-0.2-1-0.2
			c-0.2,0-0.3,0-0.4,0.1c-0.1,0.1-0.2,0.2-0.2,0.3c0,0.1,0.1,0.2,0.2,0.3s0.4,0.2,0.8,0.4c0.7,0.3,1.3,0.5,1.6,0.9s0.4,0.7,0.4,1.2
			c0,0.6-0.2,1.2-0.7,1.5c-0.5,0.4-1.1,0.6-1.9,0.6c-0.4,0-0.8-0.1-1.2-0.2c-0.4-0.1-0.7-0.3-1-0.5l-0.2-1.9l0,0
			c0.4,0.3,0.8,0.5,1.2,0.7c0.4,0.2,0.8,0.3,1.1,0.3c0.2,0,0.4,0,0.5-0.1c0.1-0.1,0.2-0.2,0.2-0.3c0-0.1-0.1-0.3-0.2-0.3
			C26,122.9,25.7,122.8,25.3,122.6z"/>
		<path class="st2" d="M29.6,117.9c0.3,0,0.5,0.1,0.7,0.3c0.2,0.2,0.3,0.4,0.3,0.7s-0.1,0.5-0.3,0.7c-0.2,0.2-0.4,0.3-0.7,0.3
			s-0.5-0.1-0.7-0.3c-0.2-0.2-0.3-0.4-0.3-0.7s0.1-0.5,0.3-0.7S29.3,117.9,29.6,117.9z M30.5,125.2h-1.8v-4.9h1.8V125.2z"/>
		<path class="st2" d="M33.8,121.8c-0.1,0-0.3,0-0.4,0.1c-0.1,0-0.3,0.1-0.4,0.2v3.2h-1.8v-4.7l1.7-0.2v0.9c0.3-0.3,0.5-0.6,0.8-0.7
			c0.3-0.2,0.6-0.2,0.9-0.2c0.5,0,0.9,0.2,1.2,0.5c0.3,0.3,0.4,0.8,0.4,1.4v3.1h-1.8v-2.7c0-0.2-0.1-0.4-0.2-0.6
			C34.2,121.8,34,121.8,33.8,121.8z"/>
		<path class="st2" d="M39.5,117.9c0.3,0,0.5,0.1,0.7,0.3c0.2,0.2,0.3,0.4,0.3,0.7s-0.1,0.5-0.3,0.7c-0.2,0.2-0.4,0.3-0.7,0.3
			s-0.5-0.1-0.7-0.3c-0.2-0.2-0.3-0.4-0.3-0.7s0.1-0.5,0.3-0.7S39.2,117.9,39.5,117.9z M40.4,125.2h-1.8v-4.9h1.8V125.2z"/>
		<path class="st2" d="M43.7,121.8c-0.1,0-0.3,0-0.4,0.1c-0.1,0-0.3,0.1-0.4,0.2v3.2h-1.8v-4.7l1.7-0.2v0.9c0.3-0.3,0.5-0.6,0.8-0.7
			c0.3-0.2,0.6-0.2,0.9-0.2c0.5,0,0.9,0.2,1.2,0.5c0.3,0.3,0.4,0.8,0.4,1.4v3.1h-1.8v-2.7c0-0.2-0.1-0.4-0.2-0.6
			C44.1,121.8,43.9,121.8,43.7,121.8z"/>
		<path class="st2" d="M50.5,123.5l-0.2,1.4c-0.2,0.1-0.4,0.2-0.6,0.3c-0.2,0.1-0.5,0.1-0.7,0.1c-0.6,0-1-0.2-1.3-0.5
			c-0.3-0.3-0.4-0.8-0.4-1.5v-1.6h-0.7v-1.3h0.7v-1l1.8-0.4v1.4h1.6v1.3h-1.6v1.5c0,0.2,0.1,0.4,0.2,0.5c0.1,0.1,0.3,0.2,0.5,0.2
			c0.1,0,0.3,0,0.4-0.1S50.3,123.6,50.5,123.5L50.5,123.5z"/>
		<path class="st2" d="M55.5,123.6l-0.4,1.3c-0.3,0.1-0.6,0.2-0.8,0.3c-0.3,0.1-0.6,0.1-0.9,0.1c-0.8,0-1.5-0.2-1.9-0.7
			c-0.5-0.5-0.7-1.1-0.7-1.9c0-0.7,0.2-1.3,0.7-1.8c0.5-0.5,1.1-0.7,1.8-0.7c0.7,0,1.3,0.2,1.8,0.7c0.4,0.5,0.6,1.1,0.6,1.9
			c0,0.1,0,0.1,0,0.2c0,0.1,0,0.1,0,0.2h-3.2c0.1,0.3,0.2,0.5,0.5,0.6c0.2,0.1,0.5,0.2,0.9,0.2c0.3,0,0.6,0,0.9-0.1
			S55.1,123.7,55.5,123.6L55.5,123.6z M53.1,121.4c-0.2,0-0.4,0.1-0.6,0.2c-0.1,0.2-0.2,0.4-0.3,0.6h1.6c0-0.3-0.1-0.5-0.2-0.6
			C53.5,121.5,53.4,121.4,53.1,121.4z"/>
		<path class="st2" d="M59.3,122.1c-0.2,0-0.5,0-0.7,0.1c-0.2,0.1-0.5,0.2-0.8,0.3v2.7H56v-4.7l1.7-0.2v1.3c0.3-0.5,0.6-0.8,0.8-1
			c0.2-0.2,0.5-0.3,0.8-0.3c0.1,0,0.1,0,0.1,0c0,0,0.1,0,0.2,0l0.1,1.9c-0.1,0-0.1,0-0.2,0S59.3,122.1,59.3,122.1z"/>
		<path class="st2" d="M64.6,123.6l-0.4,1.3c-0.3,0.1-0.6,0.2-0.8,0.3c-0.3,0.1-0.6,0.1-0.9,0.1c-0.8,0-1.5-0.2-1.9-0.7
			c-0.5-0.5-0.7-1.1-0.7-1.9c0-0.7,0.2-1.3,0.7-1.8c0.5-0.5,1.1-0.7,1.8-0.7c0.7,0,1.3,0.2,1.8,0.7c0.4,0.5,0.6,1.1,0.6,1.9
			c0,0.1,0,0.1,0,0.2c0,0.1,0,0.1,0,0.2h-3.2c0.1,0.3,0.2,0.5,0.5,0.6c0.2,0.1,0.5,0.2,0.9,0.2c0.3,0,0.6,0,0.9-0.1
			S64.2,123.7,64.6,123.6L64.6,123.6z M62.2,121.4c-0.2,0-0.4,0.1-0.6,0.2c-0.1,0.2-0.2,0.4-0.3,0.6H63c0-0.3-0.1-0.5-0.2-0.6
			C62.6,121.5,62.4,121.4,62.2,121.4z"/>
		<path class="st2" d="M67.4,122.1c0.7,0.2,1.1,0.4,1.4,0.6c0.3,0.2,0.4,0.6,0.4,1c0,0.5-0.2,0.9-0.6,1.1s-0.9,0.4-1.6,0.4
			c-0.4,0-0.7,0-1-0.1c-0.3-0.1-0.6-0.2-0.9-0.4l-0.2-1.4l0,0c0.4,0.2,0.8,0.4,1.1,0.5c0.4,0.1,0.7,0.2,1.1,0.2c0.2,0,0.3,0,0.4-0.1
			c0.1,0,0.1-0.1,0.1-0.2c0-0.1-0.1-0.2-0.2-0.2s-0.4-0.1-0.7-0.2c-0.6-0.2-1.1-0.4-1.3-0.6s-0.4-0.6-0.4-0.9c0-0.5,0.2-0.8,0.6-1.1
			c0.4-0.3,0.9-0.4,1.6-0.4c0.3,0,0.6,0,0.9,0.1c0.3,0.1,0.6,0.2,0.9,0.3v1.4h0c-0.3-0.2-0.6-0.3-0.9-0.4c-0.3-0.1-0.6-0.2-0.9-0.2
			c-0.2,0-0.3,0-0.4,0.1s-0.1,0.1-0.1,0.2c0,0.1,0.1,0.1,0.2,0.2C66.7,121.9,67,122,67.4,122.1z"/>
		<path class="st2" d="M74.1,123.6l-0.4,1.3c-0.3,0.1-0.6,0.2-0.8,0.3c-0.3,0.1-0.6,0.1-0.9,0.1c-0.8,0-1.5-0.2-1.9-0.7
			c-0.5-0.5-0.7-1.1-0.7-1.9c0-0.7,0.2-1.3,0.7-1.8c0.5-0.5,1.1-0.7,1.8-0.7c0.7,0,1.3,0.2,1.8,0.7c0.4,0.5,0.6,1.1,0.6,1.9
			c0,0.1,0,0.1,0,0.2c0,0.1,0,0.1,0,0.2h-3.2c0.1,0.3,0.2,0.5,0.5,0.6c0.2,0.1,0.5,0.2,0.9,0.2c0.3,0,0.6,0,0.9-0.1
			S73.7,123.7,74.1,123.6L74.1,123.6z M71.8,121.4c-0.2,0-0.4,0.1-0.6,0.2c-0.1,0.2-0.2,0.4-0.3,0.6h1.6c0-0.3-0.1-0.5-0.2-0.6
			C72.2,121.5,72,121.4,71.8,121.4z"/>
		<path class="st2" d="M76.9,122.1c0.7,0.2,1.1,0.4,1.4,0.6c0.3,0.2,0.4,0.6,0.4,1c0,0.5-0.2,0.9-0.6,1.1s-0.9,0.4-1.6,0.4
			c-0.4,0-0.7,0-1-0.1c-0.3-0.1-0.6-0.2-0.9-0.4l-0.2-1.4l0,0c0.4,0.2,0.8,0.4,1.1,0.5c0.4,0.1,0.7,0.2,1.1,0.2c0.2,0,0.3,0,0.4-0.1
			c0.1,0,0.1-0.1,0.1-0.2c0-0.1-0.1-0.2-0.2-0.2s-0.4-0.1-0.7-0.2c-0.6-0.2-1.1-0.4-1.3-0.6s-0.4-0.6-0.4-0.9c0-0.5,0.2-0.8,0.6-1.1
			c0.4-0.3,0.9-0.4,1.6-0.4c0.3,0,0.6,0,0.9,0.1c0.3,0.1,0.6,0.2,0.9,0.3v1.4h0c-0.3-0.2-0.6-0.3-0.9-0.4c-0.3-0.1-0.6-0.2-0.9-0.2
			c-0.2,0-0.3,0-0.4,0.1s-0.1,0.1-0.1,0.2c0,0.1,0.1,0.1,0.2,0.2C76.3,121.9,76.5,122,76.9,122.1z"/>
		<path class="st2" d="M79.8,125.3c-0.3,0-0.5-0.1-0.7-0.3c-0.2-0.2-0.3-0.4-0.3-0.7c0-0.3,0.1-0.5,0.3-0.7c0.2-0.2,0.4-0.3,0.7-0.3
			c0.3,0,0.5,0.1,0.7,0.3c0.2,0.2,0.3,0.4,0.3,0.7c0,0.3-0.1,0.5-0.3,0.7C80.3,125.2,80.1,125.3,79.8,125.3z"/>
		<path class="st2" d="M84.7,122.6c-0.7-0.2-1.2-0.5-1.5-0.8c-0.3-0.3-0.4-0.7-0.4-1.2c0-0.6,0.2-1.1,0.7-1.5
			c0.5-0.4,1.1-0.6,1.8-0.6c0.4,0,0.7,0,1.1,0.1c0.3,0.1,0.7,0.2,0.9,0.4v1.7h0c-0.3-0.2-0.7-0.3-1-0.5s-0.7-0.2-1-0.2
			c-0.2,0-0.3,0-0.4,0.1c-0.1,0.1-0.2,0.2-0.2,0.3c0,0.1,0.1,0.2,0.2,0.3s0.4,0.2,0.8,0.4c0.7,0.3,1.3,0.5,1.6,0.9s0.4,0.7,0.4,1.2
			c0,0.6-0.2,1.2-0.7,1.5c-0.5,0.4-1.1,0.6-1.9,0.6c-0.4,0-0.8-0.1-1.2-0.2c-0.4-0.1-0.7-0.3-1-0.5l-0.2-1.9l0,0
			c0.4,0.3,0.8,0.5,1.2,0.7c0.4,0.2,0.8,0.3,1.1,0.3c0.2,0,0.4,0,0.5-0.1c0.1-0.1,0.2-0.2,0.2-0.3c0-0.1-0.1-0.3-0.2-0.3
			C85.4,122.9,85.1,122.8,84.7,122.6z"/>
		<path class="st2" d="M89,117.9c0.3,0,0.5,0.1,0.7,0.3c0.2,0.2,0.3,0.4,0.3,0.7s-0.1,0.5-0.3,0.7c-0.2,0.2-0.4,0.3-0.7,0.3
			s-0.5-0.1-0.7-0.3c-0.2-0.2-0.3-0.4-0.3-0.7s0.1-0.5,0.3-0.7S88.7,117.9,89,117.9z M89.9,125.2h-1.8v-4.9h1.8V125.2z"/>
		<path class="st2" d="M93.2,121.8c-0.1,0-0.3,0-0.4,0.1c-0.1,0-0.3,0.1-0.4,0.2v3.2h-1.8v-4.7l1.7-0.2v0.9c0.3-0.3,0.5-0.6,0.8-0.7
			c0.3-0.2,0.6-0.2,0.9-0.2c0.5,0,0.9,0.2,1.2,0.5c0.3,0.3,0.4,0.8,0.4,1.4v3.1h-1.8v-2.7c0-0.2-0.1-0.4-0.2-0.6
			C93.6,121.8,93.4,121.8,93.2,121.8z"/>
		<path class="st2" d="M102,123.3l-0.2,1.6c-0.2,0.1-0.5,0.2-0.8,0.3s-0.6,0.1-0.8,0.1c-0.7,0-1.3-0.2-1.8-0.7
			c-0.5-0.5-0.7-1.1-0.7-1.9c0-0.7,0.2-1.3,0.7-1.8c0.5-0.5,1.1-0.7,1.9-0.7c0.3,0,0.6,0,0.8,0.1c0.3,0.1,0.5,0.2,0.8,0.3v1.6h0
			c-0.2-0.2-0.5-0.3-0.7-0.4c-0.2-0.1-0.5-0.1-0.7-0.1c-0.3,0-0.6,0.1-0.8,0.3c-0.2,0.2-0.3,0.4-0.3,0.7c0,0.3,0.1,0.5,0.3,0.7
			c0.2,0.2,0.4,0.3,0.7,0.3c0.2,0,0.5,0,0.8-0.1S101.8,123.4,102,123.3L102,123.3z"/>
		<path class="st2" d="M104.9,125.3c-0.8,0-1.4-0.2-1.9-0.7c-0.5-0.5-0.8-1.1-0.8-1.8c0-0.7,0.3-1.3,0.8-1.8
			c0.5-0.5,1.2-0.7,1.9-0.7c0.8,0,1.4,0.2,1.9,0.7c0.5,0.5,0.8,1.1,0.8,1.8c0,0.7-0.3,1.3-0.8,1.8
			C106.3,125.1,105.7,125.3,104.9,125.3z M105.9,122.7c0-0.3-0.1-0.6-0.3-0.8c-0.2-0.2-0.4-0.3-0.7-0.3s-0.5,0.1-0.7,0.3
			c-0.2,0.2-0.3,0.5-0.3,0.8s0.1,0.6,0.3,0.8c0.2,0.2,0.4,0.3,0.7,0.3s0.5-0.1,0.7-0.3C105.8,123.3,105.9,123.1,105.9,122.7z"/>
		<path class="st2" d="M110.3,122.1c0.7,0.2,1.1,0.4,1.4,0.6s0.4,0.6,0.4,1c0,0.5-0.2,0.9-0.6,1.1c-0.4,0.3-0.9,0.4-1.6,0.4
			c-0.4,0-0.7,0-1-0.1c-0.3-0.1-0.6-0.2-0.9-0.4l-0.2-1.4l0,0c0.4,0.2,0.8,0.4,1.1,0.5c0.4,0.1,0.7,0.2,1.1,0.2c0.2,0,0.3,0,0.4-0.1
			c0.1,0,0.1-0.1,0.1-0.2c0-0.1-0.1-0.2-0.2-0.2c-0.1-0.1-0.4-0.1-0.7-0.2c-0.6-0.2-1.1-0.4-1.3-0.6c-0.3-0.2-0.4-0.6-0.4-0.9
			c0-0.5,0.2-0.8,0.6-1.1c0.4-0.3,0.9-0.4,1.6-0.4c0.3,0,0.6,0,0.9,0.1c0.3,0.1,0.6,0.2,0.9,0.3v1.4h0c-0.3-0.2-0.6-0.3-0.9-0.4
			s-0.6-0.2-0.9-0.2c-0.2,0-0.3,0-0.4,0.1c-0.1,0-0.1,0.1-0.1,0.2c0,0.1,0,0.1,0.2,0.2C109.7,121.9,109.9,122,110.3,122.1z"/>
		<path class="st2" d="M116.1,123.5l-0.2,1.4c-0.2,0.1-0.4,0.2-0.6,0.3c-0.2,0.1-0.5,0.1-0.7,0.1c-0.6,0-1-0.2-1.3-0.5
			c-0.3-0.3-0.4-0.8-0.4-1.5v-1.6H112v-1.3h0.7v-1l1.8-0.4v1.4h1.6v1.3h-1.6v1.5c0,0.2,0.1,0.4,0.2,0.5c0.1,0.1,0.3,0.2,0.5,0.2
			c0.1,0,0.3,0,0.4-0.1S115.9,123.6,116.1,123.5L116.1,123.5z"/>
		<path class="st2" d="M118.9,125.3c-0.8,0-1.4-0.2-1.9-0.7c-0.5-0.5-0.8-1.1-0.8-1.8c0-0.7,0.3-1.3,0.8-1.8
			c0.5-0.5,1.2-0.7,1.9-0.7c0.8,0,1.4,0.2,1.9,0.7c0.5,0.5,0.8,1.1,0.8,1.8c0,0.7-0.3,1.3-0.8,1.8
			C120.3,125.1,119.7,125.3,118.9,125.3z M119.9,122.7c0-0.3-0.1-0.6-0.3-0.8c-0.2-0.2-0.4-0.3-0.7-0.3s-0.5,0.1-0.7,0.3
			c-0.2,0.2-0.3,0.5-0.3,0.8s0.1,0.6,0.3,0.8c0.2,0.2,0.4,0.3,0.7,0.3s0.5-0.1,0.7-0.3C119.8,123.3,119.9,123.1,119.9,122.7z"/>
		<path class="st2" d="M124.3,122.1c0.7,0.2,1.1,0.4,1.4,0.6s0.4,0.6,0.4,1c0,0.5-0.2,0.9-0.6,1.1c-0.4,0.3-0.9,0.4-1.6,0.4
			c-0.4,0-0.7,0-1-0.1c-0.3-0.1-0.6-0.2-0.9-0.4l-0.2-1.4l0,0c0.4,0.2,0.8,0.4,1.1,0.5c0.4,0.1,0.7,0.2,1.1,0.2c0.2,0,0.3,0,0.4-0.1
			c0.1,0,0.1-0.1,0.1-0.2c0-0.1-0.1-0.2-0.2-0.2c-0.1-0.1-0.4-0.1-0.7-0.2c-0.6-0.2-1.1-0.4-1.3-0.6c-0.3-0.2-0.4-0.6-0.4-0.9
			c0-0.5,0.2-0.8,0.6-1.1c0.4-0.3,0.9-0.4,1.6-0.4c0.3,0,0.6,0,0.9,0.1c0.3,0.1,0.6,0.2,0.9,0.3v1.4h0c-0.3-0.2-0.6-0.3-0.9-0.4
			s-0.6-0.2-0.9-0.2c-0.2,0-0.3,0-0.4,0.1c-0.1,0-0.1,0.1-0.1,0.2c0,0.1,0,0.1,0.2,0.2C123.7,121.9,123.9,122,124.3,122.1z"/>
		<path class="st2" d="M132.7,125.1l-1.7,0.2v-0.7c-0.3,0.2-0.6,0.4-0.8,0.5s-0.5,0.2-0.8,0.2c-0.4,0-0.8-0.1-1-0.4
			s-0.4-0.6-0.4-0.9c0-0.5,0.3-0.9,0.8-1.2c0.5-0.3,1.3-0.4,2.3-0.4c0-0.3-0.1-0.5-0.3-0.6c-0.2-0.1-0.4-0.2-0.7-0.2
			c-0.3,0-0.5,0-0.8,0.1c-0.3,0.1-0.6,0.2-0.8,0.4l0,0l0.2-1.5c0.3-0.1,0.6-0.3,0.9-0.3s0.6-0.1,1-0.1c0.8,0,1.3,0.2,1.7,0.6
			c0.4,0.4,0.6,0.9,0.6,1.7V125.1z M129.5,123.8c0,0.1,0,0.2,0.1,0.3c0.1,0.1,0.2,0.1,0.4,0.1c0.1,0,0.3,0,0.4-0.1
			c0.2,0,0.3-0.1,0.5-0.2v-0.8c-0.5,0-0.9,0.1-1.1,0.2C129.6,123.4,129.5,123.6,129.5,123.8z"/>
		<path class="st2" d="M138.3,125.2h-1.7v-0.7c-0.2,0.3-0.5,0.5-0.7,0.6c-0.2,0.1-0.5,0.2-0.8,0.2c-0.6,0-1.1-0.2-1.4-0.7
			s-0.6-1-0.6-1.7c0-0.8,0.2-1.4,0.7-1.9s1-0.7,1.6-0.7c0.2,0,0.4,0,0.6,0.1c0.2,0.1,0.4,0.2,0.6,0.3v-2.2l1.8-0.4V125.2z
			 M135.8,121.7c-0.3,0-0.5,0.1-0.7,0.3c-0.2,0.2-0.3,0.5-0.3,0.8s0.1,0.6,0.3,0.8c0.2,0.2,0.4,0.3,0.7,0.3c0.1,0,0.3,0,0.4-0.1
			c0.1,0,0.3-0.1,0.4-0.2v-1.7c-0.1-0.1-0.3-0.1-0.4-0.2C136,121.7,135.9,121.7,135.8,121.7z"/>
		<path class="st2" d="M140,117.9c0.3,0,0.5,0.1,0.7,0.3s0.3,0.4,0.3,0.7s-0.1,0.5-0.3,0.7s-0.4,0.3-0.7,0.3c-0.3,0-0.5-0.1-0.7-0.3
			s-0.3-0.4-0.3-0.7s0.1-0.5,0.3-0.7C139.4,117.9,139.6,117.9,140,117.9z M140.8,125.2h-1.8v-4.9h1.8V125.2z"/>
		<path class="st2" d="M145.6,123.3l-0.2,1.6c-0.2,0.1-0.5,0.2-0.8,0.3s-0.6,0.1-0.8,0.1c-0.7,0-1.3-0.2-1.8-0.7
			c-0.5-0.5-0.7-1.1-0.7-1.9c0-0.7,0.2-1.3,0.7-1.8c0.5-0.5,1.1-0.7,1.9-0.7c0.3,0,0.6,0,0.8,0.1c0.3,0.1,0.5,0.2,0.8,0.3v1.6h0
			c-0.2-0.2-0.5-0.3-0.7-0.4c-0.2-0.1-0.5-0.1-0.7-0.1c-0.3,0-0.6,0.1-0.8,0.3c-0.2,0.2-0.3,0.4-0.3,0.7c0,0.3,0.1,0.5,0.3,0.7
			c0.2,0.2,0.4,0.3,0.7,0.3c0.2,0,0.5,0,0.8-0.1S145.3,123.4,145.6,123.3L145.6,123.3z"/>
		<path class="st2" d="M147,117.9c0.3,0,0.5,0.1,0.7,0.3s0.3,0.4,0.3,0.7s-0.1,0.5-0.3,0.7s-0.4,0.3-0.7,0.3c-0.3,0-0.5-0.1-0.7-0.3
			s-0.3-0.4-0.3-0.7s0.1-0.5,0.3-0.7C146.4,117.9,146.7,117.9,147,117.9z M147.9,125.2h-1.8v-4.9h1.8V125.2z"/>
		<path class="st2" d="M151,125.3c-0.8,0-1.4-0.2-1.9-0.7c-0.5-0.5-0.8-1.1-0.8-1.8c0-0.7,0.3-1.3,0.8-1.8c0.5-0.5,1.2-0.7,1.9-0.7
			c0.8,0,1.4,0.2,1.9,0.7c0.5,0.5,0.8,1.1,0.8,1.8c0,0.7-0.3,1.3-0.8,1.8C152.4,125.1,151.8,125.3,151,125.3z M152,122.7
			c0-0.3-0.1-0.6-0.3-0.8c-0.2-0.2-0.4-0.3-0.7-0.3s-0.5,0.1-0.7,0.3c-0.2,0.2-0.3,0.5-0.3,0.8s0.1,0.6,0.3,0.8
			c0.2,0.2,0.4,0.3,0.7,0.3s0.5-0.1,0.7-0.3C151.9,123.3,152,123.1,152,122.7z"/>
		<path class="st2" d="M156.7,121.8c-0.1,0-0.3,0-0.4,0.1s-0.3,0.1-0.4,0.2v3.2h-1.8v-4.7l1.7-0.2v0.9c0.3-0.3,0.5-0.6,0.8-0.7
			c0.3-0.2,0.6-0.2,0.9-0.2c0.5,0,0.9,0.2,1.2,0.5c0.3,0.3,0.4,0.8,0.4,1.4v3.1h-1.8v-2.7c0-0.2-0.1-0.4-0.2-0.6
			C157.1,121.8,156.9,121.8,156.7,121.8z"/>
		<path class="st2" d="M164.3,125.1l-1.7,0.2v-0.7c-0.3,0.2-0.6,0.4-0.8,0.5s-0.5,0.2-0.8,0.2c-0.4,0-0.8-0.1-1-0.4
			s-0.4-0.6-0.4-0.9c0-0.5,0.3-0.9,0.8-1.2c0.5-0.3,1.3-0.4,2.3-0.4c0-0.3-0.1-0.5-0.3-0.6c-0.2-0.1-0.4-0.2-0.7-0.2
			c-0.3,0-0.5,0-0.8,0.1c-0.3,0.1-0.6,0.2-0.8,0.4l0,0l0.2-1.5c0.3-0.1,0.6-0.3,0.9-0.3s0.6-0.1,1-0.1c0.8,0,1.3,0.2,1.7,0.6
			c0.4,0.4,0.6,0.9,0.6,1.7V125.1z M161.1,123.8c0,0.1,0,0.2,0.1,0.3c0.1,0.1,0.2,0.1,0.4,0.1c0.1,0,0.3,0,0.4-0.1
			c0.2,0,0.3-0.1,0.5-0.2v-0.8c-0.5,0-0.9,0.1-1.1,0.2C161.2,123.4,161.1,123.6,161.1,123.8z"/>
		<path class="st2" d="M166.7,125.2h-1.8v-6.7l1.8-0.4V125.2z"/>
		<path class="st2" d="M172,123.6l-0.4,1.3c-0.3,0.1-0.6,0.2-0.8,0.3c-0.3,0.1-0.6,0.1-0.9,0.1c-0.8,0-1.5-0.2-1.9-0.7
			c-0.5-0.5-0.7-1.1-0.7-1.9c0-0.7,0.2-1.3,0.7-1.8s1.1-0.7,1.8-0.7c0.7,0,1.3,0.2,1.8,0.7c0.4,0.5,0.6,1.1,0.6,1.9
			c0,0.1,0,0.1,0,0.2c0,0.1,0,0.1,0,0.2h-3.2c0.1,0.3,0.2,0.5,0.5,0.6c0.2,0.1,0.5,0.2,0.9,0.2c0.3,0,0.6,0,0.9-0.1
			S171.7,123.7,172,123.6L172,123.6z M169.7,121.4c-0.2,0-0.4,0.1-0.6,0.2s-0.2,0.4-0.3,0.6h1.6c0-0.3-0.1-0.5-0.2-0.6
			C170.1,121.5,169.9,121.4,169.7,121.4z"/>
		<path class="st2" d="M174.8,122.1c0.7,0.2,1.1,0.4,1.4,0.6s0.4,0.6,0.4,1c0,0.5-0.2,0.9-0.6,1.1c-0.4,0.3-0.9,0.4-1.6,0.4
			c-0.4,0-0.7,0-1-0.1c-0.3-0.1-0.6-0.2-0.9-0.4l-0.2-1.4l0,0c0.4,0.2,0.8,0.4,1.1,0.5c0.4,0.1,0.7,0.2,1.1,0.2c0.2,0,0.3,0,0.4-0.1
			c0.1,0,0.1-0.1,0.1-0.2c0-0.1-0.1-0.2-0.2-0.2c-0.1-0.1-0.4-0.1-0.7-0.2c-0.6-0.2-1.1-0.4-1.3-0.6c-0.3-0.2-0.4-0.6-0.4-0.9
			c0-0.5,0.2-0.8,0.6-1.1c0.4-0.3,0.9-0.4,1.6-0.4c0.3,0,0.6,0,0.9,0.1c0.3,0.1,0.6,0.2,0.9,0.3v1.4h0c-0.3-0.2-0.6-0.3-0.9-0.4
			s-0.6-0.2-0.9-0.2c-0.2,0-0.3,0-0.4,0.1c-0.1,0-0.1,0.1-0.1,0.2c0,0.1,0,0.1,0.2,0.2C174.2,121.9,174.4,122,174.8,122.1z"/>
		<path class="st2" d="M178.5,120.6l-1.8,0.3l0.6-1.7l1.3,1.3L178.5,120.6z M178.9,121.1l-0.3,1.8l-1.5-1.1l1.6-0.8L178.9,121.1z
			 M178.1,118.6h1.8l-0.8,1.6h-0.2L178.1,118.6z M181,121.8l-1.5,1.1l-0.3-1.8l0.2-0.2L181,121.8z M180.8,119.2l0.6,1.7l-1.8-0.3
			l-0.1-0.2L180.8,119.2z"/>
	</g>
	<g>
		<path d="M23.8,155.2v-0.7l1-5.4H26l1,5.4v0.7H23.8z M25.4,145.3c0.4,0,0.8,0.1,1.1,0.4c0.3,0.3,0.4,0.6,0.4,1.1s-0.1,0.8-0.4,1.1
			s-0.6,0.4-1.1,0.4s-0.8-0.1-1.1-0.4c-0.3-0.3-0.4-0.6-0.4-1.1s0.1-0.8,0.4-1.1C24.7,145.4,25,145.3,25.4,145.3z"/>
		<path d="M30.5,151.4c-1.1-0.4-1.8-0.8-2.3-1.3c-0.4-0.5-0.7-1.1-0.7-1.8c0-0.9,0.3-1.7,1-2.2c0.7-0.6,1.6-0.8,2.7-0.8
			c0.6,0,1.1,0.1,1.6,0.2c0.5,0.1,1,0.3,1.4,0.5v2.5h0c-0.5-0.3-1-0.5-1.5-0.7s-1-0.3-1.5-0.3c-0.3,0-0.5,0.1-0.7,0.2
			c-0.2,0.1-0.2,0.3-0.2,0.4c0,0.2,0.1,0.4,0.3,0.5c0.2,0.1,0.6,0.3,1.2,0.5c1.1,0.4,1.9,0.8,2.3,1.3c0.4,0.5,0.7,1.1,0.7,1.9
			c0,1-0.3,1.7-1,2.3c-0.7,0.6-1.6,0.8-2.8,0.8c-0.6,0-1.2-0.1-1.7-0.2c-0.6-0.2-1.1-0.4-1.5-0.7l-0.3-2.8l0,0
			c0.6,0.4,1.2,0.8,1.8,1c0.7,0.3,1.2,0.4,1.7,0.4c0.3,0,0.6-0.1,0.8-0.2s0.3-0.3,0.3-0.5c0-0.2-0.1-0.4-0.3-0.5
			S31.1,151.6,30.5,151.4z"/>
		<path d="M39.1,155.4c-1.2,0-2.1-0.4-2.9-1.1c-0.8-0.7-1.1-1.6-1.1-2.7c0-1.1,0.4-2,1.1-2.7c0.8-0.7,1.7-1.1,2.9-1.1
			c1.2,0,2.1,0.4,2.9,1.1c0.8,0.7,1.1,1.6,1.1,2.7c0,1.1-0.4,2-1.1,2.7S40.3,155.4,39.1,155.4z M40.6,151.6c0-0.5-0.1-0.8-0.4-1.1
			c-0.3-0.3-0.6-0.4-1.1-0.4s-0.8,0.2-1.1,0.5c-0.3,0.3-0.4,0.7-0.4,1.1s0.1,0.8,0.4,1.1c0.3,0.3,0.6,0.4,1.1,0.4s0.8-0.2,1.1-0.5
			C40.5,152.4,40.6,152.1,40.6,151.6z"/>
		<path d="M46.5,155.2h-2.7v-10l2.7-0.6V155.2z"/>
		<path d="M51.2,155.4c-1.2,0-2.1-0.4-2.9-1.1c-0.8-0.7-1.1-1.6-1.1-2.7c0-1.1,0.4-2,1.1-2.7c0.8-0.7,1.7-1.1,2.9-1.1
			c1.2,0,2.1,0.4,2.9,1.1c0.8,0.7,1.1,1.6,1.1,2.7c0,1.1-0.4,2-1.1,2.7S52.3,155.4,51.2,155.4z M52.6,151.6c0-0.5-0.1-0.8-0.4-1.1
			c-0.3-0.3-0.6-0.4-1.1-0.4s-0.8,0.2-1.1,0.5c-0.3,0.3-0.4,0.7-0.4,1.1s0.1,0.8,0.4,1.1c0.3,0.3,0.6,0.4,1.1,0.4s0.8-0.2,1.1-0.5
			C52.5,152.4,52.6,152.1,52.6,151.6z"/>
		<path d="M62.2,150.1c-0.2,0-0.4,0-0.6,0.1c-0.2,0.1-0.4,0.2-0.6,0.3v4.7h-2.7v-7.1l2.6-0.3v1.4c0.4-0.5,0.8-0.9,1.2-1.1
			s0.9-0.3,1.4-0.3c0.7,0,1.3,0.2,1.8,0.7c0.4,0.5,0.6,1.2,0.6,2v4.7h-2.7v-4c0-0.4-0.1-0.6-0.3-0.8
			C62.8,150.2,62.5,150.1,62.2,150.1z"/>
		<path d="M73.7,152.9l-0.7,2c-0.4,0.2-0.9,0.3-1.3,0.4c-0.4,0.1-0.8,0.1-1.3,0.1c-1.2,0-2.2-0.3-2.9-1c-0.7-0.7-1.1-1.6-1.1-2.8
			c0-1.1,0.4-2,1.1-2.7c0.7-0.7,1.6-1.1,2.7-1.1c1.1,0,2,0.3,2.6,1c0.6,0.7,1,1.6,1,2.8c0,0.1,0,0.2,0,0.3s0,0.2,0,0.3h-4.8
			c0.1,0.4,0.4,0.7,0.7,0.9c0.3,0.2,0.8,0.3,1.3,0.3c0.4,0,0.9,0,1.3-0.1C72.7,153.2,73.1,153,73.7,152.9L73.7,152.9z M70.2,149.6
			c-0.3,0-0.6,0.1-0.8,0.4c-0.2,0.2-0.4,0.6-0.4,1h2.4c0-0.4-0.2-0.7-0.4-1C70.8,149.7,70.5,149.6,70.2,149.6z"/>
		<path d="M80.4,152.4l-0.3,2.4c-0.3,0.2-0.7,0.4-1.1,0.5c-0.4,0.1-0.8,0.2-1.3,0.2c-1.1,0-2-0.3-2.7-1s-1-1.6-1-2.8
			c0-1.1,0.4-2,1.1-2.7c0.7-0.7,1.7-1.1,2.8-1.1c0.4,0,0.9,0.1,1.3,0.2c0.4,0.1,0.8,0.3,1.1,0.5v2.5h0c-0.4-0.2-0.7-0.4-1.1-0.6
			c-0.4-0.1-0.7-0.2-1-0.2c-0.5,0-0.9,0.1-1.1,0.4c-0.3,0.3-0.4,0.6-0.4,1.1c0,0.4,0.1,0.8,0.4,1c0.3,0.3,0.6,0.4,1.1,0.4
			c0.4,0,0.7-0.1,1.2-0.2S80.1,152.6,80.4,152.4L80.4,152.4z"/>
		<path d="M88,152.9l-0.7,2c-0.4,0.2-0.9,0.3-1.3,0.4c-0.4,0.1-0.8,0.1-1.3,0.1c-1.2,0-2.2-0.3-2.9-1c-0.7-0.7-1.1-1.6-1.1-2.8
			c0-1.1,0.4-2,1.1-2.7c0.7-0.7,1.6-1.1,2.7-1.1c1.1,0,2,0.3,2.6,1c0.6,0.7,1,1.6,1,2.8c0,0.1,0,0.2,0,0.3s0,0.2,0,0.3h-4.8
			c0.1,0.4,0.4,0.7,0.7,0.9c0.3,0.2,0.8,0.3,1.3,0.3c0.4,0,0.9,0,1.3-0.1C87,153.2,87.4,153,88,152.9L88,152.9z M84.5,149.6
			c-0.3,0-0.6,0.1-0.8,0.4c-0.2,0.2-0.4,0.6-0.4,1h2.4c0-0.4-0.2-0.7-0.4-1C85.1,149.7,84.8,149.6,84.5,149.6z"/>
		<path d="M92.2,150.6c1,0.3,1.7,0.6,2,0.9s0.6,0.8,0.6,1.5c0,0.7-0.3,1.3-0.9,1.7c-0.6,0.4-1.4,0.6-2.4,0.6c-0.5,0-1-0.1-1.5-0.2
			c-0.5-0.1-0.9-0.3-1.4-0.6l-0.3-2.1l0,0c0.6,0.4,1.1,0.6,1.7,0.8s1.1,0.3,1.6,0.3c0.2,0,0.4,0,0.5-0.1c0.1-0.1,0.2-0.2,0.2-0.3
			c0-0.1-0.1-0.3-0.3-0.4s-0.5-0.2-1.1-0.4c-1-0.3-1.6-0.6-2-0.9c-0.4-0.4-0.6-0.8-0.6-1.4c0-0.7,0.3-1.3,0.9-1.7
			c0.6-0.4,1.4-0.6,2.3-0.6c0.5,0,1,0,1.4,0.1c0.4,0.1,0.9,0.3,1.3,0.5v2.1h0c-0.4-0.3-0.9-0.5-1.4-0.6s-0.9-0.2-1.3-0.2
			c-0.2,0-0.4,0-0.5,0.1s-0.2,0.2-0.2,0.3c0,0.1,0.1,0.2,0.2,0.3C91.2,150.4,91.6,150.5,92.2,150.6z"/>
		<path d="M96.8,144.3c0.4,0,0.8,0.1,1.1,0.4c0.3,0.3,0.4,0.6,0.4,1s-0.1,0.8-0.4,1c-0.3,0.3-0.7,0.4-1.1,0.4s-0.8-0.1-1.1-0.4
			c-0.3-0.3-0.5-0.6-0.5-1s0.1-0.8,0.4-1C95.9,144.4,96.3,144.3,96.8,144.3z M98.1,155.2h-2.7V148h2.7V155.2z"/>
		<path d="M104.8,152.7l-0.4,2.2c-0.3,0.2-0.6,0.3-0.9,0.4c-0.3,0.1-0.7,0.1-1.1,0.1c-0.9,0-1.6-0.2-2-0.7c-0.4-0.5-0.7-1.2-0.7-2.2
			V150h-1v-2h1v-1.5l2.6-0.5v2.1h2.4v2h-2.4v2.2c0,0.3,0.1,0.6,0.3,0.8c0.2,0.2,0.4,0.3,0.8,0.3c0.2,0,0.4,0,0.6-0.1
			C104.3,153,104.5,152.9,104.8,152.7L104.8,152.7z"/>
		<path d="M112.1,155.1l-2.5,0.3v-1c-0.4,0.4-0.9,0.6-1.3,0.8c-0.4,0.2-0.8,0.2-1.3,0.2c-0.6,0-1.2-0.2-1.5-0.5
			c-0.4-0.4-0.6-0.8-0.6-1.4c0-0.8,0.4-1.4,1.1-1.8c0.8-0.4,1.9-0.6,3.4-0.6c0-0.4-0.2-0.7-0.4-0.9c-0.2-0.2-0.6-0.3-1-0.3
			c-0.4,0-0.8,0.1-1.2,0.2c-0.4,0.1-0.8,0.4-1.2,0.6l0,0l0.3-2.2c0.4-0.2,0.8-0.4,1.3-0.5c0.5-0.1,0.9-0.2,1.4-0.2
			c1.1,0,2,0.3,2.6,0.8c0.6,0.6,0.9,1.4,0.9,2.5V155.1z M107.3,153.1c0,0.2,0.1,0.3,0.2,0.4c0.1,0.1,0.3,0.2,0.6,0.2
			c0.2,0,0.4,0,0.6-0.1c0.2-0.1,0.5-0.1,0.8-0.3v-1.2c-0.7,0.1-1.3,0.2-1.7,0.3C107.5,152.6,107.3,152.8,107.3,153.1z"/>
		<path d="M116.5,150.6c1,0.3,1.7,0.6,2,0.9s0.6,0.8,0.6,1.5c0,0.7-0.3,1.3-0.9,1.7s-1.4,0.6-2.4,0.6c-0.5,0-1-0.1-1.5-0.2
			c-0.5-0.1-0.9-0.3-1.4-0.6l-0.3-2.1l0,0c0.6,0.4,1.1,0.6,1.7,0.8c0.6,0.2,1.1,0.3,1.6,0.3c0.2,0,0.4,0,0.5-0.1
			c0.1-0.1,0.2-0.2,0.2-0.3c0-0.1-0.1-0.3-0.3-0.4c-0.2-0.1-0.6-0.2-1.1-0.4c-1-0.3-1.6-0.6-2-0.9c-0.4-0.4-0.6-0.8-0.6-1.4
			c0-0.7,0.3-1.3,0.9-1.7c0.6-0.4,1.4-0.6,2.3-0.6c0.5,0,1,0,1.4,0.1c0.4,0.1,0.9,0.3,1.3,0.5v2.1h0c-0.4-0.3-0.9-0.5-1.4-0.6
			c-0.5-0.2-0.9-0.2-1.3-0.2c-0.2,0-0.4,0-0.5,0.1c-0.1,0.1-0.2,0.2-0.2,0.3c0,0.1,0.1,0.2,0.2,0.3
			C115.5,150.4,115.9,150.5,116.5,150.6z"/>
		<path d="M127.9,152.7l-0.4,2.2c-0.3,0.2-0.6,0.3-0.9,0.4c-0.3,0.1-0.7,0.1-1.1,0.1c-0.9,0-1.6-0.2-2-0.7c-0.4-0.5-0.7-1.2-0.7-2.2
			V150h-1v-2h1v-1.5l2.6-0.5v2.1h2.4v2h-2.4v2.2c0,0.3,0.1,0.6,0.3,0.8c0.2,0.2,0.4,0.3,0.8,0.3c0.2,0,0.4,0,0.6-0.1
			C127.3,153,127.6,152.9,127.9,152.7L127.9,152.7z"/>
		<path d="M136,155.2h-2.6V154c-0.4,0.5-0.8,0.9-1.2,1.1s-0.9,0.3-1.4,0.3c-0.7,0-1.3-0.2-1.8-0.7c-0.4-0.5-0.6-1.2-0.6-2V148h2.7v4
			c0,0.4,0.1,0.6,0.3,0.8s0.4,0.3,0.7,0.3c0.2,0,0.4,0,0.6-0.1c0.2-0.1,0.4-0.1,0.6-0.3V148h2.7V155.2z"/>
		<path d="M145.6,152.4l-0.3,2.4c-0.3,0.2-0.7,0.4-1.1,0.5s-0.8,0.2-1.3,0.2c-1.1,0-2-0.3-2.7-1c-0.7-0.7-1-1.6-1-2.8
			c0-1.1,0.4-2,1.1-2.7s1.7-1.1,2.8-1.1c0.4,0,0.9,0.1,1.3,0.2c0.4,0.1,0.8,0.3,1.1,0.5v2.5h0c-0.4-0.2-0.7-0.4-1.1-0.6
			c-0.4-0.1-0.7-0.2-1-0.2c-0.5,0-0.9,0.1-1.1,0.4c-0.3,0.3-0.4,0.6-0.4,1.1c0,0.4,0.1,0.8,0.4,1c0.3,0.3,0.6,0.4,1.1,0.4
			c0.4,0,0.7-0.1,1.2-0.2S145.2,152.6,145.6,152.4L145.6,152.4z"/>
		<path d="M153.1,152.9l-0.7,2c-0.4,0.2-0.9,0.3-1.3,0.4c-0.4,0.1-0.8,0.1-1.3,0.1c-1.2,0-2.2-0.3-2.9-1c-0.7-0.7-1.1-1.6-1.1-2.8
			c0-1.1,0.4-2,1.1-2.7c0.7-0.7,1.6-1.1,2.7-1.1c1.1,0,2,0.3,2.6,1c0.6,0.7,1,1.6,1,2.8c0,0.1,0,0.2,0,0.3c0,0.1,0,0.2,0,0.3h-4.8
			c0.1,0.4,0.4,0.7,0.7,0.9s0.8,0.3,1.3,0.3c0.4,0,0.9,0,1.3-0.1C152.2,153.2,152.6,153,153.1,152.9L153.1,152.9z M149.7,149.6
			c-0.3,0-0.6,0.1-0.8,0.4c-0.2,0.2-0.4,0.6-0.4,1h2.4c0-0.4-0.2-0.7-0.4-1C150.3,149.7,150,149.6,149.7,149.6z M150.3,146.9H149
			l1.2-2.7h3.1v0L150.3,146.9z"/>
		<path d="M161.4,155.2h-2.6v-1c-0.3,0.4-0.7,0.7-1.1,0.9s-0.8,0.3-1.3,0.3c-0.9,0-1.6-0.3-2.2-1s-0.9-1.5-0.9-2.6
			c0-1.1,0.3-2.1,1-2.8s1.5-1.1,2.5-1.1c0.3,0,0.6,0.1,0.9,0.2c0.3,0.1,0.6,0.3,0.9,0.5v-3.3l2.7-0.6V155.2z M157.6,150
			c-0.5,0-0.8,0.2-1.1,0.4c-0.3,0.3-0.4,0.7-0.4,1.2s0.1,0.9,0.4,1.1c0.3,0.3,0.6,0.4,1.1,0.4c0.2,0,0.4,0,0.6-0.1
			c0.2-0.1,0.4-0.1,0.6-0.3v-2.5c-0.2-0.1-0.4-0.2-0.6-0.2C158,150,157.8,150,157.6,150z"/>
		<path d="M169.9,155.2h-2.6V154c-0.4,0.5-0.8,0.9-1.2,1.1s-0.9,0.3-1.4,0.3c-0.7,0-1.3-0.2-1.8-0.7c-0.4-0.5-0.6-1.2-0.6-2V148h2.7
			v4c0,0.4,0.1,0.6,0.3,0.8s0.4,0.3,0.7,0.3c0.2,0,0.4,0,0.6-0.1c0.2-0.1,0.4-0.1,0.6-0.3V148h2.7V155.2z"/>
		<path d="M173.6,155.2H171v-10l2.7-0.6V155.2z"/>
		<path d="M181.5,155.1l-2.5,0.3v-1c-0.4,0.4-0.9,0.6-1.3,0.8c-0.4,0.2-0.8,0.2-1.3,0.2c-0.6,0-1.2-0.2-1.5-0.5
			c-0.4-0.4-0.6-0.8-0.6-1.4c0-0.8,0.4-1.4,1.1-1.8c0.8-0.4,1.9-0.6,3.4-0.6c0-0.4-0.2-0.7-0.4-0.9c-0.2-0.2-0.6-0.3-1-0.3
			c-0.4,0-0.8,0.1-1.2,0.2c-0.4,0.1-0.8,0.4-1.2,0.6l0,0l0.3-2.2c0.4-0.2,0.8-0.4,1.3-0.5c0.5-0.1,0.9-0.2,1.4-0.2
			c1.1,0,2,0.3,2.6,0.8c0.6,0.6,0.9,1.4,0.9,2.5V155.1z M176.7,153.1c0,0.2,0.1,0.3,0.2,0.4c0.1,0.1,0.3,0.2,0.6,0.2
			c0.2,0,0.4,0,0.6-0.1c0.2-0.1,0.5-0.1,0.8-0.3v-1.2c-0.7,0.1-1.3,0.2-1.7,0.3C176.9,152.6,176.7,152.8,176.7,153.1z"/>
		<path d="M32,160.6l-2.6,6.9c-0.4,1.1-0.9,1.8-1.5,2.3c-0.6,0.5-1.4,0.8-2.3,0.8c-0.2,0-0.5,0-0.7-0.1c-0.2,0-0.4-0.1-0.6-0.2
			l-0.5-2.3l0,0c0.2,0.1,0.4,0.2,0.6,0.2c0.2,0,0.4,0.1,0.6,0.1c0.3,0,0.6-0.1,0.9-0.2c0.2-0.1,0.4-0.3,0.6-0.5l-3-7h2.9l1.5,4.1
			l1.3-4.1H32z"/>
		<path d="M46.9,158.1h3l-3.1,9.9h-2.7l-2-4.3l-2.1,4.3h-2.7l-3-9.9h3.1l1.6,6.1l3-6.2h0.2l2.9,6.2L46.9,158.1z"/>
		<path d="M54.3,162.8c-0.2,0-0.4,0-0.6,0.1c-0.2,0.1-0.4,0.2-0.6,0.3v4.7h-2.7v-10l2.7-0.6v4.5c0.4-0.5,0.7-0.8,1.1-1
			c0.4-0.2,0.8-0.3,1.3-0.3c0.7,0,1.3,0.2,1.8,0.7c0.4,0.5,0.6,1.2,0.6,2v4.7h-2.7v-4c0-0.4-0.1-0.6-0.3-0.8
			C54.9,162.9,54.6,162.8,54.3,162.8z"/>
		<path d="M65.7,167.7l-2.5,0.3v-1c-0.4,0.4-0.9,0.6-1.3,0.8c-0.4,0.2-0.8,0.2-1.3,0.2c-0.6,0-1.2-0.2-1.5-0.5s-0.6-0.8-0.6-1.4
			c0-0.8,0.4-1.4,1.1-1.8c0.8-0.4,1.9-0.6,3.4-0.6c0-0.4-0.2-0.7-0.4-0.9c-0.2-0.2-0.6-0.3-1-0.3c-0.4,0-0.8,0.1-1.2,0.2
			c-0.4,0.1-0.8,0.4-1.2,0.6l0,0l0.3-2.2c0.4-0.2,0.8-0.4,1.3-0.5s0.9-0.2,1.4-0.2c1.1,0,2,0.3,2.6,0.8c0.6,0.6,0.9,1.4,0.9,2.5
			V167.7z M60.9,165.8c0,0.2,0.1,0.3,0.2,0.4c0.1,0.1,0.3,0.2,0.6,0.2c0.2,0,0.4,0,0.6-0.1c0.2-0.1,0.5-0.1,0.8-0.3v-1.2
			c-0.7,0.1-1.3,0.2-1.6,0.3S60.9,165.5,60.9,165.8z"/>
		<path d="M72.2,165.4l-0.4,2.2c-0.3,0.2-0.6,0.3-0.9,0.4c-0.3,0.1-0.7,0.1-1.1,0.1c-0.9,0-1.6-0.2-2-0.7c-0.4-0.5-0.7-1.2-0.7-2.2
			v-2.5h-1v-2h1v-1.5l2.6-0.5v2.1h2.4v2h-2.4v2.2c0,0.3,0.1,0.6,0.3,0.8c0.2,0.2,0.4,0.3,0.8,0.3c0.2,0,0.4,0,0.6-0.1
			C71.6,165.7,71.9,165.5,72.2,165.4L72.2,165.4z"/>
		<path d="M76.3,163.3c1,0.3,1.7,0.6,2,0.9s0.6,0.8,0.6,1.5c0,0.7-0.3,1.3-0.9,1.7c-0.6,0.4-1.4,0.6-2.4,0.6c-0.5,0-1-0.1-1.5-0.2
			c-0.5-0.1-0.9-0.3-1.4-0.6l-0.3-2.1l0,0c0.6,0.4,1.1,0.6,1.7,0.8s1.1,0.3,1.6,0.3c0.2,0,0.4,0,0.5-0.1c0.1-0.1,0.2-0.2,0.2-0.3
			c0-0.1-0.1-0.3-0.3-0.4s-0.5-0.2-1.1-0.4c-1-0.3-1.6-0.6-2-0.9c-0.4-0.4-0.6-0.8-0.6-1.4c0-0.7,0.3-1.3,0.9-1.7
			c0.6-0.4,1.4-0.6,2.3-0.6c0.5,0,1,0,1.4,0.1c0.4,0.1,0.9,0.3,1.3,0.5v2.1h0c-0.4-0.3-0.9-0.5-1.4-0.6s-0.9-0.2-1.3-0.2
			c-0.2,0-0.4,0-0.5,0.1s-0.2,0.2-0.2,0.3c0,0.1,0.1,0.2,0.2,0.3C75.4,163,75.7,163.2,76.3,163.3z"/>
		<path d="M81.8,167.9h-3l4.2-9.8h3.2l4.1,9.8h-3l-0.7-1.7h-4.1L81.8,167.9z M84.6,160.8l-1.3,3.2h2.5L84.6,160.8z"/>
		<path d="M98.6,164.1c0,1.1-0.3,2.1-1,2.8c-0.7,0.7-1.5,1.1-2.5,1.1c-0.3,0-0.6-0.1-1-0.2s-0.6-0.3-0.9-0.5v3.2h-2.7v-9.7l2.6-0.3
			v1.1c0.3-0.4,0.7-0.7,1.1-0.9s0.8-0.3,1.3-0.3c0.9,0,1.6,0.3,2.2,1S98.6,163.1,98.6,164.1z M96.1,164.2c0-0.5-0.1-0.9-0.4-1.2
			c-0.3-0.3-0.6-0.4-1.1-0.4c-0.2,0-0.4,0-0.6,0.1c-0.2,0.1-0.4,0.2-0.6,0.3v2.5c0.2,0.1,0.4,0.2,0.6,0.2c0.2,0,0.4,0.1,0.6,0.1
			c0.5,0,0.8-0.1,1.1-0.4S96.1,164.7,96.1,164.2z"/>
		<path d="M107.2,164.1c0,1.1-0.3,2.1-1,2.8c-0.7,0.7-1.5,1.1-2.5,1.1c-0.3,0-0.6-0.1-1-0.2c-0.3-0.1-0.6-0.3-0.9-0.5v3.2h-2.7v-9.7
			l2.6-0.3v1.1c0.3-0.4,0.7-0.7,1.1-0.9s0.8-0.3,1.3-0.3c0.9,0,1.6,0.3,2.2,1C106.9,162.2,107.2,163.1,107.2,164.1z M104.7,164.2
			c0-0.5-0.1-0.9-0.4-1.2c-0.3-0.3-0.6-0.4-1.1-0.4c-0.2,0-0.4,0-0.6,0.1c-0.2,0.1-0.4,0.2-0.6,0.3v2.5c0.2,0.1,0.4,0.2,0.6,0.2
			c0.2,0,0.4,0.1,0.6,0.1c0.5,0,0.8-0.1,1.1-0.4S104.7,164.7,104.7,164.2z"/>
		<path d="M110.7,158.1v0.7l-1,5.4h-1.2l-1-5.4v-0.7H110.7z M109.1,168c-0.4,0-0.8-0.1-1.1-0.4c-0.3-0.3-0.4-0.6-0.4-1.1
			s0.1-0.8,0.4-1.1c0.3-0.3,0.6-0.4,1.1-0.4c0.4,0,0.8,0.1,1.1,0.4c0.3,0.3,0.4,0.6,0.4,1.1s-0.1,0.8-0.4,1.1
			C109.8,167.9,109.5,168,109.1,168z"/>
	</g>
</g>
</svg>
