<?xml version="1.0" encoding="utf-8"?>
<!-- Generator: Adobe Illustrator 27.0.1, SVG Export Plug-In . SVG Version: 6.00 Build 0)  -->
<svg version="1.1" id="PSE" xmlns="http://www.w3.org/2000/svg" xmlns:xlink="http://www.w3.org/1999/xlink" x="0px" y="0px"
	 viewBox="0 0 448.2 187.8" style="enable-background:new 0 0 448.2 187.8;" xml:space="preserve">
<style type="text/css">
	.st0{fill:#FCCB17;}
	.st1{fill:url(#Circle_00000105421528166461843810000013857928044915477158_);}
	.st2{fill:#FFFFFF;}
	.st3{fill:#FDB718;}
	.st4{fill:none;stroke:#FFFFFF;stroke-miterlimit:10;}
	.st5{fill:#0C378C;}
</style>
<path class="st0" d="M434.2,145.8H140.1c-7.7,0-14-6.3-14-14V56.1c0-7.7,6.3-14,14-14h294.1c7.7,0,14,6.3,14,14v75.7
	C448.2,139.5,441.9,145.8,434.2,145.8z"/>
<g>
	
		<radialGradient id="Circle_00000090978716982553929600000012470091201175020444_" cx="94.8229" cy="-167.5826" r="93.1552" fx="44.6386" fy="-171.2666" gradientTransform="matrix(1 0 0 -1 0 -74)" gradientUnits="userSpaceOnUse">
		<stop  offset="0.3155" style="stop-color:#2D5CA8"/>
		<stop  offset="0.5312" style="stop-color:#285496"/>
		<stop  offset="0.7289" style="stop-color:#1F4272"/>
		<stop  offset="1" style="stop-color:#0D2D4D"/>
	</radialGradient>
	
		<ellipse id="Circle_1_" style="fill:url(#Circle_00000090978716982553929600000012470091201175020444_);" cx="93.2" cy="93.9" rx="93.2" ry="93.2"/>
	<g id="PSE_1_">
		<path class="st2" d="M118.3,71H96.2c-0.1,0-0.2,0-0.3,0c-3.5,0.8-10.1,4.3-10.1,12.2c-0.2,3,1.1,7.8,7.4,9.8c0,0,15.7,0,15.7,0
			c0.7,0,5,1,4.7,8.5c-0.3,7.5-6.7,8.5-7.7,9.5H81.7c-0.8,0-1.4,0.7-1.4,1.5c0,0.8,0.6,1.5,1.4,1.5h24.5c0.1,0,0.2-0.4,0.2-0.4
			c3.3-0.6,9.7-4,10.1-12.2c0.4-10.6-7.3-11.3-7.4-11.3c0,0-15.5,0-15.5,0c-5.3-1-5-6.6-5-6.8c0,0,0,0.1,0,0
			c-0.1-7.1,6.7-9.3,7.8-9.3h21.9c0.8,0,1.4-0.7,1.4-1.5C119.7,71.7,119,71,118.3,71z"/>
		<path class="st2" d="M151.9,70.8c-0.1,0-0.3,0.2-0.4,0.2H135c-7.5,0-10.8,8.6-11,9c0,0.1,0,0-0.1,0.1c-0.2,0.8-4.2,18.9-4.1,24.9
			c0.1,5.6,5.9,7.7,8.9,8c0.1,0,0.1,0,0.2,0h22.9c0.8,0,1.4-0.7,1.4-1.5s-0.6-1.5-1.4-1.5H129c-0.7,0-6.2-0.8-6.3-5.2
			c-0.1-2.3,0.6-6.8,1.4-11.4l31.9-0.2c0.7,0,1.3-0.5,1.4-1.2c0.1-0.4,1.5-8.5,1.5-13.4C158.9,72.8,152.1,70.9,151.9,70.8z
			 M154.8,90.4l-30.2,0.3c0.9-4.9,1.9-8.9,2-9.7c0.3-0.8,3.1-7,8.3-7h16.3c0.9,0,4.8,1.6,4.8,4.9C156.1,82.5,155.2,88,154.8,90.4z"
			/>
		<path class="st2" d="M81.7,79.4c0.8-5.6-6.3-8.4-7.6-8.4c0,0,0,0,0,0c-5.7,0-14.4,0.2-15.3,0.2c-0.1,0-0.2,0.1-0.4,0.1
			c-3.6,0.6-8.4,5.1-9.9,9.4l0,0c-0.2,0.5-0.3,1.2-0.5,2.3c-0.3,1.3-0.6,3.2-1,5.5C46.1,93,45,99,43.9,105
			c-2.2,12.1-4.4,24.2-4.4,24.2c-0.1,0.7,0.4,1.5,1.1,1.6c0.1,0,0.2,0,0.2,0c0.7,0,1.2-0.5,1.3-1.1c0.9-5.1,2.4-13.5,4-21.8
			c3.6,4.5,8,5,8.3,5c0.1,0,0.1,0,0.2,0l14.1-0.4c0.1,0,0.2,0,0.4-0.1c6.7-2,8.7-8.9,8.8-9.2c0,0,0-0.1,0-0.2l3.8-23.4
			C81.6,79.6,81.6,79.5,81.7,79.4z M78.9,79.4l-3.8,23.2c-0.2,0.6-1.9,5.7-6.7,7.2l-13.8,0.4c-0.6-0.1-4.9-0.9-7.7-6.2
			c2-11.2,3.9-21.3,4.1-22.4c1.3-3.4,5.4-7.1,7.7-7.5c0.5,0,1.2,0,2.2,0c1.5,0,3.4,0,5.3,0c3.2,0,6.4,0,7.4,0
			C75.4,74,79.3,76.8,78.9,79.4z"/>
	</g>
	<g id="Figures">
		<ellipse class="st3" cx="18.2" cy="66" rx="3.9" ry="4.2"/>
		<path class="st3" d="M14.2,52.8c0-1.8-1.1-3.4-2.7-3.9c-1.3,2.4-2.5,4.8-3.6,7.3c0.7,0.5,1.5,0.9,2.4,0.9
			C12.5,57,14.2,55.1,14.2,52.8z"/>
		<path class="st3" d="M6.3,66c0-1.1-0.4-2.2-1.1-2.9c-0.8,2.3-1.5,4.6-2.2,7C4.9,69.8,6.3,68.1,6.3,66z"/>
		<ellipse class="st3" cx="18.7" cy="117" rx="3.9" ry="4.2"/>
		<path class="st3" d="M4.9,117c0-1.7-1.2-3.2-2.8-3.4c0.4,2.1,1,4.1,1.5,6.1C4.4,119.1,4.9,118.1,4.9,117z"/>
		<path class="st3" d="M14.2,130.7c0-2.3-1.8-4.2-3.9-4.2c-1.5,0-2.9,1-3.5,2.4c0.8,2,1.7,4,2.6,5.9c0.3,0.1,0.6,0.1,0.9,0.1
			C12.4,134.8,14.2,133,14.2,130.7z"/>
		<path class="st3" d="M20.9,104H13c-0.5-1-2-2.7-3.7-2.7c-2.2,0-3.9,2-3.9,4.3c0,2.3,1.8,4.3,3.9,4.3c1.7,0,3.2-0.8,3.7-2.8h6.4
			h2.2h0.2l8.3-15h12.7v-2H22l-8.6-15h-0.6h-2.2H1.9c-0.2,1-0.4,2-0.6,3h10.8l7,12H0.1c0,0.7,0,1.3-0.1,2h27.7L20.9,104z"/>
	</g>
	<g id="ach_1_">
		<path class="st4" d="M53,58.5h4.2c0,0,1.2,0.4,1,1.8l-0.8,5.6H53c0,0-2-0.7-0.9-2.8c0,0,0.9-1.1,1.7-1.1l4.1,0.1"/>
		<path class="st4" d="M65.8,58.5h-4.2c0,0-1.5,0.7-1.8,2.6c0,0-1,2.8,0.2,4.8l0.5,0.1h4"/>
		<polyline class="st4" points="68.2,55.1 67.6,58.5 66.3,66.1 		"/>
		<path class="st4" d="M67.4,59.9c0,0,0.5-1,1.4-1.4c0,0,3.2-0.3,3.7,0.5c0,0,0.6,0.3,0.6,1.2l-1,5.7"/>
	</g>
</g>
<g>
	<path class="st5" d="M205.8,64.8c1.6-0.3,3.7-0.5,6.3-0.5c3.3,0,5.7,0.8,7.2,2.1c1.4,1.2,2.2,3.1,2.2,5.4c0,2.3-0.7,4.1-2,5.5
		c-1.7,1.9-4.6,2.8-7.8,2.8c-1,0-1.9,0-2.7-0.2v10.3h-3.3V64.8z M209.1,77.2c0.7,0.2,1.6,0.3,2.7,0.3c4,0,6.4-1.9,6.4-5.5
		c0-3.4-2.4-5-6-5c-1.4,0-2.5,0.1-3.1,0.3V77.2z"/>
	<path class="st5" d="M235.1,90.1l-0.3-2.3h-0.1c-1,1.4-3,2.7-5.6,2.7c-3.7,0-5.6-2.6-5.6-5.3c0-4.4,4-6.9,11.1-6.8V78
		c0-1.5-0.4-4.3-4.2-4.3c-1.7,0-3.5,0.5-4.8,1.4l-0.8-2.2c1.5-1,3.7-1.6,6-1.6c5.6,0,7,3.8,7,7.5v6.9c0,1.6,0.1,3.2,0.3,4.4H235.1z
		 M234.6,80.7c-3.6-0.1-7.8,0.6-7.8,4.1c0,2.2,1.4,3.2,3.2,3.2c2.4,0,3.9-1.5,4.4-3.1c0.1-0.3,0.2-0.7,0.2-1.1V80.7z"/>
	<path class="st5" d="M259.1,71.7c-0.1,1.3-0.2,2.8-0.2,5.1v10.7c0,4.2-0.8,6.8-2.6,8.4c-1.8,1.7-4.4,2.2-6.7,2.2
		c-2.2,0-4.6-0.5-6.1-1.5l0.8-2.5c1.2,0.8,3.1,1.4,5.4,1.4c3.4,0,5.9-1.8,5.9-6.4V87h-0.1c-1,1.7-3,3.1-5.9,3.1
		c-4.6,0-7.8-3.9-7.8-9c0-6.2,4.1-9.8,8.3-9.8c3.2,0,4.9,1.7,5.7,3.2h0.1l0.2-2.8H259.1z M255.6,79c0-0.6,0-1.1-0.2-1.5
		c-0.6-1.9-2.2-3.5-4.7-3.5c-3.2,0-5.5,2.7-5.5,7c0,3.6,1.8,6.6,5.4,6.6c2.1,0,3.9-1.3,4.6-3.4c0.2-0.6,0.3-1.2,0.3-1.8V79z"/>
	<path class="st5" d="M281.1,80.8c0,6.8-4.7,9.8-9.2,9.8c-5,0-8.8-3.6-8.8-9.5c0-6.2,4-9.8,9.1-9.8
		C277.6,71.3,281.1,75.1,281.1,80.8z M266.6,80.9c0,4,2.3,7.1,5.6,7.1c3.2,0,5.6-3,5.6-7.1c0-3.1-1.6-7.1-5.5-7.1
		S266.6,77.5,266.6,80.9z"/>
	<path class="st5" d="M284.9,86.7c1,0.6,2.7,1.3,4.4,1.3c2.4,0,3.6-1.2,3.6-2.7c0-1.6-1-2.5-3.4-3.4c-3.3-1.2-4.9-3-4.9-5.2
		c0-3,2.4-5.4,6.3-5.4c1.9,0,3.5,0.5,4.5,1.1l-0.8,2.4c-0.7-0.5-2.1-1.1-3.8-1.1c-2,0-3.1,1.1-3.1,2.5c0,1.5,1.1,2.2,3.5,3.1
		c3.2,1.2,4.8,2.8,4.8,5.5c0,3.2-2.5,5.5-6.9,5.5c-2,0-3.9-0.5-5.2-1.3L284.9,86.7z"/>
	<path class="st5" d="M308,86.7c1,0.6,2.7,1.3,4.4,1.3c2.4,0,3.6-1.2,3.6-2.7c0-1.6-1-2.5-3.4-3.4c-3.3-1.2-4.9-3-4.9-5.2
		c0-3,2.4-5.4,6.3-5.4c1.9,0,3.5,0.5,4.5,1.1l-0.8,2.4c-0.7-0.5-2.1-1.1-3.8-1.1c-2,0-3.1,1.1-3.1,2.5c0,1.5,1.1,2.2,3.5,3.1
		c3.2,1.2,4.8,2.8,4.8,5.5c0,3.2-2.5,5.5-6.9,5.5c-2,0-3.9-0.5-5.2-1.3L308,86.7z"/>
	<path class="st5" d="M325.4,81.5c0.1,4.5,3,6.4,6.3,6.4c2.4,0,3.8-0.4,5.1-0.9l0.6,2.4c-1.2,0.5-3.2,1.1-6.1,1.1
		c-5.7,0-9-3.7-9-9.3s3.3-9.9,8.6-9.9c6,0,7.6,5.3,7.6,8.7c0,0.7-0.1,1.2-0.1,1.6H325.4z M335.2,79.1c0-2.1-0.9-5.4-4.6-5.4
		c-3.4,0-4.9,3.1-5.1,5.4H335.2z"/>
	<path class="st5" d="M358.4,71.7c-0.1,1.3-0.2,2.8-0.2,5.1v10.7c0,4.2-0.8,6.8-2.6,8.4c-1.8,1.7-4.4,2.2-6.7,2.2
		c-2.2,0-4.6-0.5-6.1-1.5l0.8-2.5c1.2,0.8,3.1,1.4,5.4,1.4c3.4,0,5.9-1.8,5.9-6.4V87h-0.1c-1,1.7-3,3.1-5.9,3.1
		c-4.6,0-7.8-3.9-7.8-9c0-6.2,4.1-9.8,8.3-9.8c3.2,0,4.9,1.7,5.7,3.2h0.1l0.2-2.8H358.4z M354.9,79c0-0.6,0-1.1-0.2-1.5
		c-0.6-1.9-2.2-3.5-4.7-3.5c-3.2,0-5.5,2.7-5.5,7c0,3.6,1.8,6.6,5.4,6.6c2.1,0,3.9-1.3,4.6-3.4c0.2-0.6,0.3-1.2,0.3-1.8V79z"/>
	<path class="st5" d="M379.2,85.1c0,1.9,0,3.6,0.2,5h-3l-0.2-3h-0.1c-0.9,1.5-2.8,3.4-6.1,3.4c-2.9,0-6.3-1.6-6.3-8.1V71.7h3.3v10.2
		c0,3.5,1.1,5.9,4.1,5.9c2.2,0,3.8-1.6,4.4-3c0.2-0.5,0.3-1.1,0.3-1.7V71.7h3.3V85.1z"/>
	<path class="st5" d="M384.7,77.5c0-2.2,0-4-0.2-5.7h2.9l0.1,3.6h0.2c0.8-2.5,2.8-4,5.1-4c0.4,0,0.6,0,1,0.1v3.2
		c-0.3-0.1-0.7-0.1-1.1-0.1c-2.4,0-4,1.8-4.5,4.3c-0.1,0.5-0.2,1-0.2,1.6v9.8h-3.3V77.5z"/>
	<path class="st5" d="M413.4,80.8c0,6.8-4.7,9.8-9.2,9.8c-5,0-8.8-3.6-8.8-9.5c0-6.2,4-9.8,9.1-9.8
		C409.9,71.3,413.4,75.1,413.4,80.8z M398.8,80.9c0,4,2.3,7.1,5.6,7.1c3.2,0,5.6-3,5.6-7.1c0-3.1-1.6-7.1-5.5-7.1
		S398.8,77.5,398.8,80.9z"/>
	<path class="st5" d="M417.2,86.7c1,0.6,2.7,1.3,4.4,1.3c2.4,0,3.6-1.2,3.6-2.7c0-1.6-1-2.5-3.4-3.4c-3.3-1.2-4.9-3-4.9-5.2
		c0-3,2.4-5.4,6.3-5.4c1.9,0,3.5,0.5,4.5,1.1l-0.8,2.4c-0.7-0.5-2.1-1.1-3.8-1.1c-2,0-3.1,1.1-3.1,2.5c0,1.5,1.1,2.2,3.5,3.1
		c3.2,1.2,4.8,2.8,4.8,5.5c0,3.2-2.5,5.5-6.9,5.5c-2,0-3.9-0.5-5.2-1.3L417.2,86.7z"/>
	<path class="st5" d="M258.8,114.5c0.1,4.5,3,6.4,6.3,6.4c2.4,0,3.8-0.4,5.1-0.9l0.6,2.4c-1.2,0.5-3.2,1.1-6.1,1.1
		c-5.7,0-9-3.7-9-9.3c0-5.5,3.3-9.9,8.6-9.9c6,0,7.6,5.3,7.6,8.7c0,0.7-0.1,1.2-0.1,1.6H258.8z M268.6,112.1c0-2.1-0.9-5.4-4.6-5.4
		c-3.4,0-4.9,3.1-5.1,5.4H268.6z"/>
	<path class="st5" d="M276,109.7c0-1.9,0-3.5-0.2-5h3l0.2,3h0.1c0.9-1.7,3-3.5,6.1-3.5c2.5,0,6.5,1.5,6.5,7.8v11h-3.3v-10.6
		c0-3-1.1-5.4-4.3-5.4c-2.2,0-3.9,1.6-4.5,3.4c-0.2,0.4-0.2,1-0.2,1.6v11.1H276V109.7z"/>
	<path class="st5" d="M305.1,96.1h3.3v27h-3.3V96.1z"/>
	<path class="st5" d="M320.9,96.8l-4.6,5.4h-2.4l3.3-5.4H320.9z M314.1,123.1v-18.4h3.3v18.4H314.1z"/>
	<path class="st5" d="M323,109.7c0-1.9,0-3.5-0.2-5h3l0.2,3h0.1c0.9-1.7,3-3.5,6.1-3.5c2.5,0,6.5,1.5,6.5,7.8v11h-3.3v-10.6
		c0-3-1.1-5.4-4.3-5.4c-2.2,0-3.9,1.6-4.5,3.4c-0.2,0.4-0.2,1-0.2,1.6v11.1H323V109.7z"/>
	<path class="st5" d="M346,114.5c0.1,4.5,3,6.4,6.3,6.4c2.4,0,3.8-0.4,5.1-0.9l0.6,2.4c-1.2,0.5-3.2,1.1-6.1,1.1c-5.7,0-9-3.7-9-9.3
		c0-5.5,3.3-9.9,8.6-9.9c6,0,7.6,5.3,7.6,8.7c0,0.7-0.1,1.2-0.1,1.6H346z M355.8,112.1c0-2.1-0.9-5.4-4.6-5.4
		c-3.4,0-4.9,3.1-5.1,5.4H355.8z"/>
	<path class="st5" d="M373.3,123.1l-0.3-2.3h-0.1c-1,1.4-3,2.7-5.6,2.7c-3.7,0-5.6-2.6-5.6-5.3c0-4.4,4-6.9,11.1-6.8V111
		c0-1.5-0.4-4.3-4.2-4.3c-1.7,0-3.5,0.5-4.8,1.4l-0.8-2.2c1.5-1,3.7-1.6,6-1.6c5.6,0,7,3.8,7,7.5v6.9c0,1.6,0.1,3.2,0.3,4.4H373.3z
		 M372.8,113.7c-3.6-0.1-7.8,0.6-7.8,4.1c0,2.2,1.4,3.2,3.2,3.2c2.4,0,3.9-1.5,4.4-3.1c0.1-0.3,0.2-0.7,0.2-1.1V113.7z"/>
</g>
</svg>
