<?xml version="1.0" encoding="utf-8"?>
<!-- Generator: Adobe Illustrator 28.1.0, SVG Export Plug-In . SVG Version: 6.00 Build 0)  -->
<svg version="1.1" id="Capa_1" xmlns="http://www.w3.org/2000/svg" xmlns:xlink="http://www.w3.org/1999/xlink" x="0px" y="0px"
	 viewBox="0 0 71 15" style="enable-background:new 0 0 71 15;" xml:space="preserve">
<style type="text/css">
	.st0{fill:#00369C;}
	.st1{fill:#43D12F;}
</style>
<g>
	<g>
		<path class="st0" d="M20.8,3.5V1.8h-1.9V0l-1.3,0.3c0,0.2-0.1,0.5-0.3,0.7c-0.3,0.4-0.7,0.7-1.2,0.8c0,0-0.1,0-0.1,0v1.6h0.9v2.9
			c0,0.7,0.2,1.2,0.6,1.6c0.4,0.4,1,0.5,1.8,0.5c0.2,0,0.4,0,0.7-0.1c0.3,0,0.5-0.1,0.7-0.1V6.6c-0.2,0-0.3,0.1-0.5,0.1
			c-0.1,0-0.3,0-0.5,0c-0.3,0-0.6-0.1-0.7-0.2C19,6.5,18.9,6.3,18.9,6V3.5H20.8z"/>
		<path class="st0" d="M6.9,0c0,0.3,0.1,0.5,0.3,0.7C7.5,1,7.7,1.1,8.1,1.1c0.3,0,0.6-0.1,0.8-0.3C9.1,0.5,9.2,0.3,9.2,0H6.9z"/>
		<path class="st0" d="M0.4,7.7l1-1.4c0.4,0.3,0.8,0.4,1.1,0.5C2.8,6.9,3.2,7,3.5,7s0.6,0,0.8-0.1c0.2-0.1,0.3-0.2,0.3-0.4
			c0-0.1-0.1-0.2-0.2-0.3C4.3,6.1,4.2,6,3.9,6L2.6,5.8C2,5.7,1.5,5.5,1.1,5.1C0.8,4.8,0.6,4.4,0.6,3.8c0-0.7,0.3-1.2,0.8-1.6
			s1.2-0.6,2.1-0.6c0.5,0,1,0.1,1.4,0.2C5.4,2,5.8,2.2,6.2,2.5l-1,1.3c-0.4-0.2-0.7-0.4-1-0.5c-0.3-0.1-0.7-0.1-1-0.1
			c-0.3,0-0.5,0-0.6,0.1C2.5,3.4,2.4,3.5,2.4,3.6c0,0.1,0.1,0.2,0.2,0.3C2.7,4,2.9,4.1,3.2,4.1l1.3,0.2C5.1,4.4,5.6,4.7,6,5
			c0.4,0.3,0.5,0.8,0.5,1.3c0,0.3-0.1,0.6-0.2,0.9C6.1,7.4,5.9,7.7,5.7,7.9C5.4,8.1,5.1,8.2,4.7,8.4C4.4,8.5,4,8.5,3.5,8.5
			c-0.6,0-1.2-0.1-1.7-0.2C1.2,8.2,0.8,7.9,0.4,7.7z"/>
		<path class="st0" d="M9.6,7.7l1-1.4c0.4,0.3,0.8,0.4,1.1,0.5C12,6.9,12.4,7,12.7,7c0.3,0,0.6,0,0.8-0.1c0.2-0.1,0.3-0.2,0.3-0.4
			c0-0.1-0.1-0.2-0.2-0.3C13.5,6.1,13.3,6,13.1,6l-1.3-0.2c-0.7-0.1-1.2-0.3-1.5-0.7C9.9,4.8,9.8,4.4,9.8,3.8c0-0.7,0.3-1.2,0.8-1.6
			c0.5-0.4,1.2-0.6,2.1-0.6c0.5,0,1,0.1,1.4,0.2C14.5,2,15,2.2,15.4,2.5l-1,1.3c-0.4-0.2-0.7-0.4-1-0.5c-0.3-0.1-0.7-0.1-1-0.1
			c-0.3,0-0.5,0-0.6,0.1c-0.2,0.1-0.2,0.2-0.2,0.3c0,0.1,0.1,0.2,0.2,0.3C11.8,4,12,4.1,12.3,4.1l1.3,0.2c0.7,0.1,1.2,0.3,1.5,0.6
			c0.4,0.3,0.5,0.8,0.5,1.3c0,0.3-0.1,0.6-0.2,0.9c-0.2,0.3-0.4,0.5-0.6,0.7c-0.3,0.2-0.6,0.4-0.9,0.5c-0.4,0.1-0.8,0.2-1.2,0.2
			c-0.6,0-1.2-0.1-1.7-0.2C10.4,8.2,9.9,7.9,9.6,7.7z"/>
		<path class="st0" d="M27.5,7.5c-0.4,0.4-0.8,0.6-1.3,0.8c-0.4,0.2-0.9,0.2-1.5,0.2c-0.5,0-1-0.1-1.4-0.3s-0.8-0.4-1.1-0.7
			c-0.3-0.3-0.6-0.7-0.8-1.1c-0.2-0.4-0.3-0.9-0.3-1.3c0-0.5,0.1-0.9,0.3-1.3c0.2-0.4,0.4-0.8,0.7-1.1c0.3-0.3,0.7-0.6,1.1-0.7
			c0.4-0.2,0.9-0.3,1.4-0.3s0.9,0.1,1.3,0.3c0.4,0.2,0.8,0.4,1.1,0.8c0.3,0.3,0.5,0.7,0.7,1.1C27.9,4.3,28,4.8,28,5.3v0.5h-4.7
			c0.1,0.3,0.3,0.6,0.6,0.8c0.3,0.2,0.6,0.3,1,0.3c0.3,0,0.5,0,0.8-0.1c0.2-0.1,0.4-0.2,0.6-0.4L27.5,7.5z M24.6,3.3
			c-0.3,0-0.6,0.1-0.9,0.3c-0.2,0.2-0.4,0.4-0.5,0.8H26c-0.1-0.3-0.3-0.6-0.5-0.8C25.2,3.4,24.9,3.3,24.6,3.3z"/>
		<rect x="7" y="1.8" class="st0" width="2" height="6.6"/>
	</g>
	<g>
		<path class="st1" d="M63.2,3.5V1.8h-1.9V0L60,0.3c0,0.2-0.1,0.5-0.3,0.7c-0.3,0.4-0.7,0.7-1.2,0.8c0,0-0.1,0-0.1,0v1.6h0.9v2.9
			c0,0.7,0.2,1.2,0.6,1.6c0.4,0.4,1,0.5,1.8,0.5c0.2,0,0.4,0,0.7-0.1c0.3,0,0.5-0.1,0.7-0.1V6.6c-0.2,0-0.3,0.1-0.5,0.1
			c-0.1,0-0.3,0-0.5,0c-0.3,0-0.6-0.1-0.7-0.2c-0.1-0.1-0.2-0.3-0.2-0.6V3.5H63.2z"/>
		<path class="st1" d="M42.1,0c0,0.3,0.1,0.5,0.3,0.7c0.2,0.2,0.5,0.3,0.8,0.3c0.3,0,0.6-0.1,0.8-0.3c0.2-0.2,0.3-0.4,0.3-0.7H42.1z
			"/>
		<path class="st1" d="M55.2,0c0,0.3,0.1,0.5,0.3,0.7C55.7,1,56,1.1,56.3,1.1c0.3,0,0.6-0.1,0.8-0.3c0.2-0.2,0.3-0.4,0.3-0.7H55.2z"
			/>
		<path class="st1" d="M32,6.8c0.3,0,0.5-0.1,0.8-0.2c0.2-0.1,0.5-0.3,0.7-0.5l1.2,1.3c-0.3,0.4-0.7,0.7-1.2,0.9
			c-0.5,0.2-1,0.3-1.5,0.3c-0.5,0-1-0.1-1.4-0.3c-0.4-0.2-0.8-0.4-1.1-0.7c-0.3-0.3-0.6-0.7-0.7-1.1c-0.2-0.4-0.3-0.9-0.3-1.4
			s0.1-0.9,0.3-1.4c0.2-0.4,0.4-0.8,0.7-1.1c0.3-0.3,0.7-0.5,1.1-0.7c0.4-0.2,0.9-0.3,1.4-0.3c0.5,0,1.1,0.1,1.6,0.3
			c0.5,0.2,0.9,0.5,1.3,0.9l-1.2,1.3c-0.2-0.3-0.5-0.5-0.7-0.6c-0.2-0.1-0.5-0.2-0.8-0.2c-0.4,0-0.8,0.2-1.1,0.5
			c-0.3,0.3-0.4,0.7-0.4,1.2c0,0.5,0.2,0.9,0.5,1.2C31.2,6.6,31.6,6.8,32,6.8z"/>
		<path class="st1" d="M35.2,8.4V1.8h2v0.7C37.5,2.2,37.7,2,38,1.8s0.6-0.2,1-0.2c0.2,0,0.3,0,0.5,0c0.1,0,0.2,0.1,0.3,0.1v1.8
			c-0.1-0.1-0.3-0.1-0.5-0.1c-0.2,0-0.3-0.1-0.5-0.1c-0.3,0-0.6,0.1-0.9,0.2c-0.3,0.2-0.5,0.4-0.7,0.6v4.2H35.2z"/>
		<path class="st1" d="M46.2,7.5c-0.4,0.4-0.8,0.6-1.3,0.8c-0.4,0.2-0.9,0.2-1.5,0.2c-0.5,0-1-0.1-1.4-0.3c-0.4-0.2-0.8-0.4-1.1-0.7
			c-0.3-0.3-0.6-0.7-0.8-1.1s-0.3-0.9-0.3-1.3c0-0.5,0.1-0.9,0.3-1.3c0.2-0.4,0.4-0.8,0.7-1.1c0.3-0.3,0.7-0.6,1.1-0.7
			c0.4-0.2,0.9-0.3,1.4-0.3s0.9,0.1,1.3,0.3c0.4,0.2,0.8,0.4,1.1,0.8C46,3,46.2,3.4,46.4,3.8c0.2,0.4,0.3,0.9,0.3,1.4v0.5h-4.7
			c0.1,0.3,0.3,0.6,0.6,0.8c0.3,0.2,0.6,0.3,1,0.3c0.3,0,0.5,0,0.8-0.1c0.2-0.1,0.4-0.2,0.6-0.4L46.2,7.5z M43.3,3.3
			c-0.3,0-0.6,0.1-0.9,0.3C42.2,3.8,42,4,41.9,4.4h2.8c-0.1-0.3-0.3-0.6-0.5-0.8C43.9,3.4,43.6,3.3,43.3,3.3z"/>
		<path class="st1" d="M52.3,8.4V7.9c-0.3,0.2-0.5,0.3-0.8,0.4c-0.3,0.1-0.6,0.2-0.9,0.2c-0.5,0-0.9-0.1-1.3-0.3
			c-0.4-0.2-0.8-0.4-1.1-0.7c-0.3-0.3-0.5-0.7-0.7-1.1c-0.2-0.4-0.3-0.9-0.3-1.3s0.1-0.9,0.3-1.3c0.2-0.4,0.4-0.8,0.7-1.1
			c0.3-0.3,0.7-0.5,1.1-0.7c0.4-0.2,0.9-0.3,1.3-0.3c0.3,0,0.6,0,0.9,0.1C51.8,1.9,52,2,52.3,2.1V0.4l2-0.4v8.4H52.3z M49.1,5.1
			c0,0.5,0.2,0.9,0.5,1.2c0.3,0.3,0.8,0.5,1.2,0.5c0.3,0,0.5,0,0.8-0.1c0.2-0.1,0.4-0.2,0.6-0.4V3.9c-0.2-0.2-0.4-0.3-0.6-0.4
			c-0.2-0.1-0.5-0.1-0.8-0.1c-0.5,0-0.9,0.2-1.2,0.5C49.3,4.2,49.1,4.6,49.1,5.1z"/>
		<rect x="55.3" y="1.8" class="st1" width="2" height="6.6"/>
		<path class="st1" d="M69.4,3.7c-0.1,0-0.2,0-0.2,0c-0.1,0-0.1,0.1-0.2,0.2l-0.4,0.9c0,0.1,0,0.2,0,0.4c0,0.5-0.2,0.9-0.5,1.2
			c-0.3,0.3-0.7,0.5-1.1,0.5c-0.5,0-0.8-0.2-1.1-0.5c-0.3-0.3-0.5-0.7-0.5-1.2c0-0.5,0.2-0.9,0.5-1.2c0.3-0.3,0.7-0.5,1.1-0.5
			c0.5,0,0.8,0.2,1.1,0.5c0.1,0.1,0.2,0.2,0.2,0.3l0.2-0.5c0.1-0.2,0.2-0.3,0.4-0.4c0.2-0.1,0.4-0.1,0.5,0l0.7,0.3
			c-0.2-0.4-0.4-0.7-0.7-1c-0.3-0.3-0.7-0.6-1.1-0.7C68,1.7,67.5,1.6,67,1.6c-0.5,0-1,0.1-1.4,0.3c-0.4,0.2-0.8,0.4-1.1,0.7
			c-0.3,0.3-0.6,0.7-0.8,1.1c-0.2,0.4-0.3,0.9-0.3,1.3c0,0.5,0.1,0.9,0.3,1.3c0.2,0.4,0.4,0.8,0.8,1.1c0.3,0.3,0.7,0.6,1.1,0.7
			C66,8.4,66.5,8.5,67,8.5c0.5,0,1-0.1,1.4-0.3c0.4-0.2,0.8-0.4,1.1-0.7c0.3-0.3,0.6-0.7,0.8-1.1c0.2-0.4,0.3-0.9,0.3-1.3
			c0-0.3,0-0.7-0.1-1L69.4,3.7z"/>
	</g>
	<g>
		<path class="st0" d="M28.7,14v-3.6l0.5-0.1V14H28.7z"/>
		<path class="st0" d="M30.9,14c-0.3,0-0.5-0.1-0.7-0.2c-0.2-0.1-0.4-0.3-0.5-0.5c-0.1-0.2-0.2-0.4-0.2-0.7s0.1-0.5,0.2-0.7
			c0.1-0.2,0.3-0.4,0.5-0.5c0.2-0.1,0.4-0.2,0.7-0.2c0.3,0,0.5,0.1,0.7,0.2c0.2,0.1,0.4,0.3,0.5,0.5c0.1,0.2,0.2,0.4,0.2,0.7
			s-0.1,0.5-0.2,0.7c-0.1,0.2-0.3,0.4-0.5,0.5C31.4,14,31.2,14,30.9,14z M30.9,13.6c0.2,0,0.3,0,0.4-0.1c0.1-0.1,0.2-0.2,0.3-0.3
			c0.1-0.1,0.1-0.3,0.1-0.5c0-0.2,0-0.3-0.1-0.5c-0.1-0.1-0.2-0.2-0.3-0.3c-0.1-0.1-0.3-0.1-0.4-0.1c-0.2,0-0.3,0-0.4,0.1
			c-0.1,0.1-0.2,0.2-0.3,0.3c-0.1,0.1-0.1,0.3-0.1,0.5c0,0.2,0,0.3,0.1,0.5c0.1,0.1,0.2,0.2,0.3,0.3C30.6,13.5,30.8,13.6,30.9,13.6z
			"/>
		<path class="st0" d="M33.6,14v-3.6l0.5-0.1v1.3c0.2-0.2,0.5-0.3,0.8-0.3c0.2,0,0.4,0,0.5,0.1c0.2,0.1,0.3,0.2,0.4,0.4
			c0.1,0.2,0.1,0.3,0.1,0.5V14h-0.5v-1.5c0-0.2-0.1-0.4-0.2-0.5c-0.1-0.1-0.3-0.2-0.5-0.2c-0.1,0-0.3,0-0.4,0.1
			c-0.1,0.1-0.2,0.1-0.3,0.2V14H33.6z"/>
		<path class="st0" d="M37.2,14c-0.2,0-0.4,0-0.5-0.1c-0.1-0.1-0.3-0.2-0.3-0.3c-0.1-0.1-0.1-0.3-0.1-0.4c0-0.2,0.1-0.4,0.3-0.6
			c0.2-0.1,0.4-0.2,0.8-0.2c0.3,0,0.5,0,0.7,0.1v-0.3c0-0.2-0.1-0.3-0.2-0.4c-0.1-0.1-0.3-0.1-0.5-0.1c-0.1,0-0.2,0-0.4,0.1
			c-0.1,0-0.3,0.1-0.4,0.2l-0.2-0.4c0.2-0.1,0.4-0.2,0.5-0.2c0.2,0,0.3-0.1,0.5-0.1c0.3,0,0.6,0.1,0.8,0.2c0.2,0.2,0.3,0.4,0.3,0.7
			V14H38v-0.2c-0.1,0.1-0.2,0.2-0.4,0.2C37.5,14,37.4,14,37.2,14z M36.8,13.2c0,0.1,0.1,0.2,0.2,0.3c0.1,0.1,0.2,0.1,0.4,0.1
			c0.1,0,0.3,0,0.4-0.1c0.1,0,0.2-0.1,0.3-0.2v-0.4c-0.1-0.1-0.2-0.1-0.3-0.1c-0.1,0-0.2,0-0.4,0c-0.2,0-0.3,0-0.4,0.1
			C36.8,13,36.8,13.1,36.8,13.2z"/>
		<path class="st0" d="M40.2,14c-0.2,0-0.5-0.1-0.7-0.2c-0.2-0.1-0.4-0.3-0.5-0.5c-0.1-0.2-0.2-0.4-0.2-0.7c0-0.3,0.1-0.5,0.2-0.7
			c0.1-0.2,0.3-0.4,0.5-0.5c0.2-0.1,0.4-0.2,0.7-0.2c0.2,0,0.4,0,0.6,0.1c0.2,0.1,0.3,0.2,0.5,0.3L41,12.1c-0.1-0.1-0.2-0.2-0.3-0.2
			c-0.1-0.1-0.2-0.1-0.4-0.1c-0.2,0-0.3,0-0.4,0.1c-0.1,0.1-0.2,0.2-0.3,0.3c-0.1,0.1-0.1,0.3-0.1,0.5c0,0.2,0,0.3,0.1,0.5
			c0.1,0.1,0.2,0.2,0.3,0.3c0.1,0.1,0.3,0.1,0.4,0.1c0.1,0,0.3,0,0.4-0.1c0.1-0.1,0.2-0.1,0.3-0.2l0.3,0.3c-0.1,0.1-0.3,0.2-0.5,0.3
			C40.6,14,40.4,14,40.2,14z"/>
		<path class="st0" d="M42.7,14c-0.3,0-0.5-0.1-0.7-0.2c-0.2-0.1-0.4-0.3-0.5-0.5c-0.1-0.2-0.2-0.4-0.2-0.7c0-0.2,0.1-0.5,0.2-0.7
			s0.3-0.4,0.5-0.5c0.2-0.1,0.4-0.2,0.7-0.2s0.5,0.1,0.6,0.2c0.2,0.1,0.3,0.3,0.4,0.5c0.1,0.2,0.2,0.4,0.2,0.7v0.1h-2
			c0,0.1,0.1,0.3,0.2,0.4c0.1,0.1,0.2,0.2,0.3,0.3c0.1,0.1,0.3,0.1,0.4,0.1c0.1,0,0.2,0,0.4-0.1c0.1,0,0.2-0.1,0.3-0.2l0.3,0.3
			c-0.2,0.1-0.3,0.2-0.5,0.3S42.9,14,42.7,14z M41.9,12.5h1.5c0-0.1-0.1-0.3-0.1-0.4c-0.1-0.1-0.2-0.2-0.3-0.2
			c-0.1-0.1-0.2-0.1-0.3-0.1c-0.1,0-0.2,0-0.4,0.1c-0.1,0.1-0.2,0.1-0.3,0.2C42,12.2,41.9,12.3,41.9,12.5z"/>
		<path class="st0" d="M44.3,14v-2.6h0.5v0.2c0.2-0.2,0.4-0.3,0.7-0.3c0.2,0,0.3,0,0.5,0.1c0.1,0.1,0.2,0.2,0.3,0.3
			c0.1-0.1,0.2-0.3,0.4-0.3c0.1-0.1,0.3-0.1,0.5-0.1c0.2,0,0.4,0,0.5,0.1c0.1,0.1,0.3,0.2,0.3,0.4c0.1,0.2,0.1,0.3,0.1,0.5V14h-0.5
			v-1.5c0-0.2-0.1-0.4-0.2-0.5c-0.1-0.1-0.3-0.2-0.4-0.2c-0.1,0-0.2,0-0.3,0.1c-0.1,0.1-0.2,0.1-0.3,0.3c0,0,0,0.1,0,0.1
			c0,0,0,0.1,0,0.1V14H46v-1.5c0-0.2-0.1-0.4-0.2-0.5c-0.1-0.1-0.3-0.2-0.4-0.2c-0.1,0-0.2,0-0.3,0.1c-0.1,0.1-0.2,0.1-0.3,0.2V14
			H44.3z"/>
		<path class="st0" d="M49.9,14c-0.3,0-0.5-0.1-0.7-0.2c-0.2-0.1-0.4-0.3-0.5-0.5c-0.1-0.2-0.2-0.4-0.2-0.7s0.1-0.5,0.2-0.7
			c0.1-0.2,0.3-0.4,0.5-0.5c0.2-0.1,0.4-0.2,0.7-0.2c0.3,0,0.5,0.1,0.7,0.2c0.2,0.1,0.4,0.3,0.5,0.5c0.1,0.2,0.2,0.4,0.2,0.7
			s-0.1,0.5-0.2,0.7s-0.3,0.4-0.5,0.5C50.4,14,50.2,14,49.9,14z M49.9,13.6c0.2,0,0.3,0,0.4-0.1c0.1-0.1,0.2-0.2,0.3-0.3
			c0.1-0.1,0.1-0.3,0.1-0.5c0-0.2,0-0.3-0.1-0.5c-0.1-0.1-0.2-0.2-0.3-0.3c-0.1-0.1-0.3-0.1-0.4-0.1c-0.2,0-0.3,0-0.4,0.1
			c-0.1,0.1-0.2,0.2-0.3,0.3c-0.1,0.1-0.1,0.3-0.1,0.5c0,0.2,0,0.3,0.1,0.5c0.1,0.1,0.2,0.2,0.3,0.3C49.6,13.5,49.7,13.6,49.9,13.6z
			"/>
		<path class="st0" d="M52.5,14c-0.2,0-0.4,0-0.6-0.1c-0.2-0.1-0.4-0.2-0.5-0.3l0.3-0.3c0.1,0.1,0.3,0.2,0.4,0.2
			c0.1,0.1,0.3,0.1,0.4,0.1c0.2,0,0.3,0,0.4-0.1c0.1-0.1,0.2-0.2,0.2-0.3c0-0.1,0-0.2-0.1-0.2c-0.1-0.1-0.2-0.1-0.3-0.1l-0.5-0.1
			c-0.3,0-0.5-0.1-0.6-0.2c-0.1-0.1-0.2-0.3-0.2-0.5c0-0.2,0-0.3,0.1-0.4c0.1-0.1,0.2-0.2,0.4-0.3c0.2-0.1,0.3-0.1,0.5-0.1
			c0.2,0,0.4,0,0.5,0.1c0.2,0.1,0.3,0.1,0.5,0.3L53.3,12c-0.1-0.1-0.3-0.2-0.4-0.2c-0.1,0-0.3-0.1-0.4-0.1c-0.2,0-0.3,0-0.4,0.1
			c-0.1,0.1-0.1,0.2-0.1,0.3c0,0.1,0,0.2,0.1,0.2c0.1,0.1,0.2,0.1,0.3,0.1l0.5,0.1c0.3,0,0.5,0.1,0.6,0.2c0.1,0.1,0.2,0.3,0.2,0.5
			c0,0.2,0,0.3-0.1,0.4c-0.1,0.1-0.2,0.2-0.4,0.3C52.9,14,52.7,14,52.5,14z"/>
		<path class="st0" d="M54.9,15v-3.6h0.5v0.2c0.2-0.2,0.5-0.3,0.8-0.3c0.2,0,0.5,0.1,0.7,0.2c0.2,0.1,0.4,0.3,0.5,0.5
			c0.1,0.2,0.2,0.4,0.2,0.7c0,0.3-0.1,0.5-0.2,0.7c-0.1,0.2-0.3,0.4-0.5,0.5c-0.2,0.1-0.4,0.2-0.7,0.2c-0.1,0-0.3,0-0.4-0.1
			c-0.1,0-0.3-0.1-0.4-0.2V15H54.9z M56.1,13.6c0.2,0,0.3,0,0.4-0.1c0.1-0.1,0.2-0.2,0.3-0.3c0.1-0.1,0.1-0.3,0.1-0.5s0-0.3-0.1-0.5
			c-0.1-0.1-0.2-0.2-0.3-0.3c-0.1-0.1-0.3-0.1-0.4-0.1c-0.1,0-0.3,0-0.4,0.1c-0.1,0.1-0.2,0.1-0.3,0.2v1.2c0.1,0.1,0.2,0.2,0.3,0.2
			C55.8,13.5,56,13.6,56.1,13.6z"/>
		<path class="st0" d="M59.1,14c-0.3,0-0.5-0.1-0.7-0.2c-0.2-0.1-0.4-0.3-0.5-0.5c-0.1-0.2-0.2-0.4-0.2-0.7s0.1-0.5,0.2-0.7
			c0.1-0.2,0.3-0.4,0.5-0.5c0.2-0.1,0.4-0.2,0.7-0.2c0.3,0,0.5,0.1,0.7,0.2c0.2,0.1,0.4,0.3,0.5,0.5c0.1,0.2,0.2,0.4,0.2,0.7
			s-0.1,0.5-0.2,0.7c-0.1,0.2-0.3,0.4-0.5,0.5C59.6,14,59.3,14,59.1,14z M59.1,13.6c0.2,0,0.3,0,0.4-0.1c0.1-0.1,0.2-0.2,0.3-0.3
			c0.1-0.1,0.1-0.3,0.1-0.5c0-0.2,0-0.3-0.1-0.5c-0.1-0.1-0.2-0.2-0.3-0.3c-0.1-0.1-0.3-0.1-0.4-0.1c-0.2,0-0.3,0-0.4,0.1
			c-0.1,0.1-0.2,0.2-0.3,0.3c-0.1,0.1-0.1,0.3-0.1,0.5c0,0.2,0,0.3,0.1,0.5c0.1,0.1,0.2,0.2,0.3,0.3C58.8,13.5,58.9,13.6,59.1,13.6z
			"/>
		<path class="st0" d="M61.7,14c-0.2,0-0.4,0-0.6-0.1c-0.2-0.1-0.4-0.2-0.5-0.3l0.3-0.3c0.1,0.1,0.3,0.2,0.4,0.2
			c0.1,0.1,0.3,0.1,0.4,0.1c0.2,0,0.3,0,0.4-0.1c0.1-0.1,0.2-0.2,0.2-0.3c0-0.1,0-0.2-0.1-0.2c-0.1-0.1-0.2-0.1-0.3-0.1l-0.5-0.1
			c-0.3,0-0.5-0.1-0.6-0.2c-0.1-0.1-0.2-0.3-0.2-0.5c0-0.2,0-0.3,0.1-0.4c0.1-0.1,0.2-0.2,0.4-0.3c0.2-0.1,0.3-0.1,0.5-0.1
			c0.2,0,0.4,0,0.5,0.1c0.2,0.1,0.3,0.1,0.5,0.3L62.4,12c-0.1-0.1-0.3-0.2-0.4-0.2c-0.1,0-0.3-0.1-0.4-0.1c-0.2,0-0.3,0-0.4,0.1
			c-0.1,0.1-0.1,0.2-0.1,0.3c0,0.1,0,0.2,0.1,0.2c0.1,0.1,0.2,0.1,0.3,0.1l0.5,0.1c0.3,0,0.5,0.1,0.6,0.2c0.1,0.1,0.2,0.3,0.2,0.5
			c0,0.2,0,0.3-0.1,0.4c-0.1,0.1-0.2,0.2-0.4,0.3C62.1,14,61.9,14,61.7,14z"/>
		<path class="st0" d="M63.3,11c-0.1,0-0.2,0-0.2-0.1C63,10.8,63,10.7,63,10.6c0-0.1,0-0.2,0.1-0.2c0.1-0.1,0.1-0.1,0.2-0.1
			c0.1,0,0.2,0,0.2,0.1c0.1,0.1,0.1,0.1,0.1,0.2c0,0.1,0,0.2-0.1,0.2C63.5,10.9,63.4,11,63.3,11z M63.1,14v-2.6h0.5V14H63.1z"/>
		<path class="st0" d="M64.1,14v-3.6l0.5-0.1v1.3c0.2-0.2,0.5-0.3,0.8-0.3c0.2,0,0.5,0.1,0.7,0.2c0.2,0.1,0.4,0.3,0.5,0.5
			c0.1,0.2,0.2,0.4,0.2,0.7c0,0.3-0.1,0.5-0.2,0.7c-0.1,0.2-0.3,0.4-0.5,0.5c-0.2,0.1-0.4,0.2-0.7,0.2c-0.1,0-0.3,0-0.4-0.1
			c-0.1,0-0.3-0.1-0.4-0.2V14H64.1z M65.3,13.6c0.2,0,0.3,0,0.4-0.1c0.1-0.1,0.2-0.2,0.3-0.3c0.1-0.1,0.1-0.3,0.1-0.5s0-0.3-0.1-0.5
			c-0.1-0.1-0.2-0.2-0.3-0.3c-0.1-0.1-0.3-0.1-0.4-0.1c-0.1,0-0.3,0-0.4,0.1c-0.1,0.1-0.2,0.1-0.3,0.2v1.2c0.1,0.1,0.2,0.2,0.3,0.2
			C65,13.5,65.2,13.6,65.3,13.6z"/>
		<path class="st0" d="M67.1,14v-3.6l0.5-0.1V14H67.1z"/>
		<path class="st0" d="M69.3,14c-0.3,0-0.5-0.1-0.7-0.2c-0.2-0.1-0.4-0.3-0.5-0.5C68,13.1,68,12.9,68,12.7c0-0.2,0.1-0.5,0.2-0.7
			s0.3-0.4,0.5-0.5c0.2-0.1,0.4-0.2,0.7-0.2c0.2,0,0.5,0.1,0.6,0.2c0.2,0.1,0.3,0.3,0.4,0.5c0.1,0.2,0.2,0.4,0.2,0.7v0.1h-2
			c0,0.1,0.1,0.3,0.2,0.4s0.2,0.2,0.3,0.3c0.1,0.1,0.3,0.1,0.4,0.1c0.1,0,0.2,0,0.4-0.1c0.1,0,0.2-0.1,0.3-0.2l0.3,0.3
			c-0.2,0.1-0.3,0.2-0.5,0.3S69.5,14,69.3,14z M68.5,12.5H70c0-0.1-0.1-0.3-0.1-0.4c-0.1-0.1-0.2-0.2-0.3-0.2
			c-0.1-0.1-0.2-0.1-0.3-0.1c-0.1,0-0.2,0-0.4,0.1c-0.1,0.1-0.2,0.1-0.3,0.2C68.5,12.2,68.5,12.3,68.5,12.5z"/>
	</g>
</g>
</svg>
