<?xml version="1.0" encoding="utf-8"?>
<!-- Generator: Adobe Illustrator 27.0.0, SVG Export Plug-In . SVG Version: 6.00 Build 0)  -->
<svg version="1.1" id="Capa_1" xmlns="http://www.w3.org/2000/svg" xmlns:xlink="http://www.w3.org/1999/xlink" x="0px" y="0px"
	 viewBox="0 0 72 15" style="enable-background:new 0 0 72 15;" xml:space="preserve">
<style type="text/css">
	.st0{fill:#59483A;}
	.st1{fill:#F4B740;}
	.st2{fill:#77C23A;}
	.st3{fill:#558EE2;}
</style>
<g>
	<g>
		<g>
			<path class="st0" d="M26.4,2.1c0,0.1,0,0.3-0.1,0.4c0,0.1-0.1,0.3-0.2,0.4C26.1,3,26,3.1,25.9,3.2c-0.1,0.1-0.3,0.2-0.5,0.2v0
				c0.2,0,0.3,0.1,0.5,0.1c0.1,0.1,0.3,0.2,0.4,0.3c0.1,0.1,0.2,0.3,0.3,0.4c0.1,0.2,0.1,0.4,0.1,0.6c0,0.3-0.1,0.6-0.2,0.8
				c-0.1,0.2-0.3,0.4-0.5,0.5c-0.2,0.1-0.5,0.2-0.7,0.3c-0.3,0.1-0.5,0.1-0.8,0.1c-0.1,0-0.2,0-0.4,0c-0.1,0-0.3,0-0.5,0
				c-0.2,0-0.3,0-0.5,0c-0.2,0-0.3,0-0.5-0.1V0.8c0.1,0,0.2,0,0.4,0c0.1,0,0.3,0,0.4,0c0.2,0,0.3,0,0.5,0c0.2,0,0.3,0,0.5,0
				c0.3,0,0.5,0,0.8,0.1c0.3,0,0.5,0.1,0.7,0.2c0.2,0.1,0.4,0.3,0.5,0.4C26.4,1.6,26.4,1.8,26.4,2.1z M24,3.2c0.1,0,0.2,0,0.3,0
				c0.1,0,0.2,0,0.3,0c0.2-0.1,0.4-0.2,0.5-0.3c0.2-0.1,0.2-0.3,0.2-0.5c0-0.1,0-0.3-0.1-0.4c-0.1-0.1-0.1-0.2-0.2-0.2
				c-0.1-0.1-0.2-0.1-0.3-0.1c-0.1,0-0.2,0-0.4,0c-0.1,0-0.3,0-0.4,0c-0.1,0-0.2,0-0.3,0v1.5H24z M24.4,5.7c0.1,0,0.3,0,0.4,0
				c0.1,0,0.2-0.1,0.3-0.2c0.1-0.1,0.2-0.2,0.2-0.3c0.1-0.1,0.1-0.2,0.1-0.4c0-0.2,0-0.3-0.1-0.4c-0.1-0.1-0.2-0.2-0.3-0.2
				c-0.1-0.1-0.2-0.1-0.4-0.1c-0.1,0-0.3,0-0.4,0h-0.6v1.6c0,0,0.1,0,0.1,0c0.1,0,0.1,0,0.2,0c0.1,0,0.1,0,0.2,0
				C24.2,5.7,24.3,5.7,24.4,5.7z"/>
			<path class="st0" d="M27.5,2.6c0.2-0.1,0.5-0.2,0.8-0.2c0.3-0.1,0.6-0.1,1-0.1c0.3,0,0.5,0,0.7,0.1c0.2,0.1,0.3,0.2,0.5,0.3
				c0.1,0.1,0.2,0.3,0.2,0.5c0,0.2,0.1,0.4,0.1,0.6c0,0.2,0,0.5,0,0.7c0,0.2,0,0.5,0,0.7c0,0.2,0,0.5,0,0.7c0,0.2,0.1,0.4,0.1,0.6
				h-0.9L29.7,6h0c-0.1,0.2-0.3,0.3-0.5,0.4c-0.2,0.1-0.4,0.2-0.8,0.2c-0.2,0-0.4,0-0.5-0.1c-0.2-0.1-0.3-0.1-0.4-0.2
				c-0.1-0.1-0.2-0.2-0.3-0.4c-0.1-0.1-0.1-0.3-0.1-0.5c0-0.3,0.1-0.5,0.2-0.6c0.1-0.2,0.3-0.3,0.5-0.4c0.2-0.1,0.5-0.2,0.8-0.2
				c0.3,0,0.6-0.1,1,0c0-0.3,0-0.5-0.1-0.7c-0.1-0.1-0.3-0.2-0.6-0.2c-0.2,0-0.4,0-0.7,0.1c-0.2,0-0.4,0.1-0.6,0.2L27.5,2.6z
				 M28.8,5.7c0.2,0,0.4,0,0.5-0.1c0.1-0.1,0.2-0.2,0.3-0.3V4.7c-0.2,0-0.3,0-0.5,0c-0.2,0-0.3,0-0.4,0.1c-0.1,0-0.2,0.1-0.3,0.2
				c-0.1,0.1-0.1,0.2-0.1,0.3c0,0.2,0,0.3,0.1,0.4C28.6,5.7,28.7,5.7,28.8,5.7z"/>
			<path class="st0" d="M34.2,6.5V4.2c0-0.3,0-0.6-0.1-0.7c-0.1-0.1-0.3-0.2-0.5-0.2c-0.2,0-0.4,0.1-0.5,0.2
				c-0.1,0.1-0.2,0.3-0.3,0.4v2.7h-1.1V2.4h0.9l0.1,0.5h0c0.1-0.2,0.3-0.3,0.5-0.5c0.2-0.1,0.5-0.2,0.8-0.2c0.2,0,0.4,0,0.5,0.1
				c0.2,0.1,0.3,0.1,0.4,0.3c0.1,0.1,0.2,0.3,0.2,0.5c0.1,0.2,0.1,0.5,0.1,0.8v2.6H34.2z"/>
			<path class="st0" d="M39.2,6.3c-0.2,0.1-0.4,0.2-0.6,0.3c-0.2,0.1-0.5,0.1-0.7,0.1c-0.3,0-0.6-0.1-0.8-0.2
				c-0.2-0.1-0.4-0.3-0.6-0.4c-0.1-0.2-0.2-0.4-0.3-0.7C36.1,5.1,36,4.8,36,4.5c0-0.7,0.2-1.2,0.5-1.6c0.3-0.4,0.8-0.6,1.4-0.6
				c0.3,0,0.5,0,0.7,0.1c0.2,0,0.4,0.1,0.5,0.2l-0.3,0.9c-0.1-0.1-0.3-0.1-0.4-0.1c-0.1,0-0.3,0-0.4,0c-0.3,0-0.5,0.1-0.7,0.3
				c-0.2,0.2-0.2,0.5-0.2,0.9c0,0.2,0,0.3,0.1,0.5c0,0.1,0.1,0.3,0.2,0.4c0.1,0.1,0.2,0.2,0.3,0.3c0.1,0.1,0.3,0.1,0.4,0.1
				c0.2,0,0.3,0,0.5-0.1c0.1,0,0.2-0.1,0.3-0.2L39.2,6.3z"/>
			<path class="st0" d="M39.6,4.5c0-0.7,0.2-1.2,0.5-1.6c0.3-0.4,0.8-0.6,1.4-0.6c0.3,0,0.6,0.1,0.9,0.2c0.2,0.1,0.4,0.3,0.6,0.4
				c0.2,0.2,0.3,0.4,0.4,0.7c0.1,0.3,0.1,0.6,0.1,0.9c0,0.7-0.2,1.2-0.5,1.6c-0.3,0.4-0.8,0.6-1.4,0.6c-0.3,0-0.6-0.1-0.9-0.2
				c-0.2-0.1-0.4-0.3-0.6-0.4c-0.2-0.2-0.3-0.4-0.4-0.7C39.6,5.1,39.6,4.8,39.6,4.5z M40.7,4.5c0,0.2,0,0.4,0,0.5
				c0,0.2,0.1,0.3,0.1,0.4C41,5.5,41,5.6,41.1,5.7c0.1,0.1,0.2,0.1,0.4,0.1c0.3,0,0.5-0.1,0.6-0.3c0.1-0.2,0.2-0.5,0.2-1
				c0-0.4-0.1-0.7-0.2-0.9c-0.1-0.2-0.3-0.4-0.6-0.4c-0.3,0-0.5,0.1-0.6,0.3C40.8,3.7,40.7,4,40.7,4.5z"/>
			<path class="st0" d="M49.4,5.3h-1.8l-0.4,1.3H46l2.1-5.8h0.8L51,6.5h-1.2L49.4,5.3z M47.9,4.3h1.2l-0.4-1.3l-0.2-0.9h0l-0.2,0.9
				L47.9,4.3z"/>
			<path class="st0" d="M55,6.5c0,0.6-0.2,1-0.5,1.3c-0.3,0.3-0.8,0.4-1.4,0.4c-0.4,0-0.7,0-0.9-0.1C52,8.2,51.8,8.1,51.7,8l0.2-0.9
				c0.1,0,0.3,0.1,0.4,0.1c0.2,0,0.4,0.1,0.6,0.1c0.4,0,0.6-0.1,0.8-0.2c0.1-0.2,0.2-0.4,0.2-0.7V6.2h0c-0.2,0.3-0.5,0.4-1,0.4
				c-0.5,0-0.9-0.2-1.2-0.5c-0.3-0.3-0.4-0.9-0.4-1.6c0-0.7,0.2-1.3,0.5-1.7c0.4-0.4,0.9-0.6,1.5-0.6c0.4,0,0.7,0,0.9,0.1
				c0.3,0,0.5,0.1,0.7,0.2V6.5z M53.2,5.7c0.2,0,0.4,0,0.5-0.1c0.1-0.1,0.2-0.2,0.3-0.4V3.3c-0.2-0.1-0.4-0.1-0.6-0.1
				c-0.3,0-0.5,0.1-0.6,0.3c-0.2,0.2-0.2,0.5-0.2,1c0,0.4,0.1,0.7,0.2,0.9C52.7,5.6,52.9,5.7,53.2,5.7z"/>
			<path class="st0" d="M58.3,3.4c-0.2-0.1-0.3-0.1-0.5-0.1c-0.2,0-0.4,0.1-0.5,0.2c-0.1,0.1-0.2,0.2-0.3,0.4v2.7H56V2.4h0.8
				l0.1,0.5h0c0.1-0.2,0.2-0.4,0.4-0.5c0.2-0.1,0.3-0.2,0.6-0.2c0.1,0,0.3,0,0.5,0.1L58.3,3.4z"/>
			<path class="st0" d="M59,2.6c0.2-0.1,0.5-0.2,0.8-0.2c0.3-0.1,0.6-0.1,1-0.1c0.3,0,0.5,0,0.7,0.1c0.2,0.1,0.3,0.2,0.5,0.3
				C62,2.8,62.1,3,62.1,3.2c0,0.2,0.1,0.4,0.1,0.6c0,0.2,0,0.5,0,0.7c0,0.2,0,0.5,0,0.7c0,0.2,0,0.5,0,0.7c0,0.2,0.1,0.4,0.1,0.6
				h-0.9L61.2,6h0c-0.1,0.2-0.3,0.3-0.5,0.4c-0.2,0.1-0.4,0.2-0.8,0.2c-0.2,0-0.4,0-0.5-0.1c-0.2-0.1-0.3-0.1-0.4-0.2
				c-0.1-0.1-0.2-0.2-0.3-0.4c-0.1-0.1-0.1-0.3-0.1-0.5c0-0.3,0.1-0.5,0.2-0.6c0.1-0.2,0.3-0.3,0.5-0.4c0.2-0.1,0.5-0.2,0.8-0.2
				c0.3,0,0.6-0.1,1,0c0-0.3,0-0.5-0.1-0.7c-0.1-0.1-0.3-0.2-0.6-0.2c-0.2,0-0.4,0-0.7,0.1c-0.2,0-0.4,0.1-0.6,0.2L59,2.6z
				 M60.3,5.7c0.2,0,0.4,0,0.5-0.1c0.1-0.1,0.2-0.2,0.3-0.3V4.7c-0.2,0-0.3,0-0.5,0c-0.2,0-0.3,0-0.4,0.1c-0.1,0-0.2,0.1-0.3,0.2
				c-0.1,0.1-0.1,0.2-0.1,0.3c0,0.2,0,0.3,0.1,0.4C60,5.7,60.2,5.7,60.3,5.7z"/>
			<path class="st0" d="M65.4,3.4c-0.2-0.1-0.3-0.1-0.5-0.1c-0.2,0-0.4,0.1-0.5,0.2c-0.1,0.1-0.2,0.2-0.3,0.4v2.7h-1.1V2.4H64
				l0.1,0.5h0c0.1-0.2,0.2-0.4,0.4-0.5c0.2-0.1,0.3-0.2,0.6-0.2c0.1,0,0.3,0,0.5,0.1L65.4,3.4z"/>
			<path class="st0" d="M66,1.2c0-0.2,0.1-0.3,0.2-0.4c0.1-0.1,0.3-0.2,0.5-0.2c0.2,0,0.4,0.1,0.5,0.2s0.2,0.2,0.2,0.4
				c0,0.2-0.1,0.3-0.2,0.4c-0.1,0.1-0.3,0.2-0.5,0.2c-0.2,0-0.4-0.1-0.5-0.2C66.1,1.5,66,1.4,66,1.2z M66.2,2.4h1.1v4.1h-1.1V2.4z"
				/>
			<path class="st0" d="M68.1,4.5c0-0.7,0.2-1.2,0.5-1.6c0.3-0.4,0.8-0.6,1.4-0.6c0.3,0,0.6,0.1,0.9,0.2c0.2,0.1,0.4,0.3,0.6,0.4
				c0.2,0.2,0.3,0.4,0.4,0.7C72,3.8,72,4.1,72,4.5c0,0.7-0.2,1.2-0.5,1.6c-0.3,0.4-0.8,0.6-1.4,0.6c-0.3,0-0.6-0.1-0.9-0.2
				c-0.2-0.1-0.4-0.3-0.6-0.4c-0.2-0.2-0.3-0.4-0.4-0.7C68.1,5.1,68.1,4.8,68.1,4.5z M69.2,4.5c0,0.2,0,0.4,0,0.5
				c0,0.2,0.1,0.3,0.1,0.4c0.1,0.1,0.2,0.2,0.3,0.3c0.1,0.1,0.2,0.1,0.4,0.1c0.3,0,0.5-0.1,0.6-0.3c0.1-0.2,0.2-0.5,0.2-1
				c0-0.4-0.1-0.7-0.2-0.9c-0.1-0.2-0.3-0.4-0.6-0.4c-0.3,0-0.5,0.1-0.6,0.3C69.3,3.7,69.2,4,69.2,4.5z"/>
		</g>
		<g>
			<path class="st0" d="M29.1,12.8c0,0.2,0,0.5,0,0.7c0,0.2,0,0.5,0.1,0.8h-0.8l-0.1-0.5h0c-0.1,0.2-0.3,0.3-0.5,0.5
				c-0.2,0.1-0.5,0.2-0.7,0.2c-0.5,0-0.9-0.2-1.2-0.5c-0.3-0.3-0.4-0.9-0.4-1.6c0-0.7,0.2-1.3,0.5-1.6c0.3-0.4,0.8-0.6,1.4-0.6
				c0.2,0,0.3,0,0.4,0c0.1,0,0.2,0.1,0.3,0.1V8.4h1.1V12.8z M27.3,13.4c0.2,0,0.4-0.1,0.5-0.2c0.1-0.1,0.2-0.2,0.3-0.4v-1.8
				c-0.1-0.1-0.2-0.1-0.3-0.1c-0.1,0-0.2,0-0.4,0c-0.3,0-0.5,0.1-0.7,0.3c-0.2,0.2-0.2,0.6-0.2,1.1c0,0.4,0.1,0.6,0.2,0.9
				C26.8,13.3,27,13.4,27.3,13.4z"/>
			<path class="st0" d="M33.4,13.9c-0.2,0.1-0.4,0.2-0.7,0.3c-0.3,0.1-0.6,0.1-0.9,0.1c-0.7,0-1.2-0.2-1.5-0.6
				c-0.3-0.4-0.5-0.9-0.5-1.6c0-0.7,0.2-1.3,0.5-1.6c0.3-0.4,0.8-0.5,1.5-0.5c0.2,0,0.4,0,0.6,0.1c0.2,0.1,0.4,0.1,0.5,0.3
				c0.2,0.1,0.3,0.3,0.4,0.5c0.1,0.2,0.1,0.5,0.1,0.8c0,0.1,0,0.2,0,0.4c0,0.1,0,0.3-0.1,0.4H31c0,0.3,0.1,0.6,0.3,0.8
				c0.2,0.2,0.4,0.3,0.8,0.3c0.2,0,0.4,0,0.6-0.1c0.2-0.1,0.3-0.1,0.4-0.2L33.4,13.9z M31.8,10.8c-0.3,0-0.5,0.1-0.6,0.3
				c-0.1,0.2-0.2,0.4-0.2,0.7h1.5c0-0.3,0-0.5-0.1-0.7C32.3,10.9,32.1,10.8,31.8,10.8z"/>
			<path class="st0" d="M40.5,14c-0.2,0.1-0.4,0.2-0.7,0.3c-0.3,0.1-0.6,0.1-0.8,0.1c-0.3,0-0.7-0.1-1-0.2c-0.3-0.1-0.6-0.3-0.8-0.5
				c-0.2-0.2-0.4-0.6-0.6-0.9c-0.1-0.4-0.2-0.8-0.2-1.4c0-0.6,0.1-1,0.2-1.4C36.8,9.5,37,9.2,37.2,9c0.3-0.2,0.5-0.4,0.8-0.5
				c0.3-0.1,0.6-0.2,0.9-0.2c0.3,0,0.6,0,0.8,0.1c0.2,0,0.4,0.1,0.6,0.2l-0.2,1c-0.1-0.1-0.3-0.1-0.5-0.1c-0.2,0-0.4,0-0.6,0
				c-0.5,0-0.8,0.2-1.1,0.5c-0.3,0.3-0.4,0.8-0.4,1.5c0,0.3,0,0.6,0.1,0.8c0.1,0.2,0.2,0.5,0.3,0.6c0.1,0.2,0.3,0.3,0.5,0.4
				c0.2,0.1,0.4,0.1,0.7,0.1c0.2,0,0.5,0,0.6-0.1c0.2,0,0.3-0.1,0.4-0.2L40.5,14z"/>
			<path class="st0" d="M40.9,12.2c0-0.7,0.2-1.2,0.5-1.6c0.3-0.4,0.8-0.6,1.4-0.6c0.3,0,0.6,0.1,0.9,0.2c0.2,0.1,0.4,0.3,0.6,0.4
				c0.2,0.2,0.3,0.4,0.4,0.7c0.1,0.3,0.1,0.6,0.1,0.9c0,0.7-0.2,1.2-0.5,1.6c-0.3,0.4-0.8,0.6-1.4,0.6c-0.3,0-0.6-0.1-0.9-0.2
				c-0.2-0.1-0.4-0.3-0.6-0.4c-0.2-0.2-0.3-0.4-0.4-0.7C41,12.8,40.9,12.5,40.9,12.2z M42,12.2c0,0.2,0,0.4,0,0.5
				c0,0.2,0.1,0.3,0.1,0.4c0.1,0.1,0.2,0.2,0.3,0.3c0.1,0.1,0.2,0.1,0.4,0.1c0.3,0,0.5-0.1,0.6-0.3c0.1-0.2,0.2-0.5,0.2-1
				c0-0.4-0.1-0.7-0.2-0.9c-0.1-0.2-0.3-0.4-0.6-0.4c-0.3,0-0.5,0.1-0.6,0.3C42.1,11.4,42,11.7,42,12.2z"/>
			<path class="st0" d="M46.7,12.8c0,0.2,0,0.3,0.1,0.4c0,0.1,0.1,0.1,0.2,0.1c0.1,0,0.1,0,0.2,0c0.1,0,0.1,0,0.2-0.1l0.1,0.8
				c-0.1,0-0.2,0.1-0.4,0.1c-0.2,0-0.4,0.1-0.6,0.1c-0.3,0-0.6-0.1-0.7-0.2c-0.2-0.1-0.2-0.4-0.2-0.7v-5h1.1V12.8z"/>
			<path class="st0" d="M47.9,12.2c0-0.7,0.2-1.2,0.5-1.6c0.3-0.4,0.8-0.6,1.4-0.6c0.3,0,0.6,0.1,0.9,0.2c0.2,0.1,0.4,0.3,0.6,0.4
				c0.2,0.2,0.3,0.4,0.4,0.7c0.1,0.3,0.1,0.6,0.1,0.9c0,0.7-0.2,1.2-0.5,1.6c-0.3,0.4-0.8,0.6-1.4,0.6c-0.3,0-0.6-0.1-0.9-0.2
				c-0.2-0.1-0.4-0.3-0.6-0.4c-0.2-0.2-0.3-0.4-0.4-0.7C48,12.8,47.9,12.5,47.9,12.2z M49,12.2c0,0.2,0,0.4,0,0.5
				c0,0.2,0.1,0.3,0.1,0.4c0.1,0.1,0.2,0.2,0.3,0.3c0.1,0.1,0.2,0.1,0.4,0.1c0.3,0,0.5-0.1,0.6-0.3c0.1-0.2,0.2-0.5,0.2-1
				c0-0.4-0.1-0.7-0.2-0.9c-0.1-0.2-0.3-0.4-0.6-0.4c-0.3,0-0.5,0.1-0.6,0.3C49.1,11.4,49,11.7,49,12.2z"/>
			<path class="st0" d="M55,14.2V12c0-0.4,0-0.7-0.1-0.8c-0.1-0.2-0.2-0.2-0.4-0.2c-0.2,0-0.3,0.1-0.5,0.2c-0.1,0.1-0.2,0.2-0.3,0.4
				v2.8h-1.1v-4.1h0.8l0.1,0.5h0c0.1-0.2,0.3-0.3,0.5-0.5c0.2-0.1,0.4-0.2,0.8-0.2c0.3,0,0.5,0.1,0.7,0.2c0.2,0.1,0.3,0.3,0.4,0.5
				c0.1-0.2,0.3-0.4,0.5-0.5c0.2-0.1,0.4-0.2,0.7-0.2c0.2,0,0.4,0,0.6,0.1c0.2,0.1,0.3,0.2,0.4,0.3c0.1,0.1,0.2,0.3,0.2,0.5
				c0,0.2,0.1,0.5,0.1,0.9v2.5h-1.1v-2.3c0-0.3,0-0.6-0.1-0.7c-0.1-0.2-0.2-0.2-0.5-0.2c-0.2,0-0.3,0.1-0.5,0.2
				c-0.1,0.1-0.2,0.2-0.3,0.4v2.7H55z"/>
			<path class="st0" d="M59.3,8.4h1.1v2h0c0.1-0.1,0.3-0.2,0.4-0.3c0.2-0.1,0.4-0.1,0.6-0.1c0.5,0,0.9,0.2,1.1,0.5
				c0.3,0.3,0.4,0.9,0.4,1.6c0,0.7-0.2,1.3-0.6,1.7c-0.4,0.4-0.9,0.6-1.5,0.6c-0.4,0-0.7,0-1-0.1c-0.3-0.1-0.5-0.1-0.7-0.2V8.4z
				 M61.2,10.9c-0.2,0-0.4,0.1-0.5,0.2c-0.1,0.1-0.2,0.2-0.3,0.4v1.8c0.1,0,0.2,0.1,0.3,0.1c0.1,0,0.2,0,0.3,0
				c0.3,0,0.5-0.1,0.7-0.3c0.2-0.2,0.2-0.6,0.2-1C61.9,11.3,61.7,10.9,61.2,10.9z"/>
			<path class="st0" d="M63.7,8.9c0-0.2,0.1-0.3,0.2-0.4c0.1-0.1,0.3-0.2,0.5-0.2c0.2,0,0.4,0.1,0.5,0.2c0.1,0.1,0.2,0.2,0.2,0.4
				c0,0.2-0.1,0.3-0.2,0.4c-0.1,0.1-0.3,0.2-0.5,0.2c-0.2,0-0.4-0.1-0.5-0.2C63.8,9.2,63.7,9.1,63.7,8.9z M63.9,10.1h1.1v4.1h-1.1
				V10.1z"/>
			<path class="st0" d="M66,10.3c0.2-0.1,0.5-0.2,0.8-0.2c0.3-0.1,0.6-0.1,1-0.1c0.3,0,0.5,0,0.7,0.1c0.2,0.1,0.3,0.2,0.5,0.3
				c0.1,0.1,0.2,0.3,0.2,0.5c0,0.2,0.1,0.4,0.1,0.6c0,0.2,0,0.5,0,0.7c0,0.2,0,0.5,0,0.7c0,0.2,0,0.5,0,0.7c0,0.2,0.1,0.4,0.1,0.6
				h-0.9l-0.2-0.6h0c-0.1,0.2-0.3,0.3-0.5,0.4s-0.4,0.2-0.8,0.2c-0.2,0-0.4,0-0.5-0.1c-0.2-0.1-0.3-0.1-0.4-0.2
				c-0.1-0.1-0.2-0.2-0.3-0.4c-0.1-0.1-0.1-0.3-0.1-0.5c0-0.3,0.1-0.5,0.2-0.6c0.1-0.2,0.3-0.3,0.5-0.4c0.2-0.1,0.5-0.2,0.8-0.2
				c0.3,0,0.6-0.1,1,0c0-0.3,0-0.5-0.1-0.7c-0.1-0.1-0.3-0.2-0.6-0.2c-0.2,0-0.4,0-0.7,0.1c-0.2,0-0.4,0.1-0.6,0.2L66,10.3z
				 M67.3,13.4c0.2,0,0.4,0,0.5-0.1c0.1-0.1,0.2-0.2,0.3-0.3v-0.5c-0.2,0-0.3,0-0.5,0c-0.2,0-0.3,0-0.4,0.1c-0.1,0-0.2,0.1-0.3,0.2
				c-0.1,0.1-0.1,0.2-0.1,0.3c0,0.2,0,0.3,0.1,0.4C67,13.4,67.2,13.4,67.3,13.4z"/>
		</g>
	</g>
	<g>
		<path class="st1" d="M13.1,2.8c0,1.6-1.3,2.8-2.8,2.8c-1.6,0-2.8-1.3-2.8-2.8C7.5,1.3,8.8,0,10.3,0C11.9,0,13.1,1.3,13.1,2.8"/>
		<path class="st2" d="M18.8,3c0-0.4-0.3-0.6-0.7-0.6c-0.1,0-0.2,0.1-0.3,0.1c0,0,0,0,0,0c-2.7,2.1-5.2,4.5-7.4,7.1
			c-2.2-2.6-4.7-5-7.4-7.1c0,0,0,0,0,0C2.8,2.5,2.7,2.4,2.6,2.4C2.2,2.4,1.9,2.7,1.9,3c0,0.1,0,0.2,0.1,0.3c0,0,0,0.1,0,0.1
			c1.7,3.3,3.8,6.3,6.2,9.1c0.4,0.4,0.8,0.9,1.2,1.3c0.2,0.3,0.6,0.5,1,0.5c0.4,0,0.8-0.2,1.1-0.5c0.4-0.4,0.8-0.9,1.1-1.3
			c2.4-2.8,4.4-5.9,6.2-9.1c0,0,0-0.1,0-0.1C18.7,3.2,18.8,3.1,18.8,3"/>
		<path class="st3" d="M13.8,14.2c0.5-1.1,1.3-2.4,2.6-3.7c1-1,2.2-1.8,3.4-2.4c0,0,0,0,0,0c0.1,0,0.1,0,0.2,0
			c0.3,0,0.6,0.2,0.6,0.5c0,0.1,0,0.2-0.1,0.3c0,0,0,0,0,0c-0.5,0.9-1.3,2.2-2.5,3.4c-1.1,1.1-2.3,2-3.5,2.7
			C14.5,15,14.4,15,14.2,15c-0.2,0-0.4-0.2-0.4-0.5C13.8,14.4,13.7,14.4,13.8,14.2 M6.8,14.2c-0.5-1.1-1.3-2.4-2.6-3.7
			c-1-1-2.2-1.8-3.4-2.4c0,0,0,0,0,0c-0.1,0-0.1,0-0.2,0C0.3,8,0,8.2,0,8.5c0,0.1,0,0.2,0.1,0.3c0,0,0,0,0,0
			c0.5,0.9,1.3,2.2,2.5,3.4c1.1,1.1,2.3,2,3.5,2.7C6.1,15,6.3,15,6.4,15c0.2,0,0.4-0.2,0.4-0.5C6.9,14.4,6.9,14.4,6.8,14.2"/>
	</g>
</g>
</svg>
