<?xml version="1.0" encoding="utf-8"?>
<!-- Generator: Adobe Illustrator 27.0.0, SVG Export Plug-In . SVG Version: 6.00 Build 0)  -->
<svg version="1.1" id="Capa_1" xmlns="http://www.w3.org/2000/svg" xmlns:xlink="http://www.w3.org/1999/xlink" x="0px" y="0px"
	 viewBox="0 0 40 15" style="enable-background:new 0 0 40 15;" xml:space="preserve">
<style type="text/css">
	.st0{fill:#044E8A;}
	.st1{clip-path:url(#SVGID_00000039840673090043836770000011428501106361965491_);fill:#FFFFFF;}
	.st2{clip-path:url(#SVGID_00000039840673090043836770000011428501106361965491_);fill:#F8B215;}
	
		.st3{clip-path:url(#SVGID_00000039840673090043836770000011428501106361965491_);fill:none;stroke:#FFFFFF;stroke-width:0.108;stroke-miterlimit:10;}
	.st4{clip-path:url(#SVGID_00000161607386603609261230000007242354009879771284_);fill:#233770;}
	.st5{clip-path:url(#SVGID_00000159460981269597439800000013310840994527340468_);fill:#FFCD00;}
	.st6{clip-path:url(#SVGID_00000096025112046362873210000008415818552829841556_);fill:#FFCD00;}
</style>
<circle class="st0" cx="32.5" cy="7.5" r="7.5"/>
<g>
	<defs>
		<rect id="SVGID_1_" x="25" width="15" height="15"/>
	</defs>
	<clipPath id="SVGID_00000041268418865793540240000009119922338029654698_">
		<use xlink:href="#SVGID_1_"  style="overflow:visible;"/>
	</clipPath>
	<path style="clip-path:url(#SVGID_00000041268418865793540240000009119922338029654698_);fill:#FFFFFF;" d="M34.5,5.7h-1.8
		c0,0,0,0,0,0c-0.3,0.1-0.8,0.4-0.8,1c0,0.2,0.1,0.6,0.6,0.8h1.3c0.1,0,0.4,0.1,0.4,0.7c0,0.6-0.5,0.7-0.6,0.8h-2
		c-0.1,0-0.1,0.1-0.1,0.1c0,0.1,0.1,0.1,0.1,0.1h2c0,0,0,0,0,0c0.3,0,0.8-0.3,0.8-1c0-0.9-0.6-0.9-0.6-0.9c0,0-1.2,0-1.2,0
		c-0.4-0.1-0.4-0.5-0.4-0.6c0,0,0,0,0,0c0-0.6,0.5-0.7,0.6-0.7h1.8c0.1,0,0.1-0.1,0.1-0.1C34.6,5.7,34.6,5.7,34.5,5.7"/>
	<path style="clip-path:url(#SVGID_00000041268418865793540240000009119922338029654698_);fill:#FFFFFF;" d="M37.2,5.6
		C37.2,5.6,37.2,5.7,37.2,5.6l-1.4,0c-0.6,0-0.9,0.7-0.9,0.7c0,0,0,0,0,0c0,0.1-0.3,1.5-0.3,2c0,0.5,0.5,0.6,0.7,0.6c0,0,0,0,0,0
		h1.8c0.1,0,0.1-0.1,0.1-0.1c0-0.1-0.1-0.1-0.1-0.1h-1.8c-0.1,0-0.5-0.1-0.5-0.4c0-0.2,0-0.5,0.1-0.9l2.6,0c0.1,0,0.1,0,0.1-0.1
		c0,0,0.1-0.7,0.1-1.1C37.8,5.8,37.2,5.6,37.2,5.6 M37.5,7.2l-2.4,0c0.1-0.4,0.2-0.7,0.2-0.8c0-0.1,0.2-0.6,0.7-0.6h1.3
		c0.1,0,0.4,0.1,0.4,0.4C37.6,6.6,37.5,7,37.5,7.2"/>
	<path style="clip-path:url(#SVGID_00000041268418865793540240000009119922338029654698_);fill:#FFFFFF;" d="M31.6,6.3
		c0.1-0.5-0.5-0.7-0.6-0.7h0c-0.5,0-1.2,0-1.2,0c0,0,0,0,0,0c-0.3,0-0.7,0.4-0.8,0.8l0,0c0,0,0,0.1,0,0.2c0,0.1,0,0.3-0.1,0.4
		c-0.1,0.4-0.2,0.9-0.2,1.3c-0.2,1-0.4,1.9-0.4,1.9c0,0.1,0,0.1,0.1,0.1c0,0,0,0,0,0c0.1,0,0.1,0,0.1-0.1c0.1-0.4,0.2-1.1,0.3-1.8
		C29,9,29.4,9,29.4,9c0,0,0,0,0,0l1.1,0c0,0,0,0,0,0c0.5-0.2,0.7-0.7,0.7-0.7c0,0,0,0,0,0L31.6,6.3C31.6,6.3,31.6,6.3,31.6,6.3
		 M31.4,6.3L31,8.2c0,0-0.2,0.5-0.5,0.6l-1.1,0c-0.1,0-0.4-0.1-0.6-0.5c0.2-0.9,0.3-1.7,0.3-1.8c0.1-0.3,0.4-0.6,0.6-0.6
		c0,0,0.1,0,0.2,0c0.1,0,0.3,0,0.4,0c0.3,0,0.5,0,0.6,0C31.1,5.9,31.4,6.1,31.4,6.3"/>
	<path style="clip-path:url(#SVGID_00000041268418865793540240000009119922338029654698_);fill:#F8B215;" d="M26.5,4.9
		c0.2,0,0.3,0.2,0.3,0.3s-0.1,0.3-0.3,0.3c-0.2,0-0.3-0.2-0.3-0.3S26.3,4.9,26.5,4.9"/>
	<path style="clip-path:url(#SVGID_00000041268418865793540240000009119922338029654698_);fill:#F8B215;" d="M26.1,4.2
		c0-0.1-0.1-0.3-0.2-0.3c-0.1,0.2-0.2,0.4-0.3,0.6c0.1,0,0.1,0.1,0.2,0.1C26,4.5,26.1,4.4,26.1,4.2"/>
	<path style="clip-path:url(#SVGID_00000041268418865793540240000009119922338029654698_);fill:#F8B215;" d="M25.5,5.3
		c0-0.1,0-0.2-0.1-0.2c-0.1,0.2-0.1,0.4-0.2,0.6C25.4,5.6,25.5,5.4,25.5,5.3"/>
	<path style="clip-path:url(#SVGID_00000041268418865793540240000009119922338029654698_);fill:#F8B215;" d="M26.5,9
		c0.2,0,0.3,0.2,0.3,0.3s-0.1,0.3-0.3,0.3s-0.3-0.2-0.3-0.3S26.3,9,26.5,9"/>
	<path style="clip-path:url(#SVGID_00000041268418865793540240000009119922338029654698_);fill:#F8B215;" d="M25.4,9.4
		c0-0.1-0.1-0.3-0.2-0.3c0,0.2,0.1,0.3,0.1,0.5C25.4,9.5,25.4,9.4,25.4,9.4"/>
	<path style="clip-path:url(#SVGID_00000041268418865793540240000009119922338029654698_);fill:#F8B215;" d="M26.1,10.5
		c0-0.2-0.1-0.3-0.3-0.3c-0.1,0-0.2,0.1-0.3,0.2c0.1,0.2,0.1,0.3,0.2,0.5c0,0,0,0,0.1,0C26,10.8,26.1,10.6,26.1,10.5"/>
	<path style="clip-path:url(#SVGID_00000041268418865793540240000009119922338029654698_);fill:#F8B215;" d="M26.7,8.3H26
		c0-0.1-0.2-0.2-0.3-0.2c-0.2,0-0.3,0.2-0.3,0.3c0,0.2,0.1,0.3,0.3,0.3c0.1,0,0.3-0.1,0.3-0.2h0.5h0.2h0l0.7-1.2h1V7.2h-1.7L26.1,6
		h0h-0.2h-0.7c0,0.1,0,0.2,0,0.2H26l0.6,1H25c0,0.1,0,0.1,0,0.2h2.2L26.7,8.3z"/>
	
		<path style="clip-path:url(#SVGID_00000041268418865793540240000009119922338029654698_);fill:none;stroke:#FFFFFF;stroke-width:0.108;stroke-miterlimit:10;" d="
		M29.3,4.6h0.3c0,0,0.1,0,0.1,0.1l-0.1,0.4h-0.4c0,0-0.2-0.1-0.1-0.2c0,0,0.1-0.1,0.1-0.1l0.3,0"/>
	
		<path style="clip-path:url(#SVGID_00000041268418865793540240000009119922338029654698_);fill:none;stroke:#FFFFFF;stroke-width:0.108;stroke-miterlimit:10;" d="
		M30.3,4.6H30c0,0-0.1,0.1-0.1,0.2c0,0-0.1,0.2,0,0.4l0,0h0.3"/>
	
		<polyline style="clip-path:url(#SVGID_00000041268418865793540240000009119922338029654698_);fill:none;stroke:#FFFFFF;stroke-width:0.108;stroke-miterlimit:10;" points="
		30.5,4.4 30.4,4.6 30.3,5.3 	"/>
	
		<path style="clip-path:url(#SVGID_00000041268418865793540240000009119922338029654698_);fill:none;stroke:#FFFFFF;stroke-width:0.108;stroke-miterlimit:10;" d="
		M30.4,4.8c0,0,0-0.1,0.1-0.1c0,0,0.3,0,0.3,0c0,0,0.1,0,0,0.1l-0.1,0.5"/>
</g>
<g>
	<g>
		<defs>
			<rect id="SVGID_00000003095528753975136990000005791450332650161330_" width="18.9" height="15"/>
		</defs>
		<clipPath id="SVGID_00000013900635283025142640000005232714556708109205_">
			<use xlink:href="#SVGID_00000003095528753975136990000005791450332650161330_"  style="overflow:visible;"/>
		</clipPath>
		<path style="clip-path:url(#SVGID_00000013900635283025142640000005232714556708109205_);fill:#233770;" d="M4.9,4.8h-1V7h0.5V6.2
			h0.5c0.5,0,0.7-0.3,0.7-0.8C5.6,5.1,5.3,4.8,4.9,4.8 M4.8,5.2c0.2,0,0.3,0.1,0.3,0.3c0,0.1-0.1,0.3-0.3,0.3H4.5V5.2H4.8z M5.9,6.9
			h0.5V6.2h0.2c0.2,0,0.5,0,0.5,0.8h0.5c0-0.5-0.2-0.9-0.5-1c0.3-0.1,0.4-0.3,0.4-0.5c0-0.4-0.3-0.7-0.8-0.7H5.9V6.9z M6.4,5.7V5.2
			h0.4c0.2,0,0.3,0.1,0.3,0.2s0,0.3-0.3,0.3H6.4z M9.5,6.9H10L9.3,4.8H8.5L7.8,6.9h0.5l0.1-0.4h0.9L9.5,6.9z M8.6,6.1l0.3-1l0.3,1
			H8.6z M11.2,7c0.5,0,0.9-0.3,1-0.8h-0.5c-0.1,0.2-0.2,0.3-0.4,0.3c-0.4,0-0.5-0.3-0.5-0.7c0-0.3,0.1-0.7,0.5-0.7
			c0.2,0,0.4,0.1,0.4,0.3h0.5c0-0.4-0.4-0.8-1-0.8c-0.7,0-1.1,0.5-1.1,1.1C10.1,6.4,10.4,7,11.2,7 M12.9,6.9h0.5V5.2H14V4.8h-1.8
			v0.5h0.7V6.9z M14.3,6.9h0.6V4.8h-0.5v2.1H14.3z M5.1,8H4.2v2.2h0.5V9.5h0.4c0.5,0,0.7-0.3,0.7-0.8C5.8,8.4,5.6,8,5.1,8 M5,8.5
			c0.2,0,0.3,0.1,0.3,0.3c0,0.1-0.1,0.3-0.3,0.3H4.7V8.5H5z M7.4,10.2h0.5L7.2,8H6.5l-0.7,2.2h0.5l0.1-0.4h0.9L7.4,10.2z M6.5,9.4
			l0.3-1l0.3,1H6.5z M9,9v0.4h0.6c0,0.2-0.2,0.4-0.5,0.4c-0.5,0-0.6-0.4-0.6-0.7s0.2-0.7,0.6-0.7c0.2,0,0.4,0.1,0.5,0.3h0.5
			c0-0.4-0.4-0.8-1-0.8C8.4,8,8,8.5,8,9.1s0.4,1.2,1.1,1.2c0.3,0,0.6-0.2,0.8-0.5l0.1,0.4h0.2V9H9z M11.6,8c-0.7,0-1.2,0.6-1.2,1.2
			c0,0.6,0.4,1.1,1.2,1.1c0.7,0,1.1-0.5,1.1-1.1C12.7,8.5,12.3,8,11.6,8 M11.6,8.5c0.4,0,0.6,0.4,0.6,0.7S12,9.8,11.6,9.8
			c-0.4,0-0.6-0.4-0.6-0.6C11,8.9,11.2,8.5,11.6,8.5 M13.9,10.3c0.5,0,0.8-0.3,0.8-0.7S14.3,9,14,8.9c-0.2-0.1-0.5-0.1-0.5-0.3
			c0-0.1,0.1-0.2,0.3-0.2s0.4,0.2,0.4,0.3h0.5c0-0.4-0.3-0.8-0.9-0.8c-0.4,0-0.8,0.2-0.8,0.7c0,0.3,0.2,0.5,0.7,0.7
			c0.2,0.1,0.5,0.1,0.5,0.3c0,0.1-0.1,0.2-0.3,0.2s-0.4-0.1-0.4-0.3H13C12.9,9.9,13.2,10.3,13.9,10.3"/>
	</g>
	<g>
		<defs>
			<rect id="SVGID_00000062154263551379204130000007292439025298400674_" width="18.9" height="15"/>
		</defs>
		<clipPath id="SVGID_00000052067760988310222300000014410462023982490774_">
			<use xlink:href="#SVGID_00000062154263551379204130000007292439025298400674_"  style="overflow:visible;"/>
		</clipPath>
		<path style="clip-path:url(#SVGID_00000052067760988310222300000014410462023982490774_);fill:#FFCD00;" d="M10.1,12.9l-1.7-1.1
			l-0.2-0.1l-1.5-0.9v1H6.3c-0.2,0-0.5,0-0.7,0l-0.7-0.1c-0.2,0-0.4-0.1-0.7-0.1l-0.3-0.1c-0.1,0-0.2-0.1-0.3-0.1
			c-0.2-0.1-0.4-0.1-0.6-0.2c-0.9-0.4-1.6-0.9-2.1-1.4c-0.6-0.6-0.6-1.3-0.8-2c-0.1,0.8-0.3,1.5,0,2.3c0.4,0.8,1,1.5,1.8,2.1
			c0.2,0.2,0.4,0.3,0.7,0.4c0.1,0.1,0.2,0.1,0.3,0.2L3.3,13c0.3,0.1,0.5,0.2,0.8,0.3l0.8,0.2c0.3,0.1,0.6,0.2,0.8,0.2l0.9,0.2l0,0
			V15L10.1,12.9z"/>
	</g>
	<g>
		<defs>
			<rect id="SVGID_00000138571366044909890550000007924731970480390788_" width="18.9" height="15"/>
		</defs>
		<clipPath id="SVGID_00000146480804878434587110000004196086149513811866_">
			<use xlink:href="#SVGID_00000138571366044909890550000007924731970480390788_"  style="overflow:visible;"/>
		</clipPath>
		<path style="clip-path:url(#SVGID_00000146480804878434587110000004196086149513811866_);fill:#FFCD00;" d="M8.7,2.1l1.7,1.1
			l0.2,0.1l1.5,0.9v-1h0.4c0.2,0,0.5,0,0.7,0l0.7,0.1c0.2,0,0.4,0.1,0.7,0.1l0.3,0.1c0.1,0,0.2,0.1,0.3,0.1c0.2,0.1,0.4,0.1,0.6,0.2
			c0.8,0.3,1.5,0.8,2.1,1.4c0.6,0.6,0.6,1.3,0.8,2c0.1-0.8,0.3-1.5,0-2.3c-0.4-0.8-1-1.5-1.8-2.1c-0.2-0.2-0.4-0.3-0.7-0.4
			c-0.1-0.1-0.2-0.1-0.3-0.2L15.5,2c-0.3-0.1-0.5-0.2-0.8-0.3l-0.8-0.2c-0.3-0.1-0.6-0.2-0.8-0.2l-0.9-0.2l0,0V0L8.7,2.1z"/>
	</g>
</g>
</svg>
