<?xml version="1.0" encoding="utf-8"?>
<!-- Generator: Adobe Illustrator 27.0.1, SVG Export Plug-In . SVG Version: 6.00 Build 0)  -->
<svg version="1.1" id="Capa_1" xmlns="http://www.w3.org/2000/svg" xmlns:xlink="http://www.w3.org/1999/xlink" x="0px" y="0px"
	 viewBox="0 0 150 80" style="enable-background:new 0 0 150 80;" xml:space="preserve">
<style type="text/css">
	.st0{clip-path:url(#SVGID_00000137130386074789748180000010632279537515541931_);fill:#0E4595;}
	.st1{clip-path:url(#SVGID_00000137130386074789748180000010632279537515541931_);}
	.st2{clip-path:url(#SVGID_00000011017369876300824170000013663334125212913831_);fill:#0E4595;}
</style>
<g id="visa_00000058568502402604564770000012342042799394722196_">
	<g>
		<defs>
			<rect id="SVGID_1_" x="17.9" y="22.5" width="114.2" height="35"/>
		</defs>
		<clipPath id="SVGID_00000058549200924445917130000017684034891547861173_">
			<use xlink:href="#SVGID_1_"  style="overflow:visible;"/>
		</clipPath>
		<polygon style="clip-path:url(#SVGID_00000058549200924445917130000017684034891547861173_);fill:#0E4595;" points="64,23.2 
			58.2,57.1 67.5,57.1 73.3,23.2 		"/>
		<g style="clip-path:url(#SVGID_00000058549200924445917130000017684034891547861173_);">
			<defs>
				<rect id="SVGID_00000077320585862901778530000017337940683950770615_" x="17.9" y="22.5" width="114.2" height="35"/>
			</defs>
			<clipPath id="SVGID_00000109004844509442718270000009966285860173746069_">
				<use xlink:href="#SVGID_00000077320585862901778530000017337940683950770615_"  style="overflow:visible;"/>
			</clipPath>
			<path style="clip-path:url(#SVGID_00000109004844509442718270000009966285860173746069_);fill:#0E4595;" d="M100.9,23.9
				c-1.8-0.7-4.7-1.4-8.3-1.4c-9.1,0-15.6,4.6-15.6,11.2c-0.1,4.9,4.6,7.6,8.1,9.2c3.6,1.7,4.8,2.7,4.8,4.2c0,2.3-2.9,3.3-5.5,3.3
				c-3.7,0-5.7-0.5-8.7-1.8l-1.2-0.5l-1.3,7.6c2.2,0.9,6.2,1.8,10.3,1.8c9.7,0,16-4.5,16.1-11.6c0-3.9-2.4-6.8-7.8-9.2
				c-3.2-1.6-5.2-2.6-5.2-4.2c0-1.4,1.7-2.9,5.3-2.9c3,0,5.2,0.6,6.9,1.3l0.8,0.4L100.9,23.9z"/>
			<path style="clip-path:url(#SVGID_00000109004844509442718270000009966285860173746069_);fill:#0E4595;" d="M124.6,23.2h-7.1
				c-2.2,0-3.9,0.6-4.8,2.8L98.9,57.1h9.7c0,0,1.6-4.2,1.9-5.1c1.1,0,10.5,0,11.8,0c0.3,1.2,1.1,5.1,1.1,5.1h8.6L124.6,23.2z
				 M113.3,45.1c0.8-2,3.7-9.5,3.7-9.5c-0.1,0.1,0.8-2,1.2-3.2l0.6,2.9c0,0,1.8,8.1,2.1,9.8L113.3,45.1L113.3,45.1z"/>
			<path style="clip-path:url(#SVGID_00000109004844509442718270000009966285860173746069_);fill:#0E4595;" d="M18,23.2l-0.1,0.7
				c3.7,0.9,6.9,2.2,9.8,3.8L35.9,57l9.8,0l14.6-33.8h-9.8l-9,23.1l-1-4.7c0-0.1-0.1-0.3-0.1-0.4l-3.1-15.1
				c-0.6-2.1-2.2-2.8-4.2-2.9H18z"/>
		</g>
	</g>
</g>
</svg>
