<?xml version="1.0" encoding="utf-8"?>
<!-- Generator: Adobe Illustrator 24.1.1, SVG Export Plug-In . SVG Version: 6.00 Build 0)  -->
<svg version="1.1" id="Capa_1" xmlns="http://www.w3.org/2000/svg" xmlns:xlink="http://www.w3.org/1999/xlink" x="0px" y="0px"
	 viewBox="0 0 132 66" style="enable-background:new 0 0 132 66;" xml:space="preserve">
<style type="text/css">
	.st0{fill:#E4E4E4;}
	.st1{fill:#122D80;}
</style>
<path class="st0" d="M108.8,0H0.9v51.1h130.1V22.3C131.1,10,121.1,0,108.8,0z"/>
<path class="st1" d="M21.8,4H4.9v43h16.9V4z"/>
<path class="st1" d="M75.2,34.9c0,6.8-4.8,12.1-18.8,12.1H28.6V4h29C71,4,74.3,10.2,74.3,15.7c0,5.1-2.7,6.9-5.3,8.5v0.9
	C72.8,27.4,75.2,30.2,75.2,34.9z M45.4,16.8v4.4h10.2c2.4,0,2.6-1.7,2.6-2.2c0-0.7-0.2-2.3-2.6-2.3H45.4z M58.2,32
	c0-0.4-0.1-2.2-2.5-2.2H45.4v4.5h10.4C58.1,34.3,58.2,32.4,58.2,32z"/>
<path class="st1" d="M126.4,47.1H118l-0.3-4.9h-0.3c-3.1,3.7-8.3,6.4-15.6,6.4c-13.3,0-23.6-9-23.6-23c0-14,9.6-23,25.2-23
	c10.8,0,21.8,5.3,23.1,17.4h-16.7c-0.4-1-2.5-2.9-6-2.9c-5.3,0-8.8,3.1-8.8,8.5c0,5.3,3.7,8.5,8.2,8.5c0.8,0,5.5,0.2,7-3.7h-6.4
	c-0.6,0-1-0.4-1-1v-6.7h23.6V47.1z"/>
<path class="st0" d="M3.8,58.3H1.1v7.5h2.7V58.3z"/>
<path class="st0" d="M4.3,58.3h2.8l1.7,5H9l1.7-5h2.8l-2.7,7.5H7L4.3,58.3z"/>
<path class="st0" d="M18.1,64.9h-3l-0.3,0.9H12l2.7-7.5h3.8l2.7,7.5h-2.8L18.1,64.9z M17.7,57.8h-2.4l0.7-1.6h2.4L17.7,57.8z
	 M17.4,62.9l-0.7-2.1h-0.5l-0.7,2.1H17.4z"/>
<path class="st0" d="M21.7,58.3h3.1l2.2,3.7h0.3v-3.7h2.6v7.5h-3L24.6,62h-0.2v3.7h-2.6V58.3z"/>
<path class="st0" d="M41.1,63.6c0,1.2-0.8,2.1-3.2,2.1h-4.7v-7.5H38c2.3,0,2.9,1,2.9,2c0,0.9-0.4,1.2-0.9,1.5v0.2
	C40.6,62.3,41.1,62.8,41.1,63.6z M35.9,60.3v0.9h1.8c0.5,0,0.6-0.3,0.6-0.5c0-0.2-0.1-0.5-0.6-0.5H35.9z M38.3,63.2
	c0-0.2-0.1-0.5-0.6-0.5h-1.9v1h1.9C38.2,63.7,38.3,63.3,38.3,63.2z"/>
<path class="st0" d="M41.6,62c0-2.4,1.7-4,4.3-4c2.6,0,4.3,1.6,4.3,4c0,2.4-1.7,4-4.3,4C43.2,66,41.6,64.4,41.6,62z M47.4,62
	c0-1.1-0.7-1.7-1.6-1.7c-0.9,0-1.6,0.6-1.6,1.7c0,1.1,0.7,1.7,1.6,1.7C46.7,63.7,47.4,63.1,47.4,62z"/>
<path class="st0" d="M58.4,60.5h-2.7v5.2h-2.7v-5.2h-2.7v-2.3h8V60.5z"/>
<path class="st0" d="M59.2,58.3h6.9v2.2h-4.2v0.7h4v1.7h-4v0.7h4.2v2.2h-6.9V58.3z"/>
<path class="st0" d="M72.2,65.7l-0.9-1.8h-1.7v1.8h-2.7v-7.5h4.4c2.1,0,3.3,0.9,3.3,2.9c0,1-0.4,1.7-1,2.1l1.3,2.4H72.2z M69.5,61.9
	h1.5c0.5,0,0.8-0.3,0.8-0.7c0-0.4-0.3-0.7-0.8-0.7h-1.5V61.9z"/>
<path class="st0" d="M75.2,62c0-2.4,1.7-4,4.3-4c2.6,0,4.3,1.6,4.3,4c0,2.4-1.7,4-4.3,4C76.8,66,75.2,64.4,75.2,62z M81,62
	c0-1.1-0.7-1.7-1.6-1.7c-0.9,0-1.6,0.6-1.6,1.7c0,1.1,0.7,1.7,1.6,1.7C80.3,63.7,81,63.1,81,62z"/>
<path class="st0" d="M95.1,65.7h-1.4l0-0.9h0c-0.5,0.7-1.4,1.2-2.7,1.2c-2.3,0-4.1-1.6-4.1-4c0-2.4,1.7-4,4.3-4c1.8,0,3.7,0.9,4,2.9
	h-2.7c-0.1-0.3-0.5-0.6-1.2-0.6c-1,0-1.7,0.6-1.7,1.7c0,1,0.7,1.7,1.6,1.7c0.3,0,1.1,0,1.4-0.8H91v-1.3h4.1L95.1,65.7L95.1,65.7z"/>
<path class="st0" d="M95.8,62c0-2.4,1.7-4,4.3-4c2.6,0,4.3,1.6,4.3,4c0,2.4-1.7,4-4.3,4C97.5,66,95.8,64.4,95.8,62z M101.7,62
	c0-1.1-0.7-1.7-1.6-1.7c-0.9,0-1.6,0.6-1.6,1.7c0,1.1,0.7,1.7,1.6,1.7C101,63.7,101.7,63.1,101.7,62z M99.5,56.2h2.4l-0.7,1.6h-2.4
	L99.5,56.2z"/>
<path class="st0" d="M105.1,58.3h3.4l1,3.9h0.2l1-3.9h3.4v7.5h-2.6v-2.9h-0.2l-0.7,2.9h-2l-0.7-2.9h-0.2v2.9h-2.6V58.3z"/>
<path class="st0" d="M114.8,58.3h6.9v2.2h-4.2v0.7h4v1.7h-4v0.7h4.2v2.2h-6.9V58.3z"/>
<path class="st0" d="M122.4,63.6l3.6-2.9v-0.2h-3.6v-2.3h7.1v2.2l-3.7,2.9v0.2h3.7v2.2h-7.1V63.6z"/>
</svg>
