<?xml version="1.0" encoding="utf-8"?>
<!-- Generator: Adobe Illustrator 26.4.1, SVG Export Plug-In . SVG Version: 6.00 Build 0)  -->
<svg version="1.1" id="Capa_1" xmlns="http://www.w3.org/2000/svg" xmlns:xlink="http://www.w3.org/1999/xlink" x="0px" y="0px"
	 viewBox="0 0 200 200" style="enable-background:new 0 0 200 200;" xml:space="preserve">
<style type="text/css">
	.st0{clip-path:url(#SVGID_00000115475296599091999020000018101470524673054346_);}
	.st1{clip-path:url(#SVGID_00000092442510120778139020000000470185161032931749_);}
	.st2{fill:#FFFFFF;}
	.st3{fill:#084790;}
	.st4{clip-path:url(#SVGID_00000160906703270966185070000010756431956477666707_);}
	.st5{clip-path:url(#SVGID_00000103247195694112027620000004094799668585294501_);}
	.st6{fill-rule:evenodd;clip-rule:evenodd;fill:#FFFFFF;}
	.st7{fill-rule:evenodd;clip-rule:evenodd;fill:#084790;}
</style>
<g>
	<g id="Ilustración_34">
		<g>
			<defs>
				<rect id="SVGID_1_" x="27.7" y="27.7" width="60.5" height="144.7"/>
			</defs>
			<clipPath id="SVGID_00000034774854485902892760000014568260404684582565_">
				<use xlink:href="#SVGID_1_"  style="overflow:visible;"/>
			</clipPath>
			<g style="clip-path:url(#SVGID_00000034774854485902892760000014568260404684582565_);">
				<g>
					<defs>
						<rect id="SVGID_00000072278939801854917580000015879138819650644623_" x="27.7" y="27.7" width="60.5" height="144.7"/>
					</defs>
					<clipPath id="SVGID_00000048462138093488781750000015777670126389258132_">
						<use xlink:href="#SVGID_00000072278939801854917580000015879138819650644623_"  style="overflow:visible;"/>
					</clipPath>
					<g style="clip-path:url(#SVGID_00000048462138093488781750000015777670126389258132_);">
						<path class="st2" d="M38.3,115.1c-5.5,0-9.9-4.5-9.9-9.9V38.3c0-5.5,4.5-9.9,9.9-9.9h39.2c5.5,0,9.9,4.5,9.9,9.9v66.8
							c0,5.5-4.5,9.9-9.9,9.9L38.3,115.1L38.3,115.1z M31.2,105.1c0,3.9,3.2,7.1,7.1,7.1h39.2c3.9,0,7.1-3.2,7.1-7.1V82.2
							c-8.1,4.8-17.3,7.3-26.7,7.3S39.2,87,31.2,82.2V105.1L31.2,105.1z"/>
						<path class="st3" d="M77.5,29.1c5.1,0,9.2,4.1,9.2,9.2v66.8c0,5.1-4.1,9.2-9.2,9.2H38.3c-5.1,0-9.2-4.1-9.2-9.2V38.3
							c0-5.1,4.1-9.2,9.2-9.2H77.5z M38.3,113h39.2c4.3,0,7.8-3.5,7.8-7.8V81c-8,5-17.3,7.8-27.4,7.8S38.4,85.9,30.5,81v24.2
							C30.5,109.4,34,113,38.3,113 M77.5,27.7H38.3c-5.9,0-10.6,4.8-10.6,10.6v66.8c0,5.9,4.8,10.6,10.6,10.6h39.2
							c5.9,0,10.6-4.8,10.6-10.6V38.3C88.1,32.4,83.3,27.7,77.5,27.7 M38.3,111.6c-3.6,0-6.4-2.9-6.4-6.4V83.4
							c7.9,4.5,16.9,6.8,26.1,6.8s18.1-2.3,26-6.8v21.7c0,3.6-2.9,6.4-6.4,6.4H38.3z"/>
						<path class="st3" d="M85.3,81v24.1c0,4.3-3.5,7.8-7.8,7.8H38.3c-4.3,0-7.8-3.5-7.8-7.8V81c8,5,17.4,7.9,27.5,7.9
							S77.4,86,85.3,81"/>
						<rect x="40" y="96.3" class="st2" width="1.3" height="6.6"/>
						<path class="st2" d="M42.5,102.5l0.3-1c0.2,0.1,0.5,0.2,0.8,0.3c0.3,0.1,0.6,0.1,0.8,0.1c0.4,0,0.7-0.1,0.9-0.2
							c0.2-0.1,0.3-0.3,0.3-0.5c0-0.2-0.1-0.3-0.2-0.4s-0.4-0.3-0.7-0.5l-0.3-0.2c-0.4-0.3-0.8-0.5-1-0.7c-0.3-0.2-0.5-0.4-0.7-0.7
							s-0.3-0.5-0.3-0.9c0-0.3,0.1-0.6,0.3-0.9c0.2-0.3,0.4-0.5,0.8-0.6c0.3-0.2,0.7-0.2,1.2-0.2c0.6,0,1.2,0.2,1.9,0.5l-0.4,1
							c-0.3-0.1-0.5-0.2-0.7-0.3c-0.2-0.1-0.5-0.1-0.7-0.1c-0.3,0-0.5,0.1-0.7,0.2c-0.2,0.1-0.3,0.3-0.3,0.5c0,0.2,0.1,0.3,0.2,0.5
							c0.1,0.1,0.4,0.3,0.7,0.5l0.3,0.2l0.3,0.2c0.4,0.2,0.7,0.4,0.9,0.6s0.4,0.4,0.6,0.6c0.1,0.2,0.2,0.5,0.2,0.8
							c0,0.4-0.1,0.7-0.3,0.9c-0.2,0.3-0.5,0.5-0.8,0.6c-0.4,0.2-0.8,0.2-1.3,0.2c-0.3,0-0.6-0.1-1-0.2S42.7,102.6,42.5,102.5"/>
						<path class="st2" d="M50.7,96.1c0.7,0,1.2,0.1,1.7,0.5c0.5,0.3,0.9,0.7,1.1,1.2c0.3,0.5,0.4,1.1,0.4,1.7
							c0,0.7-0.1,1.3-0.4,1.8c-0.3,0.5-0.7,0.9-1.1,1.2c-0.5,0.3-1.1,0.4-1.7,0.5c-0.7,0-1.2-0.1-1.7-0.5c-0.5-0.3-0.9-0.7-1.1-1.2
							c-0.3-0.5-0.4-1.1-0.4-1.7c0-0.6,0.1-1.3,0.4-1.8s0.6-0.9,1.1-1.2C49.5,96.3,50.1,96.2,50.7,96.1 M48.8,99.6
							c0,0.5,0.1,0.9,0.2,1.2c0.2,0.4,0.4,0.6,0.7,0.8c0.3,0.2,0.6,0.3,1,0.3c0.4,0,0.7-0.1,1-0.3s0.5-0.4,0.7-0.8
							c0.2-0.4,0.3-0.8,0.3-1.3c0-0.5-0.1-0.9-0.2-1.2s-0.4-0.6-0.7-0.8c-0.3-0.2-0.6-0.3-1-0.3c-0.3,0-0.7,0.1-1,0.3
							s-0.5,0.5-0.7,0.8C48.9,98.7,48.8,99.1,48.8,99.6"/>
						<path class="st2" d="M60.1,97.6c0.4,0.2,0.7,0.5,0.9,0.9c0.2,0.4,0.3,0.9,0.3,1.4c0,0.7-0.2,1.3-0.6,1.9
							c-0.4,0.5-0.9,1-1.5,1.3c-0.6,0.3-1.2,0.5-1.7,0.6l-0.2-1c1.2-0.3,2-0.8,2.4-1.4c-0.3,0.1-0.6,0.2-1,0.2
							c-0.4,0-0.8-0.1-1.1-0.3c-0.3-0.2-0.6-0.4-0.8-0.7c-0.2-0.3-0.3-0.6-0.3-1c0-0.4,0.1-0.7,0.3-1c0.2-0.3,0.4-0.5,0.7-0.7
							s0.7-0.3,1.1-0.3C59.3,97.3,59.8,97.4,60.1,97.6 M58.2,100c0.2,0.2,0.4,0.3,0.7,0.3c0.5,0,0.9-0.1,1.3-0.4
							c0-0.5-0.1-0.9-0.4-1.2c-0.2-0.3-0.5-0.4-0.9-0.4c-0.3,0-0.5,0.1-0.7,0.3c-0.2,0.2-0.3,0.4-0.3,0.7
							C57.9,99.6,58,99.8,58.2,100"/>
						<path class="st2" d="M61.8,100.1c0-0.5,0.1-1,0.3-1.5c0.2-0.4,0.6-0.8,1-1c0.4-0.2,0.9-0.4,1.4-0.4s1,0.1,1.4,0.4
							c0.4,0.2,0.7,0.6,1,1c0.2,0.4,0.3,0.9,0.3,1.5s-0.1,1.1-0.4,1.5c-0.2,0.4-0.6,0.8-1,1c-0.4,0.3-0.9,0.4-1.4,0.4
							c-0.5,0-1-0.1-1.4-0.4s-0.7-0.6-1-1C61.9,101.2,61.8,100.7,61.8,100.1 M63,100.1c0,0.3,0.1,0.7,0.2,0.9
							c0.1,0.3,0.3,0.5,0.6,0.7s0.5,0.2,0.8,0.2s0.6-0.1,0.8-0.2c0.2-0.2,0.4-0.4,0.6-0.6c0.1-0.3,0.2-0.6,0.2-0.9
							c0-0.3-0.1-0.7-0.2-0.9c-0.1-0.3-0.3-0.5-0.6-0.6c-0.2-0.2-0.5-0.2-0.8-0.2s-0.6,0.1-0.8,0.2c-0.2,0.1-0.4,0.4-0.6,0.6
							C63,99.5,63,99.8,63,100.1"/>
						<path class="st2" d="M67.7,100.1c0-0.5,0.1-1,0.3-1.5c0.2-0.4,0.6-0.8,1-1c0.4-0.2,0.9-0.4,1.4-0.4c0.5,0,1,0.1,1.4,0.4
							c0.4,0.2,0.7,0.6,1,1s0.3,0.9,0.3,1.5s-0.1,1.1-0.4,1.5c-0.2,0.4-0.6,0.8-1,1c-0.4,0.3-0.9,0.4-1.4,0.4c-0.5,0-1-0.1-1.4-0.4
							s-0.7-0.6-1-1C67.8,101.2,67.7,100.7,67.7,100.1 M68.9,100.1c0,0.3,0.1,0.7,0.2,0.9c0.1,0.3,0.3,0.5,0.6,0.7
							c0.2,0.2,0.5,0.2,0.8,0.2c0.3,0,0.6-0.1,0.8-0.2c0.2-0.2,0.4-0.4,0.6-0.6c0.1-0.3,0.2-0.6,0.2-0.9c0-0.3-0.1-0.7-0.2-0.9
							c-0.1-0.3-0.3-0.5-0.6-0.6c-0.2-0.2-0.5-0.2-0.8-0.2s-0.6,0.1-0.8,0.2c-0.2,0.2-0.4,0.4-0.6,0.6
							C68.9,99.5,68.9,99.8,68.9,100.1"/>
						<polygon class="st2" points="75,102.9 75,98.8 73.9,99.2 73.5,98.3 75.5,97.4 76.3,97.4 76.3,102.9 						"/>
						<path class="st3" d="M57.9,55c-2.5,0-4.5-2-4.4-4.5c0-2.5,2-4.5,4.5-4.4c2.5,0,4.5,2,4.4,4.5C62.3,53,60.3,55,57.9,55
							 M57.9,47.7c-1.5,0-2.8,1.3-2.8,2.8c0,1.5,1.3,2.8,2.8,2.8c1.5,0,2.8-1.3,2.8-2.8C60.7,49,59.4,47.7,57.9,47.7"/>
						<path class="st3" d="M49.7,57.5c-1.6-1.9-2.6-4.3-2.6-7c0-2.1,0.6-4.1,1.7-5.8l-1.3-1c-1.3,2-2,4.3-2,6.8c0,3.1,1.2,6,3.1,8.2
							C48.6,58.7,49.7,57.5,49.7,57.5z"/>
						<path class="st3" d="M48.6,42.3l1.2,1.2c0.4-0.4,0.7-0.8,1.2-1.2l-1.2-1.2C49.3,41.5,48.9,41.9,48.6,42.3"/>
						<path class="st3" d="M57.9,38.1c-2.5,0-4.9,0.8-6.8,2l1,1.3c1.7-1.1,3.7-1.7,5.8-1.7c2.8,0,5.4,1.1,7.4,3l1.4-0.9
							C64.5,39.4,61.3,38.1,57.9,38.1"/>
						<path class="st3" d="M62.9,55.1c-1.2,1.3-3,2.2-5,2.2c-3.7,0-6.8-3-6.8-6.8c0-3.7,3-6.8,6.8-6.8c1.4,0,2.7,0.4,3.8,1.2
							l1.5-0.9c-1.5-1.2-3.4-1.9-5.3-1.9c-4.6,0-8.4,3.8-8.4,8.4s3.8,8.4,8.4,8.4c2.5,0,4.8-1.1,6.3-2.8L62.9,55.1z"/>
						<path class="st3" d="M63.9,59.5c-1.7,1.2-3.8,1.8-6,1.8c-2.7,0-5.1-1-7-2.6l-1.2,1.2c2.2,1.9,5.1,3.1,8.2,3.1
							c2.6,0,5-0.8,7-2.2L63.9,59.5z"/>
						<path class="st3" d="M67.9,43.1l-4.8,3c0,0,1.6,1.9,1.6,4.5c0,1.2-0.3,2.3-0.8,3.3l1.3,1c0.7-1.2,1.2-2.7,1.2-4.2
							c0-1.4-0.3-2.8-1-4l2-1.2c0.9,1.6,1.3,3.4,1.3,5.2c0,3.1-1.4,6-3.5,7.9l1,1.3c2.5-2.3,4.1-5.6,4.1-9.2
							C70.4,46.1,67.9,43,67.9,43.1"/>
						<path class="st3" d="M49.1,69.1c-1.9,0-3.5,1.6-3.5,3.5c0,1.9,1.6,3.5,3.5,3.5c1.9,0,3.5-1.6,3.5-3.5
							C52.5,70.7,51,69.1,49.1,69.1 M49.1,74.7c-1.1,0-2.1-0.9-2.1-2.1c0-1.1,0.9-2,2.1-2c1.1,0,2.1,0.9,2.1,2.1
							C51.1,73.7,50.2,74.7,49.1,74.7"/>
						<path class="st3" d="M37.4,75.9h-1.5v-5.9h1.5L37.4,75.9L37.4,75.9z M36.6,69.2c-0.5,0-0.9-0.4-0.9-0.9c0-0.5,0.4-0.9,0.9-0.9
							s0.9,0.4,0.9,0.9C37.5,68.8,37.1,69.2,36.6,69.2"/>
						<path class="st3" d="M57.2,69.1c-1.9,0-3.5,1.6-3.5,3.5v3.3h1.5v-3.4c0-1.1,0.9-1.9,2-1.9c1.1,0,1.9,0.9,1.9,1.9v3.5h1.5v-3.3
							C60.7,70.7,59.1,69.1,57.2,69.1"/>
						<path class="st3" d="M65.4,74.8L65.4,74.8c0,0-0.2,0-0.3,0c-0.6,0-0.9-0.2-0.9-1v-3.4h1.3v-1.1h-1.3v-1.3h-1.5v1.3h-0.9v1.1
							h0.9v3.2c0,0.5,0,1.1,0.3,1.7c0.3,0.6,0.9,0.9,1.7,0.9c0.4,0,0.8-0.1,0.8-0.1L65.4,74.8L65.4,74.8z"/>
						<path class="st3" d="M42.2,76.1c-1.9,0-3.5-1.6-3.5-3.5s1.6-3.5,3.5-3.5c1.6,0,2.5,1.1,2.5,1.1l-0.9,1.2c0,0-0.6-0.8-1.6-0.8
							c-1.1,0-2,0.9-2,2c0,1.1,0.9,2,2,2c1.1,0,1.6-0.8,1.6-0.8l0.9,1.2C44.8,75,43.9,76.1,42.2,76.1"/>
						<path class="st3" d="M77.5,76.1c-1.9,0-3.5-1.6-3.5-3.5s1.6-3.5,3.5-3.5c1.6,0,2.6,1.1,2.6,1.1l-0.9,1.2c0,0-0.6-0.8-1.6-0.8
							c-1.1,0-2,0.9-2,2c0,1.1,0.9,2,2,2c1.1,0,1.6-0.8,1.6-0.8l0.9,1.2C80.1,75,79.2,76.1,77.5,76.1"/>
						<path class="st3" d="M69.7,69.1c-2,0-3.3,1.7-3.3,3.5c0,2,1.4,3.5,3.5,3.5c2.1,0,2.9-1.5,2.9-1.5l-1.1-0.8c0,0-0.5,1-1.8,1
							c-1.1,0-1.9-0.7-2-1.7h5c0,0,0-0.3,0-0.4C72.9,71.1,72.2,69.1,69.7,69.1 M68,71.9c0.1-0.9,0.8-1.5,1.7-1.5
							c0.9,0,1.6,0.6,1.7,1.5H68z"/>
						<path class="st3" d="M34.7,123.6l0.7,0.2c-0.2,0.6-0.4,1.1-0.8,1.4c-0.4,0.3-0.9,0.5-1.5,0.5c-0.6,0-1.1-0.1-1.5-0.4
							c-0.4-0.2-0.7-0.6-0.9-1.1c-0.2-0.5-0.3-1-0.3-1.5c0-0.6,0.1-1.1,0.3-1.5c0.2-0.4,0.5-0.8,0.9-1c0.4-0.2,0.9-0.3,1.3-0.3
							c0.6,0,1,0.1,1.4,0.4c0.4,0.3,0.6,0.7,0.8,1.2l-0.7,0.2c-0.1-0.4-0.3-0.7-0.6-0.9c-0.2-0.2-0.6-0.3-0.9-0.3
							c-0.4,0-0.8,0.1-1.1,0.3c-0.3,0.2-0.5,0.5-0.6,0.8c-0.1,0.3-0.2,0.7-0.2,1.1c0,0.5,0.1,0.9,0.2,1.2s0.4,0.6,0.6,0.8
							c0.3,0.2,0.6,0.3,0.9,0.3c0.4,0,0.8-0.1,1-0.4C34.4,124.4,34.6,124.1,34.7,123.6"/>
						<path class="st3" d="M36,123.8l0.7-0.1c0,0.3,0.1,0.5,0.2,0.7c0.1,0.2,0.3,0.3,0.6,0.4c0.3,0.1,0.5,0.2,0.9,0.2
							c0.3,0,0.5,0,0.7-0.1c0.2-0.1,0.4-0.2,0.5-0.3c0.1-0.1,0.2-0.3,0.2-0.5c0-0.2-0.1-0.3-0.1-0.5c-0.1-0.1-0.3-0.2-0.5-0.3
							c-0.1-0.1-0.5-0.1-1-0.3c-0.5-0.1-0.9-0.2-1.1-0.3c-0.3-0.1-0.5-0.3-0.6-0.5c-0.1-0.2-0.2-0.4-0.2-0.7c0-0.3,0.1-0.5,0.2-0.8
							c0.2-0.2,0.4-0.4,0.7-0.6c0.3-0.1,0.6-0.2,1-0.2c0.4,0,0.8,0.1,1.1,0.2c0.3,0.1,0.6,0.3,0.7,0.6c0.2,0.3,0.3,0.5,0.3,0.9
							l-0.7,0.1c0-0.4-0.2-0.6-0.4-0.8s-0.5-0.3-1-0.3s-0.8,0.1-1,0.2c-0.2,0.2-0.3,0.4-0.3,0.6c0,0.2,0.1,0.4,0.2,0.5
							c0.1,0.1,0.5,0.3,1.1,0.4c0.6,0.1,1,0.3,1.2,0.4c0.3,0.1,0.6,0.3,0.7,0.6c0.2,0.2,0.2,0.5,0.2,0.8s-0.1,0.6-0.3,0.8
							s-0.4,0.5-0.7,0.6s-0.7,0.2-1.1,0.2c-0.5,0-0.9-0.1-1.3-0.2c-0.3-0.1-0.6-0.4-0.8-0.7S36.1,124.1,36,123.8"/>
						<rect x="41.1" y="123.2" class="st3" width="2.1" height="0.7"/>
						<path class="st3" d="M48,123.6l0.7,0.2c-0.2,0.6-0.4,1.1-0.8,1.4c-0.4,0.3-0.9,0.5-1.5,0.5c-0.6,0-1.1-0.1-1.5-0.4
							c-0.4-0.2-0.7-0.6-0.9-1.1c-0.2-0.5-0.3-1-0.3-1.5c0-0.6,0.1-1.1,0.3-1.5c0.2-0.4,0.5-0.8,0.9-1c0.4-0.2,0.9-0.3,1.3-0.3
							c0.6,0,1,0.1,1.4,0.4c0.4,0.3,0.6,0.7,0.8,1.2l-0.7,0.2c-0.1-0.4-0.3-0.7-0.6-0.9c-0.2-0.2-0.6-0.3-0.9-0.3
							c-0.4,0-0.8,0.1-1.1,0.3c-0.3,0.2-0.5,0.5-0.6,0.8c-0.1,0.3-0.2,0.7-0.2,1.1c0,0.5,0.1,0.9,0.2,1.2s0.4,0.6,0.6,0.8
							c0.3,0.2,0.6,0.3,0.9,0.3c0.4,0,0.8-0.1,1-0.4C47.7,124.4,47.9,124.1,48,123.6"/>
						<polygon class="st3" points="49.7,125.5 49.7,120 53.7,120 53.7,120.6 50.4,120.6 50.4,122.3 53.5,122.3 53.5,123 50.4,123 
							50.4,124.9 53.8,124.9 53.8,125.5 						"/>
						<path class="st3" d="M54.8,125.5V120h2.5c0.5,0,0.9,0,1.1,0.1c0.3,0.1,0.5,0.3,0.6,0.5c0.2,0.3,0.2,0.5,0.2,0.8
							c0,0.4-0.1,0.7-0.4,1s-0.6,0.4-1.2,0.5c0.2,0.1,0.3,0.2,0.4,0.3c0.2,0.2,0.4,0.4,0.6,0.7l1,1.5h-0.9l-0.7-1.2
							c-0.2-0.3-0.4-0.6-0.5-0.8c-0.1-0.2-0.3-0.3-0.4-0.4c-0.1-0.1-0.2-0.1-0.3-0.1c-0.1,0-0.2,0-0.4,0h-0.9v2.5L54.8,125.5
							L54.8,125.5z M55.6,122.4h1.6c0.3,0,0.6,0,0.8-0.1c0.2-0.1,0.3-0.2,0.4-0.3c0.1-0.2,0.1-0.3,0.1-0.5c0-0.3-0.1-0.5-0.3-0.6
							c-0.2-0.2-0.5-0.3-0.9-0.3h-1.8C55.6,120.6,55.6,122.4,55.6,122.4z"/>
						<path class="st3" d="M60.1,124.1l0.7-0.1c0.1,0.4,0.2,0.7,0.4,0.8c0.2,0.2,0.4,0.3,0.7,0.3c0.3,0,0.6-0.1,0.8-0.3
							c0.2-0.2,0.3-0.5,0.3-0.8s-0.1-0.6-0.3-0.8c-0.2-0.2-0.5-0.3-0.8-0.3c-0.1,0-0.3,0-0.5,0.1l0.1-0.6c0,0,0.1,0,0.1,0
							c0.3,0,0.5-0.1,0.8-0.2c0.2-0.1,0.3-0.4,0.3-0.7c0-0.3-0.1-0.5-0.3-0.6s-0.4-0.2-0.7-0.2c-0.3,0-0.5,0.1-0.7,0.3
							c-0.2,0.2-0.3,0.4-0.3,0.7l-0.7-0.1c0.1-0.5,0.3-0.8,0.6-1.1s0.7-0.4,1.1-0.4c0.3,0,0.6,0.1,0.8,0.2c0.3,0.1,0.4,0.3,0.6,0.5
							c0.1,0.2,0.2,0.5,0.2,0.7c0,0.3-0.1,0.5-0.2,0.7s-0.3,0.4-0.6,0.5c0.3,0.1,0.6,0.2,0.8,0.5c0.2,0.2,0.3,0.5,0.3,0.9
							c0,0.5-0.2,0.9-0.5,1.2c-0.4,0.3-0.8,0.5-1.3,0.5c-0.5,0-0.9-0.1-1.2-0.4C60.4,124.9,60.2,124.5,60.1,124.1"/>
						<path class="st3" d="M67,125.5h-0.7v-4.3c-0.2,0.2-0.4,0.3-0.6,0.5c-0.3,0.2-0.5,0.3-0.7,0.4v-0.7c0.4-0.2,0.7-0.4,1-0.7
							c0.3-0.3,0.5-0.5,0.6-0.7H67L67,125.5L67,125.5z"/>
						<path class="st3" d="M68.8,124.1l0.7-0.1c0.1,0.3,0.2,0.6,0.4,0.8c0.2,0.2,0.4,0.3,0.7,0.3c0.3,0,0.6-0.1,0.8-0.4
							s0.3-0.6,0.3-1s-0.1-0.7-0.3-0.9c-0.2-0.2-0.5-0.3-0.9-0.3c-0.2,0-0.4,0-0.6,0.1c-0.2,0.1-0.3,0.2-0.4,0.4l-0.6-0.1l0.5-2.9
							h2.8v0.7H70l-0.3,1.5c0.3-0.2,0.7-0.3,1-0.3c0.5,0,0.9,0.2,1.2,0.5c0.3,0.3,0.5,0.8,0.5,1.3c0,0.5-0.1,0.9-0.4,1.3
							c-0.4,0.4-0.8,0.7-1.5,0.7c-0.5,0-0.9-0.1-1.2-0.4C69,124.9,68.8,124.5,68.8,124.1"/>
						<path class="st3" d="M73.1,124.1l0.7-0.1c0.1,0.4,0.2,0.7,0.4,0.8c0.2,0.2,0.4,0.3,0.7,0.3c0.3,0,0.6-0.1,0.8-0.3
							s0.3-0.5,0.3-0.8s-0.1-0.6-0.3-0.8c-0.2-0.2-0.5-0.3-0.8-0.3c-0.1,0-0.3,0-0.5,0.1l0.1-0.6c0,0,0.1,0,0.1,0
							c0.3,0,0.5-0.1,0.8-0.2c0.2-0.1,0.3-0.4,0.3-0.7c0-0.3-0.1-0.5-0.3-0.6s-0.4-0.2-0.7-0.2s-0.5,0.1-0.7,0.3
							c-0.2,0.2-0.3,0.4-0.3,0.7l-0.7-0.1c0.1-0.5,0.3-0.8,0.6-1.1s0.7-0.4,1.1-0.4c0.3,0,0.6,0.1,0.8,0.2c0.3,0.1,0.4,0.3,0.6,0.5
							c0.1,0.2,0.2,0.5,0.2,0.7c0,0.3-0.1,0.5-0.2,0.7s-0.3,0.4-0.6,0.5c0.3,0.1,0.6,0.2,0.8,0.5c0.2,0.2,0.3,0.5,0.3,0.9
							c0,0.5-0.2,0.9-0.5,1.2s-0.8,0.5-1.3,0.5c-0.5,0-0.9-0.1-1.2-0.4C73.3,124.9,73.1,124.5,73.1,124.1"/>
						<path class="st3" d="M77.4,124.1l0.7-0.1c0.1,0.3,0.2,0.6,0.4,0.8c0.2,0.2,0.4,0.3,0.7,0.3c0.3,0,0.6-0.1,0.8-0.4
							c0.2-0.2,0.3-0.6,0.3-1s-0.1-0.7-0.3-0.9c-0.2-0.2-0.5-0.3-0.9-0.3c-0.2,0-0.4,0-0.6,0.1c-0.2,0.1-0.3,0.2-0.4,0.4l-0.6-0.1
							l0.5-2.9h2.8v0.7h-2.2l-0.3,1.5c0.3-0.2,0.7-0.3,1-0.3c0.5,0,0.9,0.2,1.2,0.5c0.3,0.3,0.5,0.8,0.5,1.3c0,0.5-0.1,0.9-0.4,1.3
							c-0.4,0.4-0.8,0.7-1.5,0.7c-0.5,0-0.9-0.1-1.2-0.4C77.6,124.9,77.4,124.5,77.4,124.1"/>
						<path class="st3" d="M81.7,124.1l0.7-0.1c0.1,0.4,0.2,0.7,0.4,0.8c0.2,0.2,0.4,0.3,0.7,0.3c0.3,0,0.6-0.1,0.8-0.3
							s0.3-0.5,0.3-0.8s-0.1-0.6-0.3-0.8c-0.2-0.2-0.5-0.3-0.8-0.3c-0.1,0-0.3,0-0.5,0.1l0.1-0.6c0,0,0.1,0,0.1,0
							c0.3,0,0.5-0.1,0.8-0.2c0.2-0.1,0.3-0.4,0.3-0.7c0-0.3-0.1-0.5-0.3-0.6s-0.4-0.2-0.7-0.2s-0.5,0.1-0.7,0.3
							c-0.2,0.2-0.3,0.4-0.3,0.7l-0.7-0.1c0.1-0.5,0.3-0.8,0.6-1.1s0.7-0.4,1.1-0.4c0.3,0,0.6,0.1,0.8,0.2c0.3,0.1,0.4,0.3,0.6,0.5
							c0.1,0.2,0.2,0.5,0.2,0.7c0,0.3-0.1,0.5-0.2,0.7c-0.1,0.2-0.3,0.4-0.6,0.5c0.3,0.1,0.6,0.2,0.8,0.5c0.2,0.2,0.3,0.5,0.3,0.9
							c0,0.5-0.2,0.9-0.5,1.2s-0.8,0.5-1.3,0.5c-0.5,0-0.9-0.1-1.2-0.4C81.9,124.9,81.7,124.5,81.7,124.1"/>
						<rect x="30.9" y="166.4" class="st3" width="0.8" height="5.9"/>
						<path class="st3" d="M32.7,170.4l0.7-0.1c0,0.3,0.1,0.5,0.2,0.7c0.1,0.2,0.3,0.3,0.6,0.5c0.3,0.1,0.6,0.2,0.9,0.2
							c0.3,0,0.6,0,0.8-0.1c0.2-0.1,0.4-0.2,0.5-0.4c0.1-0.2,0.2-0.3,0.2-0.5s-0.1-0.3-0.2-0.5c-0.1-0.1-0.3-0.3-0.5-0.3
							c-0.2-0.1-0.5-0.2-1-0.3c-0.5-0.1-0.9-0.3-1.1-0.4c-0.3-0.1-0.5-0.3-0.6-0.5c-0.1-0.2-0.2-0.5-0.2-0.7c0-0.3,0.1-0.6,0.3-0.8
							s0.4-0.5,0.7-0.6c0.3-0.1,0.7-0.2,1.1-0.2c0.4,0,0.8,0.1,1.2,0.2s0.6,0.3,0.8,0.6c0.2,0.3,0.3,0.6,0.3,0.9l-0.7,0.1
							c0-0.4-0.2-0.7-0.4-0.8c-0.2-0.2-0.6-0.3-1-0.3c-0.4,0-0.8,0.1-1,0.3c-0.2,0.2-0.3,0.4-0.3,0.6c0,0.2,0.1,0.4,0.2,0.5
							c0.1,0.1,0.5,0.3,1.2,0.4s1.1,0.3,1.3,0.4c0.3,0.2,0.6,0.4,0.8,0.6s0.2,0.5,0.2,0.8c0,0.3-0.1,0.6-0.3,0.9
							c-0.2,0.3-0.4,0.5-0.8,0.6c-0.3,0.2-0.7,0.2-1.1,0.2c-0.5,0-1-0.1-1.3-0.2c-0.4-0.2-0.6-0.4-0.8-0.7
							C32.9,171.1,32.7,170.8,32.7,170.4"/>
						<path class="st3" d="M38.2,169.4c0-1,0.3-1.7,0.8-2.3c0.5-0.5,1.2-0.8,2-0.8c0.5,0,1,0.1,1.5,0.4s0.8,0.6,1,1.1
							c0.2,0.5,0.3,1,0.3,1.6s-0.1,1.1-0.4,1.6c-0.2,0.5-0.6,0.8-1,1.1c-0.4,0.2-0.9,0.4-1.4,0.4c-0.5,0-1-0.1-1.5-0.4
							c-0.4-0.3-0.8-0.6-1-1.1C38.3,170.4,38.2,169.9,38.2,169.4 M39,169.4c0,0.7,0.2,1.3,0.6,1.7c0.4,0.4,0.9,0.6,1.4,0.6
							s1.1-0.2,1.4-0.6c0.4-0.4,0.6-1,0.6-1.7c0-0.5-0.1-0.9-0.2-1.2c-0.2-0.4-0.4-0.6-0.7-0.8c-0.3-0.2-0.7-0.3-1-0.3
							c-0.5,0-1,0.2-1.4,0.6C39.2,167.9,39,168.5,39,169.4"/>
						<path class="st3" d="M46.9,170.9l0.7-0.1c0.1,0.3,0.2,0.6,0.3,0.7c0.2,0.1,0.4,0.2,0.6,0.2c0.2,0,0.4-0.1,0.6-0.1
							c0.2-0.1,0.3-0.2,0.4-0.4c0.1-0.2,0.2-0.4,0.3-0.7c0.1-0.3,0.1-0.6,0.1-0.9c0,0,0-0.1,0-0.1c-0.1,0.2-0.3,0.4-0.6,0.6
							c-0.3,0.1-0.5,0.2-0.8,0.2c-0.5,0-0.9-0.2-1.2-0.5c-0.3-0.4-0.5-0.8-0.5-1.4c0-0.6,0.2-1.1,0.5-1.4s0.8-0.5,1.3-0.5
							c0.4,0,0.7,0.1,1,0.3c0.3,0.2,0.6,0.5,0.7,0.9c0.2,0.4,0.2,0.9,0.2,1.6s-0.1,1.3-0.2,1.8c-0.2,0.4-0.4,0.8-0.7,1
							s-0.7,0.3-1.1,0.3c-0.5,0-0.8-0.1-1.1-0.4C47.2,171.7,47,171.3,46.9,170.9 M49.9,168.3c0-0.4-0.1-0.7-0.3-1
							c-0.2-0.2-0.5-0.4-0.8-0.4s-0.6,0.1-0.8,0.4c-0.2,0.3-0.4,0.6-0.4,1c0,0.4,0.1,0.7,0.3,0.9c0.2,0.2,0.5,0.4,0.8,0.4
							c0.3,0,0.6-0.1,0.8-0.4C49.8,169,49.9,168.7,49.9,168.3"/>
						<path class="st3" d="M51.4,169.3c0-0.7,0.1-1.3,0.2-1.7c0.1-0.4,0.4-0.7,0.6-1c0.3-0.2,0.6-0.3,1.1-0.3c0.3,0,0.6,0.1,0.8,0.2
							c0.2,0.1,0.4,0.3,0.6,0.5c0.2,0.2,0.3,0.5,0.4,0.9c0.1,0.3,0.1,0.8,0.1,1.4c0,0.7-0.1,1.2-0.2,1.7c-0.1,0.4-0.4,0.8-0.6,1
							c-0.3,0.2-0.6,0.3-1.1,0.3c-0.6,0-1-0.2-1.3-0.6C51.6,171.2,51.4,170.4,51.4,169.3 M52.1,169.3c0,1,0.1,1.6,0.3,1.9
							c0.2,0.3,0.5,0.5,0.8,0.5c0.3,0,0.6-0.2,0.8-0.5c0.2-0.3,0.3-1,0.3-1.9s-0.1-1.6-0.3-1.9s-0.5-0.5-0.8-0.5
							c-0.3,0-0.6,0.1-0.8,0.4C52.2,167.7,52.1,168.4,52.1,169.3"/>
						<path class="st3" d="M55.9,169.3c0-0.7,0.1-1.3,0.2-1.7c0.1-0.4,0.4-0.7,0.6-1c0.3-0.2,0.6-0.3,1.1-0.3c0.3,0,0.6,0.1,0.8,0.2
							c0.2,0.1,0.4,0.3,0.6,0.5c0.2,0.2,0.3,0.5,0.4,0.9c0.1,0.3,0.1,0.8,0.1,1.4c0,0.7-0.1,1.2-0.2,1.7c-0.1,0.4-0.4,0.8-0.6,1
							c-0.3,0.2-0.6,0.3-1.1,0.3c-0.6,0-1-0.2-1.3-0.6C56.1,171.2,55.9,170.4,55.9,169.3 M56.7,169.3c0,1,0.1,1.6,0.3,1.9
							c0.2,0.3,0.5,0.5,0.8,0.5c0.3,0,0.6-0.2,0.8-0.5c0.2-0.3,0.3-1,0.3-1.9s-0.1-1.6-0.3-1.9s-0.5-0.5-0.8-0.5
							c-0.3,0-0.6,0.1-0.8,0.4C56.8,167.7,56.7,168.4,56.7,169.3"/>
						<path class="st3" d="M63.2,172.2h-0.7v-4.6c-0.2,0.2-0.4,0.3-0.7,0.5c-0.3,0.2-0.5,0.3-0.8,0.4v-0.7c0.4-0.2,0.8-0.4,1.1-0.7
							c0.3-0.3,0.5-0.5,0.6-0.8h0.5L63.2,172.2L63.2,172.2z"/>
						<rect x="65" y="169.8" class="st3" width="2.2" height="0.7"/>
						<path class="st3" d="M71.6,171.5v0.7h-3.9c0-0.2,0-0.3,0.1-0.5c0.1-0.3,0.3-0.5,0.5-0.8s0.5-0.5,0.9-0.9
							c0.6-0.5,1.1-0.9,1.3-1.2c0.2-0.3,0.3-0.6,0.3-0.9s-0.1-0.5-0.3-0.7c-0.2-0.2-0.5-0.3-0.8-0.3c-0.3,0-0.6,0.1-0.8,0.3
							c-0.2,0.2-0.3,0.5-0.3,0.9l-0.7-0.1c0.1-0.6,0.2-1,0.6-1.3c0.3-0.3,0.8-0.4,1.3-0.4s1,0.2,1.3,0.5c0.3,0.3,0.5,0.7,0.5,1.2
							c0,0.2,0,0.5-0.1,0.7c-0.1,0.2-0.3,0.5-0.5,0.7c-0.2,0.3-0.6,0.6-1.1,1c-0.4,0.4-0.7,0.6-0.8,0.7c-0.1,0.1-0.2,0.3-0.3,0.4
							L71.6,171.5L71.6,171.5z"/>
						<path class="st3" d="M72.3,169.3c0-0.7,0.1-1.3,0.2-1.7c0.1-0.4,0.4-0.7,0.6-1c0.3-0.2,0.6-0.3,1.1-0.3c0.3,0,0.6,0.1,0.8,0.2
							c0.2,0.1,0.4,0.3,0.6,0.5c0.2,0.2,0.3,0.5,0.4,0.9s0.1,0.8,0.1,1.4c0,0.7-0.1,1.2-0.2,1.7c-0.1,0.4-0.4,0.8-0.6,1
							c-0.3,0.2-0.6,0.3-1.1,0.3c-0.6,0-1-0.2-1.3-0.6C72.5,171.2,72.3,170.4,72.3,169.3 M73.1,169.3c0,1,0.1,1.6,0.3,1.9
							c0.2,0.3,0.5,0.5,0.8,0.5s0.6-0.2,0.8-0.5c0.2-0.3,0.3-1,0.3-1.9s-0.1-1.6-0.3-1.9s-0.5-0.5-0.8-0.5s-0.6,0.1-0.8,0.4
							C73.2,167.7,73.1,168.4,73.1,169.3"/>
						<path class="st3" d="M79.6,172.2h-0.7v-4.6c-0.2,0.2-0.4,0.3-0.7,0.5c-0.3,0.2-0.5,0.3-0.8,0.4v-0.7c0.4-0.2,0.8-0.4,1.1-0.7
							c0.3-0.3,0.5-0.5,0.6-0.8h0.5L79.6,172.2L79.6,172.2z"/>
						<path class="st3" d="M81.5,170.7l0.8-0.1c0.1,0.4,0.2,0.6,0.4,0.8c0.2,0.2,0.4,0.3,0.7,0.3c0.3,0,0.6-0.1,0.9-0.4
							c0.2-0.3,0.4-0.6,0.4-1s-0.1-0.7-0.3-1c-0.2-0.2-0.5-0.4-0.9-0.4c-0.2,0-0.4,0.1-0.6,0.2c-0.2,0.1-0.3,0.2-0.4,0.4l-0.7-0.1
							l0.6-3h2.9v0.7h-2.3l-0.3,1.6c0.4-0.2,0.7-0.4,1.1-0.4c0.5,0,0.9,0.2,1.3,0.5c0.4,0.4,0.5,0.8,0.5,1.4s-0.2,1-0.5,1.4
							c-0.4,0.5-0.9,0.7-1.5,0.7c-0.5,0-1-0.1-1.3-0.4C81.7,171.6,81.5,171.2,81.5,170.7"/>
						<path class="st3" d="M30.8,136.6v-6.2h2.3c0.4,0,0.7,0,0.9,0.1c0.3,0.1,0.6,0.1,0.8,0.3c0.2,0.1,0.4,0.3,0.5,0.6
							c0.1,0.3,0.2,0.5,0.2,0.8c0,0.5-0.2,1-0.5,1.3s-0.9,0.5-1.8,0.5h-1.6v2.5L30.8,136.6L30.8,136.6z M31.6,133.3h1.6
							c0.5,0,0.9-0.1,1.1-0.3c0.2-0.2,0.3-0.5,0.3-0.8c0-0.3-0.1-0.5-0.2-0.7c-0.1-0.2-0.3-0.3-0.5-0.4c-0.1,0-0.4-0.1-0.8-0.1h-1.6
							L31.6,133.3L31.6,133.3z"/>
						<path class="st3" d="M36.5,136.6V132h0.7v0.7c0.2-0.3,0.3-0.5,0.5-0.6c0.1-0.1,0.3-0.2,0.5-0.2c0.3,0,0.5,0.1,0.8,0.2
							l-0.3,0.7c-0.2-0.1-0.4-0.2-0.6-0.2c-0.2,0-0.3,0.1-0.4,0.1c-0.1,0.1-0.2,0.2-0.3,0.4c-0.1,0.3-0.1,0.6-0.1,0.9v2.4
							L36.5,136.6L36.5,136.6z"/>
						<path class="st3" d="M39.1,134.3c0-0.8,0.2-1.5,0.7-1.9c0.4-0.3,0.9-0.5,1.4-0.5c0.6,0,1.1,0.2,1.5,0.6c0.4,0.4,0.6,1,0.6,1.7
							c0,0.6-0.1,1-0.3,1.4s-0.4,0.6-0.8,0.8c-0.3,0.2-0.7,0.3-1.1,0.3c-0.6,0-1.1-0.2-1.5-0.6C39.3,135.6,39.1,135.1,39.1,134.3
							 M39.9,134.3c0,0.6,0.1,1,0.4,1.3c0.3,0.3,0.6,0.4,1,0.4s0.7-0.1,0.9-0.4c0.3-0.3,0.4-0.7,0.4-1.3c0-0.6-0.1-1-0.4-1.3
							c-0.3-0.3-0.6-0.4-0.9-0.4s-0.7,0.1-1,0.4C40,133.3,39.9,133.7,39.9,134.3"/>
						<path class="st3" d="M47.1,136.6V136c-0.3,0.4-0.7,0.7-1.3,0.7c-0.4,0-0.7-0.1-1-0.3c-0.3-0.2-0.5-0.5-0.7-0.8
							c-0.2-0.4-0.2-0.8-0.2-1.2c0-0.5,0.1-0.9,0.2-1.2s0.4-0.6,0.7-0.8c0.3-0.2,0.6-0.3,1-0.3c0.3,0,0.5,0.1,0.7,0.2
							c0.2,0.1,0.4,0.3,0.5,0.4v-2.2h0.8v6.2L47.1,136.6L47.1,136.6z M44.7,134.3c0,0.6,0.1,1,0.4,1.3c0.2,0.3,0.5,0.4,0.9,0.4
							s0.6-0.1,0.8-0.4c0.2-0.3,0.4-0.7,0.4-1.2c0-0.6-0.1-1.1-0.4-1.4c-0.2-0.3-0.5-0.4-0.9-0.4c-0.3,0-0.6,0.1-0.8,0.4
							C44.8,133.3,44.7,133.7,44.7,134.3"/>
						<path class="st3" d="M52,136.6v-0.7c-0.4,0.5-0.8,0.8-1.4,0.8c-0.3,0-0.5-0.1-0.7-0.2c-0.2-0.1-0.4-0.2-0.5-0.4
							s-0.2-0.3-0.2-0.6c0-0.1,0-0.4,0-0.7V132h0.8v2.5c0,0.4,0,0.7,0,0.8c0,0.2,0.1,0.4,0.3,0.5c0.2,0.1,0.3,0.2,0.6,0.2
							s0.4-0.1,0.6-0.2c0.2-0.1,0.3-0.3,0.4-0.5s0.1-0.5,0.1-0.9V132h0.8v4.5L52,136.6L52,136.6z"/>
						<path class="st3" d="M56.8,134.9l0.8,0.1c-0.1,0.5-0.3,0.9-0.6,1.2c-0.3,0.3-0.8,0.4-1.2,0.4c-0.6,0-1.1-0.2-1.5-0.6
							c-0.4-0.4-0.6-1-0.6-1.7c0-0.5,0.1-0.9,0.2-1.3c0.2-0.4,0.4-0.6,0.7-0.8c0.3-0.2,0.7-0.3,1.1-0.3c0.5,0,0.9,0.1,1.2,0.4
							s0.5,0.6,0.6,1.1l-0.7,0.1c-0.1-0.3-0.2-0.5-0.4-0.7c-0.2-0.2-0.4-0.2-0.7-0.2c-0.4,0-0.7,0.1-0.9,0.4
							c-0.2,0.3-0.4,0.7-0.4,1.3s0.1,1,0.3,1.3c0.2,0.3,0.5,0.4,0.9,0.4c0.3,0,0.5-0.1,0.8-0.3C56.6,135.6,56.8,135.3,56.8,134.9"/>
						<path class="st3" d="M61.2,134.9l0.8,0.1c-0.1,0.5-0.3,0.9-0.6,1.2c-0.3,0.3-0.8,0.4-1.2,0.4c-0.6,0-1.1-0.2-1.5-0.6
							c-0.4-0.4-0.6-1-0.6-1.7c0-0.5,0.1-0.9,0.2-1.3c0.2-0.4,0.4-0.6,0.7-0.8c0.3-0.2,0.7-0.3,1.1-0.3c0.5,0,0.9,0.1,1.2,0.4
							s0.5,0.6,0.6,1.1l-0.7,0.1c-0.1-0.3-0.2-0.5-0.4-0.7s-0.4-0.2-0.7-0.2c-0.4,0-0.7,0.1-0.9,0.4c-0.2,0.3-0.4,0.7-0.4,1.3
							s0.1,1,0.3,1.3c0.2,0.3,0.5,0.4,0.9,0.4c0.3,0,0.5-0.1,0.8-0.3C61,135.6,61.1,135.3,61.2,134.9"/>
						<path class="st3" d="M62.6,130.3h0.8v0.9h-0.8V130.3z M62.6,132.1h0.8v4.5h-0.8V132.1z"/>
						<path class="st3" d="M64.2,134.3c0-0.8,0.2-1.5,0.7-1.9c0.4-0.3,0.9-0.5,1.4-0.5c0.6,0,1.1,0.2,1.5,0.6c0.4,0.4,0.6,1,0.6,1.7
							c0,0.6-0.1,1-0.3,1.4c-0.2,0.3-0.4,0.6-0.8,0.8c-0.3,0.2-0.7,0.3-1.1,0.3c-0.6,0-1.1-0.2-1.5-0.6
							C64.4,135.6,64.2,135.1,64.2,134.3 M65,134.3c0,0.6,0.1,1,0.4,1.3c0.3,0.3,0.6,0.4,1,0.4s0.7-0.1,0.9-0.4
							c0.3-0.3,0.4-0.7,0.4-1.3c0-0.6-0.1-1-0.4-1.3c-0.3-0.3-0.6-0.4-0.9-0.4s-0.7,0.1-1,0.4C65.1,133.3,65,133.7,65,134.3
							 M65.9,131.5l0.6-1.2h1l-0.9,1.2H65.9z"/>
						<path class="st3" d="M69.3,136.6V132H70v0.6c0.3-0.5,0.8-0.7,1.4-0.7c0.3,0,0.5,0,0.7,0.1s0.4,0.2,0.5,0.4
							c0.1,0.2,0.2,0.3,0.2,0.6c0,0.1,0,0.4,0,0.7v2.8h-0.8v-2.7c0-0.3,0-0.5-0.1-0.7c-0.1-0.2-0.2-0.3-0.3-0.4
							c-0.1-0.1-0.3-0.1-0.5-0.1c-0.3,0-0.6,0.1-0.8,0.3c-0.2,0.2-0.4,0.6-0.4,1.2v2.5L69.3,136.6L69.3,136.6z"/>
						<path class="st3" d="M79.5,136.6V136c-0.3,0.4-0.7,0.7-1.3,0.7c-0.4,0-0.7-0.1-1-0.3c-0.3-0.2-0.5-0.5-0.7-0.8
							c-0.2-0.4-0.2-0.8-0.2-1.2c0-0.5,0.1-0.9,0.2-1.2c0.1-0.4,0.4-0.6,0.7-0.8c0.3-0.2,0.6-0.3,1-0.3c0.3,0,0.5,0.1,0.7,0.2
							c0.2,0.1,0.4,0.3,0.5,0.4v-2.2h0.8v6.2L79.5,136.6L79.5,136.6z M77.1,134.3c0,0.6,0.1,1,0.4,1.3c0.2,0.3,0.5,0.4,0.9,0.4
							s0.6-0.1,0.8-0.4c0.2-0.3,0.4-0.7,0.4-1.2c0-0.6-0.1-1.1-0.4-1.4c-0.2-0.3-0.5-0.4-0.9-0.4c-0.3,0-0.6,0.1-0.8,0.4
							C77.2,133.3,77.1,133.7,77.1,134.3"/>
						<path class="st3" d="M84.5,135.1l0.8,0.1c-0.1,0.5-0.4,0.8-0.7,1.1c-0.3,0.3-0.8,0.4-1.3,0.4c-0.7,0-1.2-0.2-1.6-0.6
							s-0.6-1-0.6-1.7s0.2-1.3,0.6-1.8s0.9-0.6,1.5-0.6s1.1,0.2,1.5,0.6s0.6,1,0.6,1.7c0,0,0,0.1,0,0.2H82c0,0.5,0.2,0.9,0.4,1.1
							c0.3,0.3,0.6,0.4,0.9,0.4c0.3,0,0.5-0.1,0.7-0.2C84.2,135.7,84.4,135.4,84.5,135.1 M82,133.9h2.5c0-0.4-0.1-0.7-0.3-0.9
							c-0.2-0.3-0.6-0.4-0.9-0.4c-0.4,0-0.6,0.1-0.9,0.4C82.2,133.2,82,133.5,82,133.9"/>
						<path class="st3" d="M30.7,144.9v-6.2H32l1.5,4.4c0.1,0.4,0.2,0.7,0.3,0.9c0.1-0.2,0.2-0.6,0.3-1l1.5-4.3h1.1v6.2h-0.8v-5.2
							l-1.8,5.2h-0.7l-1.8-5.3v5.3C31.5,144.9,30.7,144.9,30.7,144.9z"/>
						<path class="st3" d="M40.9,144.9v-0.7c-0.4,0.5-0.8,0.8-1.4,0.8c-0.3,0-0.5-0.1-0.7-0.2c-0.2-0.1-0.4-0.2-0.5-0.4
							s-0.2-0.3-0.2-0.6c0-0.1,0-0.4,0-0.7v-2.8h0.8v2.5c0,0.4,0,0.7,0,0.8c0,0.2,0.1,0.4,0.3,0.5c0.2,0.1,0.3,0.2,0.6,0.2
							s0.4-0.1,0.6-0.2c0.2-0.1,0.3-0.3,0.4-0.5c0.1-0.2,0.1-0.5,0.1-0.9v-2.4h0.8v4.5L40.9,144.9L40.9,144.9z"/>
						<path class="st3" d="M45.8,143.4l0.8,0.1c-0.1,0.5-0.4,0.8-0.7,1.1c-0.3,0.3-0.8,0.4-1.3,0.4c-0.7,0-1.2-0.2-1.6-0.6
							c-0.4-0.4-0.6-1-0.6-1.7c0-0.7,0.2-1.3,0.6-1.8c0.4-0.4,0.9-0.6,1.5-0.6c0.6,0,1.1,0.2,1.5,0.6c0.4,0.4,0.6,1,0.6,1.7
							c0,0,0,0.1,0,0.2h-3.4c0,0.5,0.2,0.9,0.4,1.1c0.3,0.3,0.6,0.4,0.9,0.4c0.3,0,0.5-0.1,0.7-0.2C45.6,144,45.7,143.8,45.8,143.4
							 M43.3,142.2h2.5c0-0.4-0.1-0.7-0.3-0.9c-0.2-0.3-0.6-0.4-0.9-0.4c-0.4,0-0.6,0.1-0.9,0.4C43.5,141.5,43.4,141.8,43.3,142.2"
							/>
						<path class="st3" d="M48.3,144.9h-0.7v-6.2h0.8v2.2c0.3-0.4,0.7-0.6,1.2-0.6c0.3,0,0.5,0.1,0.8,0.2c0.2,0.1,0.5,0.3,0.6,0.5
							s0.3,0.4,0.4,0.7c0.1,0.3,0.1,0.6,0.1,0.9c0,0.8-0.2,1.4-0.6,1.8s-0.8,0.6-1.4,0.6s-1-0.2-1.3-0.7L48.3,144.9L48.3,144.9z
							 M48.3,142.6c0,0.5,0.1,0.9,0.2,1.2c0.2,0.4,0.6,0.6,1,0.6c0.3,0,0.6-0.1,0.9-0.4c0.2-0.3,0.4-0.7,0.4-1.3s-0.1-1-0.4-1.3
							c-0.2-0.3-0.5-0.4-0.8-0.4c-0.3,0-0.6,0.1-0.9,0.4C48.4,141.6,48.3,142.1,48.3,142.6"/>
						<rect x="52.4" y="138.7" class="st3" width="0.8" height="6.2"/>
						<path class="st3" d="M57.4,143.4l0.8,0.1c-0.1,0.5-0.4,0.8-0.7,1.1c-0.3,0.3-0.8,0.4-1.3,0.4c-0.7,0-1.2-0.2-1.6-0.6
							c-0.4-0.4-0.6-1-0.6-1.7c0-0.7,0.2-1.3,0.6-1.8c0.4-0.4,0.9-0.6,1.5-0.6c0.6,0,1.1,0.2,1.5,0.6c0.4,0.4,0.6,1,0.6,1.7
							c0,0,0,0.1,0,0.2h-3.4c0,0.5,0.2,0.9,0.4,1.1c0.3,0.3,0.6,0.4,0.9,0.4c0.3,0,0.5-0.1,0.7-0.2C57.2,144,57.3,143.8,57.4,143.4
							 M54.9,142.2h2.5c0-0.4-0.1-0.7-0.3-0.9c-0.2-0.3-0.6-0.4-0.9-0.4c-0.4,0-0.6,0.1-0.9,0.4C55.1,141.5,55,141.8,54.9,142.2"/>
						<path class="st3" d="M58.9,143.5l0.8-0.1c0,0.3,0.2,0.5,0.4,0.7c0.2,0.2,0.5,0.2,0.8,0.2s0.6-0.1,0.8-0.2
							c0.2-0.1,0.3-0.3,0.3-0.5c0-0.2-0.1-0.3-0.2-0.4c-0.1-0.1-0.4-0.2-0.8-0.3c-0.6-0.1-1-0.3-1.2-0.4c-0.2-0.1-0.4-0.2-0.5-0.4
							c-0.1-0.2-0.2-0.4-0.2-0.6c0-0.2,0-0.4,0.1-0.6c0.1-0.2,0.2-0.3,0.4-0.4c0.1-0.1,0.3-0.2,0.5-0.2c0.2-0.1,0.4-0.1,0.7-0.1
							c0.4,0,0.7,0.1,0.9,0.2c0.3,0.1,0.5,0.2,0.6,0.4c0.1,0.2,0.2,0.4,0.3,0.7l-0.7,0.1c0-0.2-0.1-0.4-0.3-0.5
							c-0.2-0.1-0.4-0.2-0.7-0.2c-0.4,0-0.6,0.1-0.8,0.2c-0.1,0.1-0.2,0.3-0.2,0.4c0,0.1,0,0.2,0.1,0.3c0.1,0.1,0.2,0.1,0.3,0.2
							c0.1,0,0.3,0.1,0.7,0.2c0.5,0.1,0.9,0.3,1.1,0.4c0.2,0.1,0.4,0.2,0.5,0.4c0.1,0.2,0.2,0.4,0.2,0.7s-0.1,0.5-0.2,0.7
							c-0.1,0.2-0.4,0.4-0.6,0.5c-0.3,0.1-0.6,0.2-1,0.2c-0.6,0-1-0.1-1.3-0.4C59.2,144.4,59,144,58.9,143.5"/>
						<path class="st3" d="M69,143.4l0.8,0.1c-0.1,0.5-0.4,0.8-0.7,1.1c-0.3,0.3-0.8,0.4-1.3,0.4c-0.7,0-1.2-0.2-1.6-0.6
							c-0.4-0.4-0.6-1-0.6-1.7c0-0.7,0.2-1.3,0.6-1.8c0.4-0.4,0.9-0.6,1.5-0.6c0.6,0,1.1,0.2,1.5,0.6c0.4,0.4,0.6,1,0.6,1.7
							c0,0,0,0.1,0,0.2h-3.4c0,0.5,0.2,0.9,0.4,1.1c0.3,0.3,0.6,0.4,0.9,0.4c0.3,0,0.5-0.1,0.7-0.2C68.8,144,68.9,143.8,69,143.4
							 M66.5,142.2H69c0-0.4-0.1-0.7-0.3-0.9c-0.2-0.3-0.6-0.4-0.9-0.4c-0.4,0-0.6,0.1-0.9,0.4C66.7,141.5,66.6,141.8,66.5,142.2"/>
						<path class="st3" d="M70.8,144.9v-4.5h0.7v0.6c0.3-0.5,0.8-0.7,1.4-0.7c0.3,0,0.5,0,0.7,0.1c0.2,0.1,0.4,0.2,0.5,0.4
							c0.1,0.2,0.2,0.3,0.2,0.6c0,0.1,0,0.4,0,0.7v2.8h-0.8v-2.7c0-0.3,0-0.5-0.1-0.7c-0.1-0.2-0.2-0.3-0.3-0.4
							c-0.1-0.1-0.3-0.1-0.5-0.1c-0.3,0-0.6,0.1-0.8,0.3c-0.2,0.2-0.4,0.6-0.4,1.2v2.5L70.8,144.9L70.8,144.9z"/>
						<path class="st3" d="M30.7,153.2V147H32l1.5,4.4c0.1,0.4,0.2,0.7,0.3,0.9c0.1-0.2,0.2-0.6,0.3-1l1.5-4.3h1.1v6.2h-0.8V148
							l-1.8,5.2h-0.7l-1.8-5.3v5.3L30.7,153.2L30.7,153.2z"/>
						<path class="st3" d="M40.9,152.7c-0.3,0.2-0.6,0.4-0.8,0.5c-0.3,0.1-0.5,0.1-0.8,0.1c-0.5,0-0.9-0.1-1.1-0.4
							c-0.3-0.2-0.4-0.5-0.4-0.9c0-0.2,0-0.4,0.1-0.6c0.1-0.2,0.2-0.3,0.4-0.4c0.2-0.1,0.3-0.2,0.5-0.3c0.1,0,0.4-0.1,0.7-0.1
							c0.6-0.1,1.1-0.2,1.4-0.3c0-0.1,0-0.2,0-0.2c0-0.3-0.1-0.5-0.2-0.7c-0.2-0.2-0.5-0.3-0.9-0.3c-0.4,0-0.6,0.1-0.8,0.2
							s-0.3,0.3-0.4,0.7l-0.7-0.1c0.1-0.3,0.2-0.6,0.3-0.8c0.2-0.2,0.4-0.3,0.7-0.5s0.6-0.2,1-0.2c0.4,0,0.7,0,0.9,0.1
							c0.2,0.1,0.4,0.2,0.5,0.3c0.1,0.1,0.2,0.3,0.2,0.5c0,0.1,0,0.4,0,0.7v1c0,0.7,0,1.2,0,1.3c0,0.2,0.1,0.4,0.2,0.5H41
							C40.9,153.1,40.9,152.9,40.9,152.7 M40.8,151c-0.3,0.1-0.7,0.2-1.2,0.3c-0.3,0-0.5,0.1-0.7,0.2c-0.1,0.1-0.2,0.1-0.3,0.3
							c-0.1,0.1-0.1,0.2-0.1,0.4c0,0.2,0.1,0.4,0.2,0.5c0.2,0.1,0.4,0.2,0.7,0.2s0.6-0.1,0.8-0.2s0.4-0.3,0.5-0.5
							c0.1-0.2,0.1-0.4,0.1-0.8C40.8,151.2,40.8,151,40.8,151z"/>
						<path class="st3" d="M45.7,153.2v-0.6c-0.3,0.4-0.7,0.7-1.3,0.7c-0.4,0-0.7-0.1-1-0.3c-0.3-0.2-0.5-0.5-0.7-0.8
							c-0.2-0.4-0.2-0.8-0.2-1.2s0.1-0.9,0.2-1.2s0.4-0.6,0.7-0.8c0.3-0.2,0.6-0.3,1-0.3c0.3,0,0.5,0.1,0.7,0.2
							c0.2,0.1,0.4,0.3,0.5,0.4V147h0.8v6.2L45.7,153.2L45.7,153.2z M43.3,151c0,0.6,0.1,1,0.4,1.3c0.2,0.3,0.5,0.4,0.9,0.4
							s0.6-0.1,0.8-0.4c0.2-0.3,0.4-0.7,0.4-1.2c0-0.6-0.1-1.1-0.4-1.4c-0.2-0.3-0.5-0.4-0.9-0.4s-0.6,0.1-0.8,0.4
							C43.4,149.9,43.3,150.4,43.3,151"/>
						<path class="st3" d="M50.7,151.8l0.8,0.1c-0.1,0.5-0.4,0.8-0.7,1.1c-0.3,0.3-0.8,0.4-1.3,0.4c-0.7,0-1.2-0.2-1.6-0.6
							s-0.6-1-0.6-1.7s0.2-1.3,0.6-1.8c0.4-0.4,0.9-0.6,1.5-0.6c0.6,0,1.1,0.2,1.5,0.6c0.4,0.4,0.6,1,0.6,1.7c0,0,0,0.1,0,0.2h-3.4
							c0,0.5,0.2,0.9,0.4,1.1c0.3,0.3,0.6,0.4,0.9,0.4c0.3,0,0.5-0.1,0.7-0.2C50.4,152.3,50.6,152.1,50.7,151.8 M48.2,150.5h2.5
							c0-0.4-0.1-0.7-0.3-0.9c-0.2-0.3-0.6-0.4-0.9-0.4c-0.4,0-0.6,0.1-0.9,0.4C48.3,149.8,48.2,150.1,48.2,150.5"/>
						<path class="st3" d="M52.4,153.2v-4.5h0.7v0.7c0.2-0.3,0.3-0.5,0.5-0.6s0.3-0.2,0.5-0.2c0.3,0,0.5,0.1,0.8,0.2l-0.3,0.7
							c-0.2-0.1-0.4-0.2-0.6-0.2c-0.2,0-0.3,0.1-0.4,0.1c-0.1,0.1-0.2,0.2-0.3,0.4c-0.1,0.3-0.1,0.6-0.1,0.9v2.4H52.4L52.4,153.2z"
							/>
						<path class="st3" d="M58.3,152.7c-0.3,0.2-0.6,0.4-0.8,0.5s-0.5,0.1-0.8,0.1c-0.5,0-0.9-0.1-1.1-0.4c-0.3-0.2-0.4-0.5-0.4-0.9
							c0-0.2,0-0.4,0.1-0.6c0.1-0.2,0.2-0.3,0.4-0.4c0.2-0.1,0.3-0.2,0.5-0.3c0.1,0,0.4-0.1,0.7-0.1c0.6-0.1,1.1-0.2,1.4-0.3
							c0-0.1,0-0.2,0-0.2c0-0.3-0.1-0.5-0.2-0.7c-0.2-0.2-0.5-0.3-0.9-0.3c-0.4,0-0.6,0.1-0.8,0.2s-0.3,0.3-0.4,0.7l-0.7-0.1
							c0.1-0.3,0.2-0.6,0.3-0.8c0.2-0.2,0.4-0.3,0.7-0.5s0.6-0.2,1-0.2s0.7,0,0.9,0.1c0.2,0.1,0.4,0.2,0.5,0.3
							c0.1,0.1,0.2,0.3,0.2,0.5c0,0.1,0,0.4,0,0.7v1c0,0.7,0,1.2,0,1.3c0,0.2,0.1,0.4,0.2,0.5h-0.8
							C58.3,153.1,58.3,152.9,58.3,152.7 M58.2,151c-0.3,0.1-0.7,0.2-1.2,0.3c-0.3,0-0.5,0.1-0.7,0.2c-0.1,0.1-0.2,0.1-0.3,0.3
							c-0.1,0.1-0.1,0.2-0.1,0.4c0,0.2,0.1,0.4,0.2,0.5c0.2,0.1,0.4,0.2,0.7,0.2c0.3,0,0.6-0.1,0.8-0.2s0.4-0.3,0.5-0.5
							c0.1-0.2,0.1-0.4,0.1-0.8V151z"/>
						<polygon class="st3" points="62.6,153.2 62.6,147 63.4,147 63.4,152.5 66.5,152.5 66.5,153.2 						"/>
						<path class="st3" d="M67.6,148.2l0.6-1.2h1l-0.9,1.2H67.6z M67.7,148.7h0.8v4.5h-0.8V148.7z"/>
						<path class="st3" d="M69.8,153.2v-4.5h0.7v0.6c0.3-0.5,0.8-0.7,1.4-0.7c0.3,0,0.5,0,0.7,0.1c0.2,0.1,0.4,0.2,0.5,0.4
							c0.1,0.2,0.2,0.3,0.2,0.6c0,0.1,0,0.4,0,0.7v2.8h-0.8v-2.7c0-0.3,0-0.5-0.1-0.7c-0.1-0.2-0.2-0.3-0.3-0.4
							c-0.1-0.1-0.3-0.1-0.5-0.1c-0.3,0-0.6,0.1-0.8,0.3c-0.2,0.2-0.4,0.6-0.4,1.2v2.5L69.8,153.2L69.8,153.2z"/>
						<path class="st3" d="M77.7,151.8l0.8,0.1c-0.1,0.5-0.4,0.8-0.7,1.1c-0.3,0.3-0.8,0.4-1.3,0.4c-0.7,0-1.2-0.2-1.6-0.6
							c-0.4-0.4-0.6-1-0.6-1.7s0.2-1.3,0.6-1.8s0.9-0.6,1.5-0.6s1.1,0.2,1.5,0.6c0.4,0.4,0.6,1,0.6,1.7c0,0,0,0.1,0,0.2h-3.4
							c0,0.5,0.2,0.9,0.4,1.1c0.3,0.3,0.6,0.4,0.9,0.4c0.3,0,0.5-0.1,0.7-0.2C77.5,152.3,77.6,152.1,77.7,151.8 M75.2,150.5h2.5
							c0-0.4-0.1-0.7-0.3-0.9c-0.2-0.3-0.6-0.4-0.9-0.4c-0.4,0-0.6,0.1-0.9,0.4C75.4,149.8,75.3,150.1,75.2,150.5"/>
						<path class="st3" d="M82.4,152.7c-0.3,0.2-0.6,0.4-0.8,0.5s-0.5,0.1-0.8,0.1c-0.5,0-0.9-0.1-1.1-0.4c-0.3-0.2-0.4-0.5-0.4-0.9
							c0-0.2,0-0.4,0.1-0.6c0.1-0.2,0.2-0.3,0.4-0.4c0.2-0.1,0.3-0.2,0.5-0.3c0.1,0,0.4-0.1,0.7-0.1c0.6-0.1,1.1-0.2,1.4-0.3
							c0-0.1,0-0.2,0-0.2c0-0.3-0.1-0.5-0.2-0.7c-0.2-0.2-0.5-0.3-0.9-0.3c-0.4,0-0.6,0.1-0.8,0.2s-0.3,0.3-0.4,0.7l-0.7-0.1
							c0.1-0.3,0.2-0.6,0.3-0.8c0.2-0.2,0.4-0.3,0.7-0.5s0.6-0.2,1-0.2s0.7,0,0.9,0.1c0.2,0.1,0.4,0.2,0.5,0.3
							c0.1,0.1,0.2,0.3,0.2,0.5c0,0.1,0,0.4,0,0.7v1c0,0.7,0,1.2,0,1.3c0,0.2,0.1,0.4,0.2,0.5h-0.8
							C82.5,153.1,82.4,152.9,82.4,152.7 M82.3,151c-0.3,0.1-0.7,0.2-1.2,0.3c-0.3,0-0.5,0.1-0.7,0.2c-0.1,0.1-0.2,0.1-0.3,0.3
							c-0.1,0.1-0.1,0.2-0.1,0.4c0,0.2,0.1,0.4,0.2,0.5c0.2,0.1,0.4,0.2,0.7,0.2s0.6-0.1,0.8-0.2c0.2-0.1,0.4-0.3,0.5-0.5
							c0.1-0.2,0.1-0.4,0.1-0.8C82.3,151.2,82.3,151,82.3,151z"/>
						<polygon class="st3" points="30.8,161.6 30.8,155.3 31.6,155.3 31.6,157.9 34.9,157.9 34.9,155.3 35.7,155.3 35.7,161.6 
							34.9,161.6 34.9,158.6 31.6,158.6 31.6,161.6 						"/>
						<path class="st3" d="M36.7,159.3c0-0.8,0.2-1.5,0.7-1.9c0.4-0.3,0.9-0.5,1.4-0.5c0.6,0,1.1,0.2,1.5,0.6c0.4,0.4,0.6,1,0.6,1.7
							c0,0.6-0.1,1-0.3,1.4c-0.2,0.3-0.4,0.6-0.8,0.8c-0.3,0.2-0.7,0.3-1.1,0.3c-0.6,0-1.1-0.2-1.5-0.6
							C36.9,160.6,36.7,160.1,36.7,159.3 M37.5,159.3c0,0.6,0.1,1,0.4,1.3s0.6,0.4,1,0.4c0.4,0,0.7-0.1,0.9-0.4
							c0.3-0.3,0.4-0.7,0.4-1.3c0-0.6-0.1-1-0.4-1.3s-0.6-0.4-0.9-0.4s-0.7,0.1-1,0.4C37.6,158.3,37.4,158.7,37.5,159.3"/>
						<path class="st3" d="M41.6,161.9l0.7,0.1c0,0.2,0.1,0.4,0.3,0.5c0.2,0.1,0.4,0.2,0.8,0.2c0.4,0,0.6-0.1,0.8-0.2
							c0.2-0.1,0.3-0.3,0.4-0.6c0-0.2,0.1-0.5,0.1-1c-0.3,0.4-0.7,0.6-1.2,0.6c-0.6,0-1.1-0.2-1.4-0.7c-0.3-0.4-0.5-1-0.5-1.6
							c0-0.4,0.1-0.8,0.2-1.2c0.2-0.4,0.4-0.6,0.7-0.8c0.3-0.2,0.6-0.3,1-0.3c0.5,0,1,0.2,1.3,0.6V157h0.7v3.9
							c0,0.7-0.1,1.2-0.2,1.5c-0.1,0.3-0.4,0.5-0.7,0.7c-0.3,0.2-0.7,0.3-1.1,0.3c-0.5,0-1-0.1-1.3-0.4
							C41.8,162.8,41.6,162.4,41.6,161.9 M42.3,159.2c0,0.6,0.1,1,0.4,1.3c0.2,0.3,0.5,0.4,0.9,0.4s0.6-0.1,0.9-0.4
							c0.2-0.3,0.4-0.7,0.4-1.3c0-0.6-0.1-1-0.4-1.2c-0.2-0.3-0.5-0.4-0.9-0.4c-0.3,0-0.6,0.1-0.9,0.4
							C42.4,158.3,42.3,158.7,42.3,159.2"/>
						<path class="st3" d="M49.6,161c-0.3,0.2-0.6,0.4-0.8,0.5c-0.3,0.1-0.5,0.1-0.8,0.1c-0.5,0-0.9-0.1-1.1-0.4
							c-0.3-0.2-0.4-0.5-0.4-0.9c0-0.2,0-0.4,0.1-0.6c0.1-0.2,0.2-0.3,0.4-0.4c0.2-0.1,0.3-0.2,0.5-0.3c0.1,0,0.4-0.1,0.7-0.1
							c0.6-0.1,1.1-0.2,1.4-0.3c0-0.1,0-0.2,0-0.2c0-0.3-0.1-0.5-0.2-0.7c-0.2-0.2-0.5-0.3-0.9-0.3c-0.4,0-0.6,0.1-0.8,0.2
							s-0.3,0.3-0.4,0.7l-0.7-0.1c0.1-0.3,0.2-0.6,0.3-0.8c0.2-0.2,0.4-0.3,0.7-0.5s0.6-0.2,1-0.2s0.7,0,0.9,0.1
							c0.2,0.1,0.4,0.2,0.5,0.3c0.1,0.1,0.2,0.3,0.2,0.5c0,0.1,0,0.4,0,0.7v1c0,0.7,0,1.2,0,1.3c0,0.2,0.1,0.4,0.2,0.5h-0.8
							C49.6,161.4,49.6,161.2,49.6,161 M49.5,159.3c-0.3,0.1-0.7,0.2-1.2,0.3c-0.3,0-0.5,0.1-0.7,0.2c-0.1,0.1-0.2,0.1-0.3,0.3
							c-0.1,0.1-0.1,0.2-0.1,0.4c0,0.2,0.1,0.4,0.2,0.5c0.2,0.1,0.4,0.2,0.7,0.2s0.6-0.1,0.8-0.2s0.4-0.3,0.5-0.5
							c0.1-0.2,0.1-0.4,0.1-0.8V159.3L49.5,159.3z"/>
						<path class="st3" d="M51.4,161.6V157h0.7v0.7c0.2-0.3,0.3-0.5,0.5-0.6c0.1-0.1,0.3-0.2,0.5-0.2c0.3,0,0.5,0.1,0.8,0.2
							l-0.3,0.7c-0.2-0.1-0.4-0.2-0.6-0.2c-0.2,0-0.3,0.1-0.4,0.1c-0.1,0.1-0.2,0.2-0.3,0.4c-0.1,0.3-0.1,0.6-0.1,0.9v2.4
							L51.4,161.6L51.4,161.6z"/>
						<rect x="30.1" y="127.7" class="st3" width="55.6" height="0.4"/>
						<rect x="30.1" y="164.1" class="st3" width="55.6" height="0.4"/>
					</g>
				</g>
			</g>
		</g>
	</g>
	<g id="Ilustración_35">
		<g>
			<defs>
				<rect id="SVGID_00000139251305919341865500000000918017467489054629_" x="88.9" y="29.8" width="83.4" height="83.4"/>
			</defs>
			<clipPath id="SVGID_00000035499413110967585140000016805443267751601294_">
				<use xlink:href="#SVGID_00000139251305919341865500000000918017467489054629_"  style="overflow:visible;"/>
			</clipPath>
			<g style="clip-path:url(#SVGID_00000035499413110967585140000016805443267751601294_);">
				<g>
					<defs>
						<rect id="SVGID_00000098907717814441329590000017393998999026825630_" x="88.9" y="29.8" width="83.4" height="83.4"/>
					</defs>
					<clipPath id="SVGID_00000003078407469754377590000010979409537323857325_">
						<use xlink:href="#SVGID_00000098907717814441329590000017393998999026825630_"  style="overflow:visible;"/>
					</clipPath>
					<g style="clip-path:url(#SVGID_00000003078407469754377590000010979409537323857325_);">
						<path class="st6" d="M172.3,71.5c0-23-18.7-41.7-41.7-41.7S88.9,48.5,88.9,71.5s18.7,41.7,41.7,41.7S172.3,94.6,172.3,71.5"/>
						<path class="st7" d="M130.9,32.6c25.9-0.2,38.9,24.1,38.5,35.9c0,0.2,0.3,0.4,0.2,0.4h-12c-0.6-14.2-14.4-25.2-26.5-25
							c-15.8,0.3-26.4,12.2-27.9,25H91.5c-0.1,0-0.2-0.2-0.2-0.4C94.2,51,105.9,32.8,130.9,32.6"/>
						<path class="st6" d="M156.4,55.7l0.5,1c0.2,0.3,0.3,0.5,0.4,0.7c0.1,0.1,0.3,0.2,0.4,0.3c0.2,0.1,0.5,0.1,0.7,0
							c0.3,0,0.6-0.1,0.9-0.3c0.5-0.2,0.8-0.5,1-0.8c0.2-0.3,0.3-0.6,0.2-0.8c0-0.2-0.1-0.5-0.3-0.8l-0.5-1
							C159.9,54,156.4,55.7,156.4,55.7z M155.6,55.4l4.5-2.3l0.8,1.6c0.2,0.4,0.3,0.6,0.3,0.8c0.1,0.3,0.1,0.6,0,0.8
							c-0.1,0.3-0.2,0.7-0.5,0.9c-0.3,0.3-0.6,0.5-1,0.7c-0.3,0.2-0.7,0.3-1,0.3c-0.3,0.1-0.6,0.1-0.8,0c-0.2,0-0.4-0.1-0.6-0.2
							c-0.2-0.1-0.3-0.2-0.5-0.4s-0.3-0.4-0.4-0.7L155.6,55.4L155.6,55.4z M150.2,48.7l3.5-3.7l2.6,2.6L156,48l-2.2-2.1l-1.1,1.1
							l2,2l-0.4,0.4l-2-2l-1.2,1.2l2.2,2.2l-0.4,0.4L150.2,48.7L150.2,48.7z M145.4,45.3l2.5-4.4l0.6,0.3l-2.5,4.4L145.4,45.3
							L145.4,45.3z M137.7,42.2l1.5-4.9l3.3,1l-0.2,0.6l-2.6-0.8l-0.5,1.5l2.3,0.7l-0.2,0.6l-2.3-0.7l-0.7,2.2L137.7,42.2
							L137.7,42.2z M131.9,41.5l0.4-5.1l0.7,0l-0.4,5.1L131.9,41.5z M124.8,42l-0.7-4.4l-1.7,0.3l-0.1-0.6l4-0.6l0.1,0.6l-1.7,0.3
							l0.7,4.4L124.8,42z M114.6,42.8l1.3-0.7c0.3-0.1,0.5-0.3,0.6-0.4c0.1-0.1,0.2-0.3,0.2-0.5s0-0.3-0.1-0.5
							c-0.1-0.2-0.3-0.3-0.5-0.4c-0.2-0.1-0.5,0-0.8,0.2l-1.4,0.8L114.6,42.8L114.6,42.8z M115.3,45.6l-2.4-4.5l2-1.1
							c0.4-0.2,0.7-0.3,1-0.4c0.3,0,0.5,0,0.7,0.2c0.2,0.1,0.4,0.3,0.5,0.6c0.2,0.3,0.2,0.6,0.1,1c-0.1,0.3-0.3,0.6-0.7,0.9
							c0.2,0,0.4,0,0.5,0c0.3,0.1,0.5,0.2,0.8,0.3l1.4,0.8l-0.7,0.4l-1.1-0.6c-0.3-0.2-0.6-0.3-0.8-0.4s-0.3-0.1-0.5-0.1
							c-0.1,0-0.2,0-0.3,0c-0.1,0-0.2,0.1-0.3,0.2l-0.7,0.4l1.1,2L115.3,45.6L115.3,45.6z M108.7,51.2l-3.5-3.7l2.6-2.6l0.4,0.4
							l-2.2,2.1l1.1,1.1l2-2l0.4,0.4l-2,2l1.2,1.2l2.2-2.2l0.4,0.4L108.7,51.2L108.7,51.2z M104.1,54.9l0.5-0.5
							c0.4,0.4,0.7,0.8,0.8,1.3c0.1,0.5,0,0.9-0.2,1.4c-0.2,0.5-0.5,0.8-0.9,1c-0.4,0.2-0.8,0.3-1.2,0.3c-0.5,0-0.9-0.2-1.3-0.4
							c-0.5-0.2-0.8-0.5-1.1-0.9c-0.3-0.4-0.4-0.8-0.4-1.2s0.1-0.8,0.3-1.2c0.2-0.5,0.5-0.8,0.9-1c0.4-0.2,0.8-0.2,1.3-0.1l-0.2,0.7
							c-0.4-0.1-0.7,0-1,0.1c-0.3,0.1-0.5,0.3-0.6,0.6c-0.2,0.3-0.2,0.7-0.2,1c0,0.3,0.2,0.6,0.4,0.8c0.2,0.2,0.5,0.4,0.8,0.6
							c0.4,0.2,0.8,0.3,1.1,0.3c0.3,0,0.7,0,0.9-0.2c0.3-0.2,0.5-0.4,0.6-0.7c0.2-0.3,0.2-0.7,0.1-1
							C104.6,55.5,104.4,55.2,104.1,54.9"/>
						<path class="st7" d="M130.1,110.5c-25.9,0.2-38.9-24.1-38.5-35.9c0-0.2-0.3-0.4-0.2-0.4h12c0.6,14.2,14.4,25.2,26.5,25
							c15.8-0.3,26.4-12.2,27.9-25h11.6c0.1,0,0.2,0.2,0.2,0.4C166.9,92.1,155.1,110.3,130.1,110.5"/>
						<rect x="91.4" y="70.8" class="st3" width="11.8" height="1.7"/>
						<rect x="158" y="70.8" class="st3" width="11.8" height="1.7"/>
						<path class="st6" d="M161.3,88.6l-4.8-1.7l0.3-1l3.8,0.1c0.4,0,0.6,0,0.8,0c-0.2-0.1-0.4-0.3-0.7-0.5l-2.9-2.4l0.3-0.8L163,84
							l-0.2,0.6l-4-1.5l3.5,2.8l-0.2,0.6l-4.6-0.1l4.1,1.5L161.3,88.6L161.3,88.6z M159.1,92.7l-4.4-2.5l1.8-3.2l0.5,0.3l-1.5,2.6
							l1.4,0.8l1.4-2.5l0.5,0.3l-1.4,2.5l1.5,0.8l1.5-2.7l0.5,0.3L159.1,92.7L159.1,92.7z M157.1,95.4l-3.6-2.7l-1,1.3l-0.5-0.4
							l2.4-3.2l0.5,0.4l-1,1.3l3.6,2.7L157.1,95.4L157.1,95.4z M151.6,98.8l0.4-0.5c0.2,0.2,0.4,0.3,0.6,0.3c0.2,0,0.4,0,0.6-0.1
							c0.2-0.1,0.5-0.2,0.7-0.4c0.2-0.2,0.3-0.4,0.4-0.6c0.1-0.2,0.1-0.4,0.1-0.5c0-0.2-0.1-0.3-0.2-0.4c-0.1-0.1-0.2-0.2-0.4-0.2
							c-0.1,0-0.3,0-0.5,0.1c-0.1,0.1-0.4,0.2-0.8,0.5s-0.7,0.4-0.9,0.5c-0.3,0.1-0.5,0.1-0.7,0s-0.4-0.2-0.6-0.3
							c-0.2-0.2-0.3-0.4-0.4-0.7c-0.1-0.3,0-0.5,0.1-0.8c0.1-0.3,0.3-0.5,0.5-0.8c0.3-0.3,0.5-0.5,0.8-0.6c0.3-0.1,0.6-0.1,0.8-0.1
							c0.3,0.1,0.5,0.2,0.7,0.4l-0.4,0.5c-0.3-0.2-0.5-0.3-0.8-0.3c-0.3,0-0.5,0.2-0.8,0.5c-0.3,0.3-0.4,0.5-0.5,0.8
							c0,0.2,0,0.4,0.2,0.6c0.1,0.1,0.3,0.2,0.5,0.2c0.2,0,0.5-0.2,1-0.5c0.5-0.3,0.8-0.5,1-0.6c0.3-0.1,0.6-0.1,0.8-0.1
							c0.2,0,0.5,0.2,0.7,0.4c0.2,0.2,0.3,0.4,0.4,0.7c0.1,0.3,0,0.6-0.1,0.9c-0.1,0.3-0.3,0.6-0.5,0.8c-0.3,0.3-0.6,0.5-1,0.7
							c-0.3,0.1-0.6,0.2-0.9,0.1C152.1,99.2,151.8,99,151.6,98.8 M150.2,101.8l-1.3-1.7l-3.3-1.2l0.7-0.5l1.7,0.6
							c0.3,0.1,0.6,0.2,0.9,0.4c0-0.3-0.1-0.7-0.1-1.1l-0.1-1.8l0.6-0.5l0.1,3.6l1.3,1.7L150.2,101.8L150.2,101.8z M143.9,103.5
							l0.5-0.3c0.1,0.2,0.3,0.4,0.5,0.5s0.4,0.1,0.6,0.1c0.3,0,0.5-0.1,0.8-0.2c0.2-0.1,0.4-0.3,0.5-0.4c0.1-0.2,0.2-0.3,0.2-0.5
							c0-0.2,0-0.3-0.1-0.5c-0.1-0.1-0.2-0.2-0.3-0.3c-0.1-0.1-0.3-0.1-0.5,0c-0.1,0-0.5,0.1-0.9,0.2c-0.5,0.1-0.8,0.2-1,0.2
							c-0.3,0-0.5-0.1-0.7-0.2c-0.2-0.1-0.3-0.3-0.5-0.5c-0.1-0.2-0.2-0.5-0.1-0.7c0-0.3,0.1-0.5,0.3-0.7c0.2-0.2,0.4-0.4,0.7-0.6
							c0.3-0.2,0.7-0.3,1-0.3c0.3,0,0.6,0,0.8,0.2c0.2,0.1,0.4,0.3,0.6,0.6l-0.5,0.3c-0.2-0.3-0.4-0.4-0.7-0.5
							c-0.3-0.1-0.6,0-0.9,0.2c-0.4,0.2-0.6,0.4-0.7,0.6c-0.1,0.2-0.1,0.4,0,0.6c0.1,0.2,0.2,0.3,0.4,0.3c0.2,0,0.5,0,1.1-0.2
							c0.5-0.1,0.9-0.2,1.1-0.2c0.3,0,0.6,0,0.8,0.1c0.2,0.1,0.4,0.3,0.5,0.5c0.1,0.2,0.2,0.5,0.2,0.8c0,0.3-0.1,0.6-0.3,0.8
							c-0.2,0.3-0.5,0.5-0.8,0.6c-0.4,0.2-0.8,0.3-1.1,0.4c-0.3,0-0.6,0-0.9-0.2C144.3,104,144.1,103.8,143.9,103.5 M135.5,107.5
							l-0.7-4.4l-1.7,0.3l-0.1-0.6l4-0.6l0.1,0.6l-1.7,0.3l0.7,4.4L135.5,107.5L135.5,107.5z M129.1,107.9l-0.2-5.1l0.7,0l2.8,3.9
							l-0.1-4l0.6,0l0.2,5.1l-0.7,0l-2.8-3.9l0.1,4L129.1,107.9L129.1,107.9z M124.4,107.3l0.6-5l3.7,0.4l-0.1,0.6l-3-0.4l-0.2,1.5
							l2.8,0.3l-0.1,0.6l-2.8-0.3l-0.2,1.7l3.1,0.4l-0.1,0.6L124.4,107.3L124.4,107.3z M118.6,105.9l1.3-4.9l1,0.3l0.2,3.8
							c0,0.4,0,0.6,0,0.8c0.1-0.2,0.3-0.4,0.5-0.7l2.1-3.1l0.9,0.2l-1.3,4.9l-0.6-0.2l1.1-4.1l-2.5,3.7l-0.6-0.2l-0.3-4.6l-1.1,4.2
							L118.6,105.9L118.6,105.9z M114,103.8l2.2-4.6l3.3,1.6l-0.3,0.5l-2.7-1.3l-0.7,1.4l2.5,1.2l-0.3,0.5l-2.5-1.2l-0.8,1.6
							l2.8,1.4l-0.3,0.5L114,103.8L114,103.8z M112.4,100.4l0.3-0.5l1.8,1.2l-1.1,1.6c-0.4,0-0.8,0-1.2-0.1c-0.4-0.1-0.7-0.2-1-0.4
							c-0.4-0.3-0.7-0.6-1-1s-0.3-0.8-0.2-1.3c0.1-0.5,0.2-0.9,0.5-1.3c0.3-0.4,0.6-0.7,1-1c0.4-0.2,0.8-0.3,1.3-0.3
							c0.4,0,0.9,0.2,1.3,0.5c0.3,0.2,0.5,0.4,0.7,0.7c0.2,0.3,0.3,0.5,0.3,0.8s0,0.6-0.1,0.9l-0.6-0.2c0.1-0.3,0.1-0.5,0.1-0.7
							c0-0.2-0.1-0.4-0.2-0.6c-0.1-0.2-0.3-0.4-0.5-0.5c-0.3-0.2-0.5-0.3-0.7-0.3c-0.2,0-0.5,0-0.7,0c-0.2,0.1-0.4,0.1-0.5,0.2
							c-0.3,0.2-0.5,0.4-0.7,0.7c-0.3,0.4-0.4,0.7-0.4,1.1c0,0.3,0,0.7,0.2,0.9c0.2,0.3,0.4,0.5,0.7,0.7c0.2,0.2,0.5,0.3,0.8,0.3
							c0.3,0.1,0.5,0.1,0.7,0.1l0.5-0.8L112.4,100.4L112.4,100.4z M107.8,96.7l1.3,1.2l0.5-1.4c0.2-0.4,0.3-0.8,0.4-1
							c-0.3,0.2-0.5,0.4-0.9,0.5L107.8,96.7L107.8,96.7z M105.4,97.3l4.9-2.5l0.5,0.5l-1.9,5.2l-0.6-0.5l0.6-1.5l-1.6-1.4l-1.4,0.8
							L105.4,97.3L105.4,97.3z M102.6,93.6l4-3.1l0.4,0.5l-1.5,4.6l3.1-2.5l0.4,0.5l-4,3.1l-0.4-0.5l1.5-4.6l-3.1,2.5L102.6,93.6
							L102.6,93.6z M102.4,89.3l0.8,1.5l1-1.1c0.3-0.3,0.5-0.6,0.7-0.8c-0.3,0.1-0.6,0.2-1,0.2L102.4,89.3L102.4,89.3z M99.9,89
							l5.4-0.8l0.4,0.6l-3.4,4.3l-0.4-0.7l1.1-1.3l-1-1.9l-1.6,0.3L99.9,89L99.9,89z M98,84l4.8-1.7l0.3,1l-3,2.4
							c-0.3,0.2-0.5,0.4-0.6,0.5c0.2,0,0.5,0,0.9,0l3.7-0.1l0.3,0.9l-4.8,1.7l-0.2-0.6l4-1.5l-4.5,0.1L98.7,86l3.6-2.9l-4.1,1.5
							L98,84L98,84z"/>
						<rect x="106" y="62.8" class="st3" width="49.1" height="1.7"/>
						<rect x="106" y="80.4" class="st3" width="48.9" height="1.3"/>
						<rect x="109.3" y="66.9" class="st3" width="2.4" height="10.5"/>
						<path class="st7" d="M126.2,66.9h2.3l5.5,6.2v-6.2h2.5v10.5h-2.1c-0.2-0.3-0.6-0.7-1.1-1.2c-0.5-0.6-1-1.1-1.5-1.7
							c-0.5-0.6-1.1-1.3-1.9-2.2c-0.8-0.9-1.2-1.3-1.2-1.3v6.5h-2.6L126.2,66.9L126.2,66.9z"/>
						<path class="st7" d="M149,66.9h0.3v2.5h2.8v1.7h-2.8v2.8c0,0.4,0,0.7,0.1,0.9c0,0.2,0.1,0.5,0.3,0.6c0.2,0.2,0.4,0.3,0.8,0.3
							c0.3,0,0.5,0,0.6-0.1c0.2-0.1,0.5-0.2,1-0.4V77c-0.3,0.1-0.6,0.2-0.8,0.3c-0.2,0.1-0.4,0.1-0.6,0.2c-0.2,0-0.5,0.1-0.8,0.1
							c-1,0-1.7-0.3-2.2-0.8s-0.7-1.3-0.7-2.3v-3.3h-1.2v-0.5L149,66.9L149,66.9z"/>
						<path class="st7" d="M141.7,70.6c-0.5,0-0.8,0.2-1.2,0.5c-0.3,0.3-0.5,0.7-0.6,1.2h3.5c0-0.5-0.2-0.9-0.5-1.2
							C142.6,70.8,142.2,70.6,141.7,70.6 M141.6,69.1c0.8,0,1.5,0.1,2,0.4c0.5,0.3,1,0.7,1.3,1.1c0.3,0.5,0.5,1,0.6,1.5
							c0.1,0.5,0.2,1,0.2,1.6H140c0.1,0.7,0.3,1.3,0.8,1.6c0.4,0.4,1.1,0.6,1.8,0.6c1,0,2-0.4,2.9-1.1v1.6c-1,0.7-2.2,1.1-3.7,1.1
							c-0.9,0-1.6-0.2-2.3-0.5c-0.7-0.3-1.2-0.8-1.6-1.5c-0.4-0.6-0.5-1.4-0.5-2.2s0.2-1.6,0.6-2.2s0.9-1.1,1.5-1.5
							C140.1,69.2,140.8,69.1,141.6,69.1"/>
						<polygon class="st7" points="123.6,71 123.9,71.8 124.7,71.8 124.1,72.3 124.4,73.1 123.6,72.6 122.9,73.1 123.2,72.3 
							122.5,71.8 123.4,71.8 						"/>
						<polygon class="st7" points="123.1,73.3 123.4,74.1 124.2,74.1 123.6,74.6 123.8,75.4 123.1,74.9 122.4,75.4 122.7,74.6 
							122,74.1 122.8,74.1 						"/>
						<polygon class="st7" points="121.3,75.1 121.6,75.9 122.4,75.9 121.7,76.4 122,77.2 121.3,76.7 120.6,77.2 120.8,76.4 
							120.2,75.9 121,75.9 						"/>
						<polygon class="st7" points="119.7,72.9 120,73.7 120.8,73.7 120.2,74.2 120.4,75 119.7,74.5 119,75 119.2,74.2 118.6,73.7 
							119.4,73.7 						"/>
						<polygon class="st7" points="122.7,77.1 123,77.9 123.8,77.9 123.2,78.4 123.4,79.2 122.7,78.7 122,79.2 122.3,78.4 
							121.6,77.9 122.4,77.9 						"/>
						<polygon class="st7" points="118.7,75.9 119,76.8 119.8,76.8 119.2,77.2 119.4,78 118.7,77.5 118,78 118.3,77.2 117.6,76.8 
							118.4,76.8 						"/>
						<polygon class="st7" points="116.4,75.1 116.7,75.9 117.5,75.9 116.8,76.4 117.1,77.2 116.4,76.7 115.7,77.2 115.9,76.4 
							115.3,75.9 116.1,75.9 						"/>
						<polygon class="st7" points="114.6,73.4 114.9,74.2 115.7,74.2 115.1,74.7 115.3,75.4 114.6,75 113.9,75.4 114.1,74.7 
							113.5,74.2 114.3,74.2 						"/>
						<polygon class="st7" points="114.1,71 114.4,71.8 115.2,71.8 114.5,72.3 114.8,73 114.1,72.6 113.3,73 113.6,72.3 113,71.8 
							113.8,71.8 						"/>
						<polygon class="st7" points="114.7,68.6 115,69.4 115.8,69.4 115.2,69.9 115.4,70.7 114.7,70.2 114,70.7 114.2,69.9 
							113.6,69.4 114.4,69.4 						"/>
						<polygon class="st7" points="116.4,66.8 116.7,67.6 117.5,67.6 116.8,68.1 117.1,68.9 116.4,68.4 115.7,68.9 115.9,68.1 
							115.3,67.6 116.1,67.6 						"/>
						<polygon class="st7" points="118.8,66.2 119.2,67 119.9,67 119.3,67.5 119.6,68.3 118.8,67.8 118.1,68.3 118.4,67.5 117.8,67 
							118.5,67 						"/>
						<polygon class="st7" points="121.4,66.7 121.7,67.5 122.5,67.5 121.9,68 122.1,68.8 121.4,68.3 120.7,68.8 121,68 120.3,67.5 
							121.1,67.5 						"/>
						<polygon class="st7" points="122.9,68.6 123.2,69.4 124,69.4 123.4,69.9 123.6,70.6 122.9,70.2 122.2,70.6 122.4,69.9 
							121.8,69.4 122.6,69.4 						"/>
					</g>
				</g>
			</g>
		</g>
	</g>
</g>
</svg>
