<?xml version="1.0" encoding="utf-8"?>
<!-- Generator: Adobe Illustrator 27.0.0, SVG Export Plug-In . SVG Version: 6.00 Build 0)  -->
<svg version="1.1" id="Capa_1" xmlns="http://www.w3.org/2000/svg" xmlns:xlink="http://www.w3.org/1999/xlink" x="0px" y="0px"
	 viewBox="0 0 40 15" style="enable-background:new 0 0 40 15;" xml:space="preserve">
<style type="text/css">
	.st0{fill-rule:evenodd;clip-rule:evenodd;fill:#4E7EFF;}
</style>
<g>
	<path class="st0" d="M36.2,14.8h3.2V5.3h-3.2V14.8z"/>
	<path class="st0" d="M39.9,2.1C39.9,0.9,39,0,37.8,0c-1.1,0-2.1,0.9-2.1,2.1c0,1.1,0.9,2.1,2.1,2.1C39,4.1,39.9,3.2,39.9,2.1z"/>
	<path class="st0" d="M29.4,11.8c-1.2,0-2.2-1-2.2-2.2s1-2.2,2.2-2.2s2.2,1,2.2,2.2S30.6,11.8,29.4,11.8z M34.8,9.6v-9h-3.2v4.2
		c-0.6-0.4-1.4-0.6-2.2-0.6c-3,0-5.4,2.4-5.4,5.4s2.4,5.4,5.4,5.4C32.3,15,34.8,12.8,34.8,9.6z"/>
	<path class="st0" d="M17.5,11.8c-1.2,0-2.2-1-2.2-2.2s1-2.2,2.2-2.2s2.2,1,2.2,2.2S18.7,11.8,17.5,11.8z M22.9,9.6v-9h-3.2v4.2
		c-0.6-0.4-1.4-0.6-2.2-0.6c-3,0-5.4,2.4-5.4,5.4s2.4,5.4,5.4,5.4C20.4,15,22.9,12.8,22.9,9.6z"/>
	<path class="st0" d="M5.5,6.9c-1,0-1.9,0.6-2.2,1.5v-3c0-1.2,1-2.2,2.2-2.2s2.2,1,2.2,2.2v3C7.4,7.5,6.6,6.9,5.5,6.9z M7.8,10.2
		v4.6H11v-9c0-0.1,0-0.1,0-0.2C11,2.4,8.5,0,5.5,0S0.1,2.4,0.1,5.4v9.3h3.2v-4.6c0.3,0.9,1.2,1.6,2.2,1.6
		C6.5,11.7,7.4,11.1,7.8,10.2L7.8,10.2z"/>
</g>
</svg>
