<?xml version="1.0" encoding="utf-8"?>
<!-- Generator: Adobe Illustrator 27.0.0, SVG Export Plug-In . SVG Version: 6.00 Build 0)  -->
<svg version="1.1" id="Capa_1" xmlns="http://www.w3.org/2000/svg" xmlns:xlink="http://www.w3.org/1999/xlink" x="0px" y="0px"
	 viewBox="0 0 116 15" style="enable-background:new 0 0 116 15;" xml:space="preserve">
<style type="text/css">
	.st0{fill:#080808;}
	.st1{fill:#060606;}
	.st2{fill:#070707;}
	.st3{fill:#090909;}
	.st4{fill:#161616;}
</style>
<g>
	<path class="st0" d="M115.8,11.8c-1.4,0.5-2.9,0.9-4.4,0.9c-2,0-3.3-0.8-3.5-2.2c-0.2-1.5,0.9-2.7,2.8-3.1c0.5-0.1,1-0.1,1.5-0.2
		c0.3-0.1,0.8,0.2,0.8-0.4c0-0.5-0.3-0.8-0.8-0.9c-0.7-0.2-1.4,0-2.1,0.1c-0.5,0-1,0-1.2-0.5c-0.4-0.7-0.5-1.2,0.5-1.4
		c1.3-0.3,2.6-0.4,3.9-0.2c1.2,0.2,1.8,1.1,2.4,2.1C115.8,7.8,115.8,9.8,115.8,11.8z M111.8,10.7c0.7-0.1,1.5,0,1.4-1.1
		c0-0.6-0.2-0.9-0.8-0.8c-0.7,0.2-1.7-0.1-1.9,1C110.4,10.7,111.2,10.6,111.8,10.7z"/>
	<path class="st1" d="M0,8.2c3.9-1.8,8-2.8,12.2-3.5c0.5-0.1,1-0.3,1.3,0.2c0.4,0.7,0.7,1.4,0.7,2.2c0,0.3-0.4,0.3-0.7,0.4
		C9.4,8.2,5.3,9.3,1.5,11c-0.6,0.3-0.9,0.2-1.1-0.5C0.3,10.2,0.5,9.7,0,9.4C0,9,0,8.6,0,8.2z"/>
	<path class="st1" d="M78.8,8.5c0-1,0-2,0-3c0-0.6,0.2-1,0.7-1.2c1.8-0.7,3.7-1.1,5.5-0.1c0.4,0.2,0.6,0.2,1,0
		c0.5-0.2,1-0.4,1.5-0.5c3-0.6,4.6,0.7,4.6,3.7c0,1.4-0.1,2.8,0,4.1c0.1,1.1-0.6,0.9-1.2,0.9s-1.4,0.4-1.4-0.8c0.1-1.5,0-2.9,0-4.4
		c0-0.6-0.2-1-0.7-1.2c-0.6-0.3-1.3-0.2-1.9,0c-0.4,0.2-0.2,0.5-0.2,0.8c0,1.6,0,3.2,0.1,4.7c0.1,1.2-0.7,0.9-1.4,0.9
		c-0.6,0-1.3,0.2-1.2-0.9c0.1-1.3,0-2.7,0-4c0-1.4-0.9-2-2.2-1.7c-0.6,0.1-0.6,0.5-0.6,0.9c0,1.5-0.1,3,0,4.5
		c0.1,1.2-0.5,1.2-1.4,1.2c-1.1,0-1.3-0.4-1.2-1.3C78.8,10.3,78.8,9.4,78.8,8.5L78.8,8.5z"/>
	<path class="st1" d="M24.7,6.2c1.5,0.5,2.1,1.4,2.1,2.7c0,1.4-0.7,2.3-1.9,2.9c-2,1-4.2,0.5-6.4,0.6c-0.5,0-0.4-0.4-0.4-0.7
		c0-3.2,0-6.5,0-9.7c0-0.4,0.1-0.8,0.6-0.8c1.5-0.1,3-0.5,4.5-0.1c1.3,0.3,2.3,0.9,2.7,2.2C26.4,4.5,25.9,5.4,24.7,6.2z M21.9,7.6
		c-0.6-0.1-1.2,0-1.1,1c0.1,0.6-0.5,1.7,1,1.6c1.5-0.1,2.2-0.4,2.1-1.3C23.9,7.8,23,7.7,21.9,7.6z M20.8,4.2c0,0.7-0.2,1.4,0.9,1.3
		c0.8-0.1,1.7-0.1,1.7-1.2S22.6,3.1,21.7,3C21,3,20.7,3.4,20.8,4.2z"/>
	<path class="st0" d="M96.4,4.4c0.7-0.3,1.1-0.5,1.5-0.7c2.2-0.6,4,0.6,4.5,2.7c0.8,3.7-1.7,6.4-5.5,6.1c-3.2-0.3-3.2-0.3-3.2-3.4
		c0-2.3,0-4.7,0-7c0-1,1.3-2,2.3-1.7c0.5,0.1,0.3,0.5,0.3,0.8c0,0.5,0,1,0,1.5C96.4,3.4,96.4,3.8,96.4,4.4z M96.4,8.2
		c0,0.4,0,0.8,0,1.2c-0.2,1.1,0.4,1.3,1.3,1.2c1.6-0.1,2.5-1.4,2.2-3.1c-0.2-1.2-1.1-1.7-2.5-1.6c-1.3,0.1-0.9,1-1,1.7
		C96.4,7.8,96.4,8,96.4,8.2z"/>
	<path class="st2" d="M58.3,3.6c2.8,0,4.5,1.7,4.5,4.5s-1.8,4.6-4.5,4.6s-4.6-1.9-4.5-4.6C53.8,5.3,55.6,3.6,58.3,3.6z M56.4,8.2
		c0,1.4,0.7,2.2,1.9,2.2s1.9-0.8,1.9-2.3c0-1.4-0.7-2.1-1.8-2.1C57.1,5.8,56.4,6.8,56.4,8.2z"/>
	<path class="st2" d="M73,3.6c2.7,0,4.4,1.8,4.4,4.5s-1.9,4.6-4.6,4.5s-4.5-1.9-4.4-4.6C68.4,5.3,70.2,3.6,73,3.6z M74.8,8.2
		c0-1.5-0.7-2.3-1.9-2.3c-1.2,0-1.9,0.8-1.9,2.2s0.7,2.2,1.9,2.3C74.1,10.4,74.8,9.6,74.8,8.2z"/>
	<path class="st3" d="M35.5,8.8c0,0.4,0,0.7,0,1.1c0,1.9-0.2,2.2-2.1,2.5c-1.3,0.2-2.5,0.4-3.8,0c-1-0.3-1.7-0.8-1.9-1.9
		c-0.1-1.1,0.2-1.9,1.1-2.6c1-0.6,2.1-0.8,3.2-0.9c0.3,0,0.8,0.2,0.9-0.4c0-0.5-0.3-0.8-0.8-0.9c-0.7-0.2-1.4,0-2.1,0.1
		c-0.6,0-1,0-1.3-0.6c-0.4-0.7-0.5-1.1,0.5-1.4c1.3-0.3,2.5-0.4,3.8-0.2c1.4,0.4,2.3,1.4,2.5,3C35.5,7.3,35.5,8.1,35.5,8.8L35.5,8.8
		z M31.4,10.7c0.6-0.1,1.5,0.1,1.4-1.1c0-0.5,0-1-0.7-0.9c-0.8,0.2-1.8-0.1-2,1.1C30.1,10.6,30.8,10.6,31.4,10.7z"/>
	<path class="st0" d="M37,8.4c0-0.8,0.1-1.7,0-2.5c-0.1-1.1,0.4-1.5,1.4-1.8c1.3-0.4,2.6-0.5,3.9-0.4C44,3.9,45,5,45,6.8
		c0,1.6,0,3.2,0,4.9c0,1.2-0.8,0.8-1.4,0.8c-0.6,0-1.3,0.2-1.3-0.8c0.1-1.4,0-2.8,0-4.1S41.2,5.6,40,6c-0.5,0.2-0.4,0.6-0.4,1
		c0,1.5-0.1,3.1,0,4.6c0.1,1.1-0.5,1-1.3,1c-0.7,0-1.5,0.3-1.4-0.9C37,10.5,37,9.5,37,8.4L37,8.4z"/>
	<path class="st0" d="M51.2,3.6c0.2,0,0.5,0,0.7,0c0.5,0.1,1.2-0.2,1.3,0.6c0,0.8-0.7,1.5-1.5,1.5c-1.7,0-2.5,0.5-2.7,1.7
		c-0.4,1.9,0.8,3.1,2.8,2.7c1.2-0.2,1.2,0.5,1.4,1.2c0.3,1-0.5,0.9-1,1c-0.7,0.1-1.3,0.3-2,0.2c-2.7-0.3-4.2-2-4-4.7
		C46.3,5.2,48.1,3.6,51.2,3.6z"/>
	<path class="st2" d="M66.9,6.5c0,1.7-0.1,3.4,0,5.1c0,1.1-0.6,0.9-1.2,0.9s-1.4,0.4-1.4-0.8c0-3.2,0-6.4,0-9.6
		c0-0.8,1.6-1.8,2.4-1.5c0.4,0.2,0.2,0.6,0.2,0.8C66.9,3.1,66.9,4.8,66.9,6.5z"/>
	<path class="st2" d="M10.7,0.4c1.1,0.1,1,1.3,1.3,2.1s-0.5,0.8-1,0.9C8.6,3.8,6.2,4.3,3.9,5C3.1,5.3,2.6,5.1,2.5,4.3
		c0-0.4-0.2-0.8-0.3-1.2c-0.1-0.6,0-1,0.7-1.2C5.4,1.2,7.9,0.8,10.7,0.4z"/>
	<path class="st0" d="M12.8,9.3c0.5-0.1,0.8,0.2,0.9,0.6c0.1,0.4,0.2,0.8,0.4,1.2c0.2,0.6,0,1-0.6,1.1c-2.5,0.6-4.9,1.4-7.3,2.2
		c-0.6,0.2-1,0-1.2-0.6c-0.1-0.5-0.3-1-0.4-1.5s0.1-0.8,0.5-0.9C7.6,10.5,10.2,9.8,12.8,9.3z"/>
	<path class="st0" d="M104,8.1c0-1.1,0.1-2.3,0-3.4c-0.1-1,0.6-1.1,1.3-1c0.7,0,1.4-0.1,1.4,1c-0.1,2.3,0,4.7,0,7
		c0,1.3-0.9,0.7-1.5,0.8s-1.2,0.1-1.1-0.9C104.1,10.4,104,9.3,104,8.1z"/>
	<path class="st4" d="M106.6,1.3c-0.1,0.6-0.5,1.2-1.4,1.1C104.4,2.3,104,1.8,104,1c0-1.2,0.9-0.8,1.6-0.9
		C106.3,0.2,106.7,0.4,106.6,1.3z"/>
</g>
</svg>
