<?xml version="1.0" encoding="utf-8"?>
<!-- Generator: Adobe Illustrator 27.0.1, SVG Export Plug-In . SVG Version: 6.00 Build 0)  -->
<svg version="1.1" id="Capa_1" xmlns="http://www.w3.org/2000/svg" xmlns:xlink="http://www.w3.org/1999/xlink" x="0px" y="0px"
	 viewBox="0 0 64 15" style="enable-background:new 0 0 64 15;" xml:space="preserve">
<style type="text/css">
	.st0{clip-path:url(#SVGID_00000124854469788412296660000017051637459816944063_);}
	.st1{clip-path:url(#SVGID_00000092451439621187414230000001757274063447663771_);fill:#23307D;}
	.st2{clip-path:url(#SVGID_00000092451439621187414230000001757274063447663771_);fill:#FEC803;}
	.st3{clip-path:url(#SVGID_00000092451439621187414230000001757274063447663771_);fill:#E9241D;}
</style>
<g id="Ilustración_30_00000119116892480098502620000017883090744075344540_">
	<g>
		<defs>
			<rect id="SVGID_1_" x="0" width="64" height="15"/>
		</defs>
		<clipPath id="SVGID_00000017502459412092227010000005774405271555592096_">
			<use xlink:href="#SVGID_1_"  style="overflow:visible;"/>
		</clipPath>
		<g style="clip-path:url(#SVGID_00000017502459412092227010000005774405271555592096_);">
			<defs>
				<rect id="SVGID_00000092428534939276958830000018012918684174123141_" x="0" width="64" height="15"/>
			</defs>
			<clipPath id="SVGID_00000183207037923338522450000011205504207025599902_">
				<use xlink:href="#SVGID_00000092428534939276958830000018012918684174123141_"  style="overflow:visible;"/>
			</clipPath>
			<path style="clip-path:url(#SVGID_00000183207037923338522450000011205504207025599902_);fill:#23307D;" d="M0,7.7
				c0.2,0,0.4,0,0.6,0c0.7,0,1.4-0.1,2.1,0c0.3,0,0.6,0.1,0.8,0.2c1.1,0.4,1.3,1.4,1,2.1c-0.2,0.5-0.5,0.8-0.9,1
				c0.1,0.1,0.2,0.1,0.3,0.2c0.6,0.3,0.9,1,0.8,1.7c-0.1,1-0.7,1.6-1.7,1.9c-0.5,0.1-1.1,0.1-1.6,0.1c-0.5,0-1,0-1.5,0V7.7z
				 M1.3,12.7L1.3,12.7c0,0.3,0,0.6,0,0.9c0,0.1,0,0.1,0.1,0.1c0.1,0,0.2,0,0.4,0c0.3,0,0.7,0,1-0.2c0.4-0.2,0.6-0.5,0.6-1
				c0-0.4-0.2-0.6-0.6-0.8c-0.4-0.2-0.9-0.2-1.3-0.1c-0.1,0-0.1,0.1-0.1,0.1C1.3,12.1,1.3,12.4,1.3,12.7z M1.4,9.8L1.4,9.8
				c0,0.3,0,0.5,0,0.8c0,0.1,0,0.1,0.1,0.1c0.2,0,0.3,0,0.5,0c0.3,0,0.7-0.1,1-0.2c0.3-0.2,0.4-0.5,0.4-0.9C3.2,9.2,3,9,2.6,8.9
				c-0.4-0.1-0.8-0.1-1.2,0c-0.1,0-0.1,0-0.1,0.1C1.4,9.2,1.4,9.5,1.4,9.8z M60.9,0c0.2,0.1,0.3,0,0.5,0.1c0.2,0,0.4,0.1,0.5,0.4
				c0.2,0.4,0.4,0.8,0.5,1.2c0.1,0.2,0,0.3-0.2,0.3c-0.2,0-0.5,0-0.7,0c-1.3,0-2.7,0.2-4,0.4c-1.2,0.2-2.4,0.5-3.6,0.8
				c-0.1,0-0.2,0.1-0.4,0.1c-0.3,0-0.4,0-0.5-0.3c-0.1-0.2-0.2-0.5-0.2-0.7c-0.1-0.2-0.1-0.4-0.2-0.6c-0.1-0.2,0-0.4,0.2-0.5
				c0.3-0.1,0.6-0.2,0.9-0.3c1.1-0.3,2.2-0.4,3.2-0.6C57.5,0.1,58,0.1,58.6,0c0,0,0,0,0,0h0.6c0.2,0,0.4,0,0.6,0h0.6
				c0.1,0,0.3,0,0.4,0C60.8,0,60.8,0,60.9,0z"/>
			<path style="clip-path:url(#SVGID_00000183207037923338522450000011205504207025599902_);fill:#23307D;" d="M59.8,0
				c-0.2,0-0.4,0-0.6,0H59.8z M60.7,0c-0.1,0-0.3,0-0.4,0H60.7z"/>
			<path style="clip-path:url(#SVGID_00000183207037923338522450000011205504207025599902_);fill:#FEC803;" d="M50.8,5.3
				c0-0.3,0.1-0.5,0.3-0.6c0.3-0.2,0.6-0.3,0.9-0.4c1.6-0.5,3.1-1,4.8-1.3c1.3-0.2,2.5-0.4,3.8-0.5c0.6,0,1.3-0.1,1.9,0
				c0.4,0,0.6,0.1,0.7,0.5c0.1,0.4,0.3,0.8,0.5,1.2c0.1,0.3,0.1,0.5-0.3,0.6C63.1,4.9,62.6,5,62.2,5c-1,0.2-2.1,0.4-3.1,0.6
				c-1.4,0.3-2.9,0.7-4.3,1.1C54,7,53.2,7.2,52.4,7.5c-0.1,0.1-0.3,0.1-0.5,0.1c-0.3,0-0.4,0-0.5-0.3c-0.1-0.2-0.2-0.5-0.2-0.7
				c-0.1-0.4-0.2-0.8-0.3-1.2C50.8,5.4,50.8,5.3,50.8,5.3z"/>
			<path style="clip-path:url(#SVGID_00000183207037923338522450000011205504207025599902_);fill:#E9241D;" d="M56.9,10.7
				c-0.3,0-0.5-0.1-0.6-0.4c-0.1-0.2-0.2-0.5-0.3-0.8c-0.2-0.6-0.4-1.1-0.6-1.7c0,0,0-0.1,0-0.1c-0.1-0.4,0-0.7,0.4-0.8
				c0.4-0.1,0.7-0.2,1.1-0.3c1.2-0.3,2.4-0.6,3.5-0.9c0.7-0.2,1.5-0.3,2.2-0.5c0.1,0,0.2,0,0.2,0c0.2,0,0.4,0.1,0.5,0.3
				c0.1,0.3,0.2,0.6,0.3,0.9c0.1,0.3,0.2,0.6,0.3,0.9c0.1,0.3,0,0.5-0.3,0.6c-0.5,0.2-1.1,0.4-1.6,0.6c-1.5,0.6-3,1.1-4.5,1.7
				C57.4,10.6,57.1,10.7,56.9,10.7z"/>
			<path style="clip-path:url(#SVGID_00000183207037923338522450000011205504207025599902_);fill:#23307D;" d="M34.9,10.3
				c0.1-0.2,0.3-0.3,0.4-0.4c0.4-0.5,1-0.6,1.6-0.6c0.5,0,0.9,0.3,1.1,0.8c0,0.1,0.1,0.2,0.1,0.2c0.1,0,0.1,0.1,0.1,0
				c0-0.1,0.1-0.2,0.2-0.2c0.3-0.4,0.8-0.6,1.3-0.7c0.2,0,0.5,0,0.7,0c0.6,0.1,0.9,0.5,1,1.1c0.1,0.6,0.1,1.2,0.1,1.8
				c0,0.8,0,1.7,0,2.5c0,0.1,0,0.1-0.1,0.1c-0.4,0-0.8,0-1.2,0c-0.1,0-0.1,0-0.1-0.1c0.1-1,0.1-2.1,0-3.2c0-0.2,0-0.4,0-0.6
				c0-0.4-0.3-0.7-0.8-0.6c-0.3,0.1-0.5,0.2-0.7,0.5c-0.3,0.4-0.4,0.8-0.4,1.3c0,0.8,0,1.7,0,2.5c0,0.1,0,0.1-0.1,0.1
				c-0.4,0-0.8,0-1.1,0c-0.1,0-0.1,0-0.1-0.1c0-1,0-2.1,0-3.1c0-0.2,0-0.5-0.1-0.7c-0.1-0.4-0.4-0.6-0.8-0.5
				c-0.3,0.1-0.5,0.3-0.7,0.6c-0.2,0.3-0.3,0.7-0.3,1.1c0,0.9-0.1,1.8,0,2.7c0,0.1,0,0.1-0.1,0.1c-0.4,0-0.8,0-1.2,0
				c-0.1,0-0.1,0-0.1-0.1c0-0.4,0-0.8,0-1.2c0-1.3,0-2.5,0-3.8c0-0.1,0-0.1,0.1-0.2c0.4-0.1,0.7-0.2,1.1-0.3c0.1,0,0.1,0,0.1,0.1
				C35,9.7,35,10,34.9,10.3z M43.6,10.3C43.7,10.3,43.7,10.2,43.6,10.3c0.7-0.9,1.9-1,2.7-0.4c0.3,0.2,0.4,0.5,0.6,0.9
				c0.3,0.9,0.3,1.7-0.1,2.6c-0.3,0.9-1,1.3-1.8,1.5c-0.8,0.2-1.6,0.2-2.4,0c-0.3-0.1-0.3-0.1-0.3-0.4c0-2.3,0-4.5,0-6.8
				c0-0.1,0-0.2,0.1-0.2c0.4-0.2,0.8-0.2,1.2-0.3c0.1,0,0.1,0,0.1,0.1c0,0.5,0,0.9,0,1.4C43.7,9.2,43.7,9.7,43.6,10.3z M45.7,12.2
				c0-0.4-0.1-0.7-0.2-1.1c-0.1-0.3-0.4-0.5-0.7-0.4c-0.4,0-0.8,0.4-0.9,0.8c-0.2,0.7-0.2,1.4-0.2,2.2c0,0.1,0.1,0.2,0.2,0.2
				c0.1,0,0.2,0,0.3,0c0.6,0,1.1-0.3,1.3-0.8C45.6,12.8,45.7,12.5,45.7,12.2L45.7,12.2z M27.8,12.2c0-0.6,0.1-1.2,0.5-1.8
				c0.5-0.8,1.2-1.1,2.1-1.2c0.5,0,0.9,0,1.3,0.2c0.6,0.3,1.1,0.7,1.3,1.4c0.3,1,0.2,1.9-0.2,2.8c-0.4,0.8-1.1,1.2-2,1.3
				c-0.5,0.1-1,0-1.5-0.2c-0.6-0.2-1-0.6-1.2-1.3C27.8,13.1,27.8,12.7,27.8,12.2L27.8,12.2z M31.6,12.1c0-0.4,0-0.7-0.2-1
				c-0.1-0.3-0.4-0.6-0.7-0.6c-0.5-0.1-1.2,0.1-1.4,0.8c-0.2,0.6-0.2,1.3,0.1,1.9c0.1,0.3,0.3,0.5,0.6,0.6c0.5,0.1,0.9-0.1,1.2-0.4
				C31.6,12.9,31.6,12.5,31.6,12.1z M19.9,12.4c0-0.5,0.1-1,0.3-1.5c0.5-1.1,1.5-1.7,2.7-1.6c0.6,0,1.1,0.2,1.5,0.6
				c0.4,0.4,0.7,0.9,0.7,1.5c0.1,0.8,0,1.6-0.4,2.3c-0.4,0.8-1.1,1.2-2.1,1.3c-0.4,0-0.9,0-1.3-0.1c-0.8-0.3-1.3-0.9-1.4-1.8
				C20,12.8,19.9,12.6,19.9,12.4z M23.8,12.1c0,0,0-0.1,0-0.1c0-0.4-0.1-0.8-0.4-1.1c-0.4-0.5-1-0.5-1.4-0.2
				c-0.2,0.2-0.4,0.4-0.5,0.7c-0.2,0.6-0.1,1.2,0.1,1.8c0.1,0.2,0.2,0.4,0.4,0.5c0.5,0.3,1,0.1,1.4-0.3C23.7,13,23.8,12.5,23.8,12.1
				 M8.4,14.1c-0.2,0.4-0.5,0.6-0.9,0.7c-0.5,0.2-1,0.2-1.5,0c-0.7-0.3-1.1-1.2-0.7-1.9C5.6,12.3,6,12,6.6,11.8
				c0.5-0.2,1-0.3,1.6-0.3c0.1,0,0.2,0,0.1-0.1c0-0.1,0-0.2,0-0.3c-0.1-0.4-0.3-0.6-0.7-0.7c-0.5-0.1-0.9,0-1.4,0.2
				c-0.2,0.1-0.3,0.1-0.5,0.2c-0.1,0-0.1,0-0.1-0.1c0-0.3-0.1-0.7-0.1-1c0,0,0-0.1,0.1-0.1c0.9-0.3,1.9-0.4,2.8-0.2
				c0.7,0.2,1.1,0.6,1.3,1.4c0,0.2,0,0.4,0,0.6c0,1.2,0,2.3,0.1,3.5c0,0.1,0,0.1-0.1,0.1c-0.4,0-0.7,0-1.1,0c-0.1,0-0.1,0-0.1-0.1
				C8.4,14.5,8.4,14.3,8.4,14.1z M6.5,13.3c0,0.3,0.1,0.5,0.4,0.6c0.4,0.1,0.8,0,1-0.3c0.3-0.3,0.4-0.6,0.4-1c0-0.1,0-0.1-0.1-0.1
				c-0.1,0-0.3,0-0.4,0c-0.3,0-0.6,0.1-0.9,0.3C6.7,12.9,6.5,13.1,6.5,13.3z M50,10.7c0-0.4-0.1-0.8-0.1-1.1c0,0,0-0.1,0.1-0.1
				c0.8-0.2,1.7-0.4,2.5-0.3c0.2,0,0.5,0.1,0.7,0.2c0.6,0.3,0.8,0.7,0.9,1.4c0.1,0.5,0,1.1,0,1.6c0,0.8,0,1.6,0,2.4
				c0,0.1,0,0.1-0.1,0.1c-0.4,0-0.7,0-1.1,0c-0.1,0-0.1,0-0.1-0.1c0-0.2,0-0.4,0-0.7c-0.1,0.1-0.1,0.2-0.2,0.3
				c-0.6,0.6-1.4,0.8-2.2,0.5c-0.5-0.1-0.9-0.7-0.9-1.2c0-0.8,0.3-1.4,1-1.8c0.4-0.2,0.9-0.3,1.4-0.4c0.2,0,0.4,0,0.7-0.1
				c0.1,0,0.1,0,0.1-0.1c0-0.2,0-0.3,0-0.5c-0.1-0.3-0.2-0.5-0.5-0.5c-0.5-0.1-1-0.1-1.5,0.1C50.4,10.6,50.3,10.7,50,10.7z
				 M52.3,12.4c-0.3,0-0.7,0.1-1.1,0.4c-0.3,0.2-0.3,0.7,0,0.9c0.3,0.2,0.6,0.2,0.9,0c0.4-0.2,0.6-0.6,0.6-1
				C52.7,12.4,52.7,12.4,52.3,12.4 M11.8,10.2c0.1-0.1,0.1-0.2,0.2-0.2c0.3-0.5,0.8-0.7,1.3-0.7c0.2,0,0.5,0,0.7,0
				c0.6,0.1,1,0.6,1.1,1.2c0.1,0.8,0.1,1.7,0.1,2.5c0,0.6,0,1.2,0,1.8c0,0.1,0,0.1-0.1,0.1c-0.4,0-0.8,0-1.2,0c-0.1,0-0.1,0-0.1-0.1
				c0-1,0-2,0-3.1c0-0.2,0-0.5,0-0.7c-0.1-0.5-0.4-0.7-0.9-0.6c-0.3,0.1-0.5,0.3-0.7,0.6c-0.2,0.4-0.3,0.7-0.3,1.1
				c-0.1,0.7,0,1.4,0,2.1c0,0.2,0,0.4,0,0.5c0,0.1,0,0.1-0.1,0.1c-0.4,0-0.9,0-1.3,0c-0.1,0-0.1,0-0.1-0.1c0,0,0,0,0-0.1
				c0-1.7,0-3.3,0-5c0-0.1,0-0.2,0.1-0.2c0.3-0.1,0.7-0.2,1-0.2c0.1,0,0.1,0,0.1,0.1C11.8,9.7,11.8,10,11.8,10.2
				C11.8,10.2,11.8,10.2,11.8,10.2z M18.4,9.3c0.4,0,0.7,0.1,1.1,0.1c0.1,0,0.1,0,0.1,0.1c0,0.4-0.1,0.7-0.1,1.1
				c0,0.1,0,0.1-0.1,0.1c-0.2,0-0.3-0.1-0.5-0.1c-0.7-0.2-1.3,0.3-1.5,0.8c-0.2,0.6-0.2,1.1,0,1.7c0.2,0.5,0.5,0.7,1.1,0.7
				c0.3,0,0.5,0,0.8-0.1c0.4-0.1,0.4-0.1,0.4,0.3c0,0.3,0,0.5,0.1,0.8c0,0,0,0.1-0.1,0.1C19,14.9,18.5,15,17.9,15
				c-1.1,0-1.8-0.6-2.1-1.6c-0.3-1-0.2-1.9,0.3-2.8c0.4-0.8,1.2-1.3,2.1-1.3C18.2,9.3,18.3,9.3,18.4,9.3C18.4,9.3,18.4,9.3,18.4,9.3
				z M27.2,11c0,1.2,0,2.5,0,3.7c0,0.1,0,0.1-0.1,0.1c-0.4,0-0.8,0-1.2,0c-0.1,0-0.1,0-0.1-0.1c0-2.4,0-4.8,0-7.2c0,0,0-0.1,0.1-0.1
				c0.4-0.2,0.8-0.3,1.2-0.3c0.1,0,0.1,0,0.1,0.1C27.2,8.5,27.2,9.8,27.2,11C27.2,11,27.2,11,27.2,11z M49.1,12.1c0,0.9,0,1.8,0,2.7
				c0,0.1,0,0.1-0.1,0.1c-0.4,0-0.8,0-1.3,0c-0.1,0-0.1,0-0.1-0.1c0-1.8,0-3.5,0-5.3c0-0.1,0-0.1,0.1-0.1c0.4,0,0.8,0,1.3,0
				c0.1,0,0.1,0,0.1,0.1C49.1,10.3,49.1,11.2,49.1,12.1z M49.3,7.8c0,0.5-0.4,0.9-0.9,0.9c-0.5,0-0.8-0.4-0.8-0.9
				c0-0.5,0.4-0.8,0.9-0.8C48.9,6.9,49.3,7.3,49.3,7.8"/>
		</g>
	</g>
</g>
</svg>
