<?xml version="1.0" encoding="utf-8"?>
<!-- Generator: Adobe Illustrator 27.0.1, SVG Export Plug-In . SVG Version: 6.00 Build 0)  -->
<svg version="1.1" id="Capa_1" xmlns="http://www.w3.org/2000/svg" xmlns:xlink="http://www.w3.org/1999/xlink" x="0px" y="0px"
	 viewBox="0 0 150 80" style="enable-background:new 0 0 150 80;" xml:space="preserve">
<style type="text/css">
	.st0{clip-path:url(#SVGID_00000139976662247863870500000016433899526867713167_);}
	.st1{clip-path:url(#SVGID_00000071546670809766141660000002262228897987736479_);fill:#C11425;}
</style>
<g id="Ilustración_25_00000138569633671766925220000003162938472016797616_">
	<g>
		<defs>
			<rect id="SVGID_1_" x="21.1" y="15" width="107.8" height="50"/>
		</defs>
		<clipPath id="SVGID_00000129889182090882746270000013265040088363865247_">
			<use xlink:href="#SVGID_1_"  style="overflow:visible;"/>
		</clipPath>
		<g style="clip-path:url(#SVGID_00000129889182090882746270000013265040088363865247_);">
			<defs>
				<rect id="SVGID_00000010291232338282515180000007800787851703409855_" x="21.1" y="15" width="107.8" height="50"/>
			</defs>
			<clipPath id="SVGID_00000012474095890568504450000018421665941281990074_">
				<use xlink:href="#SVGID_00000010291232338282515180000007800787851703409855_"  style="overflow:visible;"/>
			</clipPath>
			<path style="clip-path:url(#SVGID_00000012474095890568504450000018421665941281990074_);fill:#C11425;" d="M109.8,40.6
				c-1.1,0-2,0.7-2.2,1.7c0,0.1,0,0.1,0,0.2c-1-1.5-2.7-2.1-4.4-2.1c-4.3,0-7.7,3.9-7.7,9c0,5.2,3.3,8.9,7.7,8.9
				c1.8,0,3.2-0.7,4.4-2.2c0.1,0.5,0.3,1,0.6,1.3c0.4,0.4,0.9,0.7,1.6,0.7c1.5,0,2-0.9,2.2-1.8c0.1-0.4,0.1-0.9,0.1-1.2V43.6
				C112,42.4,112,40.6,109.8,40.6 M107.3,50c-0.2,2-1.4,4.1-3.6,4.1c-2.3,0-3.5-2-3.7-4.1c0-0.2,0-0.4,0-0.6c0-2.2,1.1-4.7,3.7-4.7
				c2.5,0,3.6,2.5,3.6,4.7C107.3,49.6,107.3,49.8,107.3,50 M86.5,35h-5.7c-1.6,0-2.5,1-2.5,2.5v18.1c0,1.6,1,2.5,2.4,2.5
				c1.4,0,2.4-0.9,2.4-2.5v-5.3h3.6c4.4,0,8.1-2.9,8.1-7.7C94.8,38.1,91.3,35,86.5,35 M88.6,45.3c-0.6,0.5-1.3,0.8-2.2,0.8h-3.3
				v-6.8h3.3c0.3,0,0.5,0,0.7,0.1c1.6,0.3,2.6,1.7,2.6,3.4C89.7,43.7,89.3,44.7,88.6,45.3 M126.7,40.6c-1,0-1.7,0.5-2.2,1.3
				c-0.1,0.1-0.1,0.2-0.2,0.4L121,51l-3.2-8.7c0-0.1-0.1-0.3-0.2-0.4c-0.4-0.8-1.2-1.3-2.2-1.3c-0.8,0-1.7,0.6-2.1,1.4
				c-0.1,0.2-0.1,0.4-0.1,0.6c0,0.5,0.1,0.8,0.2,1.2l5.1,12.8l-2,5c-0.1,0.3-0.2,0.7-0.3,1c0,0.1,0,0.2,0,0.3c0,0.1,0,0.3,0,0.4
				c0.2,0.9,1,1.6,2.4,1.6c0.6,0,1.1-0.3,1.5-0.7c0.1-0.1,0.2-0.3,0.3-0.5c0.1-0.2,0.3-0.5,0.4-0.7l7.8-19.4
				c0.2-0.4,0.2-0.7,0.2-1.2c0-0.2,0-0.4-0.1-0.6C128.5,41.1,127.5,40.6,126.7,40.6 M37.2,50.2c0-0.2,0-0.4-0.1-0.5c0,0,0,0,0-0.1
				c0-0.2-0.1-0.3-0.1-0.5c0,0,0-0.1,0-0.1c0-0.2-0.1-0.3-0.1-0.5c0,0,0,0,0,0c0,0,0,0,0,0c0,0,0,0,0,0c0-0.1-0.1-0.3-0.2-0.4
				c0,0,0,0,0,0c0,0,0,0,0,0c0,0,0-0.1-0.1-0.1c0,0,0,0,0,0c0,0,0,0,0,0c0-0.1-0.1-0.2-0.2-0.3c0,0,0,0,0,0c0,0,0,0,0,0
				c-0.1-0.1-0.1-0.2-0.2-0.3c0,0,0,0,0,0c-0.2-0.3-0.4-0.6-0.7-0.9c0,0,0,0,0,0c-0.1-0.1-0.2-0.2-0.2-0.2c0,0,0,0,0,0
				c0,0-0.1-0.1-0.1-0.1C35,46,35,45.9,34.9,45.9c0,0-0.1,0-0.1-0.1c-0.1-0.1-0.2-0.1-0.3-0.2c0,0-0.1,0-0.1-0.1c0,0-0.1,0-0.1-0.1
				c0,0,0,0,0,0c0,0,0,0,0,0c-0.2-0.1-0.4-0.2-0.6-0.3c0,0,0,0,0,0c-0.2-0.1-0.4-0.2-0.6-0.3c0,0,0,0,0,0c-0.2-0.1-0.4-0.2-0.6-0.2
				c0,0,0,0,0,0c-0.2-0.1-0.4-0.2-0.6-0.2c0,0,0,0,0,0c0,0,0,0,0,0c-0.2-0.1-0.4-0.1-0.5-0.2c-0.1,0-0.2-0.1-0.2-0.1
				c-0.1,0-0.2-0.1-0.3-0.1c-0.6-0.2-1.1-0.4-1.6-0.5c0,0-0.1,0-0.1,0c-0.1,0-0.2-0.1-0.3-0.1c0,0-0.1,0-0.1,0
				c-0.1,0-0.1-0.1-0.2-0.1c0,0-0.1,0-0.1,0c-0.1,0-0.1-0.1-0.2-0.1c0,0-0.1,0-0.1,0c-0.1,0-0.1-0.1-0.2-0.1c0,0-0.1,0-0.1,0
				c-0.1,0-0.1-0.1-0.1-0.1c0,0,0,0-0.1,0c-0.1-0.1-0.2-0.2-0.3-0.3c0,0,0,0,0,0c0,0-0.1-0.1-0.1-0.1c0,0,0,0,0,0c0,0,0-0.1-0.1-0.1
				c0,0,0,0,0,0c0-0.1,0-0.1,0-0.2c0,0,0,0,0,0c0-0.1,0-0.1,0-0.2c0,0,0,0,0,0c0,0,0,0,0,0c0-0.1,0-0.1,0-0.2c0,0,0,0,0-0.1
				c0,0,0-0.1,0-0.1c0,0,0,0,0-0.1c0,0,0-0.1,0-0.1c0,0,0,0,0,0c0,0,0-0.1,0.1-0.1c0,0,0,0,0,0c0,0,0.1-0.1,0.1-0.1c0,0,0,0,0,0
				c0,0,0.1-0.1,0.1-0.1c0,0,0,0,0,0c0,0,0.1-0.1,0.1-0.1c0,0,0,0,0,0c0.1,0,0.1-0.1,0.2-0.1c0,0,0,0,0,0c0,0,0.1-0.1,0.2-0.1
				c0,0,0,0,0,0c0.1,0,0.1-0.1,0.2-0.1c0,0,0,0,0,0c0.1,0,0.1,0,0.2-0.1c0,0,0,0,0,0c0.1,0,0.1,0,0.2-0.1c0,0,0,0,0.1,0
				c0,0,0.1,0,0.1,0c0,0,0.1,0,0.1,0c0,0,0.1,0,0.1,0c0,0,0.1,0,0.1,0c0,0,0.1,0,0.1,0c0.1,0,0.2,0,0.2,0c0,0,0,0,0,0h0
				c0.1,0,0.3,0,0.4,0c0,0,0.1,0,0.1,0c0.1,0,0.2,0,0.4,0c0,0,0,0,0.1,0c0.1,0,0.2,0,0.3,0c0,0,0,0,0,0c0.1,0,0.2,0,0.3,0.1
				c0,0,0,0,0,0c0.4,0.1,0.8,0.2,1.1,0.3c0.4,0.1,0.8,0.3,1.3,0.3c0,0,0,0,0,0c0.1,0,0.2,0,0.3,0c0.1,0,0.2,0,0.3,0c0,0,0.1,0,0.1,0
				c0.1,0,0.1,0,0.2,0c0,0,0.1,0,0.1,0c0.1,0,0.1,0,0.2-0.1c0,0,0.1,0,0.1,0c0.1,0,0.2-0.1,0.2-0.1c0,0,0,0,0,0c0,0,0,0,0,0
				c0.1,0,0.1-0.1,0.2-0.1c0,0,0,0,0.1,0c0,0,0.1-0.1,0.1-0.1c0,0,0,0,0.1-0.1c0,0,0.1-0.1,0.1-0.1c0,0,0,0,0.1-0.1
				c0.1-0.1,0.1-0.1,0.1-0.2c0,0,0,0,0,0c0,0,0,0,0,0c0.1-0.1,0.1-0.2,0.1-0.3c0,0,0,0,0-0.1c0.1-0.2,0.1-0.4,0.2-0.6
				c0,0,0-0.1,0-0.1c0-0.1,0-0.2,0-0.3c0-0.1,0-0.2,0-0.3c0-0.1,0-0.2,0-0.3c0,0,0,0,0,0c-0.1-0.5-0.4-0.9-0.7-1.3c0,0,0,0,0,0
				c-0.1-0.1-0.1-0.1-0.2-0.2c0,0-0.1,0-0.1-0.1c-0.1-0.1-0.1-0.1-0.2-0.2c0,0-0.1,0-0.1,0c-0.1-0.1-0.3-0.2-0.5-0.3
				c0,0-0.1,0-0.1-0.1c-0.1,0-0.2-0.1-0.2-0.1c-0.1,0-0.1-0.1-0.2-0.1c-0.1,0-0.2-0.1-0.2-0.1c-0.1,0-0.2-0.1-0.2-0.1
				c-0.1,0-0.1,0-0.2-0.1c-0.1,0-0.2-0.1-0.4-0.1c-0.1,0-0.1,0-0.2,0c-0.2,0-0.3-0.1-0.5-0.1c-0.1,0-0.1,0-0.2,0c-0.1,0-0.3,0-0.4,0
				c-0.1,0-0.1,0-0.2,0c-0.1,0-0.3,0-0.4,0c-0.1,0-0.1,0-0.2,0c-0.2,0-0.4,0-0.7,0c-2.1,0-4.1,0.6-5.6,1.8c0,0,0,0,0,0
				c-0.1,0.1-0.2,0.2-0.4,0.3c0,0-0.1,0.1-0.1,0.1c-0.1,0.1-0.2,0.2-0.3,0.3c0,0,0,0,0,0c-0.1,0.1-0.2,0.2-0.3,0.4
				c0,0-0.1,0.1-0.1,0.1c-0.1,0.1-0.2,0.3-0.3,0.4c0,0,0,0,0,0c0,0,0,0,0,0c-0.1,0.1-0.1,0.2-0.2,0.3c0,0,0,0.1-0.1,0.1
				c0,0.1-0.1,0.2-0.1,0.3c0,0,0,0.1-0.1,0.1c0,0.1-0.1,0.2-0.1,0.3c0,0,0,0.1-0.1,0.1c0,0.1-0.1,0.3-0.1,0.4c0,0,0,0,0,0.1
				c0,0.1-0.1,0.3-0.1,0.4c0,0.1,0,0.1,0,0.2c0,0.1,0,0.2-0.1,0.3c0,0.1,0,0.1,0,0.2c0,0.1,0,0.2,0,0.3c0,0.1,0,0.1,0,0.2
				c0,0.2,0,0.3,0,0.5c0,0,0,0,0,0c0,0,0,0,0,0.1c0,0.1,0,0.2,0,0.3c0,0,0,0.1,0,0.1c0,0.1,0,0.1,0,0.2c0,0.1,0,0.1,0,0.2
				c0,0.1,0,0.1,0,0.2c0,0,0,0.1,0,0.1c0,0.1,0,0.1,0,0.2c0,0,0,0.1,0,0.1c0,0.1,0,0.2,0.1,0.2c0,0,0,0.1,0,0.1
				c0,0.1,0.1,0.2,0.1,0.3c0,0,0,0,0,0.1c0,0.1,0.1,0.1,0.1,0.2c0,0,0,0.1,0,0.1c0,0.1,0.1,0.1,0.1,0.2c0,0,0,0.1,0,0.1
				c0,0.1,0.1,0.1,0.1,0.2c0,0,0,0,0,0.1c0,0.1,0.1,0.1,0.1,0.2c0,0,0,0,0,0c0.1,0.2,0.2,0.3,0.3,0.4c0,0,0,0,0,0
				c0.1,0.1,0.1,0.1,0.2,0.2c0,0,0,0,0,0c0,0,0.1,0.1,0.1,0.1c0,0,0,0,0,0c0.1,0.1,0.2,0.2,0.3,0.3c0,0,0.1,0,0.1,0.1
				c0,0,0.1,0.1,0.1,0.1c0,0,0.1,0,0.1,0.1c0,0,0.1,0.1,0.1,0.1c0,0,0,0,0,0c0,0,0.1,0,0.1,0.1C24,47,24,47,24.1,47.1
				c0.1,0,0.1,0.1,0.2,0.1c0,0,0.1,0,0.1,0c0.1,0,0.2,0.1,0.2,0.1c0,0,0,0,0.1,0c0.1,0,0.2,0.1,0.3,0.1c0.1,0,0.2,0.1,0.3,0.1
				c0.1,0,0.2,0.1,0.2,0.1c0.1,0,0.2,0.1,0.3,0.1c0,0,0,0,0,0c0,0,0,0,0,0c0,0,0.1,0,0.1,0c0.3,0.1,0.6,0.2,0.9,0.3c0,0,0,0,0,0
				c0.2,0.1,0.4,0.1,0.6,0.2c1.2,0.4,2.2,0.7,3,1.1c0.2,0.1,0.4,0.2,0.5,0.3c0,0,0,0,0,0c0.1,0.1,0.1,0.1,0.2,0.2c0,0,0,0,0,0
				c0.1,0.1,0.1,0.1,0.2,0.2c0,0,0,0,0,0c0,0.1,0.1,0.1,0.1,0.2c0,0,0,0,0,0.1c0,0.1,0.1,0.1,0.1,0.2c0,0,0,0.1,0,0.1
				c0,0.1,0,0.1,0,0.2c0,0.1,0,0.1,0,0.2c0,0,0,0,0,0.1c0,0.1,0,0.2,0,0.3c0,0,0,0,0,0.1c0,0.1,0,0.1,0,0.2c0,0,0,0,0,0.1
				c0,0.1,0,0.1-0.1,0.2c0,0,0,0,0,0.1c0,0.1-0.1,0.1-0.1,0.2c0,0,0,0,0,0.1c0,0-0.1,0.1-0.1,0.1c0,0,0,0,0,0.1c0,0-0.1,0.1-0.1,0.1
				c0,0-0.1,0.1-0.1,0.1c0,0,0,0-0.1,0.1c-0.1,0-0.1,0.1-0.2,0.1c0,0,0,0,0,0c0,0,0,0,0,0c-0.1,0-0.1,0.1-0.2,0.1c0,0,0,0-0.1,0
				c-0.1,0-0.1,0-0.2,0.1c0,0,0,0-0.1,0c-0.1,0-0.2,0-0.2,0.1c0,0,0,0,0,0c-0.1,0-0.2,0-0.3,0c0,0-0.1,0-0.1,0c-0.1,0-0.1,0-0.2,0
				c0,0-0.1,0-0.1,0c-0.1,0-0.2,0-0.3,0c0,0,0,0,0,0c-0.2,0-0.4,0-0.5,0c-0.1,0-0.1,0-0.2,0c-0.1,0-0.2,0-0.3,0c-0.1,0-0.1,0-0.2,0
				c-0.1,0-0.2,0-0.3,0c-0.1,0-0.1,0-0.2,0c-0.1,0-0.2,0-0.3-0.1c-0.1,0-0.1,0-0.2,0c-0.1,0-0.2-0.1-0.3-0.1c0,0-0.1,0-0.1,0
				c-0.1,0-0.3-0.1-0.4-0.1c0,0,0,0-0.1,0c-0.1,0-0.2-0.1-0.3-0.1c0,0-0.1,0-0.1-0.1c-0.1,0-0.2-0.1-0.3-0.1c0,0,0,0,0,0
				c-0.1,0-0.1,0-0.2-0.1c-0.1,0-0.1,0-0.2-0.1c0,0-0.1,0-0.1,0c-0.1,0-0.2-0.1-0.3-0.1c0,0-0.1,0-0.1,0c-0.1,0-0.1,0-0.2,0
				c0,0-0.1,0-0.1,0c0,0-0.1,0-0.1,0c0,0-0.1,0-0.1,0c0,0-0.1,0-0.1,0c0,0-0.1,0-0.1,0c-0.1,0-0.1,0-0.2,0c0,0,0,0,0,0
				c-0.8,0-1.4,0.3-1.8,0.8c-0.2,0.2-0.3,0.5-0.4,0.8c0,0.1-0.1,0.2-0.1,0.4c0,0,0,0,0,0c-0.1,0.2-0.1,0.5-0.1,0.8v0
				c0,0.1,0,0.1,0,0.2c0,0,0,0,0,0.1c0,0,0,0.1,0,0.1c0,0,0,0.1,0,0.1c0,0,0,0.1,0,0.1c0,0,0,0.1,0,0.1c0,0,0,0.1,0,0.1
				c0,0,0,0.1,0,0.1c0,0,0,0.1,0.1,0.1c0,0,0,0,0,0.1c0,0,0.1,0.1,0.1,0.1c0,0,0,0,0,0.1c0,0.1,0.1,0.1,0.1,0.2c0,0,0,0,0,0
				c0.1,0.1,0.1,0.1,0.2,0.2c0,0,0,0,0,0c0,0,0.1,0.1,0.2,0.1c0,0,0,0,0,0c0,0,0.1,0.1,0.1,0.1c0,0,0,0,0.1,0c0,0,0.1,0.1,0.1,0.1
				c0,0,0,0,0.1,0c0.1,0,0.1,0.1,0.2,0.1c0,0,0,0,0.1,0c0.1,0,0.1,0.1,0.2,0.1c0,0,0,0,0,0c0.1,0,0.2,0.1,0.3,0.1c0,0,0,0,0,0
				c0.2,0.1,0.3,0.1,0.5,0.2c0,0,0,0,0,0c0.1,0,0.2,0.1,0.3,0.1c0.1,0,0.2,0.1,0.4,0.1c0.1,0,0.2,0.1,0.3,0.1c0.1,0,0.2,0.1,0.4,0.1
				c0.1,0,0.2,0.1,0.3,0.1c0.1,0,0.2,0.1,0.4,0.1c0.1,0,0.2,0,0.3,0.1c0.1,0,0.3,0,0.4,0.1c0.1,0,0.2,0,0.3,0c0.1,0,0.3,0,0.4,0
				c0.1,0,0.2,0,0.3,0c0.1,0,0.3,0,0.4,0c0.1,0,0.1,0,0.2,0c0.2,0,0.4,0,0.6,0h0c0.2,0,0.4,0,0.6,0c0,0,0.1,0,0.1,0
				c0.2,0,0.4,0,0.5,0c0,0,0,0,0,0c0.2,0,0.4,0,0.6-0.1c0,0,0.1,0,0.1,0c0.2,0,0.4-0.1,0.5-0.1c0,0,0,0,0,0c0.2,0,0.4-0.1,0.6-0.1
				c0,0,0,0,0,0c0.6-0.1,1.1-0.3,1.6-0.6c0,0,0,0,0,0c0,0,0,0,0,0c0.1,0,0.2-0.1,0.3-0.1c0,0,0,0,0,0c0,0,0,0,0,0
				c0.2-0.1,0.4-0.3,0.7-0.4c0,0,0,0,0,0c0.5-0.3,0.9-0.7,1.3-1.1c0,0,0,0,0,0c0.1-0.1,0.2-0.2,0.3-0.3c0,0,0,0,0-0.1
				c0.1-0.1,0.1-0.2,0.2-0.3c0,0,0,0,0-0.1c0.1-0.1,0.1-0.2,0.2-0.3c0,0,0,0,0-0.1c0.1-0.1,0.1-0.2,0.2-0.3c0,0,0,0,0,0
				c0.1-0.3,0.2-0.5,0.3-0.8c0,0,0-0.1,0-0.1c0-0.1,0.1-0.2,0.1-0.3c0-0.1,0-0.1,0-0.2c0-0.1,0-0.2,0.1-0.3c0-0.1,0-0.1,0-0.2
				c0-0.1,0-0.2,0-0.3c0-0.1,0-0.1,0-0.2c0-0.1,0-0.2,0-0.3c0-0.1,0-0.1,0-0.2c0-0.2,0-0.3,0-0.5c0-0.2,0-0.4,0-0.6
				C37.2,50.3,37.2,50.2,37.2,50.2 M69.2,35.2h-3.3v-2.9c0-0.1,0-0.2,0-0.2v-0.1c0-1.4-1.2-2.6-2.6-2.6h-0.1c-0.7,0-1.4,0.3-1.8,0.8
				c-0.5,0.5-0.7,1.1-0.8,1.8c0,0,0,0,0,0l0,0c0,0.1,0,0.2,0,0.4v0v2.9h-5.5c-0.4,0-0.9,0.1-1.2,0.3c-0.1,0.1-0.2,0.1-0.3,0.2
				c-0.1,0.1-0.2,0.1-0.3,0.2c0,0,0,0,0,0c0,0,0,0,0,0c-0.1,0.1-0.1,0.1-0.2,0.2c0,0,0,0,0,0.1c0,0-0.1,0.1-0.1,0.1c0,0,0,0.1,0,0.1
				c0,0-0.1,0.1-0.1,0.1c0,0,0,0.1,0,0.1c0,0,0,0.1-0.1,0.1c0,0,0,0.1,0,0.1c0,0,0,0.1,0,0.1c0,0,0,0,0,0c0,0,0,0,0,0.1c0,0,0,0,0,0
				c0,0.1,0,0.1,0,0.2c0,0,0,0,0,0.1c0,0,0,0.1,0,0.1c0,0,0,0.1,0,0.1c0,0,0,0.1,0,0.1c0,0.1,0,0.2,0,0.3c0,0,0,0,0,0v10.9
				c0,0.1,0,0.2,0,0.3c0,0,0,0,0,0c0,0.1,0,0.2,0,0.3c0,0,0,0.1,0,0.1c0,0.1,0,0.1,0,0.2c0,0,0,0.1,0,0.1c0,0,0,0.1,0,0.1
				c0,0.1,0,0.1,0,0.2c0,0,0,0.1,0,0.1c0,0.1,0,0.1-0.1,0.2c0,0,0,0.1,0,0.1c0,0.1,0,0.1-0.1,0.2c0,0,0,0,0,0c0,0.1-0.1,0.1-0.1,0.2
				c0,0,0,0,0,0c0,0.1-0.1,0.1-0.1,0.2c0,0,0,0,0,0c0,0.1-0.1,0.1-0.1,0.2c0,0,0,0,0,0c-0.3,0.4-0.6,0.8-0.9,1.1
				c-0.1,0.1-0.2,0.1-0.3,0.2c0,0,0,0,0,0c-0.1,0.1-0.2,0.1-0.3,0.2c0,0,0,0,0,0c-0.1,0.1-0.2,0.1-0.3,0.2c0,0,0,0,0,0
				c-0.1,0-0.2,0.1-0.3,0.1c0,0,0,0,0,0c-0.1,0-0.2,0.1-0.3,0.1c0,0,0,0,0,0c-0.1,0-0.2,0.1-0.4,0.1c0,0,0,0,0,0c-0.1,0-0.3,0-0.4,0
				c0,0,0,0,0,0c-0.1,0-0.3,0-0.4,0c0,0,0,0,0,0c-0.1,0-0.3,0-0.4,0c0,0-0.1,0-0.1,0c-0.1,0-0.2,0-0.3,0c0,0-0.1,0-0.1,0
				c-0.1,0-0.3,0-0.4-0.1c0,0,0,0,0,0c-0.1,0-0.2-0.1-0.4-0.1c0,0-0.1,0-0.1,0c-0.1,0-0.2-0.1-0.3-0.1c0,0-0.1,0-0.1-0.1
				c-0.1-0.1-0.2-0.1-0.3-0.2c0,0,0,0,0,0c0,0,0,0,0,0c-0.1-0.1-0.2-0.1-0.3-0.2c0,0,0,0-0.1-0.1c-0.1-0.1-0.2-0.2-0.3-0.2
				c0,0,0,0,0,0c-0.1-0.1-0.2-0.2-0.2-0.2c0,0,0,0,0-0.1c-0.1-0.1-0.2-0.2-0.2-0.3c0,0,0,0,0-0.1c-0.1-0.1-0.1-0.2-0.2-0.3
				c0,0,0,0,0,0c-0.1-0.1-0.1-0.2-0.2-0.4c0,0,0-0.1,0-0.1c0-0.1-0.1-0.3-0.1-0.4c0,0,0,0,0-0.1c0-0.1-0.1-0.3-0.1-0.4
				c0,0,0,0,0-0.1c0-0.1,0-0.3-0.1-0.4c0,0,0-0.1,0-0.1c0-0.2,0-0.3,0-0.5V38c0-0.1,0-0.3,0-0.4c0,0,0-0.1,0-0.1
				c0-0.1,0-0.2-0.1-0.3c0,0,0,0,0,0c0-0.1-0.1-0.2-0.1-0.3c0,0,0,0,0-0.1c0-0.1-0.1-0.2-0.1-0.3c0,0,0,0,0,0
				c-0.1-0.1-0.1-0.2-0.2-0.3c0,0,0,0,0,0c-0.1-0.1-0.2-0.2-0.2-0.2c0,0,0,0,0,0c-0.2-0.1-0.4-0.3-0.6-0.4c0,0,0,0,0,0c0,0,0,0,0,0
				c-0.1,0-0.1,0-0.2-0.1c0,0,0,0,0,0c-0.1,0-0.1,0-0.2-0.1c0,0,0,0,0,0c-0.1,0-0.2,0-0.4-0.1c0,0,0,0,0,0c0,0,0,0,0,0c0,0,0,0,0,0
				h0c-0.1,0-0.2,0-0.3,0c0,0,0,0,0,0c-0.1,0-0.2,0-0.4,0c0,0-0.1,0-0.1,0c-0.1,0-0.2,0-0.3,0.1c0,0,0,0,0,0c-0.1,0-0.2,0.1-0.3,0.1
				c0,0-0.1,0-0.1,0c-0.1,0-0.2,0.1-0.3,0.1c0,0,0,0,0,0c-0.1,0.1-0.3,0.2-0.4,0.3c0,0,0,0,0,0c-0.1,0.1-0.1,0.2-0.2,0.2
				c0,0,0,0,0,0c-0.1,0.1-0.1,0.2-0.2,0.3c0,0,0,0,0,0c0,0,0,0,0,0c0,0.1-0.1,0.2-0.1,0.2c0,0,0,0,0,0v0c0,0.1-0.1,0.2-0.1,0.3
				c0,0,0,0,0,0c0,0.1,0,0.2-0.1,0.3c0,0,0,0,0,0c0,0.1,0,0.2,0,0.3c0,0,0,0,0,0.1c0,0.1,0,0.2,0,0.3v10.9c0,0.3,0,0.5,0,0.8
				c0,0.1,0,0.2,0,0.2c0,0.2,0,0.3,0,0.5c0,0,0,0.1,0,0.1c0,0.1,0,0.1,0,0.1c0,0.2,0,0.3,0.1,0.5c0,0.1,0,0.2,0.1,0.3
				c0,0.2,0.1,0.3,0.1,0.5c0,0.1,0,0.1,0,0.2c0,0,0,0,0,0.1c0,0.1,0,0.1,0.1,0.2c0,0.1,0.1,0.2,0.1,0.4c0,0.1,0,0.1,0.1,0.2
				c0,0,0,0.1,0,0.1c0,0.1,0.1,0.1,0.1,0.2c0,0.1,0,0.1,0.1,0.2c0,0,0,0,0,0.1c0,0.1,0.1,0.1,0.1,0.2c0,0.1,0.1,0.1,0.1,0.2
				c0,0,0,0,0,0c0,0,0,0,0,0c0.1,0.2,0.2,0.4,0.4,0.6c0,0,0,0,0,0c0,0,0,0,0,0c0.1,0.1,0.2,0.3,0.3,0.4c0,0,0,0,0,0
				c0.1,0.1,0.2,0.2,0.2,0.3c0,0,0.1,0.1,0.1,0.1c0,0,0,0,0,0c0.1,0.1,0.2,0.3,0.4,0.4c0,0,0,0,0,0c0,0,0.1,0.1,0.1,0.1
				c0.1,0.1,0.1,0.1,0.2,0.2c0,0,0.1,0,0.1,0.1c0,0,0,0,0.1,0.1c0.2,0.2,0.5,0.4,0.8,0.6c0,0,0.1,0,0.1,0.1c0.1,0.1,0.2,0.2,0.4,0.2
				c0,0,0.1,0,0.1,0c0.2,0.1,0.3,0.2,0.5,0.2c0,0,0,0,0.1,0c0.1,0.1,0.3,0.1,0.4,0.2c0,0,0.1,0,0.1,0.1c0.1,0.1,0.3,0.1,0.4,0.2
				c0,0,0.1,0,0.1,0c0.2,0.1,0.3,0.1,0.5,0.2c0,0,0.1,0,0.1,0c0.1,0,0.3,0.1,0.4,0.1c0.1,0,0.1,0,0.2,0c0.2,0,0.3,0.1,0.5,0.1
				c0,0,0.1,0,0.1,0c0.2,0,0.4,0.1,0.6,0.1c0.1,0,0.1,0,0.2,0c0.1,0,0.3,0,0.4,0c0.1,0,0.1,0,0.2,0c0.2,0,0.4,0,0.6,0
				c0.2,0,0.5,0,0.7,0c0.1,0,0.1,0,0.2,0c0.5,0,0.9-0.1,1.3-0.2c0.1,0,0.1,0,0.2,0c0.4-0.1,0.8-0.2,1.2-0.3c0,0,0.1,0,0.1,0
				c0.4-0.1,0.8-0.3,1.1-0.5c0,0,0.1,0,0.1-0.1c1-0.5,1.9-1.2,2.6-2c0.1-0.1,0.2-0.2,0.3-0.3c0,0,0.1-0.1,0.1-0.1
				c0.1-0.1,0.1-0.1,0.2-0.2c0,0,0.1-0.1,0.1-0.1c0-0.1,0.1-0.1,0.1-0.2c0-0.1,0.1-0.1,0.1-0.2c0-0.1,0.1-0.1,0.1-0.2
				c0-0.1,0.1-0.1,0.1-0.2c0-0.1,0.1-0.2,0.1-0.2c0-0.1,0.1-0.1,0.1-0.2c0-0.1,0.1-0.2,0.1-0.3c0,0,0-0.1,0.1-0.1
				c0.1-0.1,0.1-0.3,0.2-0.4c0,0,0,0,0,0c0-0.1,0.1-0.3,0.1-0.4c0,0,0-0.1,0-0.1c0-0.1,0.1-0.2,0.1-0.3c0-0.1,0-0.1,0-0.2
				c0-0.1,0-0.2,0.1-0.3c0-0.1,0-0.1,0-0.2c0-0.1,0-0.2,0-0.3c0-0.1,0-0.1,0-0.2c0-0.1,0-0.2,0-0.3c0-0.1,0-0.1,0-0.2
				c0-0.1,0-0.2,0-0.3c0-0.1,0-0.1,0-0.2c0-0.2,0-0.3,0-0.5v-8.4h-2.1c0,0,0,0,0,0c-0.1,0-0.2,0-0.3,0c0,0,0,0-0.1,0h2.5v0h3v3
				c0,0.1,0,0.3,0,0.4c0,0,0,0,0,0c0,0.1,0,0.2,0.1,0.3c0,0,0,0,0,0v0c0,0.1,0,0.2,0.1,0.3v0c0,0,0,0,0,0c0,0.1,0,0.1,0.1,0.2
				c0,0.1,0,0.1,0.1,0.2c0.1,0.3,0.3,0.6,0.6,0.8c0.1,0.1,0.3,0.2,0.4,0.3c0.1,0,0.1,0.1,0.2,0.1c0.1,0,0.1,0.1,0.2,0.1c0,0,0,0,0,0
				c0,0,0,0,0,0c0.1,0,0.1,0,0.2,0.1c0,0,0,0,0,0c0.1,0,0.1,0,0.2,0c0,0,0.1,0,0.1,0c0,0,0.1,0,0.1,0c0.1,0,0.2,0,0.3,0
				c0.1,0,0.2,0,0.3,0c0,0,0,0,0.1,0c0.1,0,0.2,0,0.3-0.1c0,0,0,0,0.1,0c0.2-0.1,0.4-0.1,0.6-0.2c0,0,0,0,0,0c0,0,0,0,0,0
				c0.1,0,0.1-0.1,0.2-0.1c0,0,0,0,0,0c0,0,0,0,0,0c0,0,0.1-0.1,0.1-0.1c0,0,0,0,0,0c0,0,0,0,0,0c0,0,0,0,0,0
				c0.1-0.1,0.1-0.1,0.2-0.2c0,0,0,0,0,0c0-0.1,0.1-0.1,0.1-0.2c0,0,0,0,0,0c0-0.1,0.1-0.1,0.1-0.2c0,0,0,0,0-0.1
				c0-0.1,0.1-0.1,0.1-0.2c0,0,0-0.1,0-0.1c0-0.1,0-0.1,0.1-0.2c0,0,0-0.1,0-0.1c0-0.1,0-0.1,0-0.2c0,0,0-0.1,0-0.1c0,0,0-0.1,0-0.1
				c0,0,0-0.1,0-0.1c0-0.1,0-0.2,0-0.3v-3h3c0,0,0,0,0,0c0.1,0,0.2,0,0.3,0c0,0,0.1,0,0.1,0c0.1,0,0.1,0,0.2,0c0,0,0.1,0,0.1,0
				c0.1,0,0.1,0,0.2-0.1c0,0,0.1,0,0.1,0c0.1,0,0.2-0.1,0.3-0.1c0,0,0,0,0,0c0,0,0,0,0,0c0.1,0,0.2-0.1,0.3-0.2c0,0,0.1,0,0.1,0
				c0.1-0.1,0.2-0.1,0.3-0.2c0,0,0,0,0,0c0.3-0.3,0.5-0.6,0.6-1c0,0,0,0,0,0c0.1-0.3,0.2-0.6,0.2-0.9v-0.1c0-0.7-0.3-1.3-0.8-1.8
				C70.5,35.5,69.9,35.2,69.2,35.2 M57.6,40.5h-2.1c-0.6,0-1.1-0.1-1.5-0.4c0,0,0,0,0,0c0,0-0.1-0.1-0.1-0.1
				c-0.2-0.2-0.4-0.4-0.6-0.7c0,0,0,0,0,0c0-0.1-0.1-0.1-0.1-0.2c0,0,0,0,0,0c0-0.1-0.1-0.1-0.1-0.2c0,0,0,0,0,0
				c0-0.1,0-0.1-0.1-0.2C53,38.6,53,38.4,53,38.1c0-0.2,0-0.3,0-0.5c0,0,0,0,0,0c0.1-0.6,0.5-1.1,0.9-1.4c0.1,0,0.2-0.1,0.2-0.1l0,0
				c0,0,0,0,0,0c0,0,0.1,0,0.1,0l0,0c0,0,0,0,0,0c0.3-0.1,0.6-0.2,0.9-0.2c0.6,0,1.1,0.2,1.5,0.5c0.1,0.1,0.1,0.1,0.2,0.2
				c0,0,0.1,0.1,0.1,0.1c0,0,0.1,0.1,0.1,0.1c0.3,0.4,0.4,0.9,0.5,1.5V40.5z"/>
			<path style="clip-path:url(#SVGID_00000012474095890568504450000018421665941281990074_);fill:#C11425;" d="M21.9,21.3v-0.1
				c0-3.3,2.1-5.6,4.9-5.6c1.5,0,2.6,0.5,3.5,1.4l-1.1,1.4c-0.6-0.6-1.4-1.1-2.4-1.1c-1.7,0-3,1.6-3,3.9v0.1c0,2.4,1.3,3.9,3,3.9
				c1.1,0,1.7-0.5,2.4-1.1l1.1,1.3c-1,1-2.1,1.6-3.6,1.6C23.9,26.9,21.9,24.6,21.9,21.3"/>
			<path style="clip-path:url(#SVGID_00000012474095890568504450000018421665941281990074_);fill:#C11425;" d="M31.8,18.4h1.8V20
				c0.4-1.1,1.2-1.8,2.5-1.8v1.9h-0.1c-1.4,0-2.4,0.9-2.4,2.8v3.7h-1.8V18.4z"/>
			<path style="clip-path:url(#SVGID_00000012474095890568504450000018421665941281990074_);fill:#C11425;" d="M36.8,22.6v-0.1
				c0-2.5,1.5-4.3,3.5-4.3c2.3,0,3.5,1.9,3.5,4.4c0,0.1,0,0.4,0,0.6h-5.2c0.2,1.4,1,2.2,2.1,2.2c0.8,0,1.4-0.3,1.9-0.9l0.9,1.1
				c-0.8,0.8-1.7,1.3-2.9,1.3C38.4,26.9,36.8,25.3,36.8,22.6 M42,22c-0.1-1.3-0.7-2.3-1.7-2.3c-1,0-1.7,0.9-1.8,2.3H42z M41.1,15
				l1.6,0.7l-1.8,1.7h-1.3L41.1,15z"/>
			<path style="clip-path:url(#SVGID_00000012474095890568504450000018421665941281990074_);fill:#C11425;" d="M45,22.7v-0.2
				c0-2.8,1.6-4.2,3.2-4.2c1.2,0,1.9,0.7,2.4,1.4v-4.3h1.8v11.3h-1.8v-1.3c-0.5,0.8-1.2,1.5-2.4,1.5C46.6,26.9,45,25.5,45,22.7
				 M50.7,22.6v-0.2c0-1.6-0.9-2.7-2-2.7c-1.1,0-1.9,1-1.9,2.7v0.1c0,1.7,0.9,2.7,1.9,2.7C49.8,25.3,50.7,24.3,50.7,22.6"/>
			<path style="clip-path:url(#SVGID_00000012474095890568504450000018421665941281990074_);fill:#C11425;" d="M54.5,15.4h1.9v1.7
				h-1.9V15.4z M54.6,18.4h1.8v8.3h-1.8V18.4z"/>
			<path style="clip-path:url(#SVGID_00000012474095890568504450000018421665941281990074_);fill:#C11425;" d="M58.8,24.7v-4.8h-0.9
				v-1.5h0.9v-2.2h1.8v2.2h1.9v1.5h-1.9v4.4c0,0.6,0.3,0.9,0.9,0.9c0.3,0,0.7-0.1,1-0.2v1.5c-0.4,0.2-0.9,0.4-1.5,0.4
				C59.7,26.8,58.8,26.3,58.8,24.7"/>
			<path style="clip-path:url(#SVGID_00000012474095890568504450000018421665941281990074_);fill:#C11425;" d="M63.4,22.6v-0.1
				c0-2.4,1.6-4.3,3.8-4.3c2.2,0,3.8,1.8,3.8,4.3v0.1c0,2.4-1.6,4.3-3.8,4.3C65.1,26.9,63.4,25.1,63.4,22.6 M69.3,22.6L69.3,22.6
				c0-1.6-0.9-2.8-2.1-2.8c-1.2,0-2,1.1-2,2.7v0.1c0,1.6,0.9,2.7,2.1,2.7C68.5,25.3,69.3,24.2,69.3,22.6"/>
		</g>
	</g>
</g>
</svg>
