<?xml version="1.0" encoding="UTF-8"?>
<svg id="Capa_1" data-name="Capa 1" xmlns="http://www.w3.org/2000/svg" version="1.1" xmlns:xlink="http://www.w3.org/1999/xlink" viewBox="0 0 1200 363">
  <defs>
    <style>
      .cls-1 {
        fill: url(#Degradado_sin_nombre_53);
      }

      .cls-1, .cls-2, .cls-3 {
        stroke-width: 0px;
      }

      .cls-2 {
        fill: #312782;
      }

      .cls-2, .cls-3 {
        fill-rule: evenodd;
      }

      .cls-3 {
        fill: url(#Degradado_sin_nombre_11);
      }
    </style>
    <radialGradient id="Degradado_sin_nombre_53" data-name="Degradado sin nombre 53" cx="166.3" cy="141.7" fx="166.3" fy="141.7" r="130.5" gradientTransform="translate(-34.2 218) rotate(-60) scale(1 1)" gradientUnits="userSpaceOnUse">
      <stop offset="0" stop-color="#37bce3"/>
      <stop offset=".5" stop-color="#009bda"/>
      <stop offset=".6" stop-color="#0b85c9"/>
      <stop offset=".8" stop-color="#2652a3"/>
      <stop offset=".9" stop-color="#36328b"/>
      <stop offset="1" stop-color="#3d2782"/>
    </radialGradient>
    <linearGradient id="Degradado_sin_nombre_11" data-name="Degradado sin nombre 11" x1="97.7" y1="264" x2="242.7" y2="119" gradientUnits="userSpaceOnUse">
      <stop offset="0" stop-color="#a7a6a6"/>
      <stop offset=".5" stop-color="#fff"/>
      <stop offset="1" stop-color="#a7a6a6"/>
    </linearGradient>
  </defs>
  <circle class="cls-1" cx="129.8" cy="192.6" r="129.8"/>
  <path class="cls-2" d="M850.3,220.6h-57.7c-10.5,0-19.1-5.2-26-15.6-6.4-9.8-9.7-21.5-9.7-35s3.5-25.6,10.6-35.3c7.4-10.2,16.8-15.3,28-15.3h53.8v18.7h-48.7c-6.4,0-11.6,3.3-15.5,9.8-3.6,6-5.3,13.3-5.3,21.8s1.7,16.5,4.9,22.9c3.8,7.2,8.9,10.8,15.4,10.8h29.1v-25.6h-29.7v-16.8h50.8v59.7ZM674.7,147.7h45.5c7.4,0,12.5,4.4,12.4,13.6v17.1c0,0-19.5,0-19.5,0v-10.7c0-2.8-1.8-6.4-4.2-6.4h-12.4c0,0,0,59.7,0,59.7h-22.1l.2-73.1ZM660.6,220h-36.4c-8.9,0-16.6-3.6-23.1-10.7-6.5-7.2-9.8-15.4-9.8-24.8s3.6-19,10.7-26.4c7.1-7.4,15.1-11.2,23.8-11.2h34.7v15h-25.4c-3.2,0-5.9.3-8.2.8-2.2.5-4.3,1.5-6.2,3-3.5,2.8-5.2,6.6-5.2,11.4h44.8v15.2h-44.8c0,2.2.3,4.1.8,5.7.5,1.5,1.7,3.1,3.4,4.6,1.7,1.5,3.7,2.6,6,3.1,2.4.5,5.2.8,8.6.8h26.2v13.6ZM583.9,182.3c0,11.6-3.3,20.9-9.8,27.7-6.5,6.9-15.1,10.3-25.8,10.3h-23v26.5h-21.5v-99.3h42.4c12,0,21.4,3.3,28.1,9.8,6.4,6.3,9.6,14.6,9.6,24.8h0ZM562.4,183.4c0-6.1-2.1-11.1-6.3-14.9-4.2-3.9-9.5-5.8-15.8-5.8h-14.9v42.4h16.5c6.1,0,11.1-2,14.9-6s5.7-9.2,5.7-15.6h0ZM486.1,220.4h-41.3c-7.5,0-12.9-.3-16-1-5.2-1.1-9.3-3.6-12.4-7.3-3.5-4.3-5.3-9.2-5.3-14.7v-49.7h21.6v48.2c0,2.3,1.1,4.4,3.4,6,2.3,1.7,4.7,2.5,7.3,2.5h21.1v-56.7h21.6v72.7ZM400,189.8c0,8.6-2.9,15.8-8.6,21.7-5.7,5.9-13,8.8-21.8,8.8h-69.5v-17.5h57.3c3.8,0,7.1-.9,9.7-2.7,3-2.1,4.5-4.9,4.5-8.5,0-8.4-5.9-12.6-17.7-12.6h-28.9c-8.3,0-15.6-2.6-21.9-7.7-6.3-5.1-9.4-11.7-9.4-19.6s3.1-15.9,9.2-21.4c6.1-5.5,14.2-8.2,24.2-8.2h66.4v16.8h-58.5c-2.6,0-5.3,1.1-7.9,3.3-2.7,2.2-4,4.8-4,7.7s1.3,6.2,3.9,8.4c2.6,2.3,5.7,3.4,9.3,3.4h31.9c9.9,0,17.7,2.6,23.4,7.6,5.7,5.1,8.5,11.8,8.5,20.2h0ZM999.2,220.6h-25.3l-23.3-39.6h-24.2v39.6h-21.3v-101.4h65.6c7.4,0,13.6,3.3,18.5,9.8,4.9,6.5,7.3,14.2,7.3,23.1s-2.1,13-6.3,17.9c-4.2,4.9-9.5,8-15.9,9.3l24.9,41.3ZM969.9,150.6c0-3.9-1.5-6.9-4.4-9-2.9-2.1-6.9-3.2-11.9-3.2h-25.3v23.3h26c3.8,0,7.2-.8,10.1-2.5,3.7-2.1,5.5-5,5.5-8.7h0ZM1200,189.1c0,8.9-2.6,16.3-7.9,22.4-5.2,6.1-11.9,9.1-20,9.1h-63.9v-18.1h52.6c3.5,0,6.5-.9,8.9-2.8,2.8-2.1,4.1-5.1,4.1-8.8,0-8.7-5.4-13-16.3-13h-26.6c-7.7,0-14.4-2.7-20.1-8-5.8-5.3-8.6-12.1-8.6-20.3s2.8-16.4,8.4-22.1c5.6-5.6,13-8.5,22.2-8.5h61v17.4h-53.8c-2.4,0-4.8,1.1-7.3,3.4-2.5,2.3-3.7,4.9-3.7,8s1.2,6.4,3.6,8.7,5.2,3.5,8.6,3.5h29.3c9.1,0,16.3,2.6,21.5,7.9,5.2,5.3,7.8,12.2,7.8,20.9h0ZM1097.3,169.1c0,19.3-4.7,33.2-14.2,41.5-7.7,6.7-19,10.1-33.7,10.1s-28.4-3.9-36.2-11.7c-8.6-8.5-12.8-22.2-12.8-41.1s3.8-27.5,11.4-36.1c8.3-9.4,20.7-14.1,37.2-14.1s31,4.5,38.5,13.5c6.6,7.9,9.8,20.6,9.8,37.8h0ZM1074.9,168.5c0-9.8-2.1-17.5-6.2-23.3-4.6-6.5-11.4-9.7-20.5-9.7s-15.6,3.4-20.1,10.4c-3.8,5.8-5.7,13.3-5.7,22.6s1.5,18.6,4.5,23.7c4.2,7.1,12,10.7,23.3,10.7s16.3-3.4,20.1-10.4c3-5.4,4.5-13.4,4.5-24h0ZM885.9,220.6h-21.2v-101.4h21.2v101.4Z"/>
  <path class="cls-3" d="M320,362.6C43,268.9-44-12.6,148.1,24.4-103.6-106.5-12.3,340.1,320,362.6h0Z"/>
</svg>