<?xml version="1.0" encoding="utf-8"?>
<!-- Generator: Adobe Illustrator 27.0.1, SVG Export Plug-In . SVG Version: 6.00 Build 0)  -->
<svg version="1.1" id="Capa_1" xmlns="http://www.w3.org/2000/svg" xmlns:xlink="http://www.w3.org/1999/xlink" x="0px" y="0px"
	 viewBox="0 0 150 80" style="enable-background:new 0 0 150 80;" xml:space="preserve">
<style type="text/css">
	.st0{clip-path:url(#SVGID_00000132056640535194836860000012815417249000253059_);}
	.st1{clip-path:url(#SVGID_00000162342012784192351120000011169518042718180500_);fill:#2557D6;}
	.st2{clip-path:url(#SVGID_00000162342012784192351120000011169518042718180500_);fill:#FFFFFF;}
</style>
<g id="Page-1_00000073715564591382347780000002597821313599727288_">
	<g>
		<defs>
			<rect id="SVGID_1_" x="47.1" y="22.5" width="55.7" height="35"/>
		</defs>
		<clipPath id="SVGID_00000183226373741424320280000011705259567443544712_">
			<use xlink:href="#SVGID_1_"  style="overflow:visible;"/>
		</clipPath>
		<g style="clip-path:url(#SVGID_00000183226373741424320280000011705259567443544712_);">
			<defs>
				<rect id="SVGID_00000174565286570321044480000008862151583893609653_" x="47.1" y="22.5" width="55.7" height="35"/>
			</defs>
			<clipPath id="SVGID_00000165222099869348759660000002543345759771739793_">
				<use xlink:href="#SVGID_00000174565286570321044480000008862151583893609653_"  style="overflow:visible;"/>
			</clipPath>
			<path style="clip-path:url(#SVGID_00000165222099869348759660000002543345759771739793_);fill:#2557D6;" d="M50.1,22.5h49.8
				c1.6,0,3,1.3,3,3v29.1c0,1.6-1.3,3-3,3H50.1c-1.6,0-3-1.3-3-3V25.5C47.1,23.8,48.5,22.5,50.1,22.5"/>
			<path style="clip-path:url(#SVGID_00000165222099869348759660000002543345759771739793_);fill:#FFFFFF;" d="M47.1,38.9h2.7
				l0.6-1.4h1.4l0.6,1.4h5.3v-1.1l0.5,1.1h2.7l0.5-1.1v1.1h13.1l0-2.4h0.3c0.2,0,0.2,0,0.2,0.3v2.1h6.8v-0.6
				c0.5,0.3,1.4,0.6,2.5,0.6H87l0.6-1.4H89l0.6,1.4h5.5v-1.4l0.8,1.4h4.4v-9.1h-4.4v1.1l-0.6-1.1h-4.5v1.1l-0.6-1.1h-6
				c-1,0-1.9,0.1-2.6,0.5v-0.5h-4.2v0.5c-0.5-0.4-1.1-0.5-1.8-0.5H60.5l-1,2.4l-1-2.4h-4.8v1.1l-0.5-1.1H49l-1.9,4.3V38.9z M64,37.6
				h-1.6l0-5.1l-2.3,5.1h-1.4l-2.3-5.1v5.1h-3.2l-0.6-1.5h-3.3l-0.6,1.5h-1.7l2.8-6.5h2.3l2.7,6.2v-6.2h2.6l2.1,4.4l1.9-4.4H64V37.6
				z M52.2,34.8l-1.1-2.6L50,34.8H52.2z M70.4,37.6h-5.2v-6.5h5.2v1.4h-3.7v1.2h3.6V35h-3.6v1.3h3.7V37.6z M77.8,32.9
				c0,1-0.7,1.6-1.1,1.7c0.3,0.1,0.6,0.4,0.8,0.6c0.2,0.3,0.3,0.6,0.3,1.2v1.3h-1.6l0-0.8c0-0.4,0-1-0.2-1.3
				c-0.2-0.2-0.6-0.3-1.1-0.3h-1.7v2.4h-1.6v-6.5h3.6c0.8,0,1.4,0,1.9,0.3C77.5,31.7,77.8,32.1,77.8,32.9 M75.8,33.8
				C75.6,34,75.3,34,75,34h-1.9v-1.4h1.9c0.3,0,0.6,0,0.7,0.1c0.2,0.1,0.3,0.3,0.3,0.6C76.1,33.5,76,33.7,75.8,33.8 M80.3,37.6h-1.6
				v-6.5h1.6V37.6z M98.9,37.6h-2.2l-3-4.9v4.9h-3.2l-0.6-1.5h-3.3L86,37.6h-1.8c-0.8,0-1.7-0.2-2.3-0.7c-0.6-0.6-0.8-1.3-0.8-2.5
				c0-1,0.2-1.9,0.8-2.6c0.5-0.5,1.3-0.8,2.4-0.8h1.5v1.4h-1.5c-0.6,0-0.9,0.1-1.2,0.4c-0.3,0.3-0.5,0.8-0.5,1.5
				c0,0.7,0.1,1.2,0.4,1.5c0.2,0.3,0.7,0.3,1.1,0.3h0.7l2.2-5.1h2.3l2.7,6.2v-6.2h2.4l2.8,4.5v-4.5h1.6V37.6z M89.3,34.8l-1.1-2.6
				l-1.1,2.6H89.3z"/>
			<path style="clip-path:url(#SVGID_00000165222099869348759660000002543345759771739793_);fill:#FFFFFF;" d="M102.9,48
				c-0.4,0.6-1.1,0.8-2.1,0.8h-3v-1.4h3c0.3,0,0.5,0,0.6-0.2c0.1-0.1,0.2-0.2,0.2-0.4c0-0.2-0.1-0.3-0.2-0.4
				c-0.1-0.1-0.3-0.1-0.6-0.1c-1.5-0.1-3.3,0-3.3-2c0-0.9,0.6-1.9,2.2-1.9h3.1l0-1.3H100c-0.9,0-1.5,0.2-2,0.5v-0.5h-4.3
				c-0.7,0-1.5,0.2-1.9,0.5v-0.5h-7.7v0.5c-0.6-0.4-1.6-0.5-2.1-0.5H77v0.5c-0.5-0.5-1.6-0.5-2.2-0.5h-5.7l-1.3,1.4l-1.2-1.4h-8.4
				v9.1h8.3l1.3-1.4l1.3,1.4l5.1,0V48h0.5c0.7,0,1.5,0,2.2-0.3v2.5h4.2v-2.4h0.2c0.3,0,0.3,0,0.3,0.3v2.1h12.8
				c0.8,0,1.7-0.2,2.1-0.6v0.6h4.1c0.8,0,1.7-0.1,2.3-0.4V48z M77.5,44.5c0,1.8-1.4,2.2-2.7,2.2h-2v2.2h-3l-1.9-2.2l-2,2.2h-6.2
				v-6.5h6.3l1.9,2.1l2-2.1h5C76.1,42.4,77.5,42.7,77.5,44.5 M65,47.5h-3.9v-1.3h3.4v-1.3h-3.4v-1.2h3.9l1.7,1.9L65,47.5z
				 M71.2,48.3l-2.4-2.7l2.4-2.6V48.3z M74.8,45.4h-2v-1.7h2c0.6,0,1,0.2,1,0.8C75.8,45.1,75.4,45.4,74.8,45.4 M85.4,42.4h5.2v1.3
				H87v1.2h3.6v1.3H87v1.3l3.7,0v1.4h-5.2V42.4z M83.4,45.9c0.3,0.1,0.6,0.4,0.8,0.5c0.2,0.3,0.3,0.6,0.3,1.2v1.3h-1.6v-0.8
				c0-0.4,0-1-0.3-1.3c-0.2-0.2-0.6-0.3-1.1-0.3h-1.7v2.4h-1.6v-6.5h3.6c0.8,0,1.4,0,1.9,0.3c0.5,0.3,0.8,0.7,0.8,1.4
				C84.5,45.2,83.8,45.7,83.4,45.9 M82.5,45.1c-0.2,0.1-0.5,0.1-0.8,0.1h-1.9v-1.5h1.9c0.3,0,0.6,0,0.7,0.1c0.2,0.1,0.3,0.3,0.3,0.6
				C82.8,44.7,82.7,44.9,82.5,45.1 M96.6,45.5c0.3,0.3,0.5,0.7,0.5,1.4c0,1.4-0.9,2.1-2.5,2.1h-3.1v-1.4h3c0.3,0,0.5,0,0.6-0.2
				c0.1-0.1,0.2-0.2,0.2-0.4c0-0.2-0.1-0.3-0.2-0.4c-0.1-0.1-0.3-0.1-0.6-0.1c-1.5-0.1-3.3,0-3.3-2c0-0.9,0.6-1.9,2.2-1.9h3.1v1.4
				h-2.9c-0.3,0-0.5,0-0.6,0.1c-0.2,0.1-0.2,0.3-0.2,0.5c0,0.2,0.1,0.4,0.3,0.5c0.2,0.1,0.3,0.1,0.6,0.1l0.8,0
				C95.7,45,96.3,45.1,96.6,45.5 M102.9,43.7H100c-0.3,0-0.5,0-0.6,0.1c-0.2,0.1-0.2,0.3-0.2,0.5c0,0.2,0.1,0.4,0.3,0.5
				c0.2,0.1,0.3,0.1,0.6,0.1l0.8,0c0.9,0,1.4,0.2,1.8,0.5c0.1,0.1,0.1,0.1,0.1,0.2V43.7z"/>
		</g>
	</g>
</g>
</svg>
