<?xml version="1.0" encoding="utf-8"?>
<!-- Generator: Adobe Illustrator 27.0.0, SVG Export Plug-In . SVG Version: 6.00 Build 0)  -->
<svg version="1.1" id="Capa_1" xmlns="http://www.w3.org/2000/svg" xmlns:xlink="http://www.w3.org/1999/xlink" x="0px" y="0px"
	 viewBox="0 0 153 15" style="enable-background:new 0 0 153 15;" xml:space="preserve">
<style type="text/css">
	.st0{clip-path:url(#SVGID_00000140722118551990405000000004116374695960914612_);fill:#E30618;}
	
		.st1{clip-path:url(#SVGID_00000140722118551990405000000004116374695960914612_);fill-rule:evenodd;clip-rule:evenodd;fill:#E1251B;}
	
		.st2{clip-path:url(#SVGID_00000140722118551990405000000004116374695960914612_);fill-rule:evenodd;clip-rule:evenodd;fill:#0075C9;}
	
		.st3{clip-path:url(#SVGID_00000140722118551990405000000004116374695960914612_);fill-rule:evenodd;clip-rule:evenodd;fill:#FFD100;}
	
		.st4{clip-path:url(#SVGID_00000140722118551990405000000004116374695960914612_);fill-rule:evenodd;clip-rule:evenodd;fill:#F18A00;}
	.st5{clip-path:url(#SVGID_00000140722118551990405000000004116374695960914612_);fill:#2D2A26;}
	.st6{clip-path:url(#SVGID_00000140722118551990405000000004116374695960914612_);fill:#1C1C1B;}
	
		.st7{clip-path:url(#SVGID_00000140722118551990405000000004116374695960914612_);fill-rule:evenodd;clip-rule:evenodd;fill:#2D2A26;}
	
		.st8{clip-path:url(#SVGID_00000140722118551990405000000004116374695960914612_);fill:none;stroke:#2D2A26;stroke-width:0.138;stroke-miterlimit:3.864;}
</style>
<g>
	<defs>
		<rect id="SVGID_1_" x="0.1" width="152.8" height="15"/>
	</defs>
	<clipPath id="SVGID_00000142157748269357234320000015018360251951528347_">
		<use xlink:href="#SVGID_1_"  style="overflow:visible;"/>
	</clipPath>
	<path style="clip-path:url(#SVGID_00000142157748269357234320000015018360251951528347_);fill:#E30618;" d="M29.2,12.9
		c2.4,0.5,8.3,0.4,8.4-3.5c0-1.6-2-3-3.9-3.4c-2.3-0.5-3.8-0.5-6.2,0c-1.5,0.6-1.9-0.9-0.6-1.4c2.5-0.9,12.3-1.1,12.8,4.8
		c-0.4,5.8-9,5.4-10.9,5c-0.8-0.2-1.3-0.5-1.3-1.5V8c0-1.1,1.7-1.1,1.7,0V12.9z"/>
	<path style="clip-path:url(#SVGID_00000142157748269357234320000015018360251951528347_);fill:#E30618;" d="M47.6,6
		c-1.9,0-5.1,5.8-6.1,7.9c-0.6,1.3-2.4,0.4-1.8-0.9c1-2.2,4.8-9,7.8-9c3-0.1,6.8,6.7,7.8,9c0.6,1.3-1.2,2.1-1.8,0.9
		C52.7,11.9,49.5,6,47.6,6"/>
	<path style="clip-path:url(#SVGID_00000142157748269357234320000015018360251951528347_);fill:#E30618;" d="M61,12.6
		c1.9,0,5.1-5.8,6.1-7.9c0.6-1.3,2.4-0.4,1.8,0.9c-1,2.3-4.8,9-7.8,9c-3,0.1-6.8-6.7-7.8-9c-0.6-1.3,1.2-2.1,1.8-0.9
		C55.9,6.8,59.1,12.6,61,12.6"/>
	<path style="clip-path:url(#SVGID_00000142157748269357234320000015018360251951528347_);fill:#E30618;" d="M72.1,5.1v8.5
		c0,1.3-1.9,1.2-1.9,0l0-8.5C70.2,3.8,72.1,3.8,72.1,5.1"/>
	<path style="clip-path:url(#SVGID_00000142157748269357234320000015018360251951528347_);fill:#E30618;" d="M81.2,12.6
		c1.9,0,5.1-5.8,6.1-7.9c0.6-1.3,2.4-0.4,1.8,0.9c-1,2.3-4.8,9-7.8,9c-3,0.1-6.8-6.7-7.8-9c-0.6-1.3,1.2-2.1,1.8-0.9
		C76.2,6.8,79.3,12.6,81.2,12.6"/>
	<path style="clip-path:url(#SVGID_00000142157748269357234320000015018360251951528347_);fill:#E30618;" d="M96,10.2
		c0.6,1.2,2.2,2.2,3.7,2.5c2.3,0.5,3.8,0.5,6.2,0c1.4-0.5,1.9,0.9,0.6,1.4c-2.6,0.9-12.3,1.2-12.8-4.7c0.3-5.6,8-5.5,11-5.1
		c1.4,0.2,1.1,1.7-0.4,1.4c-2-0.3-7.3-0.6-8.4,3l5.5,0c0.9,0,0.9,1.6,0,1.6L96,10.2z"/>
	<path style="clip-path:url(#SVGID_00000142157748269357234320000015018360251951528347_);fill:#E30618;" d="M126.5,12.9
		c2.4,0.5,8.3,0.4,8.4-3.5c0-1.6-2-3-3.9-3.4c-2.3-0.5-3.8-0.5-6.2,0c-1.5,0.6-1.9-0.9-0.6-1.4c2.5-0.9,12.3-1.1,12.8,4.8
		c-0.4,5.8-9,5.4-10.9,5c-0.8-0.2-1.3-0.5-1.3-1.5V8c0-1.1,1.7-1.1,1.7,0L126.5,12.9z"/>
	<path style="clip-path:url(#SVGID_00000142157748269357234320000015018360251951528347_);fill:#E30618;" d="M145,6
		c-1.9,0-5.1,5.8-6.1,7.9c-0.6,1.3-2.4,0.4-1.8-0.9c1-2.2,4.8-9,7.8-9c3-0.1,6.8,6.7,7.8,9c0.6,1.3-1.2,2.1-1.8,0.9
		C150.1,11.9,146.9,6,145,6"/>
	<path style="clip-path:url(#SVGID_00000142157748269357234320000015018360251951528347_);fill:#E30618;" d="M92.3,5.1v8.5
		c0,1.3-1.9,1.2-1.9,0V5.1C90.4,3.8,92.3,3.8,92.3,5.1"/>
	<path style="clip-path:url(#SVGID_00000142157748269357234320000015018360251951528347_);fill:#E30618;" d="M115.4,11.1
		c-1.2-2.2-2.5-5.1-3.4-5.1c-2.2,0-1.2,4.4-1.2,7.8c0,1.2-1.9,1.2-1.9-0.1c0-4.3-0.9-9.5,3.2-9.5c1.2,0,2.4,1.8,3.4,3.5
		c1.2,2.2,2.6,5.1,3.5,5.1c2.2,0,1.2-4.3,1.2-7.7c0-1.2,1.9-1.2,1.9,0.1c0,4.3,1,9.4-3.2,9.4C117.7,14.6,116.4,12.8,115.4,11.1"/>
	
		<path style="clip-path:url(#SVGID_00000142157748269357234320000015018360251951528347_);fill-rule:evenodd;clip-rule:evenodd;fill:#E1251B;" d="
		M2.9,6.6c0,0.3,0,1.6-1.2,3.4c-1.3,2,0.7,5.3,4.8,4.5c0.9,0.3,1.8,0.4,2.5,0.4c0.6,0,1.6,0,2.5-0.4c4,0.8,6-2.5,4.8-4.5
		c-1.2-1.8-1.2-3.1-1.2-3.4H2.9z"/>
	
		<path style="clip-path:url(#SVGID_00000142157748269357234320000015018360251951528347_);fill-rule:evenodd;clip-rule:evenodd;fill:#0075C9;" d="
		M8.9,14.9C5,14.8,4.3,13,5.4,12.6C6,12.4,6.8,12,6.8,12C6.4,10,7.1,7.4,8.9,7.4c1.8,0,2.5,2.7,2.1,4.7c0,0,0.8,0.3,1.5,0.6
		C13.5,13,12.9,14.8,8.9,14.9"/>
	
		<path style="clip-path:url(#SVGID_00000142157748269357234320000015018360251951528347_);fill-rule:evenodd;clip-rule:evenodd;fill:#FFD100;" d="
		M7.4,13.5c-1-2.9-0.1-5.7,1.5-5.7c1.5,0,2.6,2.7,1.5,5.7c0,0-0.5-0.1-1.5-0.1C8.1,13.4,7.4,13.5,7.4,13.5"/>
	
		<path style="clip-path:url(#SVGID_00000142157748269357234320000015018360251951528347_);fill-rule:evenodd;clip-rule:evenodd;fill:#F18A00;" d="
		M8.9,14.9c1.6,0,2.8-0.3,2.8-0.8c0-0.5-1.2-0.8-2.8-0.8c-1.6,0-2.8,0.3-2.8,0.8C6.1,14.6,7.3,14.9,8.9,14.9"/>
	
		<path style="clip-path:url(#SVGID_00000142157748269357234320000015018360251951528347_);fill-rule:evenodd;clip-rule:evenodd;fill:#0075C9;" d="
		M3.7,8.1h1.9c0.3,0,0.5,0.2,0.5,0.5v1.3c0,0.3-0.2,0.5-0.5,0.5H3.7c-0.3,0-0.5-0.2-0.5-0.5V8.6C3.1,8.3,3.4,8.1,3.7,8.1"/>
	<path style="clip-path:url(#SVGID_00000142157748269357234320000015018360251951528347_);fill:#2D2A26;" d="M3.9,8.4h1.5
		c0.2,0,0.4,0.2,0.4,0.4v0.9c0,0.2-0.2,0.4-0.4,0.4H3.9c-0.2,0-0.4-0.2-0.4-0.4V8.8C3.5,8.6,3.7,8.4,3.9,8.4"/>
	
		<path style="clip-path:url(#SVGID_00000142157748269357234320000015018360251951528347_);fill-rule:evenodd;clip-rule:evenodd;fill:#FFD100;" d="
		M5.8,9.5c-0.7-0.1-0.9-0.9-1-1.1h0.6c0.2,0,0.4,0.2,0.4,0.4V9.5z"/>
	
		<path style="clip-path:url(#SVGID_00000142157748269357234320000015018360251951528347_);fill-rule:evenodd;clip-rule:evenodd;fill:#FFD100;" d="
		M4.5,8.4c0,0.2-0.3,1.1-1,1.1V8.8c0-0.2,0.2-0.4,0.4-0.4H4.5z"/>
	
		<path style="clip-path:url(#SVGID_00000142157748269357234320000015018360251951528347_);fill-rule:evenodd;clip-rule:evenodd;fill:#0075C9;" d="
		M12.3,8.1h1.9c0.3,0,0.5,0.2,0.5,0.5v1.3c0,0.3-0.2,0.5-0.5,0.5h-1.9c-0.3,0-0.5-0.2-0.5-0.5V8.6C11.7,8.3,12,8.1,12.3,8.1"/>
	<path style="clip-path:url(#SVGID_00000142157748269357234320000015018360251951528347_);fill:#2D2A26;" d="M12.5,8.4H14
		c0.2,0,0.4,0.2,0.4,0.4v0.9c0,0.2-0.2,0.4-0.4,0.4h-1.5c-0.2,0-0.4-0.2-0.4-0.4V8.8C12.1,8.6,12.3,8.4,12.5,8.4"/>
	
		<path style="clip-path:url(#SVGID_00000142157748269357234320000015018360251951528347_);fill-rule:evenodd;clip-rule:evenodd;fill:#FFD100;" d="
		M14.4,9.5c-0.7-0.1-0.9-0.9-1-1.1H14c0.2,0,0.4,0.2,0.4,0.4V9.5z"/>
	
		<path style="clip-path:url(#SVGID_00000142157748269357234320000015018360251951528347_);fill-rule:evenodd;clip-rule:evenodd;fill:#FFD100;" d="
		M13.1,8.4c0,0.2-0.3,1.1-1,1.1V8.8c0-0.2,0.2-0.4,0.4-0.4H13.1z"/>
	
		<path style="clip-path:url(#SVGID_00000142157748269357234320000015018360251951528347_);fill-rule:evenodd;clip-rule:evenodd;fill:#E1251B;" d="
		M12.9,1.7c-0.2-0.7-0.2-1,0.4-1h1.4c0.8,0,0.5,0.6,0.4,1.3C14.9,2.8,14.9,3,14.9,3S12.9,1.7,12.9,1.7"/>
	
		<path style="clip-path:url(#SVGID_00000142157748269357234320000015018360251951528347_);fill-rule:evenodd;clip-rule:evenodd;fill:#F18A00;" d="
		M8.9,6.6C6.9,6.6,4,6.7,2.2,6.9c-1.4,0.1-2.5-1-1.5-2c2-2.1,6.8-4.8,8.3-4.8c1.6,0,6.3,2.7,8.3,4.8c0.9,1,0,2-1.4,2
		C14.2,6.9,11,6.6,8.9,6.6"/>
	<path style="clip-path:url(#SVGID_00000142157748269357234320000015018360251951528347_);fill:#1C1C1B;" d="M10,11.4
		c0-0.2,0.1-0.3,0.3-0.3c0.1,0,0.3,0.1,0.3,0.3c0,0.1-0.1,0.3-0.3,0.3C10.2,11.6,10,11.5,10,11.4"/>
	
		<path style="clip-path:url(#SVGID_00000142157748269357234320000015018360251951528347_);fill-rule:evenodd;clip-rule:evenodd;fill:#2D2A26;" d="
		M8.9,13.3c-0.8,0-1.5,0.1-1.5,0.1c-1-2.8-0.1-5.5,1.5-5.5c1.6,0,2.5,2.7,1.5,5.5C10.4,13.4,9.8,13.3,8.9,13.3 M10.4,13.5
		c0.8,0.1,1.3,0.4,1.3,0.6c0,0.4-1.2,0.7-2.8,0.7c-1.5,0-2.8-0.3-2.8-0.7c0-0.3,0.5-0.5,1.3-0.6c0,0,0.9-0.1,1.4-0.1
		C9.5,13.4,10.4,13.5,10.4,13.5 M10.5,13.4c1-3,0-5.7-1.6-5.7c-1.6,0-2.6,2.7-1.6,5.7C6.6,13.6,6,13.8,6,14.1c0,0.1,0.1,0.2,0.2,0.3
		c-1.3-0.6-1.5-1.5-0.7-1.8c0.6-0.2,1.4-0.5,1.4-0.5c-0.4-2,0.2-4.7,2.1-4.7c1.8,0,2.5,2.7,2.1,4.7c0,0,0.8,0.3,1.4,0.5
		c0.7,0.2,0.6,1.2-0.7,1.8c0.1-0.1,0.1-0.2,0.1-0.3C11.8,13.8,11.3,13.6,10.5,13.4 M13,1.6c-0.2-0.6-0.2-0.9,0.4-0.9h1.2
		c0.8,0,0.5,0.6,0.4,1.2c0,0.4-0.1,0.7-0.1,0.9C14.2,2.4,13.6,2,13,1.6 M11.6,14.6c3.8,0.6,5.6-2.5,4.4-4.5
		c-0.9-1.4-1.2-2.6-1.2-3.2c-2.5-0.1-4.2-0.2-5.9-0.3C7.2,6.7,5.5,6.8,3,6.9c0,0.6-0.3,1.8-1.2,3.2c-1.2,1.9,0.6,5.1,4.4,4.5
		c-1.6-0.6-1.8-1.6-0.9-2C5.9,12.3,6.8,12,6.8,12c-0.4-2,0.3-4.8,2.1-4.7c1.8,0,2.6,2.7,2.1,4.7c0,0,0.8,0.3,1.5,0.5
		C13.4,12.9,13.2,13.9,11.6,14.6 M8.9,6.4c-2.1,0-4.2,0.2-6.5,0.3C0.9,6.8,0.1,5.9,1,4.8c1.4-1.5,6.1-4.6,7.9-4.6s6.5,3.1,7.9,4.6
		c0.9,1,0.1,2-1.4,1.9C13.1,6.6,11.1,6.4,8.9,6.4 M12.7,1.5c0-0.1,0-0.1-0.1-0.2c-0.1-0.4,0-0.8,0.6-0.8h1.4c0.8,0,0.7,0.6,0.6,1.1
		C15.1,2,15.1,2.5,15,3c0,0,1.1,0.8,1.8,1.4c2,1.7,0.7,2.8-1.2,2.7c-0.2,0-0.4,0-0.6,0c0,0.6,0.2,1.6,1,2.7c2.2,2.6-0.7,5.9-4.8,5
		C10.6,14.9,9.5,15,8.9,15c-0.6,0-1.7-0.1-2.3-0.3c-4.1,0.9-7-2.4-4.8-5c0.9-1.2,1-2.2,1-2.7L2.3,7C0.4,7.1-0.9,6,1.1,4.3
		C4,1.8,7.6,0,8.9,0C9.7,0,11.1,0.6,12.7,1.5"/>
	
		<path style="clip-path:url(#SVGID_00000142157748269357234320000015018360251951528347_);fill:none;stroke:#2D2A26;stroke-width:0.138;stroke-miterlimit:3.864;" d="
		M3.7,8.1h1.9c0.3,0,0.5,0.2,0.5,0.5v1.3c0,0.3-0.2,0.5-0.5,0.5H3.7c-0.3,0-0.5-0.2-0.5-0.5V8.6C3.1,8.3,3.4,8.1,3.7,8.1z"/>
	
		<path style="clip-path:url(#SVGID_00000142157748269357234320000015018360251951528347_);fill:none;stroke:#2D2A26;stroke-width:0.138;stroke-miterlimit:3.864;" d="
		M12.3,8.1h1.9c0.3,0,0.5,0.2,0.5,0.5v1.3c0,0.3-0.2,0.5-0.5,0.5h-1.9c-0.3,0-0.5-0.2-0.5-0.5V8.6C11.7,8.3,12,8.1,12.3,8.1z"/>
</g>
</svg>
