<?xml version="1.0" encoding="utf-8"?>
<!-- Generator: Adobe Illustrator 28.1.0, SVG Export Plug-In . SVG Version: 6.00 Build 0)  -->
<svg version="1.1" id="Capa_1" xmlns="http://www.w3.org/2000/svg" xmlns:xlink="http://www.w3.org/1999/xlink" x="0px" y="0px"
	 viewBox="0 0 1020.5 400.5" style="enable-background:new 0 0 1020.5 400.5;" xml:space="preserve">
<style type="text/css">
	.st0{fill:#25387B;}
	.st1{fill:#234080;}
</style>
<g>
	<path class="st0" d="M448.9,149.2c0-5.2-1.2-17.7-20.1-17.7h-80v34.6h80C447.7,166.1,448.9,152.9,448.9,149.2"/>
	<path class="st0" d="M430,233.6h-81.2v35H430c18.5,0,19.3-14.9,19.3-17.7C449.3,247.7,448.5,233.6,430,233.6"/>
	<path class="st1" d="M846,0H0v400.5h1020.5v-226C1020.5,78.3,942.2,0,846,0 M163.6,369H31.4V31.5h132.2V369z M435.2,369H216.7V31.5
		h227.4c105.7,0,131,48.2,131,91.6c0,39.8-20.9,53.8-41.4,66.7v7.2c30.1,17.7,49,39.4,49,76.7C582.7,326.8,544.9,369,435.2,369z
		 M802.5,266.6c6,0,43,1.6,54.6-29.3h-50.4c-4.4,0-7.9-3.5-7.9-7.9V177h185.2v192h-65.9l-2-38.6h-2.4
		c-24.1,28.9-65.1,49.8-122.1,49.8c-104.5,0-185.2-70.7-185.2-180c0-109.7,75.5-180,197.3-180c84.4,0,171.2,41.4,181.2,136.2h-131
		c-2.8-7.6-19.3-22.5-47-22.5c-41.4,0-69.1,24.5-69.1,66.3C737.8,242.1,766.7,266.6,802.5,266.6z"/>
</g>
</svg>
