<?xml version="1.0" encoding="utf-8"?>
<!-- Generator: Adobe Illustrator 28.1.0, SVG Export Plug-In . SVG Version: 6.00 Build 0)  -->
<svg version="1.1" id="Capa_1" xmlns="http://www.w3.org/2000/svg" xmlns:xlink="http://www.w3.org/1999/xlink" x="0px" y="0px"
	 viewBox="0 0 125 15" style="enable-background:new 0 0 125 15;" xml:space="preserve">
<style type="text/css">
	.st0{fill:#00369C;}
	.st1{fill:#3EC92B;}
</style>
<g id="Grupo_17947" transform="translate(-172.08 -25.833)">
	<g id="Grupo_17930" transform="translate(172.08 25.833)">
		<g id="Grupo_17925">
			<path id="Trazado_11152" class="st0" d="M36.8,6.1v-3h-3.3V0l-2.3,0.5c-0.1,0.4-0.2,0.9-0.5,1.2c-0.5,0.8-1.2,1.3-2.1,1.5
				c0,0-0.1,0-0.1,0v2.8h1.5v5.1c-0.1,1,0.3,2.1,1.1,2.8c0.7,0.6,1.8,0.9,3.2,0.9c0.4,0,0.8,0,1.3-0.1c0.4,0,0.8-0.1,1.2-0.3v-2.9
				c-0.3,0.1-0.5,0.1-0.8,0.2c-0.3,0-0.5,0.1-0.8,0.1c-0.4,0-0.9-0.1-1.2-0.3c-0.3-0.3-0.4-0.7-0.3-1.1V6.1H36.8z"/>
			<path id="Trazado_11153" class="st0" d="M0.1,13.5l1.7-2.4c0.6,0.4,1.3,0.7,2,1c0.6,0.2,1.2,0.3,1.8,0.3c0.5,0,1-0.1,1.4-0.3
				c0.3-0.1,0.5-0.4,0.5-0.7c0-0.2-0.1-0.4-0.3-0.5c-0.3-0.2-0.6-0.3-0.9-0.3l-2.3-0.4c-1-0.1-1.9-0.5-2.6-1.2
				c-0.6-0.6-1-1.5-0.9-2.3c0-1.1,0.5-2.1,1.3-2.8c1.1-0.7,2.4-1.1,3.7-1c0.9,0,1.7,0.1,2.5,0.4c0.8,0.2,1.6,0.6,2.4,1L8.7,6.6
				C8.1,6.3,7.5,6,6.9,5.8C6.3,5.7,5.7,5.6,5.2,5.6c-0.4,0-0.8,0.1-1.1,0.2C3.8,5.9,3.6,6.1,3.6,6.4c0,0.2,0.1,0.4,0.3,0.6
				C4.3,7.2,4.6,7.3,5,7.3l2.3,0.4c1,0.1,1.9,0.5,2.7,1.1c0.6,0.6,1,1.4,0.9,2.3c0,0.5-0.1,1.1-0.4,1.6c-0.3,0.5-0.6,0.9-1.1,1.3
				c-0.5,0.4-1.1,0.7-1.7,0.8C7.1,14.9,6.4,15,5.7,15c-1,0-2.1-0.1-3.1-0.4C1.7,14.4,0.9,14,0.1,13.5z"/>
			<path id="Trazado_11154" class="st0" d="M16.7,13.5l1.7-2.4c0.6,0.4,1.3,0.7,2,1c0.6,0.2,1.2,0.3,1.8,0.3c0.5,0,1-0.1,1.4-0.3
				c0.3-0.1,0.5-0.4,0.5-0.7c0-0.2-0.1-0.4-0.3-0.5c-0.3-0.2-0.6-0.3-0.9-0.3l-2.3-0.4c-1-0.1-1.9-0.5-2.6-1.2
				c-0.6-0.6-1-1.5-0.9-2.3c0-1.1,0.5-2.1,1.3-2.8c1.1-0.7,2.4-1.1,3.7-1c0.9,0,1.7,0.1,2.5,0.4c0.8,0.2,1.6,0.6,2.4,1l-1.7,2.3
				c-0.6-0.3-1.2-0.6-1.8-0.8c-0.6-0.2-1.1-0.3-1.7-0.3c-0.4,0-0.8,0.1-1.1,0.2c-0.2,0.1-0.4,0.3-0.4,0.6c0,0.2,0.1,0.4,0.3,0.6
				c0.3,0.2,0.7,0.3,1.1,0.3l2.3,0.4c1,0.1,1.9,0.5,2.7,1.1c0.6,0.6,1,1.4,0.9,2.3c0,0.5-0.1,1.1-0.4,1.6c-0.3,0.5-0.6,0.9-1.1,1.3
				c-0.5,0.4-1.1,0.7-1.7,0.8c-0.7,0.2-1.4,0.3-2.1,0.3c-1,0-2.1-0.1-3.1-0.4C18.3,14.4,17.4,14,16.7,13.5z"/>
			<path id="Trazado_11155" class="st0" d="M48.9,13.2c-0.7,0.6-1.4,1-2.3,1.3c-0.8,0.3-1.7,0.4-2.6,0.4c-0.9,0-1.7-0.2-2.5-0.5
				c-0.8-0.3-1.4-0.7-2-1.3c-0.6-0.5-1-1.2-1.3-1.9c-0.3-0.7-0.5-1.6-0.5-2.4c0-0.8,0.2-1.6,0.5-2.4c0.3-0.7,0.7-1.4,1.3-1.9
				c0.6-0.5,1.2-1,1.9-1.3c0.8-0.3,1.6-0.5,2.4-0.5c1.6,0,3.1,0.6,4.2,1.8c0.5,0.6,1,1.3,1.2,2c0.3,0.8,0.4,1.7,0.4,2.5v0.9h-8.3
				c0.2,0.5,0.6,1,1.1,1.3c0.5,0.4,1.1,0.5,1.8,0.5c0.5,0,0.9-0.1,1.3-0.2c0.4-0.1,0.7-0.4,1-0.7L48.9,13.2z M43.7,5.8
				c-0.5,0-1.1,0.2-1.5,0.5c-0.4,0.3-0.8,0.8-0.9,1.4h4.9c-0.2-0.5-0.5-1-0.9-1.3C44.8,6,44.3,5.8,43.7,5.8L43.7,5.8z"/>
			<g id="Grupo_17924" transform="translate(24.376)">
				<path id="Trazado_11156" class="st0" d="M-12.5,0c0.1,1.1,1,1.9,2.1,1.9C-9.5,1.8-8.6,1-8.6,0H-12.5z"/>
				<rect id="Rectángulo_3668" x="-12.4" y="3.1" class="st0" width="3.6" height="11.7"/>
			</g>
		</g>
		<g id="Grupo_17928" transform="translate(105.204)">
			<path id="Trazado_11157" class="st1" d="M6.1,6.1v-3H2.8V0L0.5,0.5C0.4,0.9,0.2,1.4,0,1.7C-0.5,2.5-1.3,3-2.2,3.2
				c0,0-0.1,0-0.1,0v2.8h1.5v5.1c-0.1,1,0.3,2.1,1.1,2.8c0.7,0.6,1.8,0.9,3.2,0.9c0.4,0,0.8,0,1.3-0.1c0.4,0,0.8-0.1,1.2-0.3v-2.9
				c-0.3,0.1-0.5,0.1-0.8,0.2c-0.3,0-0.5,0.1-0.8,0.1c-0.4,0-0.9-0.1-1.2-0.3c-0.3-0.3-0.4-0.7-0.3-1.1V6.1H6.1z"/>
			<path id="Trazado_11158" class="st1" d="M-48.2,11.9c0.5,0,0.9-0.1,1.3-0.3c0.5-0.2,0.9-0.6,1.2-0.9l2.1,2.2
				c-0.6,0.7-1.3,1.2-2.2,1.6c-0.8,0.4-1.8,0.6-2.7,0.6c-0.8,0-1.7-0.2-2.4-0.5c-2.3-0.9-3.8-3.1-3.7-5.6c0-0.8,0.2-1.6,0.5-2.4
				c0.3-0.7,0.7-1.4,1.3-1.9c1.2-1.1,2.8-1.8,4.4-1.8c0.9,0,1.9,0.2,2.7,0.6c0.8,0.4,1.6,0.9,2.2,1.6l-2.2,2.3
				c-0.4-0.4-0.8-0.8-1.3-1C-47.4,6.1-47.8,6-48.3,6c-0.7,0-1.4,0.3-1.9,0.9C-50.8,7.4-51.1,8.2-51,9c0,0.8,0.3,1.5,0.8,2.1
				C-49.7,11.6-49,11.9-48.2,11.9z"/>
			<path id="Trazado_11159" class="st1" d="M-42.6,14.8V3.1h3.6v1.2c0.4-0.4,0.8-0.8,1.3-1.1c0.5-0.3,1.1-0.4,1.7-0.4
				c0.3,0,0.5,0,0.8,0.1c0.2,0,0.4,0.1,0.5,0.2v3.1C-34.8,6.1-35.1,6-35.4,6c-0.3-0.1-0.6-0.1-0.9-0.1c-0.5,0-1.1,0.1-1.6,0.4
				c-0.5,0.3-0.9,0.6-1.2,1.1v7.4H-42.6z"/>
			<g id="Grupo_17926" transform="translate(42.99 0.027)">
				<path id="Trazado_11160" class="st1" d="M-72.9,0c0.1,1.1,1,1.9,2.1,1.9c1,0,1.8-0.9,1.9-1.9H-72.9z"/>
				<path id="Trazado_11161" class="st1" d="M-65.7,13.2c-0.7,0.6-1.4,1-2.3,1.3c-0.8,0.3-1.7,0.4-2.6,0.4c-0.9,0-1.7-0.2-2.5-0.5
					c-1.5-0.6-2.7-1.7-3.4-3.2c-0.3-0.7-0.5-1.6-0.5-2.4c0-0.8,0.2-1.6,0.5-2.4c0.3-0.7,0.7-1.4,1.3-1.9c0.6-0.5,1.2-1,1.9-1.3
					c0.8-0.3,1.6-0.5,2.4-0.5c1.6,0,3.1,0.6,4.2,1.8c0.5,0.6,1,1.3,1.2,2c0.3,0.8,0.4,1.7,0.4,2.5v0.9h-8.3c0.2,0.5,0.6,1,1.1,1.3
					c0.5,0.4,1.1,0.5,1.8,0.5c0.5,0,0.9-0.1,1.3-0.2c0.4-0.1,0.7-0.4,1-0.7L-65.7,13.2z M-70.9,5.8c-0.5,0-1.1,0.2-1.5,0.5
					c-0.4,0.3-0.8,0.8-0.9,1.4h4.9c-0.2-0.5-0.5-1-0.9-1.3C-69.9,6-70.4,5.8-70.9,5.8L-70.9,5.8z"/>
			</g>
			<path id="Trazado_11162" class="st1" d="M-12,14.8v-0.9c-0.5,0.3-1,0.6-1.5,0.8c-0.5,0.2-1.1,0.3-1.7,0.3c-0.8,0-1.6-0.2-2.3-0.5
				c-0.7-0.3-1.4-0.7-1.9-1.3c-0.5-0.5-1-1.2-1.3-1.9c-0.3-0.7-0.5-1.5-0.5-2.4c0-0.8,0.2-1.6,0.5-2.4c0.6-1.4,1.8-2.6,3.2-3.2
				c1.3-0.5,2.6-0.6,3.9-0.3c0.5,0.1,1,0.3,1.4,0.6V0.8L-8.4,0v14.8L-12,14.8z M-17.6,8.9c0,0.8,0.3,1.6,0.9,2.1
				c0.6,0.6,1.4,0.9,2.2,0.8c0.5,0,0.9-0.1,1.4-0.2c0.4-0.2,0.8-0.4,1.1-0.7V6.9c-0.3-0.3-0.7-0.5-1.1-0.7C-13.6,6.1-14,6-14.5,6
				c-0.8,0-1.6,0.3-2.2,0.9C-17.3,7.4-17.6,8.1-17.6,8.9L-17.6,8.9z"/>
			<g id="Grupo_17927" transform="translate(98.839 0.027)">
				<path id="Trazado_11163" class="st1" d="M-106,0c0.1,1.1,1,1.9,2.1,1.9c1,0,1.8-0.9,1.9-1.9H-106z"/>
				<rect id="Rectángulo_3669" x="-105.8" y="3.1" class="st1" width="3.6" height="11.7"/>
			</g>
			<path id="Trazado_11164" class="st1" d="M17.5,6.4c-0.3-0.1-0.6,0-0.7,0.3c0,0,0,0,0,0l-0.7,1.6c0,0.2,0.1,0.4,0.1,0.7
				c0,0.8-0.3,1.5-0.8,2.1c-1.1,1.1-2.8,1.2-4,0.1c0,0-0.1-0.1-0.1-0.1c-1.1-1.2-1.1-3,0-4.2c1.1-1.1,2.8-1.2,4-0.1
				c0,0,0.1,0.1,0.1,0.1c0.2,0.2,0.3,0.4,0.4,0.6l0.4-1c0.3-0.6,1-0.9,1.6-0.6c0,0,0,0,0,0l1.3,0.6c-0.3-0.6-0.7-1.2-1.2-1.7
				c-0.6-0.6-1.3-1-2-1.3c-1.6-0.6-3.4-0.6-5,0c-0.7,0.3-1.4,0.7-2,1.3c-0.6,0.6-1,1.2-1.3,1.9c-0.7,1.5-0.7,3.2,0,4.7
				c0.3,0.7,0.8,1.4,1.3,1.9c0.6,0.6,1.3,1,2,1.3c1.6,0.6,3.4,0.6,5,0c0.7-0.3,1.4-0.7,2-1.3c0.6-0.5,1-1.2,1.3-1.9
				c0.3-0.7,0.5-1.6,0.5-2.4c0-0.6-0.1-1.1-0.2-1.7L17.5,6.4z"/>
		</g>
	</g>
</g>
</svg>
