<?xml version="1.0" encoding="utf-8"?>
<!-- Generator: Adobe Illustrator 27.0.1, SVG Export Plug-In . SVG Version: 6.00 Build 0)  -->
<svg version="1.1" id="Capa_1" xmlns="http://www.w3.org/2000/svg" xmlns:xlink="http://www.w3.org/1999/xlink" x="0px" y="0px"
	 viewBox="0 0 150 80" style="enable-background:new 0 0 150 80;" xml:space="preserve">
<style type="text/css">
	.st0{clip-path:url(#SVGID_00000147911553459327602280000015737347052739701654_);fill:#4E7EFF;}
	.st1{clip-path:url(#SVGID_00000147911553459327602280000015737347052739701654_);}
	
		.st2{clip-path:url(#SVGID_00000170245721326003682250000002352172181986479507_);fill-rule:evenodd;clip-rule:evenodd;fill:#4E7EFF;}
</style>
<g id="Ilustración_24_00000023973564168889929700000008621442095175443362_">
	<g>
		<defs>
			<rect id="SVGID_1_" x="28.6" y="22.5" width="92.9" height="35"/>
		</defs>
		<clipPath id="SVGID_00000097479101500804809230000006136316724171008677_">
			<use xlink:href="#SVGID_1_"  style="overflow:visible;"/>
		</clipPath>
		
			<rect x="112.8" y="34.9" style="clip-path:url(#SVGID_00000097479101500804809230000006136316724171008677_);fill:#4E7EFF;" width="7.5" height="22.2"/>
		<g style="clip-path:url(#SVGID_00000097479101500804809230000006136316724171008677_);">
			<defs>
				<rect id="SVGID_00000086650658834705350640000013615662225964874383_" x="28.6" y="22.5" width="92.9" height="35"/>
			</defs>
			<clipPath id="SVGID_00000041278632890648836600000018346576961619952012_">
				<use xlink:href="#SVGID_00000086650658834705350640000013615662225964874383_"  style="overflow:visible;"/>
			</clipPath>
			
				<path style="clip-path:url(#SVGID_00000041278632890648836600000018346576961619952012_);fill-rule:evenodd;clip-rule:evenodd;fill:#4E7EFF;" d="
				M121.4,27.4c0-2.8-2.1-4.9-4.9-4.9c-2.6,0-4.9,2.1-4.9,4.9c0,2.6,2.1,4.9,4.9,4.9C119.3,32.1,121.4,30,121.4,27.4"/>
			
				<path style="clip-path:url(#SVGID_00000041278632890648836600000018346576961619952012_);fill-rule:evenodd;clip-rule:evenodd;fill:#4E7EFF;" d="
				M96.9,50c-2.8,0-5.1-2.3-5.1-5.1s2.3-5.1,5.1-5.1s5.1,2.3,5.1,5.1S99.7,50,96.9,50 M109.5,44.9v-21h-7.5v9.8
				c-1.4-0.9-3.3-1.4-5.1-1.4c-7,0-12.6,5.6-12.6,12.6s5.6,12.6,12.6,12.6C103.7,57.5,109.5,52.4,109.5,44.9"/>
			
				<path style="clip-path:url(#SVGID_00000041278632890648836600000018346576961619952012_);fill-rule:evenodd;clip-rule:evenodd;fill:#4E7EFF;" d="
				M69.2,50c-2.8,0-5.1-2.3-5.1-5.1s2.3-5.1,5.1-5.1s5.1,2.3,5.1,5.1S72,50,69.2,50 M81.8,44.9v-21h-7.5v9.8
				c-1.4-0.9-3.3-1.4-5.1-1.4c-7,0-12.6,5.6-12.6,12.6s5.6,12.6,12.6,12.6C75.9,57.5,81.8,52.4,81.8,44.9"/>
			
				<path style="clip-path:url(#SVGID_00000041278632890648836600000018346576961619952012_);fill-rule:evenodd;clip-rule:evenodd;fill:#4E7EFF;" d="
				M41.2,38.6c-2.3,0-4.4,1.4-5.1,3.5v-7c0-2.8,2.3-5.1,5.1-5.1c2.8,0,5.1,2.3,5.1,5.1v7C45.6,40,43.7,38.6,41.2,38.6 M46.5,46.3V57
				H54V36v-0.5c0-7.5-5.8-13.1-12.8-13.1s-12.6,5.6-12.6,12.6v21.7H36V46.1c0.7,2.1,2.8,3.7,5.1,3.7C43.5,49.8,45.6,48.4,46.5,46.3"
				/>
		</g>
	</g>
</g>
</svg>
