<?xml version="1.0" encoding="utf-8"?>
<!-- Generator: Adobe Illustrator 28.1.0, SVG Export Plug-In . SVG Version: 6.00 Build 0)  -->
<svg version="1.1" id="Capa_1" xmlns="http://www.w3.org/2000/svg" xmlns:xlink="http://www.w3.org/1999/xlink" x="0px" y="0px"
	 viewBox="0 0 1020.8 199" style="enable-background:new 0 0 1020.8 199;" xml:space="preserve">
<style type="text/css">
	.st0{fill:#25463F;}
</style>
<g>
	<g>
		<circle class="st0" cx="53.9" cy="53.9" r="53.9"/>
		<circle class="st0" cx="164.8" cy="127.1" r="33.2"/>
		<circle class="st0" cx="53.6" cy="178.5" r="20.5"/>
		<g>
			<g>
				<g>
					<path class="st0" d="M92.7,144.1c10.1,7.3,23,10.8,35.2,7.4c12.2-3.3,21.5-12.9,26.4-24.3c1.2-2.7,0.6-5.9-2.2-7.4
						c-2.4-1.3-6.2-0.5-7.4,2.2c-3.8,8.8-10.2,16.4-19.8,19c-9.6,2.6-19.2-0.9-27-6.5c-2.4-1.7-6.1-0.2-7.4,2.2
						C89,139.5,90.3,142.4,92.7,144.1L92.7,144.1z"/>
				</g>
				<g>
					<path class="st0" d="M90,133.6c-10.5,2.1-20.2,5.3-27.2,13.8c-6.3,7.6-9.6,17.3-9,27.1c0.4,7,11.2,5.4,10.8-1.6
						c-0.4-7,2.7-13.8,7.1-19.1c5-6.1,12.6-8,20-9.5C98.5,143,96.9,132.2,90,133.6L90,133.6z"/>
				</g>
				<g>
					<path class="st0" d="M98.3,140.6c6.1-12.3,7-27.2-0.1-39.4c-7.6-12.9-22.8-20.4-37.5-20.4c-7,0-7.8,10.9-0.8,10.9
						c10.7,0,22.9,4.7,28.5,14.3c5.1,8.6,5.3,19.6,0.8,28.6c-1.3,2.6-1.1,5.8,1.6,7.6C92.9,143.7,96.9,143.3,98.3,140.6L98.3,140.6z
						"/>
				</g>
			</g>
		</g>
	</g>
	<g>
		<path class="st0" d="M358.5,75h-28v61.9h-13.9V75h-28V62h69.8V75z"/>
		<path class="st0" d="M397.6,62h34.8c21.3,0,31.8,7.3,31.8,22c0,10.1-5.1,16.7-15.2,19.8l15.2,33H449l-14.2-31h-23.4v31h-13.9V62z
			 M411.5,75v18H436c10.1,0,14.1-3,14.1-8.9c0-6.1-4-9-14.1-9H411.5z"/>
		<path class="st0" d="M566.2,62v13h-46.8v18H556v13h-36.6l-0.1,18h47.4v13h-61.1V62H566.2z"/>
		<path class="st0" d="M668.1,62v13h-46.8v18h36.6v13h-36.6l-0.1,18h47.4v13h-61.1V62H668.1z"/>
		<path class="st0" d="M703.8,99.5c0-25.1,13.4-39.2,37.3-39.2c23.9,0,37.3,14.1,37.3,39.2c0,25.1-13.4,39.2-37.3,39.2
			C717.3,138.7,703.8,124.6,703.8,99.5z M741.2,125.3c15.5,0,23.2-8.6,23.2-25.8c0-17.2-7.7-25.8-23.2-25.8
			c-15.5,0-23.2,8.6-23.2,25.8C717.9,116.7,725.6,125.3,741.2,125.3z"/>
		<path class="st0" d="M858.8,117.9L884.5,62h13.9v74.9h-13.9V95.2l-19.2,41.8h-13l-19.2-41.8v41.8h-13.9V62h13.9L858.8,117.9z"/>
		<path class="st0" d="M934.2,136.9L968.5,62h17.8l34.4,74.9h-15.2l-7.5-16.2h-41.2l-7.5,16.2H934.2z M992.1,107.8l-14.7-31.9
			l-14.7,31.9H992.1z"/>
	</g>
</g>
</svg>
