<?xml version="1.0" encoding="utf-8"?>
<!-- Generator: Adobe Illustrator 26.4.1, SVG Export Plug-In . SVG Version: 6.00 Build 0)  -->
<svg version="1.1" id="Capa_1" xmlns="http://www.w3.org/2000/svg" xmlns:xlink="http://www.w3.org/1999/xlink" x="0px" y="0px"
	 viewBox="0 0 200 200" style="enable-background:new 0 0 200 200;" xml:space="preserve">
<style type="text/css">
	.st0{fill:#FFFFFF;}
	.st1{clip-path:url(#SVGID_00000163039462339341549720000008582131582822325398_);}
	.st2{fill:#5D3200;}
	.st3{clip-path:url(#SVGID_00000034770371081576032290000014496664444928986047_);}
	.st4{fill:#007A4E;}
	.st5{fill:#007735;}
	.st6{fill:#009641;}
	.st7{fill:#98C21D;}
	.st8{fill:#D2D100;}
	.st9{fill:#007747;}
	.st10{fill:#633912;}
</style>
<g>
	<rect x="20" y="20" class="st0" width="160" height="160"/>
	<g id="Ilustración_120">
		<g>
			<defs>
				<rect id="SVGID_1_" x="29.6" y="33.6" width="140.7" height="132.9"/>
			</defs>
			<clipPath id="SVGID_00000000185979154140330010000016595941980745720458_">
				<use xlink:href="#SVGID_1_"  style="overflow:visible;"/>
			</clipPath>
			<g style="clip-path:url(#SVGID_00000000185979154140330010000016595941980745720458_);">
				<rect x="101.9" y="83.8" class="st2" width="1.7" height="55.2"/>
				<rect x="133.9" y="85.7" class="st2" width="1" height="53.3"/>
				<rect x="96.6" y="87.1" class="st2" width="0.9" height="51.9"/>
				<rect x="92.6" y="88.9" class="st2" width="0.9" height="50.1"/>
				<rect x="111.3" y="85.4" class="st2" width="1" height="53.6"/>
				<rect x="108.3" y="85.4" class="st2" width="1" height="53.6"/>
				<rect x="48.4" y="79.2" class="st2" width="1" height="59.8"/>
				<rect x="42.3" y="75.4" class="st2" width="0.7" height="63.7"/>
				<rect x="40.3" y="75.4" class="st2" width="0.7" height="63.7"/>
				<rect x="72.5" y="79.8" class="st2" width="3.9" height="59.2"/>
				<rect x="86.3" y="68.2" class="st2" width="3" height="70.8"/>
				<rect x="125.6" y="84.1" class="st2" width="1" height="54.9"/>
				<rect x="135.9" y="84.4" class="st2" width="1" height="54.6"/>
				<rect x="129" y="84.7" class="st2" width="3.9" height="54.3"/>
				<rect x="104.3" y="83.3" class="st2" width="0.9" height="55.7"/>
				<rect x="83.4" y="86.4" class="st2" width="1.8" height="52.7"/>
				<rect x="94.6" y="88.1" class="st2" width="0.9" height="50.9"/>
				<rect x="98.9" y="83.8" class="st2" width="0.9" height="55.2"/>
				<rect x="151.3" y="86.3" class="st2" width="1" height="52.7"/>
				<rect x="144.4" y="89.2" class="st2" width="1" height="49.8"/>
				<rect x="122.5" y="83" class="st2" width="1" height="56"/>
				<rect x="114.3" y="83.1" class="st2" width="1" height="55.9"/>
				<rect x="79.4" y="89.4" class="st2" width="1" height="49.6"/>
				<rect x="77.5" y="90" class="st2" width="1" height="49"/>
				<rect x="155.5" y="86.1" class="st2" width="0.7" height="53"/>
				<rect x="153.6" y="88.8" class="st2" width="0.7" height="50.3"/>
				<rect x="45.8" y="80.2" class="st2" width="1.6" height="58.8"/>
				<rect x="50.7" y="79.2" class="st2" width="1.6" height="59.8"/>
				<rect x="62.7" y="89.6" class="st2" width="1.6" height="49.4"/>
				<rect x="66.6" y="88.4" class="st2" width="1.6" height="50.6"/>
				<rect x="69.7" y="89.9" class="st2" width="1.6" height="49.1"/>
				<rect x="146.5" y="92.7" class="st2" width="3" height="46.3"/>
				<rect x="139.5" y="71.7" class="st2" width="3" height="67.3"/>
				<rect x="118.4" y="84.1" class="st2" width="3" height="55"/>
				<rect x="55" y="85.8" class="st2" width="1" height="53.2"/>
				<rect x="53.1" y="84.6" class="st2" width="1" height="54.4"/>
				<rect x="57.4" y="79.2" class="st2" width="1.6" height="59.8"/>
				<rect x="59.6" y="90" class="st2" width="1" height="49"/>
				<g>
					<defs>
						<rect id="SVGID_00000038414486994693338600000004175930963365946040_" x="29.6" y="33.6" width="140.7" height="132.9"/>
					</defs>
					<clipPath id="SVGID_00000048464310463876844690000004038428795252396181_">
						<use xlink:href="#SVGID_00000038414486994693338600000004175930963365946040_"  style="overflow:visible;"/>
					</clipPath>
					<g style="clip-path:url(#SVGID_00000048464310463876844690000004038428795252396181_);">
						<path class="st4" d="M36.6,86.8c2.1-1.2-6.7-5.2-7-6.8c0.7-0.8,3-3.5,2.1-3.6c-0.5-0.9,0.3-2.4,0.4-2.7
							c-4.7-4.6,4.9-6.2,3.2-10.4c-0.4-0.7,0.4-1.3,0.4-1.5c0-0.2-0.2-0.5-0.1-0.8c-3.2-10.6,7.7-11.6,9.1-10.7
							c0.1-0.1,0.1-0.1,0.2-0.2c0.1,0,0.2-0.2,0.4-0.1c0.3,0.1,0.3,0.4,0.8,0.4c0.1-0.1,0.1-0.4,0.2-0.5c0.1,0,0.2,0,0.3-0.1
							s0-0.2,0.1-0.3c0.1-0.1,0.3-0.1,0.4-0.2c14-10.7,19.7,29.5,17.9,36c-0.3,0.1-0.9,0.2-1.1,0.4C62.3,94.2,37.7,94.8,36.6,86.8"
							/>
						<path class="st5" d="M66.2,48.3H66l-0.3,0.3c-0.3,0.1-0.5,0-0.6,0.3c0.2,0.1,0.5,0.2,0.7,0.2c0,0-0.1,0.1-0.1,0.1
							c-0.5,0.1-0.6,0.3-1,0.4h-0.5c-0.4,0.1-0.7,0.2-1,0.3c-0.3,0.1-0.6,0-0.8,0c-0.1,0.1-0.1,0.1-0.2,0.2c0.1,0.1,0.1,0.2,0.2,0.3
							c-0.6,0.1-0.4,0.3-0.8,0.4c-0.2,0.1-0.4,0-0.6,0c-0.2,0.1-0.5,0.4-0.5,0.6c0.6,0.1,0.8,0.2,0.7,0.6c-0.1,0-0.1,0.1-0.2,0.2
							c-0.3,0.1-0.4,0.2-0.8,0.2C60.1,52.2,60,52,59.6,52c-0.2,0.1-0.6,0.1-0.8,0.2c-0.1,0-0.1,0.1-0.2,0.1c0.1,0.2,0.3,0.2,0.4,0.3
							c0,0.1-0.1,0.3-0.1,0.4c0,0.1,0.1,0.1,0.2,0.3c-0.6,0.2-0.2,0.9,0.4,0.9V54h0.2v0.1c-0.2,0.1-0.2,0.3-0.2,0.6
							c-0.2,0.1-0.2,0.1-0.4,0.1c-0.1,0-0.2,0-0.5,0c0,0.1,0,0.1,0.1,0.1c0.1,0,0.2,0.1,0.3,0.1c-0.1,0.2-0.4,0.2-0.5,0.4
							c-0.1,0.2-0.2,1.3-0.2,1.4c0.2,0.1,0.1,0.1,0.4,0.1c0.1-0.1,0.2-0.2,0.5-0.2v0c0.3,0.2,0.3,0.6,0.3,1c0.3,0.1,0.4,0.2,1,0.2
							c0.1-0.2,0-0.4,0.5-0.4c0.3,0.1,0.4,0.1,0.4,0.4c-0.1,0.1,0,0.2,0.1,0.4c-0.2,0.1-0.4,0.2-0.6,0.3c0.1,0.1,0.2,0.2,0.2,0.4
							c-0.3,0.1-0.6,0.2-0.6,0.4c0.3,0.2,0.2,0.3,0.2,0.6c0.2,0.1,0.1,0.1,0.4,0.1c0.1-0.1,0.2-0.2,0.5-0.2c0.2,0.2,0.3,0.4,0.3,0.7
							c0.3,0.1,0.5,0.3,0.9,0.4h0.9c0.6,0.1,1.5,0.3,2.4,0.1c0.2,0,0.4-0.2,0.6-0.3h0.6c0.4-0.1,0.9-0.3,1.2,0
							c0.3,0.3-0.3,0.3-0.2,0.6c0,0.1,0.2,0.3,0.3,0.4c0.1,0,0.2,0,0.4,0c0.1-0.1,0.2-0.2,0.4-0.3c0.1,0,1-0.1,1.3-0.1
							c0.1,0.1,0.1,0.1,0.2,0.2c-0.4,0.3-0.2,0.6-0.1,1.1c0.2,0.1,0.3,0.1,0.5,0.2c0.8,0,1-0.1,1.7-0.2l0.6-0.4l2.9,0h1.1
							c0.2,0,0.4-0.2,0.6-0.2c0.5-0.1,0.8,0.1,1.1,0.2c0.2,0,0.5,0,0.6,0c0.2,0,0.6,0,0.7,0c0.5,0.1,1.1,0,1.5-0.1
							c0.4,0,0.7,0.1,1,0.1c0.3,0,0.4-0.3,0.6-0.3c0.7-0.2,1.4,0.2,1.5-0.3c-0.1-0.1-0.2-0.1-0.3-0.2c0.3-0.1,1.1-0.5,1.3-0.6
							c0.2-0.2,0.3-0.5,0.6-0.6c0.1,0,0.1,0,0.3,0c0,0,0.1,0.1,0.1,0.1c0.1,0.1,0.1,0.1,0.1,0.2c0.7,0,1.4,0.2,2.1,0.2
							c0.2-0.1,0.3-0.2,0.5-0.3c0-0.2-0.4-0.8-0.6-0.9c-0.2-0.1-0.4,0-0.6,0c-0.1-0.1-0.1-0.2-0.1-0.4h-0.1v0h0.1
							c0.2,0.1,0.5,0.1,1,0.1v-0.3c-0.3-0.1-0.5-0.1-0.6-0.3h0.1c0.2-0.2,0.7-0.1,1-0.2c0.2-0.1-0.1-0.4,0.1-0.6
							c0.2-0.2,0.5-0.1,0.5-0.5c-0.2-0.1-0.4-0.2-0.5-0.4c0.7-0.2,1.3-0.3,2.1-0.4c0.1-0.2,0.2-0.2,0.2-0.4
							c-0.2-0.1-0.6-0.2-0.8-0.4c-0.1-0.1-0.1-0.2-0.2-0.3h-0.5c-0.2,0.1-0.3,0-0.5,0c0,0-0.1-0.1-0.1-0.1c0.3-0.1,0.5-0.2,0.5-0.5
							c-0.3-0.1-0.3-0.2-0.8-0.3c-0.2,0.1-0.4,0.1-0.6,0c0,0-0.1-0.1-0.1-0.1c-0.1-0.1,0.2-0.7,0.3-0.9c-0.4-0.1-1.2-0.4-1.3-0.7
							c0.3-0.2,0.4-0.3,1-0.3c0.1,0.2,0.1,0.3,0.6,0.4c0-0.1,0.1-0.1,0.1-0.2c-0.4-0.3-0.1-0.7-1.2-0.7c-0.1,0.2-0.1,0.3-0.5,0.3
							c-0.2-0.1-0.3,0-0.4-0.2c-0.1-0.1-0.1-0.1-0.1-0.2c0.8-0.2,0.9-0.1,1.8-0.2c0,0.3,0.1,0.6,0.6,0.7c0.1-0.1,0.2-0.1,0.2-0.2
							c0.1-0.1,0.1-0.4,0.1-0.6c-0.4-0.1-0.9-0.2-1.1-0.4c-0.1-0.1,0-0.4-0.1-0.5c0-0.1-0.6-0.4-0.7-0.4h-0.9c-0.2,0-0.4,0-0.6,0
							c-0.1-0.1-0.1-0.1-0.2-0.2c0.2-0.1,0.7-0.1,0.9-0.2c0.1-0.1,0.1-0.1,0.1-0.2c-0.1,0,0,0-0.1-0.1c-0.6-0.1-1.3-0.2-1.3-0.6
							c0.2-0.2,0.1-0.5,0.1-0.7c-0.6-0.2-0.6-0.5-1-0.6c-0.3-0.1-0.5,0-0.7-0.2c0.2-0.1,0.3-0.1,0.4-0.3h-0.2c-0.1,0-0.1,0-0.2,0
							c-0.4,0.2-0.9,0.1-1,0.5c0.3,0.1,0.4,0,0.5,0.2h-0.2c-0.1,0-0.1,0-0.2,0c-0.2-0.1-0.4-0.2-0.6-0.3H83c-0.2-0.1,0-0.2-0.2-0.3
							c-0.1-0.1-0.5-0.1-0.6-0.2v0h0.1c0.1-0.1,0,0,0.2-0.1c0.2,0.2,0.3,0.3,1,0.3c0.1-0.2,0.1-0.4,0.1-0.7c0.8,0,1.9,0,2-0.5
							C85.3,46.1,85,46,85,45.8c-1.1,0-1.9,0.1-2.7,0.3c-0.4,0.1-0.8,0.5-1.5,0.2c-0.3-0.1-0.5-0.2-0.7-0.4c-0.2,0-0.4,0.1-0.6,0.1
							c0-0.7-0.6-0.8-0.7-1.4c0.1,0,0.2,0,0.4,0c0.2,0.1,0.2,0.2,0.6,0.2c0.1,0,0,0,0.2,0c0.1-0.1,0.3-0.3,0.5-0.4v-0.2
							c-1.1-0.1-2.1-0.8-3.3-0.9c-0.2,0.1-0.3,0.1-0.3,0.3c-0.6,0-0.8,0.1-1.3,0.1c-0.1-0.1-0.2-0.2-0.2-0.4c-0.3-0.2-0.1-0.4,0-0.6
							c-0.4-0.2-0.6-0.3-1.3-0.4c-0.1,0.1-0.4,0.3-0.5,0.4c-0.1,0.2,0,0.3-0.2,0.5c-0.3,0.3-1.1,0.2-1.2,0.6
							c0.3,0.2-0.1,0.5-0.2,0.8c-0.5,0-1.3-0.2-1.9,0c-0.2,0.1-0.4,0.2-0.7,0.3c-0.9,0.1-1.4-0.1-1.4,0.5c0.1,0.1,0.1,0.1,0.3,0.2
							c0.3,0.1,0.8-0.1,1.1-0.2c0.4-0.1,0.6,0.1,0.9,0.1c0.3,0.3,0.8,0.5,0.9,0.9c-0.1,0,0,0-0.1,0.1c-0.4,0.2-1,0.3-1.4,0.4
							c-0.2,0.1-0.4,0.3-0.6,0.4c-0.3,0.1-0.8,0.2-1,0.4c-0.2,0.2,0.1,0.3,0.1,0.4c-0.4,0.2-1.1,0.3-1.7,0.3c0,0-0.1-0.1-0.1-0.1
							C66.3,48.4,66.3,48.4,66.2,48.3 M78.4,45.6c0.3,0.2,0.6,0.5,0.7,0.8c-0.2,0.1-0.3,0.1-0.7,0.1c-0.2-0.2-0.5-0.4-0.6-0.8h0.1v0
							C77.9,45.6,78.4,45.6,78.4,45.6z M68.1,48.7c0.1,0.1,0.1,0,0.2,0.1c0.1,0.1,0.1,0.1,0.1,0.2c-0.1,0-0.2,0-0.5,0
							c-0.2-0.1-0.3-0.1-0.4-0.3c0.1,0,0.2,0,0.2,0C67.8,48.7,67.9,48.7,68.1,48.7 M63.1,50.6c0.1,0,0.1,0,0.3,0
							c0,0.1,0.1,0.1,0.1,0.2c-0.2,0-0.4,0-0.6,0c-0.1-0.1-0.1-0.1-0.2-0.2h0.2C63,50.6,63,50.6,63.1,50.6 M87,52.3
							c0.3,0.2,0.5,0.1,0.6,0.5c-0.2,0.1-0.2,0.1-0.5,0.1c-0.3-0.2-0.5-0.1-0.5-0.5c0.1,0,0,0,0.1-0.1H87z M85.9,52.7
							c-0.3,0-0.5,0-0.7,0c-0.1-0.1-0.2-0.2-0.2-0.3h0.6c0.1,0.1,0.2,0.1,0.3,0.1V52.7z M61.1,52.9c0.2,0.1,0.3,0.2,0.3,0.4
							c-0.1,0.1-0.2,0.1-0.3,0.2c-0.1,0-0.2,0-0.2,0c-0.1-0.1-0.1-0.2-0.2-0.4c0.1,0,0,0,0.1-0.1C60.9,52.9,61,52.9,61.1,52.9
							 M59.7,55.5v-0.1c0.2,0,0.3,0,0.4,0v0h-0.1C60,55.5,59.9,55.5,59.7,55.5 M62.5,58.2c0.3,0,0.1,0,0.2,0.1c-0.1,0-0.2,0-0.2,0
							V58.2z M62.2,58.6H62v-0.1L62.2,58.6L62.2,58.6z M90.1,59.1h-0.4c0,0.1,0,0.1,0.1,0.1c0.1,0,0.1,0,0.2,0v0h0.1L90.1,59.1
							L90.1,59.1z M86.3,59.2c0,0,0.1,0.1,0.1,0.1h-0.2C86.3,59.2,86.3,59.2,86.3,59.2 M82.3,61.5c0.4,0,0.8,0.1,0.9,0.4h-0.2
							c-0.2,0.1-0.4,0-0.6,0v-0.1C82.3,61.7,82.3,61.6,82.3,61.5"/>
						<path class="st6" d="M77.4,54.2c-0.1-0.5,0.2-1.1,0.7-1.2c0,0.1,0.1,0.3,0.1,0.4c0.1,0,0.1,0,0.2,0v0l0,0l0,0
							c0-0.1,0-0.1-0.1-0.2c-0.3-0.2-0.3-0.6-0.4-1c-0.2-0.1-0.3-0.1-0.6-0.2c-0.1,0-0.3,0-0.6,0.1c0-0.2,0-0.2,0.1-0.3
							c0.1-0.1,0.3-0.2,0.4-0.2c-0.2-0.3-0.6-0.4-0.8-0.6c-2.5-3.6,7.2-11.1,7.1-12.3c6.5-6.5,6.1-4.5,13.2-4.3c0.6,0,3.6-0.9,4-0.9
							c0.4,0,5.8,0.8,6.2,0.9c1,0.2,1.8-0.7,2.1,0.3c-0.2,0.1-0.3,0.2-0.4,0.4c0.5,0.1-1.3-0.1-1,0.1c0.4,0.3,2.6,1,3.1,1.1
							c0.1,0,0.2,0,0.4,0c0-0.1,0-0.2,0.1-0.3c0.1-0.1,1,0.5,1,0.3c-1.5-0.1,1.9-0.5,3,1.5c-0.2,0.1-0.5,0-0.7,0.2
							c-0.1,0.2,0,0.4,0,0.7c0,0-0.1,0-0.1,0c0,0,0,0.1,0,0.1c0,0,0.1,0,0.1,0c0.2-0.2,0.7-0.3,1.2-0.3c0,0.2,0.1,0.3,0.1,0.5
							c-0.3,0.2-0.7,0.3-0.7,0.6c0,0,0.1,0,0.1,0c0.4,0.3,1,0,1.4,0.2c0.3,0.2,0.1,0.8,0.3,1c0.3,0.3,0.6,0.1,0.8,0.8
							c-0.3,0.2-0.5,0.4-0.5,0.7c1,0.3,1.9,0.4,3,0.4c0.2,0.3,0.4,0.3,0.5,0.8c-0.2,0.2-0.7,0.5-0.9,0.8c-0.1,0.2,0,0.4-0.2,0.5
							c-0.2,0-0.4,0.1-0.6,0.1c-0.3-0.1-0.4,0-0.6,0.1c0,0.1,0,0.1-0.1,0.2c0.5,0.1,0.7,0.4,0.8,0.9c1.6,13.7,11.2,19.8-14.1,23.4
							c-0.3-0.2-0.4-0.1-0.5-0.4c-0.4,0.1-0.6,0-0.9,0c0,0.1,0,0.1,0,0.2c-0.2,0.1-0.4,0.3-0.6,0.4c-0.1,0-0.2,0-0.3,0
							c0,0,0,0.1,0,0.1c-0.3,0.4,0.1,0.7,0.2,1.1c-0.5,0.4-0.7,0.7-1.7,0.9c-0.2-0.2-0.6-0.4-0.8-0.6c-0.2-0.4-0.1-0.6-0.4-0.9
							c-0.5-0.5-1.5-0.1-1.8-0.9c0.2-0.3-19.8-7.3-20.9-9.3c-0.2-0.4-0.6-0.2-0.6-0.9c0.3-0.2,0.6-0.3,0.6-0.7
							c-1-0.4-1.8-0.6-2.9-0.8c-0.1-0.3-0.3-0.4-0.3-0.8c0.3-0.2,0.8-0.4,1.1-0.7c0.1-0.2,0.1-0.4,0.3-0.5h0.9c0,0,0.1,0,0.1,0
							c0.1,0,0.1,0,0.2,0c0-0.1,0.1-0.1,0.1-0.2c-0.5-0.2-0.6-0.5-0.6-1C76.9,54.5,76.9,54.3,77.4,54.2 M77.8,50.6
							C77.9,50.7,77.9,50.7,77.8,50.6L77.8,50.6L77.8,50.6z"/>
						<path class="st4" d="M115.2,85.5c0.2,0.1,0.3-0.1,0.6-0.1c0.2,0,0.3,0.2,0.5,0.2c0.7,0.2,1.2-0.4,1.8,0c0.1,0.1,0,0.1,0.1,0.2
							c-0.4,0.1-1.1,0.1-1.4,0.3c-3.6,2.7,5.2,2.6,7.6,5.9c0.1,0.2,0,0.5,0.2,0.7c0.3,0.4,12.7-1.8,13.3-1.6c3,2.3,6.3-0.1,8.5,2.5
							c0.7,0.6,4.6,1.4,5.6-1.6c0.2-1.1,7-0.3,7.9-1.8c1.2-1.6,3.3-2.6,5.5-3.3c1.3-0.4,2.4-3.4,2.1-5.2c1-1.4,5.8-14,0.6-16.6
							c-0.4-0.6-1.6-1.7-1.9-2.3c-1-0.3-3.7-2.9-5.8-3.5C124.9,49.7,114.9,85.5,115.2,85.5"/>
						<path class="st7" d="M102,51v0.3c0.1,0.1,0.1,0.1,0.1,0.4c-0.2,0.1-5,11.8-5.8,12.9c-0.2,0.3-0.2,0.8-0.4,1l2.1,4.2
							c18.5,8,3.5,23.7-19.2,26.1c-0.3-0.3-0.9-0.5-1.2-0.8c-0.4-0.4-0.6-1.1-1-1.4c-12.7-5.1-14.5,4.4-19.5-8
							c-3.9-2.8-7-5.1-5.8-7.7c4.6-4.9-2.8-4.1-3.1-8c-1.1,0.1-0.2-2.1-0.7-3.3c0.1-0.2,0,0,0.1-0.2c0.8-2.5-1.5-1.7,0.8-3.9
							C44.5,60.1,49,63,46,59.5c0.3-4.7,1.1-7.3,2.9-6.4c-1.1-0.7,1.8-10.9,7.9-10.3c0.4-0.5,4.7-1.5,5-1.9c0.6-0.8-1.6-0.5-1-0.5
							c1.9-0.7,3.8-3.2,5.1-2.6c4-0.9,3.7-4.8,10.2-1.4c3.3-1,10.9-0.9,13.2,2.9C97.5,36.7,101.8,49.4,102,51"/>
						<path class="st8" d="M108,88.6c-4.3,1.6-2.1,1.5-7.5-0.3c-0.9-0.3-1.7-0.6-2.7-1c-3.8-1.2-5.6-3.8-5.7-7.2
							c-4.2-5.8,0.3-20.5,0.4-23c-0.3-0.2-0.3-0.3-0.4-0.7c0.5-0.3-0.6-0.9-0.2-1.2c3-2.2,2.9-3.3,6.2-5.3c0.6-0.4,0.7-1.8,1.7-1.9
							c-0.2-2.8-0.9-3.7,4.9-3.6c1-0.7-0.2-2,1.4-2.7c2.1-1.2,5.5-6.9,10.7-6.1c15.5-2.9,18.6,4.9,26.5,5.1
							c5.6-2.2,13.1,6.1,14.3,8.6c0.5,0.6,0.2,1.1,1.2,1.2c0.1,0,0.3,0,0.7,0c2.1,3.3,0.9,5.5,0.8,9c1.1,2.8-2.3,3.4-1.6,6.1
							c0.5,1.8,1.3,5.6-3.3,7c-0.5,6.1-1.4,7.4-3.3,6.1c-0.2,5.8-16.6,6-16.6,5.8c0.4-0.2-2.1,1.7-4.6,1.5c-1.1-0.1-2.2-1.6-3.3-2
							c-1.5-0.5-4.7,3.5-6.1,4.8C115.7,94.1,112.6,89.2,108,88.6"/>
						<path class="st9" d="M54.9,142.6h-3.7v2.4h3.4c0.2,0,0.4,0.1,0.6,0.2c0.1,0.1,0.2,0.3,0.2,0.5c0,0.2-0.1,0.4-0.2,0.6
							c-0.1,0.1-0.3,0.2-0.6,0.2h-3.4v2.8H55c0.3,0,0.5,0.1,0.6,0.2c0.1,0.1,0.2,0.3,0.2,0.6s-0.1,0.4-0.2,0.6
							c-0.1,0.1-0.3,0.2-0.6,0.2h-4.4c-0.4,0-0.6-0.1-0.8-0.3c-0.2-0.2-0.2-0.5-0.2-0.9v-7.4c0-0.3,0-0.5,0.1-0.7
							c0.1-0.2,0.2-0.3,0.3-0.4s0.3-0.1,0.6-0.1h4.3c0.3,0,0.5,0.1,0.6,0.2c0.1,0.1,0.2,0.3,0.2,0.6c0,0.2-0.1,0.4-0.2,0.6
							C55.3,142.5,55.2,142.6,54.9,142.6"/>
						<path class="st9" d="M57,150v-8c0-0.4,0.1-0.6,0.2-0.8c0.1-0.2,0.3-0.3,0.5-0.3c0.2,0,0.4,0.1,0.5,0.3
							c0.1,0.2,0.2,0.5,0.2,0.8v8c0,0.4-0.1,0.7-0.2,0.8c-0.1,0.2-0.3,0.3-0.5,0.3s-0.4-0.1-0.5-0.3C57.1,150.6,57,150.4,57,150"/>
						<path class="st9" d="M61.5,144.7v5.3c0,0.4-0.1,0.6-0.2,0.8c-0.1,0.2-0.3,0.3-0.5,0.3c-0.2,0-0.4-0.1-0.5-0.3
							c-0.1-0.2-0.2-0.5-0.2-0.8v-5.3c0-0.4,0.1-0.6,0.2-0.8s0.3-0.3,0.5-0.3c0.2,0,0.4,0.1,0.5,0.3
							C61.5,144.1,61.5,144.4,61.5,144.7 M60.8,142.8c-0.2,0-0.4-0.1-0.5-0.2c-0.2-0.2-0.2-0.4-0.2-0.7c0-0.3,0.1-0.5,0.2-0.6
							c0.2-0.2,0.3-0.3,0.5-0.3c0.2,0,0.4,0.1,0.5,0.2c0.2,0.2,0.2,0.4,0.2,0.7c0,0.3-0.1,0.5-0.2,0.7
							C61.2,142.7,61,142.8,60.8,142.8"/>
						<path class="st9" d="M63.9,142.8c-0.2,0-0.4-0.1-0.5-0.2c-0.2-0.2-0.2-0.4-0.2-0.7c0-0.3,0.1-0.5,0.2-0.6
							c0.2-0.2,0.3-0.3,0.5-0.3s0.4,0.1,0.5,0.2c0.2,0.2,0.2,0.4,0.2,0.7s-0.1,0.5-0.2,0.7S64.1,142.8,63.9,142.8 M64.6,144.7v6.3
							c0,0.4,0,0.8,0,1.1c0,0.3-0.1,0.5-0.1,0.6c-0.2,0.8-0.8,1.2-1.6,1.2c-0.5,0-0.8-0.1-1-0.2c-0.2-0.2-0.4-0.4-0.4-0.7
							c0-0.2,0.1-0.4,0.2-0.5c0.1-0.1,0.2-0.2,0.4-0.2c0,0,0.1,0,0.1,0c0.1,0,0.1,0,0.2,0c0.1,0,0.2,0,0.2,0c0.2,0,0.3-0.1,0.4-0.3
							c0.1-0.2,0.1-0.5,0.1-1v-6.2c0-0.4,0.1-0.6,0.2-0.8c0.1-0.2,0.3-0.3,0.5-0.3c0.2,0,0.4,0.1,0.5,0.3
							C64.5,144.1,64.6,144.4,64.6,144.7"/>
						<path class="st9" d="M69.8,147.4c-0.2,0.1-0.5,0.2-1,0.3c-0.4,0.1-0.7,0.2-0.9,0.2c-0.2,0.1-0.3,0.2-0.5,0.3
							c-0.1,0.2-0.2,0.4-0.2,0.6c0,0.3,0.1,0.5,0.3,0.7c0.2,0.2,0.4,0.3,0.7,0.3c0.3,0,0.6-0.1,0.8-0.2c0.2-0.2,0.4-0.4,0.6-0.6
							c0.1-0.3,0.2-0.7,0.2-1.4L69.8,147.4L69.8,147.4z M69.9,150.1c-0.4,0.3-0.7,0.6-1.1,0.8s-0.7,0.3-1.1,0.3
							c-0.4,0-0.7-0.1-1-0.3c-0.3-0.2-0.5-0.4-0.7-0.8c-0.2-0.3-0.2-0.7-0.2-1c0-0.5,0.1-0.9,0.4-1.3c0.3-0.4,0.6-0.6,1.1-0.7
							c0.1,0,0.3-0.1,0.7-0.2c0.4-0.1,0.7-0.2,1-0.3c0.3-0.1,0.6-0.2,0.9-0.3c0-0.5-0.1-0.8-0.2-1.1c-0.1-0.2-0.4-0.3-0.9-0.3
							c-0.4,0-0.7,0.1-0.9,0.2c-0.2,0.1-0.4,0.3-0.5,0.6c-0.1,0.3-0.2,0.4-0.3,0.5c-0.1,0.1-0.2,0.1-0.4,0.1c-0.2,0-0.3-0.1-0.4-0.2
							c-0.1-0.1-0.2-0.3-0.2-0.5c0-0.3,0.1-0.6,0.3-0.9c0.2-0.3,0.5-0.6,0.9-0.8s0.9-0.3,1.5-0.3c0.7,0,1.2,0.1,1.6,0.3
							c0.4,0.2,0.6,0.5,0.8,0.9c0.2,0.4,0.2,1,0.2,1.6c0,0.4,0,0.8,0,1.1s0,0.6,0,1c0,0.3,0,0.7,0.1,1.1c0.1,0.4,0.1,0.6,0.1,0.7
							c0,0.2-0.1,0.4-0.2,0.5c-0.1,0.2-0.3,0.2-0.5,0.2c-0.2,0-0.3-0.1-0.5-0.3C70.3,150.7,70.1,150.4,69.9,150.1"/>
						<path class="st9" d="M80.7,147.5v2.5c0,0.4-0.1,0.7-0.2,0.9c-0.1,0.2-0.3,0.3-0.6,0.3c-0.2,0-0.4-0.1-0.6-0.3
							c-0.1-0.2-0.2-0.5-0.2-0.9V147c0-0.5,0-0.8,0-1.1c0-0.3-0.1-0.5-0.2-0.6s-0.3-0.2-0.5-0.2c-0.5,0-0.8,0.2-1,0.6
							c-0.2,0.4-0.2,1-0.2,1.8v2.5c0,0.4-0.1,0.7-0.2,0.9s-0.3,0.3-0.6,0.3c-0.2,0-0.4-0.1-0.6-0.3s-0.2-0.5-0.2-0.9v-5.3
							c0-0.3,0.1-0.6,0.2-0.8c0.1-0.2,0.3-0.3,0.5-0.3s0.4,0.1,0.5,0.3c0.1,0.2,0.2,0.4,0.2,0.7v0.2c0.3-0.4,0.5-0.7,0.8-0.8
							c0.3-0.2,0.6-0.3,1-0.3c0.4,0,0.7,0.1,1,0.3c0.3,0.2,0.5,0.5,0.7,0.8c0.3-0.4,0.5-0.7,0.8-0.8c0.3-0.2,0.6-0.3,1-0.3
							c0.4,0,0.8,0.1,1.1,0.3c0.3,0.2,0.5,0.5,0.7,0.8c0.1,0.3,0.2,0.9,0.2,1.6v3.6c0,0.4-0.1,0.7-0.2,0.9c-0.1,0.2-0.3,0.3-0.6,0.3
							c-0.2,0-0.4-0.1-0.6-0.3s-0.2-0.5-0.2-0.9v-3.1c0-0.4,0-0.7,0-1c0-0.2-0.1-0.4-0.2-0.6c-0.1-0.2-0.3-0.2-0.5-0.2
							c-0.2,0-0.4,0.1-0.6,0.2s-0.3,0.3-0.4,0.6C80.7,146.2,80.7,146.7,80.7,147.5"/>
						<path class="st9" d="M89.3,147.4c-0.2,0.1-0.5,0.2-1,0.3c-0.4,0.1-0.7,0.2-0.9,0.2c-0.2,0.1-0.3,0.2-0.5,0.3
							c-0.1,0.2-0.2,0.4-0.2,0.6c0,0.3,0.1,0.5,0.3,0.7c0.2,0.2,0.4,0.3,0.7,0.3c0.3,0,0.6-0.1,0.8-0.2c0.3-0.2,0.4-0.4,0.6-0.6
							c0.1-0.3,0.2-0.7,0.2-1.4V147.4L89.3,147.4z M89.4,150.1c-0.4,0.3-0.7,0.6-1.1,0.8c-0.3,0.2-0.7,0.3-1.1,0.3
							c-0.4,0-0.7-0.1-1-0.3c-0.3-0.2-0.5-0.4-0.7-0.8c-0.2-0.3-0.2-0.7-0.2-1c0-0.5,0.1-0.9,0.4-1.3c0.3-0.4,0.6-0.6,1.1-0.7
							c0.1,0,0.3-0.1,0.7-0.2s0.7-0.2,1-0.3c0.3-0.1,0.6-0.2,0.9-0.3c0-0.5-0.1-0.8-0.2-1.1c-0.1-0.2-0.4-0.3-0.9-0.3
							c-0.4,0-0.7,0.1-0.9,0.2c-0.2,0.1-0.4,0.3-0.5,0.6c-0.1,0.3-0.2,0.4-0.3,0.5c-0.1,0.1-0.2,0.1-0.4,0.1c-0.2,0-0.3-0.1-0.4-0.2
							c-0.1-0.1-0.2-0.3-0.2-0.5c0-0.3,0.1-0.6,0.3-0.9c0.2-0.3,0.5-0.6,0.9-0.8s0.9-0.3,1.5-0.3c0.7,0,1.2,0.1,1.6,0.3
							c0.4,0.2,0.6,0.5,0.8,0.9c0.2,0.4,0.2,1,0.2,1.6c0,0.4,0,0.8,0,1.1s0,0.6,0,1c0,0.3,0,0.7,0.1,1.1c0.1,0.4,0.1,0.6,0.1,0.7
							c0,0.2-0.1,0.4-0.2,0.5c-0.1,0.2-0.3,0.2-0.5,0.2c-0.2,0-0.3-0.1-0.5-0.3C89.8,150.7,89.6,150.4,89.4,150.1"/>
						<path class="st9" d="M93.5,147.4c0,0.5,0.1,0.9,0.2,1.3c0.1,0.4,0.3,0.6,0.5,0.8c0.2,0.2,0.5,0.3,0.7,0.3
							c0.3,0,0.5-0.1,0.7-0.3c0.2-0.2,0.4-0.4,0.5-0.8c0.1-0.3,0.2-0.8,0.2-1.3c0-0.5-0.1-0.9-0.2-1.3c-0.1-0.4-0.3-0.6-0.5-0.8
							c-0.2-0.2-0.5-0.3-0.7-0.3s-0.5,0.1-0.7,0.3c-0.2,0.2-0.4,0.5-0.5,0.8C93.5,146.5,93.5,146.9,93.5,147.4 M96.4,150.1v-0.2
							c-0.2,0.3-0.4,0.5-0.6,0.7c-0.2,0.2-0.4,0.3-0.6,0.4c-0.2,0.1-0.5,0.1-0.8,0.1c-0.4,0-0.7-0.1-1-0.3c-0.3-0.2-0.6-0.5-0.8-0.8
							c-0.2-0.3-0.4-0.8-0.5-1.2s-0.2-1-0.2-1.5c0-1.2,0.2-2.1,0.7-2.7c0.5-0.6,1.1-1,1.8-1c0.4,0,0.8,0.1,1.1,0.3
							c0.3,0.2,0.6,0.5,0.9,0.8V142c0-0.4,0.1-0.7,0.2-0.9c0.1-0.2,0.3-0.3,0.5-0.3c0.2,0,0.4,0.1,0.5,0.3c0.1,0.2,0.2,0.4,0.2,0.8
							v8.1c0,0.4-0.1,0.6-0.2,0.8c-0.1,0.2-0.3,0.3-0.5,0.3c-0.2,0-0.4-0.1-0.5-0.3C96.5,150.7,96.4,150.4,96.4,150.1"/>
						<path class="st9" d="M100.6,146.8h2.7c0-0.6-0.2-1.1-0.4-1.4c-0.2-0.3-0.6-0.5-0.9-0.5s-0.7,0.2-0.9,0.5
							C100.8,145.7,100.7,146.2,100.6,146.8 M103.5,147.8h-2.9c0,0.4,0.1,0.8,0.2,1.1c0.1,0.3,0.3,0.6,0.5,0.7
							c0.2,0.2,0.5,0.2,0.7,0.2c0.2,0,0.3,0,0.5-0.1c0.2-0.1,0.3-0.1,0.4-0.2c0.1-0.1,0.3-0.2,0.4-0.4s0.3-0.3,0.5-0.5
							c0.1-0.1,0.2-0.1,0.3-0.1c0.2,0,0.3,0.1,0.4,0.2c0.1,0.1,0.1,0.2,0.1,0.4c0,0.2-0.1,0.4-0.2,0.6c-0.1,0.2-0.3,0.4-0.5,0.6
							c-0.2,0.2-0.5,0.4-0.8,0.5c-0.3,0.1-0.7,0.2-1.1,0.2c-1,0-1.7-0.3-2.2-1c-0.5-0.7-0.8-1.6-0.8-2.7c0-0.5,0.1-1.1,0.2-1.5
							c0.1-0.5,0.3-0.9,0.6-1.2c0.3-0.3,0.6-0.6,0.9-0.8c0.4-0.2,0.8-0.3,1.2-0.3c0.6,0,1.1,0.2,1.5,0.5c0.4,0.3,0.7,0.7,0.9,1.2
							c0.2,0.5,0.3,1,0.3,1.5c0,0.5-0.1,0.8-0.3,0.9C104.2,147.8,103.9,147.8,103.5,147.8"/>
						<path class="st9" d="M107.5,148.5v1.5c0,0.4-0.1,0.7-0.2,0.8c-0.1,0.2-0.3,0.3-0.5,0.3c-0.2,0-0.4-0.1-0.5-0.3
							c-0.1-0.2-0.2-0.5-0.2-0.8v-5.1c0-0.8,0.2-1.2,0.7-1.2c0.2,0,0.4,0.1,0.5,0.3c0.1,0.2,0.2,0.5,0.2,0.9
							c0.2-0.4,0.4-0.7,0.6-0.9c0.2-0.2,0.4-0.3,0.8-0.3c0.3,0,0.6,0.1,0.9,0.3c0.3,0.2,0.4,0.5,0.4,0.8c0,0.2-0.1,0.4-0.2,0.6
							c-0.1,0.1-0.3,0.2-0.4,0.2c-0.1,0-0.2,0-0.4-0.1c-0.2-0.1-0.4-0.1-0.6-0.1c-0.2,0-0.4,0.1-0.5,0.2c-0.1,0.1-0.2,0.4-0.3,0.6
							c-0.1,0.3-0.1,0.6-0.2,1C107.6,147.4,107.5,147.9,107.5,148.5"/>
						<path class="st9" d="M114.4,147.4c-0.2,0.1-0.5,0.2-1,0.3c-0.4,0.1-0.7,0.2-0.9,0.2s-0.3,0.2-0.5,0.3
							c-0.1,0.2-0.2,0.4-0.2,0.6c0,0.3,0.1,0.5,0.3,0.7c0.2,0.2,0.4,0.3,0.7,0.3c0.3,0,0.6-0.1,0.8-0.2c0.3-0.2,0.4-0.4,0.6-0.6
							c0.1-0.3,0.2-0.7,0.2-1.4V147.4L114.4,147.4z M114.5,150.1c-0.4,0.3-0.7,0.6-1.1,0.8c-0.3,0.2-0.7,0.3-1.1,0.3
							c-0.4,0-0.7-0.1-1-0.3s-0.5-0.4-0.7-0.8c-0.2-0.3-0.2-0.7-0.2-1c0-0.5,0.1-0.9,0.4-1.3c0.3-0.4,0.6-0.6,1.1-0.7
							c0.1,0,0.3-0.1,0.7-0.2c0.4-0.1,0.7-0.2,1-0.3c0.3-0.1,0.6-0.2,0.9-0.3c0-0.5-0.1-0.8-0.2-1.1c-0.1-0.2-0.4-0.3-0.9-0.3
							c-0.4,0-0.7,0.1-0.9,0.2c-0.2,0.1-0.4,0.3-0.5,0.6c-0.1,0.3-0.2,0.4-0.3,0.5c-0.1,0.1-0.2,0.1-0.4,0.1c-0.2,0-0.3-0.1-0.4-0.2
							c-0.1-0.1-0.2-0.3-0.2-0.5c0-0.3,0.1-0.6,0.3-0.9c0.2-0.3,0.5-0.6,0.9-0.8c0.4-0.2,0.9-0.3,1.5-0.3c0.7,0,1.2,0.1,1.6,0.3
							c0.4,0.2,0.6,0.5,0.8,0.9c0.2,0.4,0.2,1,0.2,1.6c0,0.4,0,0.8,0,1.1s0,0.6,0,1c0,0.3,0,0.7,0.1,1.1c0.1,0.4,0.1,0.6,0.1,0.7
							c0,0.2-0.1,0.4-0.2,0.5c-0.1,0.2-0.3,0.2-0.5,0.2c-0.2,0-0.3-0.1-0.5-0.3C114.8,150.7,114.7,150.4,114.5,150.1"/>
						<path class="st9" d="M120.2,150v-8c0-0.4,0.1-0.6,0.2-0.8c0.1-0.2,0.3-0.3,0.5-0.3c0.2,0,0.4,0.1,0.5,0.3
							c0.1,0.2,0.2,0.5,0.2,0.8v8c0,0.4-0.1,0.7-0.2,0.8c-0.1,0.2-0.3,0.3-0.5,0.3s-0.4-0.1-0.5-0.3
							C120.3,150.6,120.2,150.4,120.2,150"/>
						<path class="st9" d="M124.5,146.8h2.7c0-0.6-0.2-1.1-0.4-1.4c-0.2-0.3-0.6-0.5-0.9-0.5c-0.4,0-0.7,0.2-0.9,0.5
							C124.7,145.7,124.6,146.2,124.5,146.8 M127.4,147.8h-2.9c0,0.4,0.1,0.8,0.2,1.1c0.1,0.3,0.3,0.6,0.5,0.7
							c0.2,0.2,0.5,0.2,0.7,0.2c0.2,0,0.3,0,0.5-0.1c0.2-0.1,0.3-0.1,0.4-0.2c0.1-0.1,0.3-0.2,0.4-0.4s0.3-0.3,0.5-0.5
							c0.1-0.1,0.2-0.1,0.3-0.1c0.2,0,0.3,0.1,0.4,0.2c0.1,0.1,0.1,0.2,0.1,0.4c0,0.2-0.1,0.4-0.2,0.6c-0.1,0.2-0.3,0.4-0.5,0.6
							c-0.2,0.2-0.5,0.4-0.8,0.5c-0.3,0.1-0.7,0.2-1.1,0.2c-1,0-1.7-0.3-2.2-1s-0.8-1.6-0.8-2.7c0-0.5,0.1-1.1,0.2-1.5
							c0.1-0.5,0.3-0.9,0.6-1.2s0.6-0.6,0.9-0.8s0.8-0.3,1.2-0.3c0.6,0,1.1,0.2,1.5,0.5c0.4,0.3,0.7,0.7,0.9,1.2
							c0.2,0.5,0.3,1,0.3,1.5c0,0.5-0.1,0.8-0.3,0.9C128.1,147.8,127.8,147.8,127.4,147.8"/>
						<path class="st9" d="M131,147.3c0,0.7,0.1,1.3,0.4,1.7s0.6,0.6,1,0.6c0.2,0,0.5-0.1,0.7-0.2c0.2-0.2,0.4-0.4,0.5-0.7
							c0.1-0.3,0.2-0.7,0.2-1.2c0-0.8-0.1-1.3-0.4-1.8c-0.3-0.4-0.6-0.6-1.1-0.6c-0.4,0-0.8,0.2-1,0.6
							C131.1,146,131,146.6,131,147.3 M135.3,145v5.4c0,0.6-0.1,1.1-0.2,1.6c-0.1,0.4-0.3,0.8-0.5,1.1c-0.2,0.3-0.5,0.5-0.9,0.6
							s-0.8,0.2-1.4,0.2c-0.5,0-1-0.1-1.4-0.3c-0.4-0.2-0.7-0.4-0.9-0.7c-0.2-0.3-0.3-0.6-0.3-0.9c0-0.2,0.1-0.4,0.2-0.5
							s0.3-0.2,0.5-0.2c0.2,0,0.4,0.1,0.6,0.4c0.1,0.1,0.2,0.2,0.2,0.4c0.1,0.1,0.2,0.2,0.3,0.3s0.2,0.2,0.4,0.2
							c0.1,0,0.3,0.1,0.5,0.1c0.4,0,0.7-0.1,0.9-0.2c0.2-0.1,0.4-0.3,0.5-0.6c0.1-0.2,0.1-0.5,0.2-0.8c0-0.3,0-0.7,0-1.3
							c-0.2,0.4-0.5,0.7-0.8,0.9c-0.3,0.2-0.7,0.3-1.1,0.3c-0.5,0-0.9-0.2-1.3-0.5s-0.7-0.8-0.9-1.3c-0.2-0.6-0.3-1.2-0.3-2
							c0-0.6,0.1-1.1,0.2-1.5s0.3-0.8,0.5-1.1c0.2-0.3,0.5-0.5,0.8-0.7c0.3-0.2,0.6-0.2,1-0.2c0.4,0,0.8,0.1,1.1,0.3
							c0.3,0.2,0.6,0.5,0.9,0.9v-0.2c0-0.3,0.1-0.6,0.2-0.7c0.1-0.2,0.3-0.3,0.5-0.3c0.3,0,0.5,0.1,0.6,0.3
							C135.3,144.2,135.3,144.5,135.3,145"/>
						<path class="st9" d="M140.2,147.4c-0.2,0.1-0.5,0.2-1,0.3c-0.4,0.1-0.7,0.2-0.9,0.2c-0.2,0.1-0.3,0.2-0.5,0.3
							c-0.1,0.2-0.2,0.4-0.2,0.6c0,0.3,0.1,0.5,0.3,0.7c0.2,0.2,0.4,0.3,0.7,0.3c0.3,0,0.6-0.1,0.8-0.2c0.3-0.2,0.4-0.4,0.6-0.6
							c0.1-0.3,0.2-0.7,0.2-1.4V147.4L140.2,147.4z M140.3,150.1c-0.4,0.3-0.7,0.6-1.1,0.8c-0.3,0.2-0.7,0.3-1.1,0.3
							c-0.4,0-0.7-0.1-1-0.3c-0.3-0.2-0.5-0.4-0.7-0.8c-0.2-0.3-0.2-0.7-0.2-1c0-0.5,0.1-0.9,0.4-1.3c0.3-0.4,0.6-0.6,1.1-0.7
							c0.1,0,0.3-0.1,0.7-0.2c0.4-0.1,0.7-0.2,1-0.3c0.3-0.1,0.6-0.2,0.9-0.3c0-0.5-0.1-0.8-0.2-1.1c-0.1-0.2-0.4-0.3-0.9-0.3
							c-0.4,0-0.7,0.1-0.9,0.2c-0.2,0.1-0.4,0.3-0.5,0.6c-0.1,0.3-0.2,0.4-0.3,0.5c-0.1,0.1-0.2,0.1-0.4,0.1c-0.2,0-0.3-0.1-0.4-0.2
							c-0.1-0.1-0.2-0.3-0.2-0.5c0-0.3,0.1-0.6,0.3-0.9c0.2-0.3,0.5-0.6,0.9-0.8s0.9-0.3,1.5-0.3c0.7,0,1.2,0.1,1.6,0.3
							c0.4,0.2,0.6,0.5,0.8,0.9c0.2,0.4,0.2,1,0.2,1.6c0,0.4,0,0.8,0,1.1s0,0.6,0,1c0,0.3,0,0.7,0.1,1.1c0.1,0.4,0.1,0.6,0.1,0.7
							c0,0.2-0.1,0.4-0.2,0.5c-0.1,0.2-0.3,0.2-0.5,0.2c-0.2,0-0.3-0.1-0.5-0.3C140.7,150.7,140.5,150.4,140.3,150.1"/>
						<path class="st9" d="M143.2,150v-8c0-0.4,0.1-0.6,0.2-0.8c0.1-0.2,0.3-0.3,0.5-0.3s0.4,0.1,0.5,0.3c0.1,0.2,0.2,0.5,0.2,0.8v8
							c0,0.4-0.1,0.7-0.2,0.8c-0.1,0.2-0.3,0.3-0.5,0.3c-0.2,0-0.4-0.1-0.5-0.3C143.3,150.6,143.2,150.4,143.2,150"/>
						<path class="st10" d="M48,160.4c0,0.3-0.1,0.7-0.2,1c-0.1,0.4-0.3,0.7-0.6,1.1c-0.3,0.4-0.6,0.6-1,0.9
							c-0.4,0.2-0.9,0.3-1.5,0.3c-0.4,0-0.8-0.1-1.2-0.2s-0.7-0.3-0.9-0.5c-0.3-0.2-0.5-0.5-0.8-0.8c-0.2-0.3-0.4-0.7-0.5-1
							s-0.3-0.8-0.3-1.2s-0.1-0.9-0.1-1.4c0-0.8,0.1-1.5,0.3-2.1c0.2-0.6,0.5-1.2,0.8-1.6c0.4-0.5,0.8-0.8,1.2-1
							c0.5-0.2,1-0.4,1.5-0.4c0.7,0,1.2,0.2,1.7,0.5c0.5,0.3,0.9,0.7,1.2,1.2c0.3,0.5,0.4,0.9,0.4,1.3c0,0.2-0.1,0.4-0.2,0.6
							c-0.1,0.2-0.3,0.3-0.5,0.3c-0.2,0-0.4-0.1-0.5-0.2c-0.1-0.1-0.2-0.3-0.3-0.6c-0.2-0.5-0.5-0.9-0.8-1.1
							c-0.3-0.2-0.6-0.4-1.1-0.4c-0.7,0-1.2,0.3-1.6,0.9c-0.4,0.6-0.6,1.5-0.6,2.7c0,0.8,0.1,1.4,0.3,1.9c0.2,0.5,0.4,0.9,0.7,1.1
							c0.3,0.3,0.7,0.4,1.1,0.4c0.5,0,0.9-0.1,1.2-0.4c0.3-0.3,0.6-0.7,0.7-1.3c0.1-0.3,0.2-0.5,0.3-0.6c0.1-0.2,0.3-0.2,0.5-0.2
							c0.2,0,0.4,0.1,0.5,0.2C47.9,159.9,48,160.1,48,160.4"/>
						<path class="st10" d="M53.5,159.9c0-0.8-0.1-1.3-0.4-1.8c-0.3-0.4-0.6-0.6-1.1-0.6c-0.3,0-0.6,0.1-0.8,0.3
							c-0.2,0.2-0.4,0.5-0.5,0.8c-0.1,0.4-0.2,0.8-0.2,1.3c0,0.5,0.1,0.9,0.2,1.3c0.1,0.4,0.3,0.6,0.5,0.8c0.2,0.2,0.5,0.3,0.8,0.3
							c0.5,0,0.8-0.2,1.1-0.6C53.3,161.3,53.5,160.7,53.5,159.9 M55,159.9c0,0.5-0.1,1.1-0.2,1.5c-0.1,0.5-0.3,0.9-0.6,1.2
							c-0.3,0.3-0.6,0.6-0.9,0.8c-0.4,0.2-0.8,0.3-1.2,0.3c-0.5,0-0.9-0.1-1.2-0.3c-0.4-0.2-0.7-0.4-0.9-0.8
							c-0.3-0.3-0.5-0.7-0.6-1.2c-0.1-0.5-0.2-1-0.2-1.5c0-0.6,0.1-1.1,0.2-1.5c0.1-0.5,0.3-0.9,0.6-1.2c0.3-0.3,0.6-0.6,0.9-0.8
							c0.4-0.2,0.8-0.3,1.2-0.3s0.9,0.1,1.2,0.3c0.4,0.2,0.7,0.4,1,0.8c0.3,0.3,0.5,0.7,0.6,1.2C54.9,158.9,55,159.4,55,159.9"/>
						<path class="st10" d="M61.2,160.1v2.5c0,0.4-0.1,0.7-0.2,0.9c-0.1,0.2-0.3,0.3-0.6,0.3c-0.2,0-0.4-0.1-0.6-0.3
							c-0.1-0.2-0.2-0.5-0.2-0.9v-2.9c0-0.5,0-0.8,0-1.1c0-0.3-0.1-0.5-0.2-0.6c-0.1-0.2-0.3-0.2-0.5-0.2c-0.5,0-0.8,0.2-1,0.6
							c-0.2,0.4-0.2,1-0.2,1.8v2.5c0,0.4-0.1,0.7-0.2,0.9c-0.1,0.2-0.3,0.3-0.6,0.3c-0.2,0-0.4-0.1-0.6-0.3
							c-0.1-0.2-0.2-0.5-0.2-0.9v-5.3c0-0.3,0.1-0.6,0.2-0.8c0.1-0.2,0.3-0.3,0.5-0.3s0.4,0.1,0.5,0.3c0.1,0.2,0.2,0.4,0.2,0.7v0.2
							c0.3-0.4,0.5-0.7,0.8-0.8c0.3-0.2,0.6-0.3,1-0.3s0.7,0.1,1,0.3c0.3,0.2,0.5,0.5,0.7,0.8c0.3-0.4,0.5-0.7,0.8-0.8
							c0.3-0.2,0.6-0.3,1-0.3c0.4,0,0.8,0.1,1.1,0.3s0.5,0.5,0.7,0.8c0.1,0.3,0.2,0.9,0.2,1.6v3.6c0,0.4-0.1,0.7-0.2,0.9
							c-0.1,0.2-0.3,0.3-0.6,0.3s-0.4-0.1-0.6-0.3c-0.1-0.2-0.2-0.5-0.2-0.9v-3.1c0-0.4,0-0.7,0-1s-0.1-0.4-0.2-0.6
							c-0.1-0.2-0.3-0.2-0.5-0.2c-0.2,0-0.4,0.1-0.6,0.2s-0.3,0.3-0.4,0.6C61.2,158.7,61.2,159.3,61.2,160.1"/>
						<path class="st10" d="M70.5,159.9c0-0.5-0.1-0.9-0.2-1.3c-0.1-0.3-0.3-0.6-0.5-0.8c-0.2-0.2-0.5-0.3-0.7-0.3
							c-0.4,0-0.8,0.2-1,0.6c-0.3,0.4-0.4,1-0.4,1.8c0,0.7,0.1,1.3,0.4,1.7c0.3,0.4,0.6,0.6,1.1,0.6c0.2,0,0.5-0.1,0.7-0.3
							s0.4-0.4,0.5-0.8C70.4,160.8,70.5,160.4,70.5,159.9 M67.5,157.2v0.2c0.3-0.4,0.6-0.7,0.9-0.9c0.3-0.2,0.6-0.3,1-0.3
							c0.5,0,0.9,0.1,1.3,0.4s0.7,0.7,0.9,1.3c0.2,0.6,0.3,1.2,0.3,2c0,0.6-0.1,1.1-0.2,1.6c-0.1,0.5-0.3,0.9-0.5,1.2
							c-0.2,0.3-0.5,0.6-0.8,0.7c-0.3,0.2-0.6,0.3-1,0.3c-0.4,0-0.8-0.1-1.1-0.3c-0.3-0.2-0.6-0.5-0.8-0.9v2.8
							c0,0.8-0.2,1.2-0.7,1.2c-0.3,0-0.5-0.1-0.6-0.3c-0.1-0.2-0.1-0.5-0.1-0.9v-8c0-0.4,0.1-0.6,0.2-0.8c0.1-0.2,0.3-0.3,0.5-0.3
							s0.4,0.1,0.5,0.3C67.4,156.6,67.5,156.9,67.5,157.2"/>
						<path class="st10" d="M74.7,161v1.5c0,0.4-0.1,0.7-0.2,0.8c-0.1,0.2-0.3,0.3-0.5,0.3s-0.4-0.1-0.5-0.3
							c-0.1-0.2-0.2-0.5-0.2-0.8v-5.1c0-0.8,0.2-1.2,0.7-1.2c0.2,0,0.4,0.1,0.5,0.3c0.1,0.2,0.2,0.5,0.2,0.9
							c0.2-0.4,0.4-0.7,0.6-0.9c0.2-0.2,0.4-0.3,0.8-0.3c0.3,0,0.6,0.1,0.9,0.3c0.3,0.2,0.4,0.5,0.4,0.8c0,0.2-0.1,0.4-0.2,0.6
							s-0.3,0.2-0.4,0.2c-0.1,0-0.2,0-0.4-0.1c-0.2-0.1-0.4-0.1-0.6-0.1c-0.2,0-0.4,0.1-0.5,0.2c-0.1,0.1-0.2,0.4-0.3,0.6
							c-0.1,0.3-0.1,0.6-0.2,1C74.7,160,74.7,160.5,74.7,161"/>
						<path class="st10" d="M79.1,159.3h2.7c0-0.6-0.2-1.1-0.4-1.4c-0.2-0.3-0.6-0.5-0.9-0.5c-0.4,0-0.7,0.2-0.9,0.5
							C79.3,158.3,79.1,158.7,79.1,159.3 M82,160.4h-2.9c0,0.4,0.1,0.8,0.2,1.1c0.1,0.3,0.3,0.6,0.5,0.7c0.2,0.2,0.5,0.2,0.7,0.2
							c0.2,0,0.3,0,0.5-0.1c0.2-0.1,0.3-0.1,0.4-0.2s0.3-0.2,0.4-0.4s0.3-0.3,0.5-0.5c0.1-0.1,0.2-0.1,0.3-0.1
							c0.2,0,0.3,0.1,0.4,0.2c0.1,0.1,0.1,0.2,0.1,0.4c0,0.2-0.1,0.4-0.2,0.6c-0.1,0.2-0.3,0.4-0.5,0.6c-0.2,0.2-0.5,0.4-0.8,0.5
							c-0.3,0.1-0.7,0.2-1.1,0.2c-1,0-1.7-0.3-2.2-1s-0.8-1.6-0.8-2.7c0-0.5,0.1-1.1,0.2-1.5c0.1-0.5,0.3-0.9,0.6-1.2
							c0.3-0.3,0.6-0.6,0.9-0.8c0.4-0.2,0.8-0.3,1.2-0.3c0.6,0,1.1,0.2,1.5,0.5c0.4,0.3,0.7,0.7,0.9,1.2c0.2,0.5,0.3,1,0.3,1.5
							c0,0.5-0.1,0.8-0.3,0.9C82.7,160.3,82.4,160.4,82,160.4"/>
						<path class="st10" d="M90.6,155.1h-1.5v2.7h1.5c0.4,0,0.7,0,1-0.1c0.3-0.1,0.5-0.2,0.6-0.4c0.1-0.2,0.2-0.5,0.2-0.8
							c0-0.3-0.1-0.5-0.2-0.7c-0.1-0.2-0.3-0.4-0.5-0.5C91.5,155.2,91.1,155.1,90.6,155.1 M89.6,159.3h-0.6v3.2
							c0,0.4-0.1,0.7-0.2,0.9s-0.3,0.3-0.6,0.3c-0.3,0-0.5-0.1-0.6-0.3c-0.1-0.2-0.2-0.5-0.2-0.9v-7.6c0-0.4,0.1-0.7,0.2-0.9
							c0.2-0.2,0.4-0.3,0.8-0.3h2.7c0.4,0,0.7,0,0.9,0.1c0.3,0,0.5,0.1,0.7,0.2c0.3,0.1,0.5,0.3,0.7,0.6c0.2,0.2,0.3,0.5,0.4,0.8
							c0.1,0.3,0.2,0.7,0.2,1c0,0.7-0.2,1.3-0.5,1.8c-0.3,0.4-0.9,0.8-1.5,0.9c0.3,0.2,0.6,0.5,0.8,0.8c0.3,0.4,0.5,0.8,0.7,1.2
							c0.2,0.4,0.4,0.8,0.5,1.1c0.1,0.3,0.2,0.6,0.2,0.7s0,0.3-0.1,0.4c-0.1,0.1-0.2,0.2-0.3,0.3c-0.1,0.1-0.3,0.1-0.4,0.1
							c-0.2,0-0.3-0.1-0.5-0.2c-0.1-0.1-0.2-0.2-0.3-0.4c-0.1-0.2-0.2-0.4-0.4-0.7l-0.7-1.3c-0.2-0.5-0.4-0.9-0.6-1.1
							s-0.4-0.4-0.6-0.5C90.2,159.3,89.9,159.3,89.6,159.3"/>
						<path class="st10" d="M96.4,159.3h2.7c0-0.6-0.2-1.1-0.4-1.4c-0.2-0.3-0.6-0.5-0.9-0.5c-0.4,0-0.7,0.2-0.9,0.5
							C96.6,158.3,96.5,158.7,96.4,159.3 M99.3,160.4h-2.9c0,0.4,0.1,0.8,0.2,1.1c0.1,0.3,0.3,0.6,0.5,0.7c0.2,0.2,0.5,0.2,0.7,0.2
							c0.2,0,0.3,0,0.5-0.1c0.2-0.1,0.3-0.1,0.4-0.2c0.1-0.1,0.3-0.2,0.4-0.4c0.1-0.1,0.3-0.3,0.5-0.5c0.1-0.1,0.2-0.1,0.3-0.1
							c0.2,0,0.3,0.1,0.4,0.2c0.1,0.1,0.1,0.2,0.1,0.4c0,0.2-0.1,0.4-0.2,0.6s-0.3,0.4-0.5,0.6c-0.2,0.2-0.5,0.4-0.8,0.5
							c-0.3,0.1-0.7,0.2-1.1,0.2c-1,0-1.7-0.3-2.3-1c-0.5-0.7-0.8-1.6-0.8-2.7c0-0.5,0.1-1.1,0.2-1.5c0.1-0.5,0.3-0.9,0.6-1.2
							s0.6-0.6,0.9-0.8s0.8-0.3,1.2-0.3c0.6,0,1.1,0.2,1.5,0.5c0.4,0.3,0.7,0.7,0.9,1.2c0.2,0.5,0.3,1,0.3,1.5
							c0,0.5-0.1,0.8-0.3,0.9C100,160.3,99.7,160.4,99.3,160.4"/>
						<path class="st10" d="M106.7,161.3c0,0.5-0.1,0.9-0.3,1.3c-0.2,0.4-0.5,0.6-0.9,0.8c-0.4,0.2-0.9,0.3-1.4,0.3
							c-0.6,0-1-0.1-1.4-0.3c-0.4-0.2-0.7-0.5-0.9-0.8c-0.2-0.3-0.3-0.6-0.3-0.9c0-0.2,0.1-0.4,0.2-0.5s0.3-0.2,0.4-0.2
							c0.2,0,0.3,0,0.4,0.1c0.1,0.1,0.2,0.2,0.2,0.4c0.2,0.3,0.3,0.6,0.6,0.7c0.2,0.2,0.5,0.2,0.9,0.2c0.3,0,0.5-0.1,0.7-0.2
							c0.2-0.2,0.3-0.4,0.3-0.6c0-0.3-0.1-0.6-0.3-0.7c-0.2-0.2-0.5-0.3-1-0.4c-0.5-0.2-0.9-0.3-1.3-0.5c-0.3-0.2-0.6-0.4-0.8-0.7
							c-0.2-0.3-0.3-0.6-0.3-1c0-0.4,0.1-0.7,0.3-1c0.2-0.3,0.4-0.6,0.8-0.8c0.3-0.2,0.8-0.3,1.3-0.3c0.4,0,0.7,0,1,0.2
							c0.3,0.1,0.6,0.2,0.8,0.4c0.2,0.2,0.4,0.4,0.5,0.6s0.2,0.4,0.2,0.6c0,0.2-0.1,0.4-0.2,0.5s-0.3,0.2-0.5,0.2
							c-0.2,0-0.3-0.1-0.4-0.2s-0.2-0.3-0.4-0.5c-0.1-0.2-0.2-0.3-0.4-0.4s-0.4-0.2-0.6-0.2c-0.3,0-0.5,0.1-0.7,0.2
							c-0.2,0.1-0.3,0.3-0.3,0.5c0,0.2,0.1,0.4,0.2,0.5c0.1,0.1,0.3,0.2,0.5,0.3c0.2,0.1,0.5,0.2,0.9,0.3c0.5,0.1,0.8,0.3,1.1,0.5
							c0.3,0.2,0.5,0.4,0.7,0.7C106.6,160.6,106.7,160.9,106.7,161.3"/>
						<path class="st10" d="M112.3,159.9c0-0.5-0.1-0.9-0.2-1.3c-0.1-0.3-0.3-0.6-0.5-0.8c-0.2-0.2-0.5-0.3-0.7-0.3
							c-0.4,0-0.8,0.2-1,0.6c-0.3,0.4-0.4,1-0.4,1.8c0,0.7,0.1,1.3,0.4,1.7c0.3,0.4,0.6,0.6,1.1,0.6c0.2,0,0.5-0.1,0.7-0.3
							c0.2-0.2,0.4-0.4,0.5-0.8C112.2,160.8,112.3,160.4,112.3,159.9 M109.3,157.2v0.2c0.3-0.4,0.6-0.7,0.9-0.9
							c0.3-0.2,0.6-0.3,1-0.3c0.5,0,0.9,0.1,1.3,0.4s0.7,0.7,0.9,1.3c0.2,0.6,0.3,1.2,0.3,2c0,0.6-0.1,1.1-0.2,1.6
							c-0.1,0.5-0.3,0.9-0.5,1.2c-0.2,0.3-0.5,0.6-0.8,0.7c-0.3,0.2-0.6,0.3-1,0.3c-0.4,0-0.8-0.1-1.1-0.3c-0.3-0.2-0.6-0.5-0.8-0.9
							v2.8c0,0.8-0.2,1.2-0.7,1.2c-0.3,0-0.5-0.1-0.6-0.3c-0.1-0.2-0.1-0.5-0.1-0.9v-8c0-0.4,0.1-0.6,0.2-0.8
							c0.1-0.2,0.3-0.3,0.5-0.3s0.4,0.1,0.5,0.3C109.3,156.6,109.3,156.9,109.3,157.2"/>
						<path class="st10" d="M119.1,159.9c0-0.8-0.1-1.3-0.4-1.8c-0.3-0.4-0.6-0.6-1.1-0.6c-0.3,0-0.6,0.1-0.8,0.3
							c-0.2,0.2-0.4,0.5-0.5,0.8c-0.1,0.4-0.2,0.8-0.2,1.3c0,0.5,0.1,0.9,0.2,1.3c0.1,0.4,0.3,0.6,0.5,0.8c0.2,0.2,0.5,0.3,0.8,0.3
							c0.5,0,0.8-0.2,1.1-0.6C119,161.3,119.1,160.7,119.1,159.9 M120.6,159.9c0,0.5-0.1,1.1-0.2,1.5c-0.1,0.5-0.3,0.9-0.6,1.2
							c-0.3,0.3-0.6,0.6-0.9,0.8c-0.4,0.2-0.8,0.3-1.2,0.3c-0.5,0-0.9-0.1-1.2-0.3c-0.4-0.2-0.7-0.4-0.9-0.8
							c-0.3-0.3-0.5-0.7-0.6-1.2c-0.1-0.5-0.2-1-0.2-1.5c0-0.6,0.1-1.1,0.2-1.5c0.1-0.5,0.3-0.9,0.6-1.2c0.3-0.3,0.6-0.6,0.9-0.8
							c0.4-0.2,0.8-0.3,1.2-0.3s0.9,0.1,1.2,0.3c0.4,0.2,0.7,0.4,1,0.8c0.3,0.3,0.5,0.7,0.6,1.2
							C120.5,158.9,120.6,159.4,120.6,159.9"/>
						<path class="st10" d="M123.1,157.2v0.2c0.3-0.4,0.6-0.7,0.9-0.9c0.3-0.2,0.7-0.3,1.1-0.3c0.4,0,0.8,0.1,1.1,0.3
							c0.3,0.2,0.5,0.5,0.7,0.9c0.1,0.2,0.2,0.5,0.2,0.7c0,0.3,0,0.6,0,1v3.4c0,0.4-0.1,0.7-0.2,0.8c-0.1,0.2-0.3,0.3-0.5,0.3
							s-0.4-0.1-0.5-0.3c-0.1-0.2-0.2-0.5-0.2-0.8v-3.1c0-0.6-0.1-1.1-0.2-1.4c-0.1-0.3-0.4-0.5-0.8-0.5c-0.3,0-0.5,0.1-0.7,0.3
							c-0.2,0.2-0.4,0.5-0.5,0.8c-0.1,0.3-0.1,0.8-0.1,1.5v2.3c0,0.4-0.1,0.7-0.2,0.8s-0.3,0.3-0.5,0.3c-0.2,0-0.4-0.1-0.5-0.3
							c-0.1-0.2-0.2-0.5-0.2-0.8v-5.3c0-0.4,0.1-0.6,0.2-0.8c0.1-0.2,0.3-0.3,0.5-0.3c0.1,0,0.3,0,0.4,0.1c0.1,0.1,0.2,0.2,0.3,0.3
							C123.1,156.8,123.2,157,123.1,157.2"/>
						<path class="st10" d="M133.4,161.3c0,0.5-0.1,0.9-0.3,1.3c-0.2,0.4-0.5,0.6-0.9,0.8c-0.4,0.2-0.9,0.3-1.4,0.3s-1-0.1-1.4-0.3
							c-0.4-0.2-0.7-0.5-0.9-0.8c-0.2-0.3-0.3-0.6-0.3-0.9c0-0.2,0.1-0.4,0.2-0.5s0.3-0.2,0.4-0.2c0.2,0,0.3,0,0.4,0.1
							c0.1,0.1,0.2,0.2,0.2,0.4c0.2,0.3,0.3,0.6,0.6,0.7c0.2,0.2,0.5,0.2,0.9,0.2c0.3,0,0.5-0.1,0.7-0.2c0.2-0.2,0.3-0.4,0.3-0.6
							c0-0.3-0.1-0.6-0.3-0.7c-0.2-0.2-0.5-0.3-1-0.4c-0.5-0.2-0.9-0.3-1.3-0.5c-0.3-0.2-0.6-0.4-0.8-0.7c-0.2-0.3-0.3-0.6-0.3-1
							c0-0.4,0.1-0.7,0.3-1c0.2-0.3,0.4-0.6,0.8-0.8c0.4-0.2,0.8-0.3,1.3-0.3c0.4,0,0.7,0,1,0.2c0.3,0.1,0.6,0.2,0.8,0.4
							c0.2,0.2,0.4,0.4,0.5,0.6c0.1,0.2,0.2,0.4,0.2,0.6c0,0.2-0.1,0.4-0.2,0.5c-0.1,0.1-0.3,0.2-0.5,0.2c-0.2,0-0.3-0.1-0.4-0.2
							c-0.1-0.1-0.2-0.3-0.4-0.5c-0.1-0.2-0.2-0.3-0.4-0.4s-0.4-0.2-0.6-0.2c-0.3,0-0.5,0.1-0.7,0.2c-0.2,0.1-0.3,0.3-0.3,0.5
							c0,0.2,0.1,0.4,0.2,0.5s0.3,0.2,0.5,0.3c0.2,0.1,0.5,0.2,0.9,0.3c0.5,0.1,0.8,0.3,1.1,0.5c0.3,0.2,0.5,0.4,0.7,0.7
							C133.3,160.6,133.4,160.9,133.4,161.3"/>
						<path class="st10" d="M138.4,160c-0.2,0.1-0.5,0.2-1,0.3c-0.4,0.1-0.7,0.2-0.9,0.2s-0.3,0.2-0.5,0.3c-0.1,0.2-0.2,0.4-0.2,0.6
							s0.1,0.5,0.3,0.7c0.2,0.2,0.4,0.3,0.7,0.3c0.3,0,0.6-0.1,0.8-0.2c0.2-0.2,0.4-0.4,0.6-0.6c0.1-0.3,0.2-0.7,0.2-1.4V160
							L138.4,160z M138.5,162.6c-0.4,0.3-0.7,0.6-1.1,0.8c-0.3,0.2-0.7,0.3-1.1,0.3c-0.4,0-0.7-0.1-1-0.3s-0.5-0.4-0.7-0.8
							c-0.2-0.3-0.2-0.7-0.2-1c0-0.5,0.1-0.9,0.4-1.3c0.3-0.4,0.6-0.6,1.1-0.7c0.1,0,0.3-0.1,0.7-0.2c0.4-0.1,0.7-0.2,1-0.3
							c0.3-0.1,0.6-0.2,0.9-0.3c0-0.5-0.1-0.8-0.2-1.1c-0.1-0.2-0.4-0.3-0.9-0.3c-0.4,0-0.7,0.1-0.9,0.2c-0.2,0.1-0.4,0.3-0.5,0.6
							c-0.1,0.3-0.2,0.4-0.3,0.5c-0.1,0.1-0.2,0.1-0.4,0.1c-0.2,0-0.3-0.1-0.4-0.2c-0.1-0.1-0.2-0.3-0.2-0.5c0-0.3,0.1-0.6,0.3-0.9
							s0.5-0.6,0.9-0.8c0.4-0.2,0.9-0.3,1.5-0.3c0.7,0,1.2,0.1,1.6,0.3s0.6,0.5,0.8,0.9c0.2,0.4,0.2,1,0.2,1.7c0,0.4,0,0.8,0,1.1
							c0,0.3,0,0.6,0,1c0,0.3,0,0.7,0.1,1.1c0.1,0.4,0.1,0.6,0.1,0.7c0,0.2-0.1,0.4-0.2,0.5s-0.3,0.2-0.5,0.2
							c-0.2,0-0.3-0.1-0.5-0.3S138.7,163,138.5,162.6"/>
						<path class="st10" d="M142.7,160c0,0.7,0.1,1.3,0.4,1.7c0.3,0.4,0.6,0.6,1.1,0.6c0.4,0,0.7-0.2,1-0.6c0.3-0.4,0.4-1,0.4-1.7
							c0-0.5-0.1-0.9-0.2-1.3c-0.1-0.4-0.3-0.6-0.5-0.8c-0.2-0.2-0.5-0.3-0.7-0.3c-0.3,0-0.5,0.1-0.8,0.3c-0.2,0.2-0.4,0.5-0.5,0.8
							C142.8,159,142.7,159.5,142.7,160 M142.6,154.5v2.8c0.3-0.4,0.6-0.6,0.9-0.8c0.3-0.2,0.7-0.3,1.1-0.3c0.5,0,0.9,0.1,1.3,0.4
							c0.4,0.3,0.7,0.7,0.9,1.3c0.2,0.5,0.3,1.2,0.3,2c0,0.6-0.1,1.1-0.2,1.5c-0.1,0.5-0.3,0.9-0.5,1.2c-0.2,0.3-0.5,0.6-0.8,0.8
							c-0.3,0.2-0.7,0.3-1,0.3c-0.2,0-0.5,0-0.7-0.1c-0.2-0.1-0.4-0.2-0.5-0.3c-0.1-0.1-0.3-0.2-0.4-0.3c-0.1-0.1-0.2-0.3-0.4-0.5
							v0.2c0,0.3-0.1,0.6-0.2,0.8s-0.3,0.3-0.5,0.3c-0.2,0-0.4-0.1-0.5-0.3c-0.1-0.2-0.2-0.4-0.2-0.8v-8.1c0-0.4,0.1-0.7,0.2-0.8
							c0.1-0.2,0.3-0.3,0.5-0.3s0.4,0.1,0.5,0.3C142.6,153.9,142.6,154.2,142.6,154.5"/>
						<path class="st10" d="M148.1,162.6v-8c0-0.4,0.1-0.6,0.2-0.8c0.1-0.2,0.3-0.3,0.5-0.3s0.4,0.1,0.5,0.3
							c0.1,0.2,0.2,0.5,0.2,0.8v8c0,0.4-0.1,0.7-0.2,0.8c-0.1,0.2-0.3,0.3-0.5,0.3c-0.2,0-0.4-0.1-0.5-0.3
							C148.2,163.2,148.1,162.9,148.1,162.6"/>
						<path class="st10" d="M152.4,159.3h2.7c0-0.6-0.2-1.1-0.4-1.4c-0.2-0.3-0.6-0.5-0.9-0.5c-0.4,0-0.7,0.2-0.9,0.5
							C152.6,158.3,152.5,158.7,152.4,159.3 M155.4,160.4h-2.9c0,0.4,0.1,0.8,0.2,1.1c0.1,0.3,0.3,0.6,0.5,0.7s0.5,0.2,0.7,0.2
							c0.2,0,0.3,0,0.5-0.1c0.2-0.1,0.3-0.1,0.4-0.2c0.1-0.1,0.3-0.2,0.4-0.4c0.1-0.1,0.3-0.3,0.5-0.5c0.1-0.1,0.2-0.1,0.3-0.1
							c0.2,0,0.3,0.1,0.4,0.2c0.1,0.1,0.1,0.2,0.1,0.4c0,0.2-0.1,0.4-0.2,0.6s-0.3,0.4-0.5,0.6c-0.2,0.2-0.5,0.4-0.8,0.5
							c-0.3,0.1-0.7,0.2-1.1,0.2c-1,0-1.7-0.3-2.2-1c-0.5-0.7-0.8-1.6-0.8-2.7c0-0.5,0.1-1.1,0.2-1.5c0.1-0.5,0.3-0.9,0.6-1.2
							s0.6-0.6,0.9-0.8c0.4-0.2,0.8-0.3,1.2-0.3c0.6,0,1.1,0.2,1.5,0.5c0.4,0.3,0.7,0.7,0.9,1.2c0.2,0.5,0.3,1,0.3,1.5
							c0,0.5-0.1,0.8-0.3,0.9C156.1,160.3,155.8,160.4,155.4,160.4"/>
					</g>
				</g>
			</g>
		</g>
	</g>
</g>
</svg>
