<?xml version="1.0" encoding="utf-8"?>
<!-- Generator: Adobe Illustrator 26.4.1, SVG Export Plug-In . SVG Version: 6.00 Build 0)  -->
<svg version="1.1" id="Capa_1" xmlns="http://www.w3.org/2000/svg" xmlns:xlink="http://www.w3.org/1999/xlink" x="0px" y="0px"
	 viewBox="0 0 200 170" style="enable-background:new 0 0 200 170;" xml:space="preserve">
<style type="text/css">
	.st0{clip-path:url(#SVGID_00000179619303450413351180000009228366897063872921_);fill:#FFFFFF;}
	.st1{clip-path:url(#SVGID_00000179619303450413351180000009228366897063872921_);fill:#0090D4;}
	.st2{fill:#0090D4;}
	.st3{fill:#FFFFFF;}
	
		.st4{clip-path:url(#SVGID_00000070805951900847964400000002339769473208155553_);fill-rule:evenodd;clip-rule:evenodd;fill:#FFFFFF;}
	.st5{clip-path:url(#SVGID_00000070805951900847964400000002339769473208155553_);}
	.st6{fill-rule:evenodd;clip-rule:evenodd;fill:#004F87;}
	
		.st7{clip-path:url(#SVGID_00000070805951900847964400000002339769473208155553_);fill-rule:evenodd;clip-rule:evenodd;fill:#9D9D9C;}
	
		.st8{clip-path:url(#SVGID_00000070805951900847964400000002339769473208155553_);fill-rule:evenodd;clip-rule:evenodd;fill:#004F87;}
	.st9{fill:none;}
	.st10{fill:#00A4DE;}
</style>
<g>
	<g>
		<defs>
			<rect id="SVGID_1_" x="20" y="10.8" width="63.9" height="95.4"/>
		</defs>
		<clipPath id="SVGID_00000063629792627942403130000002859238176304059282_">
			<use xlink:href="#SVGID_1_"  style="overflow:visible;"/>
		</clipPath>
		<path style="clip-path:url(#SVGID_00000063629792627942403130000002859238176304059282_);fill:#FFFFFF;" d="M30.3,12.3h43.1
			c4.9,0,8.9,4,8.9,8.9V48c-9-6-19.5-9.2-30.4-9.2c-11,0-21.5,3.2-30.5,9.2V21.2C21.4,16.3,25.4,12.3,30.3,12.3 M20,96.3
			c0,0,0,0.1,0,0.1c0,0.1,0,0.3,0,0.4c0,0,0,0.1,0,0.1c0,0.1,0,0.3,0.1,0.4c0,0,0,0,0,0c0.6,4.1,3.6,7.4,7.6,8.4
			c0.9,0.2,1.7,0.3,2.7,0.3h43.1c0.9,0,1.8-0.1,2.7-0.3c4-1.1,7-4.4,7.6-8.4c0,0,0,0,0,0c0-0.1,0-0.3,0.1-0.4c0,0,0-0.1,0-0.1
			c0-0.1,0-0.3,0-0.4c0,0,0-0.1,0-0.1c0-0.2,0-0.3,0-0.5V49.4V21.2c0-5.7-4.7-10.4-10.4-10.4H30.3c-5.7,0-10.4,4.7-10.4,10.4v28.2
			v46.4C20,96,20,96.2,20,96.3"/>
		<path style="clip-path:url(#SVGID_00000063629792627942403130000002859238176304059282_);fill:#0090D4;" d="M73.5,104.7H30.3
			c-4.9,0-8.9-4-8.9-8.9V69.1c9,6,19.5,9.2,30.4,9.2c11,0,21.5-3.2,30.5-9.2v26.8C82.4,100.7,78.4,104.7,73.5,104.7 M83.8,20.7
			c0,0,0-0.1,0-0.1c0-0.1,0-0.3,0-0.4c0,0,0-0.1,0-0.1c0-0.1,0-0.3-0.1-0.4c0,0,0,0,0,0c-0.6-4.1-3.6-7.4-7.6-8.4
			c-0.9-0.2-1.7-0.3-2.7-0.3H30.3c-0.9,0-1.8,0.1-2.7,0.3c-4,1.1-7,4.4-7.6,8.4c0,0,0,0,0,0c0,0.1,0,0.3-0.1,0.4c0,0,0,0.1,0,0.1
			c0,0.1,0,0.3,0,0.4c0,0,0,0.1,0,0.1c0,0.2,0,0.3,0,0.5v46.4v28.2c0,5.7,4.7,10.4,10.4,10.4h43.1c5.7,0,10.4-4.7,10.4-10.4V67.6
			V21.2C83.9,21,83.9,20.9,83.8,20.7"/>
	</g>
	<rect x="31.9" y="86.1" class="st2" width="1.3" height="7"/>
	<g>
		<path class="st2" d="M34.8,92.6l0.3-1.1c0.3,0.1,0.5,0.2,0.9,0.3c0.3,0.1,0.6,0.1,0.9,0.1c0.4,0,0.7-0.1,0.9-0.2
			c0.2-0.1,0.3-0.3,0.3-0.6c0-0.2-0.1-0.3-0.3-0.5c-0.2-0.1-0.4-0.3-0.8-0.5l-0.3-0.2c-0.5-0.3-0.8-0.5-1.1-0.7
			c-0.3-0.2-0.5-0.4-0.7-0.7c-0.2-0.3-0.3-0.6-0.3-0.9c0-0.4,0.1-0.7,0.3-1c0.2-0.3,0.5-0.5,0.8-0.7c0.4-0.2,0.8-0.2,1.3-0.2
			c0.6,0,1.2,0.2,2,0.5l-0.4,1.1c-0.3-0.1-0.5-0.2-0.8-0.3c-0.2-0.1-0.5-0.1-0.7-0.1c-0.3,0-0.6,0.1-0.8,0.2
			c-0.2,0.1-0.3,0.3-0.3,0.5c0,0.2,0.1,0.4,0.2,0.5c0.2,0.1,0.4,0.3,0.8,0.5l0.3,0.2l0.3,0.2c0.4,0.2,0.7,0.4,1,0.6
			c0.2,0.2,0.4,0.4,0.6,0.6c0.2,0.2,0.2,0.5,0.2,0.9c0,0.4-0.1,0.7-0.3,1c-0.2,0.3-0.5,0.5-0.9,0.7c-0.4,0.2-0.9,0.2-1.4,0.2
			c-0.3,0-0.6-0.1-1.1-0.2C35.4,92.9,35.1,92.7,34.8,92.6"/>
		<path class="st2" d="M41.8,89.6c0,0.5,0.1,0.9,0.2,1.3c0.2,0.4,0.4,0.7,0.7,0.9c0.3,0.2,0.7,0.3,1.1,0.3c0.4,0,0.7-0.1,1-0.3
			c0.3-0.2,0.6-0.5,0.7-0.9c0.2-0.4,0.3-0.9,0.3-1.4c0-0.5-0.1-0.9-0.2-1.3c-0.2-0.4-0.4-0.7-0.7-0.9c-0.3-0.2-0.7-0.3-1.1-0.3
			c-0.4,0-0.7,0.1-1,0.3c-0.3,0.2-0.6,0.5-0.7,0.9C41.9,88.6,41.8,89.1,41.8,89.6 M43.8,85.9c0.7,0,1.3,0.2,1.8,0.5
			c0.5,0.3,0.9,0.8,1.2,1.3c0.3,0.5,0.4,1.2,0.4,1.8c0,0.7-0.1,1.3-0.4,1.9c-0.3,0.5-0.7,1-1.2,1.3c-0.5,0.3-1.1,0.5-1.8,0.5
			c-0.7,0-1.3-0.2-1.8-0.5c-0.5-0.3-0.9-0.7-1.2-1.3c-0.3-0.5-0.4-1.2-0.4-1.8c0-0.7,0.1-1.3,0.4-1.9c0.3-0.6,0.7-1,1.2-1.3
			C42.5,86.1,43.1,85.9,43.8,85.9"/>
		<path class="st2" d="M52.2,90c0.2,0.2,0.5,0.3,0.8,0.3c0.5,0,1-0.1,1.4-0.4c0-0.6-0.1-1-0.4-1.3c-0.2-0.3-0.6-0.4-1-0.4
			c-0.3,0-0.6,0.1-0.8,0.3c-0.2,0.2-0.3,0.4-0.3,0.7C51.9,89.5,52,89.8,52.2,90 M54.3,87.4c0.4,0.2,0.7,0.5,0.9,0.9
			c0.2,0.4,0.3,0.9,0.3,1.5c0,0.8-0.2,1.4-0.6,2c-0.4,0.6-0.9,1-1.5,1.3c-0.6,0.3-1.2,0.5-1.8,0.6l-0.2-1.1c1.3-0.3,2.1-0.9,2.6-1.5
			c-0.3,0.2-0.7,0.2-1,0.2c-0.4,0-0.8-0.1-1.1-0.3c-0.3-0.2-0.6-0.4-0.8-0.8c-0.2-0.3-0.3-0.7-0.3-1.1c0-0.4,0.1-0.8,0.3-1.1
			c0.2-0.3,0.5-0.6,0.8-0.8c0.3-0.2,0.7-0.3,1.1-0.3C53.4,87.1,53.9,87.2,54.3,87.4"/>
		<path class="st2" d="M57.5,90.1c0,0.4,0.1,0.7,0.2,1c0.1,0.3,0.3,0.5,0.6,0.7c0.3,0.2,0.5,0.3,0.8,0.3c0.3,0,0.6-0.1,0.8-0.2
			c0.2-0.2,0.4-0.4,0.6-0.7c0.1-0.3,0.2-0.6,0.2-1c0-0.4-0.1-0.7-0.2-1c-0.1-0.3-0.3-0.5-0.6-0.7c-0.2-0.2-0.5-0.2-0.8-0.2
			c-0.3,0-0.6,0.1-0.8,0.2c-0.2,0.2-0.4,0.4-0.6,0.7C57.6,89.4,57.5,89.8,57.5,90.1 M56.3,90.1c0-0.6,0.1-1.1,0.4-1.5
			c0.2-0.5,0.6-0.8,1-1.1c0.4-0.3,0.9-0.4,1.5-0.4c0.5,0,1,0.1,1.5,0.4c0.4,0.3,0.8,0.6,1,1.1c0.2,0.5,0.4,1,0.4,1.5
			c0,0.6-0.1,1.1-0.4,1.6c-0.2,0.5-0.6,0.8-1,1.1c-0.4,0.3-0.9,0.4-1.5,0.4c-0.5,0-1-0.1-1.5-0.4c-0.4-0.3-0.8-0.6-1-1.1
			C56.4,91.2,56.3,90.7,56.3,90.1"/>
		<path class="st2" d="M64,90.1c0,0.4,0.1,0.7,0.2,1c0.1,0.3,0.3,0.5,0.6,0.7c0.2,0.2,0.5,0.3,0.8,0.3c0.3,0,0.6-0.1,0.8-0.2
			c0.2-0.2,0.4-0.4,0.6-0.7c0.1-0.3,0.2-0.6,0.2-1c0-0.4-0.1-0.7-0.2-1c-0.1-0.3-0.3-0.5-0.6-0.7c-0.2-0.2-0.5-0.2-0.8-0.2
			c-0.3,0-0.6,0.1-0.8,0.2c-0.3,0.2-0.4,0.4-0.6,0.7C64.1,89.4,64,89.8,64,90.1 M62.8,90.1c0-0.6,0.1-1.1,0.4-1.5
			c0.2-0.5,0.6-0.8,1-1.1c0.4-0.3,0.9-0.4,1.5-0.4c0.5,0,1,0.1,1.5,0.4c0.4,0.3,0.8,0.6,1,1.1c0.2,0.5,0.4,1,0.4,1.5
			c0,0.6-0.1,1.1-0.4,1.6c-0.2,0.5-0.6,0.8-1,1.1c-0.4,0.3-0.9,0.4-1.5,0.4c-0.5,0-1-0.1-1.5-0.4c-0.4-0.3-0.8-0.6-1-1.1
			C62.9,91.2,62.8,90.7,62.8,90.1"/>
	</g>
	<polygon class="st2" points="70.8,93.1 70.8,88.7 69.6,89.2 69.1,88.2 71.2,87.3 72.1,87.3 72.1,93.1 	"/>
	<g>
		<path class="st3" d="M51.8,31.9c-1.7,0-3.1,1.4-3.1,3.1c0,1.7,1.4,3.1,3.1,3.1c1.7,0,3.1-1.4,3.1-3.1
			C54.9,33.3,53.5,31.9,51.8,31.9 M51.8,39.9c-2.7,0-4.9-2.2-4.9-4.9c0-2.7,2.2-4.9,4.9-4.9c2.7,0,4.9,2.2,4.9,4.9
			C56.7,37.7,54.5,39.9,51.8,39.9"/>
		<path class="st3" d="M42.8,42.7C41,40.7,39.9,38,39.9,35c0-2.4,0.7-4.5,1.9-6.4l-1.5-1.1c-1.4,2.2-2.2,4.7-2.2,7.5
			c0,3.5,1.3,6.6,3.4,9L42.8,42.7z"/>
		<path class="st3" d="M41.5,26l1.3,1.3c0.4-0.5,0.8-0.9,1.3-1.3l-1.3-1.3C42.3,25.1,41.9,25.5,41.5,26"/>
		<path class="st3" d="M51.8,21.3c-2.8,0-5.4,0.8-7.5,2.3l1.1,1.5c1.9-1.2,4.1-1.9,6.4-1.9c3.1,0,6,1.2,8.2,3.3l1.6-1
			C59,22.8,55.6,21.3,51.8,21.3"/>
		<path class="st3" d="M57.3,40.1c-1.4,1.5-3.3,2.4-5.5,2.4c-4.1,0-7.5-3.4-7.5-7.5c0-4.1,3.4-7.5,7.5-7.5c1.5,0,3,0.5,4.2,1.3
			l1.7-1c-1.6-1.3-3.7-2.1-5.9-2.1c-5.1,0-9.3,4.2-9.3,9.3c0,5.1,4.2,9.3,9.3,9.3c2.8,0,5.3-1.2,7-3.1L57.3,40.1z"/>
		<path class="st3" d="M58.5,44.9c-1.9,1.3-4.2,2-6.6,2c-3,0-5.7-1.1-7.7-2.9l-1.3,1.3c2.4,2.1,5.6,3.4,9,3.4c2.9,0,5.5-0.9,7.8-2.4
			L58.5,44.9z"/>
		<path class="st3" d="M63.3,27.5l-0.5-0.7l-5.3,3.3l0.5,0.8c0,0.1,0.1,0.1,0.1,0.2h0c0.8,1.2,1.2,2.6,1.2,4c0,1.3-0.3,2.5-0.9,3.6
			l1.5,1.1c0.8-1.4,1.3-3,1.3-4.7c0-1.5-0.4-3-1.1-4.4l2.2-1.4c1,1.8,1.5,3.7,1.5,5.7c0,3.5-1.5,6.6-3.8,8.7l1.1,1.4
			c2.8-2.5,4.5-6.1,4.5-10.2C65.6,32.3,64.8,29.7,63.3,27.5"/>
		<path class="st3" d="M42,61.9c-1.3,0-2.3-1-2.3-2.3c0-1.3,1-2.3,2.3-2.3c1.3,0,2.3,1,2.3,2.3C44.3,60.9,43.3,61.9,42,61.9
			 M42,55.8c-2.1,0-3.9,1.7-3.9,3.9c0,2.1,1.7,3.9,3.9,3.9c2.1,0,3.9-1.7,3.9-3.9C45.9,57.5,44.1,55.8,42,55.8"/>
		<path class="st3" d="M28.3,55.8c-0.5,0-1-0.4-1-1s0.4-1,1-1c0.6,0,1,0.4,1,1S28.8,55.8,28.3,55.8 M29.1,63.3h-1.6v-6.6h1.6V63.3z"
			/>
		<path class="st3" d="M34.4,63.5c-2.1,0-3.9-1.7-3.9-3.9c0-2.1,1.7-3.9,3.9-3.9c1,0,2,0.4,2.7,1.1l0.1,0.1l-1,1.3l-0.1-0.1
			c-0.4-0.5-1-0.8-1.7-0.8c-1.2,0-2.3,1-2.3,2.3c0,1.2,1,2.3,2.3,2.3c0.7,0,1.3-0.3,1.7-0.8l0.1-0.1l1,1.3l-0.1,0.1
			C36.5,63.1,35.5,63.5,34.4,63.5"/>
		<path class="st3" d="M73.5,63.5c-2.1,0-3.9-1.7-3.9-3.9c0-2.1,1.7-3.9,3.9-3.9c1,0,2,0.4,2.7,1.1l0.1,0.1l-1,1.3l-0.1-0.1
			c-0.4-0.5-1-0.8-1.7-0.8c-1.2,0-2.3,1-2.3,2.3c0,1.2,1,2.3,2.3,2.3c0.7,0,1.3-0.3,1.7-0.8l0.1-0.1l1,1.3l-0.1,0.1
			C75.5,63.1,74.6,63.5,73.5,63.5"/>
		<path class="st3" d="M51,55.8c-2.1,0-3.9,1.7-3.9,3.9c0,0,0,3.6,0,3.6v0.1h0.1h1.5h0.1v-0.1v-3.7c0-1.2,1-2.2,2.2-2.2
			c1.2,0,2.1,0.9,2.2,2.1l0,0v3.7v0.1h0.1h1.5h0.1v-0.1v-3.6C54.9,57.5,53.2,55.8,51,55.8"/>
		<path class="st3" d="M62.9,58.8c0.1-1,0.9-1.6,1.9-1.6c1,0,1.8,0.6,1.8,1.6H62.9z M64.8,55.7c-1,0-1.9,0.4-2.6,1.1
			c-0.7,0.7-1,1.7-1,2.8c0,2.3,1.6,3.9,3.9,3.9c2.1,0,3-1.4,3.1-1.6l0-0.1l-0.1-0.1l-1-0.7l-0.1-0.1L67,61c-0.2,0.3-0.8,1-1.9,1
			c-1.2,0-2.1-0.8-2.2-1.9h5.4h0.1l0-0.1c0-0.1,0-0.3,0-0.4c0-1.2-0.3-2.1-0.9-2.8C66.8,56.1,65.9,55.7,64.8,55.7"/>
		<path class="st3" d="M60.1,62L60.1,62L60.1,62L60.1,62c-0.1,0-0.3,0-0.4,0c-0.7,0-1-0.2-1-1.2v-3.8H60h0.1V57v-1v-0.1H60h-1.3
			v-1.4v-0.1h-0.1h-1.5H57v0.1v1.4h-0.9H56V56v1v0.1l0.1,0l0.9,0v3.5c0,0.5,0,1.3,0.4,1.9c0.4,0.7,1,1,1.9,1c0.4,0,0.7,0,0.7-0.1
			l0.1,0l0.1,0V62z"/>
	</g>
	<g>
		<defs>
			<rect id="SVGID_00000130644982837043382100000016345601921226384294_" x="111.6" y="24.3" width="68.4" height="68.3"/>
		</defs>
		<clipPath id="SVGID_00000151506494052694069000000012853843889184183194_">
			<use xlink:href="#SVGID_00000130644982837043382100000016345601921226384294_"  style="overflow:visible;"/>
		</clipPath>
		
			<circle style="clip-path:url(#SVGID_00000151506494052694069000000012853843889184183194_);fill-rule:evenodd;clip-rule:evenodd;fill:#FFFFFF;" cx="145.8" cy="58.2" r="33.6"/>
		<g style="clip-path:url(#SVGID_00000151506494052694069000000012853843889184183194_);">
			<path class="st6" d="M146.2,24.3c22.6-0.2,33.9,21,33.5,31.3c0,0.2,0.3,0.3,0.2,0.3h-10.5c-0.5-12.3-12.5-22-23.1-21.7
				c-13.8,0.3-23,10.6-24.3,21.7h-10.1c-0.1,0-0.2-0.2-0.1-0.3C114.2,40.3,124.4,24.5,146.2,24.3"/>
			<path class="st6" d="M145.5,92.2c-22.6,0.2-33.9-21-33.5-31.3c0-0.2-0.3-0.3-0.2-0.3h10.5c0.5,12.3,12.5,22,23.1,21.7
				c13.8-0.3,23-10.6,24.3-21.7h10.1c0.1,0,0.2,0.2,0.1,0.3C177.5,76.2,167.2,92,145.5,92.2"/>
		</g>
		
			<path style="clip-path:url(#SVGID_00000151506494052694069000000012853843889184183194_);fill-rule:evenodd;clip-rule:evenodd;fill:#FFFFFF;" d="
			M168.4,44.5l0.4,0.8c0.1,0.3,0.3,0.5,0.4,0.6c0.1,0.1,0.3,0.2,0.4,0.2c0.2,0.1,0.4,0.1,0.6,0c0.2,0,0.5-0.1,0.8-0.3
			c0.4-0.2,0.7-0.4,0.8-0.7c0.2-0.2,0.2-0.5,0.2-0.7c0-0.2-0.1-0.4-0.3-0.7l-0.4-0.8L168.4,44.5z M167.7,44.2l3.9-2l0.7,1.4
			c0.2,0.3,0.3,0.6,0.3,0.7c0.1,0.3,0.1,0.5,0,0.7c-0.1,0.3-0.2,0.6-0.4,0.8c-0.2,0.2-0.5,0.5-0.9,0.6c-0.3,0.2-0.6,0.3-0.9,0.3
			c-0.3,0-0.5,0.1-0.7,0c-0.2,0-0.4-0.1-0.5-0.2c-0.2-0.1-0.3-0.2-0.4-0.4c-0.1-0.2-0.3-0.4-0.4-0.6L167.7,44.2z M163,38.3l3.1-3.2
			l2.3,2.2l-0.4,0.4l-1.9-1.8l-0.9,1l1.8,1.7l-0.4,0.4l-1.8-1.7l-1,1.1l2,1.9l-0.4,0.4L163,38.3z M158.8,35.4l2.2-3.8l0.5,0.3
			l-2.2,3.8L158.8,35.4z M152.1,32.6l1.3-4.2l2.9,0.9l-0.2,0.5l-2.3-0.7l-0.4,1.3l2,0.6l-0.2,0.5l-2-0.6l-0.6,1.9L152.1,32.6z
			 M147,32l0.3-4.4l0.6,0l-0.3,4.4L147,32z M140.9,32.5l-0.6-3.9l-1.4,0.2l-0.1-0.5l3.5-0.5l0.1,0.5l-1.4,0.2l0.6,3.9L140.9,32.5z
			 M132,33.2l1.1-0.6c0.2-0.1,0.4-0.2,0.5-0.4c0.1-0.1,0.2-0.3,0.2-0.4c0-0.1,0-0.3-0.1-0.4c-0.1-0.2-0.2-0.3-0.4-0.3
			c-0.2,0-0.4,0-0.7,0.2l-1.2,0.7L132,33.2z M132.6,35.7l-2.1-3.9l1.7-0.9c0.3-0.2,0.6-0.3,0.9-0.3c0.2,0,0.4,0,0.6,0.1
			c0.2,0.1,0.4,0.3,0.5,0.5c0.1,0.3,0.2,0.6,0.1,0.8c-0.1,0.3-0.3,0.6-0.6,0.8c0.2,0,0.3,0,0.4,0c0.2,0.1,0.5,0.2,0.7,0.3l1.2,0.7
			l-0.7,0.3l-1-0.5c-0.3-0.2-0.5-0.3-0.7-0.3c-0.2-0.1-0.3-0.1-0.4-0.1c-0.1,0-0.2,0-0.3,0c-0.1,0-0.2,0.1-0.3,0.1l-0.6,0.3l0.9,1.7
			L132.6,35.7z M126.8,40.5l-3.1-3.2l2.3-2.2l0.4,0.4l-1.9,1.8l0.9,1l1.8-1.7l0.4,0.4l-1.8,1.7l1,1.1l2-1.9l0.4,0.4L126.8,40.5z
			 M122.8,43.8l0.4-0.5c0.4,0.3,0.6,0.7,0.7,1.1c0.1,0.4,0,0.8-0.2,1.2c-0.2,0.4-0.5,0.7-0.8,0.9c-0.3,0.2-0.7,0.3-1.1,0.2
			c-0.4,0-0.8-0.1-1.2-0.3c-0.4-0.2-0.7-0.5-1-0.8c-0.2-0.3-0.3-0.7-0.4-1c0-0.4,0.1-0.7,0.2-1.1c0.2-0.4,0.5-0.7,0.8-0.8
			c0.3-0.2,0.7-0.2,1.1-0.1l-0.1,0.6c-0.3-0.1-0.6,0-0.8,0.1c-0.2,0.1-0.4,0.3-0.5,0.6c-0.2,0.3-0.2,0.6-0.2,0.9
			c0,0.3,0.2,0.5,0.4,0.7c0.2,0.2,0.4,0.4,0.7,0.5c0.3,0.2,0.7,0.3,1,0.3c0.3,0,0.6,0,0.8-0.2c0.2-0.1,0.4-0.3,0.5-0.6
			c0.1-0.3,0.2-0.6,0.1-0.9C123.3,44.3,123.1,44,122.8,43.8"/>
		
			<rect x="111.7" y="57.6" style="clip-path:url(#SVGID_00000151506494052694069000000012853843889184183194_);fill-rule:evenodd;clip-rule:evenodd;fill:#9D9D9C;" width="10.3" height="1.5"/>
		
			<rect x="169.8" y="57.6" style="clip-path:url(#SVGID_00000151506494052694069000000012853843889184183194_);fill-rule:evenodd;clip-rule:evenodd;fill:#9D9D9C;" width="10.3" height="1.5"/>
		
			<path style="clip-path:url(#SVGID_00000151506494052694069000000012853843889184183194_);fill-rule:evenodd;clip-rule:evenodd;fill:#FFFFFF;" d="
			M172.6,73.1l-4.2-1.5l0.3-0.8l3.3,0.1c0.3,0,0.5,0,0.7,0c-0.1-0.1-0.3-0.3-0.6-0.5l-2.5-2.1l0.3-0.7l4.2,1.5l-0.2,0.5l-3.5-1.3
			l3,2.5l-0.2,0.5l-4-0.1l3.5,1.3L172.6,73.1z M170.7,76.7l-3.9-2.1l1.6-2.8l0.5,0.3l-1.3,2.3l1.2,0.7l1.2-2.1l0.5,0.3l-1.2,2.1
			l1.3,0.7l1.3-2.4l0.5,0.3L170.7,76.7z M168.9,79l-3.1-2.4l-0.9,1.2l-0.4-0.3l2.1-2.8l0.4,0.3l-0.9,1.2l3.1,2.4L168.9,79z
			 M164.2,82l0.4-0.4c0.2,0.1,0.3,0.2,0.5,0.3c0.2,0,0.4,0,0.6-0.1c0.2-0.1,0.4-0.2,0.6-0.4c0.2-0.2,0.3-0.3,0.3-0.5
			c0.1-0.2,0.1-0.3,0.1-0.5c0-0.1-0.1-0.3-0.2-0.4c-0.1-0.1-0.2-0.2-0.3-0.2c-0.1,0-0.3,0-0.5,0.1c-0.1,0.1-0.4,0.2-0.7,0.4
			c-0.4,0.2-0.6,0.4-0.8,0.4c-0.2,0.1-0.4,0.1-0.6,0c-0.2,0-0.4-0.1-0.5-0.3c-0.2-0.2-0.3-0.3-0.3-0.6c0-0.2,0-0.5,0.1-0.7
			c0.1-0.2,0.3-0.5,0.5-0.7c0.2-0.2,0.5-0.4,0.7-0.5c0.3-0.1,0.5-0.1,0.7-0.1c0.2,0.1,0.5,0.2,0.6,0.3l-0.4,0.4
			c-0.2-0.2-0.4-0.3-0.7-0.2c-0.2,0-0.5,0.2-0.7,0.4c-0.3,0.3-0.4,0.5-0.4,0.7c0,0.2,0,0.4,0.2,0.5c0.1,0.1,0.2,0.2,0.4,0.2
			c0.2,0,0.4-0.1,0.8-0.4c0.4-0.3,0.7-0.4,0.9-0.5c0.3-0.1,0.5-0.1,0.7-0.1c0.2,0,0.4,0.1,0.6,0.3c0.2,0.2,0.3,0.4,0.3,0.6
			c0.1,0.2,0,0.5-0.1,0.8c-0.1,0.3-0.3,0.5-0.5,0.7c-0.3,0.3-0.6,0.5-0.8,0.6c-0.3,0.1-0.5,0.1-0.8,0.1
			C164.6,82.3,164.4,82.2,164.2,82 M163,84.5l-1.1-1.5l-2.9-1l0.6-0.4l1.5,0.5c0.3,0.1,0.5,0.2,0.8,0.3c0-0.3-0.1-0.6-0.1-0.9
			l-0.1-1.6l0.5-0.4l0.1,3.1l1.1,1.5L163,84.5z M157.5,86l0.5-0.3c0.1,0.2,0.3,0.3,0.4,0.4c0.2,0.1,0.3,0.1,0.6,0.1
			c0.2,0,0.4-0.1,0.7-0.2c0.2-0.1,0.4-0.2,0.5-0.4c0.1-0.1,0.2-0.3,0.2-0.4c0-0.1,0-0.3-0.1-0.4c-0.1-0.1-0.2-0.2-0.3-0.3
			c-0.1-0.1-0.3-0.1-0.5,0c-0.1,0-0.4,0.1-0.8,0.2c-0.4,0.1-0.7,0.2-0.9,0.2c-0.2,0-0.4,0-0.6-0.1c-0.2-0.1-0.3-0.2-0.4-0.4
			c-0.1-0.2-0.1-0.4-0.1-0.6c0-0.2,0.1-0.5,0.3-0.7c0.2-0.2,0.4-0.4,0.6-0.5c0.3-0.2,0.6-0.2,0.8-0.3c0.3,0,0.5,0,0.7,0.1
			c0.2,0.1,0.4,0.3,0.5,0.5l-0.5,0.3c-0.2-0.2-0.3-0.4-0.6-0.4c-0.2,0-0.5,0-0.8,0.2c-0.3,0.2-0.5,0.3-0.6,0.5
			c-0.1,0.2-0.1,0.4,0,0.5c0.1,0.1,0.2,0.2,0.3,0.3c0.1,0,0.5,0,0.9-0.1c0.5-0.1,0.8-0.2,1-0.2c0.3,0,0.5,0,0.7,0.1
			c0.2,0.1,0.3,0.3,0.5,0.5c0.1,0.2,0.2,0.4,0.1,0.7c0,0.2-0.1,0.5-0.3,0.7c-0.2,0.2-0.4,0.4-0.7,0.6c-0.4,0.2-0.7,0.3-1,0.3
			c-0.3,0-0.6,0-0.8-0.2C157.8,86.5,157.6,86.3,157.5,86 M150.1,89.5l-0.6-3.9l-1.4,0.2l-0.1-0.5l3.5-0.5l0.1,0.5l-1.4,0.2l0.6,3.9
			L150.1,89.5z M144.6,89.9l-0.2-4.4l0.6,0l2.4,3.4l-0.1-3.5l0.6,0l0.2,4.4l-0.6,0l-2.4-3.4l0.1,3.5L144.6,89.9z M140.5,89.4L141,85
			l3.2,0.4l-0.1,0.5l-2.6-0.3l-0.2,1.3l2.4,0.3l-0.1,0.5l-2.4-0.3l-0.2,1.5l2.7,0.3l-0.1,0.5L140.5,89.4z M135.4,88.1l1.1-4.3
			l0.9,0.2l0.2,3.3c0,0.3,0,0.5,0,0.7c0.1-0.1,0.2-0.4,0.4-0.6l1.8-2.7l0.8,0.2l-1.1,4.3l-0.5-0.1l1-3.6l-2.2,3.2l-0.5-0.1l-0.3-4
			l-1,3.6L135.4,88.1z M131.4,86.3l1.9-4l2.9,1.4l-0.2,0.5l-2.4-1.1l-0.6,1.2l2.2,1.1l-0.2,0.5l-2.2-1.1l-0.7,1.4l2.4,1.2l-0.2,0.5
			L131.4,86.3z M130.1,83.4l0.3-0.4l1.6,1l-0.9,1.4c-0.4,0-0.7,0-1-0.1c-0.3-0.1-0.6-0.2-0.9-0.4c-0.4-0.2-0.6-0.5-0.8-0.9
			c-0.2-0.4-0.3-0.7-0.2-1.1c0-0.4,0.2-0.8,0.4-1.1c0.2-0.4,0.5-0.6,0.9-0.8c0.4-0.2,0.7-0.3,1.1-0.3c0.4,0,0.8,0.2,1.1,0.4
			c0.3,0.2,0.5,0.4,0.6,0.6c0.2,0.2,0.2,0.5,0.3,0.7c0,0.2,0,0.5-0.1,0.8l-0.5-0.2c0.1-0.2,0.1-0.4,0.1-0.6c0-0.2-0.1-0.3-0.2-0.5
			c-0.1-0.2-0.3-0.3-0.4-0.4c-0.2-0.1-0.4-0.2-0.6-0.3c-0.2,0-0.4,0-0.6,0c-0.2,0-0.3,0.1-0.5,0.2c-0.2,0.2-0.5,0.4-0.6,0.6
			c-0.2,0.3-0.3,0.6-0.4,0.9c0,0.3,0,0.6,0.2,0.8c0.1,0.3,0.3,0.5,0.6,0.6c0.2,0.1,0.4,0.2,0.7,0.3c0.3,0.1,0.5,0.1,0.6,0l0.5-0.7
			L130.1,83.4z M126.1,80.1l1.1,1l0.5-1.2c0.1-0.4,0.3-0.7,0.4-0.9c-0.2,0.2-0.5,0.3-0.7,0.5L126.1,80.1z M123.9,80.6l4.2-2.2
			l0.5,0.4l-1.6,4.5l-0.5-0.4l0.5-1.3l-1.4-1.2l-1.3,0.7L123.9,80.6z M121.5,77.5l3.5-2.7l0.4,0.5l-1.3,4l2.7-2.1l0.3,0.4l-3.5,2.7
			l-0.4-0.5l1.3-4l-2.7,2.1L121.5,77.5z M121.4,73.7l0.7,1.3l0.8-1c0.3-0.3,0.5-0.5,0.7-0.7c-0.3,0.1-0.6,0.2-0.9,0.2L121.4,73.7z
			 M119.1,73.4l4.7-0.7l0.3,0.6l-3,3.7l-0.3-0.6l0.9-1.1l-0.9-1.6l-1.4,0.2L119.1,73.4z M117.5,69.1l4.2-1.5l0.3,0.8l-2.6,2.1
			c-0.2,0.2-0.4,0.3-0.5,0.4c0.2,0,0.4,0,0.7,0l3.3-0.1l0.3,0.7l-4.2,1.5l-0.2-0.5l3.5-1.3l-3.9,0.1l-0.2-0.5l3.1-2.5l-3.5,1.3
			L117.5,69.1z"/>
		
			<rect x="124.4" y="50.6" style="clip-path:url(#SVGID_00000151506494052694069000000012853843889184183194_);fill-rule:evenodd;clip-rule:evenodd;fill:#004F87;" width="42.8" height="1.5"/>
		
			<rect x="124.5" y="65.9" style="clip-path:url(#SVGID_00000151506494052694069000000012853843889184183194_);fill-rule:evenodd;clip-rule:evenodd;fill:#9D9D9C;" width="42.6" height="1.1"/>
		
			<rect x="127.3" y="54.2" style="clip-path:url(#SVGID_00000151506494052694069000000012853843889184183194_);fill-rule:evenodd;clip-rule:evenodd;fill:#9D9D9C;" width="2.1" height="9.1"/>
		
			<path style="clip-path:url(#SVGID_00000151506494052694069000000012853843889184183194_);fill-rule:evenodd;clip-rule:evenodd;fill:#9D9D9C;" d="
			M142,54.2h2l4.8,5.4v-5.4h2.2v9.1h-1.9c-0.2-0.2-0.5-0.6-1-1.1c-0.4-0.5-0.9-1-1.3-1.5c-0.4-0.5-1-1.1-1.7-1.9
			c-0.7-0.8-1-1.2-1-1.2v5.6H142V54.2z"/>
		
			<path style="clip-path:url(#SVGID_00000151506494052694069000000012853843889184183194_);fill-rule:evenodd;clip-rule:evenodd;fill:#9D9D9C;" d="
			M161.9,54.1h0.3v2.2h2.4v1.5h-2.4v2.4c0,0.3,0,0.6,0.1,0.8c0,0.2,0.1,0.4,0.3,0.5c0.1,0.1,0.4,0.2,0.7,0.2c0.2,0,0.4,0,0.6-0.1
			c0.2,0,0.4-0.2,0.8-0.3V63c-0.3,0.1-0.5,0.2-0.7,0.2c-0.2,0.1-0.4,0.1-0.6,0.1c-0.2,0-0.4,0.1-0.7,0.1c-0.9,0-1.5-0.2-1.9-0.7
			c-0.4-0.5-0.6-1.1-0.6-2v-2.8h-1v-0.4L161.9,54.1z"/>
		
			<path style="clip-path:url(#SVGID_00000151506494052694069000000012853843889184183194_);fill-rule:evenodd;clip-rule:evenodd;fill:#9D9D9C;" d="
			M155.6,57.4c-0.4,0-0.7,0.1-1,0.4c-0.3,0.3-0.4,0.6-0.5,1.1h3c0-0.4-0.2-0.8-0.5-1.1C156.4,57.6,156,57.4,155.6,57.4 M155.5,56.1
			c0.7,0,1.3,0.1,1.7,0.4c0.5,0.2,0.8,0.6,1.1,1c0.3,0.4,0.5,0.8,0.6,1.3c0.1,0.5,0.2,0.9,0.2,1.4h-5c0.1,0.6,0.3,1.1,0.7,1.4
			c0.4,0.3,0.9,0.5,1.6,0.5c0.9,0,1.7-0.3,2.6-1v1.4c-0.8,0.6-1.9,0.9-3.3,0.9c-0.7,0-1.4-0.1-2-0.4c-0.6-0.3-1-0.7-1.4-1.3
			c-0.3-0.5-0.5-1.2-0.5-1.9c0-0.7,0.2-1.4,0.5-1.9c0.3-0.6,0.8-1,1.3-1.3C154.2,56.2,154.8,56.1,155.5,56.1"/>
		
			<polygon style="clip-path:url(#SVGID_00000151506494052694069000000012853843889184183194_);fill-rule:evenodd;clip-rule:evenodd;fill:#004F87;" points="
			139.8,57.8 140.1,58.5 140.8,58.5 140.2,58.9 140.5,59.6 139.8,59.2 139.2,59.6 139.5,58.9 138.9,58.5 139.6,58.5 		"/>
		
			<polygon style="clip-path:url(#SVGID_00000151506494052694069000000012853843889184183194_);fill-rule:evenodd;clip-rule:evenodd;fill:#004F87;" points="
			139.4,59.8 139.6,60.5 140.3,60.5 139.8,60.9 140,61.6 139.4,61.2 138.8,61.6 139,60.9 138.4,60.5 139.1,60.5 		"/>
		
			<polygon style="clip-path:url(#SVGID_00000151506494052694069000000012853843889184183194_);fill-rule:evenodd;clip-rule:evenodd;fill:#004F87;" points="
			137.8,61.3 138.1,62 138.8,62 138.2,62.5 138.4,63.1 137.8,62.7 137.2,63.1 137.4,62.5 136.8,62 137.5,62 		"/>
		
			<polygon style="clip-path:url(#SVGID_00000151506494052694069000000012853843889184183194_);fill-rule:evenodd;clip-rule:evenodd;fill:#004F87;" points="
			136.4,59.5 136.7,60.2 137.4,60.2 136.8,60.6 137,61.2 136.4,60.8 135.8,61.2 136,60.6 135.5,60.2 136.1,60.2 		"/>
		
			<polygon style="clip-path:url(#SVGID_00000151506494052694069000000012853843889184183194_);fill-rule:evenodd;clip-rule:evenodd;fill:#004F87;" points="
			139.1,63 139.3,63.8 140,63.8 139.5,64.2 139.7,64.9 139.1,64.5 138.4,64.9 138.7,64.2 138.1,63.8 138.8,63.8 		"/>
		
			<polygon style="clip-path:url(#SVGID_00000151506494052694069000000012853843889184183194_);fill-rule:evenodd;clip-rule:evenodd;fill:#004F87;" points="
			135.6,62 135.8,62.8 136.5,62.8 136,63.2 136.2,63.9 135.6,63.5 135,63.9 135.2,63.2 134.6,62.8 135.3,62.8 		"/>
		
			<polygon style="clip-path:url(#SVGID_00000151506494052694069000000012853843889184183194_);fill-rule:evenodd;clip-rule:evenodd;fill:#004F87;" points="
			133.5,61.3 133.8,62.1 134.5,62.1 133.9,62.5 134.1,63.2 133.5,62.8 132.9,63.2 133.1,62.5 132.6,62.1 133.2,62.1 		"/>
		
			<polygon style="clip-path:url(#SVGID_00000151506494052694069000000012853843889184183194_);fill-rule:evenodd;clip-rule:evenodd;fill:#004F87;" points="
			132,59.8 132.2,60.5 132.9,60.5 132.4,60.9 132.6,61.6 132,61.2 131.4,61.6 131.6,60.9 131,60.5 131.7,60.5 		"/>
		
			<polygon style="clip-path:url(#SVGID_00000151506494052694069000000012853843889184183194_);fill-rule:evenodd;clip-rule:evenodd;fill:#004F87;" points="
			131.5,57.7 131.8,58.5 132.4,58.5 131.9,58.9 132.1,59.5 131.5,59.1 130.9,59.5 131.1,58.9 130.5,58.5 131.2,58.5 		"/>
		
			<polygon style="clip-path:url(#SVGID_00000151506494052694069000000012853843889184183194_);fill-rule:evenodd;clip-rule:evenodd;fill:#004F87;" points="
			132.1,55.7 132.3,56.4 133,56.4 132.5,56.8 132.7,57.5 132.1,57.1 131.4,57.5 131.7,56.8 131.1,56.4 131.8,56.4 		"/>
		
			<polygon style="clip-path:url(#SVGID_00000151506494052694069000000012853843889184183194_);fill-rule:evenodd;clip-rule:evenodd;fill:#004F87;" points="
			133.5,54.1 133.8,54.8 134.5,54.8 133.9,55.2 134.1,55.9 133.5,55.5 132.9,55.9 133.1,55.2 132.5,54.8 133.3,54.8 		"/>
		
			<polygon style="clip-path:url(#SVGID_00000151506494052694069000000012853843889184183194_);fill-rule:evenodd;clip-rule:evenodd;fill:#004F87;" points="
			135.7,53.6 135.9,54.3 136.6,54.3 136.1,54.7 136.3,55.4 135.7,55 135.1,55.4 135.3,54.7 134.7,54.3 135.4,54.3 		"/>
		
			<polygon style="clip-path:url(#SVGID_00000151506494052694069000000012853843889184183194_);fill-rule:evenodd;clip-rule:evenodd;fill:#004F87;" points="
			137.9,54 138.2,54.7 138.9,54.7 138.3,55.2 138.5,55.8 137.9,55.4 137.3,55.8 137.5,55.2 137,54.7 137.6,54.7 		"/>
		
			<polygon style="clip-path:url(#SVGID_00000151506494052694069000000012853843889184183194_);fill-rule:evenodd;clip-rule:evenodd;fill:#004F87;" points="
			139.2,55.6 139.5,56.3 140.2,56.3 139.6,56.8 139.8,57.4 139.2,57 138.6,57.4 138.8,56.8 138.2,56.3 138.9,56.3 		"/>
	</g>
	<g>
		<path class="st9" d="M83.9,122.2H20v-16h63.9V122.2z M83.9,106.2h-16V10.8h16V106.2z M67.9,106.2h-16V10.8h16V106.2z M51.9,106.2
			h-16V10.8h16V106.2z M35.9,106.2H20V10.8h16V106.2z"/>
		<rect x="21.4" y="106.2" class="st9" width="61" height="16"/>
	</g>
	<g>
		<path class="st10" d="M21.5,126.3l0.6-0.1c0,0.3,0.1,0.6,0.2,0.7c0.1,0.2,0.3,0.3,0.5,0.4s0.4,0.2,0.7,0.2c0.4,0,0.7-0.1,0.9-0.3
			c0.2-0.2,0.3-0.4,0.3-0.7c0-0.2,0-0.3-0.1-0.4c-0.1-0.1-0.2-0.2-0.3-0.3c-0.2-0.1-0.5-0.2-1-0.3c-0.5-0.1-0.8-0.3-1-0.4
			c-0.2-0.1-0.3-0.3-0.4-0.5c-0.1-0.2-0.2-0.4-0.2-0.7c0-0.5,0.2-0.9,0.5-1.2c0.3-0.3,0.7-0.4,1.2-0.4c0.4,0,0.7,0.1,0.9,0.2
			c0.3,0.1,0.5,0.3,0.6,0.6c0.1,0.3,0.2,0.6,0.2,0.9l-0.6,0.1c0-0.4-0.1-0.7-0.3-0.8c-0.2-0.2-0.5-0.3-0.8-0.3
			c-0.4,0-0.6,0.1-0.8,0.2c-0.2,0.2-0.3,0.4-0.3,0.6c0,0.2,0.1,0.4,0.2,0.5c0.1,0.1,0.4,0.3,0.9,0.4c0.5,0.1,0.8,0.2,1,0.3
			c0.3,0.1,0.5,0.3,0.7,0.6c0.1,0.2,0.2,0.5,0.2,0.9c0,0.3-0.1,0.6-0.2,0.9c-0.2,0.3-0.4,0.5-0.6,0.6c-0.3,0.1-0.6,0.2-1,0.2
			c-0.6,0-1.1-0.2-1.4-0.5C21.7,127.4,21.5,126.9,21.5,126.3z"/>
		<path class="st10" d="M29.6,126.1l0.6,0.2c-0.1,0.7-0.4,1.1-0.7,1.5c-0.4,0.3-0.8,0.5-1.3,0.5c-0.4,0-0.8-0.1-1.1-0.3
			c-0.3-0.2-0.6-0.6-0.8-1c-0.2-0.5-0.3-1-0.3-1.7c0-0.6,0.1-1.2,0.3-1.6c0.2-0.4,0.5-0.8,0.8-1c0.3-0.2,0.7-0.3,1.1-0.3
			c0.5,0,0.9,0.1,1.2,0.4c0.3,0.3,0.6,0.7,0.7,1.3l-0.6,0.2c-0.2-0.8-0.6-1.2-1.3-1.2c-0.3,0-0.6,0.1-0.8,0.2
			c-0.2,0.2-0.4,0.4-0.6,0.8c-0.1,0.3-0.2,0.8-0.2,1.3c0,0.8,0.1,1.4,0.4,1.8c0.3,0.4,0.7,0.6,1.1,0.6c0.3,0,0.6-0.1,0.9-0.4
			C29.3,127,29.5,126.6,29.6,126.1z"/>
		<path class="st10" d="M30.7,126.4v-0.7h1.8v0.7H30.7z"/>
		<path class="st10" d="M36.6,126.1l0.6,0.2c-0.1,0.7-0.4,1.1-0.7,1.5c-0.4,0.3-0.8,0.5-1.3,0.5c-0.4,0-0.8-0.1-1.1-0.3
			c-0.3-0.2-0.6-0.6-0.8-1s-0.3-1-0.3-1.7c0-0.6,0.1-1.2,0.3-1.6c0.2-0.4,0.5-0.8,0.8-1c0.3-0.2,0.7-0.3,1.1-0.3
			c0.5,0,0.9,0.1,1.2,0.4c0.3,0.3,0.6,0.7,0.7,1.3l-0.6,0.2c-0.2-0.8-0.6-1.2-1.3-1.2c-0.3,0-0.6,0.1-0.8,0.2
			c-0.2,0.2-0.4,0.4-0.6,0.8c-0.1,0.3-0.2,0.8-0.2,1.3c0,0.8,0.1,1.4,0.4,1.8c0.3,0.4,0.7,0.6,1.1,0.6c0.3,0,0.6-0.1,0.9-0.4
			C36.3,127,36.5,126.6,36.6,126.1z"/>
		<path class="st10" d="M38,128.2v-5.8h3.5v0.7h-2.8v1.8h2.6v0.7h-2.6v2h2.9v0.7H38z"/>
		<path class="st10" d="M42.5,128.2v-5.8h2.1c0.4,0,0.8,0.1,1,0.2s0.4,0.3,0.5,0.5c0.1,0.3,0.2,0.5,0.2,0.9c0,0.4-0.1,0.8-0.3,1.1
			c-0.2,0.3-0.6,0.4-1,0.5c0.2,0.1,0.3,0.2,0.4,0.3c0.2,0.2,0.4,0.5,0.5,0.7l0.8,1.6h-0.8l-0.6-1.2c-0.2-0.5-0.4-0.8-0.6-1
			c-0.1-0.2-0.2-0.3-0.4-0.3c-0.1-0.1-0.3-0.1-0.5-0.1h-0.7v2.6H42.5z M43.1,124.9h1.4c0.3,0,0.5,0,0.7-0.1c0.2-0.1,0.3-0.2,0.4-0.3
			c0.1-0.2,0.1-0.3,0.1-0.5c0-0.3-0.1-0.5-0.3-0.7s-0.4-0.3-0.8-0.3h-1.5V124.9z"/>
		<path class="st10" d="M47,126.6l0.6-0.1c0.1,0.8,0.4,1.1,0.9,1.1c0.3,0,0.5-0.1,0.7-0.3c0.2-0.2,0.3-0.5,0.3-0.9
			c0-0.3-0.1-0.6-0.3-0.8c-0.2-0.2-0.4-0.3-0.7-0.3c-0.1,0-0.2,0-0.4,0.1l0.1-0.6l0.1,0c0.3,0,0.5-0.1,0.7-0.3
			c0.2-0.2,0.3-0.4,0.3-0.7c0-0.3-0.1-0.5-0.2-0.7c-0.2-0.2-0.3-0.2-0.6-0.2c-0.2,0-0.4,0.1-0.6,0.3c-0.2,0.2-0.3,0.4-0.3,0.8
			l-0.6-0.1c0.1-0.5,0.2-0.9,0.5-1.1c0.3-0.3,0.6-0.4,0.9-0.4c0.4,0,0.7,0.1,1,0.4c0.3,0.3,0.4,0.6,0.4,1.1c0,0.3-0.1,0.5-0.2,0.7
			c-0.1,0.2-0.3,0.4-0.5,0.5c0.2,0.1,0.3,0.1,0.5,0.3c0.1,0.1,0.2,0.3,0.3,0.5c0.1,0.2,0.1,0.4,0.1,0.7c0,0.5-0.2,1-0.5,1.3
			c-0.3,0.3-0.7,0.5-1.1,0.5c-0.4,0-0.8-0.1-1-0.4S47.1,127.1,47,126.6z"/>
		<path class="st10" d="M52.9,128.2h-0.6v-4.6c-0.1,0.2-0.3,0.3-0.5,0.5c-0.2,0.2-0.4,0.3-0.6,0.4v-0.7c0.3-0.2,0.6-0.4,0.9-0.7
			c0.2-0.3,0.4-0.5,0.5-0.8h0.4V128.2z"/>
		<path class="st10" d="M54.4,126.7l0.6-0.1c0,0.4,0.2,0.6,0.3,0.8s0.4,0.3,0.6,0.3c0.3,0,0.5-0.1,0.7-0.4c0.2-0.3,0.3-0.6,0.3-1
			c0-0.4-0.1-0.7-0.3-1c-0.2-0.2-0.4-0.3-0.7-0.3c-0.2,0-0.3,0-0.5,0.1c-0.2,0.1-0.3,0.2-0.4,0.4l-0.6-0.1l0.5-3h2.4v0.7h-1.9
			l-0.3,1.6c0.3-0.2,0.6-0.4,0.9-0.4c0.4,0,0.7,0.2,1,0.5c0.3,0.3,0.4,0.8,0.4,1.4c0,0.6-0.1,1.1-0.4,1.5c-0.3,0.4-0.7,0.6-1.2,0.6
			c-0.4,0-0.8-0.1-1-0.4C54.6,127.6,54.5,127.2,54.4,126.7z"/>
		<path class="st10" d="M58.2,126.6l0.6-0.1c0.1,0.8,0.4,1.1,0.9,1.1c0.3,0,0.5-0.1,0.7-0.3c0.2-0.2,0.3-0.5,0.3-0.9
			c0-0.3-0.1-0.6-0.3-0.8c-0.2-0.2-0.4-0.3-0.7-0.3c-0.1,0-0.2,0-0.4,0.1l0.1-0.6l0.1,0c0.3,0,0.5-0.1,0.7-0.3
			c0.2-0.2,0.3-0.4,0.3-0.7c0-0.3-0.1-0.5-0.2-0.7c-0.2-0.2-0.3-0.2-0.6-0.2c-0.2,0-0.4,0.1-0.6,0.3c-0.2,0.2-0.3,0.4-0.3,0.8
			l-0.6-0.1c0.1-0.5,0.2-0.9,0.5-1.1s0.6-0.4,0.9-0.4c0.4,0,0.7,0.1,1,0.4c0.3,0.3,0.4,0.6,0.4,1.1c0,0.3-0.1,0.5-0.2,0.7
			c-0.1,0.2-0.3,0.4-0.5,0.5c0.2,0.1,0.3,0.1,0.5,0.3c0.1,0.1,0.2,0.3,0.3,0.5c0.1,0.2,0.1,0.4,0.1,0.7c0,0.5-0.2,1-0.5,1.3
			c-0.3,0.3-0.7,0.5-1.1,0.5c-0.4,0-0.8-0.1-1-0.4S58.2,127.1,58.2,126.6z"/>
		<path class="st10" d="M61.9,126.7l0.6-0.1c0,0.4,0.2,0.6,0.3,0.8s0.4,0.3,0.6,0.3c0.3,0,0.5-0.1,0.7-0.4c0.2-0.3,0.3-0.6,0.3-1
			c0-0.4-0.1-0.7-0.3-1c-0.2-0.2-0.4-0.3-0.7-0.3c-0.2,0-0.3,0-0.5,0.1c-0.2,0.1-0.3,0.2-0.4,0.4l-0.6-0.1l0.5-3h2.4v0.7h-1.9
			l-0.3,1.6c0.3-0.2,0.6-0.4,0.9-0.4c0.4,0,0.7,0.2,1,0.5c0.3,0.3,0.4,0.8,0.4,1.4c0,0.6-0.1,1.1-0.4,1.5c-0.3,0.4-0.7,0.6-1.2,0.6
			c-0.4,0-0.8-0.1-1-0.4C62.1,127.6,61.9,127.2,61.9,126.7z"/>
		<path class="st10" d="M65.6,126.6l0.6-0.1c0.1,0.8,0.4,1.1,0.9,1.1c0.3,0,0.5-0.1,0.7-0.3c0.2-0.2,0.3-0.5,0.3-0.9
			c0-0.3-0.1-0.6-0.3-0.8c-0.2-0.2-0.4-0.3-0.7-0.3c-0.1,0-0.2,0-0.4,0.1l0.1-0.6l0.1,0c0.3,0,0.5-0.1,0.7-0.3
			c0.2-0.2,0.3-0.4,0.3-0.7c0-0.3-0.1-0.5-0.2-0.7c-0.2-0.2-0.3-0.2-0.6-0.2c-0.2,0-0.4,0.1-0.6,0.3c-0.2,0.2-0.3,0.4-0.3,0.8
			l-0.6-0.1c0.1-0.5,0.2-0.9,0.5-1.1c0.3-0.3,0.6-0.4,0.9-0.4c0.4,0,0.7,0.1,1,0.4c0.3,0.3,0.4,0.6,0.4,1.1c0,0.3-0.1,0.5-0.2,0.7
			c-0.1,0.2-0.3,0.4-0.5,0.5c0.2,0.1,0.3,0.1,0.5,0.3c0.1,0.1,0.2,0.3,0.3,0.5c0.1,0.2,0.1,0.4,0.1,0.7c0,0.5-0.2,1-0.5,1.3
			c-0.3,0.3-0.7,0.5-1.1,0.5c-0.4,0-0.8-0.1-1-0.4C65.8,127.5,65.6,127.1,65.6,126.6z"/>
		<path class="st10" d="M21.7,137.9v-5.8h1.6c0.4,0,0.7,0,0.9,0.1c0.3,0.1,0.5,0.3,0.7,0.5c0.2,0.2,0.4,0.6,0.5,0.9
			c0.1,0.4,0.2,0.8,0.2,1.3c0,0.7-0.1,1.2-0.3,1.7s-0.4,0.8-0.7,1c-0.3,0.2-0.7,0.3-1.2,0.3H21.7z M22.3,137.3h1
			c0.4,0,0.7-0.1,0.9-0.2s0.4-0.3,0.5-0.6c0.2-0.4,0.2-0.9,0.2-1.4c0-0.6-0.1-1.1-0.2-1.4c-0.2-0.3-0.4-0.6-0.6-0.7
			c-0.2-0.1-0.4-0.1-0.8-0.1h-1V137.3z"/>
		<path class="st10" d="M26.5,132.9v-0.8H27v0.8H26.5z M26.5,137.9v-4.2H27v4.2H26.5z"/>
		<path class="st10" d="M27.7,136.7l0.6-0.1c0,0.3,0.1,0.5,0.3,0.7c0.2,0.1,0.4,0.2,0.6,0.2c0.3,0,0.4-0.1,0.6-0.2
			c0.1-0.1,0.2-0.3,0.2-0.5c0-0.2-0.1-0.3-0.2-0.4c-0.1-0.1-0.3-0.1-0.6-0.2c-0.5-0.1-0.8-0.3-0.9-0.4s-0.3-0.2-0.4-0.4
			s-0.1-0.4-0.1-0.6c0-0.4,0.1-0.7,0.3-0.9s0.5-0.3,1-0.3c0.3,0,0.5,0,0.7,0.1c0.2,0.1,0.3,0.2,0.4,0.4c0.1,0.2,0.2,0.4,0.2,0.7
			l-0.6,0.1c-0.1-0.5-0.3-0.7-0.8-0.7c-0.3,0-0.4,0.1-0.6,0.2c-0.1,0.1-0.2,0.2-0.2,0.4c0,0.2,0.1,0.3,0.2,0.4
			c0.1,0.1,0.3,0.1,0.6,0.3c0.5,0.2,0.8,0.3,0.9,0.4c0.1,0.1,0.3,0.2,0.3,0.4c0.1,0.2,0.1,0.3,0.1,0.6c0,0.4-0.1,0.7-0.4,1
			c-0.3,0.2-0.6,0.4-1,0.4C28.3,138,27.8,137.6,27.7,136.7z"/>
		<path class="st10" d="M33.6,136.6l0.6,0.1c-0.1,0.4-0.3,0.8-0.5,1s-0.6,0.3-1,0.3c-0.5,0-0.9-0.2-1.2-0.6
			c-0.3-0.4-0.5-0.9-0.5-1.6c0-0.7,0.2-1.3,0.5-1.7c0.3-0.4,0.7-0.6,1.2-0.6c0.4,0,0.8,0.2,1.1,0.6s0.4,0.9,0.4,1.6l0,0.2h-2.6
			c0,0.5,0.1,0.8,0.3,1.1c0.2,0.2,0.4,0.4,0.7,0.4C33.2,137.5,33.5,137.2,33.6,136.6z M31.7,135.4h1.9c0-0.4-0.1-0.6-0.2-0.8
			c-0.2-0.3-0.4-0.4-0.7-0.4c-0.3,0-0.5,0.1-0.7,0.3C31.8,134.8,31.7,135.1,31.7,135.4z"/>
		<path class="st10" d="M35,137.9v-4.2h0.5v0.6c0.1-0.2,0.3-0.4,0.5-0.5s0.4-0.2,0.6-0.2c0.2,0,0.4,0,0.5,0.1
			c0.2,0.1,0.3,0.2,0.4,0.3c0.1,0.1,0.2,0.3,0.2,0.5c0,0.2,0.1,0.5,0.1,0.9v2.6h-0.6v-2.6c0-0.3,0-0.5-0.1-0.7
			c-0.1-0.1-0.1-0.3-0.2-0.3c-0.1-0.1-0.2-0.1-0.4-0.1c-0.3,0-0.5,0.1-0.7,0.3c-0.2,0.2-0.3,0.6-0.3,1.1v2.3H35z M35.4,133.2
			c0-0.3,0.1-0.5,0.2-0.7c0.1-0.2,0.3-0.2,0.5-0.2c0.1,0,0.3,0.1,0.6,0.2c0.1,0.1,0.2,0.1,0.3,0.1c0.1,0,0.1,0,0.2-0.1
			c0,0,0.1-0.1,0.1-0.3h0.4c0,0.3-0.1,0.5-0.2,0.7c-0.1,0.1-0.3,0.2-0.5,0.2c-0.1,0-0.3-0.1-0.5-0.2c-0.1-0.1-0.3-0.1-0.3-0.1
			c-0.1,0-0.1,0-0.2,0.1c0,0.1-0.1,0.2-0.1,0.3H35.4z"/>
		<path class="st10" d="M38.5,135.8c0-0.7,0.2-1.3,0.5-1.6c0.3-0.4,0.7-0.6,1.2-0.6c0.5,0,0.8,0.2,1.2,0.6c0.3,0.4,0.5,0.9,0.5,1.6
			c0,0.8-0.2,1.3-0.5,1.7c-0.3,0.4-0.7,0.6-1.2,0.6c-0.5,0-0.8-0.2-1.2-0.6C38.6,137.1,38.5,136.6,38.5,135.8z M39.1,135.8
			c0,0.5,0.1,1,0.3,1.2c0.2,0.3,0.4,0.4,0.7,0.4c0.3,0,0.5-0.1,0.7-0.4c0.2-0.3,0.3-0.7,0.3-1.2c0-0.5-0.1-0.9-0.3-1.2
			c-0.2-0.3-0.4-0.4-0.7-0.4c-0.3,0-0.5,0.1-0.7,0.4C39.2,134.9,39.1,135.3,39.1,135.8z"/>
		<path class="st10" d="M44.2,139.6l-0.1-0.7c0.1,0,0.2,0.1,0.3,0.1c0.1,0,0.2,0,0.3-0.1c0.1-0.1,0.1-0.1,0.2-0.2
			c0,0,0.1-0.3,0.2-0.7l-1.3-4.2h0.6l0.7,2.4c0.1,0.3,0.2,0.6,0.3,1c0.1-0.3,0.1-0.6,0.2-1l0.7-2.5h0.6l-1.3,4.3
			c-0.2,0.6-0.3,0.9-0.4,1.1c-0.1,0.2-0.2,0.3-0.3,0.4c-0.1,0.1-0.3,0.1-0.4,0.1C44.5,139.7,44.4,139.6,44.2,139.6z"/>
		<path class="st10" d="M49.5,137.9v-5.8h1.8c0.4,0,0.7,0,0.9,0.1c0.3,0.1,0.5,0.3,0.7,0.6c0.2,0.3,0.2,0.6,0.2,1
			c0,0.5-0.1,1-0.4,1.3s-0.7,0.5-1.4,0.5h-1.2v2.4H49.5z M50.2,134.9h1.2c0.4,0,0.7-0.1,0.9-0.3s0.3-0.4,0.3-0.8
			c0-0.2,0-0.4-0.1-0.6c-0.1-0.2-0.2-0.3-0.3-0.3c-0.1-0.1-0.4-0.1-0.7-0.1h-1.2V134.9z"/>
		<path class="st10" d="M53.9,137.9v-4.2h0.5v0.6c0.1-0.3,0.3-0.5,0.4-0.6c0.1-0.1,0.2-0.1,0.4-0.1c0.2,0,0.4,0.1,0.6,0.2l-0.2,0.7
			c-0.1-0.1-0.3-0.2-0.4-0.2c-0.1,0-0.2,0-0.3,0.1c-0.1,0.1-0.2,0.2-0.2,0.4c-0.1,0.3-0.1,0.6-0.1,0.9v2.2H53.9z"/>
		<path class="st10" d="M55.9,135.8c0-0.7,0.2-1.3,0.5-1.6c0.3-0.4,0.7-0.6,1.2-0.6c0.5,0,0.8,0.2,1.2,0.6c0.3,0.4,0.5,0.9,0.5,1.6
			c0,0.8-0.2,1.3-0.5,1.7c-0.3,0.4-0.7,0.6-1.2,0.6c-0.5,0-0.8-0.2-1.2-0.6C56,137.1,55.9,136.6,55.9,135.8z M56.5,135.8
			c0,0.5,0.1,1,0.3,1.2c0.2,0.3,0.4,0.4,0.7,0.4c0.3,0,0.5-0.1,0.7-0.4c0.2-0.3,0.3-0.7,0.3-1.2c0-0.5-0.1-0.9-0.3-1.2
			c-0.2-0.3-0.4-0.4-0.7-0.4c-0.3,0-0.5,0.1-0.7,0.4C56.6,134.9,56.5,135.3,56.5,135.8z"/>
		<path class="st10" d="M62.1,137.9v-0.5c-0.1,0.2-0.2,0.4-0.4,0.5c-0.2,0.1-0.3,0.2-0.5,0.2c-0.4,0-0.8-0.2-1.1-0.6
			c-0.3-0.4-0.4-0.9-0.4-1.6c0-0.5,0.1-0.9,0.2-1.2c0.1-0.3,0.3-0.6,0.5-0.7c0.2-0.2,0.5-0.2,0.7-0.2c0.2,0,0.4,0.1,0.5,0.2
			c0.2,0.1,0.3,0.2,0.4,0.4v-2.1h0.6v5.8H62.1z M60.2,135.8c0,0.5,0.1,1,0.3,1.2c0.2,0.3,0.4,0.4,0.7,0.4c0.2,0,0.5-0.1,0.6-0.4
			c0.2-0.3,0.3-0.6,0.3-1.2c0-0.6-0.1-1-0.3-1.3c-0.2-0.3-0.4-0.4-0.7-0.4c-0.2,0-0.5,0.1-0.6,0.4C60.3,134.9,60.2,135.3,60.2,135.8
			z"/>
		<path class="st10" d="M65.8,137.9v-0.6c-0.1,0.2-0.3,0.4-0.5,0.5s-0.4,0.2-0.6,0.2c-0.3,0-0.5-0.1-0.7-0.2
			c-0.2-0.1-0.3-0.3-0.4-0.6c-0.1-0.2-0.1-0.5-0.1-0.9v-2.6h0.6v2.3c0,0.4,0,0.7,0.1,0.9s0.1,0.3,0.2,0.4c0.1,0.1,0.3,0.1,0.4,0.1
			c0.3,0,0.5-0.1,0.7-0.3c0.2-0.2,0.2-0.6,0.2-1.1v-2.3h0.6v4.2H65.8z"/>
		<path class="st10" d="M69.5,136.4l0.6,0.1c-0.1,0.5-0.2,0.9-0.5,1.2s-0.6,0.4-1,0.4c-0.5,0-0.8-0.2-1.1-0.6
			c-0.3-0.4-0.4-0.9-0.4-1.6c0-0.7,0.1-1.3,0.4-1.6s0.7-0.5,1.1-0.5c0.4,0,0.7,0.1,0.9,0.3c0.2,0.2,0.4,0.6,0.5,1l-0.6,0.1
			c-0.1-0.3-0.2-0.5-0.3-0.6c-0.1-0.1-0.3-0.2-0.5-0.2c-0.3,0-0.5,0.1-0.7,0.4c-0.2,0.3-0.3,0.7-0.3,1.2c0,0.6,0.1,1,0.3,1.2
			c0.2,0.3,0.4,0.4,0.7,0.4c0.2,0,0.4-0.1,0.6-0.3C69.4,137,69.5,136.8,69.5,136.4z"/>
		<path class="st10" d="M72.8,136.4l0.6,0.1c-0.1,0.5-0.2,0.9-0.5,1.2c-0.3,0.3-0.6,0.4-1,0.4c-0.5,0-0.8-0.2-1.1-0.6
			c-0.3-0.4-0.4-0.9-0.4-1.6c0-0.7,0.1-1.3,0.4-1.6c0.3-0.4,0.7-0.5,1.1-0.5c0.4,0,0.7,0.1,0.9,0.3c0.2,0.2,0.4,0.6,0.5,1l-0.6,0.1
			c-0.1-0.3-0.2-0.5-0.3-0.6c-0.1-0.1-0.3-0.2-0.5-0.2c-0.3,0-0.5,0.1-0.7,0.4c-0.2,0.3-0.3,0.7-0.3,1.2c0,0.6,0.1,1,0.3,1.2
			c0.2,0.3,0.4,0.4,0.7,0.4c0.2,0,0.4-0.1,0.6-0.3C72.7,137,72.8,136.8,72.8,136.4z"/>
		<path class="st10" d="M73.9,132.9v-0.8h0.6v0.8H73.9z M73.9,137.9v-4.2h0.6v4.2H73.9z"/>
		<path class="st10" d="M75.2,135.8c0-0.7,0.2-1.3,0.5-1.6c0.3-0.4,0.7-0.6,1.2-0.6c0.5,0,0.8,0.2,1.2,0.6c0.3,0.4,0.5,0.9,0.5,1.6
			c0,0.8-0.2,1.3-0.5,1.7c-0.3,0.4-0.7,0.6-1.2,0.6c-0.5,0-0.8-0.2-1.2-0.6C75.3,137.1,75.2,136.6,75.2,135.8z M75.8,135.8
			c0,0.5,0.1,1,0.3,1.2c0.2,0.3,0.4,0.4,0.7,0.4c0.3,0,0.5-0.1,0.7-0.4c0.2-0.3,0.3-0.7,0.3-1.2c0-0.5-0.1-0.9-0.3-1.2
			c-0.2-0.3-0.4-0.4-0.7-0.4c-0.3,0-0.5,0.1-0.7,0.4C75.9,134.9,75.8,135.3,75.8,135.8z M76.4,133.2l0.4-1.1h0.8l-0.7,1.1H76.4z"/>
		<path class="st10" d="M79.1,137.9v-4.2h0.5v0.6c0.1-0.2,0.3-0.4,0.5-0.5c0.2-0.1,0.4-0.2,0.6-0.2c0.2,0,0.4,0,0.5,0.1
			c0.2,0.1,0.3,0.2,0.4,0.3c0.1,0.1,0.2,0.3,0.2,0.5c0,0.2,0.1,0.5,0.1,0.9v2.6h-0.6v-2.6c0-0.3,0-0.5-0.1-0.7
			c-0.1-0.1-0.1-0.3-0.2-0.3s-0.2-0.1-0.4-0.1c-0.3,0-0.5,0.1-0.7,0.3c-0.2,0.2-0.3,0.6-0.3,1.1v2.3H79.1z"/>
		<path class="st10" d="M23.9,147.7v-0.5c-0.1,0.2-0.2,0.4-0.4,0.5c-0.2,0.1-0.3,0.2-0.5,0.2c-0.4,0-0.8-0.2-1.1-0.6
			c-0.3-0.4-0.4-0.9-0.4-1.6c0-0.5,0.1-0.9,0.2-1.2c0.1-0.3,0.3-0.6,0.5-0.7c0.2-0.2,0.5-0.2,0.7-0.2c0.2,0,0.4,0.1,0.5,0.2
			c0.2,0.1,0.3,0.2,0.4,0.4v-2.1h0.6v5.8H23.9z M22,145.6c0,0.5,0.1,1,0.3,1.2c0.2,0.3,0.4,0.4,0.7,0.4c0.2,0,0.5-0.1,0.6-0.4
			c0.2-0.3,0.3-0.6,0.3-1.2c0-0.6-0.1-1-0.3-1.3c-0.2-0.3-0.4-0.4-0.7-0.4c-0.2,0-0.5,0.1-0.6,0.4C22.1,144.6,22,145,22,145.6z"/>
		<path class="st10" d="M27.7,146.3l0.6,0.1c-0.1,0.4-0.3,0.8-0.5,1s-0.6,0.3-1,0.3c-0.5,0-0.9-0.2-1.2-0.6
			c-0.3-0.4-0.5-0.9-0.5-1.6c0-0.7,0.2-1.3,0.5-1.7c0.3-0.4,0.7-0.6,1.2-0.6c0.4,0,0.8,0.2,1.1,0.6s0.4,0.9,0.4,1.6l0,0.2h-2.6
			c0,0.5,0.1,0.8,0.3,1.1c0.2,0.2,0.4,0.4,0.7,0.4C27.2,147.2,27.5,146.9,27.7,146.3z M25.8,145.2h1.9c0-0.4-0.1-0.6-0.2-0.8
			c-0.2-0.3-0.4-0.4-0.7-0.4c-0.3,0-0.5,0.1-0.7,0.3S25.8,144.8,25.8,145.2z"/>
		<path class="st10" d="M31,147.7v-5.8h0.9l1.1,4.1l0.2,0.9c0.1-0.2,0.1-0.5,0.3-0.9l1.1-4.1h0.9v5.8h-0.6v-4.9l-1.4,4.9H33l-1.4-5
			v5H31z"/>
		<path class="st10" d="M38.7,147.7v-0.6c-0.1,0.2-0.3,0.4-0.5,0.5c-0.2,0.1-0.4,0.2-0.6,0.2c-0.3,0-0.5-0.1-0.7-0.2
			s-0.3-0.3-0.4-0.6c-0.1-0.2-0.1-0.5-0.1-0.9v-2.6H37v2.3c0,0.4,0,0.7,0.1,0.9c0,0.1,0.1,0.3,0.2,0.4c0.1,0.1,0.3,0.1,0.4,0.1
			c0.3,0,0.5-0.1,0.7-0.3c0.2-0.2,0.2-0.6,0.2-1.1v-2.3h0.6v4.2H38.7z"/>
		<path class="st10" d="M42.5,146.3l0.6,0.1c-0.1,0.4-0.3,0.8-0.5,1s-0.6,0.3-1,0.3c-0.5,0-0.9-0.2-1.2-0.6
			c-0.3-0.4-0.5-0.9-0.5-1.6c0-0.7,0.2-1.3,0.5-1.7c0.3-0.4,0.7-0.6,1.2-0.6c0.4,0,0.8,0.2,1.1,0.6s0.4,0.9,0.4,1.6l0,0.2h-2.6
			c0,0.5,0.1,0.8,0.3,1.1c0.2,0.2,0.4,0.4,0.7,0.4C42.1,147.2,42.4,146.9,42.5,146.3z M40.6,145.2h1.9c0-0.4-0.1-0.6-0.2-0.8
			c-0.2-0.3-0.4-0.4-0.7-0.4c-0.3,0-0.5,0.1-0.7,0.3S40.6,144.8,40.6,145.2z"/>
		<path class="st10" d="M44.4,147.7h-0.5v-5.8h0.6v2.1c0.1-0.2,0.3-0.3,0.4-0.4s0.3-0.1,0.5-0.1c0.3,0,0.5,0.1,0.7,0.2
			s0.4,0.4,0.5,0.7s0.2,0.7,0.2,1.2c0,0.7-0.1,1.3-0.4,1.7c-0.3,0.4-0.6,0.6-1,0.6c-0.2,0-0.4-0.1-0.5-0.2s-0.3-0.3-0.4-0.5V147.7z
			 M44.4,145.6c0,0.4,0,0.8,0.1,1c0.1,0.2,0.2,0.4,0.3,0.5c0.1,0.1,0.3,0.2,0.5,0.2c0.2,0,0.5-0.1,0.6-0.4c0.2-0.3,0.3-0.7,0.3-1.2
			c0-0.6-0.1-1-0.3-1.2c-0.2-0.3-0.4-0.4-0.7-0.4c-0.2,0-0.5,0.1-0.6,0.4C44.5,144.7,44.4,145,44.4,145.6z"/>
		<path class="st10" d="M47.6,147.7v-5.8h0.6v5.8H47.6z"/>
		<path class="st10" d="M51.4,146.3l0.6,0.1c-0.1,0.4-0.3,0.8-0.5,1s-0.6,0.3-1,0.3c-0.5,0-0.9-0.2-1.2-0.6
			c-0.3-0.4-0.5-0.9-0.5-1.6c0-0.7,0.2-1.3,0.5-1.7c0.3-0.4,0.7-0.6,1.2-0.6c0.4,0,0.8,0.2,1.1,0.6c0.3,0.4,0.4,0.9,0.4,1.6l0,0.2
			h-2.6c0,0.5,0.1,0.8,0.3,1.1c0.2,0.2,0.4,0.4,0.7,0.4C51,147.2,51.3,146.9,51.4,146.3z M49.5,145.2h1.9c0-0.4-0.1-0.6-0.2-0.8
			c-0.2-0.3-0.4-0.4-0.7-0.4c-0.3,0-0.5,0.1-0.7,0.3S49.5,144.8,49.5,145.2z"/>
		<path class="st10" d="M52.6,146.4l0.6-0.1c0,0.3,0.1,0.5,0.3,0.7c0.2,0.1,0.4,0.2,0.6,0.2c0.3,0,0.4-0.1,0.6-0.2
			c0.1-0.1,0.2-0.3,0.2-0.5c0-0.2-0.1-0.3-0.2-0.4c-0.1-0.1-0.3-0.1-0.6-0.2c-0.5-0.1-0.8-0.3-0.9-0.4c-0.2-0.1-0.3-0.2-0.4-0.4
			c-0.1-0.2-0.1-0.4-0.1-0.6c0-0.4,0.1-0.7,0.3-0.9s0.5-0.3,1-0.3c0.3,0,0.5,0,0.7,0.1c0.2,0.1,0.3,0.2,0.4,0.4
			c0.1,0.2,0.2,0.4,0.2,0.7l-0.6,0.1c-0.1-0.5-0.3-0.7-0.8-0.7c-0.3,0-0.4,0.1-0.6,0.2c-0.1,0.1-0.2,0.2-0.2,0.4
			c0,0.2,0.1,0.3,0.2,0.4c0.1,0.1,0.3,0.1,0.6,0.3c0.5,0.2,0.8,0.3,0.9,0.4c0.1,0.1,0.3,0.2,0.3,0.4c0.1,0.2,0.1,0.3,0.1,0.6
			c0,0.4-0.1,0.7-0.4,1s-0.6,0.4-1,0.4C53.2,147.8,52.7,147.3,52.6,146.4z"/>
		<path class="st10" d="M60.3,146.3l0.6,0.1c-0.1,0.4-0.3,0.8-0.5,1c-0.3,0.2-0.6,0.3-1,0.3c-0.5,0-0.9-0.2-1.2-0.6
			c-0.3-0.4-0.5-0.9-0.5-1.6c0-0.7,0.2-1.3,0.5-1.7c0.3-0.4,0.7-0.6,1.2-0.6c0.4,0,0.8,0.2,1.1,0.6s0.4,0.9,0.4,1.6l0,0.2h-2.6
			c0,0.5,0.1,0.8,0.3,1.1c0.2,0.2,0.4,0.4,0.7,0.4C59.9,147.2,60.2,146.9,60.3,146.3z M58.4,145.2h1.9c0-0.4-0.1-0.6-0.2-0.8
			c-0.2-0.3-0.4-0.4-0.7-0.4c-0.3,0-0.5,0.1-0.7,0.3S58.4,144.8,58.4,145.2z"/>
		<path class="st10" d="M61.7,147.7v-4.2h0.5v0.6c0.1-0.2,0.3-0.4,0.5-0.5s0.4-0.2,0.6-0.2c0.2,0,0.4,0,0.5,0.1
			c0.2,0.1,0.3,0.2,0.4,0.3c0.1,0.1,0.2,0.3,0.2,0.5c0,0.2,0.1,0.5,0.1,0.9v2.6h-0.6v-2.6c0-0.3,0-0.5-0.1-0.7
			c-0.1-0.1-0.1-0.3-0.2-0.3c-0.1-0.1-0.2-0.1-0.4-0.1c-0.3,0-0.5,0.1-0.7,0.3c-0.2,0.2-0.3,0.6-0.3,1.1v2.3H61.7z"/>
		<path class="st10" d="M21.7,157.5v-5.8h0.9l1.1,4.1l0.2,0.9c0.1-0.2,0.1-0.5,0.3-0.9l1.1-4.1h0.9v5.8h-0.6v-4.9l-1.4,4.9h-0.6
			l-1.4-5v5H21.7z"/>
		<path class="st10" d="M29.4,156.9c-0.2,0.2-0.4,0.4-0.6,0.5s-0.4,0.2-0.7,0.2c-0.4,0-0.6-0.1-0.9-0.3c-0.2-0.2-0.3-0.5-0.3-0.9
			c0-0.2,0.1-0.5,0.2-0.6c0.1-0.2,0.2-0.3,0.4-0.4c0.2-0.1,0.4-0.2,0.8-0.2c0.5-0.1,0.8-0.2,1-0.3l0-0.2c0-0.3-0.1-0.5-0.2-0.6
			c-0.1-0.2-0.4-0.3-0.7-0.3c-0.3,0-0.5,0.1-0.6,0.2c-0.1,0.1-0.2,0.3-0.3,0.6l-0.6-0.1c0.1-0.5,0.2-0.8,0.5-1s0.6-0.3,1.1-0.3
			c0.4,0,0.6,0.1,0.9,0.2c0.2,0.1,0.3,0.3,0.4,0.5c0.1,0.2,0.1,0.5,0.1,0.9v1c0,0.7,0,1.1,0,1.3c0,0.2,0.1,0.3,0.1,0.5h-0.6
			C29.5,157.3,29.5,157.1,29.4,156.9z M29.4,155.3c-0.2,0.1-0.5,0.2-1,0.3c-0.2,0-0.4,0.1-0.5,0.1c-0.1,0.1-0.2,0.1-0.2,0.2
			s-0.1,0.2-0.1,0.3c0,0.2,0.1,0.4,0.2,0.5c0.1,0.1,0.3,0.2,0.5,0.2c0.2,0,0.4-0.1,0.6-0.2c0.2-0.1,0.3-0.3,0.4-0.4
			c0.1-0.2,0.1-0.4,0.1-0.8V155.3z"/>
		<path class="st10" d="M33.1,157.5v-0.5c-0.1,0.2-0.2,0.4-0.4,0.5c-0.2,0.1-0.3,0.2-0.5,0.2c-0.4,0-0.8-0.2-1.1-0.6
			c-0.3-0.4-0.4-0.9-0.4-1.6c0-0.5,0.1-0.9,0.2-1.2c0.1-0.3,0.3-0.6,0.5-0.7c0.2-0.2,0.5-0.2,0.7-0.2c0.2,0,0.4,0.1,0.5,0.2
			c0.2,0.1,0.3,0.2,0.4,0.4v-2.1h0.6v5.8H33.1z M31.3,155.4c0,0.5,0.1,1,0.3,1.2c0.2,0.3,0.4,0.4,0.7,0.4c0.2,0,0.5-0.1,0.6-0.4
			c0.2-0.3,0.3-0.6,0.3-1.2c0-0.6-0.1-1-0.3-1.3c-0.2-0.3-0.4-0.4-0.7-0.4c-0.2,0-0.5,0.1-0.6,0.4C31.4,154.4,31.3,154.8,31.3,155.4
			z"/>
		<path class="st10" d="M37,156.1l0.6,0.1c-0.1,0.4-0.3,0.8-0.5,1c-0.3,0.2-0.6,0.3-1,0.3c-0.5,0-0.9-0.2-1.2-0.6
			c-0.3-0.4-0.5-0.9-0.5-1.6c0-0.7,0.2-1.3,0.5-1.7c0.3-0.4,0.7-0.6,1.2-0.6c0.4,0,0.8,0.2,1.1,0.6c0.3,0.4,0.4,0.9,0.4,1.6l0,0.2
			H35c0,0.5,0.1,0.8,0.3,1.1c0.2,0.2,0.4,0.4,0.7,0.4C36.5,157,36.8,156.7,37,156.1z M35.1,154.9H37c0-0.4-0.1-0.6-0.2-0.8
			c-0.2-0.3-0.4-0.4-0.7-0.4c-0.3,0-0.5,0.1-0.7,0.3C35.2,154.3,35.1,154.6,35.1,154.9z"/>
		<path class="st10" d="M38.3,157.5v-4.2h0.5v0.6c0.1-0.3,0.3-0.5,0.4-0.6c0.1-0.1,0.2-0.1,0.4-0.1c0.2,0,0.4,0.1,0.6,0.2L40,154
			c-0.1-0.1-0.3-0.2-0.4-0.2c-0.1,0-0.2,0-0.3,0.1s-0.2,0.2-0.2,0.4c-0.1,0.3-0.1,0.6-0.1,0.9v2.2H38.3z"/>
		<path class="st10" d="M42.8,156.9c-0.2,0.2-0.4,0.4-0.6,0.5c-0.2,0.1-0.4,0.2-0.7,0.2c-0.4,0-0.6-0.1-0.9-0.3
			c-0.2-0.2-0.3-0.5-0.3-0.9c0-0.2,0.1-0.5,0.2-0.6c0.1-0.2,0.2-0.3,0.4-0.4c0.2-0.1,0.4-0.2,0.8-0.2c0.5-0.1,0.8-0.2,1-0.3l0-0.2
			c0-0.3-0.1-0.5-0.2-0.6c-0.1-0.2-0.4-0.3-0.7-0.3c-0.3,0-0.5,0.1-0.6,0.2s-0.2,0.3-0.3,0.6l-0.6-0.1c0.1-0.5,0.2-0.8,0.5-1
			s0.6-0.3,1.1-0.3c0.4,0,0.6,0.1,0.9,0.2c0.2,0.1,0.3,0.3,0.4,0.5c0.1,0.2,0.1,0.5,0.1,0.9v1c0,0.7,0,1.1,0,1.3
			c0,0.2,0.1,0.3,0.1,0.5h-0.6C42.9,157.3,42.8,157.1,42.8,156.9z M42.7,155.3c-0.2,0.1-0.5,0.2-1,0.3c-0.2,0-0.4,0.1-0.5,0.1
			s-0.2,0.1-0.2,0.2c-0.1,0.1-0.1,0.2-0.1,0.3c0,0.2,0.1,0.4,0.2,0.5c0.1,0.1,0.3,0.2,0.5,0.2c0.2,0,0.4-0.1,0.6-0.2
			c0.2-0.1,0.3-0.3,0.4-0.4c0.1-0.2,0.1-0.4,0.1-0.8V155.3z"/>
		<path class="st10" d="M46.1,157.5v-5.8h0.6v5.1h2.4v0.7H46.1z"/>
		<path class="st10" d="M49.9,152.7l0.4-1.1h0.8l-0.7,1.1H49.9z M50,157.5v-4.2h0.6v4.2H50z"/>
		<path class="st10" d="M51.7,157.5v-4.2h0.5v0.6c0.1-0.2,0.3-0.4,0.5-0.5c0.2-0.1,0.4-0.2,0.6-0.2c0.2,0,0.4,0,0.5,0.1
			c0.2,0.1,0.3,0.2,0.4,0.3c0.1,0.1,0.2,0.3,0.2,0.5c0,0.2,0.1,0.5,0.1,0.9v2.6h-0.6v-2.6c0-0.3,0-0.5-0.1-0.7
			c-0.1-0.1-0.1-0.3-0.2-0.3c-0.1-0.1-0.2-0.1-0.4-0.1c-0.3,0-0.5,0.1-0.7,0.3c-0.2,0.2-0.3,0.6-0.3,1.1v2.3H51.7z"/>
		<path class="st10" d="M57.7,156.1l0.6,0.1c-0.1,0.4-0.3,0.8-0.5,1c-0.3,0.2-0.6,0.3-1,0.3c-0.5,0-0.9-0.2-1.2-0.6
			c-0.3-0.4-0.5-0.9-0.5-1.6c0-0.7,0.2-1.3,0.5-1.7c0.3-0.4,0.7-0.6,1.2-0.6c0.4,0,0.8,0.2,1.1,0.6c0.3,0.4,0.4,0.9,0.4,1.6l0,0.2
			h-2.6c0,0.5,0.1,0.8,0.3,1.1c0.2,0.2,0.4,0.4,0.7,0.4C57.3,157,57.6,156.7,57.7,156.1z M55.8,154.9h1.9c0-0.4-0.1-0.6-0.2-0.8
			c-0.2-0.3-0.4-0.4-0.7-0.4c-0.3,0-0.5,0.1-0.7,0.3C55.9,154.3,55.8,154.6,55.8,154.9z"/>
		<path class="st10" d="M61.3,156.9c-0.2,0.2-0.4,0.4-0.6,0.5c-0.2,0.1-0.4,0.2-0.7,0.2c-0.4,0-0.6-0.1-0.9-0.3
			c-0.2-0.2-0.3-0.5-0.3-0.9c0-0.2,0.1-0.5,0.2-0.6c0.1-0.2,0.2-0.3,0.4-0.4c0.2-0.1,0.4-0.2,0.8-0.2c0.5-0.1,0.8-0.2,1-0.3l0-0.2
			c0-0.3-0.1-0.5-0.2-0.6c-0.1-0.2-0.4-0.3-0.7-0.3c-0.3,0-0.5,0.1-0.6,0.2c-0.1,0.1-0.2,0.3-0.3,0.6l-0.6-0.1
			c0.1-0.5,0.2-0.8,0.5-1s0.6-0.3,1.1-0.3c0.4,0,0.6,0.1,0.9,0.2c0.2,0.1,0.3,0.3,0.4,0.5c0.1,0.2,0.1,0.5,0.1,0.9v1
			c0,0.7,0,1.1,0,1.3c0,0.2,0.1,0.3,0.1,0.5h-0.6C61.4,157.3,61.4,157.1,61.3,156.9z M61.3,155.3c-0.2,0.1-0.5,0.2-1,0.3
			c-0.2,0-0.4,0.1-0.5,0.1s-0.2,0.1-0.2,0.2c-0.1,0.1-0.1,0.2-0.1,0.3c0,0.2,0.1,0.4,0.2,0.5c0.1,0.1,0.3,0.2,0.5,0.2
			c0.2,0,0.4-0.1,0.6-0.2c0.2-0.1,0.3-0.3,0.4-0.4c0.1-0.2,0.1-0.4,0.1-0.8V155.3z"/>
		<path class="st10" d="M64.7,157.5v-5.8h0.6v2.4h2.5v-2.4h0.6v5.8h-0.6v-2.7h-2.5v2.7H64.7z"/>
		<path class="st10" d="M69.2,155.4c0-0.7,0.2-1.3,0.5-1.6c0.3-0.4,0.7-0.6,1.2-0.6c0.5,0,0.8,0.2,1.2,0.6c0.3,0.4,0.5,0.9,0.5,1.6
			c0,0.8-0.2,1.3-0.5,1.7c-0.3,0.4-0.7,0.6-1.2,0.6c-0.5,0-0.8-0.2-1.2-0.6C69.4,156.6,69.2,156.1,69.2,155.4z M69.8,155.4
			c0,0.5,0.1,1,0.3,1.2c0.2,0.3,0.4,0.4,0.7,0.4c0.3,0,0.5-0.1,0.7-0.4c0.2-0.3,0.3-0.7,0.3-1.2c0-0.5-0.1-0.9-0.3-1.2
			c-0.2-0.3-0.4-0.4-0.7-0.4c-0.3,0-0.5,0.1-0.7,0.4C69.9,154.4,69.8,154.8,69.8,155.4z"/>
		<path class="st10" d="M73.1,157.8l0.6,0.1c0,0.2,0.1,0.4,0.2,0.5c0.1,0.1,0.3,0.2,0.6,0.2c0.3,0,0.5-0.1,0.6-0.2
			c0.2-0.1,0.3-0.3,0.3-0.5c0-0.1,0.1-0.5,0.1-0.9c-0.1,0.2-0.3,0.3-0.4,0.4c-0.2,0.1-0.3,0.1-0.5,0.1c-0.4,0-0.8-0.2-1-0.5
			c-0.3-0.4-0.5-0.9-0.5-1.6c0-0.5,0.1-0.8,0.2-1.2c0.1-0.3,0.3-0.6,0.5-0.7c0.2-0.2,0.5-0.2,0.8-0.2c0.2,0,0.4,0,0.6,0.1
			c0.2,0.1,0.3,0.3,0.4,0.4v-0.5H76v3.6c0,0.6-0.1,1.1-0.2,1.4s-0.3,0.5-0.5,0.7c-0.2,0.2-0.5,0.2-0.9,0.2c-0.4,0-0.8-0.1-1-0.4
			C73.2,158.6,73,158.2,73.1,157.8z M73.5,155.3c0,0.6,0.1,1,0.3,1.2c0.2,0.3,0.4,0.4,0.7,0.4c0.3,0,0.5-0.1,0.7-0.4
			c0.2-0.2,0.3-0.6,0.3-1.2c0-0.5-0.1-0.9-0.3-1.2c-0.2-0.3-0.4-0.4-0.7-0.4c-0.2,0-0.5,0.1-0.6,0.4
			C73.6,154.4,73.5,154.8,73.5,155.3z"/>
		<path class="st10" d="M79.1,156.9c-0.2,0.2-0.4,0.4-0.6,0.5s-0.4,0.2-0.7,0.2c-0.4,0-0.6-0.1-0.9-0.3c-0.2-0.2-0.3-0.5-0.3-0.9
			c0-0.2,0.1-0.5,0.2-0.6c0.1-0.2,0.2-0.3,0.4-0.4c0.2-0.1,0.4-0.2,0.8-0.2c0.5-0.1,0.8-0.2,1-0.3l0-0.2c0-0.3-0.1-0.5-0.2-0.6
			c-0.1-0.2-0.4-0.3-0.7-0.3c-0.3,0-0.5,0.1-0.6,0.2c-0.1,0.1-0.2,0.3-0.3,0.6l-0.6-0.1c0.1-0.5,0.2-0.8,0.5-1
			c0.3-0.2,0.6-0.3,1.1-0.3c0.4,0,0.6,0.1,0.9,0.2c0.2,0.1,0.3,0.3,0.4,0.5c0.1,0.2,0.1,0.5,0.1,0.9v1c0,0.7,0,1.1,0,1.3
			c0,0.2,0.1,0.3,0.1,0.5h-0.6C79.2,157.3,79.2,157.1,79.1,156.9z M79.1,155.3c-0.2,0.1-0.5,0.2-1,0.3c-0.2,0-0.4,0.1-0.5,0.1
			c-0.1,0.1-0.2,0.1-0.2,0.2c-0.1,0.1-0.1,0.2-0.1,0.3c0,0.2,0.1,0.4,0.2,0.5c0.1,0.1,0.3,0.2,0.5,0.2c0.2,0,0.4-0.1,0.6-0.2
			c0.2-0.1,0.3-0.3,0.4-0.4c0.1-0.2,0.1-0.4,0.1-0.8V155.3z"/>
		<path class="st10" d="M80.6,157.5v-4.2h0.5v0.6c0.1-0.3,0.3-0.5,0.4-0.6c0.1-0.1,0.2-0.1,0.4-0.1c0.2,0,0.4,0.1,0.6,0.2l-0.2,0.7
			c-0.1-0.1-0.3-0.2-0.4-0.2c-0.1,0-0.2,0-0.3,0.1c-0.1,0.1-0.2,0.2-0.2,0.4c-0.1,0.3-0.1,0.6-0.1,0.9v2.2H80.6z"/>
	</g>
</g>
</svg>
