<?xml version="1.0" encoding="utf-8"?>
<!-- Generator: Adobe Illustrator 27.0.0, SVG Export Plug-In . SVG Version: 6.00 Build 0)  -->
<svg version="1.1" id="Capa_1" xmlns="http://www.w3.org/2000/svg" xmlns:xlink="http://www.w3.org/1999/xlink" x="0px" y="0px"
	 viewBox="0 0 31 15" style="enable-background:new 0 0 31 15;" xml:space="preserve">
<style type="text/css">
	.st0{clip-path:url(#SVGID_00000098938336748536956730000014157601405293645729_);fill:#D7372D;}
	.st1{clip-path:url(#SVGID_00000098938336748536956730000014157601405293645729_);fill:#302D7C;}
</style>
<g>
	<defs>
		<rect id="SVGID_1_" x="0" width="30.9" height="15"/>
	</defs>
	<clipPath id="SVGID_00000091697866679530996390000015250084160987193266_">
		<use xlink:href="#SVGID_1_"  style="overflow:visible;"/>
	</clipPath>
	<path style="clip-path:url(#SVGID_00000091697866679530996390000015250084160987193266_);fill:#D7372D;" d="M0.1,13V9.5h1.3
		c0.4,0,0.8,0.1,1,0.4c0.3,0.3,0.4,0.6,0.4,1v0.6c0,0.4-0.1,0.8-0.4,1c-0.3,0.3-0.6,0.4-1,0.4H0.1z M0.9,10.1v2.3h0.4
		c0.2,0,0.4-0.1,0.5-0.2S2,11.8,2,11.6V11c0-0.2-0.1-0.4-0.2-0.6c-0.1-0.1-0.3-0.2-0.5-0.2H0.9z"/>
	<polygon style="clip-path:url(#SVGID_00000091697866679530996390000015250084160987193266_);fill:#D7372D;" points="5.5,11.5 
		4.1,11.5 4.1,12.4 5.8,12.4 5.8,13 3.3,13 3.3,9.5 5.8,9.5 5.8,10.1 4.1,10.1 4.1,10.9 5.5,10.9 	"/>
	<path style="clip-path:url(#SVGID_00000091697866679530996390000015250084160987193266_);fill:#D7372D;" d="M8,12.1
		c0-0.1,0-0.2-0.1-0.3c-0.1-0.1-0.2-0.1-0.4-0.2c-0.4-0.1-0.8-0.3-1-0.5c-0.2-0.2-0.3-0.4-0.3-0.7c0-0.3,0.1-0.5,0.4-0.7
		c0.3-0.2,0.6-0.3,1-0.3c0.4,0,0.7,0.1,1,0.3c0.3,0.2,0.4,0.5,0.4,0.8l0,0H8c0-0.1,0-0.3-0.1-0.3c-0.1-0.1-0.2-0.1-0.4-0.1
		c-0.2,0-0.3,0-0.4,0.1c-0.1,0.1-0.1,0.2-0.1,0.3c0,0.1,0,0.2,0.1,0.2c0.1,0.1,0.3,0.1,0.5,0.2c0.4,0.1,0.7,0.3,0.9,0.4
		c0.2,0.2,0.3,0.4,0.3,0.7c0,0.3-0.1,0.6-0.4,0.7c-0.2,0.2-0.6,0.3-1,0.3c-0.4,0-0.7-0.1-1-0.3C6.2,12.6,6,12.3,6,11.9l0,0h0.8
		c0,0.2,0.1,0.3,0.2,0.4c0.1,0.1,0.3,0.1,0.5,0.1c0.2,0,0.3,0,0.4-0.1C8,12.3,8,12.2,8,12.1"/>
	<polygon style="clip-path:url(#SVGID_00000091697866679530996390000015250084160987193266_);fill:#D7372D;" points="18.1,11.5 
		16.7,11.5 16.7,12.4 18.4,12.4 18.4,13 15.9,13 15.9,9.5 18.4,9.5 18.4,10.1 16.7,10.1 16.7,10.9 18.1,10.9 	"/>
	<polygon style="clip-path:url(#SVGID_00000091697866679530996390000015250084160987193266_);fill:#D7372D;" points="21.7,13 
		20.9,13 19.6,10.8 19.6,10.8 19.6,13 18.7,13 18.7,9.5 19.6,9.5 20.9,11.8 20.9,11.8 20.9,9.5 21.7,9.5 	"/>
	<polygon style="clip-path:url(#SVGID_00000091697866679530996390000015250084160987193266_);fill:#D7372D;" points="24.6,10.1 
		23.7,10.1 23.7,13 22.9,13 22.9,10.1 22,10.1 22,9.5 24.6,9.5 	"/>
	<path style="clip-path:url(#SVGID_00000091697866679530996390000015250084160987193266_);fill:#D7372D;" d="M27.8,11.6
		c0,0.4-0.1,0.8-0.4,1.1c-0.3,0.3-0.6,0.4-1.1,0.4c-0.4,0-0.8-0.1-1.1-0.4c-0.3-0.3-0.4-0.6-0.4-1.1V11c0-0.4,0.1-0.8,0.4-1.1
		c0.3-0.3,0.6-0.4,1.1-0.4c0.4,0,0.8,0.1,1.1,0.4c0.3,0.3,0.4,0.6,0.4,1.1V11.6z M27,11c0-0.3-0.1-0.5-0.2-0.6
		c-0.1-0.2-0.3-0.2-0.5-0.2c-0.2,0-0.4,0.1-0.5,0.2c-0.1,0.2-0.2,0.4-0.2,0.6v0.6c0,0.3,0.1,0.5,0.2,0.6c0.1,0.2,0.3,0.2,0.5,0.2
		c0.2,0,0.4-0.1,0.5-0.2c0.1-0.2,0.2-0.4,0.2-0.6V11z"/>
	<path style="clip-path:url(#SVGID_00000091697866679530996390000015250084160987193266_);fill:#D7372D;" d="M30.1,12.1
		c0-0.1,0-0.2-0.1-0.3c-0.1-0.1-0.2-0.1-0.4-0.2c-0.4-0.1-0.8-0.3-1-0.5c-0.2-0.2-0.3-0.4-0.3-0.7c0-0.3,0.1-0.5,0.4-0.7
		c0.3-0.2,0.6-0.3,1-0.3c0.4,0,0.7,0.1,1,0.3c0.3,0.2,0.4,0.5,0.4,0.8l0,0h-0.8c0-0.1,0-0.3-0.1-0.3c-0.1-0.1-0.2-0.1-0.4-0.1
		c-0.2,0-0.3,0-0.4,0.1c0,0-0.1,0.2-0.1,0.3c0,0.1,0,0.2,0.1,0.2c0.1,0.1,0.3,0.1,0.5,0.2c0.4,0.1,0.7,0.3,0.9,0.4
		c0.2,0.2,0.3,0.4,0.3,0.7c0,0.3-0.1,0.6-0.4,0.7c-0.2,0.2-0.6,0.3-1,0.3c-0.4,0-0.7-0.1-1-0.3c-0.3-0.2-0.4-0.5-0.4-0.9l0,0H29
		c0,0.2,0.1,0.3,0.2,0.4c0.1,0.1,0.3,0.1,0.5,0.1c0.2,0,0.3,0,0.4-0.1C30.1,12.3,30.1,12.2,30.1,12.1"/>
	<path style="clip-path:url(#SVGID_00000091697866679530996390000015250084160987193266_);fill:#302D7C;" d="M10,14.4l0.2,0.1
		c0,0.2-0.1,0.3-0.2,0.4S9.8,15,9.6,15c-0.2,0-0.3,0-0.4-0.1C9.1,14.8,9,14.7,9,14.6c-0.1-0.1-0.1-0.3-0.1-0.4c0-0.2,0-0.3,0.1-0.4
		c0.1-0.1,0.1-0.2,0.3-0.3c0.1-0.1,0.2-0.1,0.4-0.1c0.2,0,0.3,0,0.4,0.1c0.1,0.1,0.2,0.2,0.2,0.3l-0.2,0c0-0.1-0.1-0.2-0.2-0.2
		c-0.1-0.1-0.2-0.1-0.3-0.1c-0.1,0-0.2,0-0.3,0.1c-0.1,0.1-0.1,0.1-0.2,0.2c0,0.1,0,0.2,0,0.3c0,0.1,0,0.2,0.1,0.3
		c0,0.1,0.1,0.2,0.2,0.2c0.1,0,0.2,0.1,0.3,0.1c0.1,0,0.2,0,0.3-0.1C10,14.7,10,14.6,10,14.4"/>
	<path style="clip-path:url(#SVGID_00000091697866679530996390000015250084160987193266_);fill:#302D7C;" d="M30.7,14.6l0.1,0
		c0,0.1-0.1,0.2-0.2,0.3C30.6,15,30.5,15,30.4,15c-0.1,0-0.2,0-0.3-0.1c-0.1,0-0.1-0.1-0.2-0.2c0-0.1-0.1-0.2-0.1-0.3
		c0-0.1,0-0.2,0.1-0.3c0-0.1,0.1-0.2,0.2-0.2c0.1,0,0.2-0.1,0.3-0.1c0.1,0,0.2,0,0.3,0.1c0.1,0.1,0.1,0.1,0.2,0.2l-0.1,0
		c0-0.1-0.1-0.1-0.1-0.2c0,0-0.1-0.1-0.2-0.1c-0.1,0-0.2,0-0.2,0.1c-0.1,0-0.1,0.1-0.1,0.2c0,0.1,0,0.1,0,0.2c0,0.1,0,0.2,0,0.2
		c0,0.1,0.1,0.1,0.1,0.2c0.1,0,0.1,0.1,0.2,0.1c0.1,0,0.2,0,0.2-0.1C30.7,14.8,30.7,14.7,30.7,14.6"/>
	<path style="clip-path:url(#SVGID_00000091697866679530996390000015250084160987193266_);fill:#302D7C;" d="M10.4,14.4
		c0-0.2,0.1-0.4,0.2-0.5c0.1-0.1,0.2-0.1,0.3-0.1c0.2,0,0.3,0.1,0.4,0.2s0.1,0.2,0.1,0.4c0,0.1,0,0.3-0.1,0.3c0,0.1-0.1,0.1-0.2,0.2
		C11.1,15,11,15,10.9,15c-0.2,0-0.3-0.1-0.4-0.1C10.5,14.7,10.4,14.6,10.4,14.4 M10.6,14.4c0,0.1,0,0.2,0.1,0.3
		c0.1,0.1,0.1,0.1,0.2,0.1c0.1,0,0.2,0,0.2-0.1c0.1-0.1,0.1-0.2,0.1-0.3c0-0.1,0-0.2-0.1-0.3C11.1,14,11,14,10.9,14
		c-0.1,0-0.2,0-0.2,0.1C10.6,14.2,10.6,14.3,10.6,14.4"/>
	
		<rect x="11.7" y="13.4" style="clip-path:url(#SVGID_00000091697866679530996390000015250084160987193266_);fill:#302D7C;" width="0.2" height="1.5"/>
	<path style="clip-path:url(#SVGID_00000091697866679530996390000015250084160987193266_);fill:#302D7C;" d="M12.1,14.4
		c0-0.2,0.1-0.4,0.2-0.5c0.1-0.1,0.2-0.1,0.3-0.1c0.2,0,0.3,0.1,0.4,0.2s0.1,0.2,0.1,0.4c0,0.1,0,0.3-0.1,0.3c0,0.1-0.1,0.1-0.2,0.2
		c-0.1,0-0.2,0.1-0.3,0.1c-0.2,0-0.3-0.1-0.4-0.1C12.1,14.7,12.1,14.6,12.1,14.4 M12.3,14.4c0,0.1,0,0.2,0.1,0.3
		c0.1,0.1,0.1,0.1,0.2,0.1c0.1,0,0.2,0,0.2-0.1c0.1-0.1,0.1-0.2,0.1-0.3c0-0.1,0-0.2-0.1-0.3C12.8,14,12.7,14,12.6,14
		c-0.1,0-0.2,0-0.2,0.1C12.3,14.2,12.3,14.3,12.3,14.4"/>
	<path style="clip-path:url(#SVGID_00000091697866679530996390000015250084160987193266_);fill:#302D7C;" d="M13.3,15v-1.1h0.2V14
		c0-0.1,0.1-0.1,0.1-0.1c0.1,0,0.1,0,0.2,0c0.1,0,0.1,0,0.2,0.1c0.1,0,0.1,0.1,0.1,0.1c0.1-0.1,0.2-0.2,0.3-0.2c0.1,0,0.2,0,0.3,0.1
		c0.1,0.1,0.1,0.2,0.1,0.3V15h-0.2v-0.7c0-0.1,0-0.1,0-0.2c0,0,0-0.1-0.1-0.1c0,0-0.1,0-0.1,0c-0.1,0-0.1,0-0.2,0.1
		c-0.1,0.1-0.1,0.1-0.1,0.2V15H14v-0.7c0-0.1,0-0.1,0-0.2c0,0-0.1-0.1-0.2-0.1c-0.1,0-0.1,0-0.1,0c0,0-0.1,0.1-0.1,0.1
		c0,0.1,0,0.1,0,0.2V15H13.3z"/>
	<path style="clip-path:url(#SVGID_00000091697866679530996390000015250084160987193266_);fill:#302D7C;" d="M15.3,15h-0.2v-1.5h0.2
		V14c0.1-0.1,0.2-0.1,0.3-0.1c0.1,0,0.1,0,0.2,0c0.1,0,0.1,0.1,0.2,0.1c0,0,0.1,0.1,0.1,0.2c0,0.1,0,0.1,0,0.2c0,0.2,0,0.3-0.1,0.4
		c-0.1,0.1-0.2,0.2-0.3,0.2c-0.1,0-0.2-0.1-0.3-0.2V15z M15.3,14.4c0,0.1,0,0.2,0.1,0.3c0.1,0.1,0.1,0.1,0.2,0.1
		c0.1,0,0.2,0,0.2-0.1c0.1-0.1,0.1-0.2,0.1-0.3c0-0.1,0-0.3-0.1-0.3C15.7,14,15.7,14,15.6,14c-0.1,0-0.2,0-0.2,0.1
		C15.3,14.2,15.3,14.3,15.3,14.4"/>
	<path style="clip-path:url(#SVGID_00000091697866679530996390000015250084160987193266_);fill:#302D7C;" d="M16.3,13.4h0.2v0.2
		h-0.2V13.4z M16.3,13.9h0.2V15h-0.2V13.9z"/>
	<path style="clip-path:url(#SVGID_00000091697866679530996390000015250084160987193266_);fill:#302D7C;" d="M17.5,14.8
		c-0.1,0.1-0.1,0.1-0.2,0.1c-0.1,0-0.1,0-0.2,0c-0.1,0-0.2,0-0.3-0.1c-0.1-0.1-0.1-0.1-0.1-0.2c0-0.1,0-0.1,0-0.1
		c0,0,0.1-0.1,0.1-0.1c0,0,0.1,0,0.1-0.1c0,0,0.1,0,0.2,0c0.2,0,0.3,0,0.3-0.1c0,0,0,0,0,0c0-0.1,0-0.1-0.1-0.2c0,0-0.1-0.1-0.2-0.1
		c-0.1,0-0.2,0-0.2,0c0,0-0.1,0.1-0.1,0.2l-0.2,0c0-0.1,0-0.1,0.1-0.2c0,0,0.1-0.1,0.2-0.1c0.1,0,0.2,0,0.3,0c0.1,0,0.2,0,0.2,0
		c0.1,0,0.1,0.1,0.1,0.1c0,0,0,0.1,0.1,0.1c0,0,0,0.1,0,0.2v0.3c0,0.2,0,0.3,0,0.3c0,0,0,0.1,0,0.1h-0.2
		C17.5,14.9,17.5,14.9,17.5,14.8 M17.5,14.4c-0.1,0-0.2,0.1-0.3,0.1c-0.1,0-0.1,0-0.2,0c0,0-0.1,0-0.1,0.1c0,0,0,0.1,0,0.1
		c0,0.1,0,0.1,0.1,0.1c0,0,0.1,0.1,0.2,0.1c0.1,0,0.1,0,0.2,0c0.1,0,0.1-0.1,0.1-0.1C17.5,14.6,17.5,14.6,17.5,14.4L17.5,14.4z"/>
	<path style="clip-path:url(#SVGID_00000091697866679530996390000015250084160987193266_);fill:#302D7C;" d="M18.5,14.5l0.2,0
		c0,0.1,0,0.1,0.1,0.2c0,0,0.1,0.1,0.2,0.1c0.1,0,0.1,0,0.2,0c0.1,0,0.1,0,0.2,0c0.1,0,0.1-0.1,0.1-0.1c0,0,0-0.1,0-0.1
		c0,0,0-0.1,0-0.1c0,0-0.1-0.1-0.1-0.1c0,0-0.1,0-0.3-0.1c-0.1,0-0.2-0.1-0.3-0.1c-0.1,0-0.1-0.1-0.2-0.1c0-0.1-0.1-0.1-0.1-0.2
		c0-0.1,0-0.1,0.1-0.2c0-0.1,0.1-0.1,0.2-0.2c0.1,0,0.2-0.1,0.3-0.1c0.1,0,0.2,0,0.3,0.1c0.1,0,0.2,0.1,0.2,0.2
		c0,0.1,0.1,0.2,0.1,0.2l-0.2,0c0-0.1,0-0.2-0.1-0.2c-0.1,0-0.1-0.1-0.3-0.1c-0.1,0-0.2,0-0.3,0.1c-0.1,0-0.1,0.1-0.1,0.2
		c0,0.1,0,0.1,0.1,0.1c0,0,0.1,0.1,0.3,0.1c0.2,0,0.3,0.1,0.3,0.1c0.1,0,0.2,0.1,0.2,0.2c0,0.1,0.1,0.1,0.1,0.2c0,0.1,0,0.2-0.1,0.2
		c0,0.1-0.1,0.1-0.2,0.2c-0.1,0-0.2,0.1-0.3,0.1c-0.1,0-0.3,0-0.3-0.1c-0.1,0-0.2-0.1-0.2-0.2C18.5,14.7,18.5,14.6,18.5,14.5"/>
	
		<rect x="20" y="14.8" style="clip-path:url(#SVGID_00000091697866679530996390000015250084160987193266_);fill:#302D7C;" width="0.2" height="0.2"/>
	<path style="clip-path:url(#SVGID_00000091697866679530996390000015250084160987193266_);fill:#302D7C;" d="M20.4,15l0.6-1.5h0.2
		l0.6,1.5h-0.2l-0.2-0.5h-0.6L20.7,15H20.4z M20.9,14.3h0.5l-0.2-0.4c0-0.1-0.1-0.2-0.1-0.3c0,0.1,0,0.2-0.1,0.3L20.9,14.3z"/>
	
		<rect x="22.1" y="14.8" style="clip-path:url(#SVGID_00000091697866679530996390000015250084160987193266_);fill:#302D7C;" width="0.2" height="0.2"/>
	<path style="clip-path:url(#SVGID_00000091697866679530996390000015250084160987193266_);fill:#302D7C;" d="M22.6,14.5l0.2,0
		c0,0.1,0,0.1,0.1,0.2c0,0,0.1,0.1,0.2,0.1c0.1,0,0.1,0,0.2,0c0.1,0,0.1,0,0.2,0c0.1,0,0.1-0.1,0.1-0.1c0,0,0-0.1,0-0.1
		c0,0,0-0.1,0-0.1c0,0-0.1-0.1-0.1-0.1c0,0-0.1,0-0.3-0.1c-0.1,0-0.2-0.1-0.3-0.1c-0.1,0-0.1-0.1-0.2-0.1c0-0.1-0.1-0.1-0.1-0.2
		c0-0.1,0-0.1,0.1-0.2c0-0.1,0.1-0.1,0.2-0.2c0.1,0,0.2-0.1,0.3-0.1c0.1,0,0.2,0,0.3,0.1c0.1,0,0.2,0.1,0.2,0.2
		c0,0.1,0.1,0.2,0.1,0.2l-0.2,0c0-0.1,0-0.2-0.1-0.2c-0.1,0-0.1-0.1-0.3-0.1c-0.1,0-0.2,0-0.3,0.1c-0.1,0-0.1,0.1-0.1,0.2
		c0,0.1,0,0.1,0.1,0.1c0,0,0.1,0.1,0.3,0.1c0.2,0,0.3,0.1,0.3,0.1c0.1,0,0.2,0.1,0.2,0.2c0,0.1,0.1,0.1,0.1,0.2c0,0.1,0,0.2-0.1,0.2
		c0,0.1-0.1,0.1-0.2,0.2c-0.1,0-0.2,0.1-0.3,0.1c-0.1,0-0.3,0-0.3-0.1c-0.1,0-0.2-0.1-0.2-0.2C22.6,14.7,22.6,14.6,22.6,14.5"/>
	<path style="clip-path:url(#SVGID_00000091697866679530996390000015250084160987193266_);fill:#302D7C;" d="M24.5,15v-0.2l0.8-1
		c0.1-0.1,0.1-0.1,0.2-0.2h-0.9v-0.2h1.1v0.2l-0.9,1.1l-0.1,0.1h1V15H24.5z"/>
	<path style="clip-path:url(#SVGID_00000091697866679530996390000015250084160987193266_);fill:#302D7C;" d="M25.9,14.4
		c0-0.2,0.1-0.4,0.2-0.5c0.1-0.1,0.2-0.1,0.3-0.1c0.2,0,0.3,0.1,0.4,0.2c0.1,0.1,0.1,0.2,0.1,0.4c0,0.1,0,0.3-0.1,0.3
		c0,0.1-0.1,0.1-0.2,0.2c-0.1,0-0.2,0.1-0.3,0.1c-0.2,0-0.3-0.1-0.4-0.1C25.9,14.7,25.9,14.6,25.9,14.4 M26.1,14.4
		c0,0.1,0,0.2,0.1,0.3c0.1,0.1,0.1,0.1,0.2,0.1c0.1,0,0.2,0,0.2-0.1c0.1-0.1,0.1-0.2,0.1-0.3c0-0.1,0-0.2-0.1-0.3
		C26.5,14,26.5,14,26.4,14c-0.1,0-0.2,0-0.2,0.1C26.1,14.2,26.1,14.3,26.1,14.4"/>
	<path style="clip-path:url(#SVGID_00000091697866679530996390000015250084160987193266_);fill:#302D7C;" d="M27.1,15v-1.1h0.2V14
		c0-0.1,0.1-0.1,0.1-0.1c0.1,0,0.1,0,0.2,0c0.1,0,0.1,0,0.2,0.1c0.1,0,0.1,0.1,0.1,0.1c0.1-0.1,0.2-0.2,0.3-0.2c0.1,0,0.2,0,0.3,0.1
		c0.1,0.1,0.1,0.2,0.1,0.3V15h-0.2v-0.7c0-0.1,0-0.1,0-0.2c0,0,0-0.1-0.1-0.1c0,0-0.1,0-0.1,0c-0.1,0-0.1,0-0.2,0.1
		C28,14.1,28,14.2,28,14.3V15h-0.2v-0.7c0-0.1,0-0.1,0-0.2c0,0-0.1-0.1-0.2-0.1c-0.1,0-0.1,0-0.1,0c0,0-0.1,0.1-0.1,0.1
		c0,0.1,0,0.1,0,0.2V15H27.1z"/>
	<path style="clip-path:url(#SVGID_00000091697866679530996390000015250084160987193266_);fill:#302D7C;" d="M29.6,14.8
		c-0.1,0.1-0.1,0.1-0.2,0.1c-0.1,0-0.1,0-0.2,0c-0.1,0-0.2,0-0.3-0.1c-0.1-0.1-0.1-0.1-0.1-0.2c0-0.1,0-0.1,0-0.1
		c0,0,0.1-0.1,0.1-0.1c0,0,0.1,0,0.1-0.1c0,0,0.1,0,0.2,0c0.2,0,0.3,0,0.3-0.1c0,0,0,0,0,0c0-0.1,0-0.1-0.1-0.2c0,0-0.1-0.1-0.2-0.1
		c-0.1,0-0.2,0-0.2,0c0,0-0.1,0.1-0.1,0.2l-0.2,0c0-0.1,0-0.1,0.1-0.2c0,0,0.1-0.1,0.2-0.1c0.1,0,0.2,0,0.3,0c0.1,0,0.2,0,0.2,0
		c0.1,0,0.1,0.1,0.1,0.1c0,0,0,0.1,0.1,0.1c0,0,0,0.1,0,0.2v0.3c0,0.2,0,0.3,0,0.3c0,0,0,0.1,0,0.1h-0.2
		C29.6,14.9,29.6,14.9,29.6,14.8 M29.6,14.4c-0.1,0-0.2,0.1-0.3,0.1c-0.1,0-0.1,0-0.2,0c0,0-0.1,0-0.1,0.1c0,0,0,0.1,0,0.1
		c0,0.1,0,0.1,0.1,0.1c0,0,0.1,0.1,0.2,0.1c0.1,0,0.1,0,0.2,0c0.1,0,0.1-0.1,0.1-0.1C29.6,14.6,29.6,14.6,29.6,14.4L29.6,14.4z"/>
	<path style="clip-path:url(#SVGID_00000091697866679530996390000015250084160987193266_);fill:#302D7C;" d="M0.1,8.5
		c0-0.4,0-0.9,0.1-1.4c0.1-0.6,0.2-1.2,0.3-1.8C0.6,4.6,0.7,4,0.8,3.4C1,2.8,1.1,2.2,1.3,1.7c0.1-0.5,0.3-0.9,0.4-1.2
		C1.8,0.2,2,0.1,2.1,0.1c0.1,0,0.2,0,0.3,0.1c0.1,0,0.3,0.1,0.4,0.1C2.9,0.4,3,0.4,3.1,0.5c0.1,0.1,0.2,0.1,0.2,0.2c0,0,0,0.1,0,0.1
		c0,0-0.1,0.1-0.1,0.1c0,0,0.6-0.1,0.8-0.3c0.2-0.2,0.5-0.3,0.7-0.4C4.8,0.1,5,0,5.2,0C5.6,0,6,0.2,6.2,0.4c0.2,0.3,0.3,0.6,0.4,1
		c0,0.4,0,0.9-0.1,1.3C6.3,3.3,6.1,3.8,5.9,4.2C5.6,4.6,5.3,4.9,5,5.2C4.6,5.5,4.2,5.6,3.8,5.6c-0.2,0-0.4,0-0.5-0.1
		C3.1,5.4,2.9,5.3,2.8,5.1c0,0,0-0.1-0.1-0.2c0-0.1,0-0.1,0-0.2c0-0.1,0-0.1,0.1-0.1c0,0,0.1,0,0.1,0.1c0.1,0.1,0.3,0.2,0.4,0.2
		c0.3,0,0.5-0.1,0.7-0.3c0.2-0.2,0.4-0.5,0.6-0.8c0.2-0.3,0.3-0.6,0.4-1c0.1-0.4,0.1-0.7,0.2-1c0-0.3,0-0.6-0.1-0.8
		C5.1,0.9,5,0.8,4.8,0.8c-0.2,0-0.5,0.2-0.7,0.5C3.8,1.7,3.5,2.2,3.2,2.8C3,3.3,2.8,3.8,2.7,4.3C2.5,4.8,2.3,5.4,2.1,5.9
		C1.9,6.4,1.8,7,1.6,7.5C1.5,8,1.4,8.5,1.2,8.9c0,0.1-0.1,0.2-0.3,0.2c-0.1,0-0.2,0-0.3-0.1C0.6,9,0.5,9,0.4,8.9
		C0.3,8.9,0.2,8.8,0.2,8.7C0.1,8.7,0.1,8.6,0.1,8.5"/>
	<path style="clip-path:url(#SVGID_00000091697866679530996390000015250084160987193266_);fill:#302D7C;" d="M14.3,0.6
		c0.2-0.2,0.4-0.3,0.6-0.4C15.2,0.1,15.4,0,15.6,0c0.1,0,0.2,0,0.3,0.1c0.1,0.1,0.2,0.1,0.3,0.2c0.4,0,0.8,0.1,1.1,0.4
		c0.3,0.3,0.5,0.6,0.6,1c0.1,0.4,0.2,0.9,0.2,1.4c0,0.5-0.1,1.1-0.2,1.6c-0.1,0.6-0.3,1.1-0.5,1.6c-0.2,0.5-0.5,1-0.8,1.4
		c-0.3,0.4-0.6,0.8-1,1c-0.4,0.3-0.8,0.4-1.2,0.4c-0.6,0-1.1-0.2-1.4-0.5c-0.4-0.3-0.6-0.8-0.7-1.3c-0.1-0.5-0.2-1.1-0.1-1.8
		c0-0.6,0.2-1.3,0.4-1.9C12.7,3,13,2.5,13.3,1.9C13.6,1.3,13.9,0.9,14.3,0.6 M14.5,8.4c0.2,0,0.5-0.1,0.7-0.3
		c0.2-0.2,0.4-0.5,0.6-0.9C16,6.8,16.1,6.4,16.3,6c0.1-0.5,0.3-0.9,0.4-1.4c0.1-0.5,0.2-1,0.2-1.4c0-0.5,0-0.9,0-1.2
		c0-0.4-0.1-0.7-0.3-0.8c-0.1-0.2-0.3-0.3-0.5-0.3c-0.2,0-0.4,0.1-0.5,0.2c-0.2,0.1-0.3,0.3-0.4,0.4c-0.3,0.3-0.5,0.7-0.7,1.2
		C14.2,3,14,3.5,13.9,4c-0.1,0.5-0.2,1-0.3,1.6c-0.1,0.5-0.1,1,0,1.4c0,0.4,0.1,0.8,0.3,1C14,8.3,14.2,8.4,14.5,8.4"/>
	<path style="clip-path:url(#SVGID_00000091697866679530996390000015250084160987193266_);fill:#302D7C;" d="M22.6,8.5
		c0-0.3,0-0.8,0.1-1.2c0.1-0.5,0.1-1,0.2-1.5c0.1-0.5,0.2-1.1,0.3-1.6c0.1-0.6,0.2-1.1,0.4-1.6c-0.6,0.9-1,1.9-1.5,2.8
		c-0.4,1-0.8,1.9-1.2,2.9c0,0.1,0,0.1-0.1,0.2c0,0.1-0.1,0.1-0.1,0.1c0,0-0.1,0-0.1-0.1c-0.1-0.1-0.1-0.1-0.1-0.2
		c-0.1-0.1-0.1-0.2-0.1-0.2c0-0.1,0-0.2,0-0.3c-0.1-0.8-0.1-1.6,0-2.4c0.1-0.8,0.2-1.7,0.3-2.6c-0.2,0.5-0.4,1.1-0.6,1.7
		c-0.2,0.6-0.4,1.2-0.5,1.8s-0.3,1.1-0.4,1.6C19,8.3,18.9,8.7,18.9,9c0,0.1-0.1,0.2-0.2,0.2c-0.1,0-0.2,0-0.3-0.1
		c-0.1,0-0.2-0.1-0.3-0.2C18.1,8.8,18,8.8,18,8.7c-0.1-0.1-0.1-0.2-0.1-0.2c0-0.3,0.1-0.8,0.1-1.2c0.1-0.5,0.2-1,0.3-1.5
		c0.1-0.5,0.2-1.1,0.4-1.6C18.8,3.5,19,3,19.1,2.5c0.1-0.5,0.3-0.9,0.4-1.3c0.1-0.4,0.3-0.7,0.4-0.9c0.1-0.2,0.2-0.3,0.3-0.3
		c0.1,0,0.2,0,0.3,0.1c0.1,0,0.3,0.1,0.4,0.2c0.1,0.1,0.3,0.1,0.4,0.2c0.1,0.1,0.1,0.1,0.1,0.2c0,0,0,0,0,0.1c0,0,0,0,0,0.1
		c-0.2,1-0.3,1.9-0.4,2.8c-0.1,0.9-0.1,1.8,0,2.7c0.5-1,1-2,1.5-3c0.5-0.9,1.1-1.9,1.8-2.8c0,0,0.1-0.1,0.1-0.1
		c0-0.1,0.1-0.1,0.1-0.2c0.1-0.1,0.1-0.1,0.2-0.1c0.1,0,0.1-0.1,0.2-0.1c0.1,0,0.2,0,0.3,0.1c0.1,0,0.2,0.1,0.4,0.1
		c0.1,0.1,0.2,0.1,0.3,0.2c0.1,0.1,0.1,0.1,0.1,0.2c0,0,0,0.1,0,0.1c0,0-0.1,0.1-0.1,0.1c0,0-0.1,0.1-0.1,0.1
		c-0.1,0.3-0.3,0.6-0.4,1c-0.1,0.4-0.3,0.9-0.4,1.4c-0.1,0.5-0.3,1.1-0.4,1.6c-0.1,0.6-0.2,1.1-0.3,1.6c-0.1,0.5-0.2,1-0.2,1.4
		c-0.1,0.4-0.1,0.7-0.1,1c0,0.1-0.1,0.2-0.2,0.2c-0.1,0-0.2,0-0.3-0.1C23.2,9,23.1,9,23,8.9c-0.1-0.1-0.2-0.1-0.2-0.2
		C22.7,8.7,22.6,8.6,22.6,8.5"/>
	<path style="clip-path:url(#SVGID_00000091697866679530996390000015250084160987193266_);fill:#302D7C;" d="M27.1,0.6
		c0.2-0.2,0.4-0.3,0.6-0.4C28,0.1,28.2,0,28.4,0c0.1,0,0.2,0,0.3,0.1c0.1,0.1,0.2,0.1,0.3,0.2c0.4,0,0.8,0.1,1.1,0.4
		c0.3,0.3,0.5,0.6,0.6,1C30.9,2.1,31,2.6,31,3.1c0,0.5-0.1,1.1-0.2,1.6c-0.1,0.6-0.3,1.1-0.5,1.6c-0.2,0.5-0.5,1-0.8,1.4
		c-0.3,0.4-0.6,0.8-1,1c-0.4,0.3-0.8,0.4-1.2,0.4c-0.6,0-1.1-0.2-1.4-0.5c-0.4-0.3-0.6-0.8-0.7-1.3C25,6.8,24.9,6.2,25,5.6
		c0-0.6,0.2-1.3,0.4-1.9c0.2-0.6,0.4-1.2,0.7-1.8C26.4,1.3,26.7,0.9,27.1,0.6 M27.3,8.4c0.2,0,0.5-0.1,0.7-0.3
		c0.2-0.2,0.4-0.5,0.6-0.9c0.2-0.4,0.4-0.8,0.5-1.2c0.1-0.5,0.3-0.9,0.4-1.4c0.1-0.5,0.2-1,0.2-1.4c0-0.5,0-0.9,0-1.2
		c0-0.4-0.1-0.7-0.3-0.8c-0.1-0.2-0.3-0.3-0.5-0.3c-0.2,0-0.4,0.1-0.5,0.2c-0.2,0.1-0.3,0.3-0.4,0.4c-0.3,0.3-0.5,0.7-0.7,1.2
		C27,3,26.8,3.5,26.7,4c-0.1,0.5-0.2,1-0.3,1.6c-0.1,0.5-0.1,1,0,1.4c0,0.4,0.1,0.8,0.3,1C26.8,8.3,27,8.4,27.3,8.4"/>
	<path style="clip-path:url(#SVGID_00000091697866679530996390000015250084160987193266_);fill:#D7372D;" d="M12,10.4
		c-0.1-0.3-0.2-0.5-0.3-0.6c-0.2-0.2-0.6-0.3-1-0.3c-0.1,0-0.1,0-0.1,0c0.2,0.2,0.3,0.5,0.5,0.7c0,0,0.1,0,0.1,0.1
		c0,0,0.1,0.1,0.1,0.1c0.2,0.2,0.3,0.3,0.4,0.3c0,0,0,0,0,0c0.1,0,0.2,0,0.3-0.1C11.8,10.5,11.9,10.5,12,10.4"/>
	<path style="clip-path:url(#SVGID_00000091697866679530996390000015250084160987193266_);fill:#D7372D;" d="M11.2,11.8
		c0,0.2-0.1,0.4-0.1,0.5c-0.1,0.1-0.2,0.2-0.4,0.2c-0.2,0-0.4-0.1-0.5-0.2c-0.1-0.2-0.2-0.3-0.2-0.6v-0.7c0-0.2,0.1-0.4,0.2-0.6
		c0.1-0.1,0.3-0.2,0.4-0.2c0,0,0.1,0,0.1,0c-0.1-0.2-0.3-0.4-0.4-0.6C10,9.6,9.8,9.7,9.6,9.9c-0.3,0.3-0.4,0.6-0.4,1v0.7
		c0,0.4,0.1,0.8,0.4,1c0.3,0.3,0.6,0.4,1.1,0.4c0.4,0,0.8-0.1,1-0.3c0.2-0.2,0.4-0.5,0.4-0.9l0,0H11.2z"/>
	<path style="clip-path:url(#SVGID_00000091697866679530996390000015250084160987193266_);fill:#D7372D;" d="M11.9,10.7
		c-0.1,0-0.1,0.1-0.1,0.1H12l0,0c0,0,0-0.1,0-0.1C12,10.7,11.9,10.7,11.9,10.7"/>
	<path style="clip-path:url(#SVGID_00000091697866679530996390000015250084160987193266_);fill:#D7372D;" d="M12.5,9.8
		C12.4,9.8,12.4,9.8,12.5,9.8l0,0.2C12.5,10,12.5,9.9,12.5,9.8C12.5,9.8,12.5,9.8,12.5,9.8"/>
	<path style="clip-path:url(#SVGID_00000091697866679530996390000015250084160987193266_);fill:#D7372D;" d="M14.5,9.5v2.3
		c0,0.2-0.1,0.4-0.2,0.5c-0.1,0.1-0.3,0.2-0.5,0.2c-0.2,0-0.4-0.1-0.5-0.2c-0.1-0.1-0.2-0.3-0.2-0.5V9.5h-0.8v0c0,0,0,0,0,0
		c0,0,0.1,0,0.1,0.1c0.1,0.1,0.1,0.1,0.1,0.2c0,0.1,0,0.2-0.1,0.4c0,0-0.1,0.1-0.1,0.1v1.5c0,0.4,0.1,0.7,0.4,0.9
		c0.3,0.2,0.6,0.3,1.1,0.3c0.4,0,0.8-0.1,1.1-0.3c0.3-0.2,0.4-0.5,0.4-0.9V9.5H14.5z"/>
	<path style="clip-path:url(#SVGID_00000091697866679530996390000015250084160987193266_);fill:#302D7C;" d="M9.7,5.6
		c0.4,0.8,0.8,1.6,1.2,2.2c0.5,0.7,0.9,1.3,1.4,1.8c0,0,0.1,0.1,0.1,0.1c0,0,0.1,0,0.1,0.1c0,0,0,0,0,0.1c0,0.1,0,0.1-0.1,0.2
		c-0.1,0.1-0.2,0.2-0.3,0.3c-0.1,0.1-0.2,0.2-0.3,0.2c-0.1,0.1-0.2,0.1-0.3,0.1c-0.1,0-0.2-0.1-0.5-0.4c-0.6-0.8-1.1-1.6-1.6-2.4
		C9.1,7,8.7,6.1,8.3,5.2C8.1,5.9,7.9,6.5,7.7,7.1C7.5,7.8,7.4,8.4,7.3,8.9c0,0.1-0.1,0.2-0.3,0.2c-0.1,0-0.2,0-0.3-0.1
		C6.6,9,6.5,9,6.4,8.9C6.3,8.9,6.2,8.8,6.2,8.7C6.1,8.7,6.1,8.6,6.1,8.5c0-0.4,0-0.9,0.1-1.4c0.1-0.6,0.2-1.2,0.3-1.8
		C6.6,4.6,6.7,4,6.8,3.4C7,2.8,7.1,2.2,7.3,1.8c0.1-0.5,0.3-0.9,0.4-1.2C7.9,0.2,8,0.1,8.1,0.1c0.1,0,0.2,0,0.3,0.1
		c0.1,0,0.3,0.1,0.4,0.1C8.9,0.4,9,0.4,9.1,0.5c0.1,0.1,0.2,0.1,0.2,0.2c0,0,0,0.1,0,0.1c0,0-0.1,0.1-0.1,0.1c0,0,0.4-0.3,0.7-0.5
		c0.2-0.1,0.4-0.3,0.7-0.3c0.4-0.1,0.5,0,0.7,0c0.4,0,0.7,0.1,0.9,0.4c0.2,0.3,0.3,0.6,0.4,1c0,0.4,0,0.9-0.1,1.3
		c-0.1,0.5-0.3,0.9-0.5,1.3c-0.2,0.4-0.5,0.8-0.9,1c-0.4,0.3-0.8,0.4-1.2,0.4C9.7,5.6,9.7,5.6,9.7,5.6 M8.5,4.7c0.1,0,0.3,0,0.4,0
		c0.1,0,0.3,0.1,0.5,0.2c0.3,0,0.5-0.1,0.7-0.3c0.2-0.2,0.4-0.5,0.6-0.8c0.2-0.3,0.3-0.6,0.4-1c0.1-0.4,0.1-0.7,0.2-1
		c0-0.3,0-0.6-0.1-0.8c-0.1-0.2-0.2-0.3-0.4-0.3c-0.2,0-0.5,0.2-0.7,0.5C9.8,1.7,9.5,2.2,9.3,2.8C9.1,3.1,9,3.5,8.9,3.8
		C8.8,4.1,8.6,4.4,8.5,4.7"/>
</g>
</svg>
