<?xml version="1.0" encoding="utf-8"?>
<!-- Generator: Adobe Illustrator 27.0.1, SVG Export Plug-In . SVG Version: 6.00 Build 0)  -->
<svg version="1.1" id="Capa_1" xmlns="http://www.w3.org/2000/svg" xmlns:xlink="http://www.w3.org/1999/xlink" x="0px" y="0px"
	 viewBox="0 0 150 80" style="enable-background:new 0 0 150 80;" xml:space="preserve">
<style type="text/css">
	.st0{clip-path:url(#SVGID_00000163034495040596561590000012812842465238126209_);}
	.st1{clip-path:url(#SVGID_00000060739031510027941650000012697141297912793502_);fill:#010101;}
</style>
<g id="Ilustración_29_00000036958228925692196440000005427145877978877331_">
	<g>
		<defs>
			<rect id="SVGID_1_" x="21.3" y="22.5" width="107.3" height="35"/>
		</defs>
		<clipPath id="SVGID_00000072979701886160079830000006467763761426615475_">
			<use xlink:href="#SVGID_1_"  style="overflow:visible;"/>
		</clipPath>
		<g style="clip-path:url(#SVGID_00000072979701886160079830000006467763761426615475_);">
			<defs>
				<rect id="SVGID_00000018205708765704692220000001643920910461584539_" x="21.3" y="22.5" width="107.3" height="35"/>
			</defs>
			<clipPath id="SVGID_00000178202446231636266860000017105687257838310068_">
				<use xlink:href="#SVGID_00000018205708765704692220000001643920910461584539_"  style="overflow:visible;"/>
			</clipPath>
			<path style="clip-path:url(#SVGID_00000178202446231636266860000017105687257838310068_);fill:#010101;" d="M56.6,40
				c-1.9,9.6-11.2,17.5-20.8,17.5c-9.6,0-16.1-7.9-14.2-17.5c1.9-9.6,11.2-17.5,21-17.5C52.1,22.5,58.4,30.4,56.6,40 M47.2,25.1
				c5.1,2.1,8.2,7.5,6.8,13.8c-0.2,1.4-0.7,2.6-1.2,4c-0.7,1.4-1.4,2.6-2.3,3.7v0.2L50.3,47c-2.1,2.6-4.9,4.7-8.2,5.8h-0.2h-0.2
				v-1.6c1.6-0.2,3-0.9,4.2-2.1c1.4-1.4,2.1-3.3,1.9-5.1c0-1.6-0.7-3-1.9-4c-1.4-1.4-2.8-2.1-4.2-2.8h-0.2c-1.2-0.7-2.3-1.2-3.3-1.9
				c-0.5-0.5-0.9-0.9-1.2-1.6c0-0.5,0-0.7,0.2-0.9c0.5-0.5,1.4-0.7,2.1-0.7c1.4,0,2.8,0.5,4,0.9h0.2c0.7,0,1.4-0.5,1.6-1.2
				c0.2-0.5,0.5-0.9,0.5-1.6c0-0.2,0-0.5-0.2-0.5c-0.9-0.9-2.3-1.4-3.7-1.6h-0.2c0,0,0-1.9,0.2-2.6v-0.7c0-0.2-0.5-0.5-0.7-0.5
				c-2.3,0-4.4,0.5-6.5,1.6c-5.6,2.6-10,7.9-11.2,14c-1.4,7,1.9,12.8,7.7,14.9c-4.9-2.1-7.9-7.5-6.8-13.8c0.2-1.4,0.7-2.6,1.2-4
				c0.5-0.7,0.7-1.2,1.2-1.6c2.1-3.5,4.9-6.1,8.6-7.7c0.5-0.2,1.2-0.5,1.9-0.7v0.9c-1.4,0.5-2.6,1.2-3.7,2.1
				c-2.3,2.3-2.6,6.3-0.2,8.9c0.9,1.2,2.3,2.1,4,2.8c1.2,0.5,2.6,1.2,3.7,1.9c0.9,0.7,1.2,1.2,1.2,1.6c0,0.5-0.2,0.9-0.5,1.2
				c-0.5,0.5-1.4,0.7-2.1,0.7c-1.9,0-3.5-0.5-5.1-1.4c-0.2-0.2-0.7-0.2-0.9-0.2c-0.2,0-0.5,0-0.7,0.2c-0.2,0.2-0.5,0.5-0.5,0.7
				c-0.2,0.7-0.5,1.4-0.5,2.1v0.5c0,0.2,0.2,0.2,0.2,0.5c1.6,1.2,3.3,1.9,5.1,1.9h0.2v2.8v0.9c0,0,0,0.2,0.2,0.2
				c0,0.2,0.2,0.2,0.5,0.2h0.2c0.2,0,0.7,0,0.9-0.2c0.9,0,2.1-0.2,3.3-0.7c0.2,0,0.5-0.2,0.5-0.2c0.2,0,0.5-0.2,0.5-0.2
				c5.6-2.6,10.3-7.9,11.4-14.2C56.3,33.2,53.1,27.4,47.2,25.1"/>
			<path style="clip-path:url(#SVGID_00000178202446231636266860000017105687257838310068_);fill:#010101;" d="M62.6,41.6
				c0,2.3,1.6,4,4,4c1.2,0,2.3-0.2,3.3-0.9l0.9,2.1c-1.4,0.9-2.8,1.2-4.4,1.2c-4.7,0-6.5-3.3-6.5-7c0-4,2.1-7,5.8-7
				c3.5,0,5.6,2.6,5.6,7v0.7H62.6z M68,39.5c0-1.6-0.9-3.3-2.8-3.3c-1.9,0-2.8,1.6-2.8,3.3H68z"/>
			<path style="clip-path:url(#SVGID_00000178202446231636266860000017105687257838310068_);fill:#010101;" d="M73.8,36.7h-1.4
				l-0.9-2.3h2.3v-2.1c0-3.3,1.9-4.7,4.2-4.7c0.9,0,1.6,0.2,2.6,0.5l-0.7,2.3c-0.5-0.2-0.9-0.2-1.6-0.2c-1.2,0-1.6,0.7-1.6,2.1v2.1
				h3.7l-0.9,2.3h-2.6v11h-2.8L73.8,36.7z"/>
			<path style="clip-path:url(#SVGID_00000178202446231636266860000017105687257838310068_);fill:#010101;" d="M83.4,41.6
				c0,2.3,1.6,4,4,4c1.2,0,2.3-0.2,3.3-0.9l0.9,2.1c-1.4,0.9-2.8,1.2-4.4,1.2c-4.7,0-6.5-3.3-6.5-7c0-4,2.1-7,5.8-7
				c3.5,0,5.6,2.6,5.6,7v0.7H83.4z M89,39.5c0-1.6-0.9-3.3-2.8-3.3c-1.9,0-2.8,1.6-2.8,3.3H89z"/>
			<path style="clip-path:url(#SVGID_00000178202446231636266860000017105687257838310068_);fill:#010101;" d="M93.4,41.2
				c0-4,2.8-7,6.8-7c1.2,0,2.3,0.2,3.5,0.9v2.6c-0.9-0.9-2.1-1.2-3.3-1.2c-2.6,0-4.2,1.9-4.2,4.7s1.6,4.4,4,4.4c1.2,0,2.1-0.2,3-0.9
				l0.9,2.1c-1.4,0.9-2.8,1.2-4.4,1.2C95.8,47.9,93.4,44.9,93.4,41.2"/>
			<path style="clip-path:url(#SVGID_00000178202446231636266860000017105687257838310068_);fill:#010101;" d="M125.6,34.4l-3.3,9.8
				c0,0-2.6-5.8-3.3-7.9c-0.2-0.5-0.9-1.9-3-1.9h-5.8v-4l-2.8,0.9v3h-2.3v2.3h2.3v7.7c0,2.1,1.4,3.5,3.5,3.5c1.4,0,2.6-0.2,3.7-0.9
				l-0.9-2.1c-0.7,0.5-1.4,0.7-2.1,0.7c-0.9,0-1.4-0.5-1.4-1.6v-7.2h5.8l4.9,11c-0.9,3.3-2.3,4.2-4,4.2c-0.7,0-1.4-0.2-1.9-0.5
				l-0.7,2.3c0.9,0.5,1.9,0.5,2.8,0.5c2.3,0,4.4-0.7,6.3-6.1l5.1-13.8H125.6z"/>
		</g>
	</g>
</g>
</svg>
