<?xml version="1.0" encoding="UTF-8"?>
<svg id="Capa_1" data-name="Capa 1" xmlns="http://www.w3.org/2000/svg" version="1.1" viewBox="0 0 1200 327">
  <defs>
    <style>
      .cls-1 {
        fill: #d12417;
      }

      .cls-1, .cls-2 {
        stroke-width: 0px;
      }

      .cls-2 {
        fill: #265faa;
      }
    </style>
  </defs>
  <path class="cls-2" d="M167.2,127.6c7.7,0,15.5,3.1,21.8,9.3,21.3,20.8,42.7,41.4,63.4,62.7,12,12.4,24.3,24.7,36.4,37,13.6,13.7,27.3,27.3,41,40.8,2.3,2.3,2.4,3.5,0,5.9-13.6,13.3-27.1,26.7-40.4,40.3-2.6,2.6-3.9,2.3-6.3-.1-37.8-37.8-75.8-75.4-113.6-113.3-3.1-3.1-4.4-2.6-7.2.2-37.7,37.7-75.6,75.3-113.2,113.1-3,3.1-4.4,2.7-7.1-.1-13.2-13.5-26.6-26.8-40.1-40-2.6-2.5-2.4-3.8,0-6.2,46.9-46.3,93.7-92.8,140.5-139.2,6.6-6.5,14.2-10.2,24.8-10.3h0Z"/>
  <path class="cls-1" d="M483.2,326.6c-10.7,0-18.3-2.6-24.4-8.6-23.3-22.7-46.6-45.4-69.3-68.8-22.8-23.6-46.4-46.5-69.6-69.7-5.6-5.6-5.6-5.5.1-11.1,12.8-12.6,25.6-25.1,38.3-37.7,2.4-2.4,3.6-2.3,6,0,13.8,14,27.8,27.8,41.7,41.7,24,23.9,48,47.8,71.9,71.9,2.7,2.7,4.1,2.4,6.6-.1,37.8-37.8,75.7-75.5,113.5-113.3,2.7-2.7,4.1-2.9,6.8,0,13.3,13.6,26.8,27,40.4,40.3,2.3,2.3,2.4,3.5,0,5.9-46.5,46.2-93,92.5-139.4,138.8-6.9,6.9-14.9,10.8-22.7,10.9h0Z"/>
  <path class="cls-2" d="M790.8,127.6c8.3,0,16.2,3.2,22.6,9.5,18.7,18.3,37.7,36.2,55.7,55.1,27.4,28.6,55.9,56.1,83.8,84.2,3.2,3.2,3.3,4.9,0,8-13.4,12.8-26.6,25.9-39.7,39-2.7,2.7-4.1,2.5-6.7-.1-23-23.1-46.1-46-69.2-68.9-14.8-14.7-29.7-29.3-44.3-44.1-2.8-2.8-4.1-2.3-6.6.2-37.7,37.7-75.6,75.3-113.2,113-3,3-4.3,2.8-7.2,0-13.2-13.5-26.6-26.8-40.1-40-2.6-2.5-2.4-3.8,0-6.2,46.4-46.1,92.8-92.3,139.1-138.5,6.9-6.9,14.9-10.9,25.5-11h0ZM1108.9,326.6c-27.7,0-55.4,0-83.2,0-20.3,0-33.4-13-33.7-33.2-.8-54.2.3-108.3,0-162.5,0-3.3.8-4.3,4.2-4.2,17.6.2,35.3.2,52.9,0,4.1,0,4.9,1.3,4.9,5.1,0,42.4,0,84.8,0,127.2,0,4.2,1,5.5,5.4,5.5,45.2-.2,90.4,0,135.6-.2,3.9,0,5,1,5,4.9-.2,17.4-.3,34.9,0,52.3,0,4.6-1.5,5.2-5.6,5.2-28.5-.1-57,0-85.5,0h0ZM215.6,40.3c6.6,0,13.2,0,19.8,0,2.5,0,3.6.4,3.7,3.3.8,24.2-16.9,43.9-40.3,44.5-26.6.7-46.1-16.9-46.6-42.2-.4-19.3,9.3-35,26.1-42.1,16.6-7,37.9-3.2,50.1,9.1,1.7,1.7,3.1,3.5,4.5,5.4,4.3,6.2,4.1,6.4-2.9,8.8-2.5.8-3.2,0-4.3-1.9-8.4-13-20.9-17.4-35.5-15-14.4,2.4-23.4,11.9-27,25.8-6.6,26.1,17,49,42.9,41.7,11.8-3.4,19-11.7,22.4-23.4,1-3.4.5-5.1-3.8-4.9-9.7.3-19.5-.1-29.3.2-4,.1-3.7-2-3.7-4.6,0-2.5-.5-5,3.6-4.8,6.8.3,13.5,0,20.3,0h0ZM450.8,34c13.6-15,35-13.9,46.3-2.5,11.7,11.8,12.6,33.4,2.4,45.6-12.3,14.6-34.7,14.6-48.7.5,0,9-.3,17.4.1,25.7.2,4.4-1.7,4.6-5.2,4.7-3.8.1-5-.8-5-4.9.2-24.5.2-49,0-73.4,0-4.1,1-5.2,5.2-5.3,4.5-.1,5.5,1.5,4.9,5.4-.2,1,0,2.1,0,4.2ZM497.4,55.4c0-14.3-9.1-24-22.7-24.1-13.1,0-23.8,10.8-23.8,24.1,0,13.8,10.1,24.1,23.5,24.2,13.9,0,23-9.6,23-24.2h0ZM535.8,55.2c0-19.2,13.4-32.5,32.7-32.5,19,0,33.6,14.2,33.6,32.6,0,18.7-14.7,32.8-34,32.7-19.2-.1-32.4-13.6-32.3-32.9ZM592.1,56.1c.3-14-9.3-24.4-22.7-24.8-13.5-.3-24.3,10.1-24.5,23.7-.2,13.7,9.5,24.2,22.5,24.6,14.8.4,24.4-8.7,24.7-23.5h0ZM390.8,77.7c-6.2,7.5-14.1,10.6-23.6,10.4-13.5-.3-23.6-9.5-24-22.8-.4-12.5,0-25.1-.2-37.7,0-4.6,3.3-2.7,5.3-2.9,2.3-.3,4.6-.7,4.5,3.3-.3,9.7-.1,19.5,0,29.2,0,1.7,0,3.5.2,5.2,1.2,8.9,6.2,14.9,13.4,16.3,9.1,1.7,17.9-2.3,22-10.1,2.1-3.9,3.1-8.2,3.1-12.7,0-8.9.3-17.9,0-26.8-.2-4.7,2.3-4.3,5.5-4.5,3.6-.2,4.8.8,4.8,4.6-.2,17.6-.3,35.2,0,52.7,0,4.4-1.9,4.4-5.1,4.3-2.9,0-5.9.5-5.1-4.1.2-1.3.5-2.7-.6-4.4h0ZM284.4,39.1c5.5-7.7,11.2-13.1,19.6-14.6,1.2-.2,2.5-.4,3.7-.5,6.4-.4,6.6,0,5.9,6.2-.2,2.1-.9,3.1-3.1,3-18.6-.8-26,14.3-26.1,28,0,7.4-.3,14.8,0,22.1.2,4.1-2.1,3.8-4.7,3.6-2.3-.2-5.5,1.4-5.4-3.4.2-18.5.2-37,0-55.5,0-5.2,3.6-3,5.9-3.4,2.6-.4,4.6-.1,4.2,3.5-.3,3.2,0,6.4,0,10.9h0Z"/>
</svg>