<?xml version="1.0" encoding="utf-8"?>
<!-- Generator: Adobe Illustrator 27.0.1, SVG Export Plug-In . SVG Version: 6.00 Build 0)  -->
<svg version="1.1" id="Capa_1" xmlns="http://www.w3.org/2000/svg" xmlns:xlink="http://www.w3.org/1999/xlink" x="0px" y="0px"
	 viewBox="0 0 200 40" style="enable-background:new 0 0 200 40;" xml:space="preserve">
<style type="text/css">
	.st0{fill:#C31425;}
	.st1{fill:#FFFFFF;}
</style>
<g>
	<path class="st0" d="M181,40H19C8.5,40,0,31.5,0,21l0-2C0,8.5,8.5,0,19,0l162,0c10.5,0,19,8.5,19,19v2C200,31.5,191.5,40,181,40z"
		/>
	<g>
		<path class="st1" d="M30,24.8l0.8-0.9c1.5,1.4,3,2.2,4.9,2.2c2.3,0,3.8-1.4,3.8-3.2v0c0-1.6-0.8-2.6-4-3.8
			c-3.7-1.3-4.8-2.6-4.8-4.8v0c0-2.4,2-4.2,4.9-4.2c1.9,0,3.4,0.6,4.9,1.8l-0.7,1c-1.3-1.2-2.7-1.7-4.2-1.7c-2.2,0-3.6,1.4-3.6,3v0
			c0,1.6,0.8,2.6,4.2,3.8c3.6,1.3,4.7,2.7,4.7,4.8v0c0,2.5-2.1,4.4-5,4.4C33.5,27.1,31.7,26.4,30,24.8z"/>
		<path class="st1" d="M43.2,20.7L43.2,20.7c0-3.7,2.3-6.5,5.4-6.5c3.1,0,5.4,2.8,5.4,6.4v0.1c0,3.6-2.3,6.4-5.4,6.4
			C45.5,27.1,43.2,24.3,43.2,20.7z M52.8,20.7L52.8,20.7c0-3.2-1.9-5.4-4.2-5.4c-2.4,0-4.2,2.3-4.2,5.3v0.1c0,3.1,1.9,5.3,4.2,5.3
			C51,26.1,52.8,23.8,52.8,20.7z"/>
		<path class="st1" d="M57.2,9.6h1.1v17.3h-1.1V9.6z"/>
		<path class="st1" d="M62.4,9.9h1.3v1.6h-1.3V9.9z M62.4,14.5h1.1v12.3h-1.1V14.5z"/>
		<path class="st1" d="M66.8,20.8v-0.1c0-3.8,2.4-6.4,5.4-6.4c1.7,0,2.9,0.8,3.8,1.7l-0.7,0.9c-0.8-0.8-1.8-1.5-3.2-1.5
			c-2.3,0-4.2,2.2-4.2,5.3v0.1c0,3.3,2,5.3,4.3,5.3c1.3,0,2.3-0.7,3.1-1.5l0.7,0.7c-0.9,1-2.1,1.8-3.9,1.8
			C69.2,27.1,66.8,24.6,66.8,20.8z"/>
		<path class="st1" d="M79,14.5h1.1v12.3H79V14.5z M81.1,9.6l1.3,0.7l-2.4,2.4h-0.9L81.1,9.6z"/>
		<path class="st1" d="M84.7,24.1v-8.5h-1.6v-1h1.6v-3.8h1.1v3.8h3.5v1h-3.5v8.4c0,1.5,0.8,2,2.1,2c0.5,0,0.9-0.1,1.5-0.3v1
			c-0.5,0.2-1,0.3-1.6,0.3C86,27,84.7,26.1,84.7,24.1z"/>
		<path class="st1" d="M91.5,23.3L91.5,23.3c0-2.5,1.9-4.1,4.7-4.1c1.4,0,2.4,0.2,3.4,0.5v-0.9c0-2.2-1.3-3.4-3.4-3.4
			c-1.3,0-2.4,0.4-3.3,0.9l-0.4-1c1.1-0.6,2.3-1,3.8-1c1.4,0,2.5,0.4,3.3,1.2c0.7,0.7,1.1,1.8,1.1,3.2v8.1h-1.1v-2
			c-0.7,1.2-2,2.2-4,2.2C93.5,27.1,91.5,25.7,91.5,23.3z M99.5,22.5v-1.8c-0.9-0.3-2-0.5-3.4-0.5c-2.3,0-3.5,1.2-3.5,2.9v0.1
			c0,1.7,1.3,2.9,3,2.9C97.8,26.1,99.5,24.5,99.5,22.5z"/>
		<path class="st1" d="M104.4,9.6h1.1v17.3h-1.1V9.6z"/>
		<path class="st1" d="M108.8,20.7L108.8,20.7c0-3.7,2.3-6.5,5.4-6.5c3.1,0,5.4,2.8,5.4,6.4v0.1c0,3.6-2.3,6.4-5.4,6.4
			C111,27.1,108.8,24.3,108.8,20.7z M118.3,20.7L118.3,20.7c0-3.2-1.9-5.4-4.2-5.4c-2.4,0-4.2,2.3-4.2,5.3v0.1
			c0,3.1,1.9,5.3,4.2,5.3C116.5,26.1,118.3,23.8,118.3,20.7z"/>
		<path class="st1" d="M127.4,23.3L127.4,23.3c0-2.5,1.9-4.1,4.7-4.1c1.4,0,2.4,0.2,3.4,0.5v-0.9c0-2.2-1.3-3.4-3.4-3.4
			c-1.3,0-2.4,0.4-3.3,0.9l-0.4-1c1.1-0.6,2.3-1,3.8-1c1.4,0,2.5,0.4,3.3,1.2c0.7,0.7,1.1,1.8,1.1,3.2v8.1h-1.1v-2
			c-0.7,1.2-2,2.2-4,2.2C129.4,27.1,127.4,25.7,127.4,23.3z M135.5,22.5v-1.8c-0.9-0.3-2-0.5-3.4-0.5c-2.3,0-3.5,1.2-3.5,2.9v0.1
			c0,1.7,1.3,2.9,3,2.9C133.7,26.1,135.5,24.5,135.5,22.5z"/>
		<path class="st1" d="M148.8,24.2c-0.9,1.6-2.2,2.9-4.3,2.9c-2.5,0-5-2.3-5-6.3v-0.2c0-4,2.5-6.3,5-6.3c2.1,0,3.4,1.3,4.3,2.8v-2.6
			h1.1v15.9h-1.1V24.2z M148.9,20.8v-0.2c0-3.2-2.1-5.2-4.2-5.2c-2.2,0-4,1.9-4,5.3v0.2c0,3.4,1.8,5.3,4,5.3
			C146.8,26.1,148.9,24,148.9,20.8z"/>
		<path class="st1" d="M153.5,22.5v-8h1.1v7.7c0,2.5,1.2,3.9,3.3,3.9c2,0,3.6-1.7,3.6-4v-7.5h1.1v12.3h-1.1v-2.1
			c-0.7,1.3-1.9,2.4-3.8,2.4C155.1,27.1,153.5,25.3,153.5,22.5z"/>
		<path class="st1" d="M166.6,14.5h1.1v12.3h-1.1V14.5z M168.7,9.6l1.3,0.7l-2.4,2.4h-0.9L168.7,9.6z"/>
	</g>
</g>
</svg>
