<?xml version="1.0" encoding="utf-8"?>
<!-- Generator: Adobe Illustrator 16.0.3, SVG Export Plug-In . SVG Version: 6.00 Build 0)  -->
<!DOCTYPE svg PUBLIC "-//W3C//DTD SVG 1.1//EN" "http://www.w3.org/Graphics/SVG/1.1/DTD/svg11.dtd">
<svg version="1.1" id="Capa_1" xmlns="http://www.w3.org/2000/svg" xmlns:xlink="http://www.w3.org/1999/xlink" x="0px" y="0px"
	 width="14.542px" height="152.5px" viewBox="0 0 14.542 152.5" enable-background="new 0 0 14.542 152.5" xml:space="preserve">
<path fill-rule="evenodd" clip-rule="evenodd" fill="#161A27" d="M7.414,104.593c0.563,0,0.972-0.146,1.275-0.437
	c0.306-0.281,0.458-0.647,0.458-1.08c0-0.44-0.152-0.801-0.458-1.092c-0.313-0.28-0.751-0.429-1.335-0.429
	c-0.355,0-0.671,0.062-0.937,0.196c-0.267,0.109-0.478,0.302-0.625,0.533c-0.159,0.216-0.225,0.5-0.225,0.774
	c0,0.429,0.153,0.778,0.428,1.085C6.281,104.437,6.752,104.593,7.414,104.593 M7.414,105.193c-0.73,0-1.315-0.204-1.725-0.593
	c-0.416-0.4-0.618-0.912-0.618-1.524c0-0.414,0.094-0.767,0.273-1.112c0.211-0.315,0.487-0.574,0.827-0.745
	c0.355-0.179,0.761-0.262,1.183-0.262c0.461,0,0.86,0.1,1.217,0.271c0.35,0.192,0.618,0.437,0.8,0.766
	c0.188,0.349,0.258,0.678,0.258,1.082c0,0.423-0.069,0.785-0.271,1.116c-0.21,0.337-0.489,0.585-0.838,0.753
	C8.166,105.112,7.802,105.193,7.414,105.193 M9.038,111.707v-0.946c0-0.278-0.02-0.5-0.063-0.687
	c-0.055-0.167-0.149-0.29-0.235-0.389c-0.144-0.133-0.32-0.254-0.567-0.313c-0.234-0.093-0.517-0.125-0.844-0.125
	c-0.465,0-0.817,0.069-1.064,0.23c-0.255,0.152-0.417,0.321-0.506,0.539c-0.06,0.17-0.103,0.414-0.103,0.767v0.924H9.038z
	 M9.57,112.308H5.147v-1.547c0-0.33,0.018-0.583,0.06-0.775c0.054-0.248,0.163-0.469,0.322-0.654
	c0.192-0.229,0.447-0.398,0.752-0.514c0.312-0.126,0.656-0.187,1.058-0.187c0.345,0,0.639,0.052,0.896,0.141
	c0.26,0.062,0.464,0.161,0.634,0.281c0.17,0.137,0.306,0.264,0.41,0.399c0.093,0.152,0.175,0.332,0.229,0.533
	c0.052,0.211,0.063,0.445,0.063,0.731V112.308z M7.754,118.46v-1.515l-1.227,0.468c-0.376,0.14-0.68,0.253-0.924,0.31
	c0.289,0.051,0.559,0.14,0.841,0.245L7.754,118.46z M9.57,119.728l-4.423-1.698v-0.637l4.423-1.815v0.674l-1.336,0.52v1.848
	l1.336,0.491V119.728z M9.57,125.523H5.147v-0.6h3.891v-2.171H9.57V125.523z M5.147,129.934v-0.595H9.57v0.595H5.147z
	 M7.825,135.599H7.314v-1.887h1.644c0.231,0.299,0.401,0.584,0.518,0.882c0.107,0.311,0.153,0.626,0.153,0.947
	c0,0.435-0.069,0.834-0.258,1.18c-0.182,0.372-0.45,0.636-0.811,0.811c-0.346,0.188-0.745,0.273-1.196,0.273
	c-0.422,0-0.821-0.086-1.202-0.273c-0.369-0.175-0.633-0.434-0.817-0.782c-0.18-0.33-0.273-0.728-0.273-1.15
	c0-0.327,0.029-0.622,0.144-0.87c0.11-0.264,0.266-0.475,0.441-0.618c0.191-0.146,0.424-0.25,0.727-0.338l0.145,0.534
	c-0.229,0.059-0.397,0.145-0.531,0.246c-0.119,0.105-0.237,0.243-0.307,0.424c-0.086,0.182-0.121,0.394-0.121,0.622
	c0,0.254,0.039,0.489,0.131,0.682c0.07,0.19,0.193,0.361,0.311,0.469c0.142,0.12,0.288,0.212,0.435,0.269
	c0.285,0.132,0.587,0.178,0.895,0.178c0.396,0,0.731-0.053,1.014-0.197c0.244-0.141,0.454-0.321,0.575-0.589
	c0.124-0.261,0.191-0.541,0.191-0.834c0-0.246-0.053-0.492-0.144-0.743c-0.107-0.248-0.203-0.415-0.311-0.552h-0.84V135.599z
	 M5.147,142.097v-0.601H9.57v0.601H5.147z M9.57,147.879l-4.423,1.707v-0.636l3.205-1.148c0.276-0.089,0.516-0.183,0.726-0.244
	c-0.226-0.061-0.472-0.145-0.726-0.23l-3.205-1.196v-0.601l4.423,1.74V147.879z"/>
<path fill-rule="evenodd" clip-rule="evenodd" fill="#161A27" d="M4.547,2.912V1.507L3.411,1.958
	C3.07,2.092,2.773,2.175,2.562,2.237c0.251,0.057,0.519,0.118,0.784,0.22L4.547,2.912z M6.229,4.08L2.133,2.508V1.932l4.097-1.676
	v0.617L4.995,1.351v1.717l1.235,0.434V4.08z M3.943,7.229V6.064c0-0.252-0.027-0.454-0.082-0.583
	C3.805,5.337,3.73,5.238,3.619,5.167C3.5,5.101,3.374,5.044,3.246,5.044c-0.176,0-0.356,0.071-0.474,0.207
	c-0.12,0.152-0.187,0.372-0.187,0.676v1.302H3.943z M6.229,7.766H2.133v-1.81c0-0.374,0.034-0.643,0.109-0.841
	c0.065-0.198,0.197-0.345,0.379-0.452c0.191-0.111,0.407-0.171,0.625-0.171c0.299,0,0.549,0.092,0.735,0.278
	c0.202,0.188,0.33,0.474,0.387,0.878c0.062-0.146,0.129-0.26,0.198-0.327C4.708,5.167,4.896,5.006,5.1,4.883l1.13-0.722v0.685
	l-0.86,0.526c-0.242,0.162-0.44,0.302-0.562,0.404C4.69,5.878,4.585,5.963,4.533,6.034C4.481,6.124,4.449,6.209,4.43,6.291
	c-0.024,0.06-0.024,0.162-0.024,0.303v0.635h1.824V7.766z M6.229,11.585H2.133V8.624h0.488v2.424h1.241v-2.27h0.495v2.27h1.397
	V8.521h0.476V11.585z M2.133,13.096v-0.549h4.097v0.549H2.133z M4.776,14.379l0.153-0.53c0.44,0.132,0.792,0.318,1.015,0.615
	c0.227,0.305,0.353,0.654,0.353,1.084c0,0.442-0.094,0.803-0.278,1.083c-0.172,0.275-0.438,0.487-0.77,0.624
	c-0.353,0.141-0.716,0.212-1.092,0.212c-0.435,0-0.811-0.071-1.113-0.23c-0.322-0.17-0.572-0.394-0.736-0.693
	c-0.15-0.311-0.254-0.643-0.254-1.015c0-0.402,0.104-0.731,0.31-1.027c0.223-0.273,0.515-0.468,0.894-0.584l0.117,0.538
	c-0.293,0.109-0.516,0.231-0.64,0.413c-0.148,0.18-0.215,0.4-0.215,0.68c0,0.319,0.08,0.59,0.231,0.793
	c0.16,0.212,0.354,0.363,0.595,0.446c0.258,0.086,0.536,0.145,0.811,0.145c0.335,0,0.64-0.059,0.9-0.161
	c0.263-0.114,0.458-0.274,0.577-0.487c0.125-0.204,0.198-0.438,0.198-0.693c0-0.308-0.077-0.551-0.262-0.77
	C5.402,14.594,5.132,14.464,4.776,14.379 M6.229,21.461H2.133v-0.565l3.211-2.14H2.133v-0.521h4.097v0.559l-3.216,2.139h3.216
	V21.461z M4.547,24.531v-1.387l-1.137,0.422c-0.34,0.135-0.637,0.248-0.849,0.29c0.251,0.082,0.519,0.135,0.784,0.224L4.547,24.531z
	 M6.229,25.724l-4.097-1.588v-0.575l4.097-1.677v0.61l-1.235,0.499V24.7l1.235,0.448V25.724z M6.229,29.398H2.133v-0.534L5.344,26.7
	H2.133v-0.523h4.097v0.554l-3.216,2.161h3.216V29.398z M2.133,30.903V30.36h4.097v0.543H2.133z M6.229,34.46H2.133v-2.756h0.488
	v2.227h1.26v-1.928h0.491v1.928h1.857V34.46z M4.547,39.162v-1.396l-1.137,0.439c-0.34,0.127-0.637,0.228-0.849,0.296
	c0.251,0.051,0.519,0.118,0.784,0.22L4.547,39.162z M6.229,40.351l-4.097-1.575v-0.589l4.097-1.681v0.634l-1.235,0.473v1.726
	l1.235,0.432V40.351z M2.133,41.407v-0.548h4.097v0.548H2.133z M4.776,42.708l0.153-0.555c0.44,0.107,0.792,0.335,1.015,0.622
	c0.227,0.298,0.353,0.668,0.353,1.091c0,0.424-0.094,0.789-0.278,1.061c-0.172,0.301-0.438,0.505-0.77,0.648
	c-0.353,0.132-0.716,0.203-1.092,0.203c-0.435,0-0.811-0.071-1.113-0.254c-0.322-0.136-0.572-0.382-0.736-0.676
	c-0.15-0.306-0.254-0.646-0.254-0.999c0-0.406,0.104-0.759,0.31-1.032c0.223-0.292,0.515-0.48,0.894-0.599l0.117,0.524
	c-0.293,0.12-0.516,0.238-0.64,0.421c-0.148,0.202-0.215,0.417-0.215,0.702c0,0.311,0.08,0.576,0.231,0.78
	c0.16,0.212,0.354,0.363,0.595,0.454c0.258,0.077,0.536,0.129,0.811,0.129c0.335,0,0.64-0.052,0.9-0.154
	c0.263-0.108,0.458-0.262,0.577-0.486c0.125-0.206,0.198-0.441,0.198-0.687c0-0.315-0.077-0.552-0.262-0.778
	C5.402,42.921,5.132,42.775,4.776,42.708 M6.229,49.76H2.133v-0.552l3.211-2.154H2.133v-0.516h4.097v0.558l-3.216,2.141h3.216V49.76
	z M6.229,53.558H2.133v-2.952h0.488v2.414h1.241v-2.255h0.495v2.255h1.397v-2.509h0.476V53.558z M5.754,57.163v-0.862
	c0-0.273-0.033-0.491-0.098-0.636c-0.037-0.15-0.117-0.284-0.188-0.371c-0.143-0.125-0.309-0.237-0.539-0.289
	c-0.204-0.09-0.467-0.115-0.773-0.115c-0.435,0-0.764,0.063-0.997,0.208c-0.217,0.137-0.387,0.298-0.468,0.508
	c-0.04,0.15-0.071,0.39-0.071,0.701v0.856H5.754z M6.229,57.708H2.133v-1.401c0-0.331,0.023-0.563,0.057-0.741
	c0.052-0.239,0.142-0.424,0.282-0.608c0.191-0.204,0.419-0.364,0.708-0.476c0.285-0.101,0.617-0.165,0.978-0.165
	c0.306,0,0.588,0.056,0.838,0.107c0.22,0.091,0.44,0.169,0.586,0.293c0.173,0.104,0.269,0.236,0.372,0.376
	c0.084,0.114,0.146,0.288,0.199,0.491c0.052,0.18,0.078,0.392,0.078,0.655V57.708z M6.229,61.848H2.133v-0.568l3.211-2.134H2.133
	V58.63h4.097v0.552l-3.216,2.146h3.216V61.848z M6.229,65.653H2.133V62.69h0.488v2.423h1.241v-2.263l0.495,0v2.264h1.397v-2.517
	h0.476V65.653z M6.229,68.124H2.621v1.344H2.133v-3.239h0.488v1.344h3.608V68.124z M6.229,73.305l-4.097,0v-0.562L5.345,70.6H2.133
	v-0.527h4.097v0.558l-3.216,2.144l3.216,0V73.305z M2.133,74.798v-0.55l4.097,0v0.55H2.133z M3.943,78.468v-1.166
	c0-0.253-0.026-0.441-0.081-0.577c-0.057-0.145-0.132-0.252-0.243-0.327c-0.119-0.057-0.245-0.108-0.373-0.108
	c-0.176,0-0.355,0.074-0.474,0.208c-0.12,0.137-0.187,0.373-0.187,0.668v1.303H3.943z M6.229,79.002H2.133v-1.816
	c0-0.35,0.034-0.643,0.109-0.822c0.064-0.195,0.197-0.34,0.379-0.459c0.191-0.12,0.407-0.172,0.625-0.172
	c0.299,0,0.55,0.089,0.735,0.291c0.202,0.194,0.33,0.468,0.387,0.865c0.062-0.134,0.13-0.255,0.198-0.321
	c0.143-0.17,0.33-0.314,0.533-0.459l1.13-0.708v0.683l-0.86,0.549c-0.241,0.148-0.439,0.289-0.562,0.392
	c-0.117,0.09-0.223,0.191-0.274,0.263c-0.052,0.079-0.084,0.174-0.104,0.249c-0.024,0.078-0.024,0.165-0.024,0.306v0.627h1.824
	V79.002z M6.229,82.823H2.133v-2.968h0.488v2.432h1.241v-2.285h0.495v2.285h1.396V79.77h0.476V82.823z M4.084,86.126v-1.069
	c0-0.358-0.068-0.599-0.202-0.743c-0.126-0.152-0.315-0.218-0.542-0.218c-0.18,0-0.312,0.042-0.449,0.118
	c-0.118,0.1-0.208,0.201-0.238,0.348c-0.031,0.085-0.031,0.26-0.031,0.5v1.064H4.084z M6.229,86.646H2.133v-1.544
	c0-0.263,0.023-0.468,0.034-0.616c0.032-0.194,0.098-0.373,0.191-0.52c0.097-0.115,0.228-0.227,0.414-0.306
	c0.152-0.091,0.332-0.122,0.544-0.122c0.345,0,0.659,0.11,0.887,0.322c0.236,0.21,0.363,0.622,0.363,1.2v1.064h1.663V86.646z
	 M2.133,88.094v-0.533h2.358c0.405,0,0.735,0.044,0.989,0.146c0.241,0.081,0.438,0.25,0.6,0.504c0.133,0.24,0.217,0.557,0.217,0.945
	s-0.067,0.702-0.208,0.941c-0.112,0.252-0.32,0.423-0.56,0.531c-0.256,0.102-0.6,0.153-1.038,0.153H2.133v-0.548h2.358
	c0.363,0,0.608-0.027,0.782-0.093c0.171-0.065,0.308-0.181,0.383-0.331c0.103-0.173,0.154-0.367,0.154-0.599
	c0-0.4-0.089-0.694-0.271-0.849c-0.194-0.176-0.535-0.27-1.048-0.27H2.133z M4.896,94.796l-0.027-0.514
	c0.202-0.027,0.38-0.081,0.5-0.17c0.131-0.093,0.234-0.232,0.32-0.415c0.069-0.176,0.121-0.39,0.121-0.628
	c0-0.202-0.042-0.387-0.089-0.547c-0.065-0.169-0.152-0.271-0.241-0.357c-0.136-0.066-0.231-0.118-0.381-0.118
	c-0.104,0-0.23,0.025-0.331,0.118c-0.078,0.066-0.179,0.188-0.235,0.371c-0.042,0.105-0.104,0.355-0.188,0.728
	c-0.085,0.383-0.189,0.631-0.262,0.777c-0.103,0.214-0.228,0.367-0.38,0.45c-0.146,0.103-0.33,0.136-0.525,0.136
	c-0.202,0-0.378-0.059-0.558-0.172c-0.195-0.115-0.32-0.279-0.432-0.504c-0.085-0.231-0.137-0.481-0.137-0.776
	c0-0.283,0.052-0.553,0.155-0.779c0.099-0.236,0.237-0.414,0.444-0.541c0.18-0.129,0.391-0.187,0.627-0.195l0.045,0.532
	c-0.254,0.012-0.466,0.121-0.584,0.266c-0.136,0.165-0.211,0.395-0.211,0.707c0,0.345,0.069,0.575,0.194,0.716
	c0.116,0.161,0.253,0.232,0.437,0.232c0.144,0,0.265-0.058,0.35-0.161c0.094-0.097,0.194-0.386,0.296-0.814
	c0.111-0.439,0.185-0.735,0.262-0.905c0.116-0.24,0.259-0.413,0.424-0.538c0.156-0.086,0.363-0.166,0.58-0.166
	c0.206,0,0.429,0.08,0.618,0.198c0.188,0.112,0.329,0.297,0.45,0.525c0.108,0.237,0.157,0.501,0.157,0.801
	c0,0.373-0.049,0.688-0.167,0.934c-0.111,0.236-0.272,0.438-0.496,0.583C5.436,94.707,5.189,94.786,4.896,94.796 M10.745,30.414
	v-1.379l-1.142,0.421c-0.345,0.135-0.617,0.229-0.854,0.296c0.27,0.05,0.542,0.12,0.81,0.21L10.745,30.414z M12.42,31.605
	L8.325,30.03v-0.59l4.095-1.663v0.608l-1.238,0.479v1.708l1.238,0.455V31.605z M8.325,32.653v-0.542h4.095v0.542H8.325z
	 M11.943,36.057v-1.022c0-0.178,0-0.312-0.009-0.38c-0.03-0.123-0.072-0.227-0.127-0.313c-0.052-0.09-0.134-0.161-0.209-0.218
	c-0.118-0.042-0.221-0.06-0.362-0.06c-0.147,0-0.279,0.023-0.398,0.116c-0.108,0.071-0.187,0.181-0.236,0.313
	c-0.03,0.131-0.061,0.35-0.061,0.608v0.955H11.943z M10.066,36.057v-0.901c0-0.242-0.033-0.416-0.058-0.524
	c-0.033-0.128-0.104-0.229-0.218-0.313c-0.087-0.059-0.207-0.085-0.341-0.085c-0.145,0-0.259,0.018-0.372,0.085
	c-0.101,0.066-0.177,0.161-0.209,0.286c-0.042,0.118-0.054,0.328-0.054,0.618v0.834H10.066z M12.42,36.589H8.325v-1.553
	c0-0.308,0.05-0.557,0.131-0.745c0.082-0.188,0.209-0.335,0.383-0.43c0.169-0.109,0.351-0.18,0.546-0.18
	c0.173,0,0.333,0.07,0.486,0.155c0.161,0.094,0.273,0.236,0.381,0.423c0.074-0.256,0.188-0.423,0.357-0.578
	c0.176-0.124,0.402-0.191,0.625-0.191c0.198,0,0.376,0.04,0.545,0.108c0.163,0.083,0.299,0.193,0.374,0.313
	c0.095,0.118,0.159,0.269,0.202,0.455c0.06,0.187,0.064,0.4,0.064,0.668V36.589z M12.42,41.349H8.325v-0.812l2.911-0.974
	l0.616-0.199c-0.164-0.026-0.381-0.127-0.67-0.206l-2.856-0.986v-0.735h4.095v0.532H8.995l3.425,1.189v0.475l-3.477,1.198h3.477
	V41.349z M10.441,45.397c0.491,0,0.879-0.142,1.171-0.422c0.272-0.253,0.409-0.593,0.409-0.982c0-0.412-0.137-0.748-0.423-1.012
	c-0.278-0.258-0.696-0.4-1.218-0.4c-0.314,0-0.62,0.06-0.871,0.162c-0.251,0.12-0.443,0.29-0.566,0.502
	c-0.152,0.225-0.223,0.478-0.223,0.748c0,0.374,0.147,0.718,0.398,0.982C9.386,45.256,9.821,45.397,10.441,45.397 M10.432,45.945
	c-0.677,0-1.22-0.187-1.605-0.548c-0.371-0.358-0.571-0.836-0.571-1.404c0-0.387,0.097-0.734,0.272-1.021
	c0.178-0.306,0.43-0.543,0.763-0.712c0.312-0.151,0.684-0.235,1.098-0.235c0.413,0,0.792,0.086,1.106,0.265
	c0.327,0.141,0.583,0.41,0.753,0.691c0.167,0.327,0.245,0.656,0.245,1.012c0,0.39-0.078,0.729-0.278,1.023
	c-0.195,0.306-0.435,0.542-0.753,0.701C11.13,45.878,10.786,45.945,10.432,45.945 M12.42,48.988H8.325v-0.539h3.618v-2.024h0.477
	V48.988z M10.441,53.019c0.491,0,0.879-0.11,1.171-0.377c0.272-0.283,0.409-0.619,0.409-1.017c0-0.402-0.137-0.741-0.423-1.004
	c-0.278-0.264-0.696-0.391-1.218-0.391c-0.314,0-0.62,0.053-0.871,0.161c-0.251,0.119-0.443,0.277-0.566,0.492
	c-0.152,0.212-0.223,0.455-0.223,0.741c0,0.374,0.147,0.701,0.398,0.975C9.386,52.892,9.821,53.019,10.441,53.019 M10.432,53.579
	c-0.677,0-1.22-0.182-1.605-0.552c-0.371-0.362-0.571-0.825-0.571-1.401c0-0.379,0.097-0.728,0.272-1.02
	c0.178-0.309,0.43-0.534,0.763-0.695c0.312-0.169,0.684-0.239,1.098-0.239c0.413,0,0.792,0.07,1.106,0.241
	c0.327,0.183,0.583,0.41,0.753,0.72c0.167,0.293,0.245,0.642,0.245,0.993c0,0.38-0.078,0.729-0.278,1.039
	c-0.195,0.309-0.435,0.532-0.753,0.685C11.13,53.504,10.786,53.579,10.432,53.579 M10.981,54.631l0.148-0.541
	c0.443,0.103,0.774,0.318,1.024,0.601c0.231,0.316,0.339,0.662,0.339,1.1c0,0.43-0.078,0.785-0.259,1.066
	c-0.181,0.279-0.435,0.499-0.792,0.64c-0.335,0.137-0.708,0.21-1.105,0.21c-0.409,0-0.779-0.077-1.099-0.25
	c-0.319-0.146-0.565-0.37-0.736-0.691c-0.151-0.289-0.248-0.612-0.248-1.003c0-0.383,0.107-0.739,0.315-1.027
	c0.218-0.271,0.507-0.472,0.882-0.576l0.13,0.522c-0.305,0.102-0.532,0.247-0.64,0.415c-0.152,0.19-0.223,0.417-0.223,0.694
	c0,0.32,0.086,0.584,0.237,0.784c0.135,0.206,0.346,0.357,0.603,0.44c0.255,0.092,0.518,0.121,0.777,0.121
	c0.356,0,0.658-0.043,0.921-0.143c0.263-0.1,0.465-0.263,0.593-0.476c0.124-0.212,0.169-0.446,0.169-0.686
	c0-0.306-0.065-0.565-0.24-0.777C11.598,54.848,11.329,54.692,10.981,54.631 M12.42,62.951H8.325v-2.965h0.489v2.433h1.255v-2.281
	h0.486v2.281h1.388V59.9h0.477V62.951z M11.943,66.551v-0.87c0-0.271-0.025-0.483-0.082-0.644c-0.045-0.143-0.12-0.27-0.212-0.351
	c-0.128-0.141-0.288-0.23-0.52-0.309c-0.202-0.073-0.462-0.105-0.792-0.105c-0.424,0-0.754,0.079-0.979,0.212
	c-0.232,0.131-0.384,0.308-0.464,0.512c-0.056,0.15-0.081,0.38-0.081,0.699l0,0.856H11.943z M12.42,67.091H8.325v-1.396
	c0-0.333,0.027-0.571,0.062-0.741c0.065-0.23,0.151-0.438,0.302-0.593c0.179-0.218,0.404-0.379,0.697-0.488
	c0.282-0.111,0.605-0.17,0.971-0.17c0.311,0,0.587,0.042,0.825,0.116c0.247,0.07,0.449,0.163,0.599,0.288
	c0.163,0.112,0.273,0.229,0.374,0.363c0.095,0.135,0.159,0.297,0.202,0.484c0.06,0.21,0.064,0.422,0.064,0.662V67.091z"/>
<path fill-rule="evenodd" clip-rule="evenodd" fill="#161A27" d="M12.545,152.5V98.051h1.727V152.5H12.545z M0,152.5V98.051h1.721
	V152.5H0z"/>
</svg>
