<?xml version="1.0" encoding="utf-8"?>
<!-- Generator: Adobe Illustrator 16.0.3, SVG Export Plug-In . SVG Version: 6.00 Build 0)  -->
<!DOCTYPE svg PUBLIC "-//W3C//DTD SVG 1.1//EN" "http://www.w3.org/Graphics/SVG/1.1/DTD/svg11.dtd">
<svg version="1.1" id="Capa_1" xmlns="http://www.w3.org/2000/svg" xmlns:xlink="http://www.w3.org/1999/xlink" x="0px" y="0px"
	 width="50px" height="31.75px" viewBox="0 2.75 50 31.75" enable-background="new 0 2.75 50 31.75" xml:space="preserve">
<path fill="none" stroke="#1E1B1B" stroke-width="2" stroke-miterlimit="10" d="M33.125,22.875v-2c0-1.061-0.422-2.078-1.172-2.828
	s-1.768-1.172-2.828-1.172h-8c-1.061,0-2.078,0.422-2.829,1.172c-0.75,0.75-1.171,1.768-1.171,2.828v2 M29.125,8.875
	c0,2.209-1.791,4-4,4s-4-1.791-4-4s1.791-4,4-4S29.125,6.666,29.125,8.875z"/>
<g>
	<path fill="#1E1B1B" d="M0.425,25.896h2.288l1.924,4.718l1.866-4.718h2.288V33.7H7.396v-6.372l-1.913,4.646H3.734l-1.913-4.646
		V33.7H0.425V25.896z"/>
	<path fill="#1E1B1B" d="M11.773,27h-1.561v-1.49h1.561V27z M11.667,33.701h-1.349v-5.796h1.349V33.701z"/>
	<path fill="#1E1B1B" d="M15.188,30.791c0-1.654,1.033-3.027,2.828-3.027c1.255,0,2.44,0.799,2.546,2.102h-1.385
		c-0.188-0.774-0.786-0.869-1.173-0.869c-0.739,0-1.432,0.527-1.432,1.807c0,1.291,0.681,1.784,1.432,1.784
		c0.364,0,0.938-0.082,1.185-0.868h1.385c-0.211,1.35-1.232,2.112-2.57,2.1C16.139,33.807,15.188,32.445,15.188,30.791z"/>
	<path fill="#1E1B1B" d="M26.477,33.701h-1.162l-0.118-0.868c-0.305,0.622-0.938,1.009-1.654,1.009c-1.15,0-1.971-0.751-1.971-2.17
		v-3.767h1.337v3.567c0,0.82,0.481,1.125,0.962,1.125c0.575,0,1.267-0.445,1.267-1.35v-3.344h1.338V33.701L26.477,33.701z"/>
	<path fill="#1E1B1B" d="M33.119,30.72l-0.012,0.388h-4.096c-0.035,0.845,0.575,1.561,1.49,1.561c0.469,0,1.021-0.141,1.221-0.811
		h1.313c-0.235,1.115-1.08,1.972-2.522,1.972c-1.82,0-2.863-1.373-2.863-3.039c0-1.76,1.043-3.026,2.77-3.026
		C31.628,27.764,33.119,28.491,33.119,30.72z M29.07,30.146h2.652c0-0.752-0.576-1.291-1.268-1.291
		C29.669,28.854,29.141,29.43,29.07,30.146z"/>
	<path fill="#1E1B1B" d="M34.293,27.904h1.173l0.104,1.031c0.224-0.763,0.986-1.172,1.75-1.172c1.326,0,2.018,0.844,2.018,2.264
		v3.674h-1.35v-3.508c0-0.822-0.422-1.162-0.973-1.162c-0.623,0-1.373,0.41-1.373,1.361v3.309h-1.35V27.904z"/>
	<path fill="#1E1B1B" d="M43.798,32.539v1.15c-0.235,0.035-0.47,0.047-0.704,0.047c-1.338,0-2.171-0.586-2.171-1.913v-2.757h-0.88
		v-0.764c1.139-0.492,1.208-1.725,1.208-1.795h1.278c0.035,0.799-0.198,1.15-0.469,1.396h1.666v1.162h-1.478v2.617
		c0,0.68,0.293,0.879,1.103,0.879C43.504,32.563,43.645,32.551,43.798,32.539z"/>
	<path fill="#1E1B1B" d="M44.326,32.023c0-1.209,1.08-1.808,2.183-1.808c0.517,0,1.009,0.129,1.361,0.375v-0.657
		c0-0.798-0.47-1.08-1.08-1.08c-0.657,0-1.044,0.422-1.044,1.01h-1.244c-0.07-0.975,0.563-2.102,2.357-2.102
		c1.326,0,2.313,0.717,2.313,2.301v2.299c0,0.166,0.094,0.388,0.493,0.375v0.998l-0.306,0.035c-0.785,0.047-1.465-0.422-1.43-0.974
		c-0.293,0.763-0.975,1.021-1.597,1.021C45.253,33.818,44.326,33.148,44.326,32.023z M47.857,31.6
		c-0.293-0.233-0.762-0.363-1.254-0.363c-0.528,0-1.033,0.27-1.033,0.763c0,0.54,0.505,0.692,0.927,0.704
		C46.966,32.715,47.857,32.492,47.857,31.6z"/>
</g>
</svg>
