<?xml version="1.0" encoding="utf-8"?>
<!-- Generator: Adobe Illustrator 16.0.3, SVG Export Plug-In . SVG Version: 6.00 Build 0)  -->
<!DOCTYPE svg PUBLIC "-//W3C//DTD SVG 1.1//EN" "http://www.w3.org/Graphics/SVG/1.1/DTD/svg11.dtd">
<svg version="1.1" id="Capa_1" xmlns="http://www.w3.org/2000/svg" xmlns:xlink="http://www.w3.org/1999/xlink" x="0px" y="0px"
	 width="50px" height="34.5px" viewBox="0 0 50 34.5" enable-background="new 0 0 50 34.5" xml:space="preserve">
<g>
	<path fill="none" stroke="#F2CD00" stroke-width="2" stroke-linecap="round" stroke-linejoin="round" d="M-28.468,22.077
		c0.553,0,1-0.447,1-1s-0.447-1-1-1s-1,0.447-1,1S-29.021,22.077-28.468,22.077z"/>
	<path fill="none" stroke="#F2CD00" stroke-width="2" stroke-linecap="round" stroke-linejoin="round" d="M-39.468,22.077
		c0.552,0,1-0.447,1-1s-0.448-1-1-1s-1,0.447-1,1S-40.02,22.077-39.468,22.077z"/>
	<path fill="none" stroke="#F2CD00" stroke-width="2" stroke-linecap="round" stroke-linejoin="round" d="M-47.468,1.078h4
		l2.68,13.391c0.091,0.46,0.342,0.873,0.708,1.168c0.365,0.294,0.823,0.45,1.292,0.441h9.72c0.469,0.009,0.926-0.147,1.291-0.441
		c0.367-0.295,0.617-0.708,0.709-1.168l1.6-8.391h-17"/>
</g>
<g>
	<path fill="#F2CD00" d="M-59.125,25.777h2.341l1.969,4.826l1.909-4.826h2.341v7.984h-1.428v-6.52l-1.957,4.755h-1.789l-1.957-4.755
		v6.52h-1.429V25.777z"/>
	<path fill="#F2CD00" d="M-47.518,26.905h-1.597V25.38h1.597V26.905z M-47.626,33.761h-1.38V27.83h1.38V33.761z"/>
	<path fill="#F2CD00" d="M-44.026,30.783c0-1.693,1.057-3.098,2.894-3.098c1.285,0,2.497,0.817,2.605,2.149h-1.417
		c-0.192-0.792-0.804-0.887-1.201-0.887c-0.756,0-1.464,0.54-1.464,1.848c0,1.321,0.696,1.825,1.464,1.825
		c0.372,0,0.96-0.083,1.213-0.888h1.417c-0.216,1.381-1.261,2.161-2.629,2.149C-43.053,33.868-44.026,32.476-44.026,30.783z"/>
	<path fill="#F2CD00" d="M-37.748,32.043c0-1.236,1.105-1.848,2.233-1.848c0.528,0,1.032,0.132,1.394,0.384v-0.672
		c0-0.817-0.481-1.105-1.105-1.105c-0.672,0-1.068,0.433-1.068,1.032h-1.272c-0.072-0.996,0.576-2.149,2.413-2.149
		c1.357,0,2.366,0.732,2.366,2.354v2.353c0,0.169,0.096,0.397,0.504,0.384v1.021l-0.313,0.036c-0.804,0.049-1.501-0.432-1.465-0.997
		c-0.3,0.78-0.997,1.045-1.633,1.045C-36.799,33.881-37.748,33.196-37.748,32.043z M-34.134,31.612
		c-0.3-0.241-0.78-0.373-1.285-0.373c-0.541,0-1.057,0.276-1.057,0.781c0,0.552,0.516,0.708,0.949,0.72
		C-35.046,32.753-34.134,32.523-34.134,31.612z"/>
	<path fill="#F2CD00" d="M-28.204,29.139c-0.925-0.096-1.741,0.096-1.741,1.332v3.29h-1.38V27.83h1.224l0.083,1.008
		c0.216-0.816,0.769-1.213,1.813-1.117V29.139z"/>
	<path fill="#F2CD00" d="M-24.052,29.139c-0.925-0.096-1.741,0.096-1.741,1.332v3.29h-1.38V27.83h1.224l0.083,1.008
		c0.216-0.816,0.769-1.213,1.813-1.117V29.139z"/>
	<path fill="#F2CD00" d="M-21.531,26.905h-1.597V25.38h1.597V26.905z M-21.639,33.761h-1.382V27.83h1.382V33.761z"/>
	<path fill="#F2CD00" d="M-16.839,32.572v1.177c-0.239,0.036-0.479,0.048-0.72,0.048c-1.369,0-2.221-0.601-2.221-1.957v-2.822
		h-0.901v-0.781c1.165-0.503,1.237-1.765,1.237-1.837h1.309c0.036,0.817-0.204,1.177-0.48,1.429h1.705v1.188h-1.512v2.677
		c0,0.697,0.3,0.902,1.128,0.902C-17.139,32.597-16.994,32.584-16.839,32.572z"/>
	<path fill="#F2CD00" d="M-16.287,30.783c0-1.717,1.26-3.134,3.038-3.134c1.813,0,3.049,1.417,3.049,3.134
		c0,1.705-1.237,3.134-3.038,3.134C-15.05,33.917-16.287,32.488-16.287,30.783z M-11.616,30.808c0-0.937-0.54-1.91-1.621-1.91
		c-1.092,0-1.633,0.973-1.633,1.91c0,0.924,0.504,1.848,1.633,1.848C-12.121,32.656-11.616,31.719-11.616,30.808z"/>
</g>
<path fill="none" stroke="#F2CD00" stroke-width="2" stroke-miterlimit="10" d="M33.125,22.875v-2c0-1.061-0.422-2.078-1.172-2.828
	s-1.768-1.172-2.828-1.172h-8c-1.061,0-2.078,0.422-2.829,1.172c-0.75,0.75-1.171,1.768-1.171,2.828v2 M29.125,8.875
	c0,2.209-1.791,4-4,4s-4-1.791-4-4s1.791-4,4-4S29.125,6.666,29.125,8.875z"/>
<g>
	<path fill="#F2CD00" d="M0.425,25.897h2.288l1.924,4.717l1.866-4.717h2.288v7.803H7.396v-6.372l-1.913,4.646H3.734l-1.913-4.646
		v6.372H0.425V25.897z"/>
	<path fill="#F2CD00" d="M11.773,27h-1.561v-1.49h1.561V27z M11.667,33.701h-1.349v-5.796h1.349V33.701z"/>
	<path fill="#F2CD00" d="M15.188,30.791c0-1.654,1.033-3.027,2.828-3.027c1.255,0,2.44,0.798,2.546,2.101h-1.385
		c-0.188-0.774-0.786-0.869-1.173-0.869c-0.739,0-1.432,0.528-1.432,1.807c0,1.291,0.681,1.784,1.432,1.784
		c0.364,0,0.938-0.082,1.185-0.868h1.385c-0.211,1.349-1.232,2.112-2.57,2.1C16.139,33.806,15.188,32.445,15.188,30.791z"/>
	<path fill="#F2CD00" d="M26.477,33.701h-1.162l-0.118-0.868c-0.305,0.622-0.938,1.009-1.654,1.009c-1.15,0-1.971-0.751-1.971-2.17
		v-3.767h1.337v3.567c0,0.821,0.481,1.126,0.962,1.126c0.575,0,1.267-0.446,1.267-1.35v-3.344h1.338V33.701z"/>
	<path fill="#F2CD00" d="M33.119,30.72l-0.012,0.387h-4.095c-0.035,0.845,0.575,1.561,1.49,1.561c0.469,0,1.021-0.141,1.22-0.81
		h1.314c-0.235,1.115-1.08,1.971-2.523,1.971c-1.819,0-2.863-1.373-2.863-3.039c0-1.76,1.044-3.027,2.77-3.027
		C31.628,27.763,33.119,28.491,33.119,30.72z M29.07,30.146h2.652c0-0.751-0.575-1.291-1.267-1.291
		C29.669,28.854,29.141,29.43,29.07,30.146z"/>
	<path fill="#F2CD00" d="M34.293,27.904h1.173l0.105,1.032c0.223-0.763,0.986-1.173,1.749-1.173c1.326,0,2.018,0.845,2.018,2.265
		v3.673h-1.349v-3.508c0-0.822-0.422-1.162-0.974-1.162c-0.622,0-1.373,0.411-1.373,1.361v3.309h-1.349V27.904z"/>
	<path fill="#F2CD00" d="M43.798,32.539v1.15c-0.235,0.035-0.47,0.047-0.704,0.047c-1.338,0-2.171-0.586-2.171-1.913v-2.757h-0.88
		v-0.763c1.138-0.493,1.208-1.725,1.208-1.795h1.279c0.035,0.798-0.199,1.15-0.469,1.396h1.666v1.162h-1.478v2.617
		c0,0.68,0.293,0.88,1.103,0.88C43.504,32.563,43.645,32.551,43.798,32.539z"/>
	<path fill="#F2CD00" d="M44.326,32.023c0-1.209,1.08-1.807,2.183-1.807c0.516,0,1.009,0.129,1.361,0.375v-0.657
		c0-0.798-0.47-1.08-1.08-1.08c-0.657,0-1.044,0.422-1.044,1.009h-1.244c-0.071-0.974,0.563-2.101,2.358-2.101
		c1.326,0,2.312,0.716,2.312,2.3v2.3c0,0.165,0.094,0.387,0.493,0.375v0.998l-0.305,0.035c-0.786,0.047-1.466-0.422-1.431-0.974
		c-0.293,0.763-0.974,1.021-1.596,1.021C45.253,33.818,44.326,33.149,44.326,32.023z M47.858,31.6
		c-0.293-0.234-0.763-0.364-1.255-0.364c-0.528,0-1.033,0.27-1.033,0.763c0,0.54,0.505,0.692,0.927,0.704
		C46.966,32.715,47.858,32.492,47.858,31.6z"/>
</g>
</svg>
