<?xml version="1.0" encoding="utf-8"?>
<!-- Generator: Adobe Illustrator 27.0.1, SVG Export Plug-In . SVG Version: 6.00 Build 0)  -->
<svg version="1.1" id="Capa_1" xmlns="http://www.w3.org/2000/svg" xmlns:xlink="http://www.w3.org/1999/xlink" x="0px" y="0px"
	 viewBox="0 0 200 45" style="enable-background:new 0 0 200 45;" xml:space="preserve">
<style type="text/css">
	.st0{fill:#122D80;}
	.st1{clip-path:url(#SVGID_00000021837193737081285410000003927236197428105099_);}
	.st2{clip-path:url(#SVGID_00000151534677622283109610000018079248320195751585_);fill:#00BB2D;}
	.st3{clip-path:url(#SVGID_00000151534677622283109610000018079248320195751585_);fill:#EDEDED;}
	.st4{fill:none;}
	.st5{fill:#EDEDED;}
</style>
<path class="st0" d="M191,45H9c-5,0-9-4-9-9V9c0-5,4-9,9-9h182c5,0,9,4,9,9v27C200,41,196,45,191,45z"/>
<g>
	<g id="Ilustración_4_00000025427745908354982130000003622832159397556887_">
		<g>
			<defs>
				<rect id="SVGID_1_" x="115.9" y="8.5" width="28.8" height="28.8"/>
			</defs>
			<clipPath id="SVGID_00000071544250021599613900000013244795529216946619_">
				<use xlink:href="#SVGID_1_"  style="overflow:visible;"/>
			</clipPath>
			<g style="clip-path:url(#SVGID_00000071544250021599613900000013244795529216946619_);">
				<defs>
					<rect id="SVGID_00000036246374266667239390000013057294689813900947_" x="115.9" y="8.5" width="28.8" height="28.8"/>
				</defs>
				<clipPath id="SVGID_00000016058603365842332570000017430730545703151770_">
					<use xlink:href="#SVGID_00000036246374266667239390000013057294689813900947_"  style="overflow:visible;"/>
				</clipPath>
				<path style="clip-path:url(#SVGID_00000016058603365842332570000017430730545703151770_);fill:#00BB2D;" d="M117.7,35.6
					C117.6,35.6,117.6,35.6,117.7,35.6c-0.1-0.1,0-0.2,0-0.3c0.7-2,1.4-4,2-6c0.1-0.3,0.1-0.5-0.1-0.7c-1.5-2.7-2-5.6-1.3-8.7
					c1.2-5.5,6-9.5,11.6-9.7c2.7-0.1,5.2,0.5,7.5,2c3.5,2.3,5.3,5.6,5.6,9.8c0.1,2.2-0.3,4.4-1.4,6.3c-2.2,3.9-5.5,6.1-9.9,6.5
					c-2.4,0.3-4.8-0.2-6.9-1.4c-0.2-0.1-0.3-0.1-0.5,0c-1.8,0.6-3.5,1.1-5.3,1.7C118.5,35.3,118.1,35.5,117.7,35.6"/>
				<path style="clip-path:url(#SVGID_00000016058603365842332570000017430730545703151770_);fill:#EDEDED;" d="M116,37.3
					c0,0-0.1,0-0.1-0.1c0-0.1,0.1-0.2,0.1-0.3c0.8-2.3,1.5-4.5,2.3-6.8c0.1-0.3,0.1-0.5-0.1-0.8c-1.7-3.1-2.2-6.4-1.5-9.8
					c1.4-6.2,6.8-10.8,13.1-11c3.1-0.1,5.9,0.6,8.4,2.3c3.9,2.6,6,6.3,6.3,11.1c0.2,2.5-0.4,5-1.6,7.2c-2.5,4.4-6.2,6.9-11.2,7.4
					c-2.8,0.3-5.4-0.3-7.9-1.6c-0.2-0.1-0.3-0.1-0.5,0c-2,0.6-4,1.3-6,1.9C117,37,116.5,37.1,116,37.3 M119.4,33.8
					c1.4-0.5,2.8-0.9,4.2-1.3c0.3-0.1,0.5-0.1,0.8,0.1c1.4,0.9,3,1.4,4.7,1.6c3.6,0.4,6.8-0.6,9.5-3c2.8-2.6,4.1-5.8,3.9-9.6
					c-0.2-3.3-1.7-6.1-4.3-8.2c-2.2-1.8-4.7-2.7-7.5-2.7c-2.1,0-4,0.5-5.8,1.5c-1.9,1.1-3.5,2.6-4.6,4.5c-1.4,2.4-1.8,5.1-1.3,7.8
					c0.3,1.7,1,3.3,1.9,4.7c0.1,0.1,0.1,0.3,0,0.4c-0.2,0.5-0.4,1.1-0.5,1.6C120,32.1,119.7,32.9,119.4,33.8"/>
				<path style="clip-path:url(#SVGID_00000016058603365842332570000017430730545703151770_);fill:#EDEDED;" d="M126.2,16.1
					c0.6-0.2,0.9,0.2,1.1,0.8c0.3,0.7,0.6,1.5,0.9,2.2c0.2,0.4,0.1,0.8-0.1,1.1c-0.2,0.3-0.4,0.5-0.7,0.8c-0.3,0.4-0.3,0.5-0.1,0.9
					c1,1.7,2.4,3,4.3,3.8c0.8,0.4,0.8,0.4,1.4-0.3c0.2-0.3,0.5-0.6,0.7-0.9c0.3-0.4,0.5-0.4,0.9-0.2c0.7,0.3,1.3,0.6,2,0.9
					c0.2,0.1,0.3,0.2,0.5,0.2c0.5,0.3,0.6,0.3,0.5,0.9c-0.1,1.5-1.1,2.3-2.5,2.7c-0.7,0.2-1.4,0.1-2-0.1c-1.6-0.5-3.1-1-4.5-2
					c-1.2-0.9-2.3-2.1-3.2-3.3c-0.6-0.9-1.2-1.7-1.6-2.7c-0.5-1.6-0.3-3,0.9-4.2C125.2,16.2,125.4,16.1,126.2,16.1"/>
			</g>
		</g>
	</g>
	<g>
		<g id="XMLID_129_">
			<g id="XMLID_133_">
				<path class="st4" d="M185.3,30.9c0.9-0.8,1.2-2,0.6-3.1c-0.8-1.6-1.7-3.7-3.5-6.6c-0.8-1.2-3.2-3.8-3.2-3.8l-0.7-0.8
					c-0.6-0.7-1.6-0.9-2.3-0.4c-0.9,0.6-1,1.8-0.3,2.5l-1-1.2c-0.6-0.7-1.6-0.9-2.3-0.4c-0.9,0.6-1,1.8-0.3,2.5l-0.8-1
					c-0.6-0.7-1.6-0.9-2.3-0.4c-0.9,0.6-1,1.8-0.3,2.5l-3.8-4.6c-0.6-0.8-1.8-1-2.6-0.4c-0.9,0.7-1.1,2-0.4,2.8l9,10.7
					c0,0-0.1,0-0.1,0c-2.1-0.8-3.3-1.4-3.3-1.4l-0.8-0.3c-0.8-0.4-1.3-0.4-2,0.1c-0.4,0.3-0.6,0.7-0.6,1.2c-0.1,0.9,0.4,1.3,0.8,1.6
					l0.1,0.1c0,0,3.4,1.6,7.6,3.3c1.8,0.7,3,1.4,4,2c0.9,0.6,2.1,0.5,3-0.2L185.3,30.9z"/>
				<path class="st5" d="M177.8,37.3c-0.6,0-1.3-0.2-1.8-0.5c-1.1-0.7-2.4-1.3-3.8-1.9c-4.1-1.6-7.6-3.3-7.7-3.3c0,0-0.1,0-0.1-0.1
					l-0.1-0.1c0,0,0,0,0,0c-0.4-0.3-1.2-0.9-1.2-2.3c0-0.8,0.4-1.4,1-1.9c1-0.8,1.9-0.6,2.8-0.2l0.8,0.3c0,0,0,0,0.1,0
					c0,0,0,0,0.1,0l-6.7-7.9c-0.5-0.6-0.7-1.4-0.6-2.2c0.1-0.8,0.5-1.5,1.2-1.9c0.6-0.4,1.3-0.6,2-0.4c0.7,0.1,1.3,0.5,1.8,1
					l2.3,2.7c0.2-0.3,0.5-0.6,0.8-0.8c0.5-0.4,1.2-0.5,1.9-0.4c0.3,0,0.5,0.1,0.8,0.2c0.2-0.4,0.5-0.8,0.9-1
					c0.5-0.4,1.2-0.5,1.9-0.4c0.3,0.1,0.7,0.2,1,0.4c0.2-0.4,0.5-0.7,0.8-0.9c0.5-0.4,1.2-0.5,1.9-0.4c0.6,0.1,1.2,0.4,1.6,0.9
					l0.6,0.8c0.2,0.3,2.5,2.7,3.3,3.9c1.5,2.3,2.3,4.2,3.1,5.7c0.2,0.4,0.3,0.7,0.5,1c0.3,0.7,0.4,1.5,0.3,2.2
					c-0.2,0.7-0.6,1.4-1.1,1.9l-5.8,4.9C179.4,37,178.6,37.3,177.8,37.3z M165.4,30.1c0.5,0.2,3.7,1.7,7.5,3.2
					c1.5,0.6,2.9,1.3,4.1,2c0.6,0.4,1.4,0.3,2-0.1l5.8-4.9c0,0,0,0,0,0c0.6-0.5,0.8-1.3,0.4-2c-0.2-0.3-0.3-0.7-0.5-1
					c-0.7-1.5-1.6-3.3-3-5.5c-0.6-0.9-2.4-3-3.1-3.7c0,0,0,0,0,0l-0.7-0.8c-0.3-0.4-0.8-0.5-1.2-0.2c-0.2,0.1-0.3,0.4-0.4,0.6
					c0,0.2,0,0.5,0.2,0.7l0,0c0.3,0.4,0.3,0.9-0.1,1.2c-0.4,0.3-0.9,0.3-1.2-0.1l-1-1.2c-0.3-0.4-0.8-0.5-1.2-0.2
					c-0.2,0.1-0.3,0.4-0.4,0.6c0,0.2,0,0.5,0.2,0.7c0.3,0.4,0.3,0.9-0.1,1.2c-0.4,0.3-0.9,0.3-1.2-0.1l-0.8-1
					c-0.3-0.4-0.8-0.5-1.2-0.2c-0.2,0.1-0.3,0.4-0.4,0.6c0,0.2,0,0.5,0.2,0.7c0.3,0.4,0.3,0.9-0.1,1.2c-0.4,0.3-0.9,0.3-1.2-0.1v0
					c0,0,0,0,0,0l-3.8-4.6c-0.4-0.4-1-0.6-1.4-0.3c-0.2,0.2-0.4,0.4-0.4,0.7c0,0.3,0,0.6,0.2,0.8l9,10.7c0.2,0.3,0.3,0.7,0.1,1
					c-0.2,0.3-0.6,0.5-1,0.3l0,0c0,0-0.1,0-0.2-0.1c-2-0.8-3.1-1.3-3.3-1.4l-0.8-0.3c0,0,0,0,0,0c-0.7-0.3-0.8-0.2-1.1,0
					c-0.2,0.1-0.3,0.3-0.3,0.6C164.8,29.7,165,29.8,165.4,30.1L165.4,30.1z"/>
			</g>
			<g id="XMLID_132_">
				<line class="st5" x1="172.2" y1="19.8" x2="174.4" y2="22.4"/>
				<path class="st5" d="M174.4,23.3c-0.2,0-0.5-0.1-0.7-0.3l-2.2-2.6c-0.3-0.4-0.3-0.9,0.1-1.2c0.4-0.3,0.9-0.3,1.2,0.1l2.2,2.6
					c0.3,0.4,0.3,0.9-0.1,1.2C174.8,23.2,174.6,23.3,174.4,23.3z"/>
			</g>
			<g id="XMLID_131_">
				<line class="st5" x1="168.7" y1="21" x2="171.7" y2="24.7"/>
				<path class="st5" d="M171.7,25.5c-0.2,0-0.5-0.1-0.7-0.3l-3-3.6c-0.3-0.4-0.3-0.9,0.1-1.2c0.4-0.3,0.9-0.3,1.2,0.1l3,3.6
					c0.3,0.4,0.3,0.9-0.1,1.2C172.1,25.5,171.9,25.5,171.7,25.5z"/>
			</g>
			<g id="XMLID_130_">
				<line class="st5" x1="175.9" y1="18.8" x2="177" y2="20.2"/>
				<path class="st5" d="M177,21.1c-0.2,0-0.5-0.1-0.7-0.3l-1.2-1.4c-0.3-0.4-0.3-0.9,0.1-1.2c0.4-0.3,0.9-0.3,1.2,0.1l1.2,1.4
					c0.3,0.4,0.3,0.9-0.1,1.2C177.4,21,177.2,21.1,177,21.1z"/>
			</g>
		</g>
		<g>
			<g>
				<g>
					<path class="st5" d="M156.3,25.7c-0.2,0-0.5-0.1-0.7-0.3c-0.3-0.4-0.3-0.9,0.1-1.2l2.7-2.2c0.4-0.3,0.9-0.3,1.2,0.1
						c0.3,0.4,0.3,0.9-0.1,1.2l-2.7,2.2C156.7,25.6,156.5,25.7,156.3,25.7z"/>
				</g>
				<g>
					<path class="st5" d="M168.9,15.2c-0.2,0-0.5-0.1-0.7-0.3c-0.3-0.4-0.3-0.9,0.1-1.2l2.7-2.2c0.4-0.3,0.9-0.3,1.2,0.1
						c0.3,0.4,0.3,0.9-0.1,1.2l-2.7,2.2C169.3,15.1,169.1,15.2,168.9,15.2z"/>
				</g>
			</g>
			<g>
				<g>
					<path class="st5" d="M164.5,12.9C164.5,12.9,164.4,12.9,164.5,12.9c-0.6,0-0.9-0.5-0.9-0.9l0.3-3.5c0-0.5,0.5-0.8,0.9-0.8
						c0.5,0,0.8,0.5,0.8,0.9l-0.3,3.5C165.3,12.6,164.9,12.9,164.5,12.9z"/>
				</g>
			</g>
			<g>
				<g>
					<path class="st5" d="M159.8,14.4c-0.2,0-0.5-0.1-0.7-0.3l-2.2-2.7c-0.3-0.4-0.3-0.9,0.1-1.2c0.4-0.3,0.9-0.3,1.2,0.1l2.2,2.7
						c0.3,0.4,0.3,0.9-0.1,1.2C160.2,14.3,160,14.4,159.8,14.4z"/>
				</g>
			</g>
			<g>
				<g>
					<path class="st5" d="M157.5,18.7C157.5,18.7,157.5,18.7,157.5,18.7l-3.5-0.3c-0.5,0-0.8-0.5-0.8-0.9c0-0.5,0.5-0.8,0.9-0.8
						l3.5,0.3c0.5,0,0.8,0.5,0.8,0.9C158.4,18.4,158,18.7,157.5,18.7z"/>
				</g>
			</g>
		</g>
	</g>
	<g>
		<path class="st5" d="M21.3,17.2v2.7h-5.4v2.2h4.7v2.5h-4.7V27h5.5v2.7h-8.5V17.2H21.3z"/>
		<path class="st5" d="M22.8,26.4h2.6c0,1.2,1,1.5,1.7,1.5c0.6,0,1.2-0.3,1.2-0.9c0-0.5-0.4-0.8-1.5-1c-2.5-0.4-3.6-1.2-3.6-3
			c0-1.8,1.5-3,3.9-3c3,0,4.2,1.9,4.1,3.6h-2.5c0.1-1.2-1.1-1.4-1.6-1.4c-0.5,0-1.3,0.2-1.3,0.8c0,0.7,0.8,0.8,1.6,0.9
			c2.8,0.5,3.8,1.4,3.8,3.1c0,1.9-1.7,3-3.9,3C24.5,30.1,22.7,28.5,22.8,26.4z"/>
		<path class="st5" d="M32.2,25c0-2.7,1.6-5,4.8-5c2.3,0,4.2,1.4,4.3,3.7h-2.8c-0.2-1.1-1-1.3-1.5-1.3c-0.9,0-1.8,0.6-1.8,2.6
			c0,2.1,1.2,2.5,1.9,2.5c0.5,0,1.3-0.3,1.4-1.1h2.8c-0.2,2.3-2,3.7-4.3,3.6C34,30,32.2,27.7,32.2,25z"/>
		<path class="st5" d="M48.2,23.1c-1.3-0.1-2.7,0-2.7,2.1v4.6h-3v-9.4h2.5l0.2,1.8c0.3-1.4,1.3-2.1,2.9-2V23.1z"/>
		<path class="st5" d="M52.4,14.9l1.3,1.8l-4.9,2.6l-0.5-0.7L52.4,14.9z M49.2,20.3h3v9.4h-3V20.3z"/>
		<path class="st5" d="M56.9,21.6c0.2-0.7,1.2-1.5,2.6-1.5c2.7,0,4.1,2.5,4.1,4.9c0,2.8-1.4,5.1-4.2,5.1c-1.4,0-2.5-0.8-2.8-1.8
			l-0.2,1.6h-2.6V16.4h3V21.6z M56.7,24.7v0.4c0,1.2,0.7,2.2,1.9,2.2c1.4,0,1.9-1.1,1.9-2.3c0-1.1-0.5-2.3-1.9-2.3
			C57.7,22.7,56.7,23.4,56.7,24.7z"/>
		<path class="st5" d="M74.1,24.9l0,0.6h-6.4c0,1.4,0.8,2.2,1.9,2.2c0.6,0,1.4-0.2,1.6-1.2H74c-0.3,2.2-2,3.5-4.3,3.5
			c-3.2,0-4.9-2.2-4.9-5c0-2.9,1.7-5.1,4.7-5.1C71.6,20,74.1,21.2,74.1,24.9z M67.8,23.8h3.3c0-1-0.7-1.7-1.6-1.7
			C68.6,22.1,67.9,22.8,67.8,23.8z"/>
		<path class="st5" d="M75.6,20.3h2.5l0.2,1.6c0.3-1.1,1.7-1.8,2.9-1.8c2.3,0,3.4,1.5,3.4,3.7v6h-3V24c0-1-0.5-1.5-1.3-1.5
			c-0.7,0-1.7,0.4-1.7,1.9v5.3h-3V20.3z"/>
		<path class="st5" d="M85.9,25c0-2.9,2.1-5,5-5c3,0,5,2.1,5,5c0,2.9-1.9,5-5,5C87.8,30,85.9,27.9,85.9,25z M92.9,25.1
			c0-1.2-0.5-2.5-2.1-2.5c-1.6,0-2.1,1.3-2.1,2.5c0,1.1,0.6,2.4,2.1,2.4C92.4,27.4,92.9,26.2,92.9,25.1z"/>
		<path class="st5" d="M96.9,26.4h2.6c0,1.2,1,1.5,1.7,1.5c0.6,0,1.2-0.3,1.2-0.9c0-0.5-0.4-0.8-1.5-1c-2.5-0.4-3.6-1.2-3.6-3
			c0-1.8,1.5-3,3.9-3c3,0,4.2,1.9,4.1,3.6h-2.5c0.1-1.2-1.1-1.4-1.6-1.4c-0.5,0-1.3,0.2-1.3,0.8c0,0.7,0.8,0.8,1.6,0.9
			c2.8,0.5,3.8,1.4,3.8,3.1c0,1.9-1.7,3-3.9,3C98.6,30.1,96.9,28.5,96.9,26.4z"/>
	</g>
</g>
</svg>
