<?xml version="1.0" encoding="utf-8"?>
<!-- Generator: Adobe Illustrator 16.0.3, SVG Export Plug-In . SVG Version: 6.00 Build 0)  -->
<!DOCTYPE svg PUBLIC "-//W3C//DTD SVG 1.1//EN" "http://www.w3.org/Graphics/SVG/1.1/DTD/svg11.dtd">
<svg version="1.1" id="Capa_1" xmlns="http://www.w3.org/2000/svg" xmlns:xlink="http://www.w3.org/1999/xlink" x="0px" y="0px"
	 width="48.834px" height="32.917px" viewBox="0 1.583 48.834 32.917" enable-background="new 0 1.583 48.834 32.917"
	 xml:space="preserve">
<path fill="none" stroke="#1C1C1A" stroke-width="2" stroke-linecap="round" stroke-linejoin="round" d="M34.068,5.11
	c-0.51-0.511-1.116-0.916-1.783-1.193C31.618,3.641,30.9,3.498,30.18,3.498c-0.723,0-1.438,0.143-2.104,0.419
	C27.407,4.194,26.8,4.599,26.29,5.11l-1.061,1.06l-1.06-1.06c-1.032-1.032-2.431-1.611-3.89-1.611s-2.858,0.58-3.89,1.611
	C15.357,6.141,14.778,7.541,14.778,9s0.58,2.858,1.611,3.89l1.06,1.06l7.78,7.78l7.78-7.78l1.06-1.06
	c0.513-0.511,0.916-1.117,1.193-1.785C35.538,10.438,35.68,9.722,35.68,9s-0.142-1.438-0.418-2.105
	C34.984,6.227,34.581,5.621,34.068,5.11L34.068,5.11z"/>
<g>
	<path fill="#1C1C1A" d="M5.985,26.665H2.291v2.123h3.418v1.282H2.291v3.263H0.839v-7.976h5.146V26.665z"/>
	<path fill="#1C1C1A" d="M6.696,31.618c0-1.235,1.104-1.847,2.231-1.847c0.527,0,1.031,0.131,1.391,0.384v-0.673
		c0-0.814-0.48-1.103-1.104-1.103c-0.671,0-1.067,0.433-1.067,1.031H6.876c-0.072-0.996,0.576-2.147,2.411-2.147
		c1.355,0,2.362,0.732,2.362,2.352v2.351c0,0.168,0.096,0.396,0.504,0.384v1.021l-0.312,0.036c-0.803,0.048-1.499-0.432-1.463-0.995
		c-0.3,0.778-0.996,1.043-1.631,1.043C7.644,33.453,6.696,32.77,6.696,31.618z M10.306,31.186c-0.3-0.24-0.779-0.371-1.283-0.371
		c-0.54,0-1.055,0.275-1.055,0.778c0,0.552,0.516,0.708,0.947,0.72C9.395,32.326,10.306,32.098,10.306,31.186z"/>
	<path fill="#1C1C1A" d="M15.97,33.333h-1.931l-2.075-5.925h1.451l1.583,4.869l1.535-4.869h1.499L15.97,33.333z"/>
	<path fill="#1C1C1A" d="M18.264,30.357c0-1.715,1.259-3.129,3.034-3.129c1.811,0,3.046,1.414,3.046,3.129
		c0,1.703-1.235,3.131-3.035,3.131C19.499,33.489,18.264,32.063,18.264,30.357z M22.929,30.383c0-0.936-0.54-1.906-1.619-1.906
		c-1.091,0-1.631,0.972-1.631,1.906c0,0.924,0.504,1.848,1.631,1.848C22.425,32.229,22.929,31.294,22.929,30.383z"/>
	<path fill="#1C1C1A" d="M28.666,28.715c-0.923-0.096-1.739,0.096-1.739,1.332v3.286h-1.379v-5.925h1.224l0.084,1.007
		c0.215-0.815,0.768-1.211,1.811-1.115V28.715z"/>
	<path fill="#1C1C1A" d="M31.188,26.484h-1.596v-1.522h1.596V26.484z M31.078,33.333h-1.379v-5.925h1.379V33.333z"/>
	<path fill="#1C1C1A" d="M35.877,32.146v1.174c-0.24,0.037-0.479,0.049-0.72,0.049c-1.367,0-2.22-0.6-2.22-1.955v-2.818h-0.898
		v-0.779c1.164-0.504,1.234-1.764,1.234-1.836h1.309c0.036,0.815-0.204,1.176-0.48,1.428h1.703v1.188h-1.511v2.674
		c0,0.696,0.3,0.899,1.127,0.899C35.577,32.169,35.721,32.158,35.877,32.146z"/>
	<path fill="#1C1C1A" d="M36.432,30.357c0-1.715,1.26-3.129,3.034-3.129c1.812,0,3.046,1.414,3.046,3.129
		c0,1.703-1.234,3.131-3.035,3.131C37.667,33.489,36.432,32.063,36.432,30.357z M41.098,30.383c0-0.936-0.541-1.906-1.619-1.906
		c-1.092,0-1.631,0.972-1.631,1.906c0,0.924,0.504,1.848,1.631,1.848C40.593,32.229,41.098,31.294,41.098,30.383z"/>
	<path fill="#1C1C1A" d="M43.415,31.366h1.283c0.012,0.6,0.491,1.067,1.247,1.067c0.611,0,1.031-0.289,1.02-0.744
		c-0.012-0.433-0.408-0.612-1.391-0.84c-1.188-0.24-2.004-0.695-2.004-1.787c0-1.104,0.912-1.847,2.268-1.847
		c1.559,0,2.447,0.972,2.459,2.159h-1.234c-0.024-0.827-0.756-1.066-1.225-1.066c-0.419,0-0.995,0.203-0.995,0.695
		s0.576,0.587,1.163,0.73c1.559,0.324,2.268,0.853,2.268,1.955c0,1.127-0.912,1.848-2.219,1.848
		C44.193,33.537,43.318,32.374,43.415,31.366z"/>
</g>
</svg>
