<?xml version="1.0" encoding="utf-8"?>
<!-- Generator: Adobe Illustrator 16.0.3, SVG Export Plug-In . SVG Version: 6.00 Build 0)  -->
<!DOCTYPE svg PUBLIC "-//W3C//DTD SVG 1.1//EN" "http://www.w3.org/Graphics/SVG/1.1/DTD/svg11.dtd">
<svg version="1.1" id="Capa_1" xmlns="http://www.w3.org/2000/svg" xmlns:xlink="http://www.w3.org/1999/xlink" x="0px" y="0px"
	 width="50px" height="34.5px" viewBox="0 0 50 34.5" enable-background="new 0 0 50 34.5" xml:space="preserve">
<path fill="none" stroke="#F2CD00" stroke-width="2" stroke-linecap="round" stroke-linejoin="round" d="M34.069,5.11
	c-0.51-0.511-1.117-0.916-1.784-1.193c-0.667-0.276-1.384-0.419-2.105-0.419c-0.723,0-1.438,0.143-2.105,0.419
	C27.407,4.194,26.8,4.599,26.29,5.11l-1.061,1.06l-1.06-1.06c-1.032-1.032-2.431-1.611-3.89-1.611s-2.858,0.58-3.89,1.611
	S14.778,7.541,14.778,9s0.58,2.858,1.611,3.89l1.06,1.06l7.78,7.78l7.78-7.78l1.06-1.06c0.512-0.511,0.916-1.117,1.193-1.785
	c0.276-0.667,0.418-1.383,0.418-2.105s-0.142-1.438-0.418-2.105C34.985,6.227,34.581,5.621,34.069,5.11L34.069,5.11z"/>
<g>
	<path fill="#F2CD00" d="M5.985,26.665H2.291v2.123h3.418v1.283H2.291v3.262H0.839v-7.976h5.146V26.665z"/>
	<path fill="#F2CD00" d="M6.696,31.618c0-1.235,1.104-1.847,2.231-1.847c0.527,0,1.031,0.132,1.391,0.384v-0.672
		c0-0.815-0.48-1.103-1.104-1.103c-0.671,0-1.067,0.432-1.067,1.031H6.876c-0.072-0.996,0.576-2.147,2.411-2.147
		c1.355,0,2.362,0.732,2.362,2.351v2.351c0,0.168,0.096,0.396,0.504,0.384v1.02l-0.312,0.036c-0.803,0.048-1.499-0.432-1.463-0.995
		c-0.3,0.779-0.996,1.043-1.631,1.043C7.644,33.453,6.696,32.77,6.696,31.618z M10.306,31.186c-0.3-0.24-0.779-0.372-1.283-0.372
		c-0.54,0-1.055,0.276-1.055,0.779c0,0.552,0.516,0.708,0.947,0.72C9.395,32.326,10.306,32.098,10.306,31.186z"/>
	<path fill="#F2CD00" d="M15.97,33.333h-1.931l-2.075-5.925h1.451l1.583,4.869l1.535-4.869h1.499L15.97,33.333z"/>
	<path fill="#F2CD00" d="M18.264,30.358c0-1.715,1.259-3.13,3.034-3.13c1.811,0,3.046,1.415,3.046,3.13
		c0,1.703-1.235,3.13-3.035,3.13C19.499,33.489,18.264,32.062,18.264,30.358z M22.929,30.383c0-0.936-0.54-1.907-1.619-1.907
		c-1.091,0-1.631,0.972-1.631,1.907c0,0.923,0.504,1.847,1.631,1.847C22.425,32.229,22.929,31.294,22.929,30.383z"/>
	<path fill="#F2CD00" d="M28.666,28.715c-0.923-0.096-1.739,0.096-1.739,1.332v3.286h-1.379v-5.925h1.223l0.084,1.007
		c0.216-0.815,0.768-1.211,1.811-1.115V28.715z"/>
	<path fill="#F2CD00" d="M31.187,26.485h-1.595v-1.523h1.595V26.485z M31.078,33.333h-1.379v-5.925h1.379V33.333z"/>
	<path fill="#F2CD00" d="M35.877,32.146v1.175c-0.24,0.036-0.479,0.048-0.72,0.048c-1.367,0-2.219-0.6-2.219-1.955v-2.818h-0.899
		v-0.78c1.164-0.503,1.235-1.763,1.235-1.835h1.308c0.036,0.815-0.204,1.175-0.48,1.427h1.703v1.188h-1.511v2.674
		c0,0.696,0.3,0.899,1.127,0.899C35.577,32.169,35.721,32.158,35.877,32.146z"/>
	<path fill="#F2CD00" d="M36.432,30.358c0-1.715,1.259-3.13,3.034-3.13c1.811,0,3.046,1.415,3.046,3.13
		c0,1.703-1.235,3.13-3.035,3.13C37.667,33.489,36.432,32.062,36.432,30.358z M41.097,30.383c0-0.936-0.54-1.907-1.619-1.907
		c-1.091,0-1.631,0.972-1.631,1.907c0,0.923,0.504,1.847,1.631,1.847C40.593,32.229,41.097,31.294,41.097,30.383z"/>
	<path fill="#F2CD00" d="M43.415,31.366h1.283c0.012,0.6,0.492,1.067,1.247,1.067c0.612,0,1.032-0.288,1.02-0.744
		c-0.012-0.432-0.408-0.612-1.391-0.839c-1.188-0.24-2.003-0.696-2.003-1.787c0-1.104,0.912-1.847,2.267-1.847
		c1.559,0,2.447,0.972,2.459,2.159h-1.235c-0.024-0.827-0.756-1.067-1.224-1.067c-0.419,0-0.995,0.204-0.995,0.696
		s0.576,0.587,1.163,0.731c1.559,0.324,2.267,0.852,2.267,1.955c0,1.127-0.912,1.847-2.219,1.847
		C44.194,33.537,43.319,32.374,43.415,31.366z"/>
</g>
</svg>
