<?xml version="1.0" encoding="utf-8"?>
<!-- Generator: Adobe Illustrator 27.6.1, SVG Export Plug-In . SVG Version: 6.00 Build 0)  -->
<svg version="1.1" id="Capa_1" xmlns="http://www.w3.org/2000/svg" xmlns:xlink="http://www.w3.org/1999/xlink" x="0px" y="0px"
	 viewBox="0 0 180 60" style="enable-background:new 0 0 180 60;" xml:space="preserve">
<style type="text/css">
	.st0{fill:url(#SVGID_1_);}
	.st1{fill:url(#shape_3_00000157992819457577385980000017405541801418995627_);}
	.st2{fill:url(#shape_2_00000083072962464485389510000006179967040000020126_);}
	.st3{fill-rule:evenodd;clip-rule:evenodd;fill:#FFFFFF;}
	.st4{fill:#FFFFFF;}
</style>
<g>
	
		<linearGradient id="SVGID_1_" gradientUnits="userSpaceOnUse" x1="2.861023e-06" y1="32" x2="180" y2="32" gradientTransform="matrix(1 0 0 -1 0 62)">
		<stop  offset="0" style="stop-color:#20B038"/>
		<stop  offset="1" style="stop-color:#60D66A"/>
	</linearGradient>
	<path class="st0" d="M172.27,60H7.73C3.46,60,0,55.64,0,50.25V9.75C0,4.37,3.46,0,7.73,0h164.54c4.27,0,7.73,4.37,7.73,9.75v40.5
		C180,55.64,176.54,60,172.27,60z"/>
	<g>
		<g>
			<g>
				
					<linearGradient id="shape_3_00000179606152130401957160000002347906108515585724_" gradientUnits="userSpaceOnUse" x1="139.6476" y1="11.3756" x2="139.6476" y2="52.6172" gradientTransform="matrix(1 0 0 -1 0 62)">
					<stop  offset="0" style="stop-color:#20B038"/>
					<stop  offset="1" style="stop-color:#60D66A"/>
				</linearGradient>
				
					<path id="shape_3_00000134968018031549840670000001082323630243526530_" style="fill:url(#shape_3_00000179606152130401957160000002347906108515585724_);" d="
					M119.12,50.62l2.9-10.59c-1.79-3.1-2.73-6.62-2.73-10.22c0.01-11.27,9.17-20.43,20.44-20.43c5.46,0,10.6,2.13,14.46,5.99
					c3.86,3.86,5.98,8.99,5.98,14.46c-0.01,11.27-9.17,20.43-20.44,20.43l0,0h-0.01c-3.42,0-6.78-0.86-9.77-2.48L119.12,50.62z"/>
				
					<linearGradient id="shape_2_00000031908783697313757330000012348121516381303690_" gradientUnits="userSpaceOnUse" x1="139.6404" y1="10.6412" x2="139.6404" y2="53.3588" gradientTransform="matrix(1 0 0 -1 0 62)">
					<stop  offset="0" style="stop-color:#F9F9F9"/>
					<stop  offset="1" style="stop-color:#FFFFFF"/>
				</linearGradient>
				
					<path id="shape_2_00000094615617340265030180000000982444687790969222_" style="fill:url(#shape_2_00000031908783697313757330000012348121516381303690_);" d="
					M118.38,51.36l3-10.97c-1.85-3.21-2.83-6.85-2.83-10.58c0.01-11.67,9.5-21.17,21.18-21.17c5.67,0,10.98,2.21,14.98,6.21
					c4,4,6.2,9.32,6.2,14.98c-0.01,11.67-9.5,21.17-21.18,21.17l0,0h-0.01c-3.54,0-7.03-0.89-10.12-2.58L118.38,51.36z
					 M130.13,44.58l0.64,0.38c2.7,1.61,5.8,2.45,8.96,2.46h0.01c9.7,0,17.6-7.89,17.6-17.6c0-4.7-1.83-9.12-5.15-12.45
					c-3.33-3.33-7.74-5.16-12.44-5.16c-9.71,0-17.6,7.89-17.6,17.59c0,3.33,0.93,6.56,2.69,9.36l0.42,0.66l-1.78,6.49L130.13,44.58z
					"/>
				<path id="shape_1_00000167362151126494912970000004265014188854523316_" class="st3" d="M134.44,20.96
					c-0.4-0.88-0.81-0.9-1.19-0.91c-0.31-0.01-0.66-0.01-1.02-0.01s-0.93,0.13-1.41,0.66c-0.48,0.53-1.85,1.81-1.85,4.41
					s1.89,5.12,2.16,5.47c0.27,0.35,3.66,5.87,9.04,7.98c4.47,1.76,5.38,1.41,6.35,1.32s3.13-1.28,3.57-2.51
					c0.44-1.24,0.44-2.3,0.31-2.51c-0.13-0.22-0.48-0.35-1.02-0.62c-0.53-0.27-3.13-1.55-3.61-1.72c-0.48-0.17-0.84-0.27-1.19,0.27
					c-0.35,0.53-1.37,1.72-1.68,2.07c-0.31,0.35-0.62,0.4-1.14,0.13c-0.53-0.27-2.23-0.82-4.26-2.63c-1.57-1.4-2.64-3.13-2.94-3.66
					c-0.31-0.53-0.04-0.81,0.23-1.08c0.24-0.24,0.53-0.62,0.79-0.93c0.27-0.31,0.35-0.53,0.53-0.89c0.17-0.35,0.09-0.66-0.04-0.93
					C135.94,24.63,134.91,22,134.44,20.96z"/>
			</g>
		</g>
		<g>
			<path class="st4" d="M19.1,20.08h5.21l4.64,15.79l4.71-15.79h5.3l-6.61,19.81h-6.7L19.1,20.08z"/>
			<path class="st4" d="M53.36,32.29l-0.06,0.95H43.25c-0.06,2.17,1.22,3.46,2.98,3.46c0.92,0,2.26-0.32,2.56-1.94h4.32
				c-0.5,3.48-3.1,5.54-6.73,5.54c-5.13,0-7.68-3.46-7.68-7.83c0-4.56,2.74-8.01,7.36-7.98C49.4,24.52,53.36,26.37,53.36,32.29z
				 M43.38,30.57h5.24c0.06-1.61-1.04-2.68-2.47-2.68C44.66,27.89,43.46,28.99,43.38,30.57z"/>
			<path class="st4" d="M55.59,25h3.99l0.27,2.51c0.53-1.73,2.68-2.89,4.53-2.89c3.61,0,5.36,2.38,5.36,5.87v9.41h-4.68v-9.03
				c0-1.61-0.74-2.35-2.05-2.35c-1.16,0-2.74,0.68-2.74,2.98v8.4h-4.68L55.59,25L55.59,25z"/>
			<path class="st4" d="M81.57,36.11v3.78c-0.53,0.09-1.28,0.12-2.05,0.12c-3.9,0-6.47-1.46-6.47-5.72v-5.57h-2.09v-2.65
				c3.4-1.22,3.25-4.47,3.22-4.77h4.2c0.03,2.33-0.48,3.12-1.16,3.69h4.17v3.72h-3.75v5.06c0,1.81,0.74,2.41,2.53,2.41
				C80.67,36.2,81.15,36.17,81.57,36.11z"/>
			<path class="st4" d="M82.57,35.48c0-3.28,2.8-4.53,5.45-4.53c1.31,0,2.47,0.36,3.16,1.04v-1.79c0-1.7-1.25-2.05-2.02-2.05
				c-0.99,0-2.05,0.5-2.05,2.02h-4.08c-0.27-2.62,1.52-5.66,6.26-5.66c3.87,0,6.31,2.23,6.31,6.16v5.24c0,0.63,0.3,1.04,1.1,0.86
				v3.22l-0.71,0.12c-2.09,0.24-4.05-0.71-4.32-2.62c-0.63,2.2-2.77,2.71-3.99,2.71C84.9,40.22,82.57,38.52,82.57,35.48z
				 M91.45,34.83c-0.45-0.71-1.43-1.16-2.41-1.16c-1.16,0-2.26,0.5-2.26,1.73c0.03,1.31,1.49,1.46,2.09,1.49
				C89.87,36.88,91.36,36.4,91.45,34.83z"/>
			<path class="st4" d="M97.86,34.62h4.17c0.06,1.81,1.64,2.3,2.62,2.3c0.95,0,1.91-0.45,1.88-1.4c0-0.81-0.63-1.22-2.38-1.58
				c-3.99-0.68-5.75-1.94-5.75-4.68c0-2.83,2.38-4.8,6.2-4.8c4.71,0.03,6.61,2.95,6.52,5.63h-3.96c0.09-1.81-1.79-2.17-2.47-2.17
				c-0.81-0.03-2.09,0.27-2.09,1.25c0,1.04,1.22,1.25,2.53,1.49c4.35,0.78,5.93,2.26,5.93,4.92c0,2.98-2.62,4.8-6.2,4.8
				C100.54,40.36,97.74,37.98,97.86,34.62z"/>
		</g>
	</g>
</g>
</svg>
