<svg width="16" height="15" viewBox="0 0 16 15" fill="none" xmlns="http://www.w3.org/2000/svg">
<path d="M11.1677 8.98812C10.9776 8.8951 10.0403 8.445 9.86561 8.38349C9.69092 8.32122 9.56395 8.29047 9.43697 8.47651C9.31 8.6618 8.94446 9.08114 8.83288 9.20492C8.72206 9.32869 8.61048 9.3437 8.4204 9.25068C7.85867 9.03268 7.3402 8.72095 6.88823 8.32948C6.47138 7.95387 6.11401 7.52005 5.82779 7.04219C5.71697 6.85615 5.81625 6.75563 5.91167 6.66336C5.99709 6.58009 6.10252 6.44656 6.19717 6.33779C6.27557 6.24388 6.33983 6.13956 6.38802 6.02797C6.41338 5.97669 6.42518 5.92004 6.42236 5.86318C6.41954 5.80632 6.40218 5.75105 6.37186 5.7024C6.32415 5.60938 5.94322 4.69493 5.7847 4.32285C5.63002 3.96127 5.47303 4.01003 5.35529 4.00403C5.24447 3.99878 5.1175 3.99728 4.99052 3.99728C4.89393 3.9999 4.79894 4.02198 4.71153 4.06213C4.62413 4.10229 4.54619 4.15964 4.48262 4.23058C4.26716 4.42947 4.09657 4.66993 3.9817 4.93664C3.86682 5.20335 3.8102 5.49045 3.81542 5.77967C3.87721 6.4805 4.14762 7.14848 4.59343 7.70159C5.41063 8.89589 6.53241 9.86248 7.84862 10.5065C8.20366 10.6551 8.56635 10.7858 8.93523 10.898C9.32411 11.0131 9.7352 11.038 10.1357 10.9708C10.401 10.9184 10.6522 10.813 10.8736 10.6611C11.0949 10.5093 11.2815 10.3143 11.4216 10.0886C11.5466 9.81101 11.5852 9.5037 11.5325 9.20492C11.4855 9.1269 11.3585 9.08114 11.1677 8.98812ZM13.0854 2.17738C11.7771 0.902362 10.0381 0.134237 8.19215 0.0160074C6.34617 -0.102222 4.51902 0.437501 3.05086 1.53469C1.5827 2.63189 0.573589 4.21178 0.21139 5.98024C-0.150809 7.74869 0.15859 9.5852 1.08198 11.1478L0 14.9999L4.04321 13.967C5.16148 14.5605 6.41448 14.8716 7.68779 14.8716H7.69087C9.19925 14.8709 10.6736 14.4344 11.9276 13.6172C13.1815 12.8 14.1589 11.6388 14.7362 10.2803C15.3135 8.92189 15.4648 7.42713 15.1709 5.9849C14.8771 4.54267 14.1514 3.21769 13.0854 2.17737V2.17738ZM11.0592 12.6714C10.0496 13.2883 8.88233 13.6156 7.69087 13.6159H7.68779C6.55263 13.6158 5.43839 13.3181 4.46184 12.7539L4.23021 12.6204L1.83076 13.234L2.47102 10.9535L2.32096 10.7195C1.65495 9.68414 1.31884 8.47953 1.35513 7.25798C1.39141 6.03642 1.79847 4.85279 2.52483 3.85675C3.25118 2.86071 4.26421 2.09699 5.43582 1.66218C6.60742 1.22736 7.88499 1.14097 9.10696 1.41393C10.3289 1.68689 11.4404 2.30695 12.3009 3.19569C13.1614 4.08442 13.7322 5.20194 13.9412 6.40691C14.1501 7.61188 13.9878 8.85019 13.4749 9.96526C12.9619 11.0803 12.1212 12.0221 11.0592 12.6714Z" fill="#F2F2F2"/>
</svg>
