<?xml version="1.0" encoding="utf-8"?>
<!-- Generator: Adobe Illustrator 16.0.3, SVG Export Plug-In . SVG Version: 6.00 Build 0)  -->
<!DOCTYPE svg PUBLIC "-//W3C//DTD SVG 1.1//EN" "http://www.w3.org/Graphics/SVG/1.1/DTD/svg11.dtd">
<svg version="1.1" id="Layer_1" xmlns="http://www.w3.org/2000/svg" xmlns:xlink="http://www.w3.org/1999/xlink" x="0px" y="0px"
	 width="134.862px" height="91.784px" viewBox="0 0 134.862 91.784" enable-background="new 0 0 134.862 91.784"
	 xml:space="preserve">
<g>
	<path fill-rule="evenodd" clip-rule="evenodd" fill="#FFFFFF" d="M100.43,64.216c3.607,0.029,7.217,0.052,10.824,0.091
		c0.443,0.004,0.909-0.125,1.53,0.229c-2.722,0.862-5.285,1.678-7.852,2.485C86.436,72.844,67.939,78.667,49.44,84.487
		c-5.547,1.748-11.102,3.462-16.633,5.25c-0.866,0.28-1.066-0.019-1.326-0.734c-3.002-8.208-6.035-16.406-9.06-24.607
		c0.063-0.085,0.125-0.171,0.185-0.256c0.252,0.219,0.526,0.175,0.804,0.07c3.827,0.153,7.656,0.153,11.48,0
		c0.907,0.318,0.977-0.202,0.973-0.909c-0.021-2.679,0.07-5.359-0.042-8.032c-0.055-1.299,0.303-1.621,1.592-1.59
		c4.322,0.101,8.593-0.311,12.572-2.17c3.747-1.753,6.405-4.427,6.871-8.78c0.185-0.33,0.177-0.678,0.085-1.031
		c0.123-0.425,0.138-0.851-0.012-1.274c0.089-0.27,0.085-0.53-0.058-0.782c-0.352-4.087-2.755-6.628-6.304-8.251
		c-3.536-1.616-7.306-2.187-11.158-2.219c-5.225-0.045-10.451,0.004-15.676-0.061c-1.085-0.015-1.316,0.324-1.313,1.357
		c0.039,10.749,0.023,21.497,0.029,32.245c0,0.419,0.06,0.837,0.093,1.256c-0.125-0.054-0.25-0.109-0.375-0.167
		c-2.209-6.056-4.407-12.117-6.63-18.169c-4.417-12.034-8.848-24.06-13.267-36.09C1.762,8.159,1.782,8.149,3.287,8.066
		c15.828-0.879,31.655-1.751,47.48-2.634c15.233-0.851,30.467-1.705,45.699-2.563c4.116-0.233,8.232-0.464,12.344-0.75
		c0.883-0.062,1.347,0.163,1.724,1.01c6.094,13.641,12.226,27.267,18.348,40.895c1.879,4.18,3.735,8.374,5.666,12.529
		c0.392,0.84,0.279,1.103-0.594,1.373c-6.493,2.001-12.968,4.056-19.449,6.086c-0.444,0.138-1.003,0.534-1.108-0.373
		c0.01-0.041,0.027-0.082,0.027-0.125c0.011-11.187,0.017-22.376,0.048-33.563c0.002-0.845-0.384-0.907-1.023-0.751
		c-3.827-0.108-7.653-0.106-11.48,0c-0.984-0.297-1.006,0.292-1.004,1.018c0.014,6.232,0.008,12.461,0.008,18.691
		c0,4.747-0.008,9.492,0.02,14.241C99.994,63.511,99.625,64.14,100.43,64.216z M93.656,39.572c0-2.875-0.037-5.582,0.023-8.287
		c0.017-0.847-0.295-1.144-1.055-1.417c-3.141-1.126-6.397-1.25-9.676-1.275c-5.685-0.043-11.102,0.984-15.871,4.254
		c-5.487,3.763-7.931,9.059-7.351,15.672c0.565,6.469,3.959,11.04,9.844,13.629c7.834,3.448,15.913,3.39,24.073,1.25
		c0.666-0.175,0.872-0.478,0.856-1.146c-0.045-2.039-0.02-4.079-0.035-6.12c-0.012-1.794-0.008-1.759-1.695-1.21
		c-4.277,1.394-8.605,2.072-12.995,0.544c-4.211-1.466-6.469-5.209-6.075-9.935c0.361-4.318,3.153-7.374,7.465-8.178
		c3.404-0.633,6.681-0.126,9.875,1.103C91.861,38.771,92.658,39.144,93.656,39.572z M107.01,25.707
		c2.992-0.103,5.797-1.147,7.186-4.236c1.25-2.786,1.103-5.656-0.868-8.18c-2.344-3.006-7.833-3.751-11.306-1.596
		c-1.254,0.777-2.307,1.753-2.829,3.172C97.169,20.369,100.137,25.643,107.01,25.707z"/>
	<path fill-rule="evenodd" clip-rule="evenodd" fill="#FFFFFF" d="M35.693,41.424c0.002-1.313,0.016-2.629-0.006-3.941
		c-0.009-0.52,0.136-0.784,0.707-0.776c1.738,0.023,3.479,0.014,5.127,0.687c1.662,0.68,2.534,1.917,2.602,3.708
		c0.074,2.004-0.771,3.479-2.421,4.24c-1.705,0.783-3.538,0.763-5.357,0.843c-0.611,0.029-0.662-0.342-0.656-0.819
		C35.703,44.052,35.693,42.738,35.693,41.424z"/>
</g>
</svg>
